<?xml version="1.0" encoding="utf-8"?>
<svg version="1.1" xmlns:xlink="http://www.w3.org/1999/xlink" width="461px" height="224px" xmlns="http://www.w3.org/2000/svg">
  <g transform="matrix(1 0 0 1 -1515 -117 )">
    <path d="M 1516 121  A 3 3 0 0 1 1519 118 L 1972 118  A 3 3 0 0 1 1975 121 L 1975 337  A 3 3 0 0 1 1972 340 L 1519 340  A 3 3 0 0 1 1516 337 L 1516 121  Z " fill-rule="nonzero" fill="#ff3399" stroke="none" fill-opacity="0.0980392156862745" />
    <path d="M 1515.5 121  A 3.5 3.5 0 0 1 1519 117.5 L 1972 117.5  A 3.5 3.5 0 0 1 1975.5 121 L 1975.5 337  A 3.5 3.5 0 0 1 1972 340.5 L 1519 340.5  A 3.5 3.5 0 0 1 1515.5 337 L 1515.5 121  Z " stroke-width="1" stroke-dasharray="9,4" stroke="#ff3399" fill="none" stroke-dashoffset="0.5" />
  </g>
</svg>