<?xml version="1.0" encoding="utf-8"?>
<svg version="1.1" xmlns:xlink="http://www.w3.org/1999/xlink" width="18px" height="17px" xmlns="http://www.w3.org/2000/svg">
  <g transform="matrix(1 0 0 1 -99 -535 )">
    <path d="M 8.29946524064171 5.55276381909548  C 8.69875222816399 5.15410385259631  8.89839572192513 4.67001675041876  8.89839572192513 4.10050251256281  C 8.89839572192513 3.53098827470687  8.69875222816399 3.04690117252931  8.29946524064171 2.64824120603015  C 7.90017825311943 2.24958123953099  7.41532976827095 2.05025125628141  6.84491978609626 2.05025125628141  C 6.27450980392157 2.05025125628141  5.78966131907308 2.24958123953099  5.3903743315508 2.64824120603015  C 4.99108734402852 3.04690117252931  4.79144385026738 3.53098827470687  4.79144385026738 4.10050251256281  C 4.79144385026738 4.39949748743719  4.85918003565062 4.69493299832496  4.99465240641711 4.98680904522613  C 4.70231729055259 4.85154941373534  4.40641711229947 4.78391959798995  4.10695187165775 4.78391959798995  C 3.53654188948307 4.78391959798995  3.05169340463458 4.98324958123953  2.6524064171123 5.38190954773869  C 2.25311942959002 5.78056951423786  2.05347593582888 6.26465661641541  2.05347593582888 6.83417085427136  C 2.05347593582888 7.4036850921273  2.25311942959002 7.88777219430486  2.6524064171123 8.28643216080402  C 3.05169340463458 8.68509212730318  3.53654188948307 8.88442211055276  4.10695187165775 8.88442211055276  C 4.67736185383244 8.88442211055276  5.16221033868093 8.68509212730318  5.56149732620321 8.28643216080402  C 5.96078431372549 7.88777219430486  6.16042780748663 7.4036850921273  6.16042780748663 6.83417085427136  C 6.16042780748663 6.53517587939698  6.09269162210339 6.23974036850921  5.9572192513369 5.94786432160804  C 6.24955436720143 6.08312395309883  6.54545454545455 6.15075376884422  6.84491978609626 6.15075376884422  C 7.41532976827095 6.15075376884422  7.90017825311943 5.95142378559464  8.29946524064171 5.55276381909548  Z M 17.6951871657754 11.1802763819095  C 17.8983957219251 11.4152010050251  18 11.5611390284757  18 11.6180904522613  C 18 11.7391122278057  17.825311942959 11.9740368509213  17.475935828877 12.322864321608  C 17.126559714795 12.6716917922948  16.891265597148 12.8461055276382  16.7700534759358 12.8461055276382  C 16.7058823529412 12.8461055276382  16.6042780748663 12.7891541038526  16.4652406417112 12.6752512562814  C 16.3262032085562 12.5613484087102  16.1960784313726 12.4438860971524  16.0748663101604 12.322864321608  C 15.9536541889483 12.2018425460637  15.8163992869875 12.0594639865997  15.6631016042781 11.8957286432161  C 15.5098039215686 11.7319932998325  15.4224598930481 11.6394472361809  15.4010695187166 11.6180904522613  L 14.3743315508021 12.643216080402  L 16.7272727272727 14.9924623115578  C 16.9269162210339 15.1917922948074  17.0267379679144 15.4338358458961  17.0267379679144 15.7185929648241  C 17.0267379679144 16.0175879396985  16.8877005347594 16.3059045226131  16.6096256684492 16.5835427135678  C 16.331550802139 16.8611809045226  16.0427807486631 17  15.7433155080214 17  C 15.458110516934 17  15.2156862745098 16.9003350083752  15.0160427807487 16.7010050251256  L 7.83957219251337 9.5358040201005  C 6.58467023172906 10.4683835845896  5.28342245989305 10.9346733668342  3.93582887700535 10.9346733668342  C 2.77361853832442 10.9346733668342  1.8270944741533 10.5698283082077  1.09625668449198 9.84013819095477  C 0.36541889483066 9.11044807370184  0 8.16541038525963  0 7.00502512562814  C 0 5.86599664991625  0.338680926916221 4.75188442211055  1.01604278074866 3.66268844221105  C 1.69340463458111 2.57349246231156  2.57754010695187 1.69074539363484  3.66844919786096 1.01444723618091  C 4.75935828877005 0.338149078726967  5.87522281639929 0  7.01604278074866 0  C 8.17825311942959 0  9.12477718360071 0.364845058626464  9.85561497326203 1.0945351758794  C 10.5864527629234 1.82422529313233  10.951871657754 2.76926298157454  10.951871657754 3.92964824120603  C 10.951871657754 5.2751256281407  10.4848484848485 6.57432998324958  9.55080213903743 7.82726130653266  L 13.3475935828877 11.6180904522613  L 14.3743315508021 10.5929648241206  C 14.3529411764706 10.571608040201  14.2602495543672 10.4844011725293  14.096256684492 10.3313442211055  C 13.9322638146168 10.1782872696817  13.7896613190731 10.0412479061977  13.668449197861 9.92022613065327  C 13.5472370766488 9.79920435510888  13.4295900178253 9.66928391959799  13.3155080213904 9.5304648241206  C 13.2014260249554 9.39164572864322  13.144385026738 9.29020100502513  13.144385026738 9.22613065326633  C 13.144385026738 9.10510887772194  13.319073083779 8.87018425460636  13.668449197861 8.5213567839196  C 14.017825311943 8.17252931323283  14.25311942959 7.99811557788945  14.3743315508021 7.99811557788945  C 14.4670231729055 7.99811557788945  14.5490196078431 8.03371021775544  14.620320855615 8.10489949748744  C 14.6631016042781 8.14761306532663  14.8270944741533 8.30600921273032  15.1122994652406 8.58008793969849  C 15.397504456328 8.85416666666667  15.6898395721925 9.13714405360134  15.9893048128342 9.42902010050251  C 16.2887700534759 9.72089614740369  16.5971479500891 10.0270100502513  16.9144385026738 10.3473618090452  C 17.2317290552585 10.6677135678392  17.4919786096257 10.945351758794  17.6951871657754 11.1802763819095  Z " fill-rule="nonzero" fill="#aaaaaa" stroke="none" transform="matrix(1 0 0 1 99 535 )" />
  </g>
</svg>