<?xml version="1.0" encoding="utf-8"?>
<svg version="1.1" xmlns:xlink="http://www.w3.org/1999/xlink" width="351px" height="73px" xmlns="http://www.w3.org/2000/svg">
  <defs>
    <mask fill="white" id="clip64">
      <path d="M 0 69  L 0 4  C 0 1.75999999999999  1.75999999999999 0  4 0  L 347 0  C 349.24 0  351 1.75999999999999  351 4  L 351 69  C 351 71.24  349.24 73  347 73  L 181.799999999999 73  L 105 73  L 4 73  C 1.75999999999999 73  0 71.24  0 69  Z " fill-rule="evenodd" />
    </mask>
  </defs>
  <g transform="matrix(1 0 0 1 -1518 -318 )">
    <path d="M 0 69  L 0 4  C 0 1.75999999999999  1.75999999999999 0  4 0  L 347 0  C 349.24 0  351 1.75999999999999  351 4  L 351 69  C 351 71.24  349.24 73  347 73  L 181.799999999999 73  L 105 73  L 4 73  C 1.75999999999999 73  0 71.24  0 69  Z " fill-rule="nonzero" fill="#ff3399" stroke="none" fill-opacity="0.0980392156862745" transform="matrix(1 0 0 1 1518 318 )" />
    <path d="M 0 69  L 0 4  C 0 1.75999999999999  1.75999999999999 0  4 0  L 347 0  C 349.24 0  351 1.75999999999999  351 4  L 351 69  C 351 71.24  349.24 73  347 73  L 181.799999999999 73  L 105 73  L 4 73  C 1.75999999999999 73  0 71.24  0 69  Z " stroke-width="2" stroke-dasharray="9,4" stroke="#ff3399" fill="none" transform="matrix(1 0 0 1 1518 318 )" mask="url(#clip64)" />
  </g>
</svg>