<?xml version="1.0" encoding="utf-8"?>
<svg version="1.1" xmlns:xlink="http://www.w3.org/1999/xlink" width="270px" height="38px" xmlns="http://www.w3.org/2000/svg">
  <g transform="matrix(1 0 0 1 -1006 -697 )">
    <path d="M 1007 701  A 3 3 0 0 1 1010 698 L 1272 698  A 3 3 0 0 1 1275 701 L 1275 731  A 3 3 0 0 1 1272 734 L 1010 734  A 3 3 0 0 1 1007 731 L 1007 701  Z " fill-rule="nonzero" fill="#ff3399" stroke="none" fill-opacity="0.0980392156862745" />
    <path d="M 1006.5 701  A 3.5 3.5 0 0 1 1010 697.5 L 1272 697.5  A 3.5 3.5 0 0 1 1275.5 701 L 1275.5 731  A 3.5 3.5 0 0 1 1272 734.5 L 1010 734.5  A 3.5 3.5 0 0 1 1006.5 731 L 1006.5 701  Z " stroke-width="1" stroke-dasharray="9,4" stroke="#ff3399" fill="none" stroke-dashoffset="0.5" />
  </g>
</svg>