<?xml version="1.0" encoding="utf-8"?>
<svg version="1.1" xmlns:xlink="http://www.w3.org/1999/xlink" width="11px" height="15px" xmlns="http://www.w3.org/2000/svg">
  <g transform="matrix(1 0 0 1 -735 -752 )">
    <path d="M 10.7407407407407 11.2121212121212  C 10.9135802469136 11.4478114478114  11 11.7340067340067  11 12.0707070707071  C 11 12.4074074074074  10.9135802469136 12.6936026936027  10.7407407407407 12.9292929292929  L 9.48148148148148 14.6464646464646  C 9.30864197530864 14.8821548821549  9.09876543209877 15  8.85185185185185 15  C 8.60493827160494 15  8.39506172839506 14.8821548821549  8.22222222222222 14.6464646464646  L 5.5 10.9343434343434  L 2.77777777777778 14.6464646464646  C 2.60493827160494 14.8821548821549  2.39506172839506 15  2.14814814814815 15  C 1.90123456790123 15  1.69135802469136 14.8821548821549  1.51851851851852 14.6464646464646  L 0.259259259259259 12.9292929292929  C 0.0864197530864198 12.6936026936027  0 12.4074074074074  0 12.0707070707071  C 0 11.7340067340067  0.0864197530864198 11.4478114478114  0.259259259259259 11.2121212121212  L 2.98148148148148 7.5  L 0.259259259259259 3.78787878787879  C 0.0864197530864198 3.55218855218855  0 3.26599326599327  0 2.92929292929293  C 0 2.59259259259259  0.0864197530864198 2.3063973063973  0.259259259259259 2.07070707070707  L 1.51851851851852 0.353535353535354  C 1.69135802469136 0.117845117845117  1.90123456790123 0  2.14814814814815 0  C 2.39506172839506 0  2.60493827160494 0.117845117845117  2.77777777777778 0.353535353535354  L 5.5 4.06565656565657  L 8.22222222222222 0.353535353535354  C 8.39506172839506 0.117845117845117  8.60493827160494 0  8.85185185185185 0  C 9.09876543209877 0  9.30864197530864 0.117845117845117  9.48148148148148 0.353535353535354  L 10.7407407407407 2.07070707070707  C 10.9135802469136 2.3063973063973  11 2.59259259259259  11 2.92929292929293  C 11 3.26599326599327  10.9135802469136 3.55218855218855  10.7407407407407 3.78787878787879  L 8.01851851851852 7.5  L 10.7407407407407 11.2121212121212  Z " fill-rule="nonzero" fill="#d7d7d7" stroke="none" transform="matrix(1 0 0 1 735 752 )" />
  </g>
</svg>