<svg t="1637222120805" class="icon" viewBox="0 0 1024 1024" version="1.1" xmlns="http://www.w3.org/2000/svg" p-id="3250" width="200" height="200"><path d="M266.309298 681.364339l473.482755 0c27.39186 0 26.573215-39.703257 0-39.45664L266.309298 641.907699C240.862743 641.907699 239.686964 680.641885 266.309298 681.364339zM516.203742 523.536754c25.035186 0 26.592658-39.45664 0-39.45664L253.157767 484.080114c-28.776394 0-28.124548 39.45664 0 39.45664L516.203742 523.536754zM845.010443 576.145949l0 341.959256L332.071048 918.105205 332.071048 786.582729c0-11.656481-14.633279-26.304086-26.305109-26.304086L174.243463 760.278643 174.243463 102.663194l197.284225 0c18.150382 0 18.150382-39.45664 0-39.45664L161.090908 63.206554c-11.650341 0-26.303063 13.539364-26.303063 25.311479l0 695.193299c0 4.809539 1.592264 9.151427 4.311189 12.641925 0 0.022513 0.042979 0.047072 0.042979 0.089028 0.696872 0.917906 1.460258 1.76725 2.310625 2.553149l155.717528 152.461367c4.376681 4.273327 10.302647 6.445806 16.2061 6.062066l545.416064 0c11.717879 0 25.673729-14.579043 25.673729-26.261107L884.46606 576.145949C884.217397 558.785559 846.038866 558.790676 845.010443 576.145949zM292.614407 891.801119l-92.065835-92.065835 92.065835 0L292.614407 891.801119zM660.878772 378.861724c31.558763 0 57.529251-5.560646 83.839477-22.970154l101.774965 101.459786c4.106528 4.094248 9.628288 6.377244 15.485693 6.377244 5.9055 0 11.386328-2.257413 15.581883-6.423293 8.617261-8.571213 8.617261-22.463618 0-31.038924l-99.82352-99.514481c25.051559-28.976962 40.969087-67.537186 40.969087-105.71674 0-88.011496-73.988108-157.827585-162.318876-157.827585-88.331791 0-153.336294 69.816089-153.336294 157.827585C503.051187 309.092707 572.545958 378.861724 660.878772 378.861724zM660.878772 102.663194c0 0 118.370944 6.694469 118.370944 118.370944 0 63.845097-54.348816 118.370944-118.370944 118.370944-64.042595 0-118.370944-54.525847-118.370944-118.370944C542.507828 157.211555 596.836177 102.663194 660.878772 102.663194z" p-id="3251" fill="#8a8a8a"></path></svg>