<?xml version="1.0" encoding="utf-8"?>
<svg version="1.1" xmlns:xlink="http://www.w3.org/1999/xlink" width="140px" height="40px" xmlns="http://www.w3.org/2000/svg">
  <g transform="matrix(1 0 0 1 -447 -290 )">
    <path d="M 449 295  A 3 3 0 0 1 452 292 L 582 292  A 3 3 0 0 1 585 295 L 585 325  A 3 3 0 0 1 582 328 L 452 328  A 3 3 0 0 1 449 325 L 449 295  Z " fill-rule="nonzero" fill="#ff8800" stroke="none" fill-opacity="0" />
    <path d="M 448 295  A 4 4 0 0 1 452 291 L 582 291  A 4 4 0 0 1 586 295 L 586 325  A 4 4 0 0 1 582 329 L 452 329  A 4 4 0 0 1 448 325 L 448 295  Z " stroke-width="2" stroke-dasharray="6,2" stroke="#d7d7d7" fill="none" />
  </g>
</svg>