<?xml version="1.0" encoding="utf-8"?>
<svg version="1.1" xmlns:xlink="http://www.w3.org/1999/xlink" width="288px" height="236px" xmlns="http://www.w3.org/2000/svg">
  <g transform="matrix(1 0 0 1 -274 -341 )">
    <path d="M 274 341  L 562 341  L 562 577  L 274 577  L 274 341  " fill-rule="nonzero" fill="#cccccc" stroke="none" />
    <path d="M 291 358  L 545 358  L 545 560  L 291 560  L 291 358  " fill-rule="nonzero" fill="#ffffff" stroke="none" />
    <path d="M 441.46 411.8  C 431.548 411.8  423.76 404.012  423.76 394.1  C 423.76 384.188  431.548 376.4  441.46 376.4  C 451.372 376.4  459.16 384.188  459.16 394.1  C 459.16 404.012  451.372 411.8  441.46 411.8  " fill-rule="nonzero" fill="#cccccc" stroke="none" />
    <path d="M 297 554  L 297 449.5  L 357.5 402  L 442.2 460.583333333333  L 490.6 430.5  L 539 460.583333333333  L 539 554  L 297 554  " fill-rule="nonzero" fill="#169bd5" stroke="none" />
  </g>
</svg>