<?xml version="1.0" encoding="utf-8"?>
<svg version="1.1" xmlns:xlink="http://www.w3.org/1999/xlink" width="20px" height="20px" xmlns="http://www.w3.org/2000/svg">
  <g transform="matrix(1 0 0 1 -1094 -241 )">
    <path d="M 1104 241  C 1109.6 241  1114 245.4  1114 251  C 1114 256.6  1109.6 261  1104 261  C 1098.4 261  1094 256.6  1094 251  C 1094 245.4  1098.4 241  1104 241  Z " fill-rule="nonzero" fill="#ffffff" stroke="none" />
    <path d="M 1104 241.5  C 1109.32 241.5  1113.5 245.68  1113.5 251  C 1113.5 256.32  1109.32 260.5  1104 260.5  C 1098.68 260.5  1094.5 256.32  1094.5 251  C 1094.5 245.68  1098.68 241.5  1104 241.5  Z " stroke-width="1" stroke="#797979" fill="none" />
  </g>
</svg>