<?xml version="1.0" encoding="utf-8"?>
<svg version="1.1" xmlns:xlink="http://www.w3.org/1999/xlink" width="40px" height="40px" xmlns="http://www.w3.org/2000/svg">
  <g transform="matrix(1 0 0 1 -157 -992 )">
    <path d="M 177 992  C 188.2 992  197 1000.8  197 1012  C 197 1023.2  188.2 1032  177 1032  C 165.8 1032  157 1023.2  157 1012  C 157 1000.8  165.8 992  177 992  Z " fill-rule="nonzero" fill="#ffffff" stroke="none" />
    <path d="M 177 992.5  C 187.92 992.5  196.5 1001.08  196.5 1012  C 196.5 1022.92  187.92 1031.5  177 1031.5  C 166.08 1031.5  157.5 1022.92  157.5 1012  C 157.5 1001.08  166.08 992.5  177 992.5  Z " stroke-width="1" stroke="#797979" fill="none" />
  </g>
</svg>