<?xml version="1.0" encoding="utf-8"?>
<svg version="1.1" xmlns:xlink="http://www.w3.org/1999/xlink" width="226px" height="185px" xmlns="http://www.w3.org/2000/svg">
  <g transform="matrix(1 0 0 1 -304 -412 )">
    <path d="M 304 412  L 530 412  L 530 597  L 304 597  L 304 412  " fill-rule="nonzero" fill="#cccccc" stroke="none" />
    <path d="M 317 425  L 517 425  L 517 584  L 317 584  L 317 425  " fill-rule="nonzero" fill="#ffffff" stroke="none" />
    <path d="M 435.395 467.5  C 427.625 467.5  421.52 461.395  421.52 453.625  C 421.52 445.855  427.625 439.75  435.395 439.75  C 443.165 439.75  449.27 445.855  449.27 453.625  C 449.27 461.395  443.165 467.5  435.395 467.5  " fill-rule="nonzero" fill="#cccccc" stroke="none" />
    <path d="M 322 580  L 322 497.5  L 369.75 460  L 436.6 506.327433628319  L 474.8 482.5  L 513 506.327433628319  L 513 580  L 322 580  " fill-rule="nonzero" fill="#169bd5" stroke="none" />
  </g>
</svg>