<?xml version="1.0" encoding="utf-8"?>
<svg version="1.1" xmlns:xlink="http://www.w3.org/1999/xlink" width="254px" height="31px" xmlns="http://www.w3.org/2000/svg">
  <defs>
    <mask fill="white" id="clip120">
      <path d="M 0 1.23505976095617  L 0 29.7649402390438  C 0 30.4565737051793  3.02054054054054 31  6.86486486486486 31  L 247.135135135135 31  C 250.979459459459 31  254 30.4565737051793  254 29.7649402390438  L 254 1.23505976095617  C 254 0.543426294820718  250.979459459459 0  247.135135135135 0  L 6.86486486486486 0  C 3.02054054054054 0  0 0.543426294820718  0 1.23505976095617  Z " fill-rule="evenodd" />
    </mask>
  </defs>
  <g transform="matrix(1 0 0 1 -609 -293 )">
    <path d="M 0 1.23505976095617  L 0 29.7649402390438  C 0 30.4565737051793  3.02054054054054 31  6.86486486486486 31  L 247.135135135135 31  C 250.979459459459 31  254 30.4565737051793  254 29.7649402390438  L 254 1.23505976095617  C 254 0.543426294820718  250.979459459459 0  247.135135135135 0  L 6.86486486486486 0  C 3.02054054054054 0  0 0.543426294820718  0 1.23505976095617  Z " fill-rule="nonzero" fill="#d9001b" stroke="none" fill-opacity="0.0352941176470588" transform="matrix(1 0 0 1 609 293 )" />
    <path d="M 0 1.23505976095617  L 0 29.7649402390438  C 0 30.4565737051793  3.02054054054054 31  6.86486486486486 31  L 247.135135135135 31  C 250.979459459459 31  254 30.4565737051793  254 29.7649402390438  L 254 1.23505976095617  C 254 0.543426294820718  250.979459459459 0  247.135135135135 0  L 6.86486486486486 0  C 3.02054054054054 0  0 0.543426294820718  0 1.23505976095617  Z " stroke-width="2" stroke-dasharray="9,4" stroke="#d9001b" fill="none" transform="matrix(1 0 0 1 609 293 )" mask="url(#clip120)" />
  </g>
</svg>