<?xml version="1.0" encoding="utf-8"?>
<svg version="1.1" xmlns:xlink="http://www.w3.org/1999/xlink" width="88px" height="67px" xmlns="http://www.w3.org/2000/svg">
  <g transform="matrix(1 0 0 1 -187 -556 )">
    <path d="M 187 556  L 275 556  L 275 623  L 187 623  L 187 556  " fill-rule="nonzero" fill="#cccccc" stroke="none" />
    <path d="M 192 561  L 270 561  L 270 618  L 192 618  L 192 561  " fill-rule="nonzero" fill="#ffffff" stroke="none" />
    <path d="M 237.785 576.1  C 234.971 576.1  232.76 573.889  232.76 571.075  C 232.76 568.261  234.971 566.05  237.785 566.05  C 240.599 566.05  242.81 568.261  242.81 571.075  C 242.81 573.889  240.599 576.1  237.785 576.1  " fill-rule="nonzero" fill="#cccccc" stroke="none" />
    <path d="M 194 617  L 194 587.3  L 212.75 573.8  L 239 592.331818181818  L 254 581.9  L 269 592.331818181818  L 269 617  L 194 617  " fill-rule="nonzero" fill="#169bd5" stroke="none" />
  </g>
</svg>