<?xml version="1.0" encoding="utf-8"?>
<svg version="1.1" xmlns:xlink="http://www.w3.org/1999/xlink" width="20px" height="20px" xmlns="http://www.w3.org/2000/svg">
  <g transform="matrix(1 0 0 1 -609 -516 )">
    <path d="M 619 516  C 624.6 516  629 520.4  629 526  C 629 531.6  624.6 536  619 536  C 613.4 536  609 531.6  609 526  C 609 520.4  613.4 516  619 516  Z " fill-rule="nonzero" fill="#ffffff" stroke="none" />
    <path d="M 619 516.5  C 624.32 516.5  628.5 520.68  628.5 526  C 628.5 531.32  624.32 535.5  619 535.5  C 613.68 535.5  609.5 531.32  609.5 526  C 609.5 520.68  613.68 516.5  619 516.5  Z " stroke-width="1" stroke="#797979" fill="none" />
  </g>
</svg>