<?xml version="1.0" encoding="utf-8"?>
<svg version="1.1" xmlns:xlink="http://www.w3.org/1999/xlink" width="461px" height="389px" xmlns="http://www.w3.org/2000/svg">
  <g transform="matrix(1 0 0 1 -1505 -141 )">
    <path d="M 1506 145  A 3 3 0 0 1 1509 142 L 1962 142  A 3 3 0 0 1 1965 145 L 1965 526  A 3 3 0 0 1 1962 529 L 1509 529  A 3 3 0 0 1 1506 526 L 1506 145  Z " fill-rule="nonzero" fill="#ff3399" stroke="none" fill-opacity="0.0980392156862745" />
    <path d="M 1505.5 145  A 3.5 3.5 0 0 1 1509 141.5 L 1962 141.5  A 3.5 3.5 0 0 1 1965.5 145 L 1965.5 526  A 3.5 3.5 0 0 1 1962 529.5 L 1509 529.5  A 3.5 3.5 0 0 1 1505.5 526 L 1505.5 145  Z " stroke-width="1" stroke-dasharray="9,4" stroke="#ff3399" fill="none" stroke-dashoffset="0.5" />
  </g>
</svg>