<?xml version="1.0" encoding="utf-8"?>
<svg version="1.1" xmlns:xlink="http://www.w3.org/1999/xlink" width="12px" height="12px" viewBox="3025 271  12 12" xmlns="http://www.w3.org/2000/svg">
  <path d="M 3031 271  C 3034.36 271  3037 273.64  3037 277  C 3037 280.36  3034.36 283  3031 283  C 3027.64 283  3025 280.36  3025 277  C 3025 273.64  3027.64 271  3031 271  Z " fill-rule="nonzero" fill="#ffffff" stroke="none" />
  <path d="M 3031 271.5  C 3034.08 271.5  3036.5 273.92  3036.5 277  C 3036.5 280.08  3034.08 282.5  3031 282.5  C 3027.92 282.5  3025.5 280.08  3025.5 277  C 3025.5 273.92  3027.92 271.5  3031 271.5  Z " stroke-width="1" stroke="#797979" fill="none" />
  <path d="M 3031 280  C 3029.32 280  3028 278.68  3028 277  C 3028 275.32  3029.32 274  3031 274  C 3032.68 274  3034 275.32  3034 277  C 3034 278.68  3032.68 280  3031 280  " fill-rule="nonzero" fill="#797979" stroke="none" />
</svg>