<?xml version="1.0" encoding="utf-8"?>
<svg version="1.1" xmlns:xlink="http://www.w3.org/1999/xlink" width="12px" height="12px" viewBox="2904 195  12 12" xmlns="http://www.w3.org/2000/svg">
  <path d="M 2910 195  C 2913.36 195  2916 197.64  2916 201  C 2916 204.36  2913.36 207  2910 207  C 2906.64 207  2904 204.36  2904 201  C 2904 197.64  2906.64 195  2910 195  Z " fill-rule="nonzero" fill="#f0f0f0" stroke="none" />
  <path d="M 2910 195.5  C 2913.08 195.5  2915.5 197.92  2915.5 201  C 2915.5 204.08  2913.08 206.5  2910 206.5  C 2906.92 206.5  2904.5 204.08  2904.5 201  C 2904.5 197.92  2906.92 195.5  2910 195.5  Z " stroke-width="1" stroke="#797979" fill="none" />
  <path d="M 2910 204  C 2908.32 204  2907 202.68  2907 201  C 2907 199.32  2908.32 198  2910 198  C 2911.68 198  2913 199.32  2913 201  C 2913 202.68  2911.68 204  2910 204  " fill-rule="nonzero" fill="#797979" stroke="none" />
</svg>