<?xml version="1.0" encoding="utf-8"?>
<svg version="1.1" xmlns:xlink="http://www.w3.org/1999/xlink" width="12px" height="12px" viewBox="2904 232  12 12" xmlns="http://www.w3.org/2000/svg">
  <path d="M 2910 232  C 2913.36 232  2916 234.64  2916 238  C 2916 241.36  2913.36 244  2910 244  C 2906.64 244  2904 241.36  2904 238  C 2904 234.64  2906.64 232  2910 232  Z " fill-rule="nonzero" fill="#f0f0f0" stroke="none" />
  <path d="M 2910 232.5  C 2913.08 232.5  2915.5 234.92  2915.5 238  C 2915.5 241.08  2913.08 243.5  2910 243.5  C 2906.92 243.5  2904.5 241.08  2904.5 238  C 2904.5 234.92  2906.92 232.5  2910 232.5  Z " stroke-width="1" stroke="#797979" fill="none" />
  <path d="M 2910 241  C 2908.32 241  2907 239.68  2907 238  C 2907 236.32  2908.32 235  2910 235  C 2911.68 235  2913 236.32  2913 238  C 2913 239.68  2911.68 241  2910 241  " fill-rule="nonzero" fill="#797979" stroke="none" />
</svg>