<?xml version="1.0" encoding="utf-8"?>
<svg version="1.1" xmlns:xlink="http://www.w3.org/1999/xlink" width="12px" height="12px" viewBox="468 259  12 12" xmlns="http://www.w3.org/2000/svg">
  <path d="M 474 259  C 477.36 259  480 261.64  480 265  C 480 268.36  477.36 271  474 271  C 470.64 271  468 268.36  468 265  C 468 261.64  470.64 259  474 259  Z " fill-rule="nonzero" fill="#ffffff" stroke="none" />
  <path d="M 474 259.5  C 477.08 259.5  479.5 261.92  479.5 265  C 479.5 268.08  477.08 270.5  474 270.5  C 470.92 270.5  468.5 268.08  468.5 265  C 468.5 261.92  470.92 259.5  474 259.5  Z " stroke-width="1" stroke="#797979" fill="none" />
  <path d="M 474 268  C 472.32 268  471 266.68  471 265  C 471 263.32  472.32 262  474 262  C 475.68 262  477 263.32  477 265  C 477 266.68  475.68 268  474 268  " fill-rule="nonzero" fill="#797979" stroke="none" />
</svg>