<?xml version="1.0" encoding="utf-8"?>
<svg version="1.1" xmlns:xlink="http://www.w3.org/1999/xlink" width="12px" height="12px" viewBox="3025 310  12 12" xmlns="http://www.w3.org/2000/svg">
  <path d="M 3031 310  C 3034.36 310  3037 312.64  3037 316  C 3037 319.36  3034.36 322  3031 322  C 3027.64 322  3025 319.36  3025 316  C 3025 312.64  3027.64 310  3031 310  Z " fill-rule="nonzero" fill="#f0f0f0" stroke="none" />
  <path d="M 3031 310.5  C 3034.08 310.5  3036.5 312.92  3036.5 316  C 3036.5 319.08  3034.08 321.5  3031 321.5  C 3027.92 321.5  3025.5 319.08  3025.5 316  C 3025.5 312.92  3027.92 310.5  3031 310.5  Z " stroke-width="1" stroke="#797979" fill="none" />
  <path d="M 3031 319  C 3029.32 319  3028 317.68  3028 316  C 3028 314.32  3029.32 313  3031 313  C 3032.68 313  3034 314.32  3034 316  C 3034 317.68  3032.68 319  3031 319  " fill-rule="nonzero" fill="#797979" stroke="none" />
</svg>