<?xml version="1.0" encoding="utf-8"?>
<svg version="1.1" xmlns:xlink="http://www.w3.org/1999/xlink" width="12px" height="12px" viewBox="2904 310  12 12" xmlns="http://www.w3.org/2000/svg">
  <path d="M 2910 310  C 2913.36 310  2916 312.64  2916 316  C 2916 319.36  2913.36 322  2910 322  C 2906.64 322  2904 319.36  2904 316  C 2904 312.64  2906.64 310  2910 310  Z " fill-rule="nonzero" fill="#ffffff" stroke="none" />
  <path d="M 2910 310.5  C 2913.08 310.5  2915.5 312.92  2915.5 316  C 2915.5 319.08  2913.08 321.5  2910 321.5  C 2906.92 321.5  2904.5 319.08  2904.5 316  C 2904.5 312.92  2906.92 310.5  2910 310.5  Z " stroke-width="1" stroke="#797979" fill="none" />
  <path d="M 2910 319  C 2908.32 319  2907 317.68  2907 316  C 2907 314.32  2908.32 313  2910 313  C 2911.68 313  2913 314.32  2913 316  C 2913 317.68  2911.68 319  2910 319  " fill-rule="nonzero" fill="#797979" stroke="none" />
</svg>