<?xml version="1.0" encoding="utf-8"?>
<svg version="1.1" xmlns:xlink="http://www.w3.org/1999/xlink" width="12px" height="12px" viewBox="584 259  12 12" xmlns="http://www.w3.org/2000/svg">
  <path d="M 590 259  C 593.36 259  596 261.64  596 265  C 596 268.36  593.36 271  590 271  C 586.64 271  584 268.36  584 265  C 584 261.64  586.64 259  590 259  Z " fill-rule="nonzero" fill="#f0f0f0" stroke="none" />
  <path d="M 590 259.5  C 593.08 259.5  595.5 261.92  595.5 265  C 595.5 268.08  593.08 270.5  590 270.5  C 586.92 270.5  584.5 268.08  584.5 265  C 584.5 261.92  586.92 259.5  590 259.5  Z " stroke-width="1" stroke="#797979" fill="none" />
  <path d="M 590 268  C 588.32 268  587 266.68  587 265  C 587 263.32  588.32 262  590 262  C 591.68 262  593 263.32  593 265  C 593 266.68  591.68 268  590 268  " fill-rule="nonzero" fill="#797979" stroke="none" />
</svg>