<?xml version="1.0" encoding="utf-8"?>
<svg version="1.1" xmlns:xlink="http://www.w3.org/1999/xlink" width="12px" height="12px" viewBox="3025 350  12 12" xmlns="http://www.w3.org/2000/svg">
  <path d="M 3031 350  C 3034.36 350  3037 352.64  3037 356  C 3037 359.36  3034.36 362  3031 362  C 3027.64 362  3025 359.36  3025 356  C 3025 352.64  3027.64 350  3031 350  Z " fill-rule="nonzero" fill="#f0f0f0" stroke="none" />
  <path d="M 3031 350.5  C 3034.08 350.5  3036.5 352.92  3036.5 356  C 3036.5 359.08  3034.08 361.5  3031 361.5  C 3027.92 361.5  3025.5 359.08  3025.5 356  C 3025.5 352.92  3027.92 350.5  3031 350.5  Z " stroke-width="1" stroke="#797979" fill="none" />
  <path d="M 3031 359  C 3029.32 359  3028 357.68  3028 356  C 3028 354.32  3029.32 353  3031 353  C 3032.68 353  3034 354.32  3034 356  C 3034 357.68  3032.68 359  3031 359  " fill-rule="nonzero" fill="#797979" stroke="none" />
</svg>