<?xml version="1.0" encoding="utf-8"?>
<svg version="1.1" xmlns:xlink="http://www.w3.org/1999/xlink" width="12px" height="12px" viewBox="2904 350  12 12" xmlns="http://www.w3.org/2000/svg">
  <path d="M 2910 350  C 2913.36 350  2916 352.64  2916 356  C 2916 359.36  2913.36 362  2910 362  C 2906.64 362  2904 359.36  2904 356  C 2904 352.64  2906.64 350  2910 350  Z " fill-rule="nonzero" fill="#f0f0f0" stroke="none" />
  <path d="M 2910 350.5  C 2913.08 350.5  2915.5 352.92  2915.5 356  C 2915.5 359.08  2913.08 361.5  2910 361.5  C 2906.92 361.5  2904.5 359.08  2904.5 356  C 2904.5 352.92  2906.92 350.5  2910 350.5  Z " stroke-width="1" stroke="#797979" fill="none" />
  <path d="M 2910 359  C 2908.32 359  2907 357.68  2907 356  C 2907 354.32  2908.32 353  2910 353  C 2911.68 353  2913 354.32  2913 356  C 2913 357.68  2911.68 359  2910 359  " fill-rule="nonzero" fill="#797979" stroke="none" />
</svg>