<?xml version="1.0" encoding="utf-8"?>
<svg version="1.1" xmlns:xlink="http://www.w3.org/1999/xlink" width="12px" height="12px" viewBox="167 256  12 12" xmlns="http://www.w3.org/2000/svg">
  <path d="M 173 256  C 176.36 256  179 258.64  179 262  C 179 265.36  176.36 268  173 268  C 169.64 268  167 265.36  167 262  C 167 258.64  169.64 256  173 256  Z " fill-rule="nonzero" fill="#f0f0f0" stroke="none" />
  <path d="M 173 256.5  C 176.08 256.5  178.5 258.92  178.5 262  C 178.5 265.08  176.08 267.5  173 267.5  C 169.92 267.5  167.5 265.08  167.5 262  C 167.5 258.92  169.92 256.5  173 256.5  Z " stroke-width="1" stroke="#797979" fill="none" />
  <path d="M 173 265  C 171.32 265  170 263.68  170 262  C 170 260.32  171.32 259  173 259  C 174.68 259  176 260.32  176 262  C 176 263.68  174.68 265  173 265  " fill-rule="nonzero" fill="#797979" stroke="none" />
</svg>