<?xml version="1.0" encoding="utf-8"?>
<svg version="1.1" xmlns:xlink="http://www.w3.org/1999/xlink" width="12px" height="12px" viewBox="308 256  12 12" xmlns="http://www.w3.org/2000/svg">
  <path d="M 314 256  C 317.36 256  320 258.64  320 262  C 320 265.36  317.36 268  314 268  C 310.64 268  308 265.36  308 262  C 308 258.64  310.64 256  314 256  Z " fill-rule="nonzero" fill="#ffffff" stroke="none" />
  <path d="M 314 256.5  C 317.08 256.5  319.5 258.92  319.5 262  C 319.5 265.08  317.08 267.5  314 267.5  C 310.92 267.5  308.5 265.08  308.5 262  C 308.5 258.92  310.92 256.5  314 256.5  Z " stroke-width="1" stroke="#797979" fill="none" />
  <path d="M 314 265  C 312.32 265  311 263.68  311 262  C 311 260.32  312.32 259  314 259  C 315.68 259  317 260.32  317 262  C 317 263.68  315.68 265  314 265  " fill-rule="nonzero" fill="#797979" stroke="none" />
</svg>