<?xml version="1.0" encoding="utf-8"?>
<svg version="1.1" xmlns:xlink="http://www.w3.org/1999/xlink" width="176px" height="108px" xmlns="http://www.w3.org/2000/svg">
  <g transform="matrix(1 0 0 1 -307 -397 )">
    <path d="M 307 397  L 483 397  L 483 505  L 307 505  L 307 397  " fill-rule="nonzero" fill="#cccccc" stroke="none" />
    <path d="M 315 405  L 475 405  L 475 497  L 315 497  L 315 405  " fill-rule="nonzero" fill="#ffffff" stroke="none" />
    <path d="M 406.62 429.4  C 402.084 429.4  398.52 425.836  398.52 421.3  C 398.52 416.764  402.084 413.2  406.62 413.2  C 411.156 413.2  414.72 416.764  414.72 421.3  C 414.72 425.836  411.156 429.4  406.62 429.4  " fill-rule="nonzero" fill="#cccccc" stroke="none" />
    <path d="M 318 495  L 318 447.15  L 356.75 425.4  L 411 462.968181818182  L 442 438.45  L 473 462.968181818182  L 473 495  L 318 495  " fill-rule="nonzero" fill="#169bd5" stroke="none" />
  </g>
</svg>