<?xml version="1.0" encoding="utf-8"?>
<svg version="1.1" xmlns:xlink="http://www.w3.org/1999/xlink" width="16px" height="19px" xmlns="http://www.w3.org/2000/svg">
  <g transform="matrix(1 0 0 1 -1507 -405 )">
    <path d="M 5.71590909090909 7.236328125  C 5.78409090909091 7.310546875  5.81818181818182 7.40538194444444  5.81818181818182 7.52083333333333  L 5.81818181818182 14.6458333333333  C 5.81818181818182 14.7612847222222  5.78409090909091 14.8561197916667  5.71590909090909 14.9303385416667  C 5.64772727272727 15.0045572916667  5.56060606060606 15.0416666666667  5.45454545454545 15.0416666666667  L 4.72727272727273 15.0416666666667  C 4.62121212121212 15.0416666666667  4.53409090909091 15.0045572916667  4.46590909090909 14.9303385416667  C 4.39772727272727 14.8561197916667  4.36363636363636 14.7612847222222  4.36363636363636 14.6458333333333  L 4.36363636363636 7.52083333333333  C 4.36363636363636 7.40538194444444  4.39772727272727 7.310546875  4.46590909090909 7.236328125  C 4.53409090909091 7.162109375  4.62121212121212 7.125  4.72727272727273 7.125  L 5.45454545454545 7.125  C 5.56060606060606 7.125  5.64772727272727 7.162109375  5.71590909090909 7.236328125  Z M 8.625 7.236328125  C 8.69318181818182 7.310546875  8.72727272727273 7.40538194444444  8.72727272727273 7.52083333333333  L 8.72727272727273 14.6458333333333  C 8.72727272727273 14.7612847222222  8.69318181818182 14.8561197916667  8.625 14.9303385416667  C 8.55681818181818 15.0045572916667  8.46969696969697 15.0416666666667  8.36363636363636 15.0416666666667  L 7.63636363636364 15.0416666666667  C 7.53030303030303 15.0416666666667  7.44318181818182 15.0045572916667  7.375 14.9303385416667  C 7.30681818181818 14.8561197916667  7.27272727272727 14.7612847222222  7.27272727272727 14.6458333333333  L 7.27272727272727 7.52083333333333  C 7.27272727272727 7.40538194444444  7.30681818181818 7.310546875  7.375 7.236328125  C 7.44318181818182 7.162109375  7.53030303030303 7.125  7.63636363636364 7.125  L 8.36363636363636 7.125  C 8.46969696969697 7.125  8.55681818181818 7.162109375  8.625 7.236328125  Z M 11.5340909090909 7.236328125  C 11.6022727272727 7.310546875  11.6363636363636 7.40538194444444  11.6363636363636 7.52083333333333  L 11.6363636363636 14.6458333333333  C 11.6363636363636 14.7612847222222  11.6022727272727 14.8561197916667  11.5340909090909 14.9303385416667  C 11.4659090909091 15.0045572916667  11.3787878787879 15.0416666666667  11.2727272727273 15.0416666666667  L 10.5454545454545 15.0416666666667  C 10.4393939393939 15.0416666666667  10.3522727272727 15.0045572916667  10.2840909090909 14.9303385416667  C 10.2159090909091 14.8561197916667  10.1818181818182 14.7612847222222  10.1818181818182 14.6458333333333  L 10.1818181818182 7.52083333333333  C 10.1818181818182 7.40538194444444  10.2159090909091 7.310546875  10.2840909090909 7.236328125  C 10.3522727272727 7.162109375  10.4393939393939 7.125  10.5454545454545 7.125  L 11.2727272727273 7.125  C 11.3787878787879 7.125  11.4659090909091 7.162109375  11.5340909090909 7.236328125  Z M 13.0113636363636 16.9775390625  C 13.0643939393939 16.8249782986111  13.0909090909091 16.6579861111111  13 16.4765625  L 13 5  L 3 5  L 3 16.4765625  C 2.90909090909091 16.6579861111111  2.93560606060606 16.8249782986111  2.98863636363636 16.9775390625  C 3.04166666666667 17.1300998263889  3.09659090909091 17.2414279513889  3.15340909090909 17.3115234375  C 3.21022727272727 17.3816189236111  3.25 17.4166666666667  3.27272727272727 17.4166666666667  L 12.7272727272727 17.4166666666667  C 12.75 17.4166666666667  12.7897727272727 17.3816189236111  12.8465909090909 17.3115234375  C 12.9034090909091 17.2414279513889  12.9583333333333 17.1300998263889  13.0113636363636 16.9775390625  Z M 6.01136363636364 1.71940104166667  L 5.45454545454545 3.16666666666667  L 10.5454545454545 3.16666666666667  L 10 1.71940104166667  C 9.9469696969697 1.64518229166667  9.88257575757576 1.59982638888889  9.80681818181818 1.58333333333333  L 6.20454545454545 1.58333333333333  C 6.12878787878788 1.59982638888889  6.06439393939394 1.64518229166667  6.01136363636364 1.71940104166667  Z M 15.8977272727273 3.27799479166667  C 15.9659090909091 3.35221354166667  16 3.44704861111111  16 3.5625  L 16 4.35416666666667  C 16 4.46961805555555  15.9659090909091 4.564453125  15.8977272727273 4.638671875  C 15.8295454545455 4.712890625  15.7424242424242 4.75  15.6363636363636 4.75  L 14.5454545454545 4.75  L 14.5454545454545 16.4765625  C 14.5454545454545 17.1610243055556  14.3674242424242 17.7527126736111  14.0113636363636 18.2516276041667  C 13.655303030303 18.7505425347222  13.2272727272727 19  12.7272727272727 19  L 3.27272727272727 19  C 2.77272727272727 19  2.34469696969697 18.7587890625  1.98863636363636 18.2763671875  C 1.63257575757576 17.7939453125  1.45454545454545 17.2105034722222  1.45454545454545 16.5260416666667  L 1.45454545454545 4.75  L 0.363636363636364 4.75  C 0.257575757575758 4.75  0.170454545454545 4.712890625  0.102272727272727 4.638671875  C 0.0340909090909091 4.564453125  0 4.46961805555555  0 4.35416666666667  L 0 3.5625  C 0 3.44704861111111  0.0340909090909091 3.35221354166667  0.102272727272727 3.27799479166667  C 0.170454545454545 3.20377604166667  0.257575757575758 3.16666666666667  0.363636363636364 3.16666666666667  L 3.875 3.16666666666667  L 4.67045454545455 1.10091145833333  C 4.78409090909091 0.795789930555554  4.98863636363636 0.536024305555554  5.28409090909091 0.321614583333334  C 5.57954545454546 0.10720486111111  5.87878787878788 0  6.18181818181818 0  L 9.81818181818182 0  C 10.1212121212121 0  10.4204545454545 0.10720486111111  10.7159090909091 0.321614583333334  C 11.0113636363636 0.536024305555554  11.2159090909091 0.795789930555554  11.3295454545455 1.10091145833333  L 12.125 3.16666666666667  L 15.6363636363636 3.16666666666667  C 15.7424242424242 3.16666666666667  15.8295454545455 3.20377604166667  15.8977272727273 3.27799479166667  Z " fill-rule="nonzero" fill="#999999" stroke="none" transform="matrix(1 0 0 1 1507 405 )" />
  </g>
</svg>