<?xml version="1.0" encoding="utf-8"?>
<svg version="1.1" xmlns:xlink="http://www.w3.org/1999/xlink" width="274px" height="101px" xmlns="http://www.w3.org/2000/svg">
  <defs>
    <mask fill="white" id="clip60">
      <path d="M 0 4.02390438246994  L 0 96.9760956175301  C 0 99.2294820717129  3.25837837837844 101  7.40540540540542 101  L 107.200000000001 101  L 266.594594594595 101  C 270.741621621622 101  274 99.2294820717129  274 96.9760956175301  L 274 4.02390438246994  C 274 1.77051792828712  270.741621621622 0  266.594594594595 0  L 7.40540540540542 0  C 3.25837837837844 0  0 1.77051792828712  0 4.02390438246994  Z " fill-rule="evenodd" />
    </mask>
  </defs>
  <g transform="matrix(1 0 0 1 -1216 -1623 )">
    <path d="M 0 4.02390438246994  L 0 96.9760956175301  C 0 99.2294820717129  3.25837837837844 101  7.40540540540542 101  L 107.200000000001 101  L 266.594594594595 101  C 270.741621621622 101  274 99.2294820717129  274 96.9760956175301  L 274 4.02390438246994  C 274 1.77051792828712  270.741621621622 0  266.594594594595 0  L 7.40540540540542 0  C 3.25837837837844 0  0 1.77051792828712  0 4.02390438246994  Z " fill-rule="nonzero" fill="#d9001b" stroke="none" fill-opacity="0.0352941176470588" transform="matrix(1 0 0 1 1216 1623 )" />
    <path d="M 0 4.02390438246994  L 0 96.9760956175301  C 0 99.2294820717129  3.25837837837844 101  7.40540540540542 101  L 107.200000000001 101  L 266.594594594595 101  C 270.741621621622 101  274 99.2294820717129  274 96.9760956175301  L 274 4.02390438246994  C 274 1.77051792828712  270.741621621622 0  266.594594594595 0  L 7.40540540540542 0  C 3.25837837837844 0  0 1.77051792828712  0 4.02390438246994  Z " stroke-width="2" stroke-dasharray="9,4" stroke="#d9001b" fill="none" transform="matrix(1 0 0 1 1216 1623 )" mask="url(#clip60)" />
  </g>
</svg>