<?xml version="1.0" encoding="utf-8"?>
<svg version="1.1" xmlns:xlink="http://www.w3.org/1999/xlink" width="16px" height="16px" xmlns="http://www.w3.org/2000/svg">
  <g transform="matrix(1 0 0 1 -286 -171 )">
    <path d="M 3.19282511210764 14.25  L 3.94618834080717 14.25  L 5.50672645739911 12.6846590909091  L 3.46188340807174 10.6335227272727  L 1.9013452914798 12.1988636363636  L 1.9013452914798 12.9545454545454  L 3.19282511210764 12.9545454545454  L 3.19282511210764 14.25  Z M 9.85201793721973 4.97940340909093  C 10.0044843049328 4.82646780303031  10.0089686098655 4.67803030303031  9.86547085201795 4.53409090909093  C 9.72197309417038 4.3901515151515  9.57399103139016 4.39464962121212  9.42152466367713 4.54758522727275  L 4.71300448430492 9.27059659090907  C 4.56053811659194 9.42353219696969  4.55605381165918 9.57196969696969  4.69955156950675 9.71590909090907  C 4.84304932735427 9.8598484848485  4.99103139013454 9.85535037878788  5.14349775784751 9.70241477272725  L 9.85201793721973 4.97940340909093  Z M 0.609865470852014 11.6590909090909  L 9.65022421524662 2.59090909090909  L 13.52466367713 6.47727272727275  L 4.48430493273543 15.5454545454546  L 0.609865470852014 15.5454545454546  L 0.609865470852014 11.6590909090909  Z M 16 3.45454545454547  C 16 3.81439393939394  15.8744394618834 4.12026515151513  15.6233183856502 4.37215909090907  L 14.3856502242152 5.61363636363637  L 10.5112107623318 1.72727272727272  L 11.7488789237668 0.485795454545467  C 12 0.233901515151501  12.304932735426 0.107954545454533  12.6636771300448 0.107954545454533  C 13.0224215246637 0.107954545454533  13.3273542600897 0.233901515151501  13.5784753363229 0.485795454545467  L 15.6233183856502 2.53693181818181  C 15.8744394618834 2.78882575757575  16 3.09469696969697  16 3.45454545454547  Z " fill-rule="nonzero" fill="#169bd5" stroke="none" transform="matrix(1 0 0 1 286 171 )" />
  </g>
</svg>