<?xml version="1.0" encoding="utf-8"?>
<svg version="1.1" xmlns:xlink="http://www.w3.org/1999/xlink" width="12px" height="12px" xmlns="http://www.w3.org/2000/svg">
  <g transform="matrix(1 0 0 1 -242 -28 )">
    <path d="M 11.9659090909091 6  C 11.9659090909091 2.70516690340909  9.29483309659091 0.0340909090909091  6 0.0340909090909091  C 2.70516690340909 0.0340909090909091  0.0340909090909091 2.70516690340909  0.0340909090909091 6  C 0.0340909090909091 9.29483309659091  2.70516690340909 11.9659090909091  6 11.9659090909091  C 9.29483309659091 11.9659090909091  11.9659090909091 9.29483309659091  11.9659090909091 6  Z M 6.60258345170454 6  L 8.25998757102273 7.65727095170455  C 8.33722444481547 7.73679932751197  8.3804281039522 7.84329695972529  8.3804281039522 7.9541585727022  C 8.3804281039522 8.18950718768691  8.18964035530055 8.38029493633856  7.95429174031583 8.38029493633856  C 7.84343012733892 8.38029493633856  7.73693249512561 8.33709127720183  7.65740411931818 8.25985440340909  L 6 6.60258345170454  L 4.34272904829545 8.25998757102273  C 4.26320067248803 8.33722444481547  4.15670304027472 8.3804281039522  4.0458414272978 8.3804281039522  C 3.81049281231309 8.3804281039522  3.61970506366144 8.18964035530055  3.61970506366144 7.95429174031583  C 3.61970506366144 7.84343012733892  3.66290872279817 7.73693249512561  3.74014559659091 7.65740411931818  L 5.39741654829545 6  L 3.74001242897727 4.34272904829545  C 3.66277555518454 4.26320067248803  3.6195718960478 4.15670304027472  3.6195718960478 4.0458414272978  C 3.6195718960478 3.81049281231309  3.81035964469945 3.61970506366144  4.04570825968417 3.61970506366144  C 4.15656987266108 3.61970506366144  4.26306750487439 3.66290872279817  4.34259588068182 3.74014559659091  L 6 5.39741654829545  L 7.65727095170455 3.74001242897727  C 7.73679932751197 3.66277555518454  7.84329695972529 3.6195718960478  7.9541585727022 3.6195718960478  C 8.18950718768691 3.6195718960478  8.38029493633856 3.81035964469945  8.38029493633856 4.04570825968417  C 8.38029493633856 4.15656987266108  8.33709127720183 4.26306750487439  8.25985440340909 4.34259588068182  L 6.60258345170454 6  Z " fill-rule="nonzero" fill="#000000" stroke="none" fill-opacity="0.447058823529412" transform="matrix(1 0 0 1 242 28 )" />
  </g>
</svg>