<?xml version="1.0" encoding="utf-8"?>
<svg version="1.1" xmlns:xlink="http://www.w3.org/1999/xlink" width="28px" height="22px" xmlns="http://www.w3.org/2000/svg">
  <g transform="matrix(1 0 0 1 -1140 -162 )">
    <path d="M 16.40625 19.3359375  L 16.40625 18.26171875  L 22.96875 18.26171875  L 22.96875 19.3359375  L 16.40625 19.3359375  Z M 12.03125 16.11328125  L 12.03125 18.26171875  L 3.28125 18.26171875  L 3.28125 19.3359375  L 12.03125 19.3359375  L 12.03125 21.484375  L 13.125 21.484375  L 13.125 19.3359375  L 13.125 18.26171875  L 13.125 16.11328125  L 12.03125 16.11328125  Z M 15.3125 6.4453125  L 15.3125 8.59375  L 16.40625 8.59375  L 16.40625 6.4453125  L 16.40625 5.37109375  L 16.40625 3.22265625  L 15.3125 3.22265625  L 15.3125 5.37109375  L 3.28125 5.37109375  L 3.28125 6.4453125  L 15.3125 6.4453125  Z M 22.96875 5.37109375  L 19.6875 5.37109375  L 19.6875 6.4453125  L 22.96875 6.4453125  L 22.96875 5.37109375  Z M 6.5625 12.890625  L 6.5625 15.0390625  L 7.65625 15.0390625  L 7.65625 12.890625  L 7.65625 11.81640625  L 7.65625 9.66796875  L 6.5625 9.66796875  L 6.5625 11.81640625  L 3.28125 11.81640625  L 3.28125 12.890625  L 6.5625 12.890625  Z M 10.9375 11.81640625  L 10.9375 12.890625  L 22.96875 12.890625  L 22.96875 11.81640625  L 10.9375 11.81640625  Z " fill-rule="nonzero" fill="#000000" stroke="none" transform="matrix(1 0 0 1 1140 162 )" />
  </g>
</svg>