<?xml version="1.0" encoding="utf-8"?>
<svg version="1.1" xmlns:xlink="http://www.w3.org/1999/xlink" width="13px" height="8px" xmlns="http://www.w3.org/2000/svg">
  <g transform="matrix(1 0 0 1 -1381 -370 )">
    <path d="M 7.36875 7.8359375  C 7.2734375 7.940625  7.140625 8  7 8  C 6.859375 8  6.7265625 7.940625  6.63125 7.8375  L 1.13125 1.8375  C 0.9453125 1.634375  0.9578125 1.3171875  1.1625 1.13125  C 1.365625 0.9453125  1.6828125 0.957812500000001  1.86875 1.1625  L 7 6.759375  L 12.13125 1.1609375  C 12.3171875 0.9578125  12.634375 0.94375  12.8375 1.1296875  C 13.040625 1.315625  13.0546875 1.6328125  12.86875 1.8359375  L 7.36875 7.8359375  Z " fill-rule="nonzero" fill="#000000" stroke="none" fill-opacity="0.650980392156863" transform="matrix(1 0 0 1 1381 370 )" />
  </g>
</svg>