<?xml version="1.0" encoding="utf-8"?>
<svg version="1.1" xmlns:xlink="http://www.w3.org/1999/xlink" width="93px" height="80px" xmlns="http://www.w3.org/2000/svg">
  <g transform="matrix(1 0 0 1 -50 -150 )">
    <path d="M 0.0753112113271094 52.0432458059172  C 0.187336118343175 52.1545479715976  0.29936110397294 52.3215013372781  0.467398503803893 52.3771524591716  C 1.13954818174133 52.599756868639  1.81169778106509 52.933663443787  2.42783496618767 53.3232211408284  C 2.8759347514793 53.8797321254438  3.26802204395606 54.5475453538462  3.49207193660187 55.215358504142  C 3.66010933643281 55.5492650792899  4.05219662890956 55.7162183668639  4.38827142857144 55.5492651573964  C 4.55630882840239 55.493614035503  4.66833381403214 55.326660747929  4.72434622823333 55.215358504142  C 4.94839612087914 54.5475452757396  5.28447092054103 53.9910342911243  5.67655829163147 53.4345233065089  C 6.34870796956891 52.933663443787  7.07687006170755 52.5997567905325  7.80503215384616 52.3215013372781  C 8.14110695350804 52.2101991715976  8.30914435333899 51.8206414745562  8.14110695350804 51.4867348213018  C 8.08509446069317 51.3197815337278  7.97306955367711 51.2084792899408  7.80503215384616 51.1528282461538  C 7.07687006170753 50.9302238366864  6.3487078909552 50.5963172615385  5.73257070583263 50.1511084426035  C 5.28447092054101 49.5945974579882  4.94839612087912 48.9824353514793  4.72434622823331 48.3146221230769  C 4.55630882840236 47.980715547929  4.16422153592562 47.813762260355  3.82814673626373 47.980715547929  C 3.66010933643279 48.0363666698225  3.54808435080305 48.2033199573964  3.49207193660186 48.3146221230769  C 3.26802204395604 48.9824353514793  2.93194724429415 49.6502485017751  2.42783496618766 50.206759564497  C 1.81169778106508 50.6519683834319  1.13954810312763 50.9858749585799  0.411386010989005 51.2084793680473  C 0.0753112113271094 51.3197815337278  -0.0927261885038333 51.7093392307692  0.0753112113271094 52.0432458059172  Z M 4.72434622823331 24.8855091005917  C 4.72434622823331 25.3863689633136  5.11643352071007 25.775926660355  5.62054579881657 25.775926660355  C 6.12465799830939 25.775926660355  6.51674529078615 25.3863689633136  6.51674529078615 24.8855091005917  C 6.51674529078615 24.3846492378698  6.12465799830939 23.9950915408284  5.62054579881657 23.9950914627219  C 5.11643359932375 23.9950913846154  4.72434630684699 24.3846491597633  4.72434622823331 24.8855091005917  Z M 7.07687006170753 63.0065125230769  C 6.0686455841082 63.0065125230769  5.22845850633982 63.8412790390532  5.22845850633982 64.842998764497  C 5.22845850633982 65.8447185680473  6.0686455841082 66.6794850840237  7.07687006170753 66.6794850840237  C 8.08509453930685 66.6794850840237  8.92528161707525 65.8447185680473  8.92528153846153 64.842998764497  C 8.92528145984783 63.8412789609467  8.08509446069315 63.0065124449704  7.07687006170753 63.0065125230769  Z M 12.8461545418428 52.766710156213  C 12.9581794488588 52.8780123218935  13.1262169273035 52.933663443787  13.2382418343195 53.0449656094675  C 13.8543790194421 53.3788721846154  14.5825411115807 53.3788721846154  15.1986782967033 52.9893145656805  C 15.2546907895182 52.933663443787  20.7999253770076 49.4832952923077  26.513197364328 50.262410608284  C 26.0650975790364 51.6536881088757  25.7290227793745 53.1006167313609  25.5049728867287 54.5475453538462  C 25.4489603939138 55.1040563384615  25.6169977937447 55.6605673230769  26.0090850862215 56.0501250201183  L 29.9299580896027 59.9457019905325  L 24.6647858089603 65.121254295858  C 23.9366237168216 65.8447185680473  23.9366237168216 67.0133916591716  24.6647858089603 67.7368560094674  C 25.3929479010989 68.4603203597633  26.5692097785292 68.4603202816568  27.2973719492815 67.7368560094674  L 32.506531737109 62.561303704142  L 36.4274046618766 66.4568806745562  C 36.8194919543533 66.8464383715976  37.379616646661 67.0690427810651  37.9397413389687 67.0133916591716  C 39.3960656018597 66.7907872497041  40.7963773719357 66.5125317964497  42.1966891420118 66.0116719337278  C 42.9248512341505 71.6324330579882  39.5080905874894 77.1418919384615  39.5080905088757 77.1975429822485  C 39.116003216399 77.8097050887574  39.116003216399 78.5331693609467  39.5080905088757 79.1453314674556  C 39.5641030016906 79.2566336331361  39.6761279087067 79.3679358769231  39.7881528943364 79.4792380426035  C 40.1802401868132 79.868795739645  40.684352386306 80.0357490272189  41.2444771572274 79.9800979834319  C 41.4685270498732 79.9800979834319  47.0137616373626 79.4235869988165  53.1751334099746 73.2463148899408  C 58.7203679974641 67.7368560094674  58.2722682121724 59.8900509467456  58.0482183195266 57.608355808284  C 60.9608667666948 55.4379629136095  63.7054778926458 53.0449656094674  66.2260390473373 50.4850150177515  C 81.2373811470837 35.5705202863905  80.1171317624683 15.2578688402367  80.1171317624683 14.4231023242604  C 80.0611192696534 13.4770336426036  79.3329571775148 12.7535692923077  78.3807451927303 12.6979182485207  C 77.540558114962 12.6422671266272  57.0399938419273 11.5292451573965  41.972639249366 26.4993910106509  C 39.3960656018597 29.0593416023669  36.9875293541843 31.7862454816568  34.8030429991547 34.6801026485207  C 32.67456913694 34.4574982390533  24.6647858089603 33.9566383763314  19.063538728656 39.5217483786982  C 12.902166956044 45.699020487574  12.3420422637363 51.0971771242604  12.3420422637363 51.3197815337278  C 12.2860297709214 51.8762925183432  12.5100796635672 52.3771524591716  12.8461545418428 52.766710156213  Z M 54.4074077016061 60.335259687574  C 54.4074077016061 63.0621635668639  53.7352580236686 67.4586004781065  50.5425472696534 70.6863642982248  C 48.8061606999155 72.467199495858  46.7897117447168 73.9141281183432  44.6052253896872 75.0828012094675  C 45.6134498672866 72.411548452071  46.5096493592561 68.6829246911243  45.7814872671175 64.842998764497  L 47.1817990371936 64.1195344923077  C 49.0302105925613 63.2847679763314  50.8226096551141 62.3386992946746  52.5589962248521 61.2813283692308  L 54.4074077016061 60.335259687574  Z M 29.2578084116653 54.1023365349112  C 29.8739455967878 51.1528282461538  32.786594043956 40.8573747573964  44.6052253896872 29.1149927242604  C 51.8868465469146 21.8803497680473  60.7368169526627 18.7082370698225  67.5143258317836 17.3726106130178  L 75.4120842527472 25.2194156757396  C 74.067784975486 31.9531987692308  70.8750741428571 40.7460725136095  63.5934529070161 47.980715547929  C 59.7285923964497 51.8762925183432  55.4156321792054 55.2710096260355  50.7105846694844 58.1092157491124  L 45.6694622814877 60.7248173846154  C 43.3729510194421 61.7821883100592  40.9084022789518 62.616954747929  38.4438536170752 63.1734658106509  L 35.1951302916314 59.9457019905325  L 45.9495246669484 49.2050397609467  C 46.6776867590871 48.4815754887574  46.6216743448859 47.3129023976331  45.8935121741336 46.5894380473373  C 45.1653500819949 45.9216248189349  44.0451006187658 45.9216248189349  43.3169385266272 46.5894380473373  L 32.5065317371091 57.3301003550296  L 29.2578084116653 54.1023365349112  Z M 17.327152158918 47.9250644260355  C 18.4474015435334 45.754671531361  19.9597382992392 43.8068830461539  21.6961248689772 42.0816989704142  C 24.8888357016061 38.9095862721894  29.3138209044801 38.241773043787  32.1144444446323 38.186122  L 27.5774342561285 46.7007402130178  C 23.7125737455621 46.0329269846154  20.0157507134404 46.9233446224852  17.327152158918 47.9250644260355  Z M 51.6627966542688 41.2469324544379  C 55.1915822865596 44.7529517278107  60.90485427388 44.7529517278107  64.4336399847844 41.2469324544379  C 67.9624256170752 37.7409131810651  67.9624256170752 32.0645010130178  64.4336399847844 28.5584816615385  C 60.9048543524937 25.0524623100592  55.1915823651733 25.0524623881657  51.6627966542688 28.5584816615385  C 48.1340109433643 32.0645009349112  48.134011021978 37.7409131029586  51.6627966542688 41.2469324544379  Z M 54.29538279459 38.6869818627219  C 52.2229213465765 36.5722400899408  52.2229213465765 33.233174104142  54.29538279459 31.1740833751479  C 56.3678442426035 29.1149926461538  59.7285924750634 29.1149926461538  61.8570663372781 31.1740833751479  C 63.9295277852916 33.233174104142  63.9295277852916 36.5722400899408  61.8570663372781 38.6869818627219  C 59.7846048892646 40.746072591716  56.4238566568047 40.746072591716  54.29538279459 38.6869818627219  Z M 21.6961248689772 33.6227318011834  C 21.2480250836855 33.6227318011834  20.7999253770076 34.0122894982249  20.7999253770076 34.5131493609467  C 20.7999253770076 35.0140092236686  21.1920126694844 35.4035669207101  21.6961248689772 35.4035669988166  C 22.20023706847 35.4035670769231  22.5923243609467 35.0140093017751  22.5923243609467 34.5131493609467  C 22.5923243609467 34.0122894201183  22.20023706847 33.6227318011834  21.6961248689772 33.6227318011834  Z M 17.2151272519019 17.7065171881657  C 17.2711397447168 17.8734704757396  17.4391771445477 18.0404237633136  17.6072145443787 18.1517260071006  C 18.2793642223161 18.374330416568  18.9515138216399 18.708236991716  19.5676510067625 19.0977946887574  C 20.0157507920541 19.6543056733728  20.4078380845309 20.3221189017751  20.631887898563 20.9899321301775  C 20.7999252983939 21.3238387053254  21.1920125908707 21.4907919928994  21.5280874691462 21.3238387053254  C 21.6961248689772 21.268187583432  21.8081498546069 21.101234295858  21.8641622688081 20.9899321301775  C 22.0882121614539 20.3221189017752  22.4242869611158 19.7656079171598  22.8163742535926 19.2090969325444  C 23.48852393153 18.7082370698225  24.1606735308537 18.3743304165681  24.944848194421 18.1517260071006  C 25.2809229940828 18.0404238414201  25.4489603939138 17.7065171881657  25.3369354868977 17.3726106130178  C 25.2809229940828 17.2056573254438  25.1128855942519 17.0387040378698  24.944848194421 16.9830529159763  C 24.2166861022823 16.7604485065089  23.48852393153 16.426541931361  22.8723867464074 15.9256819905325  C 22.4242869611158 15.3691710059172  22.0882121614539 14.7570088994083  21.8641622688081 14.0891957491124  C 21.6961248689772 13.7552891739645  21.3040375765004 13.5883358863905  20.9679627768385 13.755289095858  C 20.7999253770076 13.8109402177515  20.6879003913778 13.9778935053254  20.631887898563 14.0891957491124  C 20.4078380059171 14.7570089775148  20.0717632062553 15.3691710840237  19.6236634209636 15.9256819905325  C 19.0075262358411 16.3708908094675  18.3353765579036 16.7047973846154  17.6072145443787 16.9274017940828  C 17.2711397447168 17.0387039597633  17.1031023448859 17.3726106130178  17.2151272519019 17.7065171881657  Z M 38.6679035097211 3.62678897278107  C 38.7239160025359 3.79374226035503  38.835940909552 3.90504450414201  39.0039783093829 3.96069554792899  C 39.6201154945055 4.12764883550296  40.2362526796281 4.40590436686391  40.7403648791209 4.79546206390533  C 41.1324521715976 5.29632192662722  41.4685269712595 5.85283298934911  41.6925768639053 6.46499501775148  C 41.8606142637363 6.79890159289941  42.1966890633981 6.91020383668639  42.5327639416737 6.74325054911243  C 42.6447888486898 6.68759942721894  42.7568138343195 6.57629726153846  42.8128263271344 6.46499501775148  C 43.0368762197802 5.9084840331361  43.3169385266272 5.35197304852071  43.709025819104 4.9067642295858  C 44.2691505114117 4.46155541065089  44.9413001893491 4.18329995739645  45.6134498672866 3.96069554792899  C 45.8935122527472 3.84939338224852  46.0615496525782 3.57113785088758  45.9495246669484 3.23723127573965  C 45.8935121741336 3.07027798816568  45.7814872671175 2.9589757443787  45.6134498672866 2.90332462248521  C 44.9413001893491 2.73637133491124  44.2691505900254 2.40246475976331  43.709025819104 2.01290706272189  C 43.3169385266272 1.5120472  43.0368761411665 0.955536137278108  42.8128263271344 0.399025152662723  C 42.6447889273035 0.0651185775147941  42.3087141276416 -0.0461836662721882  41.972639249366 0.120769621301776  C 41.8606143423499 0.176420743195267  41.7485893567202 0.287722908875741  41.6925768639053 0.399025152662723  C 41.4685269712595 1.0111872591716  41.1884646644125 1.56769824378698  40.7403648791209 2.06855818461539  C 40.1802401868132 2.45811588165681  39.6201154945055 2.73637141301775  38.947965816568 2.9589757443787  C 38.7239159239222 3.01462686627219  38.5558785240913 3.34853344142012  38.6679035097211 3.62678897278107  Z M 55.8077194716822 6.74325054911243  C 55.7517069788673 7.52236594319527  56.3678441639899 8.13452804970414  57.1520187489434 8.13452804970414  C 57.9361933338969 8.13452804970414  58.5523305190194 7.52236594319527  58.5523305190194 6.79890167100592  C 58.5523305190194 6.07543739881657  57.9361933338969 5.4076241704142  57.2080312417582 5.4076241704142  C 56.4238566568047 5.4076241704142  55.8077194716822 6.01978627692308  55.8077194716822 6.74325054911243  Z M 65.6659143550296 4.62850877633136  C 65.7219268478445 4.73981094201184  65.8339517548605 4.85111318579882  65.9459766618766 4.9067642295858  C 66.5621138469992 5.07371751715976  67.1782510321217 5.40762409230769  67.6823632316145 5.74153074556213  C 68.0744505240913 6.24239060828403  68.4105253237532 6.79890167100592  68.6345752950127 7.41106369940829  C 68.8026126948436 7.74497027455621  69.1386874945055 7.8562725183432  69.4747622941674 7.68931923076923  C 69.5867872011834 7.63366810887574  69.6988121868132 7.52236594319527  69.7548246796281 7.41106369940829  C 69.922862079459 6.8545527147929  70.2589368791209 6.29804173017752  70.5950117573964 5.85283291124261  C 71.1551364497041 5.40762409230769  71.8272861276416 5.12936863905326  72.4994357269653 4.9067642295858  C 72.779498112426 4.79546206390533  72.947535512257 4.51720653254438  72.8355106052409 4.18329995739645  C 72.8355106052409 4.01634666982249  72.7234856982248 3.9050444260355  72.5554482197802 3.84939338224852  C 71.8832985418428 3.62678897278107  71.2671613567202 3.34853351952663  70.7070366644125 2.9589757443787  C 70.3149493719358 2.45811588165681  69.9788745722739 1.9572559408284  69.8108371724429 1.34509383431953  C 69.642799772612 1.0111872591716  69.3067249729501 0.899885015384617  68.9706500946746 1.06683838106509  C 68.8586251876585 1.12248950295858  68.7466002020287 1.23379166863906  68.6905877092139 1.34509383431953  C 68.466537816568 1.9572559408284  68.186475509721 2.51376692544379  67.7383757244294 3.01462686627219  C 67.1782510321217 3.40418456331361  66.618126339814 3.68244009467456  65.9459766618766 3.9050444260355  C 65.6659142764159 4.01634659171598  65.497876876585 4.35025324497042  65.6659143550296 4.62850877633136  Z M 80.3411816551141 56.6066360047337  C 79.5570070701606 56.6066360047337  78.940869885038 57.2744492331361  78.940869885038 57.9979135053254  C 78.940869885038 58.7770288994083  79.5570070701606 59.3891910059172  80.3411816551141 59.3891910059172  C 81.1253562400676 59.3891910059172  81.7414934251902 58.7770288994083  81.7414934251902 57.9979135053254  C 81.7414934251902 57.2187981112426  81.1253562400676 56.6066360047337  80.3411816551141 56.6066360047337  Z M 82.5256680101437 46.0885781065089  C 82.5816805029586 46.3668336378698  82.7497179027895 46.5337869254438  82.9737677168216 46.5894380473373  C 83.8699672087912 46.8676935786982  84.7101542865596 47.2572512757396  85.4383164573119 47.869413304142  C 86.0544536424345 48.5928775763314  86.5025534277261 49.4276440923077  86.7826157345731 50.3180617301775  C 86.9506531344041 50.7632705491124  87.5107778267117 50.9858749585799  87.9588776120034 50.7632705491124  C 88.1829275046492 50.6519683834319  88.3509649044801 50.4850150177515  88.406977397295 50.3180617301775  C 88.6870397827557 49.4832952142012  89.0791270752324 48.7041798201183  89.6392517675401 48.0363666698225  C 90.4794388453085 47.4242045633136  91.3756383372781 46.9233447005917  92.3838628148774 46.6450891692308  C 92.8319626001691 46.4781358816568  93.0560124928149 46.0329270627219  92.8879750929839 45.587718243787  C 92.8319626001691 45.3651138343195  92.6639252003381 45.1425094248521  92.4398753076923 45.0868583810651  C 91.4876633229079 44.8086028497042  90.5914637523246 44.3633941088757  89.8072891673711 43.7512319242604  C 89.2471644750634 43.027767652071  88.7990646897718 42.2486522579882  88.5190023829248 41.3582346201184  C 88.3509649830938 40.9130258011834  87.7908402907861 40.690421391716  87.3427404268808 40.9130258792899  C 87.118690534235 41.0243280449704  86.9506531344041 41.1912814106509  86.8946407202029 41.3582346201184  C 86.6145783347422 42.2486521798817  86.1664786280642 43.083418695858  85.5503414429417 43.7512319242604  C 84.7661668579882 44.3077429088758  83.9259797802198 44.7529517278107  82.9737677168216 45.0312072591716  C 82.52566793153 45.1981605467456  82.3576305316991 45.6433693656805  82.5256680101437 46.0885781065089  Z M 83.8699672874049 25.1637646319527  C 83.8699672874049 25.887228904142  84.5421169653423 26.4993910106509  85.270279057481 26.4993910106509  C 86.0544536424345 26.4993910106509  86.670590827557 25.887228904142  86.6145783347422 25.1081135100592  C 86.6145783347422 24.3289981159763  85.9984411496196 23.7168360094675  85.2142665646661 23.7724871313609  C 84.4300919797126 23.7724871313609  83.8699672874049 24.3846492378698  83.8699672874049 25.1637646319527  Z M 73.9557599898563 74.9714989656805  C 73.8997474970414 74.748894556213  73.7317100972105 74.6375923905325  73.6196851901944 74.5819412686391  C 72.947535512257 74.3593368591716  72.3313983271344 74.0810814059172  71.7712736348267 73.6915237088757  C 71.37918634235 73.1906638461539  71.0431115426881 72.634152783432  70.8750740642434 72.0776417988166  C 70.7070366644125 71.7437352236686  70.3709618647506 71.6324329798817  70.0348870650888 71.7993862674556  C 69.9228621580727 71.8550373893491  69.8108371724429 71.9663395550296  69.7548246796281 72.0776417988166  C 69.5307747869822 72.6898039053254  69.2507124801352 73.2463148899408  68.8026126948436 73.7471747526627  C 68.2424880025359 74.1367324497041  67.6823633102282 74.4149879810651  67.0102136322908 74.6375923905325  C 66.7301512468301 74.748894556213  66.5621138469992 75.027150087574  66.6741388326289 75.3610566627219  C 66.7301513254438 75.5280099502959  66.8421762324598 75.6393121940828  67.0102136322908 75.6949632378698  C 67.6263508174134 75.8619165254438  68.2424880025359 76.1401720568047  68.7466002020287 76.5297297538462  C 69.1386874945055 77.0305896165681  69.4747622941674 77.5871006792899  69.6988121868132 78.1992627857988  C 69.8668495866441 78.5331693609467  70.202924386306 78.6444716047337  70.5389992645816 78.4775182390533  C 70.6510241715976 78.4218671171598  70.7630491572274 78.3105649514793  70.8190616500423 78.1992627857988  C 70.9870990498732 77.6427518011834  71.3231738495351 77.0862408165681  71.7152611420118 76.6410319976331  C 72.2753858343195 76.1958231786982  72.947535512257 75.9175677254438  73.6196851901944 75.6949632378698  C 73.8997475756551 75.5836610721894  74.067784975486 75.2497544189349  73.9557599898563 74.9714989656805  Z M 57.0960063347422 77.308845147929  C 57.0960063347422 76.6410319195266  56.5918941352494 76.1401720568047  55.9757568715131 76.1401720568047  C 55.3596196863905 76.1401720568047  54.7994949940828 76.6410319195266  54.7994949940828 77.253194104142  C 54.7994949940828 77.8653562887574  55.3036071935757 78.4218671952663  55.9197444573119 78.4218671952663  C 56.5358817210482 78.4218671952663  57.0960063347422 77.9210073325444  57.0960063347422 77.308845147929  Z M 35.4751926770921 69.1281335100592  C 35.4751926770921 68.4046692378698  34.8590554919696 67.7925071313609  34.0748809070161 67.7925071313609  C 33.2907063220625 67.7925071313609  32.67456913694 68.4046692378698  32.7305815511412 69.1837845538462  C 32.7305815511412 69.962899947929  33.3467187362637 70.5750620544379  34.1308933212172 70.5194110106509  C 34.9150679061708 70.5194110106509  35.4751925984784 69.907248904142  35.4751926770921 69.1281335100592  Z M 22.9844117320372 72.7454549491124  C 22.9844117320372 72.4671994177515  22.8163743322063 72.2445950863905  22.5363119467456 72.2445950863905  C 21.8641622688081 72.0219906769231  21.2480250836855 71.7437352236686  20.6879003913778 71.3541774485207  C 20.2958130989011 70.8533175857988  19.9597382992392 70.2968065230769  19.7917008994083 69.740295616568  C 19.6236634995773 69.4063890414201  19.2875886999155 69.2950867976331  18.9515138216399 69.4620400852071  C 18.8394889146238 69.5176912071006  18.7274639289941 69.6289933727811  18.6714514361792 69.740295616568  C 18.4474015435334 70.3524577230769  18.1673392366864 70.9089687076923  17.7192394513948 71.4098285704142  C 17.1591147590871 71.7993862674556  16.5989900667794 72.0776417988166  15.9268403888419 72.300246208284  C 15.6467780033812 72.4115483739645  15.4787406035503 72.6898039053254  15.59076558918 73.0237104804734  C 15.6467780819949 73.1906637680473  15.758802989011 73.3019660118343  15.9268403888419 73.3576170556213  C 16.5429775739645 73.5245703431953  17.1591147590871 73.8028258745562  17.6632269585799 74.1923835715976  C 18.0553142510566 74.6932434343195  18.3913890507185 75.2497544970414  18.615439021978 75.8619166035503  C 18.783476421809 76.1958231786982  19.1195512214708 76.3071254224852  19.4556260211327 76.1401720568047  C 19.5676509281488 76.0845209349113  19.6796759137785 75.9732187692308  19.7356884065934 75.8619166035503  C 19.9037258064243 75.3054056189349  20.2398006060862 74.7488946343195  20.631887898563 74.3036858153846  C 21.1920125908707 73.8584769964497  21.8641622688081 73.5802215431953  22.5363119467456 73.3576170556213  C 22.8163743322063 73.3019659337278  23.0404241462384 73.0237104804734  22.9844117320372 72.7454549491124  Z " fill-rule="nonzero" fill="#8fa8ff" stroke="none" transform="matrix(1 0 0 1 50 150 )" />
  </g>
</svg>