<?xml version="1.0" encoding="utf-8"?>
<svg version="1.1" xmlns:xlink="http://www.w3.org/1999/xlink" width="16px" height="14px" xmlns="http://www.w3.org/2000/svg">
  <g transform="matrix(1 0 0 1 -1215 -23 )">
    <path d="M 10.75 7  C 10.75 8.515625  9.515625 9.75  8 9.75  C 6.484375 9.75  5.25 8.515625  5.25 7  C 5.25 5.484375  6.484375 4.25  8 4.25  C 9.515625 4.25  10.75 5.484375  10.75 7  Z M 9.75 7  C 9.74888065793001 6.03396571433881  8.96603428566119 5.25111934206999  8 5.25  C 7.03350168779611 5.25  6.25 6.03350168779611  6.25 7  C 6.25 7.96649831220389  7.03350168779611 8.75  8 8.75  C 8.96649831220389 8.75  9.75 7.96649831220389  9.75 7  Z M 11.703125 11.25  C 11.703125 11.5951779686442  11.9829470313558 11.875  12.328125 11.875  C 12.6733029686442 11.875  12.953125 11.5951779686442  12.953125 11.25  C 12.953125 10.9048220313558  12.6733029686442 10.625  12.328125 10.625  C 11.9829470313558 10.625  11.703125 10.9048220313558  11.703125 11.25  Z M 10.7084375 13.6875  L 4.7915625 13.6875  C 4.43148845303974 13.6869158150327  4.09944013615739 13.4930917076754  3.921875 13.17984375  L 0.7046875 7.49234375  C 0.533022839036729 7.18667113538944  0.533022839036729 6.81364136461056  0.7046875 6.50796875  L 3.921875 0.82046875  C 4.09935980200666 0.50710035678228  4.43142338121557 0.313148021890412  4.7915625 0.3125  L 11.2084375 0.3125  C 11.5685115469603 0.313084184967269  11.9005598638426 0.506908292324574  12.078125 0.82015625  L 15.2953125 6.50765625  C 15.466810667333 6.81291025314264  15.467106631982 7.18541136031731  15.29609375 7.4909375  L 14.195 9.46265625  C 14.1066372696312 9.6207864788822  13.9396596047635 9.71875886832955  13.758515625 9.71875886832955  C 13.4823683522414 9.71875886832955  13.2585067566704 9.49489727275856  13.2585067566704 9.21875  C 13.2585067566704 9.13335734646496  13.2803763850156 9.04938754585777  13.32203125 8.97484375  L 14.42421875 7.00234375  L 14.42546875 7  L 11.2084375 1.3125  L 4.7915625 1.3125  L 1.574375 7  L 4.7915625 12.6875  L 10.7084375 12.6875  C 10.9845798749154 12.6875  11.2084375 12.9113576250846  11.2084375 13.1875  C 11.2084375 13.4636423749154  10.9845798749154 13.6875  10.7084375 13.6875  Z " fill-rule="nonzero" fill="#ffffff" stroke="none" transform="matrix(1 0 0 1 1215 23 )" />
  </g>
</svg>