<?xml version="1.0" encoding="utf-8"?>
<svg version="1.1" xmlns:xlink="http://www.w3.org/1999/xlink" width="19px" height="32px" xmlns="http://www.w3.org/2000/svg">
  <g transform="matrix(1 0 0 1 -967 -94 )">
    <path d="M 18.016 16  C 18.016 7.184  10.832 0  2.016 0  C 1.44 0  0.975999999999999 0.464  0.975999999999999 1.04  C 0.975999999999999 1.616  1.44 2.08  2.016 2.08  C 9.696 2.08  15.936 8.32  15.936 16  C 15.936 23.68  9.696 29.92  2.016 29.92  C 1.44 29.92  0.975999999999999 30.384  0.975999999999999 30.96  C 0.975999999999999 31.536  1.44 32  2.016 32  C 10.832 32  18.016 24.816  18.016 16  Z " fill-rule="nonzero" fill="#ff6800" stroke="none" transform="matrix(1 0 0 1 967 94 )" />
  </g>
</svg>