<?xml version="1.0" encoding="utf-8"?>
<svg version="1.1" xmlns:xlink="http://www.w3.org/1999/xlink" width="22px" height="24px" xmlns="http://www.w3.org/2000/svg">
  <g transform="matrix(1 0 0 1 -953 -98 )">
    <path d="M 0.0160000000000009 5.68  C 0.0160000000000009 6.256  0.480000000000001 6.72  1.056 7  L 18.352 7  L 15.552 9.52  C 15.152 9.92  15.152 10.592  15.552 10.992  C 15.952 11.392  16.624 11.392  17.024 10.992  L 21.6 6.416  C 22 6.016  22 5.344  21.6 4.944  L 17.024 0.368000000000001  C 16.624 -0.0319999999999987  15.952 -0.0319999999999987  15.552 0.368000000000001  C 15.152 0.768000000000002  15.152 1.44  15.552 1.84  L 18.352 5  L 1.056 5  C 0.480000000000001 4.64  0.0160000000000009 5.104  0.0160000000000009 5.68  Z M 18.336 19  L 15.536 22.16  C 15.136 22.56  15.136 23.232  15.536 23.632  C 15.936 24.032  16.608 24.032  17.008 23.632  L 21.584 19.056  C 21.984 18.656  21.984 17.984  21.584 17.584  L 17.008 13.008  C 16.608 12.608  15.936 12.608  15.536 13.008  C 15.136 13.408  15.136 14.08  15.536 14.48  L 18.336 17  L 1.04 17  C 0.463999999999999 17.28  0 17.744  0 18.32  C 0 18.896  0.463999999999999 19.36  1.04 19  L 18.336 19  Z " fill-rule="nonzero" fill="#ff6800" stroke="none" transform="matrix(1 0 0 1 953 98 )" />
  </g>
</svg>