<?xml version="1.0" encoding="utf-8"?>
<svg version="1.1" xmlns:xlink="http://www.w3.org/1999/xlink" width="30px" height="32px" xmlns="http://www.w3.org/2000/svg">
  <g transform="matrix(1 0 0 1 -956 -247 )">
    <path d="M 12.83663334375 32  L 18.13576665625 32  L 3.4557 32  C 1.25846665625 32  -0.26093334375 30.20693334375  0.05923334375 27.99506665625  C 0.0680666875 27.99116665625  0.44543334375 25.7662333125  1.1914 21.32016665625  C 1.53986665625 19.13106665625  3.29863334375 17.3486  5.12063334375 17.3486  L 6.05296665625 17.3486  C 6.6047333125 17.3486  7.05196665625 17.79583334375  7.05196665625 18.34756665625  C 7.05196665625 18.89926665625  6.6047333125 19.3465  6.05296665625 19.3465  L 5.9531 19.3465  C 4.60713334375 19.3465  3.32623334375 20.64283334375  3.08943334375 22.2435  C 2.53483334375 25.47126665625  2.25733334375 27.09183334375  2.25693334375 27.1051  C 2.01473334375 28.69803334375  3.1212666875 30.0021  4.72103334375 30.0021  L 12.83666665625 30.0021  C 13.3884 30.0021  13.8356333125 30.4493  13.83563334375 31.00103334375  C 13.835633375 31.5527666875  13.38833334375 32  12.8366 32  Z M 7.45153334375 8.76586665625  C 7.45153334375 12.37396665625  10.13503334375 15.30906665625  13.4453 15.30906665625  C 16.75553334375 15.30906665625  19.43906665625 12.37396665625  19.43906665625 8.76586665625  C 19.43906665625 5.1328  16.7555333125 2.1977  13.4453 2.1977  C 10.13503334375 2.1977  7.45153334375 5.1328  7.45153334375 8.76586665625  Z M 21.43696665625 8.75753334375  C 21.43696665625 13.5683666875  17.85896665625 17.4818  13.4453 17.4818  C 9.03163334375 17.4818  5.45363334375 13.56836665625  5.45363334375 8.75753334375  C 5.45363334375 3.91343334375  9.03163334375 0  13.4453 0  C 17.85896665625 0  21.43696665625 3.91343334375  21.43696665625 8.75753334375  Z M 23.87443334375 14.2735  L 26.05516665625 14.26743334375  C 27.6798 14.26293334375  29.071 15.4303  29.3487 17.03103334375  L 29.72143334375 19.1797  C 29.8892833410546 20.1473216611111  29.6218952867955 21.1397211346845  28.99063334375 21.89203334375  L 22.6364 29.4647  C 21.45306665625 30.87496665625  19.35053334375 31.0589  17.9403 29.87556665625  L 15.3868 27.73293334375  C 13.97656665625 26.5496  13.79263334375 24.4470666875  14.97596665625 23.03683334375  L 21.33016665625 15.46416665625  C 21.9614457964501 14.7118546122992  22.8923542064098 14.2762078268395  23.87443334375 14.2735  Z M 26.06463334375 16.26666665625  L 23.8839 16.2727  C 23.4910652567191 16.2737933722689  23.1187038096616 16.4480645300103  22.8662 16.749  L 16.51196665625 24.32166665625  C 16.0386333125 24.88576665625  16.1122 25.72676665625  16.6763 26.2001  L 19.2298 28.34273334375  C 19.7939 28.8160666875  20.6349 28.7424666875  21.10823334375 28.1784  L 27.46246665625 20.60573334375  C 27.7149858383338 20.3048025954621  27.8219466084616 19.9078281314157  27.7548 19.52076665625  L 27.38203334375 17.3721  C 27.2709666875 16.73183334375  26.7145 16.26486665625  26.06463334375 16.26666665625  Z M 25.4 19.46666665625  C 25.4 20.01896665625  24.9523 20.46666665625  24.4 20.46666665625  C 23.8477 20.46666665625  23.4 20.01896665625  23.4 19.46666665625  C 23.4 18.91436665625  23.8477 18.46666665625  24.4 18.46666665625  C 24.9523 18.46666665625  25.4 18.91436665625  25.4 19.46666665625  Z " fill-rule="nonzero" fill="#ff6800" stroke="none" transform="matrix(1 0 0 1 956 247 )" />
  </g>
</svg>