<?xml version="1.0" encoding="utf-8"?>
<svg version="1.1" xmlns:xlink="http://www.w3.org/1999/xlink" width="20px" height="22px" xmlns="http://www.w3.org/2000/svg">
  <g transform="matrix(1 0 0 1 -1170 -19 )">
    <path d="M 19.5454545454545 4.4693  C 19.5454545454545 1.397  14.5970909090909 0  10 0  C 5.40181818181818 0  0.454545454545455 1.397  0.454545454545455 4.4693  L 0.454545454545455 17.5318  C 0.454545454545455 20.5997  5.40181818181818 22  10 22  C 14.5970909090909 22  19.5454545454545 20.6008  19.5454545454545 17.5307  L 19.5454545454545 4.4693  Z M 18.1818181818182 17.5307  L 18.1818181818182 17.5318  C 18.1818181818182 19.239  14.5185454545455 20.625  10 20.625  C 5.48036363636364 20.625  1.81818181818182 19.239  1.81818181818182 17.5307  L 1.81818181818182 14.9622  C 3.22654545454545 16.4263  6.62472727272727 17.1875  10 17.1875  C 13.3752727272727 17.1875  16.7734545454545 16.4263  18.1818181818182 14.9622  L 18.1818181818182 17.5307  Z M 18.1818181818182 13.4057  L 18.1818181818182 13.4068  L 18.1785454545455 13.4068  L 18.1818181818182 13.4277  C 18.1818181818182 15.125  14.5185454545455 16.5  10 16.5  C 5.48145454545455 16.5  1.81818181818182 15.125  1.81818181818182 13.4277  L 1.82036363636364 13.4057  L 1.81818181818182 13.4057  L 1.81818181818182 10.8372  C 3.22654545454545 12.3013  6.62472727272727 13.0625  10 13.0625  C 13.3752727272727 13.0625  16.7734545454545 12.3013  18.1818181818182 10.8372  L 18.1818181818182 13.4057  Z M 18.1818181818182 9.2807  L 18.1818181818182 9.2818  L 18.1785454545455 9.2818  L 18.1818181818182 9.3027  C 18.1818181818182 11  14.5185454545455 12.375  10 12.375  C 5.48145454545455 12.375  1.81818181818182 11  1.81818181818182 9.3027  L 1.82036363636364 9.2807  L 1.81818181818182 9.2807  L 1.81818181818182 6.919  C 3.60509090909091 8.2918  6.88 8.9375  10 8.9375  C 13.12 8.9375  16.3949090909091 8.2918  18.1818181818182 6.919  L 18.1818181818182 9.2807  Z M 18.1818181818182 4.4693  C 18.1818181818182 6.1765  14.5185454545455 7.5625  10 7.5625  C 5.48036363636364 7.5625  1.81818181818182 6.1765  1.81818181818182 4.4682  C 1.81818181818182 2.761  5.48036363636364 1.375  10 1.375  C 14.5185454545455 1.375  18.1818181818182 2.7599  18.1818181818182 4.4693  Z " fill-rule="nonzero" fill="#ffffff" stroke="none" transform="matrix(1 0 0 1 1170 19 )" />
  </g>
</svg>