<?xml version="1.0" encoding="utf-8"?>
<svg version="1.1" xmlns:xlink="http://www.w3.org/1999/xlink" width="2px" height="11px" xmlns="http://www.w3.org/2000/svg">
  <g transform="matrix(1 0 0 1 -1186 -27 )">
    <path d="M 0 9.625  C 0 10.0046957655087  0.335786437626904 10.3125  0.75 10.3125  C 1.1642135623731 10.3125  1.5 10.0046957655087  1.5 9.625  C 1.5 9.24530423449133  1.1642135623731 8.9375  0.75 8.9375  C 0.335786437626904 8.9375  0 9.24530423449133  0 9.625  Z M 0 5.5  C 0 5.87969576550867  0.335786437626904 6.1875  0.75 6.1875  C 1.1642135623731 6.1875  1.5 5.87969576550867  1.5 5.5  C 1.5 5.12030423449133  1.1642135623731 4.8125  0.75 4.8125  C 0.335786437626904 4.8125  0 5.12030423449133  0 5.5  Z M 0 1.375  C 0 1.75469576550867  0.335786437626904 2.0625  0.75 2.0625  C 1.1642135623731 2.0625  1.5 1.75469576550867  1.5 1.375  C 1.5 0.995304234491329  1.1642135623731 0.6875  0.75 0.6875  C 0.335786437626904 0.6875  0 0.995304234491329  0 1.375  Z " fill-rule="nonzero" fill="#ffffff" stroke="none" transform="matrix(1 0 0 1 1186 27 )" />
  </g>
</svg>