<?xml version="1.0" standalone="no"?><!DOCTYPE svg PUBLIC "-//W3C//DTD SVG 1.1//EN" "http://www.w3.org/Graphics/SVG/1.1/DTD/svg11.dtd"><svg t="1576753250261" class="icon" viewBox="0 0 1165 1024" version="1.1" xmlns="http://www.w3.org/2000/svg" p-id="1238" xmlns:xlink="http://www.w3.org/1999/xlink" width="227.5390625" height="200"><defs><style type="text/css"></style></defs><path d="M256.364 655.477a36.415 36.415 0 0 1-37.872-36.416V254.908a36.415 36.415 0 0 1 72.83 0V619.06a36.415 36.415 0 0 1-36.414 36.416z m218.492 0a36.415 36.415 0 0 1-37.872-36.416V473.4a36.415 36.415 0 1 1 72.831 0V619.06a36.415 36.415 0 0 1-36.415 36.416z m218.493 0a36.415 36.415 0 0 1-37.872-36.416V254.908a36.415 36.415 0 0 1 72.83 0V619.06a36.415 36.415 0 0 1-36.415 36.416z m218.492 0a36.415 36.415 0 0 1-36.416-36.416V473.4a36.415 36.415 0 1 1 72.831 0V619.06a36.415 36.415 0 0 1-36.415 36.416zM849.206 1024H329.923a36.415 36.415 0 0 1 0-72.83h516.37a36.415 36.415 0 1 1 0 72.83z m0 0" p-id="1239" fill="#ffffff"></path><path d="M1056.046 801.138h-946.8A109.246 109.246 0 0 1 0 691.892V109.246A109.246 109.246 0 0 1 109.246 0h946.8a109.246 109.246 0 0 1 109.246 109.246v582.646a109.246 109.246 0 0 1-109.246 109.246z m-946.8-728.307a36.415 36.415 0 0 0-36.415 36.415v582.646a36.415 36.415 0 0 0 36.415 36.415h946.8a36.415 36.415 0 0 0 36.415-36.415V109.246a36.415 36.415 0 0 0-36.415-36.415z m0 0" p-id="1240" fill="#ffffff"></path><path d="M256.364 655.477a36.415 36.415 0 0 1-37.872-36.416V254.908a36.415 36.415 0 0 1 72.83 0V619.06a36.415 36.415 0 0 1-36.414 36.416z m218.492 0a36.415 36.415 0 0 1-37.872-36.416V473.4a36.415 36.415 0 1 1 72.831 0V619.06a36.415 36.415 0 0 1-36.415 36.416z m218.493 0a36.415 36.415 0 0 1-37.872-36.416V254.908a36.415 36.415 0 0 1 72.83 0V619.06a36.415 36.415 0 0 1-36.415 36.416z m218.492 0a36.415 36.415 0 0 1-36.416-36.416V473.4a36.415 36.415 0 1 1 72.831 0V619.06a36.415 36.415 0 0 1-36.415 36.416zM849.206 1024H329.923a36.415 36.415 0 0 1 0-72.83h516.37a36.415 36.415 0 1 1 0 72.83z m0 0" p-id="1241" fill="#ffffff"></path><path d="M1056.046 801.138h-946.8A109.246 109.246 0 0 1 0 691.892V109.246A109.246 109.246 0 0 1 109.246 0h946.8a109.246 109.246 0 0 1 109.246 109.246v582.646a109.246 109.246 0 0 1-109.246 109.246z m-946.8-728.307a36.415 36.415 0 0 0-36.415 36.415v582.646a36.415 36.415 0 0 0 36.415 36.415h946.8a36.415 36.415 0 0 0 36.415-36.415V109.246a36.415 36.415 0 0 0-36.415-36.415z m0 0" p-id="1242" fill="#ffffff"></path></svg>