<?xml version="1.0" encoding="utf-8"?>
<svg version="1.1" xmlns:xlink="http://www.w3.org/1999/xlink" width="15px" height="15px" xmlns="http://www.w3.org/2000/svg">
  <g transform="matrix(1 0 0 1 -960 -1009 )">
    <path d="M 9.267578125 9.267578125  C 9.755859375 8.779296875  10 8.19010416666667  10 7.5  C 10 6.80989583333333  9.755859375 6.220703125  9.267578125 5.732421875  C 8.779296875 5.244140625  8.19010416666667 5  7.5 5  C 6.80989583333333 5  6.220703125 5.244140625  5.732421875 5.732421875  C 5.244140625 6.220703125  5 6.80989583333333  5 7.5  C 5 8.19010416666667  5.244140625 8.779296875  5.732421875 9.267578125  C 6.220703125 9.755859375  6.80989583333333 10  7.5 10  C 8.19010416666667 10  8.779296875 9.755859375  9.267578125 9.267578125  Z M 14.921875 6.2060546875  C 14.9739583333333 6.2744140625  15 6.35091145833333  15 6.435546875  L 15 8.603515625  C 15 8.681640625  14.9739583333333 8.75651041666667  14.921875 8.828125  C 14.8697916666667 8.89973958333333  14.8046875 8.94205729166666  14.7265625 8.955078125  L 12.919921875 9.228515625  C 12.7962239583333 9.580078125  12.6692708333333 9.87630208333333  12.5390625 10.1171875  C 12.7669270833333 10.4427083333333  13.115234375 10.8919270833333  13.583984375 11.46484375  C 13.6490885416667 11.54296875  13.681640625 11.6243489583333  13.681640625 11.708984375  C 13.681640625 11.7936197916667  13.65234375 11.8684895833333  13.59375 11.93359375  C 13.41796875 12.1744791666667  13.095703125 12.5260416666667  12.626953125 12.98828125  C 12.158203125 13.4505208333333  11.8522135416667 13.681640625  11.708984375 13.681640625  C 11.630859375 13.681640625  11.5462239583333 13.65234375  11.455078125 13.59375  L 10.107421875 12.5390625  C 9.82096354166667 12.6888020833333  9.52473958333333 12.8125  9.21875 12.91015625  C 9.11458333333333 13.7955729166667  9.02018229166667 14.4010416666667  8.935546875 14.7265625  C 8.88997395833333 14.9088541666667  8.77278645833333 15  8.583984375 15  L 6.416015625 15  C 6.32486979166667 15  6.2451171875 14.9723307291667  6.1767578125 14.9169921875  C 6.1083984375 14.8616536458333  6.07096354166667 14.7916666666667  6.064453125 14.70703125  L 5.791015625 12.91015625  C 5.47200520833333 12.8059895833333  5.17903645833333 12.685546875  4.912109375 12.548828125  L 3.53515625 13.59375  C 3.47005208333333 13.65234375  3.388671875 13.681640625  3.291015625 13.681640625  C 3.19986979166667 13.681640625  3.11848958333333 13.6458333333333  3.046875 13.57421875  C 2.2265625 12.83203125  1.689453125 12.28515625  1.435546875 11.93359375  C 1.38997395833333 11.8684895833333  1.3671875 11.7936197916667  1.3671875 11.708984375  C 1.3671875 11.630859375  1.39322916666667 11.5559895833333  1.4453125 11.484375  C 1.54296875 11.34765625  1.708984375 11.1311848958333  1.943359375 10.8349609375  C 2.177734375 10.5387369791667  2.353515625 10.3092447916667  2.470703125 10.146484375  C 2.294921875 9.82096354166666  2.16145833333333 9.49869791666666  2.0703125 9.1796875  L 0.283203125 8.916015625  C 0.198567708333333 8.90299479166667  0.130208333333333 8.8623046875  0.078125 8.7939453125  C 0.0260416666666667 8.7255859375  0 8.64908854166666  0 8.564453125  L 0 6.396484375  C 0 6.318359375  0.0260416666666667 6.24348958333333  0.078125 6.171875  C 0.130208333333333 6.10026041666667  0.192057291666667 6.05794270833333  0.263671875 6.044921875  L 2.080078125 5.771484375  C 2.17122395833333 5.47200520833333  2.29817708333333 5.17252604166667  2.4609375 4.873046875  C 2.20052083333333 4.501953125  1.85221354166667 4.052734375  1.416015625 3.525390625  C 1.35091145833333 3.447265625  1.318359375 3.369140625  1.318359375 3.291015625  C 1.318359375 3.22591145833333  1.34765625 3.15104166666666  1.40625 3.06640625  C 1.57552083333333 2.83203125  1.89615885416667 2.48209635416667  2.3681640625 2.0166015625  C 2.84016927083333 1.55110677083333  3.14778645833333 1.318359375  3.291015625 1.318359375  C 3.37565104166667 1.318359375  3.46028645833333 1.35091145833333  3.544921875 1.416015625  L 4.892578125 2.4609375  C 5.17903645833333 2.31119791666667  5.47526041666667 2.1875  5.78125 2.08984375  C 5.88541666666667 1.20442708333333  5.97981770833333 0.598958333333332  6.064453125 0.273437499999999  C 6.11002604166667 0.0911458333333326  6.22721354166667 0  6.416015625 0  L 8.583984375 0  C 8.67513020833333 0  8.7548828125 0.027669270833332  8.8232421875 0.0830078124999994  C 8.8916015625 0.138346354166665  8.92903645833333 0.208333333333333  8.935546875 0.29296875  L 9.208984375 2.08984375  C 9.52799479166667 2.19401041666667  9.82096354166667 2.314453125  10.087890625 2.451171875  L 11.474609375 1.40625  C 11.533203125 1.34765625  11.611328125 1.318359375  11.708984375 1.318359375  C 11.7936197916667 1.318359375  11.875 1.35091145833333  11.953125 1.416015625  C 12.79296875 2.19075520833333  13.330078125 2.744140625  13.564453125 3.076171875  C 13.6100260416667 3.12825520833333  13.6328125 3.19986979166667  13.6328125 3.291015625  C 13.6328125 3.369140625  13.6067708333333 3.44401041666666  13.5546875 3.515625  C 13.45703125 3.65234375  13.291015625 3.86881510416666  13.056640625 4.1650390625  C 12.822265625 4.46126302083333  12.646484375 4.69075520833333  12.529296875 4.853515625  C 12.6985677083333 5.17903645833333  12.83203125 5.498046875  12.9296875 5.810546875  L 14.716796875 6.083984375  C 14.8014322916667 6.09700520833333  14.8697916666667 6.1376953125  14.921875 6.2060546875  Z " fill-rule="nonzero" fill="#7f7f7f" stroke="none" transform="matrix(1 0 0 1 960 1009 )" />
  </g>
</svg>