<?xml version="1.0" encoding="utf-8"?>
<svg version="1.1" xmlns:xlink="http://www.w3.org/1999/xlink" width="12px" height="11px" xmlns="http://www.w3.org/2000/svg">
  <g transform="matrix(1 0 0 1 -1339 -1181 )">
    <path d="M 11.7171717171717 8.22222222222222  C 11.9057239057239 8.39506172839506  12 8.60493827160494  12 8.85185185185185  C 12 9.09876543209877  11.9057239057239 9.30864197530864  11.7171717171717 9.48148148148148  L 10.3434343434343 10.7407407407407  C 10.1548821548822 10.9135802469136  9.92592592592593 11  9.65656565656566 11  C 9.38720538720539 11  9.15824915824916 10.9135802469136  8.96969696969697 10.7407407407407  L 6 8.01851851851852  L 3.03030303030303 10.7407407407407  C 2.84175084175084 10.9135802469136  2.61279461279461 11  2.34343434343434 11  C 2.07407407407407 11  1.84511784511785 10.9135802469136  1.65656565656566 10.7407407407407  L 0.282828282828283 9.48148148148148  C 0.0942760942760944 9.30864197530864  0 9.09876543209877  0 8.85185185185185  C 0 8.60493827160494  0.0942760942760944 8.39506172839506  0.282828282828283 8.22222222222222  L 3.25252525252525 5.5  L 0.282828282828283 2.77777777777778  C 0.0942760942760944 2.60493827160494  0 2.39506172839506  0 2.14814814814815  C 0 1.90123456790123  0.0942760942760944 1.69135802469136  0.282828282828283 1.51851851851852  L 1.65656565656566 0.259259259259259  C 1.84511784511785 0.0864197530864194  2.07407407407407 0  2.34343434343434 0  C 2.61279461279461 0  2.84175084175084 0.0864197530864194  3.03030303030303 0.259259259259259  L 6 2.98148148148148  L 8.96969696969697 0.259259259259259  C 9.15824915824916 0.0864197530864194  9.38720538720539 0  9.65656565656566 0  C 9.92592592592593 0  10.1548821548822 0.0864197530864194  10.3434343434343 0.259259259259259  L 11.7171717171717 1.51851851851852  C 11.9057239057239 1.69135802469136  12 1.90123456790123  12 2.14814814814815  C 12 2.39506172839506  11.9057239057239 2.60493827160494  11.7171717171717 2.77777777777778  L 8.74747474747475 5.5  L 11.7171717171717 8.22222222222222  Z " fill-rule="nonzero" fill="#d7d7d7" stroke="none" transform="matrix(1 0 0 1 1339 1181 )" />
  </g>
</svg>