<?xml version="1.0" encoding="utf-8"?>
<svg version="1.1" xmlns:xlink="http://www.w3.org/1999/xlink" width="12px" height="12px" viewBox="1027 1051  12 12" xmlns="http://www.w3.org/2000/svg">
  <path d="M 1033 1051  C 1036.36 1051  1039 1053.64  1039 1057  C 1039 1060.36  1036.36 1063  1033 1063  C 1029.64 1063  1027 1060.36  1027 1057  C 1027 1053.64  1029.64 1051  1033 1051  Z " fill-rule="nonzero" fill="#ffffff" stroke="none" />
  <path d="M 1033 1051.5  C 1036.08 1051.5  1038.5 1053.92  1038.5 1057  C 1038.5 1060.08  1036.08 1062.5  1033 1062.5  C 1029.92 1062.5  1027.5 1060.08  1027.5 1057  C 1027.5 1053.92  1029.92 1051.5  1033 1051.5  Z " stroke-width="1" stroke="#797979" fill="none" />
  <path d="M 1033 1060  C 1031.32 1060  1030 1058.68  1030 1057  C 1030 1055.32  1031.32 1054  1033 1054  C 1034.68 1054  1036 1055.32  1036 1057  C 1036 1058.68  1034.68 1060  1033 1060  " fill-rule="nonzero" fill="#797979" stroke="none" />
</svg>