<?xml version="1.0" encoding="utf-8"?>
<svg version="1.1" xmlns:xlink="http://www.w3.org/1999/xlink" width="25px" height="20px" xmlns="http://www.w3.org/2000/svg">
  <g transform="matrix(1 0 0 1 -1404 -145 )">
    <path d="M 3.43889508928571 16.4985795454545  C 3.52725074404762 16.5885416666667  3.57142857142857 16.6950757575758  3.57142857142857 16.8181818181818  L 3.57142857142857 19.5454545454545  C 3.57142857142857 19.6685606060606  3.52725074404762 19.7750946969697  3.43889508928571 19.8650568181818  C 3.35053943452381 19.9550189393939  3.24590773809524 20  3.125 20  L 0.446428571428571 20  C 0.325520833333333 20  0.220889136904762 19.9550189393939  0.132533482142857 19.8650568181818  C 0.0441778273809524 19.7750946969697  0 19.6685606060606  0 19.5454545454545  L 0 16.8181818181818  C 0 16.6950757575758  0.0441778273809524 16.5885416666667  0.132533482142857 16.4985795454545  C 0.220889136904762 16.4086174242424  0.325520833333333 16.3636363636364  0.446428571428571 16.3636363636364  L 3.125 16.3636363636364  C 3.24590773809524 16.3636363636364  3.35053943452381 16.4086174242424  3.43889508928571 16.4985795454545  Z M 3.43889508928571 11.0440340909091  C 3.52725074404762 11.1339962121212  3.57142857142857 11.2405303030303  3.57142857142857 11.3636363636364  L 3.57142857142857 14.0909090909091  C 3.57142857142857 14.2140151515151  3.52725074404762 14.3205492424242  3.43889508928571 14.4105113636364  C 3.35053943452381 14.5004734848485  3.24590773809524 14.5454545454545  3.125 14.5454545454545  L 0.446428571428571 14.5454545454545  C 0.325520833333333 14.5454545454545  0.220889136904762 14.5004734848485  0.132533482142857 14.4105113636364  C 0.0441778273809524 14.3205492424242  0 14.2140151515151  0 14.0909090909091  L 0 11.3636363636364  C 0 11.2405303030303  0.0441778273809524 11.1339962121212  0.132533482142857 11.0440340909091  C 0.220889136904762 10.954071969697  0.325520833333333 10.9090909090909  0.446428571428571 10.9090909090909  L 3.125 10.9090909090909  C 3.24590773809524 10.9090909090909  3.35053943452381 10.954071969697  3.43889508928571 11.0440340909091  Z M 3.43889508928571 5.58948863636363  C 3.52725074404762 5.67945075757576  3.57142857142857 5.78598484848485  3.57142857142857 5.90909090909091  L 3.57142857142857 8.63636363636363  C 3.57142857142857 8.7594696969697  3.52725074404762 8.86600378787879  3.43889508928571 8.95596590909091  C 3.35053943452381 9.04592803030303  3.24590773809524 9.09090909090909  3.125 9.09090909090909  L 0.446428571428571 9.09090909090909  C 0.325520833333333 9.09090909090909  0.220889136904762 9.04592803030303  0.132533482142857 8.95596590909091  C 0.0441778273809524 8.86600378787879  0 8.7594696969697  0 8.63636363636363  L 0 5.90909090909091  C 0 5.78598484848485  0.0441778273809524 5.67945075757576  0.132533482142857 5.58948863636363  C 0.220889136904762 5.49952651515151  0.325520833333333 5.45454545454545  0.446428571428571 5.45454545454545  L 3.125 5.45454545454545  C 3.24590773809524 5.45454545454545  3.35053943452381 5.49952651515151  3.43889508928571 5.58948863636363  Z M 24.8674665178571 16.4985795454545  C 24.9558221726191 16.5885416666667  25 16.6950757575758  25 16.8181818181818  L 25 19.5454545454545  C 25 19.6685606060606  24.9558221726191 19.7750946969697  24.8674665178571 19.8650568181818  C 24.7791108630952 19.9550189393939  24.6744791666667 20  24.5535714285714 20  L 5.80357142857143 20  C 5.68266369047619 20  5.57803199404762 19.9550189393939  5.48967633928571 19.8650568181818  C 5.40132068452381 19.7750946969697  5.35714285714286 19.6685606060606  5.35714285714286 19.5454545454545  L 5.35714285714286 16.8181818181818  C 5.35714285714286 16.6950757575758  5.40132068452381 16.5885416666667  5.48967633928571 16.4985795454545  C 5.57803199404762 16.4086174242424  5.68266369047619 16.3636363636364  5.80357142857143 16  L 24.5535714285714 16  C 24.6744791666667 16.3636363636364  24.7791108630952 16.4086174242424  24.8674665178571 16.4985795454545  Z M 3.43889508928571 0.134943181818181  C 3.52725074404762 0.224905303030303  3.57142857142857 0.331439393939392  3.57142857142857 0.454545454545454  L 3.57142857142857 3.18181818181818  C 3.57142857142857 3.30492424242424  3.52725074404762 3.41145833333333  3.43889508928571 3.50142045454545  C 3.35053943452381 3.59138257575758  3.24590773809524 3.63636363636364  3.125 3.63636363636364  L 0.446428571428571 3.63636363636364  C 0.325520833333333 3.63636363636364  0.220889136904762 3.59138257575758  0.132533482142857 3.50142045454545  C 0.0441778273809524 3.41145833333333  0 3.30492424242424  0 3.18181818181818  L 0 0.454545454545454  C 0 0.331439393939392  0.0441778273809524 0.224905303030303  0.132533482142857 0.134943181818181  C 0.220889136904762 0.0449810606060574  0.325520833333333 0  0.446428571428571 0  L 3.125 0  C 3.24590773809524 0  3.35053943452381 0.0449810606060574  3.43889508928571 0.134943181818181  Z M 24.8674665178571 11.0440340909091  C 24.9558221726191 11.1339962121212  25 11.2405303030303  25 11.3636363636364  L 25 14.0909090909091  C 25 14.2140151515151  24.9558221726191 14.3205492424242  24.8674665178571 14.4105113636364  C 24.7791108630952 14.5004734848485  24.6744791666667 14.5454545454545  24.5535714285714 14.5454545454545  L 5.80357142857143 14.5454545454545  C 5.68266369047619 14.5454545454545  5.57803199404762 14.5004734848485  5.48967633928571 14.4105113636364  C 5.40132068452381 14.3205492424242  5.35714285714286 14.2140151515151  5.35714285714286 14.0909090909091  L 5.35714285714286 11.3636363636364  C 5.35714285714286 11.2405303030303  5.40132068452381 11.1339962121212  5.48967633928571 11.0440340909091  C 5.57803199404762 10.954071969697  5.68266369047619 10.9090909090909  5.80357142857143 11  L 24.5535714285714 11  C 24.6744791666667 10.9090909090909  24.7791108630952 10.954071969697  24.8674665178571 11.0440340909091  Z M 24.8674665178571 5.58948863636363  C 24.9558221726191 5.67945075757576  25 5.78598484848485  25 5.90909090909091  L 25 8.63636363636363  C 25 8.7594696969697  24.9558221726191 8.86600378787879  24.8674665178571 8.95596590909091  C 24.7791108630952 9.04592803030303  24.6744791666667 9.09090909090909  24.5535714285714 9  L 5.80357142857143 9  C 5.68266369047619 9.09090909090909  5.57803199404762 9.04592803030303  5.48967633928571 8.95596590909091  C 5.40132068452381 8.86600378787879  5.35714285714286 8.7594696969697  5.35714285714286 8.63636363636363  L 5.35714285714286 5.90909090909091  C 5.35714285714286 5.78598484848485  5.40132068452381 5.67945075757576  5.48967633928571 5.58948863636363  C 5.57803199404762 5.49952651515151  5.68266369047619 5.45454545454545  5.80357142857143 5.45454545454545  L 24.5535714285714 5.45454545454545  C 24.6744791666667 5.45454545454545  24.7791108630952 5.49952651515151  24.8674665178571 5.58948863636363  Z M 24.8674665178571 0.134943181818181  C 24.9558221726191 0.224905303030303  25 0.331439393939392  25 0.454545454545454  L 25 3.18181818181818  C 25 3.30492424242424  24.9558221726191 3.41145833333333  24.8674665178571 3.50142045454545  C 24.7791108630952 3.59138257575758  24.6744791666667 3.63636363636364  24.5535714285714 4  L 5.80357142857143 4  C 5.68266369047619 3.63636363636364  5.57803199404762 3.59138257575758  5.48967633928571 3.50142045454545  C 5.40132068452381 3.41145833333333  5.35714285714286 3.30492424242424  5.35714285714286 3.18181818181818  L 5.35714285714286 0.454545454545454  C 5.35714285714286 0.331439393939392  5.40132068452381 0.224905303030303  5.48967633928571 0.134943181818181  C 5.57803199404762 0.0449810606060574  5.68266369047619 0  5.80357142857143 0  L 24.5535714285714 0  C 24.6744791666667 0  24.7791108630952 0.0449810606060574  24.8674665178571 0.134943181818181  Z " fill-rule="nonzero" fill="#aaaaaa" stroke="none" transform="matrix(1 0 0 1 1404 145 )" />
  </g>
</svg>