<?xml version="1.0" encoding="utf-8"?>
<svg version="1.1" xmlns:xlink="http://www.w3.org/1999/xlink" width="12px" height="12px" viewBox="15 313.5  12 12" xmlns="http://www.w3.org/2000/svg">
  <path d="M 15.5 316.5  A 2.5 2.5 0 0 1 18 314 L 24 314  A 2.5 2.5 0 0 1 26.5 316.5 L 26.5 322.5  A 2.5 2.5 0 0 1 24 325 L 18 325  A 2.5 2.5 0 0 1 15.5 322.5 L 15.5 316.5  Z " fill-rule="nonzero" fill="#f0f0f0" stroke="none" />
  <path d="M 15.5 316.5  A 2.5 2.5 0 0 1 18 314 L 24 314  A 2.5 2.5 0 0 1 26.5 316.5 L 26.5 322.5  A 2.5 2.5 0 0 1 24 325 L 18 325  A 2.5 2.5 0 0 1 15.5 322.5 L 15.5 316.5  Z " stroke-width="1" stroke="#797979" fill="none" />
</svg>