<?xml version="1.0" encoding="utf-8"?>
<svg version="1.1" xmlns:xlink="http://www.w3.org/1999/xlink" width="12px" height="12px" viewBox="15 85.5  12 12" xmlns="http://www.w3.org/2000/svg">
  <path d="M 15.5 88.5  A 2.5 2.5 0 0 1 18 86 L 24 86  A 2.5 2.5 0 0 1 26.5 88.5 L 26.5 94.5  A 2.5 2.5 0 0 1 24 97 L 18 97  A 2.5 2.5 0 0 1 15.5 94.5 L 15.5 88.5  Z " fill-rule="nonzero" fill="#ffffff" stroke="none" />
  <path d="M 15.5 88.5  A 2.5 2.5 0 0 1 18 86 L 24 86  A 2.5 2.5 0 0 1 26.5 88.5 L 26.5 94.5  A 2.5 2.5 0 0 1 24 97 L 18 97  A 2.5 2.5 0 0 1 15.5 94.5 L 15.5 88.5  Z " stroke-width="1" stroke="#797979" fill="none" />
  <path d="M 17.5714285714286 91.5  L 20.1428571428571 94.0714285714286  L 24.4285714285714 88.0714285714286  " stroke-width="2.57142857142857" stroke="#797979" fill="none" />
</svg>