<?xml version="1.0" encoding="utf-8"?>
<svg version="1.1" xmlns:xlink="http://www.w3.org/1999/xlink" width="12px" height="12px" viewBox="15 227.5  12 12" xmlns="http://www.w3.org/2000/svg">
  <path d="M 15.5 230.5  A 2.5 2.5 0 0 1 18 228 L 24 228  A 2.5 2.5 0 0 1 26.5 230.5 L 26.5 236.5  A 2.5 2.5 0 0 1 24 239 L 18 239  A 2.5 2.5 0 0 1 15.5 236.5 L 15.5 230.5  Z " fill-rule="nonzero" fill="#f0f0f0" stroke="none" />
  <path d="M 15.5 230.5  A 2.5 2.5 0 0 1 18 228 L 24 228  A 2.5 2.5 0 0 1 26.5 230.5 L 26.5 236.5  A 2.5 2.5 0 0 1 24 239 L 18 239  A 2.5 2.5 0 0 1 15.5 236.5 L 15.5 230.5  Z " stroke-width="1" stroke="#797979" fill="none" />
  <path d="M 17.5714285714286 233.5  L 20.1428571428571 236.071428571429  L 24.4285714285714 230.071428571429  " stroke-width="2.57142857142857" stroke="#797979" fill="none" />
</svg>