<?xml version="1.0" encoding="utf-8"?>
<svg version="1.1" xmlns:xlink="http://www.w3.org/1999/xlink" width="12px" height="12px" viewBox="15 341.5  12 12" xmlns="http://www.w3.org/2000/svg">
  <path d="M 15.5 344.5  A 2.5 2.5 0 0 1 18 342 L 24 342  A 2.5 2.5 0 0 1 26.5 344.5 L 26.5 350.5  A 2.5 2.5 0 0 1 24 353 L 18 353  A 2.5 2.5 0 0 1 15.5 350.5 L 15.5 344.5  Z " fill-rule="nonzero" fill="#ffffff" stroke="none" />
  <path d="M 15.5 344.5  A 2.5 2.5 0 0 1 18 342 L 24 342  A 2.5 2.5 0 0 1 26.5 344.5 L 26.5 350.5  A 2.5 2.5 0 0 1 24 353 L 18 353  A 2.5 2.5 0 0 1 15.5 350.5 L 15.5 344.5  Z " stroke-width="1" stroke="#797979" fill="none" />
</svg>