<?xml version="1.0" encoding="utf-8"?>
<svg version="1.1" xmlns:xlink="http://www.w3.org/1999/xlink" width="12px" height="12px" viewBox="15 427.5  12 12" xmlns="http://www.w3.org/2000/svg">
  <path d="M 15.5 430.5  A 2.5 2.5 0 0 1 18 428 L 24 428  A 2.5 2.5 0 0 1 26.5 430.5 L 26.5 436.5  A 2.5 2.5 0 0 1 24 439 L 18 439  A 2.5 2.5 0 0 1 15.5 436.5 L 15.5 430.5  Z " fill-rule="nonzero" fill="#ffffff" stroke="none" />
  <path d="M 15.5 430.5  A 2.5 2.5 0 0 1 18 428 L 24 428  A 2.5 2.5 0 0 1 26.5 430.5 L 26.5 436.5  A 2.5 2.5 0 0 1 24 439 L 18 439  A 2.5 2.5 0 0 1 15.5 436.5 L 15.5 430.5  Z " stroke-width="1" stroke="#797979" fill="none" />
</svg>