<?xml version="1.0" encoding="utf-8"?>
<svg version="1.1" xmlns:xlink="http://www.w3.org/1999/xlink" width="12px" height="12px" viewBox="15 398.5  12 12" xmlns="http://www.w3.org/2000/svg">
  <path d="M 15.5 401.5  A 2.5 2.5 0 0 1 18 399 L 24 399  A 2.5 2.5 0 0 1 26.5 401.5 L 26.5 407.5  A 2.5 2.5 0 0 1 24 410 L 18 410  A 2.5 2.5 0 0 1 15.5 407.5 L 15.5 401.5  Z " fill-rule="nonzero" fill="#ffffff" stroke="none" />
  <path d="M 15.5 401.5  A 2.5 2.5 0 0 1 18 399 L 24 399  A 2.5 2.5 0 0 1 26.5 401.5 L 26.5 407.5  A 2.5 2.5 0 0 1 24 410 L 18 410  A 2.5 2.5 0 0 1 15.5 407.5 L 15.5 401.5  Z " stroke-width="1" stroke="#797979" fill="none" />
  <path d="M 17.5714285714286 404.5  L 20.1428571428571 407.071428571429  L 24.4285714285714 401.071428571429  " stroke-width="2.57142857142857" stroke="#797979" fill="none" />
</svg>