<?xml version="1.0" encoding="utf-8"?>
<svg version="1.1" xmlns:xlink="http://www.w3.org/1999/xlink" width="12px" height="12px" viewBox="15 655.5  12 12" xmlns="http://www.w3.org/2000/svg">
  <path d="M 15.5 658.5  A 2.5 2.5 0 0 1 18 656 L 24 656  A 2.5 2.5 0 0 1 26.5 658.5 L 26.5 664.5  A 2.5 2.5 0 0 1 24 667 L 18 667  A 2.5 2.5 0 0 1 15.5 664.5 L 15.5 658.5  Z " fill-rule="nonzero" fill="#ffffff" stroke="none" />
  <path d="M 15.5 658.5  A 2.5 2.5 0 0 1 18 656 L 24 656  A 2.5 2.5 0 0 1 26.5 658.5 L 26.5 664.5  A 2.5 2.5 0 0 1 24 667 L 18 667  A 2.5 2.5 0 0 1 15.5 664.5 L 15.5 658.5  Z " stroke-width="1" stroke="#797979" fill="none" />
  <path d="M 17.5714285714286 661.5  L 20.1428571428571 664.071428571429  L 24.4285714285714 658.071428571429  " stroke-width="2.57142857142857" stroke="#797979" fill="none" />
</svg>