<?xml version="1.0" encoding="utf-8"?>
<svg version="1.1" xmlns:xlink="http://www.w3.org/1999/xlink" width="12px" height="12px" viewBox="1455 925  12 12" xmlns="http://www.w3.org/2000/svg">
  <path d="M 1461 925  C 1464.36 925  1467 927.64  1467 931  C 1467 934.36  1464.36 937  1461 937  C 1457.64 937  1455 934.36  1455 931  C 1455 927.64  1457.64 925  1461 925  Z " fill-rule="nonzero" fill="#f0f0f0" stroke="none" />
  <path d="M 1461 925.5  C 1464.08 925.5  1466.5 927.92  1466.5 931  C 1466.5 934.08  1464.08 936.5  1461 936.5  C 1457.92 936.5  1455.5 934.08  1455.5 931  C 1455.5 927.92  1457.92 925.5  1461 925.5  Z " stroke-width="1" stroke="#797979" fill="none" />
  <path d="M 1461 934  C 1459.32 934  1458 932.68  1458 931  C 1458 929.32  1459.32 928  1461 928  C 1462.68 928  1464 929.32  1464 931  C 1464 932.68  1462.68 934  1461 934  " fill-rule="nonzero" fill="#797979" stroke="none" />
</svg>