<?xml version="1.0" encoding="utf-8"?>
<svg version="1.1" xmlns:xlink="http://www.w3.org/1999/xlink" width="17px" height="16px" xmlns="http://www.w3.org/2000/svg">
  <g transform="matrix(1 0 0 1 -2628 -261 )">
    <path d="M 16.5993265993266 11.959595959596  C 16.8664421997755 12.2109988776655  17 12.5162738496072  17 12.8754208754209  C 17 13.2345679012346  16.8664421997755 13.5398428731762  16.5993265993266 13.7912457912458  L 14.6531986531987 15.6228956228956  C 14.3860830527497 15.8742985409652  14.0617283950617 16  13.6801346801347 16  C 13.2985409652076 16  12.9741863075196 15.8742985409652  12.7070707070707 15.6228956228956  L 8.5 11.6632996632997  L 4.29292929292929 15.6228956228956  C 4.02581369248036 15.8742985409652  3.70145903479237 16  3.31986531986532 16  C 2.93827160493827 16  2.61391694725028 15.8742985409652  2.34680134680135 15.6228956228956  L 0.400673400673401 13.7912457912458  C 0.133557800224467 13.5398428731762  0 13.2345679012346  0 12.8754208754209  C 0 12.5162738496072  0.133557800224467 12.2109988776655  0.400673400673401 11.959595959596  L 4.60774410774411 8  L 0.400673400673401 4.04040404040404  C 0.133557800224467 3.78900112233445  0 3.48372615039282  0 3.12457912457912  C 0 2.76543209876543  0.133557800224467 2.46015712682379  0.400673400673401 2.20875420875421  L 2.34680134680135 0.377104377104377  C 2.61391694725028 0.125701459034792  2.93827160493827 0  3.31986531986532 0  C 3.70145903479237 0  4.02581369248036 0.125701459034792  4.29292929292929 0.377104377104377  L 8.5 4.33670033670034  L 12.7070707070707 0.377104377104377  C 12.9741863075196 0.125701459034792  13.2985409652076 0  13.6801346801347 0  C 14.0617283950617 0  14.3860830527497 0.125701459034792  14.6531986531987 0.377104377104377  L 16.5993265993266 2.20875420875421  C 16.8664421997755 2.46015712682379  17 2.76543209876543  17 3.12457912457912  C 17 3.48372615039282  16.8664421997755 3.78900112233445  16.5993265993266 4.04040404040404  L 12.3922558922559 8  L 16.5993265993266 11.959595959596  Z " fill-rule="nonzero" fill="#000000" stroke="none" transform="matrix(1 0 0 1 2628 261 )" />
  </g>
</svg>