<?xml version="1.0" encoding="utf-8"?>
<svg version="1.1" xmlns:xlink="http://www.w3.org/1999/xlink" width="17px" height="16px" xmlns="http://www.w3.org/2000/svg">
  <g transform="matrix(1 0 0 1 -583 -22 )">
    <path d="M 16.3186793785311 14.7636363636364  L 1.13153248587571 14.7636363636364  L 1.13153248587571 0.654545454545456  C 1.14691459191147 0.338120165492967  0.907469044767367 0.0680080195794801  0.594279661016913 0.0484848484848612  C 0.288239698293523 0.0627006189967858  0.0473569232924547 0.317348484063615  0.0473569232924547 0.626661131606198  C 0.0473569232924547 0.635959955255885  0.0475788795851031 0.645257428604111  0 0.654545454545456  L 0 15.2606060606061  C 0.0451236924069462 15.2969108042142  0.0451236924069462 15.3333922260888  0.048022598870034 15.369696969697  C 0.0326404928342754 15.6861222587495  0.272086039978376 15.956234404663  0.585275423728831 16  L 16.3186793785311 16  C 16.3186793785311 15.9757575757576  16.3186793785311 15.9757575757576  16.3186793785311 15.9757575757576  C 16.6502062410707 15.9757575757576  16.9189618644068 15.7044149998974  16.9189618644068 15.369696969697  C 16.9189618644068 15.0349789394965  16.6502062410707 14.7636363636364  16.3186793785311 14.7636363636364  Z " fill-rule="nonzero" fill="#ffffff" stroke="none" transform="matrix(1 0 0 1 583 22 )" />
  </g>
</svg>