<?xml version="1.0" encoding="utf-8"?>
<svg version="1.1" xmlns:xlink="http://www.w3.org/1999/xlink" width="14px" height="9px" xmlns="http://www.w3.org/2000/svg">
  <g transform="matrix(1 0 0 1 -586 -26 )">
    <path d="M 13.8479609929078 0.907538659793829  L 9.27127659574467 6.41365979381442  C 9.16862693785038 6.54027270556207  9.00844995745035 6.61465942741464  8.83846394356999 6.61465942741464  C 8.70368414434051 6.61465942741464  8.57372124334779 6.56781928486976  8.47384751773052 6.48324742268042  L 5.06072695035459 3.63015463917526  L 1.02703900709218 8.75354381443299  C 0.924555247281546 8.88784528450242  0.758923350786972 8.9675746233697  0.582405584865342 8.9675746233697  C 0.454613406710905 8.9675746233697  0.330868160610407 8.92569506729592  0.232712765957444 8.8492268041237  C -0.0170299790657964 8.65124427669971  -0.0591390032873278 8.30598588740619  0.136524822695037 8.06056701030928  L 4.57978723404256 2.51965206185568  C 4.68243689193685 2.39303915010802  4.84261387233687 2.31865242825549  5.01259988621723 2.31865242825549  C 5.14737968544671 2.31865242825549  5.27734258643943 2.36549257080037  5.3772163120567 2.45006443298971  L 8.89273049645385 5.37564432989691  L 12.9574468085107 0.214561855670098  C 13.0599305683213 0.080260385600667  13.2255624648158 0.000531046733385665  13.4020802307375 0.000531046733385665  C 13.5298724088919 0.000531046733385665  13.6536176549924 0.0424106028071662  13.7517730496454 0.118878865979383  C 14.0015157946686 0.316861393403371  14.0436248188901 0.662119782696891  13.8479609929078 0.907538659793829  Z " fill-rule="nonzero" fill="#ffffff" stroke="none" transform="matrix(1 0 0 1 586 26 )" />
  </g>
</svg>