<?xml version="1.0" encoding="utf-8"?>
<svg version="1.1" xmlns:xlink="http://www.w3.org/1999/xlink" width="19px" height="17px" xmlns="http://www.w3.org/2000/svg">
  <g transform="matrix(1 0 0 1 -453 -22 )">
    <path d="M 16.5376958164167 0.0104501323918669  L 16.537680211827 0  L 0.67155770520742 0  C 0.321232495176872 0.010613678640496  0.0373245033650846 0.294654241343238  0.0373245033650846 0.644979489548845  C 0.0373245033650846 0.645171969232024  0.037324590945957 0.6453644489049  0 0.645556928508398  L 0 15.3541621888791  C 0.0373247661077016 15.7053746866725  0.3209225772286 15.9895498676081  0.671573309796997 15.9895498676081  L 3.58544953221536 15.9895498676081  C 3.93577486641615 15.9893864967482  4.21968305183665 15.7053458825969  4.21968305183665 15.3550205103029  L 4.21968247131511 14.2035109620477  C 4.21968247131511 13.8865193292145  4.4784689849956 13.6277484201236  4.79630326566638 13.6277484201236  C 5.11413754633716 13.6277484201236  5.37262757281553 13.8865193292145  5.37262757281553 14.2035109620477  L 5.37262757281553 15.3541621888791  C 5.37262757281553 15.7053746866725  5.65678714916152 15.9895498676081  6.0071569991174 15.9895498676081  L 10.6311870079435 15.9895498676081  C 10.9821186231244 15.9895498676081  11.2659973168579 15.7053902912621  11.2659973168579 15.3541621888791  L 11.2659973168579 14.2035109620477  C 11.2659973168579 13.8865193292145  11.5247838305384 13.6277484201236  11.8420407413945 13.6277484201236  C 12.1598750220653 13.6277484201236  12.4183650485437 13.8865193292145  12.4183650485437 14.2035109620477  L 12.4183650485437 15.3541621888791  C 12.4183650485437 15.7053746866725  12.7028367166814 15.9895498676081  13.0531909620477 15.9895498676081  L 16.5376958164166 15.9895498676081  C 16.8886118270079 15.9895498676081  17.1724905207414 15.7053902912621  17 15.3541621888791  L 17 0.645556928508398  C 17.1724905668995 0.645458099385507  17.1724905899785 0.645359270249827  17.1724905899785 0.645260441116164  C 17.1724905899785 0.294670455384548  16.8882858020432 0.0104587121817019  16.5376958164167 0.0104501323918669  Z M 16 1.28094460723742  L 16 14.7193362753751  L 13.687439505737 14.7193362753751  L 13.687439505737 14.2035109620477  C 13.687439505737 13.1858108384819  12.8597408649603 12.3572695498676  11.8420407413945 12.3572695498676  C 10.8246215004413 12.3572695498676  9.99637669902916 13.1858108384819  9.99637669902916 14.2035109620477  L 9.99637669902916 14.7193362753751  L 6.64170203000884 14.7193362753751  L 6.64170203000884 14.2034953574581  C 6.64170203000884 13.1857952338923  5.81400338923214 12.357253945278  4.79630326566638 12.357253945278  C 3.77719978955588 12.3583553164214  2.95141485485175 13.1843915933672  2.9506236187114 14.2034953574581  L 2.9506236187114 14.7193362753751  L 1.30580624889674 14.7193362753751  L 1.30580624889674 1.28094460723742  L 16 1.28094460723742  Z M 4.69701126213593 5.65676801412178  C 4.59764352554538 5.70670004108069  4.53541824406224 5.80889484643626  4.53667410414829 5.92009546337158  C 4.53667410414829 6.07816995586938  4.65792176522507 6.20826541924094  4.80884935569287 6.20826541924094  L 4.81370238305382 6.20768804942631  C 4.86991011473964 6.96719463371579  5.46764391879967 7.72782474845542  6.19831322153576 7.72782474845542  C 6.92898252427187 7.72782474845542  7.52701281553399 6.96719463371579  7.58322054721978 6.20768804942631  L 7.58777708737864 6.20826541924094  C 7.73870467784644 6.20826541924094  7.85939057369816 6.07816995586938  7.85939057369816 5.92009546337158  C 7.85939057369816 5.80256169461606  7.79349239187999 5.70183406884377  7.69847604589586 5.65676801412178  C 7.75354464254193 5.48558566637246  7.78350545454546 5.30354252427185  7.78350545454546 5.11294806707855  C 7.78350545454546 4.18455300970874  7.07393355692852 3.43077330979699  6.19831322153576 3.43077330979699  C 5.32298937334511 3.43077330979699  4.61257482789057 4.18455300970874  4.61257482789057 5.11294806707855  C 4.61257482789057 5.30354252427185  4.6425200353045 5.48558566637246  4.69701126213593 5.65676801412178  Z M 2.82965684024714 10.4225657193292  L 9.56668872021183 10.4225657193292  C 9.64857104666774 10.422566855776  9.71448086436175 10.356657038082  9.71448086436175 10.2753531576295  L 9.71447978817298 9.74724589585173  C 9.71436935326687 9.70704360241874  9.69825377812617 9.66854029275333  9.66969461606357 9.6402452250662  C 9.0220417299206 9.01142707855252  8.23173168578995 8.56805387466903  7.38150001765226 8.35578464254192  C 7.35972530126475 8.34443440349304  7.33558342839942 8.33837220601089  7.31102969108562 8.33808903795233  L 7.23370894969111 8.33808903795233  C 7.20945156828159 8.33784666312732  7.18555183497585 8.34394666258009  7.16437775816416 8.35578464254192  C 6.90674598411297 8.49301140335393  6.55495611650485 8.57204864960283  6.19831322153576 8.57204864960283  C 5.84196681376875 8.57204864960283  5.48875692850839 8.49301140335393  5.23254517210944 8.35492639011474  C 5.21082358300276 8.34380392528735  5.1867592795472 8.33803127445839  5.16235572815535 8.33808903795233  L 5.1064288790821 8.33808903795233  C 5.09480967599472 8.33779976692819  5.08320324957594 8.33904855964414  5.07191152691971 8.34180293027362  C 4.20056684907325 8.54865736981466  3.39029853486321 8.99772624889675  2.72638566637247 9.6402608296558  C 2.69776041449583 9.66846057134541  2.68179725610412 9.70706495015799  2.6821466548985 9.74724589585173  L 2.6821466548985 10.2750711385702  C 2.68214574944537 10.3567616586813  2.74795077094842 10.4225666801843  2.8291253787481 10.4225666801843  Z M 10.7022347043248 8.22996483671668  L 14.2840185701677 8.22996483671668  C 14.4196484735558 8.22341244322789  14.5262481186098 8.11153855471974  14.5262481186098 7.97575046778465  C 14.5262481186098 7.83996238084956  14.4196484735558 7.72808849234141  14.2840185701677 7.72153609885262  L 10.7022347043248 7.72153609885262  C 10.5618359851758 7.7215360988526  10.4480203353928 7.83535174863562  10.4480203353928 7.97575046778465  C 10.4480203353928 8.11614918693368  10.5618359851758 8.22996483671668  10.7022347043248 8.22996483671668  Z M 10.7022347043248 6.2222315269197  L 14.2840185701677 6.2222315269197  C 14.4234811229425 6.22113824087037  14.5359614618625 6.10777268089186  14.5359614618625 5.96830584289498  C 14.5359614618625 5.8288390048981  14.4234811229425 5.71547344491955  14.2840185701677 5.71438015887026  L 10.7022347043248 5.71438015887026  C 10.5619954214476 5.71438015887026  10.4483090203001 5.82806656001776  10.4483090203001 5.96830584289498  C 10.4483090203001 6.10854512577217  10.5619954214476 6.2222315269197  10.7022347043248 6.2222315269197  Z " fill-rule="nonzero" fill="#ffffff" stroke="none" transform="matrix(1 0 0 1 453 22 )" />
  </g>
</svg>