<?xml version="1.0" encoding="utf-8"?>
<svg version="1.1" xmlns:xlink="http://www.w3.org/1999/xlink" width="19px" height="16px" xmlns="http://www.w3.org/2000/svg">
  <g transform="matrix(1 0 0 1 -713 -22 )">
    <path d="M 18.99072265625 14.7529411764706  C 18.99072265625 14.1176470588235  18.480966558689 13.6  17.8553568025915 13.6  C 17.2297470464939 13.6  16.7199909489329 14.1176470588235  16.7199909489329 14.7529411764706  C 16.7199909489329 15.3882352941176  17.2297470464939 15.9058823529412  17.8553568025915 15.9058823529412  C 18.480966558689 15.9058823529412  18.99072265625 15.3882352941176  18.99072265625 14.7529411764706  Z M 6.07073170731707 6.75765165441177  C 6.07073170731707 3.88235294117646  8.36925019054877 1.53883272058823  11.1914634146341 1.53883272058823  C 12.4844083460366 1.53883272058823  13.7077958269817 2.0188419117647  14.6392637671494 2.88940716911765  C 14.6717118426067 2.92235753676471  14.690243902439 2.94588694852942  14.7087759622713 2.96470588235294  C 14.7365853658537 2.99765625000001  14.759756097561 3.02587316176471  14.8339069645579 3.08706341911764  C 14.9821860708842 3.28940716911765  15.1861066120427 3.39294577205882  15.4317073170732 3.39294577205882  C 15.8163324123475 3.38823529411764  16.1268292682927 3.07764246323529  16.1314679401677 2.68235294117648  C 16.1314679401677 2.47058823529412  16.0387850133384 2.2682444852941  15.8534191596799 2.08000919117646  C 15.7746296208079 2  15.7699909489329 1.99528952205881  15.705117425686 1.94352022058823  L 15.6541372903964 1.90588235294118  C 14.4492592416158 0.738832720588221  12.8643721417683 0.0941176470588232  11.1868247427591 0.0941176470588232  C 7.75291777820121 0.0941176470588232  4.89830173399389 2.80942095588236  4.67121046112806 6.27764246323528  C 3.43390696455793 6.30588235294118  2.27537037919205 6.81410845588235  1.40413729039636 7.70824908088235  C 0.519033441310967 8.61647518382352  0.032448075457296 9.81647518382354  0.032448075457296 11.0870634191176  C 0.032448075457296 12.3717601102941  0.523649485518263 13.5858915441177  1.42269197789636 14.4941176470588  C 2.3170731707317 15.40234375  3.51267387576218 15.9058823529412  4.7778094035823 15.9058823529412  L 5.89925924161582 15.9058823529412  C 6.2839069645579 15.9058823529412  6.59438119283539 15.5952895220588  6.59901986471039 15.2094209558824  C 6.61293588033539 15.0682444852941  6.56195574504574 14.9270680147059  6.45999547446644 14.8141084558823  C 6.3348644721799 14.6729319852941  6.14488257431401 14.5882352941177  5.95023937690547 14.5882352941177  L 4.80561880716465 14.5882352941177  C 2.94732159870426 14.5882352941177  1.43658536585366 13.0541130514706  1.43658536585366 11.1670496323529  C 1.43658536585366 9.2799862132353  2.94732159870426 7.74586397058823  4.80561880716465 7.74586397058823  L 5.44512195121951 7.74586397058823  C 5.5424209222561 7.74586397058823  5.73706411966464 7.71293658088234  5.91781392911582 7.50588235294117  C 6.10317978277436 7.29411764705881  6.08926376714936 7.09177389705883  6.07537037919207 6.90822610294117  C 6.07073170731707 6.86116727941177  6.07073170731707 6.80942095588236  6.07073170731707 6.75765165441177  Z " fill-rule="nonzero" fill="#ffffff" stroke="none" transform="matrix(1 0 0 1 713 22 )" />
  </g>
</svg>