<?xml version="1.0" encoding="utf-8"?>
<svg version="1.1" xmlns:xlink="http://www.w3.org/1999/xlink" width="13px" height="11px" xmlns="http://www.w3.org/2000/svg">
  <g transform="matrix(1 0 0 1 -721 -27 )">
    <path d="M 6.22093606651379 0.721232683634014  C 6.04916499426605 0.557929284793801  5.82018348623853 0.476288659793823  5.58165137614679 0.476288659793823  L 2.90054114105504 0.476288659793823  C 2.68111023509175 0.204123711340202  2.34716528096328 0.0272209246134025  1.97026591169725 0.0272209246134025  C 1.39778884747705 0.0272209246134025  0.90164671731651 0.417328447164948  0.81578447534406 0.93443741945876  C 0.758527451261443 1.28824299291236  0.849164994266062 1.61939030283506  1.07339449541286 1.86887483891752  C 1.29282540137615 2.11381886275774  1.61724304759173 2.24536082474228  1.97981651376148 2.24536082474228  C 2.36624319094039 2.24536082474228  2.72881665711009 2.06391752577321  2.93872025516055 1.74639175257732  L 5.22385321100916 1.74639175257732  C 5.32401806192661 1.74639175257732  5.41945420011467 1.78721206507731  5.49578913417429 1.85525330219073  L 7.78092209002295 4.02805452641752  C 7.85725702408257 4.10061412693298  7.95742187500002 4.14597495167527  8.06238532110092 4.14597495167527  L 9.42201834862385 4.14597495167527  C 9.63669724770642 4.41813990012886  9.98019280389906 4.59958319909794  10.3427429759174 4.59958319909794  L 10.3522935779816 4.59958319909794  C 10.9247706422018 4.59958319909794  11.4209127723624 4.1958762886598  11.5067983084862 3.67876731636599  C 11.5640320384175 3.32493959407216  11.4733944954128 2.98473340850515  11.249164994266 2.73073050902062  C 11.0297340883027 2.4857643363402  10.7053164420872 2.34516349871134  10.3427429759174 2.34516349871134  C 9.95633959288989 2.34516349871134  9.5937661267202 2.5129852609536  9.38386252866974 2.83051103414948  L 8.6587155963303 2.83051103414948  C 8.55855074541284 2.83051103414948  8.46311460722478 2.79877174613401  8.39155497419722 2.73073050902062  L 6.4832980934633 0.957117831829891  L 6.2209127723624 0.721232683634014  Z M 11.7882382454129 5.70638289304125  C 11.3302752293578 5.70638289304125  10.929545943234 5.91958762886597  10.7387202551606 6.3278350515464  L 7.28000465883025 6.3278350515464  C 7.0366972477064 6.3278350515464  6.812491040711 6.40947567654638  6.64074326261471 6.56823856314432  L 3.99303684059635 9.07670546069588  C 3.92147720756878 9.14474669780927  3.82606436353211 9.18556701030928  3.72110091743122 9.18556701030928  L 2.21834862385322 9.18556701030928  C 2.08477995986237 8.95876288659792  1.88917897075686 8.84536082474227  1.66972477064218 8.76823856314434  C 1.54090811353211 8.71835937500001  1.40256414850916 8.68659793814433  1.25944488245415 8.68659793814433  C 0.772830060206445 8.68659793814433  0.329169653096358 8.96784391108247  0.147894567087178 9.38969072164949  C 0.0381791141055032 9.65277464561856  0.0477064220183365 9.9612415431701  0.171747778096346 10.2334064916237  C 0.300564435206411 10.5101119523196  0.529545943233927 10.7278350515464  0.811009174311948 10.8366966011598  C 0.949376433486236 10.8820574259021  1.0876971043578 10.9047378382732  1.23081637041287 10.9047378382732  C 1.60294043864678 10.9047378382732  1.94641270068809 10.7686553640464  2.1753942087156 10.4511295908505  L 4.09797699254585 10.4511295908505  C 4.33650910263759 10.4511295908505  4.57504121272933 10.360407941366  4.74201368979357 10.1971045425258  L 7.33248638188076 7.68865979381442  C 7.41357332282109 7.61153753221649  7.5233120699541 7.54803680734537  7.63780282396789 7.54803680734537  L 10.9152200401376 7.54803680734537  L 10.9581744552752 7.56165834407216  C 11.1728533543578 7.7748409310567  11.4638438933486 7.90186452963917  11.7787109375 7.90186452963917  C 12.4466008457569 7.90186452963917  12.9475182769496 7.43463474548969  12.9475182769496 6.79958319909792  C 12.9570688790138 6.19175257731959  12.4322982368119 5.70638289304122  11.7882615395642 5.70638289304122  Z M 4.76591348910551 3.97361267719072  C 4.39856472190365 3.9645316527062  4.05506916571102 4.15051546391751  3.84039026662845 4.42268041237114  L 2.2135966169725 4.42268041237114  C 1.99891771788992 4.10515463917525  1.65544545584862 3.95999114046393  1.27379407970182 3.95999114046393  C 0.605904171444934 3.95999114046393  0.104986740252286 4.43176143685568  0.104986740252286 5.06681298324742  C 0.104986740252286 5.70186452963918  0.610656178325712 6.18267155283505  1.28809668864682 6.18267155283505  C 1.66499605791284 6.18267155283505  2.0275462299312 6.01484979059279  2.23744982798166 5.69732401739691  L 3.82131235665139 5.69732401739691  C 4.03121595470185 6.01484979059279  4.39378942087154 6.19629308956186  4.77066549598624 6.19629308956186  L 4.78021609805046 6.19629308956186  C 5.44810600630734 6.19629308956186  5.94902343749999 5.71546391752577  5.94902343749999 5.08041237113403  C 5.94902343749999 4.44536082474227  5.44330741112384 3.97361267719072  4.76591348910551 3.97361267719072  Z " fill-rule="nonzero" fill="#ffffff" stroke="none" transform="matrix(1 0 0 1 721 27 )" />
  </g>
</svg>