<?xml version="1.0" encoding="utf-8"?>
<svg version="1.1" xmlns:xlink="http://www.w3.org/1999/xlink" width="494px" height="171px" xmlns="http://www.w3.org/2000/svg">
  <g transform="matrix(1 0 0 1 -1247 -1720 )">
    <path d="M 1248 1724  A 3 3 0 0 1 1251 1721 L 1737 1721  A 3 3 0 0 1 1740 1724 L 1740 1887  A 3 3 0 0 1 1737 1890 L 1251 1890  A 3 3 0 0 1 1248 1887 L 1248 1724  Z " fill-rule="nonzero" fill="#ff3399" stroke="none" fill-opacity="0.0980392156862745" />
    <path d="M 1247.5 1724  A 3.5 3.5 0 0 1 1251 1720.5 L 1737 1720.5  A 3.5 3.5 0 0 1 1740.5 1724 L 1740.5 1887  A 3.5 3.5 0 0 1 1737 1890.5 L 1251 1890.5  A 3.5 3.5 0 0 1 1247.5 1887 L 1247.5 1724  Z " stroke-width="1" stroke-dasharray="9,4" stroke="#ff3399" fill="none" stroke-dashoffset="0.5" />
  </g>
</svg>