<?xml version="1.0" encoding="utf-8"?>
<svg version="1.1" xmlns:xlink="http://www.w3.org/1999/xlink" width="26px" height="23px" xmlns="http://www.w3.org/2000/svg">
  <g transform="matrix(1 0 0 1 -267 -30 )">
    <path d="M 24.1428571428571 1.91417425227568  L 24.1428571428571 7.65669700910273  C 24.655505952381 7.65669700910273  25.0931919642857 7.84362808842653  25.4559151785714 8.21749024707412  C 25.8186383928571 8.59135240572172  26 9.04247941048981  26 9.57087126137841  C 26 10.099263112267  25.8186383928571 10.5503901170351  25.4559151785714 10.9242522756827  C 25.0931919642857 11.2981144343303  24.655505952381 11.4850455136541  24.1428571428571 11.4850455136541  L 24.1428571428571 17.2275682704811  C 24.1428571428571 17.7459904638058  23.9590773809524 18.1946250541829  23.5915178571429 18.5734720416125  C 23.2239583333333 18.952319029042  22.7886904761905 19.1417425227568  22.2857142857143 19.1417425227568  C 18.2522321428571 15.6822713480711  14.3251488095238 13.7880364109233  10.5044642857143 13.4590377113134  C 9.94345238095238 13.6484612050282  9.50334821428571 13.9774599046381  9.18415178571429 14.446033810143  C 8.86495535714286 14.914607715648  8.71502976190476 15.4155830082358  8.734375 15.9489596879064  C 8.75372023809524 16.4823363675769  8.94717261904762 16.943433029909  9.31473214285714 17.3322496749025  C 9.12127976190476 17.6612483745124  9.01004464285714 17.9877546597313  8.98102678571429 18.3117685305592  C 8.95200892857143 18.6357824013871  8.98102678571429 18.9249024707412  9.06808035714286 19.1791287386216  C 9.15513392857143 19.433355006502  9.31715029761905 19.7075205895102  9.55412946428571 20.0016254876463  C 9.79110863095238 20.2957303857824  10.0232514880952 20.5449718248808  10.2505580357143 20.7493498049415  C 10.4778645833333 20.9537277850022  10.7752976190476 21.2054616384915  11.1428571428571 21.5045513654096  C 10.8623511904762 22.0827915041179  10.3231026785714 22.4965322930212  9.52511160714286 22.7457737321196  C 8.72712053571429 22.995015171218  7.91220238095238 23.0523407022107  7.08035714285714 22.9177503250975  C 6.24851190476191 22.7831599479844  5.61011904761905 22.5065019505852  5.16517857142857 22.0877763328999  C 5.09747023809524 21.8584742089293  4.95479910714286 21.4223016905072  4.73716517857143 20.7792587776333  C 4.51953125 20.1362158647594  4.3647693452381 19.6651495448635  4.27287946428571 19.3660598179454  C 4.18098958333333 19.0669700910273  4.06975446428571 18.6233203294322  3.93917410714286 18.0351105331599  C 3.80859375 17.4469007368877  3.73604910714286 16.943433029909  3.72154017857143 16.5247074122237  C 3.70703125 16.1059817945384  3.72395833333333 15.6149761595145  3.77232142857143 15.0516905071521  C 3.82068452380952 14.4884048547898  3.92708333333333 13.9375812743823  4.09151785714286 13.3992197659298  L 2.32142857142857 13.3992197659298  C 1.68303571428571 13.3992197659298  1.13653273809524 13.1649328131773  0.681919642857143 12.6963589076723  C 0.227306547619048 12.2277850021673  0 11.6644993498049  0 11.0065019505852  L 0 8.13524057217165  C 0 7.47724317295189  0.227306547619048 6.91395752058951  0.681919642857143 6.44538361508452  C 1.13653273809524 5.97680970957954  1.68303571428571 5.74252275682705  2.32142857142857 5.74252275682705  L 9.28571428571429 5.74252275682705  C 13.4933035714286 5.74252275682705  17.8266369047619 3.82834850455136  22.2857142857143 0  C 22.7886904761905 0  23.2239583333333 0.189423493714779  23.5915178571429 0.568270481144344  C 23.9590773809524 0.947117468573904  24.1428571428571 1.39575205895102  24.1428571428571 1.91417425227568  Z M 11.1428571428571 11.5897269180754  C 14.7894345238095 12.0084525357607  18.5037202380952 13.7082791504118  22 16.6892067620286  L 22 2.42262678803641  C 18.4747023809524 5.43346337234504  14.7604166666667 7.14325964456003  11.1428571428571 7.55201560468141  L 11.1428571428571 11.5897269180754  Z " fill-rule="nonzero" fill="#f2f2f2" stroke="none" transform="matrix(1 0 0 1 267 30 )" />
  </g>
</svg>