<?xml version="1.0" encoding="utf-8"?>
<svg version="1.1" xmlns:xlink="http://www.w3.org/1999/xlink" width="211px" height="205px" xmlns="http://www.w3.org/2000/svg">
  <g transform="matrix(1 0 0 1 -296 -182 )">
    <path d="M 296 182  L 507 182  L 507 387  L 296 387  L 296 182  " fill-rule="nonzero" fill="#cccccc" stroke="none" />
    <path d="M 310 196  L 493 196  L 493 373  L 310 373  L 310 196  " fill-rule="nonzero" fill="#ffffff" stroke="none" />
    <path d="M 421.095 243.5  C 412.485 243.5  405.72 236.735  405.72 228.125  C 405.72 219.515  412.485 212.75  421.095 212.75  C 429.705 212.75  436.47 219.515  436.47 228.125  C 436.47 236.735  429.705 243.5  421.095 243.5  " fill-rule="nonzero" fill="#cccccc" stroke="none" />
    <path d="M 315 368  L 315 276.15  L 358.25 234.4  L 418.8 270.649289099526  L 453.4 259.45  L 488 270.649289099526  L 488 368  L 315 368  " fill-rule="nonzero" fill="#169bd5" stroke="none" />
  </g>
</svg>