<?xml version="1.0" encoding="utf-8"?>
<svg version="1.1" xmlns:xlink="http://www.w3.org/1999/xlink" width="6px" height="11px" xmlns="http://www.w3.org/2000/svg">
  <g transform="matrix(1 0 0 1 -299 -185 )">
    <path d="M 3.44140625 10.385546875  C 3.56380208333333 10.2509114583333  3.625 10.0890625  3.625 9.9  C 3.625 9.7109375  3.56380208333333 9.54908854166667  3.44140625 9.414453125  C 3.31901041666667 9.27981770833333  3.171875 9.2125  3 9.2125  C 2.828125 9.2125  2.68098958333333 9.27981770833333  2.55859375 9.414453125  C 2.43619791666667 9.54908854166667  2.375 9.7109375  2.375 9.9  C 2.375 10.0890625  2.43619791666667 10.2509114583333  2.55859375 10.385546875  C 2.68098958333333 10.5201822916667  2.828125 10.5875  3 10.5875  C 3.171875 10.5875  3.31901041666667 10.5201822916667  3.44140625 10.385546875  Z M 5.17578125 8.718359375  C 5.22526041666667 8.66393229166667  5.25 8.59947916666667  5.25 8.525  L 5.25 2.475  C 5.25 2.40052083333333  5.22526041666667 2.33606770833333  5.17578125 2.281640625  C 5.12630208333333 2.22721354166667  5.06770833333333 2.2  5 2.2  L 1 2.2  C 0.932291666666667 2.2  0.873697916666667 2.22721354166667  0.82421875 2.281640625  C 0.774739583333333 2.33606770833333  0.75 2.40052083333333  0.75 2.475  L 0.75 8.525  C 0.75 8.59947916666667  0.774739583333333 8.66393229166667  0.82421875 8.718359375  C 0.873697916666667 8.77278645833333  0.932291666666667 8.8  1 8.8  L 5 8.8  C 5.06770833333333 8.8  5.12630208333333 8.77278645833333  5.17578125 8.718359375  Z M 3.625 1.375  C 3.70833333333333 1.375  3.75 1.32916666666667  3.75 1.2375  C 3.75 1.14583333333333  3.70833333333333 1.1  3.625 1.1  L 2.375 1.1  C 2.29166666666667 1.1  2.25 1.14583333333333  2.25 1.2375  C 2.25 1.32916666666667  2.29166666666667 1.375  2.375 1.375  L 3.625 1.375  Z M 5.703125 0.3265625  C 5.90104166666667 0.544270833333333  6 0.802083333333333  6 1.1  L 6 9.9  C 6 10.1979166666667  5.90104166666667 10.4557291666667  5.703125 10.6734375  C 5.50520833333333 10.8911458333333  5.27083333333333 11  5 11  L 1 11  C 0.729166666666667 11  0.494791666666667 10.8911458333333  0.296875 10.6734375  C 0.0989583333333333 10.4557291666667  0 10.1979166666667  0 9.9  L 0 1.1  C 0 0.802083333333333  0.0989583333333333 0.544270833333333  0.296875 0.3265625  C 0.494791666666667 0.108854166666665  0.729166666666667 0  1 0  L 5 0  C 5.27083333333333 0  5.50520833333333 0.108854166666665  5.703125 0.3265625  Z " fill-rule="nonzero" fill="#ffffff" stroke="none" transform="matrix(1 0 0 1 299 185 )" />
  </g>
</svg>