<?xml version="1.0" encoding="utf-8"?>
<svg version="1.1" xmlns:xlink="http://www.w3.org/1999/xlink" width="211px" height="250px" xmlns="http://www.w3.org/2000/svg">
  <defs>
    <mask fill="white" id="clip155">
      <path d="M 0 240  L 0 0  L 211 0  L 211 240  L 69.2944672815577 240  L 60.3413284132841 249.606918238994  L 51.7765864733081 240  L 0 240  Z " fill-rule="evenodd" />
    </mask>
  </defs>
  <g transform="matrix(1 0 0 1 -547 -181 )">
    <path d="M 0 240  L 0 0  L 211 0  L 211 240  L 69.2944672815577 240  L 60.3413284132841 249.606918238994  L 51.7765864733081 240  L 0 240  Z " fill-rule="nonzero" fill="#ffffff" stroke="none" transform="matrix(1 0 0 1 547 181 )" />
    <path d="M 0 240  L 0 0  L 211 0  L 211 240  L 69.2944672815577 240  L 60.3413284132841 249.606918238994  L 51.7765864733081 240  L 0 240  Z " stroke-width="2" stroke="#cccccc" fill="none" transform="matrix(1 0 0 1 547 181 )" mask="url(#clip155)" />
  </g>
</svg>