<?xml version="1.0" encoding="utf-8"?>
<svg version="1.1" xmlns:xlink="http://www.w3.org/1999/xlink" width="11px" height="11px" xmlns="http://www.w3.org/2000/svg">
  <g transform="matrix(1 0 0 1 -668 -236 )">
    <path d="M 0 7.80803571428571  C 0 6.68266369047619  0.52619589977221 5.72916666666667  1.57858769931663 4.94754464285714  C 1.54517843583903 4.86979166666667  1.52847380410023 4.76339285714286  1.52847380410023 4.62834821428571  C 1.52847380410023 4.54650297619048  1.55144267274108 4.44624255952381  1.59738041002278 4.32756696428571  C 1.64331814730448 4.20889136904762  1.69343204252088 4.11681547619048  1.74772209567198 4.05133928571429  C 1.74354593773728 3.96130952380952  1.75920652999241 3.85286458333333  1.79470387243736 3.72600446428571  C 1.83020121488231 3.59914434523809  1.87718299164768 3.51116071428571  1.93564920273349 3.46205357142857  C 1.93564920273349 2.89322916666667  2.12879650721336 2.30292038690476  2.51509111617312 1.69112723214286  C 2.90138572513288 1.07933407738095  3.35554290053151 0.650669642857143  3.87756264236902 0.405133928571428  C 4.45804859529233 0.135044642857143  5.13458618071374 0  5.90717539863326 0  C 6.46260440394837 0  7.01803340926348 0.112537202380954  7.57346241457859 0.337611607142857  C 7.77809415337889 0.423549107142857  7.9660212604404 0.521763392857143  8.1372437357631 0.632254464285715  C 8.3084662110858 0.742745535714285  8.45671981776765 0.857328869047618  8.58200455580866 0.976004464285715  C 8.70728929384966 1.09468005952381  8.82213363705391 1.23381696428571  8.92653758542141 1.39341517857143  C 9.03094153378892 1.55301339285714  9.11864085041762 1.70442708333333  9.18963553530752 1.84765625  C 9.26063022019742 1.99088541666667  9.32849278663629 2.16378348214286  9.39322323462415 2.36635044642857  C 9.457953682612 2.56891741071429  9.51119969627942 2.75204613095238  9.55296127562642 2.91573660714286  C 9.59472285497342 3.07942708333333  9.64066059225513 3.27994791666667  9.69077448747153 3.51729910714286  L 9.69703872437358 3.54799107142857  C 9.92672741078208 3.88764880952381  10.0415717539863 4.19456845238095  10.0415717539863 4.46875  C 10.0415717539863 4.52604166666667  10.0227790432802 4.6078869047619  9.98519362186788 4.71428571428571  C 9.94760820045558 4.82068452380952  9.92881548974943 4.8984375  9.92881548974943 4.94754464285714  C 9.92881548974943 4.95163690476191  9.93194760820046 4.95879836309524  9.93821184510251 4.96902901785714  C 9.94447608200456 4.97925967261905  9.95178435839028 4.98949032738095  9.96013667425968 4.99972098214286  C 9.96848899012908 5.00995163690476  9.97266514806378 5.01711309523809  9.97266514806378 5.02120535714286  C 10.2942293090357 5.48772321428571  10.5458428246014 5.92661830357143  10.7275056947608 6.337890625  C 10.9091685649203 6.74916294642857  11 7.17578125  11 7.61774553571429  C 11 7.79371279761905  10.9592824601367 7.99832589285714  10.87784738041 8.23158482142857  C 10.7964123006834 8.46484375  10.6805239179954 8.58147321428572  10.5301822323462 8.58147321428572  C 10.4925968109339 8.58147321428572  10.4518792710706 8.56612723214286  10.4080296127563 8.53543526785714  C 10.3641799544419 8.50474330357143  10.3245064540623 8.46893601190476  10.2890091116173 8.42801339285714  C 10.2535117691724 8.38709077380952  10.2138382687927 8.33389136904762  10.1699886104784 8.26841517857143  C 10.126138952164 8.20293898809524  10.0927296886864 8.14871651785714  10.0697608200456 8.10574776785714  C 10.0467919514047 8.06277901785714  10.0186028853455 8.00957961309524  9.98519362186788 7.94614955357143  C 9.95178435839028 7.88271949404762  9.93299164768413 7.84691220238095  9.92881548974943 7.83872767857143  C 9.92463933181473 7.83463541666667  9.91837509491268 7.83258928571429  9.91002277904328 7.83258928571429  L 9.87870159453303 7.85714285714286  C 9.63230827638572 8.48735119047619  9.35668185269552 8.94363839285714  9.05182232346242 9.22600446428572  C 9.13534548215642 9.30784970238095  9.26376233864844 9.38662574404762  9.4370728929385 9.46233258928572  C 9.61038344722855 9.53803943452381  9.7544608959757 9.62295386904762  9.86930523917995 9.71707589285714  C 9.98414958238421 9.81119791666667  10.0582763857251 9.94419642857143  10.0916856492027 10.1160714285714  C 10.0833333333333 10.1324404761905  10.0749810174639 10.1651785714286  10.0666287015945 10.2142857142857  C 10.0582763857251 10.2633928571429  10.0436598329537 10.3002232142857  10.0227790432802 10.3247767857143  C 9.75550493545938 10.7217261904762  9.12490508731967 10.9202008928571  8.13097949886105 10.9202008928571  C 7.90964312832194 10.9202008928571  7.67891040242977 10.9017857142857  7.43878132118451 10.8649553571429  C 7.19865223993926 10.828125  6.99402050113895 10.7872023809524  6.8248861047836 10.7421875  C 6.65575170842825 10.6971726190476  6.43754745634017 10.6357886904762  6.17027334851936 10.5580357142857  C 6.10763097949886 10.5375744047619  6.05960516324981 10.5232514880952  6.02619589977221 10.5150669642857  C 5.96772968868641 10.4986979166667  5.87167805618831 10.489490327381  5.7380410022779 10.4874441964286  C 5.6044039483675 10.4853980654762  5.5208807896735 10.4823288690476  5.4874715261959 10.4782366071429  C 5.3162490508732 10.6623883928571  5.05001898253607 10.7953869047619  4.68878132118451 10.8772321428571  C 4.32754365983295 10.9590773809524  3.97570235383447 11  3.63325740318907 11  C 3.48709187547456 11  3.34301442672741 10.9969308035714  3.20102505694761 10.9907924107143  C 3.05903568716781 10.9846540178571  2.86484434320425 10.9662388392857  2.61845102505695 10.935546875  C 2.37205770690964 10.9048549107143  2.16116173120729 10.8629092261905  1.98576309794989 10.8097098214286  C 1.81036446469248 10.7565104166667  1.65480258162491 10.6746651785714  1.51907744874715 10.5641741071429  C 1.3833523158694 10.4536830357143  1.31548974943052 10.3227306547619  1.31548974943052 10.1713169642857  C 1.31548974943052 10.0076264880952  1.33637053910402 9.88588169642857  1.37813211845103 9.80608258928572  C 1.41989369779803 9.72628348214286  1.50550493545938 9.62704613095238  1.63496583143508 9.50837053571428  C 1.68090356871678 9.50018601190476  1.76547076689446 9.47358630952381  1.88866742596811 9.42857142857143  C 2.01186408504176 9.38355654761905  2.11522399392559 9.35900297619048  2.19874715261959 9.35491071428572  C 2.21545178435839 9.35491071428572  2.24468488990129 9.35081845238095  2.28644646924829 9.34263392857143  C 2.29479878511769 9.33444940476191  2.29897494305239 9.32626488095238  2.29897494305239 9.31808035714286  L 2.28644646924829 9.29966517857143  C 2.08599088838269 9.25465029761905  1.86047835990888 9.03878348214286  1.60990888382688 8.65206473214286  C 1.35933940774487 8.26534598214286  1.20690964312832 7.94512648809524  1.15261958997722 7.69140625  L 1.12129840546697 7.67299107142857  C 1.10459377372817 7.67299107142857  1.07953682611997 7.71391369047619  1.04612756264237 7.79575892857143  C 0.970956719817768 7.96354166666667  0.857156416097191 8.11597842261905  0.704726651480638 8.25306919642857  C 0.552296886864085 8.39015997023809  0.390470766894457 8.46688988095238  0.219248291571754 8.48325892857143  L 0.212984054669704 8.48325892857143  C 0.196279422930904 8.48325892857143  0.183750949126803 8.47405133928572  0.175398633257403 8.45563616071428  C 0.167046317388003 8.43722098214286  0.156605922551253 8.42596726190476  0.144077448747153 8.421875  C 0.0480258162490509 8.20089285714286  0 7.99627976190476  0 7.80803571428571  Z " fill-rule="nonzero" fill="#cccccc" stroke="none" transform="matrix(1 0 0 1 668 236 )" />
  </g>
</svg>