<?xml version="1.0" encoding="utf-8"?>
<svg version="1.1" xmlns:xlink="http://www.w3.org/1999/xlink" width="13px" height="11px" xmlns="http://www.w3.org/2000/svg">
  <g transform="matrix(1 0 0 1 -573 -234 )">
    <path d="M 4.44088120468489 8.79924242424243  C 4.63664249860569 8.73106060606061  4.78769287971742 8.61111111111111  4.89403234802008 8.43939393939394  C 4.99553820412716 8.26767676767677  5.02212307120283 8.09343434343434  4.97378694924707 7.91666666666667  C 4.92545082729132 7.73989898989899  4.81669455289087 7.61363636363636  4.64751812604573 7.53787878787879  C 4.48317531139617 7.46717171717172  4.30674846625767 7.46464646464646  4.11823759063023 7.53030303030303  C 3.92972671500279 7.5959595959596  3.78471834913553 7.71212121212121  3.68321249302844 7.87878787878788  C 3.57687302472579 8.05050505050505  3.54545454545455 8.22348484848485  3.58895705521472 8.39772727272727  C 3.6324595649749 8.5719696969697  3.73638222717977 8.69949494949495  3.90072504182934 8.78030303030303  C 4.0650678564789 8.86111111111111  4.24511991076408 8.86742424242424  4.44088120468489 8.79924242424243  Z M 5.41606246514222 7.66287878787879  C 5.48856664807585 7.63510101010101  5.54173638222718 7.58838383838384  5.57557166759621 7.52272727272727  C 5.61424056516081 7.45707070707071  5.62269938650307 7.39015151515151  5.60094813162298 7.3219696969697  C 5.57919687674289 7.25378787878788  5.5369027700316 7.20707070707071  5.47406581148912 7.18181818181818  C 5.40639524075107 7.15656565656566  5.33751626696412 7.15782828282828  5.26742889012828 7.18560606060606  C 5.19734151329243 7.21338383838384  5.14538018219 7.26010101010101  5.11154489682097 7.32575757575758  C 5.02937348949619 7.48232323232323  5.06079196876743 7.5959595959596  5.20580033463469 7.66666666666667  C 5.27347090537275 7.69191919191919  5.34355828220859 7.69065656565656  5.41606246514222 7.66287878787879  Z M 6.81901840490798 6.89015151515151  C 7.04861498419781 7.34722222222222  7.05465699944228 7.82828282828283  6.83714445064138 8.33333333333333  C 6.61963190184049 8.84848484848485  6.23777653839004 9.22727272727273  5.69157836029002 9.46969696969697  C 5.14538018219 9.71212121212121  4.60401561628556 9.74242424242424  4.06748466257669 9.56060606060606  C 3.55028815765012 9.38888888888889  3.19380925822644 9.06944444444444  2.99804796430563 8.60227272727273  C 2.80228667038483 8.13510101010101  2.81799591002045 7.66161616161616  3.04517568321249 7.18181818181818  C 3.27235545640454 6.71212121212121  3.63850158021937 6.36111111111111  4.143614054657 6.12878787878788  C 4.64872652909463 5.89646464646465  5.15746421267894 5.84848484848485  5.66982710540993 5.98484848484848  C 6.2063580591188 6.13131313131313  6.58942182561814 6.43308080808081  6.81901840490798 6.89015151515151  Z M 8.13859453430006 9.125  C 8.84671872095185 8.52651515151515  9.16694552890872 7.85858585858586  9.09927495817066 7.12121212121212  C 9.05577244841048 6.63636363636364  8.84067670570738 6.20707070707071  8.45398773006135 5.83333333333333  C 8.06729875441532 5.45959595959596  7.56339468302659 5.18434343434343  6.94227551589515 5.00757575757576  C 6.32115634876371 4.83080808080808  5.65774307492099 4.77777777777778  4.95203569436698 4.84848484848485  C 3.87414017475367 4.96464646464646  2.98113032162112 5.3219696969697  2.27300613496933 5.92045454545454  C 1.56488194831753 6.51893939393939  1.24465514036066 7.18686868686869  1.31232571109872 7.92424242424242  C 1.3558282208589 8.40909090909091  1.570923963562 8.83838383838384  1.95761293920803 9.21212121212121  C 2.34430191485406 9.58585858585858  2.8482059862428 9.86111111111111  3.46932515337423 10.0378787878788  C 4.09044432050567 10.2146464646465  4.75385759434839 10.2676767676768  5.4595649749024 10.1969696969697  C 6.53746049451571 10.0808080808081  7.43047034764826 9.72348484848485  8.13859453430006 9.125  Z M 11.0858895705521 6.26893939393939  C 11.2502323852017 6.53409090909091  11.3324037925265 6.82828282828283  11.3324037925265 7.15151515151515  C 11.3324037925265 7.49494949494949  11.2429819669083 7.84722222222222  11.0641383156721 8.20833333333333  C 10.8852946644358 8.56944444444444  10.6218627997769 8.91540404040404  10.2738427216955 9.24621212121212  C 9.92582264361405 9.5770202020202  9.51859081613683 9.87373737373737  9.0521472392638 10.1363636363636  C 8.58570366239078 10.3989898989899  8.03950548429076 10.6085858585859  7.41355270496375 10.7651515151515  C 6.78759992563674 10.9217171717172  6.13385387618516 11  5.45231455660904 11  C 4.77077523703291 11  4.10615356014129 10.915404040404  3.45844952593419 10.7462121212121  C 2.81074549172709 10.5770202020202  2.22950362520915 10.3421717171717  1.71472392638037 10.0416666666667  C 1.19994422755159 9.74116161616162  0.785461981781 9.35984848484849  0.4712771890686 8.89772727272727  C 0.1570923963562 8.43560606060606  0 7.93181818181818  0 7.38636363636364  C 0 6.80555555555555  0.167968023796245 6.18686868686869  0.503904071388734 5.53030303030303  C 0.839840118981223 4.87373737373737  1.31715932329429 4.22222222222222  1.93586168432794 3.57575757575758  C 2.75274214538018 2.72222222222222  3.57808142777468 2.12626262626262  4.41187953151143 1.78787878787879  C 5.24567763524819 1.44949494949495  5.84142033835285 1.46717171717172  6.19910764082543 1.84090909090909  C 6.51329243353783 2.16414141414141  6.56162855549359 2.69191919191919  6.34411600669269 3.42424242424242  C 6.32478155791039 3.49494949494949  6.3223647518126 3.54545454545454  6.33686558839933 3.57575757575758  C 6.35136642498606 3.6060606060606  6.37553448596393 3.62373737373737  6.40936977133296 3.62878787878788  C 6.44320505670199 3.63383838383838  6.47824874511991 3.63257575757576  6.51450083658673 3.625  C 6.55075292805354 3.61742424242424  6.58337981037368 3.60858585858586  6.61238148354713 3.59848484848485  L 6.65588399330731 3.58333333333333  C 7.32775608849229 3.28535353535354  7.92229038854806 3.13636363636364  8.43948689347462 3.13636363636364  C 8.95668339840119 3.13636363636364  9.32645473136271 3.29040404040404  9.54880089235917 3.59848484848485  C 9.76631344116007 3.91666666666667  9.76631344116007 4.36616161616162  9.54880089235917 4.9469696969697  C 9.53913366796802 5.01262626262626  9.52825804052798 5.06313131313131  9.51617401003904 5.09848484848485  C 9.5040899795501 5.13383838383838  9.51496560699015 5.16540404040404  9.54880089235917 5.19318181818182  C 9.5826361777282 5.2209595959596  9.61163785090165 5.23989898989899  9.63580591187953 5.25  C 9.65997397285741 5.26010101010101  9.7010596765198 5.27525252525252  9.7590630228667 5.29545454545455  C 10.0345789180145 5.38636363636364  10.2835099460866 5.5050505050505  10.5058561070831 5.65151515151515  C 10.7282022680796 5.7979797979798  10.9215467559026 6.00378787878788  11.0858895705521 6.26893939393939  Z M 10.063580591188 1.9280303030303  C 10.3487637107269 2.02146464646465  10.5928611266035 2.18686868686869  10.7958728388176 2.42424242424242  C 10.9988845510318 2.66161616161616  11.1306004833612 2.93560606060606  11.1910206358059 3.24621212121212  C 11.2514407882506 3.55681818181818  11.235731548615 3.85353535353535  11.1438929168991 4.13636363636364  C 11.1052240193344 4.25252525252525  11.0339282394497 4.33838383838384  10.9300055772448 4.39393939393939  C 10.82608291504 4.44949494949495  10.7185350436884 4.45959595959596  10.6073619631902 4.42424242424242  C 10.496188882692 4.38383838383838  10.4140174753672 4.30934343434343  10.3608477412158 4.20075757575758  C 10.3076780070645 4.09217171717172  10.2980107826734 3.97979797979798  10.3318460680424 3.86363636363636  C 10.4285183119539 3.54545454545455  10.370514965607 3.26515151515152  10.1578360290017 3.02272727272727  C 9.94515709239636 2.78030303030303  9.68655883993307 2.69191919191919  9.38204127161182 2.75757575757576  C 9.26603457891802 2.78282828282828  9.15727830451757 2.76262626262626  9.05577244841048 2.6969696969697  C 8.9542665923034 2.63131313131313  8.89384643985871 2.53787878787879  8.87451199107641 2.41666666666667  C 8.85034393009853 2.29545454545455  8.86967837888083 2.18308080808081  8.93251533742331 2.07954545454545  C 8.99535229596579 1.9760101010101  9.08477412158394 1.91161616161616  9.20078081427775 1.88636363636364  C 9.49079754601227 1.82070707070707  9.77839747164901 1.83459595959596  10.063580591188 1.9280303030303  Z M 10.6001115448968 0.170454545454545  C 11.1849786205614 0.359848484848485  11.6876742889013 0.699494949494949  12.1081985499163 1.18939393939394  C 12.5287228109314 1.67424242424242  12.8006134969325 2.23611111111111  12.9238706079197 2.875  C 13.0471277189069 3.51388888888889  13.0145008365867 4.12373737373737  12.8259899609593 4.70454545454545  C 12.7824874511991 4.84090909090909  12.7003160438743 4.94191919191919  12.5794757389849 5.00757575757576  C 12.4586354340956 5.07323232323232  12.3329615170106 5.08333333333333  12.2024539877301 5.03787878787879  C 12.0719464584495 4.99242424242424  11.975274214538 4.90656565656566  11.9124372559955 4.78030303030303  C 11.8496002974531 4.6540404040404  11.8375162669641 4.52272727272727  11.8761851645287 4.38636363636364  C 12.0115263060048 3.97222222222222  12.0356943669827 3.53787878787879  11.9486893474624 3.08333333333333  C 11.861684327942 2.62878787878788  11.668339840119 2.22979797979798  11.3686558839933 1.88636363636364  C 11.0689719278676 1.53787878787879  10.7112846253951 1.29671717171717  10.2955939765756 1.16287878787879  C 9.87990332775609 1.0290404040404  9.46179587283882 1.00757575757576  9.04127161182376 1.09848484848485  C 8.90593047034765 1.12878787878788  8.78025655326269 1.10479797979798  8.66424986056888 1.02651515151515  C 8.54824316787507 0.948232323232322  8.47573898494144 0.838383838383837  8.44673731176799 0.696969696969697  C 8.41773563859453 0.555555555555555  8.44069529652352 0.425505050505049  8.51561628555494 0.306818181818182  C 8.59053727458636 0.188131313131313  8.69566833984012 0.113636363636364  8.83100948131623 0.0833333333333333  C 9.425543781372 -0.0479797979797998  10.0152444692322 -0.0189393939393934  10.6001115448968 0.170454545454545  Z " fill-rule="nonzero" fill="#cccccc" stroke="none" transform="matrix(1 0 0 1 573 234 )" />
  </g>
</svg>