<?xml version="1.0" encoding="utf-8"?>
<svg version="1.1" xmlns:xlink="http://www.w3.org/1999/xlink" width="9px" height="9px" xmlns="http://www.w3.org/2000/svg">
  <g transform="matrix(1 0 0 1 -576 -339 )">
    <path d="M 2.42307692307692 6.75  C 2.42307692307692 6.796875  2.40685096153846 6.83834134615385  2.37439903846154 6.87439903846154  L 0.989783653846154 8.25901442307692  C 0.953725961538462 8.29146634615385  0.912259615384616 8.30769230769231  0.865384615384615 8.30769230769231  C 0.822115384615385 8.30769230769231  0.780649038461539 8.29146634615385  0.740985576923077 8.25901442307692  C 0.708533653846154 8.22295673076923  0.692307692307692 8.18149038461539  0.692307692307692 8.13461538461539  C 0.692307692307692 8.08774038461539  0.708533653846154 8.04627403846154  0.740985576923077 8.01021634615385  L 2.12560096153846 6.62560096153846  C 2.16165865384615 6.59314903846154  2.203125 6.57692307692308  2.25 6.57692307692308  C 2.296875 6.57692307692308  2.33834134615385 6.59314903846154  2.37439903846154 6.62560096153846  C 2.40685096153846 6.66165865384615  2.42307692307692 6.703125  2.42307692307692 6.75  Z M 3.23978365384615 6.97175480769231  C 3.27223557692308 7.00420673076923  3.28846153846154 7.04567307692308  3.28846153846154 7.09615384615385  L 3.28846153846154 8.82692307692308  C 3.28846153846154 8.87740384615385  3.27223557692308 8.91887019230769  3.23978365384615 8.95132211538461  C 3.20733173076923 8.98377403846154  3.16586538461539 9  3.11538461538462 9  C 3.06490384615385 9  3.0234375 8.98377403846154  2.99098557692308 8.95132211538461  C 2.95853365384615 8.91887019230769  2.94230769230769 8.87740384615385  2.94230769230769 8.82692307692308  L 2.94230769230769 7.09615384615385  C 2.94230769230769 7.04567307692308  2.95853365384615 7.00420673076923  2.99098557692308 6.97175480769231  C 3.0234375 6.93930288461539  3.06490384615385 6.92307692307692  3.11538461538462 6.92307692307692  C 3.16586538461539 6.92307692307692  3.20733173076923 6.93930288461539  3.23978365384615 6.97175480769231  Z M 2.02824519230769 5.76021634615385  C 2.06069711538462 5.79266826923077  2.07692307692308 5.83413461538462  2.07692307692308 5.88461538461539  C 2.07692307692308 5.93509615384615  2.06069711538462 5.9765625  2.02824519230769 6.00901442307692  C 1.99579326923077 6.04146634615385  1.95432692307692 6.05769230769231  1.90384615384615 6.05769230769231  L 0.173076923076923 6.05769230769231  C 0.122596153846154 6.05769230769231  0.0811298076923077 6.04146634615385  0.0486778846153846 6.00901442307692  C 0.0162259615384615 5.9765625  0 5.93509615384615  0 5.88461538461539  C 0 5.83413461538462  0.0162259615384615 5.79266826923077  0.0486778846153846 5.76021634615385  C 0.0811298076923077 5.72776442307692  0.122596153846154 5.71153846153846  0.173076923076923 5.71153846153846  L 1.90384615384615 5.71153846153846  C 1.95432692307692 5.71153846153846  1.99579326923077 5.72776442307692  2.02824519230769 5.76021634615385  Z M 8.45913461538461 5.47355769230769  C 8.76201923076923 5.78365384615385  8.91346153846154 6.15144230769231  8.91346153846154 6.57692307692308  C 8.91346153846154 7.00961538461539  8.76021634615385 7.37560096153846  8.45372596153846 7.67487980769231  L 7.65865384615385 8.46454326923077  C 7.359375 8.76382211538461  6.99338942307692 8.91346153846154  6.56069711538461 8.91346153846154  C 6.12439903846154 8.91346153846154  5.75661057692308 8.76021634615385  5.45733173076923 8.45372596153846  L 3.65084134615385 6.64182692307692  C 3.57512019230769 6.56610576923077  3.49939903846154 6.46514423076923  3.42367788461538 6.33894230769231  L 4.71634615384615 6.24158653846154  L 6.19290865384615 7.72355769230769  C 6.29026442307692 7.82091346153846  6.41286057692308 7.87049278846154  6.56069711538461 7.87229567307692  C 6.70853365384616 7.87409855769231  6.83112980769231 7.82632211538461  6.92848557692308 7.72896634615385  L 7.72355769230769 6.93930288461539  C 7.82451923076923 6.83834134615385  7.875 6.71754807692308  7.875 6.57692307692308  C 7.875 6.43269230769231  7.82451923076923 6.31009615384615  7.72355769230769 6.20913461538461  L 6.24158653846154 4.72175480769231  L 6.33894230769231 3.42908653846154  C 6.46514423076923 3.50480769230769  6.56610576923077 3.58052884615385  6.64182692307692 3.65625  L 8.45913461538461 5.47355769230769  Z M 5.34915865384615 2.35817307692308  C 5.42487980769231 2.43389423076923  5.50060096153846 2.53485576923077  5.57632211538461 2.66105769230769  L 4.28365384615385 2.75841346153846  L 2.80709134615385 1.27644230769231  C 2.70612980769231 1.17548076923077  2.58353365384615 1.125  2.43930288461538 1.125  C 2.29867788461538 1.125  2.17608173076923 1.17367788461538  2.07151442307692 1.27103365384615  L 1.27644230769231 2.06069711538462  C 1.17548076923077 2.16165865384615  1.125 2.28245192307692  1.125 2.42307692307692  C 1.125 2.56730769230769  1.17548076923077 2.68990384615385  1.27644230769231 2.79086538461538  L 2.75841346153846 4.27283653846154  L 2.66105769230769 5.57091346153846  C 2.53485576923077 5.49519230769231  2.43389423076923 5.41947115384615  2.35817307692308 5.34375  L 0.540865384615385 3.52644230769231  C 0.237980769230769 3.21634615384615  0.0865384615384615 2.84855769230769  0.0865384615384615 2.42307692307692  C 0.0865384615384615 1.99038461538462  0.239783653846154 1.62439903846154  0.546274038461538 1.32512019230769  L 1.34134615384615 0.535456730769231  C 1.640625 0.236177884615384  2.00661057692308 0.0865384615384612  2.43930288461538 0.0865384615384612  C 2.87560096153846 0.0865384615384612  3.24338942307692 0.239783653846154  3.54266826923077 0.546274038461539  L 5.34915865384615 2.35817307692308  Z M 8.95132211538461 2.99098557692308  C 8.98377403846154 3.0234375  9 3.06490384615385  9 3.11538461538462  C 9 3.16586538461538  8.98377403846154 3.20733173076923  8.95132211538461 3.23978365384615  C 8.91887019230769 3.27223557692308  8.87740384615385 3.28846153846154  8.82692307692308 3.28846153846154  L 7.09615384615385 3.28846153846154  C 7.04567307692308 3.28846153846154  7.00420673076923 3.27223557692308  6.97175480769231 3.23978365384615  C 6.93930288461539 3.20733173076923  6.92307692307692 3.16586538461538  6.92307692307692 3.11538461538462  C 6.92307692307692 3.06490384615385  6.93930288461539 3.0234375  6.97175480769231 2.99098557692308  C 7.00420673076923 2.95853365384615  7.04567307692308 2.94230769230769  7.09615384615385 2.94230769230769  L 8.82692307692308 2.94230769230769  C 8.87740384615385 2.94230769230769  8.91887019230769 2.95853365384615  8.95132211538461 2.99098557692308  Z M 6.00901442307692 0.0486778846153847  C 6.04146634615385 0.0811298076923082  6.05769230769231 0.122596153846153  6.05769230769231 0.173076923076923  L 6.05769230769231 1.90384615384615  C 6.05769230769231 1.95432692307692  6.04146634615385 1.99579326923077  6.00901442307692 2.02824519230769  C 5.9765625 2.06069711538462  5.93509615384616 2.07692307692308  5.88461538461539 2.07692307692308  C 5.83413461538462 2.07692307692308  5.79266826923077 2.06069711538462  5.76021634615385 2.02824519230769  C 5.72776442307692 1.99579326923077  5.71153846153846 1.95432692307692  5.71153846153846 1.90384615384615  L 5.71153846153846 0.173076923076923  C 5.71153846153846 0.122596153846153  5.72776442307692 0.0811298076923082  5.76021634615385 0.0486778846153847  C 5.79266826923077 0.0162259615384612  5.83413461538462 0  5.88461538461539 0  C 5.93509615384616 0  5.9765625 0.0162259615384612  6.00901442307692 0.0486778846153847  Z M 8.30769230769231 0.865384615384615  C 8.30769230769231 0.912259615384615  8.29146634615385 0.953725961538461  8.25901442307692 0.989783653846154  L 6.87439903846154 2.37439903846154  C 6.83473557692308 2.40685096153846  6.79326923076923 2.42307692307692  6.75 2.42307692307692  C 6.70673076923077 2.42307692307692  6.66526442307692 2.40685096153846  6.62560096153846 2.37439903846154  C 6.59314903846154 2.33834134615385  6.57692307692308 2.296875  6.57692307692308 2.25  C 6.57692307692308 2.203125  6.59314903846154 2.16165865384615  6.62560096153846 2.12560096153846  L 8.01021634615385 0.740985576923077  C 8.04627403846154 0.708533653846154  8.08774038461539 0.692307692307692  8.13461538461539 0.692307692307692  C 8.18149038461539 0.692307692307692  8.22295673076923 0.708533653846154  8.25901442307692 0.740985576923077  C 8.29146634615385 0.777043269230769  8.30769230769231 0.818509615384615  8.30769230769231 0.865384615384615  Z " fill-rule="nonzero" fill="#cccccc" stroke="none" transform="matrix(1 0 0 1 576 339 )" />
  </g>
</svg>