<?xml version="1.0" encoding="utf-8"?>
<svg version="1.1" xmlns:xlink="http://www.w3.org/1999/xlink" width="13px" height="13px" xmlns="http://www.w3.org/2000/svg">
  <g transform="matrix(1 0 0 1 -573 -283 )">
    <path d="M 12.5625 4.66099558916194  C 12.8541666666667 4.71014492753623  13 4.83574879227053  13 5.03780718336484  C 13 5.15795001050199  12.9322916666667 5.28901491283344  12.796875 5.43100189035917  L 9.9609375 8.33081285444234  L 10.6328125 12.4265910522999  C 10.6380208333333 12.4648183154799  10.640625 12.5194286914514  10.640625 12.5904221802142  C 10.640625 12.7051039697543  10.61328125 12.8020373871035  10.55859375 12.8812224322621  C 10.50390625 12.9604074774207  10.4244791666667 13  10.3203125 13  C 10.2213541666667 13  10.1171875 12.9672337744171  10.0078125 12.9017013232514  L 6.5 10.9684940138626  L 2.9921875 12.9017013232514  C 2.87760416666667 12.9672337744171  2.7734375 13  2.6796875 13  C 2.5703125 13  2.48828125 12.9604074774207  2.43359375 12.8812224322621  C 2.37890625 12.8020373871035  2.3515625 12.7051039697543  2.3515625 12.5904221802142  C 2.3515625 12.5576559546314  2.35677083333333 12.5030455786599  2.3671875 12.4265910522999  L 3.0390625 8.33081285444234  L 0.1953125 5.43100189035917  C 0.0651041666666667 5.28355387523629  0 5.15248897290485  0 5.03780718336484  C 0 4.83574879227053  0.145833333333333 4.71014492753623  0.4375 4.66099558916194  L 4.359375 4.06301197227473  L 6.1171875 0.335853812224322  C 6.21614583333333 0.11195127074144  6.34375 0  6.5 0  C 6.65625 0  6.78385416666667 0.11195127074144  6.8828125 0.335853812224322  L 8.640625 4.06301197227473  L 12.5625 4.66099558916194  Z " fill-rule="nonzero" fill="#cccccc" stroke="none" transform="matrix(1 0 0 1 573 283 )" />
  </g>
</svg>