<?xml version="1.0" encoding="utf-8"?>
<svg version="1.1" xmlns:xlink="http://www.w3.org/1999/xlink" width="211px" height="249px" xmlns="http://www.w3.org/2000/svg">
  <defs>
    <mask fill="white" id="clip156">
      <path d="M 0 239  L 0 0  L 211 0  L 211 239  L 200.566879564345 239  L 191.846494464945 248.68679245283  L 181.257700203453 239  L 0 239  Z " fill-rule="evenodd" />
    </mask>
  </defs>
  <g transform="matrix(1 0 0 1 -296 -478 )">
    <path d="M 0 239  L 0 0  L 211 0  L 211 239  L 200.566879564345 239  L 191.846494464945 248.68679245283  L 181.257700203453 239  L 0 239  Z " fill-rule="nonzero" fill="#ffffff" stroke="none" transform="matrix(1 0 0 1 296 478 )" />
    <path d="M 0 239  L 0 0  L 211 0  L 211 239  L 200.566879564345 239  L 191.846494464945 248.68679245283  L 181.257700203453 239  L 0 239  Z " stroke-width="2" stroke="#cccccc" fill="none" transform="matrix(1 0 0 1 296 478 )" mask="url(#clip156)" />
  </g>
</svg>