<?xml version="1.0" encoding="utf-8"?>
<svg version="1.1" xmlns:xlink="http://www.w3.org/1999/xlink" width="211px" height="204px" xmlns="http://www.w3.org/2000/svg">
  <g transform="matrix(1 0 0 1 -296 -478 )">
    <path d="M 296 478  L 507 478  L 507 682  L 296 682  L 296 478  " fill-rule="nonzero" fill="#cccccc" stroke="none" />
    <path d="M 310 492  L 493 492  L 493 668  L 310 668  L 310 492  " fill-rule="nonzero" fill="#ffffff" stroke="none" />
    <path d="M 421.02 539.2  C 412.452 539.2  405.72 532.468  405.72 523.9  C 405.72 515.332  412.452 508.6  421.02 508.6  C 429.588 508.6  436.32 515.332  436.32 523.9  C 436.32 532.468  429.588 539.2  421.02 539.2  " fill-rule="nonzero" fill="#cccccc" stroke="none" />
    <path d="M 315 663  L 315 571.7  L 358.25 530.2  L 418.8 566.704265402844  L 453.4 555.1  L 488 566.704265402844  L 488 663  L 315 663  " fill-rule="nonzero" fill="#169bd5" stroke="none" />
  </g>
</svg>