<?xml version="1.0" encoding="utf-8"?>
<svg version="1.1" xmlns:xlink="http://www.w3.org/1999/xlink" width="11px" height="11px" xmlns="http://www.w3.org/2000/svg">
  <g transform="matrix(1 0 0 1 -371 -550 )">
    <path d="M 10.6073619631902 0  C 10.6891615541922 0  10.7627811860941 0.0225074404761915  10.8282208588957 0.067522321428572  C 10.9631901840491 0.165736607142857  11.0184049079755 0.296688988095238  10.9938650306748 0.460379464285715  L 9.42331288343558 9.88895089285714  C 9.40286298568507 10.0076264880952  9.33742331288344 10.0997023809524  9.22699386503067 10.1651785714286  C 9.16973415132924 10.1979166666667  9.10633946830266 10.2142857142857  9.03680981595092 10.2142857142857  C 8.9918200408998 10.2142857142857  8.94274028629857 10.2040550595238  8.88957055214724 10.18359375  L 6.11042944785276 9.04799107142857  L 4.62576687116564 10.8588169642857  C 4.5521472392638 10.9529389880952  4.4519427402863 11  4.32515337423313 11  C 4.2719836400818 11  4.22699386503067 10.9918154761905  4.19018404907975 10.9754464285714  C 4.11247443762781 10.9468005952381  4.05010224948875 10.8987165178571  4.00306748466258 10.8311941964286  C 3.9560327198364 10.763671875  3.93251533742331 10.6889880952381  3.93251533742331 10.6071428571429  L 3.93251533742331 8.46484375  L 9.23312883435583 1.96428571428571  L 2.67484662576687 7.64229910714286  L 0.251533742331288 6.64787946428571  C 0.100204498977505 6.59058779761905  0.0184049079754601 6.47805059523809  0.00613496932515337 6.31026785714286  C -0.00204498977505113 6.14657738095238  0.0633946830265849 6.02585565476191  0.202453987730061 5.94810267857143  L 10.4110429447853 0.0552455357142854  C 10.4723926380368 0.018415178571428  10.5378323108384 0  10.6073619631902 0  Z " fill-rule="nonzero" fill="#cccccc" stroke="none" transform="matrix(1 0 0 1 371 550 )" />
  </g>
</svg>