<?xml version="1.0" encoding="utf-8"?>
<svg version="1.1" xmlns:xlink="http://www.w3.org/1999/xlink" width="66px" height="65px" xmlns="http://www.w3.org/2000/svg">
  <g transform="matrix(1 0 0 1 -549 -388 )">
    <path d="M 582 388  C 600.48 388  615 402.3  615 420.5  C 615 438.7  600.48 453  582 453  C 563.52 453  549 438.7  549 420.5  C 549 402.3  563.52 388  582 388  Z " fill-rule="nonzero" fill="#ffffff" stroke="none" />
    <path d="M 582 388.5  C 600.2 388.5  614.5 402.58  614.5 420.5  C 614.5 438.42  600.2 452.5  582 452.5  C 563.8 452.5  549.5 438.42  549.5 420.5  C 549.5 402.58  563.8 388.5  582 388.5  Z " stroke-width="1" stroke="#bcbcbc" fill="none" />
  </g>
</svg>