<?xml version="1.0" encoding="utf-8"?>
<svg version="1.1" xmlns:xlink="http://www.w3.org/1999/xlink" width="270px" height="89px" xmlns="http://www.w3.org/2000/svg">
  <g transform="matrix(1 0 0 1 -1435 -483 )">
    <path d="M 1436 487  A 3 3 0 0 1 1439 484 L 1701 484  A 3 3 0 0 1 1704 487 L 1704 568  A 3 3 0 0 1 1701 571 L 1439 571  A 3 3 0 0 1 1436 568 L 1436 487  Z " fill-rule="nonzero" fill="#ff3399" stroke="none" fill-opacity="0.0980392156862745" />
    <path d="M 1435.5 487  A 3.5 3.5 0 0 1 1439 483.5 L 1701 483.5  A 3.5 3.5 0 0 1 1704.5 487 L 1704.5 568  A 3.5 3.5 0 0 1 1701 571.5 L 1439 571.5  A 3.5 3.5 0 0 1 1435.5 568 L 1435.5 487  Z " stroke-width="1" stroke-dasharray="9,4" stroke="#ff3399" fill="none" stroke-dashoffset="0.5" />
  </g>
</svg>