<?xml version="1.0" encoding="utf-8"?>
<svg version="1.1" xmlns:xlink="http://www.w3.org/1999/xlink" width="13px" height="13px" xmlns="http://www.w3.org/2000/svg">
  <g transform="matrix(1 0 0 1 -920 -537 )">
    <path d="M 926.5 537  C 930.14 537  933 539.86  933 543.5  C 933 547.14  930.14 550  926.5 550  C 922.86 550  920 547.14  920 543.5  C 920 539.86  922.86 537  926.5 537  Z " fill-rule="nonzero" fill="#ffffff" stroke="none" />
    <path d="M 926.5 537.5  C 929.86 537.5  932.5 540.14  932.5 543.5  C 932.5 546.86  929.86 549.5  926.5 549.5  C 923.14 549.5  920.5 546.86  920.5 543.5  C 920.5 540.14  923.14 537.5  926.5 537.5  Z " stroke-width="1" stroke="#797979" fill="none" />
  </g>
</svg>