<?xml version="1.0" encoding="utf-8"?>
<svg version="1.1" xmlns:xlink="http://www.w3.org/1999/xlink" width="26px" height="26px" xmlns="http://www.w3.org/2000/svg">
  <g transform="matrix(1 0 0 1 -885 -1134 )">
    <path d="M 21.4296875 11.01953125  C 21.6328125 10.81640625  21.734375 10.5625  21.734375 10.2578125  C 21.734375 9.94184027777778  21.6328125 9.68229166666667  21.4296875 9.47916666666667  L 19.8893229166667 7.95572916666667  C 19.6749131944444 7.74131944444444  19.4210069444444 7.63411458333333  19.1276041666667 7.63411458333333  C 18.8342013888889 7.63411458333333  18.5802951388889 7.74131944444444  18.3658854166667 7.95572916666667  L 11.4596354166667 14.8450520833333  L 7.63411458333333 11.01953125  C 7.41970486111111 10.8051215277778  7.16579861111111 10.6979166666667  6.87239583333333 10.6979166666667  C 6.57899305555556 10.6979166666667  6.32508680555556 10.8051215277778  6.11067708333333 11.01953125  L 4.5703125 12.54296875  C 4.3671875 12.74609375  4.265625 13.0056423611111  4.265625 13.3216145833333  C 4.265625 13.6263020833333  4.3671875 13.8802083333333  4.5703125 14.0833333333333  L 10.6979166666667 20.2109375  C 10.9123263888889 20.4253472222222  11.1662326388889 20.5325520833333  11.4596354166667 20.5325520833333  C 11.7643229166667 20.5325520833333  12.0238715277778 20.4253472222222  12.23828125 20.2109375  L 21.4296875 11.01953125  Z M 24.2565104166667 6.474609375  C 25.4188368055556 8.46636284722222  26 10.6414930555556  26 13  C 26 15.3585069444444  25.4188368055556 17.5336371527778  24.2565104166667 19.525390625  C 23.0941840277778 21.5171440972222  21.5171440972222 23.0941840277778  19.525390625 24.2565104166667  C 17.5336371527778 25.4188368055556  15.3585069444444 26  13 26  C 10.6414930555556 26  8.46636284722222 25.4188368055556  6.474609375 24.2565104166667  C 4.48285590277778 23.0941840277778  2.90581597222222 21.5171440972222  1.74348958333333 19.525390625  C 0.581163194444444 17.5336371527778  0 15.3585069444444  0 13  C 0 10.6414930555556  0.581163194444444 8.46636284722222  1.74348958333333 6.474609375  C 2.90581597222222 4.48285590277778  4.48285590277778 2.90581597222222  6.474609375 1.74348958333333  C 8.46636284722222 0.581163194444442  10.6414930555556 0  13 0  C 15.3585069444444 0  17.5336371527778 0.581163194444442  19.525390625 1.74348958333333  C 21.5171440972222 2.90581597222222  23.0941840277778 4.48285590277778  24.2565104166667 6.474609375  Z " fill-rule="nonzero" fill="#7f7f7f" stroke="none" transform="matrix(1 0 0 1 885 1134 )" />
  </g>
</svg>