<?xml version="1.0" encoding="utf-8"?>
<svg version="1.1" xmlns:xlink="http://www.w3.org/1999/xlink" width="173px" height="61px" xmlns="http://www.w3.org/2000/svg">
  <g transform="matrix(1 0 0 1 -1389 -148 )">
    <path d="M 1390 152  A 3 3 0 0 1 1393 149 L 1558 149  A 3 3 0 0 1 1561 152 L 1561 205  A 3 3 0 0 1 1558 208 L 1393 208  A 3 3 0 0 1 1390 205 L 1390 152  Z " fill-rule="nonzero" fill="#ff3399" stroke="none" fill-opacity="0.0980392156862745" />
    <path d="M 1389.5 152  A 3.5 3.5 0 0 1 1393 148.5 L 1558 148.5  A 3.5 3.5 0 0 1 1561.5 152 L 1561.5 205  A 3.5 3.5 0 0 1 1558 208.5 L 1393 208.5  A 3.5 3.5 0 0 1 1389.5 205 L 1389.5 152  Z " stroke-width="1" stroke-dasharray="9,4" stroke="#ff3399" fill="none" stroke-dashoffset="0.5" />
  </g>
</svg>