<?xml version="1.0" encoding="utf-8"?>
<svg version="1.1" xmlns:xlink="http://www.w3.org/1999/xlink" width="40px" height="39px" xmlns="http://www.w3.org/2000/svg">
  <g transform="matrix(1 0 0 1 -1121 -320 )">
    <path d="M 37.3177083333333 9.95163442294863  C 39.1059027777778 13.0130086724483  40 16.3562374916611  40 19.9813208805871  C 40 24.3348899266177  38.7282986111111 28.2505003335557  36.1848958333333 31.7281521014009  C 33.6414930555556 35.2058038692462  30.3559027777778 37.6124082721815  26.328125 38.9479653102068  C 25.859375 39.0346897931955  25.5164930555556 38.9739826551034  25.2994791666667 38.7658438959306  C 25.0824652777778 38.5577051367578  24.9739583333333 38.2975316877919  24.9739583333333 37.9853235490327  L 24.9739583333333 32.4956637758506  C 24.9739583333333 30.8132088058706  24.5225694444444 29.5817211474316  23.6197916666667 28.8012008005337  C 24.609375 28.6971314209473  25.4991319444444 28.5410273515677  26.2890625 28.3328885923949  C 27.0789930555556 28.1247498332222  27.8949652777778 27.7865243495664  28.7369791666667 27.3182121414276  C 29.5789930555556 26.8498999332889  30.2821180555556 26.2731821214143  30.8463541666667 25.5880587058039  C 31.4105902777778 24.9029352901935  31.8706597222222 23.9923282188125  32.2265625 22.8562374916611  C 32.5824652777778 21.7201467645097  32.7604166666667 20.4149432955303  32.7604166666667 18.9406270847232  C 32.7604166666667 16.8418945963976  32.0746527777778 15.0553702468312  30.703125 13.581054036024  C 31.3454861111111 12.0026684456304  31.2760416666667 10.2334889926618  30.4947916666667 8.27351567711808  C 30.0086805555556 8.11741160773849  29.3055555555556 8.21280853902601  28.3854166666667 8.55970647098066  C 27.4652777777778 8.90660440293529  26.6666666666667 9.28819212808539  25.9895833333333 9.70446964643095  L 25 10.3288859239493  C 23.3854166666667 9.87791861240827  21.71875 9.65243495663776  20 9.65243495663776  C 18.28125 9.65243495663776  16.6145833333333 9.87791861240827  15 10.3288859239493  C 14.7222222222222 10.1380920613742  14.3532986111111 9.90393595730487  13.8932291666667 9.62641761174116  C 13.4331597222222 9.34889926617745  12.7083333333333 9.01501000667112  11.71875 8.62474983322215  C 10.7291666666667 8.23448965977318  9.98263888888889 8.11741160773849  9.47916666666667 8.27351567711808  C 8.71527777777778 10.2334889926618  8.65451388888889 12.0026684456304  9.296875 13.581054036024  C 7.92534722222222 15.0553702468312  7.23958333333333 16.8418945963976  7.23958333333333 18.9406270847232  C 7.23958333333333 20.4149432955303  7.41753472222222 21.7158105403602  7.7734375 22.8432288192128  C 8.12934027777778 23.9706470980654  8.58506944444444 24.8812541694463  9.140625 25.5750500333556  C 9.69618055555556 26.2688458972648  10.3949652777778 26.8498999332889  11.2369791666667 27.3182121414276  C 12.0789930555556 27.7865243495664  12.8949652777778 28.1247498332222  13.6848958333333 28.3328885923949  C 14.4748263888889 28.5410273515677  15.3645833333333 28.6971314209473  16.3541666666667 28.8012008005337  C 15.6597222222222 29.425617078052  15.234375 30.3188792528352  15.078125 31.4809873248833  C 14.7135416666667 31.6544362908606  14.3229166666667 31.7845230153436  13.90625 31.8712474983322  C 13.4895833333333 31.9579719813209  12.9947916666667 32.0013342228152  12.421875 32.0013342228152  C 11.8489583333333 32.0013342228152  11.2803819444444 31.8148765843896  10.7161458333333 31.4419613075384  C 10.1519097222222 31.0690460306871  9.67013888888889 30.527018012008  9.27083333333333 29.815877251501  C 8.94097222222222 29.2608405603736  8.51996527777778 28.8098732488326  8.0078125 28.4629753168779  C 7.49565972222222 28.1160773849233  7.06597222222222 27.9079386257505  6.71875 27.8385590393596  L 6.19791666666667 27.7605070046698  C 5.83333333333333 27.7605070046698  5.58159722222222 27.7995330220147  5.44270833333333 27.8775850567045  C 5.30381944444445 27.9556370913943  5.26041666666667 28.0553702468312  5.3125 28.1767845230153  C 5.36458333333333 28.2981987991995  5.44270833333333 28.4196130753836  5.546875 28.5410273515677  C 5.65104166666667 28.6624416277518  5.76388888888889 28.7665110073382  5.88541666666667 28.8532354903269  L 6.06770833333333 28.9833222148099  C 6.44965277777778 29.1567711807872  6.82725694444445 29.4863242161441  7.20052083333333 29.9719813208806  C 7.57378472222222 30.4576384256171  7.84722222222222 30.8999332888592  8.02083333333333 31.2988659106071  L 8.28125 31.8972648432288  C 8.50694444444444 32.5563709139426  8.88888888888889 33.0897264843229  9.42708333333333 33.4973315543696  C 9.96527777777778 33.9049366244163  10.546875 34.1651100733823  11.171875 34.2778519012675  C 11.796875 34.3905937291528  12.4001736111111 34.4513008672448  12.9817708333333 34.4599733155437  C 13.5633680555556 34.4686457638426  14.0451388888889 34.4382921947965  14.4270833333333 34.3689126084056  L 15.0260416666667 34.2648432288192  C 15.0260416666667 34.923949299533  15.0303819444444 35.6957971981321  15.0390625 36.5803869246164  C 15.0477430555556 37.4649766511007  15.0520833333333 37.9332888592395  15.0520833333333 37.9853235490327  C 15.0520833333333 38.2975316877919  14.9392361111111 38.5577051367578  14.7135416666667 38.7658438959306  C 14.4878472222222 38.9739826551034  14.140625 39.0346897931955  13.671875 38.9479653102068  C 9.64409722222222 37.6124082721815  6.35850694444445 35.2058038692462  3.81510416666667 31.7281521014009  C 1.27170138888889 28.2505003335557  0 24.3348899266177  0 19.9813208805871  C 0 16.3562374916611  0.894097222222222 13.0130086724483  2.68229166666667 9.95163442294863  C 4.47048611111111 6.89026017344896  6.89670138888889 4.46631087391594  9.9609375 2.67978652434957  C 13.0251736111111 0.893262174783187  16.3715277777778 0  20 0  C 23.6284722222222 0  26.9748263888889 0.893262174783187  30.0390625 2.67978652434957  C 33.1032986111111 4.46631087391594  35.5295138888889 6.89026017344896  37.3177083333333 9.95163442294863  Z " fill-rule="nonzero" fill="#333333" stroke="none" transform="matrix(1 0 0 1 1121 320 )" />
  </g>
</svg>