<?xml version="1.0" encoding="utf-8"?>
<svg version="1.1" xmlns:xlink="http://www.w3.org/1999/xlink" width="494px" height="150px" xmlns="http://www.w3.org/2000/svg">
  <g transform="matrix(1 0 0 1 -67 -290 )">
    <path d="M 68 294  A 3 3 0 0 1 71 291 L 557 291  A 3 3 0 0 1 560 294 L 560 436  A 3 3 0 0 1 557 439 L 71 439  A 3 3 0 0 1 68 436 L 68 294  Z " fill-rule="nonzero" fill="#ff3399" stroke="none" fill-opacity="0.0980392156862745" />
    <path d="M 67.5 294  A 3.5 3.5 0 0 1 71 290.5 L 557 290.5  A 3.5 3.5 0 0 1 560.5 294 L 560.5 436  A 3.5 3.5 0 0 1 557 439.5 L 71 439.5  A 3.5 3.5 0 0 1 67.5 436 L 67.5 294  Z " stroke-width="1" stroke-dasharray="9,4" stroke="#ff3399" fill="none" stroke-dashoffset="0.5" />
  </g>
</svg>