<?xml version="1.0" encoding="utf-8"?>
<svg version="1.1" xmlns:xlink="http://www.w3.org/1999/xlink" width="28px" height="28px" xmlns="http://www.w3.org/2000/svg">
  <g transform="matrix(1 0 0 1 -625 -4805 )">
    <path d="M 639 4805  C 646.84 4805  653 4811.16  653 4819  C 653 4826.84  646.84 4833  639 4833  C 631.16 4833  625 4826.84  625 4819  C 625 4811.16  631.16 4805  639 4805  Z " fill-rule="nonzero" fill="#ffffff" stroke="none" />
    <path d="M 639 4805.5  C 646.56 4805.5  652.5 4811.44  652.5 4819  C 652.5 4826.56  646.56 4832.5  639 4832.5  C 631.44 4832.5  625.5 4826.56  625.5 4819  C 625.5 4811.44  631.44 4805.5  639 4805.5  Z " stroke-width="1" stroke="#797979" fill="none" />
  </g>
</svg>