<?xml version="1.0" encoding="utf-8"?>
<svg version="1.1" xmlns:xlink="http://www.w3.org/1999/xlink" width="32px" height="32px" xmlns="http://www.w3.org/2000/svg">
  <g transform="matrix(1 0 0 1 -621 -5402 )">
    <path d="M 637 5402  C 645.96 5402  653 5409.04  653 5418  C 653 5426.96  645.96 5434  637 5434  C 628.04 5434  621 5426.96  621 5418  C 621 5409.04  628.04 5402  637 5402  Z " fill-rule="nonzero" fill="#ffffff" stroke="none" />
    <path d="M 637 5402.5  C 645.68 5402.5  652.5 5409.32  652.5 5418  C 652.5 5426.68  645.68 5433.5  637 5433.5  C 628.32 5433.5  621.5 5426.68  621.5 5418  C 621.5 5409.32  628.32 5402.5  637 5402.5  Z " stroke-width="1" stroke="#797979" fill="none" />
  </g>
</svg>