<?xml version="1.0" encoding="utf-8"?>
<svg version="1.1" xmlns:xlink="http://www.w3.org/1999/xlink" width="38px" height="38px" xmlns="http://www.w3.org/2000/svg">
  <g transform="matrix(1 0 0 1 -610 -4850 )">
    <path d="M 629 4850  C 639.64 4850  648 4858.36  648 4869  C 648 4879.64  639.64 4888  629 4888  C 618.36 4888  610 4879.64  610 4869  C 610 4858.36  618.36 4850  629 4850  Z " fill-rule="nonzero" fill="#ffffff" stroke="none" />
    <path d="M 629 4850.5  C 639.36 4850.5  647.5 4858.64  647.5 4869  C 647.5 4879.36  639.36 4887.5  629 4887.5  C 618.64 4887.5  610.5 4879.36  610.5 4869  C 610.5 4858.64  618.64 4850.5  629 4850.5  Z " stroke-width="1" stroke="#797979" fill="none" />
  </g>
</svg>