<?xml version="1.0" encoding="utf-8"?>
<svg version="1.1" xmlns:xlink="http://www.w3.org/1999/xlink" width="48px" height="48px" xmlns="http://www.w3.org/2000/svg">
  <g transform="matrix(1 0 0 1 -2139 -5671 )">
    <path d="M 2163 5671  C 2176.44 5671  2187 5681.56  2187 5695  C 2187 5708.44  2176.44 5719  2163 5719  C 2149.56 5719  2139 5708.44  2139 5695  C 2139 5681.56  2149.56 5671  2163 5671  Z " fill-rule="nonzero" fill="#ffffff" stroke="none" />
    <path d="M 2163 5671.5  C 2176.16 5671.5  2186.5 5681.84  2186.5 5695  C 2186.5 5708.16  2176.16 5718.5  2163 5718.5  C 2149.84 5718.5  2139.5 5708.16  2139.5 5695  C 2139.5 5681.84  2149.84 5671.5  2163 5671.5  Z " stroke-width="1" stroke="#797979" fill="none" />
  </g>
</svg>