<?xml version="1.0" encoding="utf-8"?>
<svg version="1.1" xmlns:xlink="http://www.w3.org/1999/xlink" width="80px" height="80px" xmlns="http://www.w3.org/2000/svg">
  <g transform="matrix(1 0 0 1 -1849 -4849 )">
    <path d="M 1889 4849  C 1911.4 4849  1929 4866.6  1929 4889  C 1929 4911.4  1911.4 4929  1889 4929  C 1866.6 4929  1849 4911.4  1849 4889  C 1849 4866.6  1866.6 4849  1889 4849  Z " fill-rule="nonzero" fill="#ffffff" stroke="none" />
    <path d="M 1889 4849.5  C 1911.12 4849.5  1928.5 4866.88  1928.5 4889  C 1928.5 4911.12  1911.12 4928.5  1889 4928.5  C 1866.88 4928.5  1849.5 4911.12  1849.5 4889  C 1849.5 4866.88  1866.88 4849.5  1889 4849.5  Z " stroke-width="1" stroke="#797979" fill="none" />
  </g>
</svg>