<?xml version="1.0" encoding="utf-8"?>
<svg version="1.1" xmlns:xlink="http://www.w3.org/1999/xlink" width="48px" height="48px" xmlns="http://www.w3.org/2000/svg">
  <g transform="matrix(1 0 0 1 -867 -5190 )">
    <path d="M 891 5190.5  C 904.16 5190.5  914.5 5200.84  914.5 5214  C 914.5 5227.16  904.16 5237.5  891 5237.5  C 877.84 5237.5  867.5 5227.16  867.5 5214  C 867.5 5200.84  877.84 5190.5  891 5190.5  Z " fill-rule="nonzero" fill="#ffffff" stroke="none" />
    <path d="M 891 5190.5  C 904.16 5190.5  914.5 5200.84  914.5 5214  C 914.5 5227.16  904.16 5237.5  891 5237.5  C 877.84 5237.5  867.5 5227.16  867.5 5214  C 867.5 5200.84  877.84 5190.5  891 5190.5  Z " stroke-width="1" stroke-dasharray="9,4" stroke="#797979" fill="none" stroke-dashoffset="0.5" />
  </g>
</svg>