<?xml version="1.0" encoding="utf-8"?>
<svg version="1.1" xmlns:xlink="http://www.w3.org/1999/xlink" width="55px" height="55px" xmlns="http://www.w3.org/2000/svg">
  <g transform="matrix(1 0 0 1 -525 -6643 )">
    <path d="M 525 6643  L 580 6643  L 580 6698  L 525 6698  L 525 6643  " fill-rule="nonzero" fill="#cccccc" stroke="none" />
    <path d="M 529 6647  L 576 6647  L 576 6694  L 529 6694  L 529 6647  " fill-rule="nonzero" fill="#ffffff" stroke="none" />
    <path d="M 557.725 6659.5  C 555.415 6659.5  553.6 6657.685  553.6 6655.375  C 553.6 6653.065  555.415 6651.25  557.725 6651.25  C 560.035 6651.25  561.85 6653.065  561.85 6655.375  C 561.85 6657.685  560.035 6659.5  557.725 6659.5  " fill-rule="nonzero" fill="#cccccc" stroke="none" />
    <path d="M 531 6693  L 531 6668.8  L 542 6657.8  L 557.4 6666.6  L 566.2 6664.4  L 575 6666.6  L 575 6693  L 531 6693  " fill-rule="nonzero" fill="#169bd5" stroke="none" />
  </g>
</svg>