<?xml version="1.0" encoding="utf-8"?>
<svg version="1.1" xmlns:xlink="http://www.w3.org/1999/xlink" width="14px" height="6px" xmlns="http://www.w3.org/2000/svg">
  <g transform="matrix(1 0 0 1 -814 -6615 )">
    <path d="M 13.9270833333333 2.06762028608583  C 13.9756944444444 2.11443433029909  14 2.1742522756827  14 2.24707412223667  L 14 3.74512353706112  C 14 3.81794538361508  13.9756944444444 3.8777633289987  13.9270833333333 3.92457737321196  C 13.8784722222222 3.97139141742523  13.8163580246914 3.99479843953186  13.7407407407407 4  L 3.62962962962963 4  L 3.62962962962963 5.74252275682705  C 3.62962962962963 5.851755526658  3.57831790123457 5.92717815344603  3.47569444444444 5.96879063719116  C 3.37307098765432 6.01040312093628  3.27854938271605 5.99739921976593  3.19212962962963 5.9297789336801  L 0.0810185185185185 3.19895968790637  C 0.0270061728395063 3.14694408322497  0 3.08712613784135  0 3.01950585175553  C 0 2.94668400520156  0.0270061728395063 2.88426527958387  0.0810185185185185 2.83224967490247  L 3.19212962962963 0.0702210663198961  C 3.27854938271605 -0.00260078023407173  3.37307098765432 -0.0182054616384928  3.47569444444444 0.0234070221066323  C 3.57831790123457 0.0702210663198961  3.62962962962963 0.145643693107932  3.62962962962963 0.249674902470741  L 3.62962962962963 2  L 13.7407407407407 2  C 13.8163580246914 1.99739921976593  13.8784722222222 2.02080624187256  13.9270833333333 2.06762028608583  Z " fill-rule="nonzero" fill="#333333" stroke="none" transform="matrix(1 0 0 1 814 6615 )" />
  </g>
</svg>