<?xml version="1.0" encoding="utf-8"?>
<svg version="1.1" xmlns:xlink="http://www.w3.org/1999/xlink" width="14px" height="9px" xmlns="http://www.w3.org/2000/svg">
  <g transform="matrix(1 0 0 1 -918 -5409 )">
    <path d="M 13.8597194388776 0.927835051546455  C 13.9532398129593 1.03092783505132  14 1.14948453608242  14 1.28350515463904  C 14 1.4175257731959  13.9532398129593 1.53608247422676  13.8597194388776 1.63917525773211  L 7.32264529058102 8.84536082474222  C 7.22912491649959 8.94845360824733  7.12157648630591 9  7 9  C 6.87842351369409 9  6.77087508350041 8.94845360824733  6.67735470941898 8.84536082474222  L 0.140280561122381 1.63917525773211  C 0.0467601870407179 1.53608247422676  0 1.4175257731959  0 1.28350515463904  C 0 1.14948453608242  0.0467601870407179 1.03092783505132  0.140280561122381 0.927835051546455  L 0.841683366733378 0.154639175257783  C 0.935203740815041 0.0515463917526756  1.04275217100871 0  1.16432865731463 0  C 1.28590514362077 0  1.39345357381444 0.0515463917526756  1.48697394789565 0.154639175257783  L 7 6.23195876288663  L 12.5130260521044 0.154639175257783  C 12.6065464261856 0.0515463917526756  12.7140948563792 0  12.8356713426854 0  C 12.9572478289913 0  13.064796259185 0.0515463917526756  13.1583166332666 0.154639175257783  L 13.8597194388776 0.927835051546455  Z " fill-rule="nonzero" fill="#999999" stroke="none" transform="matrix(1 0 0 1 918 5409 )" />
  </g>
</svg>