<?xml version="1.0" encoding="utf-8"?>
<svg version="1.1" xmlns:xlink="http://www.w3.org/1999/xlink" width="14px" height="9px" xmlns="http://www.w3.org/2000/svg">
  <g transform="matrix(1 0 0 1 -1390 -5410 )">
    <path d="M 13.8597194388776 7.36082474226799  C 13.9532398129591 7.46391752577308  14 7.5824742268042  14 7.71649484536086  C 14 7.85051546391752  13.9532398129591 7.9690721649484  13.8597194388776 8.07216494845373  L 13.1583166332666 8.84536082474237  C 13.0647962591852 8.94845360824746  12.9572478289915 9  12.8356713426851 9  C 12.7140948563792 9  12.6065464261856 8.94845360824746  12.5130260521041 8.84536082474237  L 7 2.76804123711352  L 1.48697394789588 8.84536082474237  C 1.39345357381444 8.94845360824746  1.28590514362077 9  1.16432865731485 9  C 1.04275217100849 9  0.935203740814814 8.94845360824746  0.841683366733378 8.84536082474237  L 0.140280561122381 8.07216494845373  C 0.0467601870409453 7.9690721649484  0 7.85051546391752  0 7.71649484536086  C 0 7.5824742268042  0.0467601870409453 7.46391752577308  0.140280561122381 7.36082474226799  L 6.67735470941898 0.154639175257627  C 6.77087508350041 0.0515463917525424  6.87842351369409 0  7 0  C 7.12157648630591 0  7.22912491649959 0.0515463917525424  7.32264529058102 0.154639175257627  L 13.8597194388776 7.36082474226799  Z " fill-rule="nonzero" fill="#999999" stroke="none" transform="matrix(1 0 0 1 1390 5410 )" />
  </g>
</svg>