<?xml version="1.0" encoding="utf-8"?>
<svg version="1.1" xmlns:xlink="http://www.w3.org/1999/xlink" width="39px" height="39px" xmlns="http://www.w3.org/2000/svg">
  <g transform="matrix(1 0 0 1 -200 -680 )">
    <path d="M 219.5 680  C 230.42 680  239 688.58  239 699.5  C 239 710.42  230.42 719  219.5 719  C 208.58 719  200 710.42  200 699.5  C 200 688.58  208.58 680  219.5 680  Z " fill-rule="nonzero" fill="#ffffff" stroke="none" />
    <path d="M 219.5 680.5  C 230.14 680.5  238.5 688.86  238.5 699.5  C 238.5 710.14  230.14 718.5  219.5 718.5  C 208.86 718.5  200.5 710.14  200.5 699.5  C 200.5 688.86  208.86 680.5  219.5 680.5  Z " stroke-width="1" stroke="#797979" fill="none" />
  </g>
</svg>