<?xml version="1.0" encoding="utf-8"?>
<svg version="1.1" xmlns:xlink="http://www.w3.org/1999/xlink" width="47px" height="47px" xmlns="http://www.w3.org/2000/svg">
  <g transform="matrix(1 0 0 1 -563 -2940 )">
    <path d="M 586.5 2940  C 599.66 2940  610 2950.34  610 2963.5  C 610 2976.66  599.66 2987  586.5 2987  C 573.34 2987  563 2976.66  563 2963.5  C 563 2950.34  573.34 2940  586.5 2940  Z " fill-rule="nonzero" fill="#ffffff" stroke="none" />
    <path d="M 586.5 2940.5  C 599.38 2940.5  609.5 2950.62  609.5 2963.5  C 609.5 2976.38  599.38 2986.5  586.5 2986.5  C 573.62 2986.5  563.5 2976.38  563.5 2963.5  C 563.5 2950.62  573.62 2940.5  586.5 2940.5  Z " stroke-width="1" stroke="#797979" fill="none" />
  </g>
</svg>