<?xml version="1.0" encoding="utf-8"?>
<svg version="1.1" xmlns:xlink="http://www.w3.org/1999/xlink" width="28px" height="29px" xmlns="http://www.w3.org/2000/svg">
  <g transform="matrix(1 0 0 1 -267 -2959 )">
    <path d="M 14.5000514296875 0.000178276351428277  C 14.4771476091157 6.11186421194736E-05  14.4542435263599 0  14.4313394061472 0  C 7.03647776220209 0  1.03228185229441 5.97675482160177  0.998405259765625 13.3715382154475  C 0.984497406079554 16.9322918371887  2.4232692255835 20.3447314191337  4.98238515820313 22.8206325852472  C 4.95066164310019 23.6061007245597  4.82167852605429 24.3846059006294  4.59838709570313 25.138334979977  C 4.21438903320313 26.8114692432086  3.91267626171875 28.1623194548512  4.59838709570313 28.7383164976844  C 4.76419664490518 28.9161332926371  5.0001549460637 29.0115206748254  5.24295528417969 28.9988865723068  C 6.01780852148438 28.9988865723068  7.04637477246094 28.1006054778847  8.19836893164063 27.0720393461513  C 8.63039304405747 26.6407112121719  9.10349134408111 26.2525869149466  9.61093324511719 25.9131881487864  C 11.1740201490183 26.5018165553066  12.8298135370299 26.8060366294734  14.5000514296875 26.8114692432086  C 21.9037856462963 26.8114692432086  27.9056980981445 20.8095573219157  27.9056980981445 13.40582375978  C 27.9056980981445 6.00209019764435  21.9037856462963 0.000178276351430619  14.5000514296875 0.000178276351430619  Z M 26.7125612792969 13.3715382154475  C 26.6409603126816 20.0521364396008  21.1808776028861 25.4171807340339  14.5000514296875 25.3714766361256  C 12.9144804098862 25.3653824527453  11.3442491136174 25.0606412964578  9.87150337109375 24.4731955417035  C 9.22693518261719 24.2194825504593  8.50008173144531 24.8571935702589  7.3000877578125 25.9543307906573  C 6.78580464648437 26.4068999078778  5.88752344433594 27.1748959649887  5.43495431542969 27.4971800165777  C 5.50478475948059 26.7807897933097  5.62624269155135 26.0703755100198  5.79838104101562 25.3714766361256  C 6.25095019824219 23.5063433586163  6.44294922949219 22.4777771985627  5.8600950234375 21.9017801557295  C 3.5720768749809 19.6386793797085  2.2845662151738 16.5542627728945  2.2845662151738 13.3360876308979  C 2.2845662151738 6.68219511035669  7.67861234570151 1.2881494566503  14.3325054544316 1.2881494566503  C 14.3883561381765 1.2881494566503  14.4442061467907 1.28853781749816  14.5000514296875 1.28931451102754  C 14.5229601738445 1.28918486013405  14.5458692390154 1.289120034298  14.5687783500459 1.289120034298  C 21.2516781469051 1.289120034298  26.6787066378764 6.68872476133769  26.7125612792969 13.3715382154475  Z " fill-rule="nonzero" fill="#252525" stroke="none" transform="matrix(1 0 0 1 267 2959 )" />
  </g>
</svg>