<?xml version="1.0" encoding="utf-8"?>
<svg version="1.1" xmlns:xlink="http://www.w3.org/1999/xlink" width="13px" height="13px" xmlns="http://www.w3.org/2000/svg">
  <g transform="matrix(1 0 0 1 -275 -2966 )">
    <path d="M 12.3765932197266 2.97727081738281  L 12.3491647988281 2.96355659277344  L 10.6143164052734 2.96355659277344  L 10.9983144677734 0.645853993164064  C 11.0097588974359 0.605597746747516  11.0155640882316 0.563948611461424  11.0155640882316 0.522097203529928  C 11.0155640882316 0.272150159749923  10.8129419747851 0.0695280463033647  10.5629949310051 0.0695280463033647  C 10.5572434902698 0.0695280463033647  10.5514925720774 0.0696376839235961  10.5457453105469 0.0698568994140629  L 10.4154602617187 0.0698568994140629  C 10.0913989300299 0.085201447138858  9.82243689852051 0.325550492046948  9.77089207324219 0.645853993164064  L 9.38689401074219 2.96355659277344  L 4.82691701855469 2.96355659277344  L 5.21091508105469 0.645853993164064  C 5.22235951051216 0.605597747084571  5.22816470120244 0.563948612173215  5.22816470120244 0.522097204621979  C 5.22816470120244 0.272150160841974  5.02554258775588 0.0695280473954165  4.77559554397588 0.0695280473954165  C 4.76984411279197 0.0695280473954165  4.76409320414839 0.0696376846514983  4.75834595214844 0.0698568994140629  L 4.65548932421875 0.0698568994140629  C 4.33142799252986 0.085201447138858  4.06246596102051 0.325550492046948  4.01092113574219 0.645853993164064  L 3.62692307324219 2.96355659277344  L 0.650938088867187 2.96355659277344  C 0.332823678042205 2.96355659277344  0.0749409951171867 3.22143927569846  0.0749409951171867 3.53955368652344  L 0.0749409951171867 3.66983873535157  C 0.0749409951171849 3.98795317449686  0.332823678042203 4.24583585742188  0.650938088867186 4.24583585742188  C 1.03493615136719 4.24583585742188  0.266940026367189 4.24583585742188  0.650938088867187 4.24583585742188  L 3.39378139648437 4.24583585742188  L 2.63949949609375 8.77152728808594  L 0.650938088867187 8.77152728808594  C 0.332823678042205 8.77152728808594  0.0749409951171867 9.02940997101096  0.0749409951171867 9.34752438183594  L 0.0749409951171867 9.45723812207032  C 0.0749409951171867 9.7753525328953  0.332823678042205 10.0332352158203  0.650938088867187 10.0332352158203  L 2.38578648242187 10.0332352158203  L 2.06350240234375 12.3509378154297  C 2.05205797288628 12.3911940615092  2.046252782196 12.4328431964205  2.046252782196 12.4746946039718  C 2.046252782196 12.7246416477518  2.24887489564256 12.9272637611983  2.49882193942256 12.9272637611983  C 2.5045733706065 12.9272637611983  2.51032427925 12.9271541239423  2.51607153125 12.9269349091797  L 2.64635660839844 12.9269349091797  C 2.97041792925076 12.9115903484359  3.23937994553765 12.6712413065707  3.29092476855469 12.3509378154297  L 3.67492283105469 10.0332352158203  L 8.24175693554687 10.0332352158203  L 7.85775887304688 12.3509378154297  C 7.84631444338443 12.3911940618462  7.84050925258866 12.4328431971323  7.84050925258866 12.4746946050638  C 7.84050925258866 12.7246416488438  8.04313136603522 12.9272637622904  8.29307840981523 12.9272637622904  C 8.29882985055056 12.9272637622904  8.30458076874286 12.9271541246702  8.31032803027344 12.9269349091797  L 8.44061307910156 12.9269349091797  C 8.76467441079045 12.9115903614549  9.03363644229979 12.6712413165468  9.08518126757812 12.3509378154297  L 9.45546510546875 10.040092328125  L 12.3491647988281 10.040092328125  C 12.6672792096531 10.040092328125  12.9251618925781 9.78220964519998  12.9251618925781 9.464095234375  L 12.9251618925781 9.33381018554688  C 12.9251618925781 9.01569577472189  12.6672792096531 8.75781309179687  12.3491647988281 8.75781309179687  L 9.60632149121093 8.75781309179687  L 10.3811747285156 4.25955005371094  L 12.3765932197266 4.25955005371094  C 12.6947076305515 4.25955005371094  12.9525903134766 4.00166737078592  12.9525903134766 3.68355295996094  L 12.9525903134766 3.55326791113281  C 12.9525903134766 3.23515350030783  12.6947076305515 2.97727081738281  12.3765932197266 2.97727081738281  Z M 9.22232342871094 4.25269294140625  L 8.42689885449219 8.77152728808594  L 3.86006475 8.77152728808594  L 4.65548932421875 4.25269294140625  L 9.22232342871094 4.25269294140625  Z " fill-rule="nonzero" fill="#252525" stroke="none" transform="matrix(1 0 0 1 275 2966 )" />
  </g>
</svg>