<?xml version="1.0" encoding="utf-8"?>
<svg version="1.1" xmlns:xlink="http://www.w3.org/1999/xlink" width="49px" height="49px" xmlns="http://www.w3.org/2000/svg">
  <g transform="matrix(1 0 0 1 -2264 -3247 )">
    <path d="M 2288.5 3247  C 2302.22 3247  2313 3257.78  2313 3271.5  C 2313 3285.22  2302.22 3296  2288.5 3296  C 2274.78 3296  2264 3285.22  2264 3271.5  C 2264 3257.78  2274.78 3247  2288.5 3247  Z " fill-rule="nonzero" fill="#ffffff" stroke="none" />
    <path d="M 2288.5 3247.5  C 2301.94 3247.5  2312.5 3258.06  2312.5 3271.5  C 2312.5 3284.94  2301.94 3295.5  2288.5 3295.5  C 2275.06 3295.5  2264.5 3284.94  2264.5 3271.5  C 2264.5 3258.06  2275.06 3247.5  2288.5 3247.5  Z " stroke-width="1" stroke="#797979" fill="none" />
  </g>
</svg>