<?xml version="1.0" encoding="utf-8"?>
<svg version="1.1" xmlns:xlink="http://www.w3.org/1999/xlink" width="66px" height="66px" xmlns="http://www.w3.org/2000/svg">
  <g transform="matrix(1 0 0 1 -1734 -4285 )">
    <path d="M 1767 4285  C 1785.48 4285  1800 4299.52  1800 4318  C 1800 4336.48  1785.48 4351  1767 4351  C 1748.52 4351  1734 4336.48  1734 4318  C 1734 4299.52  1748.52 4285  1767 4285  Z " fill-rule="nonzero" fill="#ffffff" stroke="none" />
    <path d="M 1767 4285.5  C 1785.2 4285.5  1799.5 4299.8  1799.5 4318  C 1799.5 4336.2  1785.2 4350.5  1767 4350.5  C 1748.8 4350.5  1734.5 4336.2  1734.5 4318  C 1734.5 4299.8  1748.8 4285.5  1767 4285.5  Z " stroke-width="1" stroke="#797979" fill="none" />
  </g>
</svg>