<?xml version="1.0" encoding="utf-8"?>
<svg version="1.1" xmlns:xlink="http://www.w3.org/1999/xlink" width="7px" height="12px" xmlns="http://www.w3.org/2000/svg">
  <g transform="matrix(1 0 0 1 -426 -881 )">
    <path d="M 429.5 881  C 431.46 881  433 883.64  433 887  C 433 890.36  431.46 893  429.5 893  C 427.54 893  426 890.36  426 887  C 426 883.64  427.54 881  429.5 881  Z " fill-rule="nonzero" fill="#333333" stroke="none" />
    <path d="M 429.5 881.5  C 431.18 881.5  432.5 883.92  432.5 887  C 432.5 890.08  431.18 892.5  429.5 892.5  C 427.82 892.5  426.5 890.08  426.5 887  C 426.5 883.92  427.82 881.5  429.5 881.5  Z " stroke-width="1" stroke="#333333" fill="none" />
  </g>
</svg>