<?xml version="1.0" encoding="utf-8"?>
<svg version="1.1" xmlns:xlink="http://www.w3.org/1999/xlink" width="186px" height="38px" xmlns="http://www.w3.org/2000/svg">
  <defs>
    <mask fill="white" id="clip52">
      <path d="M 0 1.51394422310757  L 0 36.4860557768924  C 0 37.3338645418327  2.21189189189189 38  5.02702702702703 38  L 180.972972972973 38  C 183.788108108108 38  186 37.3338645418327  186 36.4860557768924  L 186 1.51394422310757  C 186 0.666135458167332  183.788108108108 0  180.972972972973 0  L 5.02702702702703 0  C 2.21189189189189 0  0 0.666135458167332  0 1.51394422310757  Z " fill-rule="evenodd" />
    </mask>
  </defs>
  <g transform="matrix(1 0 0 1 -1016 -863 )">
    <path d="M 0 1.51394422310757  L 0 36.4860557768924  C 0 37.3338645418327  2.21189189189189 38  5.02702702702703 38  L 180.972972972973 38  C 183.788108108108 38  186 37.3338645418327  186 36.4860557768924  L 186 1.51394422310757  C 186 0.666135458167332  183.788108108108 0  180.972972972973 0  L 5.02702702702703 0  C 2.21189189189189 0  0 0.666135458167332  0 1.51394422310757  Z " fill-rule="nonzero" fill="#d9001b" stroke="none" fill-opacity="0.0352941176470588" transform="matrix(1 0 0 1 1016 863 )" />
    <path d="M 0 1.51394422310757  L 0 36.4860557768924  C 0 37.3338645418327  2.21189189189189 38  5.02702702702703 38  L 180.972972972973 38  C 183.788108108108 38  186 37.3338645418327  186 36.4860557768924  L 186 1.51394422310757  C 186 0.666135458167332  183.788108108108 0  180.972972972973 0  L 5.02702702702703 0  C 2.21189189189189 0  0 0.666135458167332  0 1.51394422310757  Z " stroke-width="2" stroke-dasharray="9,4" stroke="#d9001b" fill="none" transform="matrix(1 0 0 1 1016 863 )" mask="url(#clip52)" />
  </g>
</svg>