<?xml version="1.0" encoding="utf-8"?>
<svg version="1.1" xmlns:xlink="http://www.w3.org/1999/xlink" width="253px" height="59px" xmlns="http://www.w3.org/2000/svg">
  <defs>
    <mask fill="white" id="clip54">
      <path d="M 0 2.35059760956175  L 0 56.6494023904382  C 0 57.9657370517928  3.00864864864865 59  6.83783783783784 59  L 246.162162162162 59  C 249.991351351351 59  253 57.9657370517928  253 56.6494023904382  L 253 2.35059760956175  C 253 1.03426294820717  249.991351351351 0  246.162162162162 0  L 6.83783783783784 0  C 3.00864864864865 0  0 1.03426294820717  0 2.35059760956175  Z " fill-rule="evenodd" />
    </mask>
  </defs>
  <g transform="matrix(1 0 0 1 -1016 -1044 )">
    <path d="M 0 2.35059760956175  L 0 56.6494023904382  C 0 57.9657370517928  3.00864864864865 59  6.83783783783784 59  L 246.162162162162 59  C 249.991351351351 59  253 57.9657370517928  253 56.6494023904382  L 253 2.35059760956175  C 253 1.03426294820717  249.991351351351 0  246.162162162162 0  L 6.83783783783784 0  C 3.00864864864865 0  0 1.03426294820717  0 2.35059760956175  Z " fill-rule="nonzero" fill="#d9001b" stroke="none" fill-opacity="0.0352941176470588" transform="matrix(1 0 0 1 1016 1044 )" />
    <path d="M 0 2.35059760956175  L 0 56.6494023904382  C 0 57.9657370517928  3.00864864864865 59  6.83783783783784 59  L 246.162162162162 59  C 249.991351351351 59  253 57.9657370517928  253 56.6494023904382  L 253 2.35059760956175  C 253 1.03426294820717  249.991351351351 0  246.162162162162 0  L 6.83783783783784 0  C 3.00864864864865 0  0 1.03426294820717  0 2.35059760956175  Z " stroke-width="2" stroke-dasharray="9,4" stroke="#d9001b" fill="none" transform="matrix(1 0 0 1 1016 1044 )" mask="url(#clip54)" />
  </g>
</svg>