<?xml version="1.0" encoding="utf-8"?>
<svg version="1.1" xmlns:xlink="http://www.w3.org/1999/xlink" width="289px" height="48px" xmlns="http://www.w3.org/2000/svg">
  <defs>
    <mask fill="white" id="clip53">
      <path d="M 0 1.91235059760956  L 0 46.0876494023904  C 0 47.1585657370518  3.43675675675676 48  7.81081081081081 48  L 281.189189189189 48  C 285.563243243243 48  289 47.1585657370518  289 46.0876494023904  L 289 1.91235059760956  C 289 0.841434262948209  285.563243243243 0  281.189189189189 0  L 7.81081081081081 0  C 3.43675675675676 0  0 0.841434262948209  0 1.91235059760956  Z " fill-rule="evenodd" />
    </mask>
  </defs>
  <g transform="matrix(1 0 0 1 -1011 -273 )">
    <path d="M 0 1.91235059760956  L 0 46.0876494023904  C 0 47.1585657370518  3.43675675675676 48  7.81081081081081 48  L 281.189189189189 48  C 285.563243243243 48  289 47.1585657370518  289 46.0876494023904  L 289 1.91235059760956  C 289 0.841434262948209  285.563243243243 0  281.189189189189 0  L 7.81081081081081 0  C 3.43675675675676 0  0 0.841434262948209  0 1.91235059760956  Z " fill-rule="nonzero" fill="#d9001b" stroke="none" fill-opacity="0.0352941176470588" transform="matrix(1 0 0 1 1011 273 )" />
    <path d="M 0 1.91235059760956  L 0 46.0876494023904  C 0 47.1585657370518  3.43675675675676 48  7.81081081081081 48  L 281.189189189189 48  C 285.563243243243 48  289 47.1585657370518  289 46.0876494023904  L 289 1.91235059760956  C 289 0.841434262948209  285.563243243243 0  281.189189189189 0  L 7.81081081081081 0  C 3.43675675675676 0  0 0.841434262948209  0 1.91235059760956  Z " stroke-width="2" stroke-dasharray="9,4" stroke="#d9001b" fill="none" transform="matrix(1 0 0 1 1011 273 )" mask="url(#clip53)" />
  </g>
</svg>