<?xml version="1.0" encoding="utf-8"?>
<svg version="1.1" xmlns:xlink="http://www.w3.org/1999/xlink" width="28px" height="30px" xmlns="http://www.w3.org/2000/svg">
  <g transform="matrix(1 0 0 1 -1215 -16 )">
    <path d="M 2.15384615384615 23.0357142857143  L 2.15384615384615 27.8571428571429  L 7 27.8571428571429  L 7 23.0357142857143  L 2.15384615384615 23.0357142857143  Z M 8.07692307692308 23.0357142857143  L 8.07692307692308 27.8571428571429  L 13.4615384615385 27.8571428571429  L 13.4615384615385 23.0357142857143  L 8.07692307692308 23.0357142857143  Z M 2.15384615384615 16.6071428571429  L 2.15384615384615 21.9642857142857  L 7 21.9642857142857  L 7 16.6071428571429  L 2.15384615384615 16.6071428571429  Z M 8.07692307692308 16.6071428571429  L 8.07692307692308 21.9642857142857  L 13.4615384615385 21.9642857142857  L 13.4615384615385 16.6071428571429  L 8.07692307692308 16.6071428571429  Z M 2.15384615384615 10.7142857142857  L 2.15384615384615 15.5357142857143  L 7 15.5357142857143  L 7 10.7142857142857  L 2.15384615384615 10.7142857142857  Z M 14.5384615384615 23.0357142857143  L 14.5384615384615 27.8571428571429  L 19.9230769230769 27.8571428571429  L 19.9230769230769 23.0357142857143  L 14.5384615384615 23.0357142857143  Z M 8.07692307692308 10.7142857142857  L 8.07692307692308 15.5357142857143  L 13.4615384615385 15.5357142857143  L 13.4615384615385 10.7142857142857  L 8.07692307692308 10.7142857142857  Z M 21 23.0357142857143  L 21 27.8571428571429  L 25.8461538461538 27.8571428571429  L 25.8461538461538 23.0357142857143  L 21 23.0357142857143  Z M 14.5384615384615 16.6071428571429  L 14.5384615384615 21.9642857142857  L 19.9230769230769 21.9642857142857  L 19.9230769230769 16.6071428571429  L 14.5384615384615 16.6071428571429  Z M 8.45552884615385 7.87667410714286  C 8.56209935897436 7.77064732142857  8.61538461538462 7.64508928571428  8.61538461538462 7.5  L 8.61538461538462 2.67857142857143  C 8.61538461538462 2.53348214285714  8.56209935897436 2.40792410714286  8.45552884615385 2.30189732142857  C 8.34895833333333 2.19587053571428  8.22275641025641 2.14285714285714  8.07692307692308 2.14285714285714  L 7 2.14285714285714  C 6.85416666666667 2.14285714285714  6.72796474358974 2.19587053571428  6.62139423076923 2.30189732142857  C 6.51482371794872 2.40792410714286  6.46153846153846 2.53348214285714  6.46153846153846 2.67857142857143  L 6.46153846153846 7.5  C 6.46153846153846 7.64508928571428  6.51482371794872 7.77064732142857  6.62139423076923 7.87667410714286  C 6.72796474358974 7.98270089285714  6.85416666666667 8.03571428571429  7 8.03571428571429  L 8.07692307692308 8.03571428571429  C 8.22275641025641 8.03571428571429  8.34895833333333 7.98270089285714  8.45552884615385 7.87667410714286  Z M 21 16.6071428571429  L 21 21.9642857142857  L 25.8461538461538 21.9642857142857  L 25.8461538461538 16.6071428571429  L 21 16.6071428571429  Z M 14.5384615384615 10.7142857142857  L 14.5384615384615 15.5357142857143  L 19.9230769230769 15.5357142857143  L 19.9230769230769 10.7142857142857  L 14.5384615384615 10.7142857142857  Z M 21 10.7142857142857  L 21 15.5357142857143  L 25.8461538461538 15.5357142857143  L 25.8461538461538 10.7142857142857  L 21 10.7142857142857  Z M 21.3786057692308 7.87667410714286  C 21.4851762820513 7.77064732142857  21.5384615384615 7.64508928571428  21.5384615384615 7.5  L 21.5384615384615 2.67857142857143  C 21.5384615384615 2.53348214285714  21.4851762820513 2.40792410714286  21.3786057692308 2.30189732142857  C 21.2720352564103 2.19587053571428  21.1458333333333 2.14285714285714  21 2.14285714285714  L 19.9230769230769 2.14285714285714  C 19.7772435897436 2.14285714285714  19.6510416666667 2.19587053571428  19.5444711538462 2.30189732142857  C 19.4379006410256 2.40792410714286  19.3846153846154 2.53348214285714  19.3846153846154 2.67857142857143  L 19.3846153846154 7.5  C 19.3846153846154 7.64508928571428  19.4379006410256 7.77064732142857  19.5444711538462 7.87667410714286  C 19.6510416666667 7.98270089285714  19.7772435897436 8.03571428571429  19.9230769230769 8.03571428571429  L 21 8.03571428571429  C 21.1458333333333 8.03571428571429  21.2720352564103 7.98270089285714  21.3786057692308 7.87667410714286  Z M 27.3605769230769 4.921875  C 27.786858974359 5.34598214285714  28 5.84821428571428  28 6.42857142857143  L 28 27.8571428571429  C 28 28.4375  27.786858974359 28.9397321428571  27.3605769230769 29.3638392857143  C 26.9342948717949 29.7879464285714  26.4294871794872 30  25.8461538461538 30  L 2.15384615384615 30  C 1.57051282051282 30  1.06570512820513 29.7879464285714  0.639423076923077 29.3638392857143  C 0.213141025641026 28.9397321428571  0 28.4375  0 27.8571428571429  L 0 6.42857142857143  C 0 5.84821428571428  0.213141025641026 5.34598214285714  0.639423076923077 4.921875  C 1.06570512820513 4.49776785714285  1.57051282051282 4.28571428571429  2.15384615384615 4.28571428571429  L 4.30769230769231 4.28571428571429  L 4.30769230769231 2.67857142857143  C 4.30769230769231 1.94196428571429  4.5713141025641 1.31138392857143  5.09855769230769 0.786830357142858  C 5.62580128205128 0.262276785714286  6.25961538461539 0  7 0  L 8.07692307692308 0  C 8.81730769230769 0  9.4511217948718 0.262276785714286  9.97836538461538 0.786830357142858  C 10.505608974359 1.31138392857143  10.7692307692308 1.94196428571429  10.7692307692308 2.67857142857143  L 10.7692307692308 4.28571428571429  L 17.2307692307692 4.28571428571429  L 17.2307692307692 2.67857142857143  C 17.2307692307692 1.94196428571429  17.494391025641 1.31138392857143  18.0216346153846 0.786830357142858  C 18.5488782051282 0.262276785714286  19.1826923076923 0  19.9230769230769 0  L 21 0  C 21.7403846153846 0  22.3741987179487 0.262276785714286  22.9014423076923 0.786830357142858  C 23.4286858974359 1.31138392857143  23.6923076923077 1.94196428571429  23.6923076923077 2.67857142857143  L 23.6923076923077 4.28571428571429  L 25.8461538461538 4.28571428571429  C 26.4294871794872 4.28571428571429  26.9342948717949 4.49776785714285  27.3605769230769 4.921875  Z " fill-rule="nonzero" fill="#7f7f7f" stroke="none" transform="matrix(1 0 0 1 1215 16 )" />
  </g>
</svg>