<?xml version="1.0" encoding="utf-8"?>
<svg version="1.1" xmlns:xlink="http://www.w3.org/1999/xlink" width="416px" height="77px" xmlns="http://www.w3.org/2000/svg">
  <defs>
    <mask fill="white" id="clip69">
      <path d="M 0 3.06772908366546  L 0 73.9322709163348  C 0 75.6501992031873  4.94702702702695 77  11.2432432432433 77  L 404.756756756757 77  C 411.052972972973 77  416 75.6501992031873  416 73.9322709163348  L 416 3.06772908366546  C 416 1.3498007968127  411.052972972973 0  404.756756756757 0  L 91.4609929078014 0  L 11.2432432432433 0  C 4.94702702702695 0  0 1.3498007968127  0 3.06772908366546  Z " fill-rule="evenodd" />
    </mask>
  </defs>
  <g transform="matrix(1 0 0 1 -724 -110 )">
    <path d="M 0 3.06772908366546  L 0 73.9322709163348  C 0 75.6501992031873  4.94702702702695 77  11.2432432432433 77  L 404.756756756757 77  C 411.052972972973 77  416 75.6501992031873  416 73.9322709163348  L 416 3.06772908366546  C 416 1.3498007968127  411.052972972973 0  404.756756756757 0  L 91.4609929078014 0  L 11.2432432432433 0  C 4.94702702702695 0  0 1.3498007968127  0 3.06772908366546  Z " fill-rule="nonzero" fill="#d9001b" stroke="none" fill-opacity="0.0352941176470588" transform="matrix(1 0 0 1 724 110 )" />
    <path d="M 0 3.06772908366546  L 0 73.9322709163348  C 0 75.6501992031873  4.94702702702695 77  11.2432432432433 77  L 404.756756756757 77  C 411.052972972973 77  416 75.6501992031873  416 73.9322709163348  L 416 3.06772908366546  C 416 1.3498007968127  411.052972972973 0  404.756756756757 0  L 91.4609929078014 0  L 11.2432432432433 0  C 4.94702702702695 0  0 1.3498007968127  0 3.06772908366546  Z " stroke-width="2" stroke-dasharray="9,4" stroke="#d9001b" fill="none" transform="matrix(1 0 0 1 724 110 )" mask="url(#clip69)" />
  </g>
</svg>