<?xml version="1.0" encoding="utf-8"?>
<svg version="1.1" xmlns:xlink="http://www.w3.org/1999/xlink" width="89px" height="30px" xmlns="http://www.w3.org/2000/svg">
  <defs>
    <mask fill="white" id="clip70">
      <path d="M 0 1.19521912350602  L 0 28.8047808764941  C 0 29.4741035856574  1.05837837837836 30  2.40540540540542 30  L 86.5945945945946 30  C 87.9416216216216 30  89 29.4741035856574  89 28.8047808764941  L 89 1.19521912350602  C 89 0.525896414342609  87.9416216216216 0  86.5945945945946 0  L 19.5673758865248 0  L 2.40540540540542 0  C 1.05837837837836 0  0 0.525896414342609  0 1.19521912350602  Z " fill-rule="evenodd" />
    </mask>
  </defs>
  <g transform="matrix(1 0 0 1 -983 -407 )">
    <path d="M 0 1.19521912350602  L 0 28.8047808764941  C 0 29.4741035856574  1.05837837837836 30  2.40540540540542 30  L 86.5945945945946 30  C 87.9416216216216 30  89 29.4741035856574  89 28.8047808764941  L 89 1.19521912350602  C 89 0.525896414342609  87.9416216216216 0  86.5945945945946 0  L 19.5673758865248 0  L 2.40540540540542 0  C 1.05837837837836 0  0 0.525896414342609  0 1.19521912350602  Z " fill-rule="nonzero" fill="#d9001b" stroke="none" fill-opacity="0.0352941176470588" transform="matrix(1 0 0 1 983 407 )" />
    <path d="M 0 1.19521912350602  L 0 28.8047808764941  C 0 29.4741035856574  1.05837837837836 30  2.40540540540542 30  L 86.5945945945946 30  C 87.9416216216216 30  89 29.4741035856574  89 28.8047808764941  L 89 1.19521912350602  C 89 0.525896414342609  87.9416216216216 0  86.5945945945946 0  L 19.5673758865248 0  L 2.40540540540542 0  C 1.05837837837836 0  0 0.525896414342609  0 1.19521912350602  Z " stroke-width="2" stroke-dasharray="9,4" stroke="#d9001b" fill="none" transform="matrix(1 0 0 1 983 407 )" mask="url(#clip70)" />
  </g>
</svg>