<?xml version="1.0" encoding="utf-8"?>
<svg version="1.1" xmlns:xlink="http://www.w3.org/1999/xlink" width="25px" height="25px" xmlns="http://www.w3.org/2000/svg">
  <g transform="matrix(1 0 0 1 -952 -282 )">
    <path d="M 964.5 282  C 971.5 282  977 287.5  977 294.5  C 977 301.5  971.5 307  964.5 307  C 957.5 307  952 301.5  952 294.5  C 952 287.5  957.5 282  964.5 282  Z " fill-rule="nonzero" fill="#ffffff" stroke="none" />
    <path d="M 964.5 282.5  C 971.22 282.5  976.5 287.78  976.5 294.5  C 976.5 301.22  971.22 306.5  964.5 306.5  C 957.78 306.5  952.5 301.22  952.5 294.5  C 952.5 287.78  957.78 282.5  964.5 282.5  Z " stroke-width="1" stroke="#797979" fill="none" />
  </g>
</svg>