<?xml version="1.0" encoding="utf-8"?>
<svg version="1.1" xmlns:xlink="http://www.w3.org/1999/xlink" width="20px" height="20px" xmlns="http://www.w3.org/2000/svg">
  <g transform="matrix(1 0 0 1 -293 -285 )">
    <path d="M 3.37953795379538 18.3102310231023  L 4.79207920792079 18.3102310231023  L 5.99339933993399 17.1089108910891  L 2.89108910891089 14.006600660066  L 1.68976897689769 15.2079207920792  L 1.68976897689769 16.6204620462046  L 3.37953795379538 16.6204620462046  L 3.37953795379538 18.3102310231023  Z M 11.6039603960396 6.28382838283828  C 11.6655665566557 6.22222222222222  11.6963696369637 6.14741474147415  11.6963696369637 6.05940594059406  C 11.6963696369637 5.86578657865787  11.5995599559956 5.76897689768977  11.4059405940594 5.76897689768977  C 11.3179317931793 5.76897689768977  11.2431243124312 5.7997799779978  11.1815181518152 5.86138613861386  L 4.02640264026403 13.016501650165  C 3.96479647964797 13.0781078107811  3.93399339933993 13.1529152915292  3.93399339933993 13.2409240924092  C 3.93399339933993 13.4345434543454  4.03080308030803 13.5313531353135  4.22442244224422 13.5313531353135  C 4.31243124312431 13.5313531353135  4.38723872387239 13.5005500550055  4.44884488448845 13.4389438943894  L 11.6039603960396 6.28382838283828  Z M 0 14.5082508250825  L 10.983498349835 3.52475247524753  L 16.4752475247525 9.01650165016502  L 5.49174917491749 20  L 0 20  L 0 14.5082508250825  Z M 19.5115511551155 3.59075907590759  C 19.8371837183718 3.93399339933993  20 4.33443344334433  20 4.79207920792079  C 20 5.25852585258526  19.8371837183718 5.65456545654565  19.5115511551155 5.98019801980198  L 17.3201320132013 8.17161716171617  L 11.8283828382838 2.67986798679868  L 14.019801980198 0.501650165016501  C 14.3366336633663 0.167216721672165  14.7326732673267 0  15.2079207920792 0  C 15.6743674367437 0  16.0748074807481 0.167216721672165  16.4092409240924 0.501650165016501  L 19.5115511551155 3.59075907590759  Z " fill-rule="nonzero" fill="#555555" stroke="none" transform="matrix(1 0 0 1 293 285 )" />
  </g>
</svg>