<?xml version="1.0" encoding="utf-8"?>
<svg version="1.1" xmlns:xlink="http://www.w3.org/1999/xlink" width="131px" height="30px" xmlns="http://www.w3.org/2000/svg">
  <defs>
    <mask fill="white" id="clip71">
      <path d="M 0 1.19521912350602  L 0 28.8047808764941  C 0 29.4741035856574  1.55783783783781 30  3.54054054054056 30  L 127.459459459459 30  C 129.442162162162 30  131 29.4741035856574  131 28.8047808764941  L 131 1.19521912350602  C 131 0.525896414342609  129.442162162162 0  127.459459459459 0  L 28.8014184397163 0  L 3.54054054054056 0  C 1.55783783783781 0  0 0.525896414342609  0 1.19521912350602  Z " fill-rule="evenodd" />
    </mask>
  </defs>
  <g transform="matrix(1 0 0 1 -789 -782 )">
    <path d="M 0 1.19521912350602  L 0 28.8047808764941  C 0 29.4741035856574  1.55783783783781 30  3.54054054054056 30  L 127.459459459459 30  C 129.442162162162 30  131 29.4741035856574  131 28.8047808764941  L 131 1.19521912350602  C 131 0.525896414342609  129.442162162162 0  127.459459459459 0  L 28.8014184397163 0  L 3.54054054054056 0  C 1.55783783783781 0  0 0.525896414342609  0 1.19521912350602  Z " fill-rule="nonzero" fill="#d9001b" stroke="none" fill-opacity="0.0352941176470588" transform="matrix(1 0 0 1 789 782 )" />
    <path d="M 0 1.19521912350602  L 0 28.8047808764941  C 0 29.4741035856574  1.55783783783781 30  3.54054054054056 30  L 127.459459459459 30  C 129.442162162162 30  131 29.4741035856574  131 28.8047808764941  L 131 1.19521912350602  C 131 0.525896414342609  129.442162162162 0  127.459459459459 0  L 28.8014184397163 0  L 3.54054054054056 0  C 1.55783783783781 0  0 0.525896414342609  0 1.19521912350602  Z " stroke-width="2" stroke-dasharray="9,4" stroke="#d9001b" fill="none" transform="matrix(1 0 0 1 789 782 )" mask="url(#clip71)" />
  </g>
</svg>