<?xml version="1.0" encoding="utf-8"?>
<svg version="1.1" xmlns:xlink="http://www.w3.org/1999/xlink" width="9px" height="15px" xmlns="http://www.w3.org/2000/svg">
  <g transform="matrix(1 0 0 1 -323 -162 )">
    <path d="M 5.162109375 14.162109375  C 5.345703125 13.978515625  5.4375 13.7578125  5.4375 13.5  C 5.4375 13.2421875  5.345703125 13.021484375  5.162109375 12.837890625  C 4.978515625 12.654296875  4.7578125 12.5625  4.5 12.5625  C 4.2421875 12.5625  4.021484375 12.654296875  3.837890625 12.837890625  C 3.654296875 13.021484375  3.5625 13.2421875  3.5625 13.5  C 3.5625 13.7578125  3.654296875 13.978515625  3.837890625 14.162109375  C 4.021484375 14.345703125  4.2421875 14.4375  4.5 14.4375  C 4.7578125 14.4375  4.978515625 14.345703125  5.162109375 14.162109375  Z M 7.763671875 11.888671875  C 7.837890625 11.814453125  7.875 11.7265625  7.875 11.625  L 7.875 3.375  C 7.875 3.2734375  7.837890625 3.185546875  7.763671875 3.111328125  C 7.689453125 3.037109375  7.6015625 3  7.5 3  L 1.5 3  C 1.3984375 3  1.310546875 3.037109375  1.236328125 3.111328125  C 1.162109375 3.185546875  1.125 3.2734375  1.125 3.375  L 1.125 11.625  C 1.125 11.7265625  1.162109375 11.814453125  1.236328125 11.888671875  C 1.310546875 11.962890625  1.3984375 12  1.5 12  L 7.5 12  C 7.6015625 12  7.689453125 11.962890625  7.763671875 11.888671875  Z M 5.4375 1.875  C 5.5625 1.875  5.625 1.8125  5.625 1.6875  C 5.625 1.5625  5.5625 1.5  5.4375 1.5  L 3.5625 1.5  C 3.4375 1.5  3.375 1.5625  3.375 1.6875  C 3.375 1.8125  3.4375 1.875  3.5625 1.875  L 5.4375 1.875  Z M 8.5546875 0.4453125  C 8.8515625 0.742187499999999  9 1.09375  9 1.5  L 9 13.5  C 9 13.90625  8.8515625 14.2578125  8.5546875 14.5546875  C 8.2578125 14.8515625  7.90625 15  7.5 15  L 1.5 15  C 1.09375 15  0.7421875 14.8515625  0.4453125 14.5546875  C 0.1484375 14.2578125  0 13.90625  0 13.5  L 0 1.5  C 0 1.09375  0.1484375 0.742187499999999  0.4453125 0.4453125  C 0.7421875 0.148437499999998  1.09375 0  1.5 0  L 7.5 0  C 7.90625 0  8.2578125 0.148437499999998  8.5546875 0.4453125  Z " fill-rule="nonzero" fill="#ffffff" stroke="none" transform="matrix(1 0 0 1 323 162 )" />
  </g>
</svg>