<?xml version="1.0" encoding="utf-8"?>
<svg version="1.1" xmlns:xlink="http://www.w3.org/1999/xlink" width="226px" height="219px" xmlns="http://www.w3.org/2000/svg">
  <g transform="matrix(1 0 0 1 -318 -160 )">
    <path d="M 318 160  L 544 160  L 544 379  L 318 379  L 318 160  " fill-rule="nonzero" fill="#cccccc" stroke="none" />
    <path d="M 333 175  L 529 175  L 529 364  L 333 364  L 333 175  " fill-rule="nonzero" fill="#ffffff" stroke="none" />
    <path d="M 451.945 225.7  C 442.747 225.7  435.52 218.473  435.52 209.275  C 435.52 200.077  442.747 192.85  451.945 192.85  C 461.143 192.85  468.37 200.077  468.37 209.275  C 468.37 218.473  461.143 225.7  451.945 225.7  " fill-rule="nonzero" fill="#cccccc" stroke="none" />
    <path d="M 339 359  L 339 261.1  L 385.25 216.6  L 450 255.50796460177  L 487 243.3  L 524 255.50796460177  L 524 359  L 339 359  " fill-rule="nonzero" fill="#169bd5" stroke="none" />
  </g>
</svg>