<?xml version="1.0" encoding="utf-8"?>
<svg version="1.1" xmlns:xlink="http://www.w3.org/1999/xlink" width="14px" height="14px" xmlns="http://www.w3.org/2000/svg">
  <g transform="matrix(1 0 0 1 -441 -422 )">
    <path d="M 10 3  L 13.25 3  C 13.4583333333333 3  13.6354166666667 3.07291666666667  13.78125 3.21875  C 13.9270833333333 3.36458333333333  14 3.54166666666667  14 3.75  L 14 13.25  C 14 13.4583333333333  13.9270833333333 13.6354166666667  13.78125 13.78125  C 13.6354166666667 13.9270833333333  13.4583333333333 14  13.25 14  L 5.75 14  C 5.54166666666667 14  5.36458333333333 13.9270833333333  5.21875 13.78125  C 5.07291666666667 13.6354166666667  5 13.4583333333333  5 13.25  L 5 11  L 0.75 11  C 0.541666666666667 11  0.364583333333333 10.9270833333333  0.21875 10.78125  C 0.0729166666666667 10.6354166666667  0 10.4583333333333  0 10.25  L 0 5  C 0 4.79166666666667  0.0520833333333333 4.5625  0.15625 4.3125  C 0.260416666666667 4.0625  0.385416666666667 3.86458333333333  0.53125 3.71875  L 3.71875 0.53125  C 3.86458333333333 0.385416666666666  4.0625 0.260416666666667  4.3125 0.15625  C 4.5625 0.0520833333333339  4.79166666666667 0  5 0  L 8.25 0  C 8.45833333333333 0  8.63541666666667 0.0729166666666672  8.78125 0.21875  C 8.92708333333333 0.364583333333333  9 0.541666666666666  9 0.75  L 9 3.3125  C 9.35416666666667 3.10416666666667  9.6875 3  10 3  Z M 9 7  L 9 4.6640625  L 6.6640625 7  L 9 7  Z M 4 4  L 4 1.6640625  L 1.6640625 4  L 4 4  Z M 5.15625 7.3125  C 5.26041666666667 7.0625  5.38541666666667 6.86458333333333  5.53125 6.71875  L 8 4.25  L 8 1  L 5 1  L 5 4.25  C 5 4.45833333333333  4.92708333333333 4.63541666666667  4.78125 4.78125  C 4.63541666666667 4.92708333333333  4.45833333333333 5  4.25 5  L 1 5  L 1 10  L 5 10  L 5 8  C 5 7.79166666666667  5.05208333333333 7.5625  5.15625 7.3125  Z M 6 13  L 13 13  L 13 4  L 10 4  L 10 7.25  C 10 7.45833333333333  9.92708333333333 7.63541666666667  9.78125 7.78125  C 9.63541666666667 7.92708333333333  9.45833333333333 8  9.25 8  L 6 8  L 6 13  Z " fill-rule="nonzero" fill="#999999" stroke="none" transform="matrix(1 0 0 1 441 422 )" />
  </g>
</svg>