<?xml version="1.0" encoding="utf-8"?>
<svg version="1.1" xmlns:xlink="http://www.w3.org/1999/xlink" width="12px" height="12px" viewBox="136 228  12 12" xmlns="http://www.w3.org/2000/svg">
  <path d="M 142 228  C 145.36 228  148 230.64  148 234  C 148 237.36  145.36 240  142 240  C 138.64 240  136 237.36  136 234  C 136 230.64  138.64 228  142 228  Z " fill-rule="nonzero" fill="#ffffff" stroke="none" />
  <path d="M 142 228.5  C 145.08 228.5  147.5 230.92  147.5 234  C 147.5 237.08  145.08 239.5  142 239.5  C 138.92 239.5  136.5 237.08  136.5 234  C 136.5 230.92  138.92 228.5  142 228.5  Z " stroke-width="1" stroke="#797979" fill="none" />
  <path d="M 142 237  C 140.32 237  139 235.68  139 234  C 139 232.32  140.32 231  142 231  C 143.68 231  145 232.32  145 234  C 145 235.68  143.68 237  142 237  " fill-rule="nonzero" fill="#797979" stroke="none" />
</svg>