<?xml version="1.0" encoding="utf-8"?>
<svg version="1.1" xmlns:xlink="http://www.w3.org/1999/xlink" width="12px" height="12px" viewBox="335 712  12 12" xmlns="http://www.w3.org/2000/svg">
  <path d="M 341 712  C 344.36 712  347 714.64  347 718  C 347 721.36  344.36 724  341 724  C 337.64 724  335 721.36  335 718  C 335 714.64  337.64 712  341 712  Z " fill-rule="nonzero" fill="#ffffff" stroke="none" />
  <path d="M 341 712.5  C 344.08 712.5  346.5 714.92  346.5 718  C 346.5 721.08  344.08 723.5  341 723.5  C 337.92 723.5  335.5 721.08  335.5 718  C 335.5 714.92  337.92 712.5  341 712.5  Z " stroke-width="1" stroke="#797979" fill="none" />
  <path d="M 341 721  C 339.32 721  338 719.68  338 718  C 338 716.32  339.32 715  341 715  C 342.68 715  344 716.32  344 718  C 344 719.68  342.68 721  341 721  " fill-rule="nonzero" fill="#797979" stroke="none" />
</svg>