<?xml version="1.0" encoding="utf-8"?>
<svg version="1.1" xmlns:xlink="http://www.w3.org/1999/xlink" width="16px" height="14px" xmlns="http://www.w3.org/2000/svg">
  <g transform="matrix(1 0 0 1 -753 -712 )">
    <path d="M 16 12.9166666666667  C 15.9861111165365 13.4919632810737  15.5197410642769 13.9583333333333  14.9444444498698 14  L 1.05555555013021 14  C 0.480258935723132 13.9583333333333  0.0138888834635416 13.4919632810737  0 12.9166666666667  L 0 1.11111111653646  C 0.0138888834635416 0.535814502129381  0.480258935723132 0.0694444498697916  1.05555555013021 0.0694444498697916  L 2.03125 0.0694444498697916  C 2.31889830720354 0.0694444498697916  2.55208333333333 0.302629475999587  2.55208333333333 0.590277783203125  C 2.55208333333333 0.877926090406663  2.31889830720354 1.11111111653646  2.03125 1.11111111653646  L 1 1.11111111653646  L 1 13  L 15 13  L 15 1.11111111653646  L 13.7881944498698 1.11111111653646  C 13.5005461426663 1.11111111653646  13.2673611165365 0.877926090406663  13.2673611165365 0.590277783203125  C 13.2673611165365 0.302629475999587  13.5005461426663 0.0694444498697916  13.7881944498698 0.0694444498697916  L 14.9444444498698 0.0694444498697916  C 15.5197410642769 0.0694444498697916  15.9861111165365 0.535814502129381  16 1.11111111653646  L 16 12.9166666666667  Z " fill-rule="nonzero" fill="#000000" stroke="none" transform="matrix(1 0 0 1 753 712 )" />
  </g>
</svg>