<?xml version="1.0" encoding="utf-8"?>
<svg version="1.1" xmlns:xlink="http://www.w3.org/1999/xlink" width="20px" height="20px" xmlns="http://www.w3.org/2000/svg">
  <g transform="matrix(1 0 0 1 -783 -334 )">
    <path d="M 11.3411458333333 13.6588541666667  C 11.4192708333333 13.7369791666667  11.4583333333333 13.8368055555556  11.4583333333333 13.9583333333333  L 11.4583333333333 16.0416666666667  C 11.4583333333333 16.1631944444444  11.4192708333333 16.2630208333333  11.3411458333333 16.3411458333333  C 11.2630208333333 16.4192708333333  11.1631944444444 16.4583333333333  11.0416666666667 16.4583333333333  L 8.95833333333333 16.4583333333333  C 8.83680555555556 16.4583333333333  8.73697916666667 16.4192708333333  8.65885416666667 16.3411458333333  C 8.58072916666667 16.2630208333333  8.54166666666667 16.1631944444444  8.54166666666667 16.0416666666667  L 8.54166666666667 13.9583333333333  C 8.54166666666667 13.8368055555556  8.58072916666667 13.7369791666667  8.65885416666667 13.6588541666667  C 8.73697916666667 13.5807291666667  8.83680555555556 13.5416666666667  8.95833333333333 13.5416666666667  L 11.0416666666667 13.5416666666667  C 11.1631944444444 13.5416666666667  11.2630208333333 13.5807291666667  11.3411458333333 13.6588541666667  Z M 13.3658854166667 4.70703125  C 14.31640625 5.48394097222222  14.7916666666667 6.41493055555555  14.7916666666667 7.5  C 14.7916666666667 7.93402777777778  14.7265625 8.32465277777778  14.5963541666667 8.671875  C 14.4661458333333 9.01909722222222  14.2686631944444 9.31857638888889  14.00390625 9.5703125  C 13.7391493055556 9.82204861111111  13.5134548611111 10.0130208333333  13.3268229166667 10.1432291666667  C 13.1401909722222 10.2734375  12.8819444444444 10.4296875  12.5520833333333 10.6119791666667  C 12.2743055555556 10.7682291666667  12.0724826388889 10.8897569444444  11.9466145833333 10.9765625  C 11.8207465277778 11.0633680555556  11.7078993055556 11.1675347222222  11.6080729166667 11.2890625  C 11.5082465277778 11.4105902777778  11.4583333333333 11.5364583333333  11.4583333333333 11.6666666666667  L 11.4583333333333 12.0833333333333  C 11.4583333333333 12.2048611111111  11.4192708333333 12.3046875  11.3411458333333 12.3828125  C 11.2630208333333 12.4609375  11.1631944444444 12.5  11.0416666666667 12.5  L 8.95833333333333 12.5  C 8.83680555555556 12.5  8.73697916666667 12.4609375  8.65885416666667 12.3828125  C 8.58072916666667 12.3046875  8.54166666666667 12.2048611111111  8.54166666666667 12.0833333333333  L 8.54166666666667 11.1979166666667  C 8.54166666666667 10.8940972222222  8.58723958333333 10.6141493055556  8.67838541666667 10.3580729166667  C 8.76953125 10.1019965277778  8.87369791666667 9.89583333333333  8.99088541666667 9.73958333333333  C 9.10807291666667 9.58333333333333  9.27734375 9.42925347222222  9.49869791666667 9.27734375  C 9.72005208333333 9.12543402777778  9.89800347222222 9.01475694444444  10.0325520833333 8.9453125  C 10.1671006944444 8.87586805555556  10.3602430555556 8.78472222222222  10.6119791666667 8.671875  C 11.0720486111111 8.45486111111111  11.3975694444444 8.26822916666667  11.5885416666667 8.11197916666667  C 11.7795138888889 7.95572916666667  11.875 7.74305555555556  11.875 7.47395833333333  C 11.875 7.109375  11.6861979166667 6.79904513888889  11.30859375 6.54296875  C 10.9309895833333 6.28689236111111  10.5164930555556 6.15885416666667  10.0651041666667 6.15885416666667  C 9.57899305555556 6.15885416666667  9.16666666666667 6.27604166666667  8.828125 6.51041666666667  C 8.57638888888889 6.68402777777778  8.22916666666667 7.04427083333333  7.78645833333333 7.59114583333333  C 7.70833333333333 7.6953125  7.59982638888889 7.74739583333333  7.4609375 7.74739583333333  C 7.36545138888889 7.74739583333333  7.28298611111111 7.72135416666667  7.21354166666667 7.66927083333333  L 5.80729166666667 6.6015625  C 5.72048611111111 6.54079861111111  5.66840277777778 6.45399305555555  5.65104166666667 6.34114583333333  C 5.63368055555556 6.22829861111111  5.65538194444445 6.12847222222222  5.71614583333333 6.04166666666667  C 6.77517361111111 4.375  8.28993055555556 3.54166666666667  10.2604166666667 3.54166666666667  C 11.3802083333333 3.54166666666667  12.4153645833333 3.93012152777778  13.3658854166667 4.70703125  Z M 13.2356770833333 2.33072916666667  C 12.20703125 1.88802083333333  11.1284722222222 1.66666666666667  10 1.66666666666667  C 8.87152777777778 1.66666666666667  7.79296875 1.88802083333333  6.76432291666667 2.33072916666667  C 5.73567708333333 2.7734375  4.85026041666667 3.36588541666667  4.10807291666667 4.10807291666667  C 3.36588541666667 4.85026041666667  2.7734375 5.73567708333333  2.33072916666667 6.76432291666667  C 1.88802083333333 7.79296875  1.66666666666667 8.87152777777778  1.66666666666667 10  C 1.66666666666667 11.1284722222222  1.88802083333333 12.20703125  2.33072916666667 13.2356770833333  C 2.7734375 14.2643229166667  3.36588541666667 15.1497395833333  4.10807291666667 15.8919270833333  C 4.85026041666667 16.6341145833333  5.73567708333333 17.2265625  6.76432291666667 17.6692708333333  C 7.79296875 18.1119791666667  8.87152777777778 18.3333333333333  10 18.3333333333333  C 11.1284722222222 18.3333333333333  12.20703125 18.1119791666667  13.2356770833333 17.6692708333333  C 14.2643229166667 17.2265625  15.1497395833333 16.6341145833333  15.8919270833333 15.8919270833333  C 16.6341145833333 15.1497395833333  17.2265625 14.2643229166667  17.6692708333333 13.2356770833333  C 18.1119791666667 12.20703125  18.3333333333333 11.1284722222222  18.3333333333333 10  C 18.3333333333333 8.87152777777778  18.1119791666667 7.79296875  17.6692708333333 6.76432291666667  C 17.2265625 5.73567708333333  16.6341145833333 4.85026041666667  15.8919270833333 4.10807291666667  C 15.1497395833333 3.36588541666667  14.2643229166667 2.7734375  13.2356770833333 2.33072916666667  Z M 18.6588541666667 4.98046875  C 19.5529513888889 6.51258680555555  20 8.18576388888889  20 10  C 20 11.8142361111111  19.5529513888889 13.4874131944444  18.6588541666667 15.01953125  C 17.7647569444444 16.5516493055556  16.5516493055556 17.7647569444444  15.01953125 18.6588541666667  C 13.4874131944444 19.5529513888889  11.8142361111111 20  10 20  C 8.18576388888889 20  6.51258680555556 19.5529513888889  4.98046875 18.6588541666667  C 3.44835069444444 17.7647569444444  2.23524305555556 16.5516493055556  1.34114583333333 15.01953125  C 0.447048611111111 13.4874131944444  0 11.8142361111111  0 10  C 0 8.18576388888889  0.447048611111111 6.51258680555555  1.34114583333333 4.98046875  C 2.23524305555556 3.44835069444444  3.44835069444444 2.23524305555555  4.98046875 1.34114583333333  C 6.51258680555556 0.447048611111109  8.18576388888889 0  10 0  C 11.8142361111111 0  13.4874131944444 0.447048611111109  15.01953125 1.34114583333333  C 16.5516493055556 2.23524305555555  17.7647569444444 3.44835069444444  18.6588541666667 4.98046875  Z " fill-rule="nonzero" fill="#7f7f7f" stroke="none" transform="matrix(1 0 0 1 783 334 )" />
  </g>
</svg>