<?xml version="1.0" encoding="utf-8"?>
<svg version="1.1" xmlns:xlink="http://www.w3.org/1999/xlink" width="19px" height="24px" xmlns="http://www.w3.org/2000/svg">
  <g transform="matrix(1 0 0 1 -563 -177 )">
    <path d="M 19 1.77272727272727  C 18.9645422831083 0.831758745641322  18.1946252278307 0.0692093176869867  17.2445652173913 0  L 1.7554347826087 0  C 0.805374772169258 0.0692093176869882  0.0354577168916931 0.831758745641322  0 1.77272727272727  L 0 22.2272727272727  C 0.0354577168916921 23.1682412543587  0.805374772169257 23.930790682313  1.7554347826087 23.9318181818182  L 5.11679121376812 23.9318181818182  C 5.59203624306092 23.9318181818182  5.97729846014493 23.5502426845149  5.97729846014493 23.0795454545455  C 5.97729846014493 22.608848224576  5.59203624306092 22.2272727272727  5.11679121376812 22.2272727272727  L 2 22.2272727272727  L 2 2  L 17 2  L 17 22.2272727272727  L 13.9100996376812 22.2272727272727  C 13.4348546083884 22.2272727272727  13.0495923913043 22.608848224576  13.0495923913043 23.0795454545455  C 13.0495923913043 23.5502426845149  13.4348546083884 23.9318181818182  13.9100996376812 23.9318181818182  L 17.2445652173913 23.9318181818182  C 18.1946252278307 23.930790682313  18.9645422831083 23.1682412543587  19 22.2272727272727  L 19 1.77272727272727  Z " fill-rule="nonzero" fill="#ff6800" stroke="none" transform="matrix(1 0 0 1 563 177 )" />
  </g>
</svg>