<?xml version="1.0" encoding="utf-8"?>
<svg version="1.1" xmlns:xlink="http://www.w3.org/1999/xlink" width="24px" height="23px" xmlns="http://www.w3.org/2000/svg">
  <g transform="matrix(1 0 0 1 -814 -178 )">
    <path d="M 23.9999995379057 19.031901734104  C 24.0009049240132 21.2189648562135  22.1961296371726 22.9940624517398  19.9655590068088 23  L 10.6317288381217 23  C 8.40110525822042 22.9940623417775  6.59630813390682 21.2188837939202  6.59728830702482 19.0317687861272  L 6.59728830702482 9.8514450867052  C 6.59630813390682 7.66433007891215  8.40110525822042 5.88915153105487  10.6317288381217 5.88321387283237  L 19.9655590068088 5.88321387283237  C 22.1962136392062 5.88907846834569  24.0010543250232 7.6642998628173  23.9999995379057 9.8514450867052  L 23.9999995379057 19.031901734104  Z M 10.6317288381217 7.68625433526011  C 9.4146405189127 7.68947985268969  8.42990597991915 8.65809628618151  8.43050857927157 9.8514450867052  L 8.43050857927157 19.031901734104  C 8.42998059072004 20.2252203211221  9.41467157201979 21.1937939098712  10.6317288381217 21.1970924855491  L 19.9655590068088 21.1970924855491  C 21.18266925979 21.1938670740847  22.1674426659518 20.225272074194  22.1669148588744 19.031901734104  L 22.1669148588744 9.8514450867052  C 22.1673678803868 8.65812663264191  21.1826163113798 7.68961258392251  19.9655590068088 7.686387283237  L 10.6317288381217 7.686387283237  Z M 4.58169516006121 17.1167861271676  L 3.90874603201678 17.1167861271676  C 1.74760757573074 17.1110682735473  -0.000979430199599917 15.3911816238529  0 13.2721965317919  L 0 3.84458959537572  C -0.000979430199600158 1.72560450331471  1.74760757573074 0.00571785362034747  3.90874603201678 0  L 13.4939660220608 0  C 15.6552597722676 0.00535242118744908  17.4040646752451 1.72545339148537  17.4027116424792 3.84458959537572  C 17.4027568397998 3.848232985845  17.4027794390869 3.8518766121274  17.4027794390869 3.85552027209815  C 17.4027794390869 4.35187421951833  16.9923991026848 4.75424859579757  16.4861693029636 4.75424859579757  C 15.9799395032423 4.75424859579757  15.5695591668402 4.35187421951833  15.5695591668402 3.85552027209815  C 15.5695591668402 3.8518766121274  15.5695817661273 3.848232985845  15.5696269634479 3.84458959537572  C 15.5701544403546 2.71934917033194  14.6415911514157 1.80604606787354  13.4939660220608 1.80304046242775  L 3.90874603201678 1.80304046242775  C 2.76117388950364 1.80611923651736  1.8326930290589 2.71940092554588  1.83322068384511 3.84458959537572  L 1.83322068384511 13.2721965317919  C 1.8326930290589 14.3973852016217  2.76117388950364 15.3106668906503  3.90874603201678 15.3137456647399  L 4.58169516006121 15.3137456647399  C 5.08949756714848 15.3137456647399  5.50115275370805 15.7173700205904  5.50115275370805 16.2152658959538  C 5.50115275370805 16.7131617713171  5.08949756714848 17.1167861271676  4.58169516006121 17.1167861271676  Z " fill-rule="nonzero" fill="#000000" stroke="none" fill-opacity="0.650980392156863" transform="matrix(1 0 0 1 814 178 )" />
  </g>
</svg>