<?xml version="1.0" encoding="utf-8"?>
<svg version="1.1" xmlns:xlink="http://www.w3.org/1999/xlink" width="5px" height="9px" xmlns="http://www.w3.org/2000/svg">
  <g transform="matrix(1 0 0 1 -299 -185 )">
    <path d="M 2.86783854166667 8.497265625  C 2.96983506944444 8.387109375  3.02083333333333 8.2546875  3.02083333333333 8.1  C 3.02083333333333 7.9453125  2.96983506944444 7.812890625  2.86783854166667 7.702734375  C 2.76584201388889 7.592578125  2.64322916666667 7.5375  2.5 7.5375  C 2.35677083333333 7.5375  2.23415798611111 7.592578125  2.13216145833333 7.702734375  C 2.03016493055556 7.812890625  1.97916666666667 7.9453125  1.97916666666667 8.1  C 1.97916666666667 8.2546875  2.03016493055556 8.387109375  2.13216145833333 8.497265625  C 2.23415798611111 8.607421875  2.35677083333333 8.6625  2.5 8.6625  C 2.64322916666667 8.6625  2.76584201388889 8.607421875  2.86783854166667 8.497265625  Z M 4.31315104166667 7.133203125  C 4.35438368055556 7.088671875  4.375 7.0359375  4.375 6.975  L 4.375 2.025  C 4.375 1.9640625  4.35438368055556 1.911328125  4.31315104166667 1.866796875  C 4.27191840277778 1.822265625  4.22309027777778 1.8  4.16666666666667 1.8  L 0.833333333333333 1.8  C 0.776909722222222 1.8  0.728081597222222 1.822265625  0.686848958333333 1.866796875  C 0.645616319444444 1.911328125  0.625 1.9640625  0.625 2.025  L 0.625 6.975  C 0.625 7.0359375  0.645616319444444 7.088671875  0.686848958333333 7.133203125  C 0.728081597222222 7.177734375  0.776909722222222 7.2  0.833333333333333 7.2  L 4.16666666666667 7.2  C 4.22309027777778 7.2  4.27191840277778 7.177734375  4.31315104166667 7.133203125  Z M 3.02083333333333 1.125  C 3.09027777777778 1.125  3.125 1.0875  3.125 1.0125  C 3.125 0.9375  3.09027777777778 0.9  3.02083333333333 0.9  L 1.97916666666667 0.9  C 1.90972222222222 0.9  1.875 0.9375  1.875 1.0125  C 1.875 1.0875  1.90972222222222 1.125  1.97916666666667 1.125  L 3.02083333333333 1.125  Z M 4.75260416666667 0.2671875  C 4.91753472222222 0.4453125  5 0.65625  5 0.9  L 5 8.1  C 5 8.34375  4.91753472222222 8.5546875  4.75260416666667 8.7328125  C 4.58767361111111 8.9109375  4.39236111111111 9  4.16666666666667 9  L 0.833333333333333 9  C 0.607638888888889 9  0.412326388888889 8.9109375  0.247395833333333 8.7328125  C 0.0824652777777778 8.5546875  0 8.34375  0 8.1  L 0 0.9  C 0 0.65625  0.0824652777777778 0.4453125  0.247395833333333 0.2671875  C 0.412326388888889 0.0890624999999989  0.607638888888889 0  0.833333333333333 0  L 4.16666666666667 0  C 4.39236111111111 0  4.58767361111111 0.0890624999999989  4.75260416666667 0.2671875  Z " fill-rule="nonzero" fill="#ffffff" stroke="none" transform="matrix(1 0 0 1 299 185 )" />
  </g>
</svg>