<?xml version="1.0" encoding="utf-8"?>
<svg version="1.1" xmlns:xlink="http://www.w3.org/1999/xlink" width="224px" height="218px" xmlns="http://www.w3.org/2000/svg">
  <g transform="matrix(1 0 0 1 -298 -187 )">
    <path d="M 298 187  L 522 187  L 522 405  L 298 405  L 298 187  " fill-rule="nonzero" fill="#cccccc" stroke="none" />
    <path d="M 313 202  L 507 202  L 507 390  L 313 390  L 313 202  " fill-rule="nonzero" fill="#ffffff" stroke="none" />
    <path d="M 430.83 252.4  C 421.674 252.4  414.48 245.206  414.48 236.05  C 414.48 226.894  421.674 219.7  430.83 219.7  C 439.986 219.7  447.18 226.894  447.18 236.05  C 447.18 245.206  439.986 252.4  430.83 252.4  " fill-rule="nonzero" fill="#cccccc" stroke="none" />
    <path d="M 319 385  L 319 287.65  L 364.75 243.4  L 428.8 281.644642857143  L 465.4 269.95  L 502 281.644642857143  L 502 385  L 319 385  " fill-rule="nonzero" fill="#169bd5" stroke="none" />
  </g>
</svg>