<?xml version="1.0" encoding="utf-8"?>
<svg version="1.1" xmlns:xlink="http://www.w3.org/1999/xlink" width="19px" height="17px" xmlns="http://www.w3.org/2000/svg">
  <g transform="matrix(1 0 0 1 -348 -447 )">
    <path d="M 18.4380580357143 7.681875  C 18.8126860119048 8.63104166666666  19 9.81041666666667  19 11.22  C 19 12.3958333333333  18.5511532738095 13.993125  17.6534598214286 16.011875  C 17.6322544642857 16.0614583333333  17.5951450892857 16.1464583333333  17.5421316964286 16.266875  C 17.4891183035714 16.3872916666667  17.44140625 16.4935416666667  17.3989955357143 16.585625  C 17.3565848214286 16.6777083333333  17.3106398809524 16.755625  17.2611607142857 16.819375  C 17.1763392857143 16.9397916666667  17.077380952381 17  16.9642857142857 17  C 16.8582589285714 17  16.7752046130952 16.9645833333333  16.7151227678571 16.89375  C 16.6550409226191 16.8229166666667  16.625 16.734375  16.625 16.628125  C 16.625 16.564375  16.6338355654762 16.4705208333333  16.6515066964286 16.3465625  C 16.669177827381 16.2226041666667  16.6780133928571 16.139375  16.6780133928571 16.096875  C 16.7133556547619 15.6152083333333  16.7310267857143 15.1795833333333  16.7310267857143 14.79  C 16.7310267857143 14.0745833333333  16.669177827381 13.4335416666667  16.5454799107143 12.866875  C 16.4217819940476 12.3002083333333  16.2503720238095 11.8096875  16.03125 11.3953125  C 15.8121279761905 10.9809375  15.5293898809524 10.6232291666667  15.1830357142857 10.3221875  C 14.836681547619 10.0211458333333  14.4638206845238 9.775  14.064453125 9.58375  C 13.6650855654762 9.3925  13.1950334821429 9.24197916666667  12.654296875 9.1321875  C 12.1135602678571 9.02239583333333  11.5692894345238 8.94625  11.021484375 8.90375  C 10.4736793154762 8.86125  9.85342261904762 8.84  9.16071428571429 8.84  L 6.78571428571429 8.84  L 6.78571428571429 11.56  C 6.78571428571429 11.7441666666667  6.71856398809524 11.9035416666667  6.58426339285714 12.038125  C 6.44996279761905 12.1727083333333  6.29092261904762 12.24  6.10714285714286 12.24  C 5.9233630952381 12.24  5.76432291666667 12.1727083333333  5.63002232142857 12.038125  L 0.201450892857143 6.598125  C 0.0671502976190476 6.46354166666667  0 6.30416666666667  0 6.12  C 0 5.93583333333333  0.0671502976190476 5.77645833333333  0.201450892857143 5.641875  L 5.63002232142857 0.201874999999999  C 5.76432291666667 0.0672916666666659  5.9233630952381 0  6.10714285714286 0  C 6.29092261904762 0  6.44996279761905 0.0672916666666659  6.58426339285714 0.201874999999999  C 6.71856398809524 0.336458333333331  6.78571428571429 0.495833333333332  6.78571428571429 0.680000000000001  L 6.78571428571429 3.4  L 9.16071428571429 3.4  C 14.2005208333333 3.4  17.29296875 4.82729166666667  18.4380580357143 7.681875  Z " fill-rule="nonzero" fill="#999999" stroke="none" transform="matrix(1 0 0 1 348 447 )" />
  </g>
</svg>