<?xml version="1.0" encoding="utf-8"?>
<svg version="1.1" xmlns:xlink="http://www.w3.org/1999/xlink" width="25px" height="25px" xmlns="http://www.w3.org/2000/svg">
  <g transform="matrix(1 0 0 1 -173 -709 )">
    <path d="M 185.5 709  C 192.5 709  198 714.5  198 721.5  C 198 728.5  192.5 734  185.5 734  C 178.5 734  173 728.5  173 721.5  C 173 714.5  178.5 709  185.5 709  Z " fill-rule="nonzero" fill="#ffffff" stroke="none" />
    <path d="M 185.5 709.5  C 192.22 709.5  197.5 714.78  197.5 721.5  C 197.5 728.22  192.22 733.5  185.5 733.5  C 178.78 733.5  173.5 728.22  173.5 721.5  C 173.5 714.78  178.78 709.5  185.5 709.5  Z " stroke-width="1" stroke="#cccccc" fill="none" />
  </g>
</svg>