<?xml version="1.0" encoding="utf-8"?>
<svg version="1.1" xmlns:xlink="http://www.w3.org/1999/xlink" width="30px" height="30px" xmlns="http://www.w3.org/2000/svg">
  <g transform="matrix(1 0 0 1 -165 -385 )">
    <path d="M 180 385  C 188.4 385  195 391.6  195 400  C 195 408.4  188.4 415  180 415  C 171.6 415  165 408.4  165 400  C 165 391.6  171.6 385  180 385  Z " fill-rule="nonzero" fill="#ffffff" stroke="none" />
    <path d="M 180 385.5  C 188.12 385.5  194.5 391.88  194.5 400  C 194.5 408.12  188.12 414.5  180 414.5  C 171.88 414.5  165.5 408.12  165.5 400  C 165.5 391.88  171.88 385.5  180 385.5  Z " stroke-width="1" stroke="#797979" fill="none" />
  </g>
</svg>