<?xml version="1.0" encoding="utf-8"?>
<svg version="1.1" xmlns:xlink="http://www.w3.org/1999/xlink" width="12px" height="12px" xmlns="http://www.w3.org/2000/svg">
  <g transform="matrix(1 0 0 1 -320 -771 )">
    <path d="M 11.7171717171717 8.969696969697  C 11.9057239057239 9.15824915824942  12 9.38720538720554  12 9.65656565656536  C 12 9.92592592592609  11.9057239057239 10.1548821548822  11.7171717171717 10.3434343434346  L 10.3434343434344 11.7171717171718  C 10.1548821548822 11.9057239057238  9.92592592592587 12  9.65656565656559 12  C 9.38720538720531 12  9.15824915824919 11.9057239057238  8.969696969697 11.7171717171718  L 6 8.74747474747483  L 3.030303030303 11.7171717171718  C 2.84175084175081 11.9057239057238  2.61279461279469 12  2.34343434343441 12  C 2.07407407407413 12  1.84511784511778 11.9057239057238  1.65656565656559 11.7171717171718  L 0.282828282828291 10.3434343434346  C 0.094276094276097 10.1548821548822  0 9.92592592592609  0 9.65656565656536  C 0 9.38720538720554  0.094276094276097 9.15824915824942  0.282828282828291 8.969696969697  L 3.25252525252517 6  L 0.282828282828291 3.030303030303  C 0.094276094276097 2.84175084175058  0 2.61279461279446  0 2.34343434343464  C 0 2.07407407407391  0.094276094276097 1.84511784511778  0.282828282828291 1.65656565656536  L 1.65656565656559 0.282828282828177  C 1.84511784511778 0.0942760942762106  2.07407407407413 0  2.34343434343441 0  C 2.61279461279469 0  2.84175084175081 0.0942760942762106  3.030303030303 0.282828282828177  L 6 3.25252525252517  L 8.969696969697 0.282828282828177  C 9.15824915824919 0.0942760942762106  9.38720538720531 0  9.65656565656559 0  C 9.92592592592587 0  10.1548821548822 0.0942760942762106  10.3434343434344 0.282828282828177  L 11.7171717171717 1.65656565656536  C 11.9057239057239 1.84511784511778  12 2.07407407407391  12 2.34343434343464  C 12 2.61279461279446  11.9057239057239 2.84175084175058  11.7171717171717 3.030303030303  L 8.74747474747483 6  L 11.7171717171717 8.969696969697  Z " fill-rule="nonzero" fill="#cccccc" stroke="none" transform="matrix(1 0 0 1 320 771 )" />
  </g>
</svg>