<?xml version="1.0" encoding="utf-8"?>
<svg version="1.1" xmlns:xlink="http://www.w3.org/1999/xlink" width="14px" height="12px" xmlns="http://www.w3.org/2000/svg">
  <g transform="matrix(1 0 0 1 -1060 -1140 )">
    <path d="M 13.0625 2.48778289605451  C 13.6875 3.25585820148216  14 4.09293010214293  14 4.99899859803726  C 14 5.9050670939316  13.6875 6.74213899459237  13.0625 7.51021430002002  C 12.4375 8.27828960544767  11.5885416666667 8.88493891448039  10.515625 9.33016222711795  C 9.44270833333336 9.77538553975575  8.27083333333333 9.99799719607453  7 9.99799719607453  C 6.63541666666666 9.99799719607453  6.25781249999999 9.97716803524929  5.86718749999998 9.93550971359906  C 4.83593750000002 10.8467854996996  3.63802083333331 11.4768676146606  2.27343749999997 11.825756058482  C 2.01822916666668 11.8986581213699  1.72135416666668 11.9559383136391  1.38281250000002 11.9975966352894  C 1.29427083333336 12.0080112157021  1.21484375000001 11.9845784097736  1.14453124999998 11.9272982175047  C 1.07421875 11.8700180252354  1.02864583333332 11.7945123172442  1.00781249999999 11.700781093531  L 1.00781249999999 11.6929701582215  C 0.992187500000009 11.6721409973963  0.990885416666687 11.6408972561586  1.00390625000002 11.5992389345083  C 1.01692708333336 11.5575806128581  1.02213541666665 11.5315441618266  1.01953125000001 11.5211295814141  C 1.01692708333336 11.5107150010014  1.02864583333332 11.4859803725215  1.05468749999999 11.4469256959745  L 1.1015625 11.3766272781895  C 1.1015625 11.3766272781895  1.11979166666668 11.3544962948127  1.15624999999999 11.3102343280594  C 1.19270833333336 11.265972361306  1.21354166666669 11.2425395553775  1.21874999999998 11.2399359102745  C 1.25520833333335 11.198277588624  1.33593750000002 11.1084518325657  1.46093749999999 10.970458642099  C 1.58593750000002 10.8324654516323  1.67578125 10.7335269377128  1.73046874999999 10.6736431003406  C 1.78515624999999 10.6137592629681  1.86588541666666 10.510915281394  1.97265625 10.3651111556179  C 2.07942708333335 10.2193070298419  2.16406249999998 10.0865211295815  2.22656250000003 9.96675345483679  C 2.28906250000001 9.8469857800921  2.35937499999999 9.69337071900666  2.43750000000001 9.50590827158025  C 2.51562499999998 9.31844582415383  2.58333333333331 9.12056879631491  2.64062500000001 8.91227718806327  C 1.82291666666668 8.44882835970371  1.17838541666664 7.87602643701174  0.707031250000021 7.19387141998803  C 0.23567708333334 6.51171640296409  0 5.78009212898066  0 4.99899859803726  C 0 4.32205087121981  0.184895833333313 3.67504506308824  0.554687499999995 3.05798117364302  C 0.924479166666677 2.44091728419779  1.42187499999998 1.90847186060489  2.046875 1.46064490286409  C 2.67187499999998 1.01281794512329  3.41666666666669 0.65742038854407  4.28125000000002 0.394452233126442  C 5.14583333333336 0.131484077708814  6.05208333333335 0  7 0  C 8.27083333333333 0  9.44270833333336 0.222611656318782  10.515625 0.667834968956573  C 11.5885416666667 1.11305828159414  12.4375 1.71970759062686  13.0625 2.48778289605451  Z " fill-rule="nonzero" fill="#cccccc" stroke="none" transform="matrix(1 0 0 1 1060 1140 )" />
  </g>
</svg>