<?xml version="1.0" encoding="utf-8"?>
<svg version="1.1" xmlns:xlink="http://www.w3.org/1999/xlink" width="4px" height="12px" xmlns="http://www.w3.org/2000/svg">
  <g transform="matrix(1 0 0 1 -1075 -1067 )">
    <path d="M 3.70833333333333 8.96590909090901  C 3.9027777777778 9.125  4 9.31818181818176  4 9.5454545454545  L 4 11.1818181818182  C 4 11.409090909091  3.9027777777778 11.6022727272727  3.70833333333333 11.7613636363637  C 3.51388888888886 11.9204545454545  3.27777777777776 12  2.99999999999997 12  L 1.00000000000003 12  C 0.722222222222239 12  0.486111111111141 11.9204545454545  0.291666666666671 11.7613636363637  C 0.0972222222222011 11.6022727272727  0 11.409090909091  0 11.1818181818182  L 0 9.5454545454545  C 0 9.31818181818176  0.0972222222222011 9.125  0.291666666666671 8.96590909090901  C 0.486111111111141 8.80681818181824  0.722222222222239 8.72727272727275  1.00000000000003 8.72727272727275  L 2.99999999999997 8.72727272727275  C 3.27777777777776 8.72727272727275  3.51388888888886 8.80681818181824  3.70833333333333 8.96590909090901  Z M 3.70833333333333 4.60227272727275  C 3.9027777777778 4.76136363636374  4 4.9545454545455  4 5.18181818181824  L 4 6.81818181818176  C 4 7.0454545454545  3.9027777777778 7.23863636363626  3.70833333333333 7.39772727272725  C 3.51388888888886 7.55681818181824  3.27777777777776 7.63636363636374  2.99999999999997 7.63636363636374  L 1.00000000000003 7.63636363636374  C 0.722222222222239 7.63636363636374  0.486111111111141 7.55681818181824  0.291666666666671 7.39772727272725  C 0.0972222222222011 7.23863636363626  0 7.0454545454545  0 6.81818181818176  L 0 5.18181818181824  C 0 4.9545454545455  0.0972222222222011 4.76136363636374  0.291666666666671 4.60227272727275  C 0.486111111111141 4.44318181818176  0.722222222222239 4.36363636363626  1.00000000000003 4.36363636363626  L 2.99999999999997 4.36363636363626  C 3.27777777777776 4.36363636363626  3.51388888888886 4.44318181818176  3.70833333333333 4.60227272727275  Z M 3.70833333333333 0.23863636363626  C 3.9027777777778 0.397727272727252  4 0.590909090909008  4 0.818181818181756  L 4 2.4545454545455  C 4 2.68181818181824  3.9027777777778 2.875  3.70833333333333 3.03409090909099  C 3.51388888888886 3.19318181818176  3.27777777777776 3.27272727272725  2.99999999999997 3.27272727272725  L 1.00000000000003 3.27272727272725  C 0.722222222222239 3.27272727272725  0.486111111111141 3.19318181818176  0.291666666666671 3.03409090909099  C 0.0972222222222011 2.875  0 2.68181818181824  0 2.4545454545455  L 0 0.818181818181756  C 0 0.590909090909008  0.0972222222222011 0.397727272727252  0.291666666666671 0.23863636363626  C 0.486111111111141 0.0795454545454959  0.722222222222239 0  1.00000000000003 0  L 2.99999999999997 0  C 3.27777777777776 0  3.51388888888886 0.0795454545454959  3.70833333333333 0.23863636363626  Z " fill-rule="nonzero" fill="#cccccc" stroke="none" transform="matrix(1 0 0 1 1075 1067 )" />
  </g>
</svg>