<?xml version="1.0" encoding="utf-8"?>
<svg version="1.1" xmlns:xlink="http://www.w3.org/1999/xlink" width="26px" height="26px" xmlns="http://www.w3.org/2000/svg">
  <g transform="matrix(1 0 0 1 -425 -667 )">
    <path d="M 438 667  C 445.28 667  451 672.72  451 680  C 451 687.28  445.28 693  438 693  C 430.72 693  425 687.28  425 680  C 425 672.72  430.72 667  438 667  Z " fill-rule="nonzero" fill="#ffffff" stroke="none" />
    <path d="M 438 667.5  C 445 667.5  450.5 673  450.5 680  C 450.5 687  445 692.5  438 692.5  C 431 692.5  425.5 687  425.5 680  C 425.5 673  431 667.5  438 667.5  Z " stroke-width="1" stroke="#797979" fill="none" />
  </g>
</svg>