<?xml version="1.0" encoding="utf-8"?>
<svg version="1.1" xmlns:xlink="http://www.w3.org/1999/xlink" width="15px" height="13px" xmlns="http://www.w3.org/2000/svg">
  <g transform="matrix(1 0 0 1 -1047 -226 )">
    <path d="M 13.9955357142857 2.69509813739251  C 14.6651785714286 3.52717971827224  15 4.43400761065504  15 5.41558181454047  C 15 6.3971560184259  14.6651785714286 7.30398391080826  13.9955357142857 8.13606549168844  C 13.3258928571429 8.96814707256817  12.4162946428571 9.6253504906872  11.2667410714286 10.1076757460446  C 10.1171875 10.590001001402  8.86160714285711 10.8311636290809  7.5 10.8311636290809  C 7.109375 10.8311636290809  6.70479910714289 10.8085987048535  6.28627232142856 10.763468856399  C 5.18136160714289 11.7506842913413  3.89787946428567 12.4332732492157  2.43582589285711 12.811235730022  C 2.16238839285711 12.8902129648172  1.84430803571433 12.9522665064424  1.48158482142856 12.9973963548969  C 1.38671875 13.0086788170106  1.30161830357144 12.9832932772547  1.22628348214289 12.92123973563  C 1.15094866071433 12.8591861940049  1.10212053571422 12.7773883436812  1.07979910714289 12.6758461846584  L 1.07979910714289 12.6673843380731  C 1.06305803571433 12.6448194138461  1.06166294642856 12.6109720275049  1.07561383928578 12.5658421790508  C 1.08956473214289 12.5207123305963  1.09514508928567 12.492506175312  1.09235491071433 12.4812237131987  C 1.08956473214289 12.4699412510849  1.10212053571422 12.4431454035648  1.13002232142856 12.4008361706392  L 1.18024553571433 12.3246795513719  C 1.18024553571433 12.3246795513719  1.19977678571433 12.3007043193802  1.23883928571433 12.2527538553977  C 1.27790178571433 12.2048033914148  1.30022321428578 12.1794178516589  1.30580357142856 12.1765972361309  C 1.34486607142856 12.1314673876759  1.43136160714289 12.0341561519463  1.56529017857144 11.8846635289406  C 1.69921875 11.7351709059349  1.79547991071433 11.6279875158557  1.85407366071433 11.5631133587021  C 1.91266741071422 11.4982392015486  1.99916294642856 11.3868248881768  2.11356026785711 11.2288704185862  C 2.22795758928578 11.0709159489952  2.31863839285711 10.9270645570468  2.38560267857144 10.7973162427397  C 2.45256696428578 10.6675679284331  2.52790178571422 10.5011516122572  2.61160714285711 10.2980672942122  C 2.6953125 10.0949829761666  2.76785714285711 9.88061619600785  2.82924107142856 9.65496695373531  C 1.953125 9.15289738967886  1.26255580357144 8.53236197342949  0.75753348214289 7.79336070498721  C 0.252511160714334 7.05435943654447  0 6.26176647306238  0 5.41558181454047  C 0 4.68222177715461  0.198102678571445 3.98129881834575  0.594308035714334 3.31281293811344  C 0.99051339285711 2.64432705788113  1.5234375 2.06751118232205  2.19308035714289 1.58236531143621  C 2.86272321428567 1.09721944055036  3.66071428571433 0.712205420922601  4.58705357142856 0.427323252553833  C 5.51339285714289 0.142441084184611  6.484375 0  7.5 0  C 8.86160714285711 0  10.1171875 0.241162627678477  11.2667410714286 0.723487883036341  C 12.4162946428571 1.20581313839375  13.3258928571429 1.86301655651232  13.9955357142857 2.69509813739251  Z " fill-rule="nonzero" fill="#cccccc" stroke="none" transform="matrix(1 0 0 1 1047 226 )" />
  </g>
</svg>