<?xml version="1.0" encoding="utf-8"?>
<svg version="1.1" xmlns:xlink="http://www.w3.org/1999/xlink" width="327px" height="72px" xmlns="http://www.w3.org/2000/svg">
  <defs>
    <mask fill="white" id="clip33">
      <path d="M 0 2.86852589641421  L 0 69.1314741035858  C 0 70.7378486055777  3.88864864864882 72  8.83783783783804 72  L 93.0338028169048 72  L 318.162162162162 72  C 323.111351351351 72  327 70.7378486055777  327 69.1314741035858  L 327 2.86852589641421  C 327 1.26215139442235  323.111351351351 0  318.162162162162 0  L 8.83783783783804 0  C 3.88864864864882 0  0 1.26215139442235  0 2.86852589641421  Z " fill-rule="evenodd" />
    </mask>
  </defs>
  <g transform="matrix(1 0 0 1 -1466 -228 )">
    <path d="M 0 2.86852589641421  L 0 69.1314741035858  C 0 70.7378486055777  3.88864864864882 72  8.83783783783804 72  L 93.0338028169048 72  L 318.162162162162 72  C 323.111351351351 72  327 70.7378486055777  327 69.1314741035858  L 327 2.86852589641421  C 327 1.26215139442235  323.111351351351 0  318.162162162162 0  L 8.83783783783804 0  C 3.88864864864882 0  0 1.26215139442235  0 2.86852589641421  Z " fill-rule="nonzero" fill="#d9001b" stroke="none" fill-opacity="0.0352941176470588" transform="matrix(1 0 0 1 1466 228 )" />
    <path d="M 0 2.86852589641421  L 0 69.1314741035858  C 0 70.7378486055777  3.88864864864882 72  8.83783783783804 72  L 93.0338028169048 72  L 318.162162162162 72  C 323.111351351351 72  327 70.7378486055777  327 69.1314741035858  L 327 2.86852589641421  C 327 1.26215139442235  323.111351351351 0  318.162162162162 0  L 8.83783783783804 0  C 3.88864864864882 0  0 1.26215139442235  0 2.86852589641421  Z " stroke-width="2" stroke-dasharray="9,4" stroke="#d9001b" fill="none" transform="matrix(1 0 0 1 1466 228 )" mask="url(#clip33)" />
  </g>
</svg>