<?xml version="1.0" encoding="utf-8"?>
<svg version="1.1" xmlns:xlink="http://www.w3.org/1999/xlink" width="327px" height="59px" xmlns="http://www.w3.org/2000/svg">
  <defs>
    <mask fill="white" id="clip34">
      <path d="M 0 2.35059760956165  L 0 56.6494023904384  C 0 57.9657370517928  3.88864864864882 59  8.83783783783804 59  L 93.0338028169048 59  L 318.162162162162 59  C 323.111351351351 59  327 57.9657370517928  327 56.6494023904384  L 327 2.35059760956165  C 327 1.0342629482072  323.111351351351 0  318.162162162162 0  L 8.83783783783804 0  C 3.88864864864882 0  0 1.0342629482072  0 2.35059760956165  Z " fill-rule="evenodd" />
    </mask>
  </defs>
  <g transform="matrix(1 0 0 1 -1466 -345 )">
    <path d="M 0 2.35059760956165  L 0 56.6494023904384  C 0 57.9657370517928  3.88864864864882 59  8.83783783783804 59  L 93.0338028169048 59  L 318.162162162162 59  C 323.111351351351 59  327 57.9657370517928  327 56.6494023904384  L 327 2.35059760956165  C 327 1.0342629482072  323.111351351351 0  318.162162162162 0  L 8.83783783783804 0  C 3.88864864864882 0  0 1.0342629482072  0 2.35059760956165  Z " fill-rule="nonzero" fill="#d9001b" stroke="none" fill-opacity="0.0352941176470588" transform="matrix(1 0 0 1 1466 345 )" />
    <path d="M 0 2.35059760956165  L 0 56.6494023904384  C 0 57.9657370517928  3.88864864864882 59  8.83783783783804 59  L 93.0338028169048 59  L 318.162162162162 59  C 323.111351351351 59  327 57.9657370517928  327 56.6494023904384  L 327 2.35059760956165  C 327 1.0342629482072  323.111351351351 0  318.162162162162 0  L 8.83783783783804 0  C 3.88864864864882 0  0 1.0342629482072  0 2.35059760956165  Z " stroke-width="2" stroke-dasharray="9,4" stroke="#d9001b" fill="none" transform="matrix(1 0 0 1 1466 345 )" mask="url(#clip34)" />
  </g>
</svg>