<?xml version="1.0" encoding="utf-8"?>
<svg version="1.1" xmlns:xlink="http://www.w3.org/1999/xlink" width="10px" height="66px" preserveAspectRatio="xMidYMin meet" viewBox="84 1279  8 66" xmlns="http://www.w3.org/2000/svg">
  <path d="M 88.5 1280  L 88.5 1335  A 5 5 0 0 0 93.5 1340.5 L 415 1340.5  A 5 5 0 0 1 420.5 1345.5 L 420.5 1407  " stroke-width="1" stroke="#555555" fill="none" />
  <path d="M 88.5 1279  A 3 3 0 0 0 85.5 1282 A 3 3 0 0 0 88.5 1285 A 3 3 0 0 0 91.5 1282 A 3 3 0 0 0 88.5 1279 Z M 414.2 1406  L 420.5 1412  L 426.8 1406  L 414.2 1406  Z " fill-rule="nonzero" fill="#555555" stroke="none" />
</svg>