<?xml version="1.0" encoding="utf-8"?>
<svg version="1.1" xmlns:xlink="http://www.w3.org/1999/xlink" width="18px" height="18px" preserveAspectRatio="xMinYMid meet" viewBox="524 1435  18 16" xmlns="http://www.w3.org/2000/svg">
  <path d="M 531 1443.5  L 1058 1443.5  A 5 5 0 0 0 1063.5 1438.5 L 1063.5 429  A 5 5 0 0 0 1058.5 424.5 L 673 424.5  " stroke-width="1" stroke="#555555" fill="none" />
  <path d="M 533 1440.5  A 3 3 0 0 0 530 1443.5 A 3 3 0 0 0 533 1446.5 A 3 3 0 0 0 536 1443.5 A 3 3 0 0 0 533 1440.5 Z M 674 418.2  L 668 424.5  L 674 430.8  L 674 418.2  Z " fill-rule="nonzero" fill="#555555" stroke="none" />
</svg>