<?xml version="1.0" encoding="utf-8"?>
<svg version="1.1" xmlns:xlink="http://www.w3.org/1999/xlink" width="15px" height="15px" xmlns="http://www.w3.org/2000/svg">
  <g transform="matrix(1 0 0 1 -208 -799 )">
    <path d="M 10.810546875 9.0625  C 10.810546875 9.14713541666666  10.7779947916667 9.22200520833333  10.712890625 9.287109375  L 9.287109375 10.712890625  C 9.22200520833333 10.7779947916667  9.14713541666667 10.810546875  9.0625 10.810546875  C 8.97786458333334 10.810546875  8.90299479166667 10.7779947916667  8.837890625 10.712890625  L 7.5 9.375  L 6.162109375 10.712890625  C 6.09700520833333 10.7779947916667  6.02213541666667 10.810546875  5.9375 10.810546875  C 5.85286458333333 10.810546875  5.77799479166667 10.7779947916667  5.712890625 10.712890625  L 4.287109375 9.287109375  C 4.22200520833333 9.22200520833333  4.189453125 9.14713541666666  4.189453125 9.0625  C 4.189453125 8.97786458333333  4.22200520833333 8.90299479166667  4.287109375 8.837890625  L 5.625 7.5  L 4.287109375 6.162109375  C 4.22200520833333 6.09700520833333  4.189453125 6.02213541666667  4.189453125 5.9375  C 4.189453125 5.85286458333333  4.22200520833333 5.77799479166667  4.287109375 5.712890625  L 5.712890625 4.287109375  C 5.77799479166667 4.22200520833333  5.85286458333333 4.189453125  5.9375 4.189453125  C 6.02213541666667 4.189453125  6.09700520833333 4.22200520833333  6.162109375 4.287109375  L 7.5 5.625  L 8.837890625 4.287109375  C 8.90299479166667 4.22200520833333  8.97786458333334 4.189453125  9.0625 4.189453125  C 9.14713541666667 4.189453125  9.22200520833333 4.22200520833333  9.287109375 4.287109375  L 10.712890625 5.712890625  C 10.7779947916667 5.77799479166667  10.810546875 5.85286458333333  10.810546875 5.9375  C 10.810546875 6.02213541666667  10.7779947916667 6.09700520833333  10.712890625 6.162109375  L 9.375 7.5  L 10.712890625 8.837890625  C 10.7779947916667 8.90299479166667  10.810546875 8.97786458333333  10.810546875 9.0625  Z M 12.099609375 10.166015625  C 12.5748697916667 9.35221354166666  12.8125 8.46354166666667  12.8125 7.5  C 12.8125 6.53645833333333  12.5748697916667 5.64778645833333  12.099609375 4.833984375  C 11.6243489583333 4.02018229166667  10.9798177083333 3.37565104166667  10.166015625 2.900390625  C 9.35221354166667 2.42513020833333  8.46354166666667 2.1875  7.5 2.1875  C 6.53645833333333 2.1875  5.64778645833333 2.42513020833333  4.833984375 2.900390625  C 4.02018229166667 3.37565104166667  3.37565104166667 4.02018229166667  2.900390625 4.833984375  C 2.42513020833333 5.64778645833333  2.1875 6.53645833333333  2.1875 7.5  C 2.1875 8.46354166666667  2.42513020833333 9.35221354166666  2.900390625 10.166015625  C 3.37565104166667 10.9798177083333  4.02018229166667 11.6243489583333  4.833984375 12.099609375  C 5.64778645833333 12.5748697916667  6.53645833333333 12.8125  7.5 12.8125  C 8.46354166666667 12.8125  9.35221354166667 12.5748697916667  10.166015625 12.099609375  C 10.9798177083333 11.6243489583333  11.6243489583333 10.9798177083333  12.099609375 10.166015625  Z M 13.994140625 3.7353515625  C 14.6647135416667 4.88444010416667  15 6.13932291666666  15 7.5  C 15 8.86067708333333  14.6647135416667 10.1155598958333  13.994140625 11.2646484375  C 13.3235677083333 12.4137369791667  12.4137369791667 13.3235677083333  11.2646484375 13.994140625  C 10.1155598958333 14.6647135416667  8.86067708333333 15  7.5 15  C 6.13932291666667 15  4.88444010416667 14.6647135416667  3.7353515625 13.994140625  C 2.58626302083333 13.3235677083333  1.67643229166667 12.4137369791667  1.005859375 11.2646484375  C 0.335286458333333 10.1155598958333  0 8.86067708333333  0 7.5  C 0 6.13932291666666  0.335286458333333 4.88444010416667  1.005859375 3.7353515625  C 1.67643229166667 2.58626302083333  2.58626302083333 1.67643229166667  3.7353515625 1.005859375  C 4.88444010416667 0.335286458333332  6.13932291666667 0  7.5 0  C 8.86067708333333 0  10.1155598958333 0.335286458333332  11.2646484375 1.005859375  C 12.4137369791667 1.67643229166667  13.3235677083333 2.58626302083333  13.994140625 3.7353515625  Z " fill-rule="nonzero" fill="#555555" stroke="none" transform="matrix(1 0 0 1 208 799 )" />
  </g>
</svg>