<?xml version="1.0" encoding="utf-8"?>
<svg version="1.1" xmlns:xlink="http://www.w3.org/1999/xlink" width="71px" height="72px" xmlns="http://www.w3.org/2000/svg">
  <g transform="matrix(1 0 0 1 -293 -395 )">
    <path d="M 293 395  L 364 395  L 364 467  L 293 467  L 293 395  " fill-rule="nonzero" fill="#cccccc" stroke="none" />
    <path d="M 298 400  L 359 400  L 359 462  L 298 462  L 298 400  " fill-rule="nonzero" fill="#ffffff" stroke="none" />
    <path d="M 335.245 416.45  C 332.263 416.45  329.92 414.107  329.92 411.125  C 329.92 408.143  332.263 405.8  335.245 405.8  C 338.227 405.8  340.57 408.143  340.57 411.125  C 340.57 414.107  338.227 416.45  335.245 416.45  " fill-rule="nonzero" fill="#cccccc" stroke="none" />
    <path d="M 300 460  L 300 428.1  L 314.25 413.6  L 334.2 425.2  L 345.6 422.3  L 357 425.2  L 357 460  L 300 460  " fill-rule="nonzero" fill="#169bd5" stroke="none" />
  </g>
</svg>