<?xml version="1.0" encoding="utf-8"?>
<svg version="1.1" xmlns:xlink="http://www.w3.org/1999/xlink" width="11px" height="19px" xmlns="http://www.w3.org/2000/svg">
  <g transform="matrix(1 0 0 1 -324 -422 )">
    <path d="M 10.6371527777778 8.6650390625  C 10.8790509259259 8.90006510416667  11 9.17838541666667  11 9.5  C 11 9.82161458333333  10.8790509259259 10.0999348958333  10.6371527777778 10.3349609375  L 2.08159722222222 18.6474609375  C 1.83969907407407 18.8824869791667  1.55324074074074 19  1.22222222222222 19  C 0.891203703703704 19  0.60474537037037 18.8824869791667  0.362847222222222 18.6474609375  C 0.120949074074074 18.4124348958333  0 18.1341145833333  0 17.8125  L 0 1.1875  C 0 0.865885416666664  0.120949074074074 0.587565104166664  0.362847222222222 0.3525390625  C 0.60474537037037 0.117513020833332  0.891203703703704 0  1.22222222222222 0  C 1.55324074074074 0  1.83969907407407 0.117513020833332  2.08159722222222 0.3525390625  L 10.6371527777778 8.6650390625  Z " fill-rule="nonzero" fill="#ffffff" stroke="none" fill-opacity="0.458823529411765" transform="matrix(1 0 0 1 324 422 )" />
  </g>
</svg>