<?xml version="1.0" encoding="utf-8"?>
<svg version="1.1" xmlns:xlink="http://www.w3.org/1999/xlink" width="460px" height="230px" xmlns="http://www.w3.org/2000/svg">
  <g transform="matrix(1 0 0 1 -1276 -204 )">
    <path d="M 1277 208  A 3 3 0 0 1 1280 205 L 1732 205  A 3 3 0 0 1 1735 208 L 1735 430  A 3 3 0 0 1 1732 433 L 1280 433  A 3 3 0 0 1 1277 430 L 1277 208  Z " fill-rule="nonzero" fill="#ff3399" stroke="none" fill-opacity="0" />
    <path d="M 1276.5 208  A 3.5 3.5 0 0 1 1280 204.5 L 1732 204.5  A 3.5 3.5 0 0 1 1735.5 208 L 1735.5 430  A 3.5 3.5 0 0 1 1732 433.5 L 1280 433.5  A 3.5 3.5 0 0 1 1276.5 430 L 1276.5 208  Z " stroke-width="1" stroke-dasharray="9,4" stroke="#ff3399" fill="none" stroke-dashoffset="0.5" />
  </g>
</svg>