<?xml version="1.0" encoding="utf-8"?>
<svg version="1.1" xmlns:xlink="http://www.w3.org/1999/xlink" width="288px" height="206px" xmlns="http://www.w3.org/2000/svg">
  <g transform="matrix(1 0 0 1 -274 -216 )">
    <path d="M 274 216  L 562 216  L 562 422  L 274 422  L 274 216  " fill-rule="nonzero" fill="#cccccc" stroke="none" />
    <path d="M 288 230  L 548 230  L 548 408  L 288 408  L 288 230  " fill-rule="nonzero" fill="#ffffff" stroke="none" />
    <path d="M 439.21 277.8  C 430.558 277.8  423.76 271.002  423.76 262.35  C 423.76 253.698  430.558 246.9  439.21 246.9  C 447.862 246.9  454.66 253.698  454.66 262.35  C 454.66 271.002  447.862 277.8  439.21 277.8  " fill-rule="nonzero" fill="#cccccc" stroke="none" />
    <path d="M 293 403  L 293 310.6  L 355.5 268.6  L 443 330.9  L 493 293.8  L 543 330.9  L 543 403  L 293 403  " fill-rule="nonzero" fill="#169bd5" stroke="none" />
  </g>
</svg>