<?xml version="1.0" encoding="utf-8"?>
<svg version="1.1" xmlns:xlink="http://www.w3.org/1999/xlink" width="494px" height="67px" xmlns="http://www.w3.org/2000/svg">
  <g transform="matrix(1 0 0 1 -1490 -232 )">
    <path d="M 1491 236  A 3 3 0 0 1 1494 233 L 1980 233  A 3 3 0 0 1 1983 236 L 1983 295  A 3 3 0 0 1 1980 298 L 1494 298  A 3 3 0 0 1 1491 295 L 1491 236  Z " fill-rule="nonzero" fill="#ff3399" stroke="none" fill-opacity="0.0980392156862745" />
    <path d="M 1490.5 236  A 3.5 3.5 0 0 1 1494 232.5 L 1980 232.5  A 3.5 3.5 0 0 1 1983.5 236 L 1983.5 295  A 3.5 3.5 0 0 1 1980 298.5 L 1494 298.5  A 3.5 3.5 0 0 1 1490.5 295 L 1490.5 236  Z " stroke-width="1" stroke-dasharray="9,4" stroke="#ff3399" fill="none" stroke-dashoffset="0.5" />
  </g>
</svg>