<?xml version="1.0" encoding="utf-8"?>
<svg version="1.1" xmlns:xlink="http://www.w3.org/1999/xlink" width="700px" height="395px" xmlns="http://www.w3.org/2000/svg">
  <g transform="matrix(1 0 0 1 -290 -219 )">
    <path d="M 290 219  L 990 219  L 990 614  L 290 614  L 290 219  " fill-rule="nonzero" fill="#cccccc" stroke="none" />
    <path d="M 318 247  L 962 247  L 962 586  L 318 586  L 318 247  " fill-rule="nonzero" fill="#ffffff" stroke="none" />
    <path d="M 683.625 337.5  C 667.035 337.5  654 324.465  654 307.875  C 654 291.285  667.035 278.25  683.625 278.25  C 700.215 278.25  713.25 291.285  713.25 307.875  C 713.25 324.465  700.215 337.5  683.625 337.5  " fill-rule="nonzero" fill="#cccccc" stroke="none" />
    <path d="M 328 576  L 328 400.55  L 484 320.8  L 702.4 467.995714285714  L 827.2 368.65  L 952 467.995714285714  L 952 576  L 328 576  " fill-rule="nonzero" fill="#169bd5" stroke="none" />
  </g>
</svg>