<?xml version="1.0" encoding="utf-8"?>
<svg version="1.1" xmlns:xlink="http://www.w3.org/1999/xlink" width="33px" height="33px" xmlns="http://www.w3.org/2000/svg">
  <g transform="matrix(1 0 0 1 -365 -184 )">
    <path d="M 381.5 184  C 390.74 184  398 191.26  398 200.5  C 398 209.74  390.74 217  381.5 217  C 372.26 217  365 209.74  365 200.5  C 365 191.26  372.26 184  381.5 184  Z " fill-rule="nonzero" fill="#ffffff" stroke="none" />
    <path d="M 381.5 184.5  C 390.46 184.5  397.5 191.54  397.5 200.5  C 397.5 209.46  390.46 216.5  381.5 216.5  C 372.54 216.5  365.5 209.46  365.5 200.5  C 365.5 191.54  372.54 184.5  381.5 184.5  Z " stroke-width="1" stroke="#797979" fill="none" />
  </g>
</svg>