<?xml version="1.0" encoding="utf-8"?>
<svg version="1.1" xmlns:xlink="http://www.w3.org/1999/xlink" width="329px" height="41px" xmlns="http://www.w3.org/2000/svg">
  <g transform="matrix(1 0 0 1 -1200 -675 )">
    <path d="M 1201 679  A 3 3 0 0 1 1204 676 L 1525 676  A 3 3 0 0 1 1528 679 L 1528 712  A 3 3 0 0 1 1525 715 L 1204 715  A 3 3 0 0 1 1201 712 L 1201 679  Z " fill-rule="nonzero" fill="#ff3399" stroke="none" fill-opacity="0.0980392156862745" />
    <path d="M 1200.5 679  A 3.5 3.5 0 0 1 1204 675.5 L 1525 675.5  A 3.5 3.5 0 0 1 1528.5 679 L 1528.5 712  A 3.5 3.5 0 0 1 1525 715.5 L 1204 715.5  A 3.5 3.5 0 0 1 1200.5 712 L 1200.5 679  Z " stroke-width="1" stroke-dasharray="9,4" stroke="#ff3399" fill="none" stroke-dashoffset="0.5" />
  </g>
</svg>