<?xml version="1.0" encoding="utf-8"?>
<svg version="1.1" xmlns:xlink="http://www.w3.org/1999/xlink" width="329px" height="81px" xmlns="http://www.w3.org/2000/svg">
  <g transform="matrix(1 0 0 1 -1460 -220 )">
    <path d="M 1461 224  A 3 3 0 0 1 1464 221 L 1785 221  A 3 3 0 0 1 1788 224 L 1788 297  A 3 3 0 0 1 1785 300 L 1464 300  A 3 3 0 0 1 1461 297 L 1461 224  Z " fill-rule="nonzero" fill="#ff3399" stroke="none" fill-opacity="0.0980392156862745" />
    <path d="M 1460.5 224  A 3.5 3.5 0 0 1 1464 220.5 L 1785 220.5  A 3.5 3.5 0 0 1 1788.5 224 L 1788.5 297  A 3.5 3.5 0 0 1 1785 300.5 L 1464 300.5  A 3.5 3.5 0 0 1 1460.5 297 L 1460.5 224  Z " stroke-width="1" stroke-dasharray="9,4" stroke="#ff3399" fill="none" stroke-dashoffset="0.5" />
  </g>
</svg>