<?xml version="1.0" encoding="utf-8"?>
<svg version="1.1" xmlns:xlink="http://www.w3.org/1999/xlink" width="318px" height="60px" xmlns="http://www.w3.org/2000/svg">
  <g transform="matrix(1 0 0 1 -1036 -242 )">
    <path d="M 1037 246  A 3 3 0 0 1 1040 243 L 1350 243  A 3 3 0 0 1 1353 246 L 1353 298  A 3 3 0 0 1 1350 301 L 1040 301  A 3 3 0 0 1 1037 298 L 1037 246  Z " fill-rule="nonzero" fill="#ff3399" stroke="none" fill-opacity="0.0980392156862745" />
    <path d="M 1036.5 246  A 3.5 3.5 0 0 1 1040 242.5 L 1350 242.5  A 3.5 3.5 0 0 1 1353.5 246 L 1353.5 298  A 3.5 3.5 0 0 1 1350 301.5 L 1040 301.5  A 3.5 3.5 0 0 1 1036.5 298 L 1036.5 246  Z " stroke-width="1" stroke-dasharray="9,4" stroke="#ff3399" fill="none" stroke-dashoffset="0.5" />
  </g>
</svg>