<?xml version="1.0" encoding="utf-8"?>
<svg version="1.1" xmlns:xlink="http://www.w3.org/1999/xlink" width="32px" height="35px" xmlns="http://www.w3.org/2000/svg">
  <g transform="matrix(1 0 0 1 -1184 -13 )">
    <path d="M 16 33.4375  C 16.2051282051282 33.4375  16.3076923076923 33.3333333333333  16.3076923076923 33.125  C 16.3076923076923 32.9166666666667  16.2051282051282 32.8125  16 32.8125  C 15.2435897435897 32.8125  14.5929487179487 32.5358072916667  14.0480769230769 31.982421875  C 13.5032051282051 31.4290364583333  13.2307692307692 30.7682291666667  13.2307692307692 30  C 13.2307692307692 29.7916666666667  13.1282051282051 29.6875  12.9230769230769 29.6875  C 12.7179487179487 29.6875  12.6153846153846 29.7916666666667  12.6153846153846 30  C 12.6153846153846 30.9505208333333  12.9455128205128 31.7610677083333  13.6057692307692 32.431640625  C 14.2660256410256 33.1022135416667  15.0641025641026 33.4375  16 33.4375  Z M 30.25 25.78125  C 30.775641025641 26.3802083333333  31.3589743589744 26.953125  32 27.5  C 32 28.1770833333333  31.7564102564103 28.7630208333333  31.2692307692308 29.2578125  C 30.7820512820513 29.7526041666667  30.2051282051282 30  29.5384615384615 30  L 20.9230769230769 30  C 20.9230769230769 31.3802083333333  20.4423076923077 32.55859375  19.4807692307692 33.53515625  C 18.5192307692308 34.51171875  17.3589743589744 35  16 35  C 14.6410256410256 35  13.4807692307692 34.51171875  12.5192307692308 33.53515625  C 11.5576923076923 32.55859375  11.0769230769231 31.3802083333333  11.0769230769231 30  L 2.46153846153846 30  C 1.7948717948718 30  1.21794871794872 29.7526041666667  0.730769230769231 29.2578125  C 0.243589743589744 28.7630208333333  0 28.1770833333333  0 27.5  C 0.641025641025641 26.953125  1.22435897435897 26.3802083333333  1.75 25.78125  C 2.27564102564103 25.1822916666667  2.82051282051282 24.404296875  3.38461538461538 23.447265625  C 3.94871794871795 22.490234375  4.42628205128205 21.4583333333333  4.81730769230769 20.3515625  C 5.20833333333333 19.2447916666667  5.52884615384615 17.9036458333333  5.77884615384615 16.328125  C 6.02884615384615 14.7526041666667  6.15384615384615 13.0598958333333  6.15384615384615 11.25  C 6.15384615384615 9.27083333333333  6.90384615384615 7.431640625  8.40384615384615 5.732421875  C 9.90384615384615 4.033203125  11.8717948717949 3.00130208333333  14.3076923076923 2.63671875  C 14.2051282051282 2.38932291666666  14.1538461538462 2.13541666666667  14.1538461538462 1.875  C 14.1538461538462 1.35416666666667  14.3333333333333 0.911458333333332  14.6923076923077 0.546875  C 15.0512820512821 0.182291666666668  15.4871794871795 0  16 0  C 16.5128205128205 0  16.948717948718 0.182291666666668  17.3076923076923 0.546875  C 17.6666666666667 0.911458333333332  17.8461538461538 1.35416666666667  17.8461538461538 1.875  C 17.8461538461538 2.13541666666667  17.7948717948718 2.38932291666666  17.6923076923077 2.63671875  C 20.1282051282051 3.00130208333333  22.0961538461538 4.033203125  23.5961538461538 5.732421875  C 25.0961538461538 7.431640625  25.8461538461538 9.27083333333333  25.8461538461538 11.25  C 25.8461538461538 13.0598958333333  25.9711538461538 14.7526041666667  26.2211538461538 16.328125  C 26.4711538461538 17.9036458333333  26.7916666666667 19.2447916666667  27.1826923076923 20.3515625  C 27.573717948718 21.4583333333333  28.0512820512821 22.490234375  28.6153846153846 23.447265625  C 29.1794871794872 24.404296875  29.724358974359 25.1822916666667  30.25 25.78125  Z " fill-rule="nonzero" fill="#ffffff" stroke="none" transform="matrix(1 0 0 1 1184 13 )" />
  </g>
</svg>