<?xml version="1.0" encoding="utf-8"?>
<svg version="1.1" xmlns:xlink="http://www.w3.org/1999/xlink" width="85px" height="41px" xmlns="http://www.w3.org/2000/svg">
  <g transform="matrix(1 0 0 1 -1016 -695 )">
    <path d="M 1017 699  A 3 3 0 0 1 1020 696 L 1097 696  A 3 3 0 0 1 1100 699 L 1100 732  A 3 3 0 0 1 1097 735 L 1020 735  A 3 3 0 0 1 1017 732 L 1017 699  Z " fill-rule="nonzero" fill="#ff3399" stroke="none" fill-opacity="0.0980392156862745" />
    <path d="M 1016.5 699  A 3.5 3.5 0 0 1 1020 695.5 L 1097 695.5  A 3.5 3.5 0 0 1 1100.5 699 L 1100.5 732  A 3.5 3.5 0 0 1 1097 735.5 L 1020 735.5  A 3.5 3.5 0 0 1 1016.5 732 L 1016.5 699  Z " stroke-width="1" stroke-dasharray="9,4" stroke="#ff3399" fill="none" stroke-dashoffset="0.5" />
  </g>
</svg>