<?xml version="1.0" encoding="utf-8"?>
<svg version="1.1" xmlns:xlink="http://www.w3.org/1999/xlink" width="364px" height="279px" xmlns="http://www.w3.org/2000/svg">
  <g transform="matrix(1 0 0 1 -1499 -322 )">
    <path d="M 1500 326  A 3 3 0 0 1 1503 323 L 1859 323  A 3 3 0 0 1 1862 326 L 1862 597  A 3 3 0 0 1 1859 600 L 1503 600  A 3 3 0 0 1 1500 597 L 1500 326  Z " fill-rule="nonzero" fill="#ff3399" stroke="none" fill-opacity="0.0980392156862745" />
    <path d="M 1499.5 326  A 3.5 3.5 0 0 1 1503 322.5 L 1859 322.5  A 3.5 3.5 0 0 1 1862.5 326 L 1862.5 597  A 3.5 3.5 0 0 1 1859 600.5 L 1503 600.5  A 3.5 3.5 0 0 1 1499.5 597 L 1499.5 326  Z " stroke-width="1" stroke-dasharray="9,4" stroke="#ff3399" fill="none" stroke-dashoffset="0.5" />
  </g>
</svg>