<?xml version="1.0" encoding="utf-8"?>
<svg version="1.1" xmlns:xlink="http://www.w3.org/1999/xlink" width="22px" height="19px" xmlns="http://www.w3.org/2000/svg">
  <g transform="matrix(1 0 0 1 -809 -422 )">
    <path d="M 14.1428571428571 14.880859375  C 14.249255952381 14.880859375  14.3433779761905 14.8396267361111  14.4252232142857 14.7571614583333  L 16.2176339285714 12.951171875  C 16.2994791666667 12.8687065972222  16.3404017857143 12.7738715277778  16.3404017857143 12.6666666666667  C 16.3404017857143 12.5594618055556  16.2994791666667 12.4646267361111  16.2176339285714 12.3821614583333  L 13.3571428571429 9.5  L 16.2176339285714 6.61783854166667  C 16.2994791666667 6.53537326388889  16.3404017857143 6.44053819444444  16.3404017857143 6.33333333333333  C 16.3404017857143 6.22612847222222  16.2994791666667 6.13129340277778  16.2176339285714 6.048828125  L 14.4252232142857 4.24283854166667  C 14.3433779761905 4.16037326388889  14.249255952381 4.119140625  14.1428571428571 4.119140625  C 14.0364583333333 4.119140625  13.9423363095238 4.16037326388889  13.8604910714286 4.24283854166667  L 11 7.125  L 8.13950892857143 4.24283854166667  C 8.05766369047619 4.16037326388889  7.96354166666667 4.119140625  7.85714285714286 4.119140625  C 7.75074404761905 4.119140625  7.65662202380952 4.16037326388889  7.57477678571429 4.24283854166667  L 5.78236607142857 6.048828125  C 5.70052083333333 6.13129340277778  5.65959821428571 6.22612847222222  5.65959821428571 6.33333333333333  C 5.65959821428571 6.44053819444444  5.70052083333333 6.53537326388889  5.78236607142857 6.61783854166667  L 8.64285714285714 9.5  L 5.78236607142857 12.3821614583333  C 5.70052083333333 12.4646267361111  5.65959821428571 12.5594618055556  5.65959821428571 12.6666666666667  C 5.65959821428571 12.7738715277778  5.70052083333333 12.8687065972222  5.78236607142857 12.951171875  L 7.57477678571429 14.7571614583333  C 7.65662202380952 14.8396267361111  7.75074404761905 14.880859375  7.85714285714286 14.880859375  C 7.96354166666667 14.880859375  8.05766369047619 14.8396267361111  8.13950892857143 14.7571614583333  L 11 11.875  L 13.8604910714286 14.7571614583333  C 13.9423363095238 14.8396267361111  14.0364583333333 14.880859375  14.1428571428571 14.880859375  Z M 21.4229910714286 0.581380208333334  C 21.8076636904762 0.968967013888888  22 1.43489583333333  22 1.97916666666667  L 22 17.0208333333333  C 22 17.5651041666667  21.8076636904762 18.0310329861111  21.4229910714286 18.4186197916667  C 21.038318452381 18.8062065972222  20.5758928571429 19  20.0357142857143 19  L 1.96428571428571 19  C 1.42410714285714 19  0.961681547619048 18.8062065972222  0.577008928571429 18.4186197916667  C 0.19233630952381 18.0310329861111  0 17.5651041666667  0 17.0208333333333  L 0 1.97916666666667  C 0 1.43489583333333  0.19233630952381 0.968967013888888  0.577008928571429 0.581380208333334  C 0.961681547619048 0.193793402777776  1.42410714285714 0  1.96428571428571 0  L 20.0357142857143 0  C 20.5758928571429 0  21.038318452381 0.193793402777776  21.4229910714286 0.581380208333334  Z " fill-rule="nonzero" fill="#ffffff" stroke="none" transform="matrix(1 0 0 1 809 422 )" />
  </g>
</svg>