<?xml version="1.0" encoding="utf-8"?>
<svg version="1.1" xmlns:xlink="http://www.w3.org/1999/xlink" width="170px" height="170px" xmlns="http://www.w3.org/2000/svg">
  <g transform="matrix(1 0 0 1 -302 -905 )">
    <path d="M 387 905  C 434.6 905  472 942.4  472 990  C 472 1037.6  434.6 1075  387 1075  C 339.4 1075  302 1037.6  302 990  C 302 942.4  339.4 905  387 905  Z " fill-rule="nonzero" fill="#ffffff" stroke="none" />
    <path d="M 387 905.5  C 434.32 905.5  471.5 942.68  471.5 990  C 471.5 1037.32  434.32 1074.5  387 1074.5  C 339.68 1074.5  302.5 1037.32  302.5 990  C 302.5 942.68  339.68 905.5  387 905.5  Z " stroke-width="1" stroke="#bcbcbc" fill="none" />
  </g>
</svg>