<?xml version="1.0" encoding="utf-8"?>
<svg version="1.1" xmlns:xlink="http://www.w3.org/1999/xlink" width="307px" height="287px" xmlns="http://www.w3.org/2000/svg">
  <g transform="matrix(1 0 0 1 -256 -316 )">
    <path d="M 256 316  L 563 316  L 563 603  L 256 603  L 256 316  " fill-rule="nonzero" fill="#cccccc" stroke="none" />
    <path d="M 276 336  L 543 336  L 543 583  L 276 583  L 276 336  " fill-rule="nonzero" fill="#ffffff" stroke="none" />
    <path d="M 437.165 402.1  C 425.111 402.1  415.64 392.629  415.64 380.575  C 415.64 368.521  425.111 359.05  437.165 359.05  C 449.219 359.05  458.69 368.521  458.69 380.575  C 458.69 392.629  449.219 402.1  437.165 402.1  " fill-rule="nonzero" fill="#cccccc" stroke="none" />
    <path d="M 283 576  L 283 447.85  L 346.25 389.6  L 434.8 445.307491856678  L 485.4 424.55  L 536 445.307491856678  L 536 576  L 283 576  " fill-rule="nonzero" fill="#169bd5" stroke="none" />
  </g>
</svg>