<?xml version="1.0" encoding="utf-8"?>
<svg version="1.1" xmlns:xlink="http://www.w3.org/1999/xlink" width="120px" height="120px" xmlns="http://www.w3.org/2000/svg">
  <g transform="matrix(1 0 0 1 -301 -423 )">
    <path d="M 98.90625 50.859375  C 99.84375 49.921875  100.3125 48.75  100.3125 47.34375  C 100.3125 45.8854166666667  99.84375 44.6875  98.90625 43.75  L 91.796875 36.71875  C 90.8072916666667 35.7291666666667  89.6354166666667 35.234375  88.28125 35.234375  C 86.9270833333333 35.234375  85.7552083333333 35.7291666666667  84.765625 36.71875  L 52.890625 68.515625  L 35.234375 50.859375  C 34.2447916666667 49.8697916666667  33.0729166666667 49.375  31.71875 49.375  C 30.3645833333333 49.375  29.1927083333333 49.8697916666667  28.203125 50.859375  L 21.09375 57.890625  C 20.15625 58.828125  19.6875 60.0260416666667  19.6875 61.484375  C 19.6875 62.890625  20.15625 64.0625  21.09375 65  L 49.375 93.28125  C 50.3645833333333 94.2708333333333  51.5364583333333 94.765625  52.890625 94.765625  C 54.296875 94.765625  55.4947916666667 94.2708333333333  56.484375 93.28125  L 98.90625 50.859375  Z M 111.953125 29.8828125  C 117.317708333333 39.0755208333333  120 49.1145833333333  120 60  C 120 70.8854166666667  117.317708333333 80.9244791666667  111.953125 90.1171875  C 106.588541666667 99.3098958333333  99.3098958333333 106.588541666667  90.1171875 111.953125  C 80.9244791666667 117.317708333333  70.8854166666667 120  60 120  C 49.1145833333333 120  39.0755208333333 117.317708333333  29.8828125 111.953125  C 20.6901041666667 106.588541666667  13.4114583333333 99.3098958333333  8.046875 90.1171875  C 2.68229166666667 80.9244791666667  0 70.8854166666667  0 60  C 0 49.1145833333333  2.68229166666667 39.0755208333333  8.046875 29.8828125  C 13.4114583333333 20.6901041666667  20.6901041666667 13.4114583333333  29.8828125 8.046875  C 39.0755208333333 2.68229166666666  49.1145833333333 0  60 0  C 70.8854166666667 0  80.9244791666667 2.68229166666666  90.1171875 8.046875  C 99.3098958333333 13.4114583333333  106.588541666667 20.6901041666667  111.953125 29.8828125  Z " fill-rule="nonzero" fill="#aaaaaa" stroke="none" transform="matrix(1 0 0 1 301 423 )" />
  </g>
</svg>