<?xml version="1.0" encoding="utf-8"?>
<svg version="1.1" xmlns:xlink="http://www.w3.org/1999/xlink" width="120px" height="120px" xmlns="http://www.w3.org/2000/svg">
  <g transform="matrix(1 0 0 1 -720 -430 )">
    <path d="M 88.28125 81.25  C 89.2708333333333 80.2604166666667  89.765625 79.0625  89.765625 77.65625  C 89.765625 76.3020833333333  89.2708333333333 75.1302083333333  88.28125 74.140625  L 74.140625 60  L 88.28125 45.859375  C 89.2708333333333 44.8697916666667  89.765625 43.6979166666667  89.765625 42.34375  C 89.765625 40.9375  89.2708333333333 39.7395833333333  88.28125 38.75  L 81.25 31.71875  C 80.2604166666667 30.7291666666667  79.0625 30.234375  77.65625 30.234375  C 76.3020833333333 30.234375  75.1302083333333 30.7291666666667  74.140625 31.71875  L 60 45.859375  L 45.859375 31.71875  C 44.8697916666667 30.7291666666667  43.6979166666667 30.234375  42.34375 30.234375  C 40.9375 30.234375  39.7395833333333 30.7291666666667  38.75 31.71875  L 31.71875 38.75  C 30.7291666666667 39.7395833333333  30.234375 40.9375  30.234375 42.34375  C 30.234375 43.6979166666667  30.7291666666667 44.8697916666667  31.71875 45.859375  L 45.859375 60  L 31.71875 74.140625  C 30.7291666666667 75.1302083333333  30.234375 76.3020833333333  30.234375 77.65625  C 30.234375 79.0625  30.7291666666667 80.2604166666667  31.71875 81.25  L 38.75 88.28125  C 39.7395833333333 89.2708333333333  40.9375 89.765625  42.34375 89.765625  C 43.6979166666667 89.765625  44.8697916666667 89.2708333333333  45.859375 88.28125  L 60 74.140625  L 74.140625 88.28125  C 75.1302083333333 89.2708333333333  76.3020833333333 89.765625  77.65625 89.765625  C 79.0625 89.765625  80.2604166666667 89.2708333333333  81.25 88.28125  L 88.28125 81.25  Z M 111.953125 29.8828125  C 117.317708333333 39.0755208333333  120 49.1145833333333  120 60  C 120 70.8854166666667  117.317708333333 80.9244791666667  111.953125 90.1171875  C 106.588541666667 99.3098958333333  99.3098958333333 106.588541666667  90.1171875 111.953125  C 80.9244791666667 117.317708333333  70.8854166666667 120  60 120  C 49.1145833333333 120  39.0755208333333 117.317708333333  29.8828125 111.953125  C 20.6901041666667 106.588541666667  13.4114583333333 99.3098958333333  8.046875 90.1171875  C 2.68229166666667 80.9244791666667  0 70.8854166666667  0 60  C 0 49.1145833333333  2.68229166666667 39.0755208333333  8.046875 29.8828125  C 13.4114583333333 20.6901041666667  20.6901041666667 13.4114583333333  29.8828125 8.046875  C 39.0755208333333 2.68229166666666  49.1145833333333 0  60 0  C 70.8854166666667 0  80.9244791666667 2.68229166666666  90.1171875 8.046875  C 99.3098958333333 13.4114583333333  106.588541666667 20.6901041666667  111.953125 29.8828125  Z " fill-rule="nonzero" fill="#aaaaaa" stroke="none" transform="matrix(1 0 0 1 720 430 )" />
  </g>
</svg>