<?xml version="1.0" encoding="utf-8"?>
<svg version="1.1" xmlns:xlink="http://www.w3.org/1999/xlink" width="17px" height="16px" xmlns="http://www.w3.org/2000/svg">
  <g transform="matrix(1 0 0 1 -1109 -529 )">
    <path d="M 12.3515625 14.0441083805923  L 11.6159855769231 9.79962192816635  L 14.7421875 6.80529300567108  L 10.4308894230769 6.18021424070573  L 8.5 2.3289224952741  L 6.56911057692308 6.18021424070573  L 2.2578125 6.80529300567108  L 5.38401442307692 9.79962192816635  L 4.63822115384615 14.0441083805923  L 8.5 12.0378071833648  L 12.3515625 14.0441083805923  Z M 16.4278846153846 5.73660995589162  C 16.8092948717949 5.79710144927536  17 5.95169082125604  17 6.20037807183365  C 17 6.34824616677169  16.9114583333333 6.509556815795  16.734375 6.68431001890359  L 13.0258413461538 10.2533081285444  L 13.9044471153846 15.294265910523  C 13.9112580128205 15.3413148498215  13.9146634615385 15.4085276202478  13.9146634615385 15.4959042218021  C 13.9146634615385 15.831968073934  13.7750400641026 16  13.4957932692308 16  C 13.3663862179487 16  13.2301682692308 15.9596723377442  13.0871394230769 15.8790170132325  L 8.5 13.4996849401386  L 3.91286057692308 15.8790170132325  C 3.76302083333333 15.9596723377442  3.62680288461538 16  3.50420673076923 16  C 3.36117788461538 16  3.25390625 15.9512707414409  3.18239182692308 15.8538122243226  C 3.11087740384615 15.7563537072044  3.07512019230769 15.6370510396975  3.07512019230769 15.4959042218021  C 3.07512019230769 15.4555765595463  3.08193108974359 15.3883637891199  3.09555288461538 15.294265910523  L 3.97415865384615 10.2533081285444  L 0.255408653846154 6.68431001890359  C 0.0851362179487179 6.50283553875236  0 6.34152488972905  0 6.20037807183365  C 0 5.95169082125604  0.190705128205128 5.79710144927536  0.572115384615385 5.73660995589162  L 5.70072115384615 5.00063011972275  L 7.99939903846154 0.413358538122242  C 8.12880608974359 0.13778617937408  8.29567307692308 0  8.5 0  C 8.70432692307692 0  8.87119391025641 0.13778617937408  9.00060096153846 0.413358538122242  L 11.2992788461538 5.00063011972275  L 16.4278846153846 5.73660995589162  Z " fill-rule="nonzero" fill="#999999" stroke="none" transform="matrix(1 0 0 1 1109 529 )" />
  </g>
</svg>