<?xml version="1.0" encoding="utf-8"?>
<svg version="1.1" xmlns:xlink="http://www.w3.org/1999/xlink" width="27px" height="27px" xmlns="http://www.w3.org/2000/svg">
  <g transform="matrix(1 0 0 1 -1044 -138 )">
    <path d="M 26.3636363636364 20.1818181818182  C 26.7878787878788 20.6060606060606  27 21.1212121212121  27 21.7272727272727  C 27 22.3333333333333  26.7878787878788 22.8484848484848  26.3636363636364 23.2727272727273  L 23.2727272727273 26.3636363636364  C 22.8484848484849 26.7878787878788  22.3333333333333 27  21.7272727272727 27  C 21.1212121212121 27  20.6060606060606 26.7878787878788  20.1818181818182 26.3636363636364  L 13.5 19.6818181818182  L 6.81818181818182 26.3636363636364  C 6.39393939393939 26.7878787878788  5.87878787878788 27  5.27272727272727 27  C 4.66666666666667 27  4.15151515151515 26.7878787878788  3.72727272727273 26.3636363636364  L 0.636363636363636 23.2727272727273  C 0.212121212121212 22.8484848484848  0 22.3333333333333  0 21.7272727272727  C 0 21.1212121212121  0.212121212121212 20.6060606060606  0.636363636363636 20.1818181818182  L 7.31818181818182 13.5  L 0.636363636363636 6.81818181818182  C 0.212121212121212 6.39393939393939  0 5.87878787878788  0 5.27272727272727  C 0 4.66666666666667  0.212121212121212 4.15151515151515  0.636363636363636 3.72727272727273  L 3.72727272727273 0.636363636363636  C 4.15151515151515 0.212121212121211  4.66666666666667 0  5.27272727272727 0  C 5.87878787878788 0  6.39393939393939 0.212121212121211  6.81818181818182 0.636363636363636  L 13.5 7.31818181818182  L 20.1818181818182 0.636363636363636  C 20.6060606060606 0.212121212121211  21.1212121212121 0  21.7272727272727 0  C 22.3333333333333 0  22.8484848484849 0.212121212121211  23.2727272727273 0.636363636363636  L 26.3636363636364 3.72727272727273  C 26.7878787878788 4.15151515151515  27 4.66666666666667  27 5.27272727272727  C 27 5.87878787878788  26.7878787878788 6.39393939393939  26.3636363636364 6.81818181818182  L 19.6818181818182 13.5  L 26.3636363636364 20.1818181818182  Z " fill-rule="nonzero" fill="#ffffff" stroke="none" transform="matrix(1 0 0 1 1044 138 )" />
  </g>
</svg>