<?xml version="1.0" encoding="utf-8"?>
<svg version="1.1" xmlns:xlink="http://www.w3.org/1999/xlink" width="60px" height="60px" xmlns="http://www.w3.org/2000/svg">
  <g transform="matrix(1 0 0 1 -183 -417 )">
    <path d="M 183 417  L 243 417  L 243 477  L 183 477  L 183 417  " fill-rule="nonzero" fill="#cccccc" stroke="none" />
    <path d="M 187 421  L 239 421  L 239 473  L 187 473  L 187 421  " fill-rule="nonzero" fill="#ffffff" stroke="none" />
    <path d="M 218.7 435  C 216.18 435  214.2 433.02  214.2 430.5  C 214.2 427.98  216.18 426  218.7 426  C 221.22 426  223.2 427.98  223.2 430.5  C 223.2 433.02  221.22 435  218.7 435  " fill-rule="nonzero" fill="#cccccc" stroke="none" />
    <path d="M 189 472  L 189 445.05  L 201.25 432.8  L 218.4 442.6  L 228.2 440.15  L 238 442.6  L 238 472  L 189 472  " fill-rule="nonzero" fill="#169bd5" stroke="none" />
  </g>
</svg>