<?xml version="1.0" encoding="utf-8"?>
<svg version="1.1" xmlns:xlink="http://www.w3.org/1999/xlink" width="29px" height="29px" xmlns="http://www.w3.org/2000/svg">
  <g transform="matrix(1 0 0 1 -1519 -296 )">
    <path d="M 17.78515625 17.78515625  C 19.3130008012821 16.2573116987179  20.0769230769231 14.4186698717949  20.0769230769231 12.2692307692308  C 20.0769230769231 10.1197916666667  19.3130008012821 8.28114983974359  17.78515625 6.75330528846154  C 16.2573116987179 5.22546073717949  14.4186698717949 4.46153846153846  12.2692307692308 4.46153846153846  C 10.1197916666667 4.46153846153846  8.28114983974359 5.22546073717949  6.75330528846154 6.75330528846154  C 5.22546073717949 8.28114983974359  4.46153846153846 10.1197916666667  4.46153846153846 12.2692307692308  C 4.46153846153846 14.4186698717949  5.22546073717949 16.2573116987179  6.75330528846154 17.78515625  C 8.28114983974359 19.3130008012821  10.1197916666667 20.0769230769231  12.2692307692308 20.0769230769231  C 14.4186698717949 20.0769230769231  16.2573116987179 19.3130008012821  17.78515625 17.78515625  Z M 28.3551682692308 25.2007211538462  C 28.7850560897436 25.630608974359  29 26.1534455128205  29 26.7692307692308  C 29 27.3733974358974  28.7792467948718 27.896233974359  28.3377403846154 28.3377403846154  C 27.896233974359 28.7792467948718  27.3733974358974 29  26.7692307692308 29  C 26.1418269230769 29  25.6189903846154 28.7792467948718  25.2007211538462 28.3377403846154  L 19.2229567307692 22.3774038461538  C 17.1432291666667 23.818108974359  14.8253205128205 24.5384615384615  12.2692307692308 24.5384615384615  C 10.6077724358974 24.5384615384615  9.01893028846154 24.2160456730769  7.50270432692308 23.5712139423077  C 5.98647836538462 22.9263822115385  4.67938701923077 22.0549879807692  3.58143028846154 20.95703125  C 2.48347355769231 19.8590745192308  1.61207932692308 18.5519831730769  0.967247596153846 17.0357572115385  C 0.322415865384615 15.51953125  0 13.9306891025641  0 12.2692307692308  C 0 10.6077724358974  0.322415865384615 9.01893028846154  0.967247596153846 7.50270432692308  C 1.61207932692308 5.98647836538461  2.48347355769231 4.67938701923077  3.58143028846154 3.58143028846154  C 4.67938701923077 2.48347355769231  5.98647836538462 1.61207932692308  7.50270432692308 0.967247596153847  C 9.01893028846154 0.322415865384615  10.6077724358974 0  12.2692307692308 0  C 13.9306891025641 0  15.51953125 0.322415865384615  17.0357572115385 0.967247596153847  C 18.5519831730769 1.61207932692308  19.8590745192308 2.48347355769231  20.95703125 3.58143028846154  C 22.0549879807692 4.67938701923077  22.9263822115385 5.98647836538461  23.5712139423077 7.50270432692308  C 24.2160456730769 9.01893028846154  24.5384615384615 10.6077724358974  24.5384615384615 12.2692307692308  C 24.5384615384615 14.8253205128205  23.818108974359 17.1432291666667  22.3774038461538 19.2229567307692  L 28.3551682692308 25.2007211538462  Z " fill-rule="nonzero" fill="#cccccc" stroke="none" transform="matrix(1 0 0 1 1519 296 )" />
  </g>
</svg>