<?xml version="1.0" encoding="utf-8"?>
<svg version="1.1" xmlns:xlink="http://www.w3.org/1999/xlink" width="31px" height="31px" xmlns="http://www.w3.org/2000/svg">
  <g transform="matrix(1 0 0 1 -291 -390 )">
    <path d="M 306.5 390  C 315.18 390  322 396.82  322 405.5  C 322 414.18  315.18 421  306.5 421  C 297.82 421  291 414.18  291 405.5  C 291 396.82  297.82 390  306.5 390  Z " fill-rule="nonzero" fill="#666666" stroke="none" />
    <path d="M 306.5 390.5  C 314.9 390.5  321.5 397.1  321.5 405.5  C 321.5 413.9  314.9 420.5  306.5 420.5  C 298.1 420.5  291.5 413.9  291.5 405.5  C 291.5 397.1  298.1 390.5  306.5 390.5  Z " stroke-width="1" stroke="#797979" fill="none" />
  </g>
</svg>