<?xml version="1.0" encoding="utf-8"?>
<svg version="1.1" xmlns:xlink="http://www.w3.org/1999/xlink" width="22px" height="16px" xmlns="http://www.w3.org/2000/svg">
  <g transform="matrix(1 0 0 1 -1462 -44 )">
    <path d="M 20.7723214285714 6.14772727272727  C 21.2388392857143 5.85227272727273  21.6480654761905 5.52272727272727  22 5.15909090909091  L 22 14.1818181818182  C 22 14.6818181818182  21.8076636904762 15.1098484848485  21.4229910714286 15.4659090909091  C 21.038318452381 15.8219696969697  20.5758928571429 16  20.0357142857143 16  L 1.96428571428571 16  C 1.42410714285714 16  0.961681547619048 15.8219696969697  0.577008928571429 15.4659090909091  C 0.19233630952381 15.1098484848485  0 14.6818181818182  0 14.1818181818182  L 0 5.15909090909091  C 0.360119047619048 5.53030303030303  0.7734375 5.85984848484848  1.23995535714286 6.14772727272727  C 4.20275297619048 8.01136363636364  6.23660714285714 9.31818181818182  7.34151785714286 10.0681818181818  C 7.80803571428571 10.3863636363636  8.18656994047619 10.6344696969697  8.47712053571428 10.8125  C 8.76767113095238 10.9905303030303  9.15438988095238 11.1723484848485  9.63727678571428 11.3579545454545  C 10.1201636904762 11.5435606060606  10.5703125 11.6363636363636  10.9877232142857 11.6363636363636  L 11 11.6363636363636  L 11.0122767857143 11.6363636363636  C 11.4296875 11.6363636363636  11.8798363095238 11.5435606060606  12.3627232142857 11.3579545454545  C 12.8456101190476 11.1723484848485  13.2323288690476 10.9905303030303  13.5228794642857 10.8125  C 13.8134300595238 10.6344696969697  14.1919642857143 10.3863636363636  14.6584821428571 10.0681818181818  C 16.0498511904762 9.13636363636364  18.0877976190476 7.82954545454546  20.7723214285714 6.14772727272727  Z M 21.4168526785714 0.534090909090908  C 21.8056175595238 0.890151515151514  22 1.31818181818182  22 1.81818181818182  C 22 2.41666666666666  21.7994791666667 2.98863636363636  21.3984375 3.53409090909091  C 20.9973958333333 4.07954545454546  20.4981398809524 4.54545454545454  19.9006696428571 4.93181818181818  C 16.8232886904762 6.90909090909091  14.9081101190476 8.14015151515152  14.1551339285714 8.625  C 14.0732886904762 8.6780303030303  13.8993675595238 8.79356060606061  13.6333705357143 8.97159090909091  C 13.3673735119048 9.14962121212121  13.1463913690476 9.29356060606061  12.9704241071429 9.40340909090909  C 12.7944568452381 9.51325757575757  12.5816592261905 9.63636363636364  12.33203125 9.77272727272727  C 12.0824032738095 9.90909090909091  11.8470982142857 10.0113636363636  11.6261160714286 10.0795454545455  C 11.4051339285714 10.1477272727273  11.2005208333333 10.1818181818182  11.0122767857143 10.1818181818182  L 11 10.1818181818182  L 10.9877232142857 10.1818181818182  C 10.7994791666667 10.1818181818182  10.5948660714286 10.1477272727273  10.3738839285714 10.0795454545455  C 10.1529017857143 10.0113636363636  9.91759672619048 9.90909090909091  9.66796875 9.77272727272727  C 9.41834077380952 9.63636363636364  9.20554315476191 9.51325757575757  9.02957589285714 9.40340909090909  C 8.85360863095238 9.29356060606061  8.63262648809524 9.14962121212121  8.36662946428572 8.97159090909091  C 8.10063244047619 8.79356060606061  7.92671130952381 8.6780303030303  7.84486607142857 8.625  C 7.10007440476191 8.14015151515152  6.02790178571429 7.44886363636364  4.62834821428571 6.55113636363636  C 3.22879464285714 5.65340909090909  2.38988095238095 5.11363636363636  2.11160714285714 4.93181818181818  C 1.60416666666667 4.61363636363636  1.12537202380952 4.17613636363636  0.675223214285714 3.61931818181818  C 0.225074404761905 3.0625  0 2.54545454545454  0 2.06818181818182  C 0 1.47727272727273  0.169828869047619 0.984848484848483  0.509486607142857 0.590909090909092  C 0.849144345238095 0.196969696969695  1.33407738095238 0  1.96428571428571 0  L 20.0357142857143 0  C 20.5677083333333 0  21.028087797619 0.178030303030301  21.4168526785714 0.534090909090908  Z " fill-rule="nonzero" fill="#ffffff" stroke="none" transform="matrix(1 0 0 1 1462 44 )" />
  </g>
</svg>