<?xml version="1.0" encoding="utf-8"?>
<svg version="1.1" xmlns:xlink="http://www.w3.org/1999/xlink" width="54px" height="54px" xmlns="http://www.w3.org/2000/svg">
  <g transform="matrix(1 0 0 1 -1240 -12 )">
    <path d="M 1267 12  C 1282.12 12  1294 23.88  1294 39  C 1294 54.12  1282.12 66  1267 66  C 1251.88 66  1240 54.12  1240 39  C 1240 23.88  1251.88 12  1267 12  Z " fill-rule="nonzero" fill="#ffffff" stroke="none" />
    <path d="M 1267 12.5  C 1281.84 12.5  1293.5 24.16  1293.5 39  C 1293.5 53.84  1281.84 65.5  1267 65.5  C 1252.16 65.5  1240.5 53.84  1240.5 39  C 1240.5 24.16  1252.16 12.5  1267 12.5  Z " stroke-width="1" stroke="#797979" fill="none" />
  </g>
</svg>