<?xml version="1.0" encoding="utf-8"?>
<svg version="1.1" xmlns:xlink="http://www.w3.org/1999/xlink" width="23px" height="19px" xmlns="http://www.w3.org/2000/svg">
  <g transform="matrix(1 0 0 1 -24 -167 )">
    <path d="M 21.3528645833333 11.5838341346154  C 21.4287326388889 11.5115184294872  21.4666666666667 11.4258814102564  21.4666666666667 11.3269230769231  L 21.4666666666667 1.82692307692308  C 21.4666666666667 1.72796474358974  21.4287326388889 1.64232772435897  21.3528645833333 1.57001201923077  C 21.2769965277778 1.49769631410256  21.1871527777778 1.46153846153846  21.0833333333333 1.46153846153846  L 1.91666666666667 1.46153846153846  C 1.81284722222222 1.46153846153846  1.72300347222222 1.49769631410256  1.64713541666667 1.57001201923077  C 1.57126736111111 1.64232772435897  1.53333333333333 1.72796474358974  1.53333333333333 1.82692307692308  L 1.53333333333333 11.3269230769231  C 1.53333333333333 11.4258814102564  1.57126736111111 11.5115184294872  1.64713541666667 11.5838341346154  C 1.72300347222222 11.6561498397436  1.81284722222222 11.6923076923077  1.91666666666667 11.6923076923077  L 21.0833333333333 11.6923076923077  C 21.1871527777778 11.6923076923077  21.2769965277778 11.6561498397436  21.3528645833333 11.5838341346154  Z M 22.4369791666667 0.536658653846154  C 22.8123263888889 0.894431089743589  23 1.32451923076923  23 1.82692307692308  L 23 14.25  C 23 14.7524038461538  22.8123263888889 15.1824919871795  22.4369791666667 15.5402644230769  C 22.0616319444444 15.8980368589744  21.6104166666667 16.0769230769231  21.0833333333333 16.0769230769231  L 14.5666666666667 16.0769230769231  C 14.5666666666667 16.3585737179487  14.6305555555556 16.6535456730769  14.7583333333333 16.9618389423077  C 14.8861111111111 17.2701322115385  15.0138888888889 17.5403645833333  15.1416666666667 17.7725360576923  C 15.2694444444444 18.0047075320513  15.3333333333333 18.1702724358974  15.3333333333333 18.2692307692308  C 15.3333333333333 18.4671474358974  15.2574652777778 18.638421474359  15.1057291666667 18.7830528846154  C 14.9539930555556 18.9276842948718  14.7743055555556 19  14.5666666666667 19  L 8.43333333333333 19  C 8.22569444444445 19  8.04600694444445 18.9276842948718  7.89427083333333 18.7830528846154  C 7.74253472222222 18.638421474359  7.66666666666667 18.4671474358974  7.66666666666667 18.2692307692308  C 7.66666666666667 18.1626602564103  7.73055555555556 17.9951923076923  7.85833333333333 17.7668269230769  C 7.98611111111111 17.5384615384615  8.11388888888889 17.2720352564103  8.24166666666667 16.9675480769231  C 8.36944444444445 16.6630608974359  8.43333333333333 16.3661858974359  8.43333333333333 16.0769230769231  L 1.91666666666667 16.0769230769231  C 1.38958333333333 16.0769230769231  0.938368055555556 15.8980368589744  0.563020833333333 15.5402644230769  C 0.187673611111111 15.1824919871795  0 14.7524038461538  0 14.25  L 0 1.82692307692308  C 0 1.32451923076923  0.187673611111111 0.894431089743589  0.563020833333333 0.536658653846154  C 0.938368055555556 0.178886217948718  1.38958333333333 0  1.91666666666667 0  L 21.0833333333333 0  C 21.6104166666667 0  22.0616319444444 0.178886217948718  22.4369791666667 0.536658653846154  Z " fill-rule="nonzero" fill="#cccccc" stroke="none" transform="matrix(1 0 0 1 24 167 )" />
  </g>
</svg>