<?xml version="1.0" encoding="utf-8"?>
<svg version="1.1" xmlns:xlink="http://www.w3.org/1999/xlink" width="23px" height="19px" xmlns="http://www.w3.org/2000/svg">
  <g transform="matrix(1 0 0 1 -23 -446 )">
    <path d="M 13.8912259615385 9.26497395833333  C 14.0663060897436 9.10828993055555  14.1538461538462 8.92274305555555  14.1538461538462 8.70833333333333  C 14.1538461538462 8.49392361111111  14.0663060897436 8.30837673611111  13.8912259615385 8.15169270833333  C 13.7161458333333 7.99500868055556  13.5088141025641 7.91666666666667  13.2692307692308 7.91666666666667  L 9.73076923076923 7.91666666666667  C 9.4911858974359 7.91666666666667  9.28385416666667 7.99500868055556  9.10877403846154 8.15169270833333  C 8.93369391025641 8.30837673611111  8.84615384615385 8.49392361111111  8.84615384615385 8.70833333333333  C 8.84615384615385 8.92274305555555  8.93369391025641 9.10828993055555  9.10877403846154 9.26497395833333  C 9.28385416666667 9.42165798611111  9.4911858974359 9.5  9.73076923076923 9.5  L 13.2692307692308 9.5  C 13.5088141025641 9.5  13.7161458333333 9.42165798611111  13.8912259615385 9.26497395833333  Z M 21.8527644230769 5.77669270833333  C 22.0278445512821 5.93337673611111  22.1153846153846 6.11892361111111  22 6.33333333333333  L 22 18.2083333333333  C 22.1153846153846 18.4227430555556  22.0278445512821 18.6082899305556  21.8527644230769 18.7649739583333  C 21.6776842948718 18.9216579861111  21.4703525641026 19  21.2307692307692 19  L 1.76923076923077 19  C 1.52964743589744 19  1.32231570512821 18.9216579861111  1.14723557692308 18.7649739583333  C 0.972155448717949 18.6082899305556  0.884615384615385 18.4227430555556  1 18.2083333333333  L 1 6.33333333333333  C 0.884615384615385 6.11892361111111  0.972155448717949 5.93337673611111  1.14723557692308 5.77669270833333  C 1.32231570512821 5.62000868055555  1.52964743589744 5.54166666666667  1.76923076923077 5.54166666666667  L 21.2307692307692 5.54166666666667  C 21.4703525641026 5.54166666666667  21.6776842948718 5.62000868055555  21.8527644230769 5.77669270833333  Z M 22.7373798076923 0.235026041666666  C 22.9124599358974 0.391710069444442  23 0.577256944444442  23 0.791666666666666  L 23 3.95833333333333  C 23 4.17274305555555  22.9124599358974 4.35828993055555  22.7373798076923 4.51497395833333  C 22.5622996794872 4.67165798611111  22.354967948718 4.75  22.1153846153846 5  L 0.884615384615385 5  C 0.645032051282052 4.75  0.437700320512821 4.67165798611111  0.262620192307692 4.51497395833333  C 0.0875400641025642 4.35828993055555  0 4.17274305555555  0 3.95833333333333  L 0 0.791666666666666  C 0 0.577256944444442  0.0875400641025642 0.391710069444442  0.262620192307692 0.235026041666666  C 0.437700320512821 0.078342013888888  0.645032051282052 0  0.884615384615385 0  L 22.1153846153846 0  C 22.354967948718 0  22.5622996794872 0.078342013888888  22.7373798076923 0.235026041666666  Z " fill-rule="nonzero" fill="#cccccc" stroke="none" transform="matrix(1 0 0 1 23 446 )" />
  </g>
</svg>