<?xml version="1.0" encoding="utf-8"?>
<svg version="1.1" xmlns:xlink="http://www.w3.org/1999/xlink" width="39px" height="34px" xmlns="http://www.w3.org/2000/svg">
  <g transform="matrix(1 0 0 1 -252 -25 )">
    <path d="M 36.2142857142857 2.8296488946684  L 36.2142857142857 11.3185955786736  C 36.9832589285714 11.3185955786736  37.6397879464286 11.5949284785436  38.1838727678571 12.1475942782835  C 38.7279575892857 12.7002600780234  39 13.3671434763762  39 14.148244473342  C 39 14.9293454703078  38.7279575892857 15.5962288686606  38.1838727678571 16.1488946684005  C 37.6397879464286 16.7015604681404  36.9832589285714 16.9778933680104  36.2142857142857 16.9778933680104  L 36.2142857142857 25.4668400520156  C 36.2142857142857 26.2332032943216  35.9386160714286 26.8964022540095  35.3872767857143 27.4564369310793  C 34.8359375 28.0164716081491  34.1830357142857 28.296488946684  33.4285714285714 28.296488946684  C 27.3783482142857 23.1824880797573  21.4877232142857 20.3823146944083  15.7566964285714 19.8959687906372  C 14.9151785714286 20.1759861291721  14.2550223214286 20.6623320329432  13.7762276785714 21.3550065019506  C 13.2974330357143 22.047680970958  13.0725446428571 22.7882531426094  13.1015625 23.5767230169051  C 13.1305803571429 24.3651928912007  13.4207589285714 25.0468140442133  13.9720982142857 25.6215864759428  C 13.6819196428571 26.1079323797139  13.5150669642857 26.5905938448201  13.4715401785714 27.0695708712614  C 13.4280133928571 27.5485478977026  13.4715401785714 27.9759427828348  13.6021205357143 28.351755526658  C 13.7327008928571 28.7275682704811  13.9757254464286 29.1328565236238  14.3311941964286 29.5676202860858  C 14.6866629464286 30.0023840485479  15.0348772321429 30.3708279150412  15.3758370535714 30.6729518855657  C 15.716796875 30.9750758560902  16.1629464285714 31.3472041612484  16.7142857142857 31.7893368010403  C 16.2935267857143 32.6441265713047  15.4846540178571 33.2557433896836  14.2876674107143 33.6241872561769  C 13.0906808035714 33.9926311226701  11.8683035714286 34.0773732119636  10.6205357142857 33.8784135240572  C 9.37276785714286 33.6794538361508  8.41517857142857 33.2704811443433  7.74776785714286 32.6514954486346  C 7.64620535714286 32.3125270914608  7.43219866071429 31.6677503250975  7.10574776785714 30.7171651495449  C 6.779296875 29.7665799739922  6.54715401785714 29.0702210663199  6.40931919642857 28.628088426528  C 6.271484375 28.185955786736  6.10463169642857 27.530125704378  5.90876116071429 26.6605981794538  C 5.712890625 25.7910706545297  5.60407366071429 25.0468140442133  5.58231026785714 24.4278283485046  C 5.560546875 23.8088426527958  5.5859375 23.0830082358041  5.65848214285714 22.2503250975293  C 5.73102678571429 21.4176419592544  5.890625 20.6033810143043  6.13727678571429 19.8075422626788  L 3.48214285714286 19.8075422626788  C 2.52455357142857 19.8075422626788  1.70479910714286 19.4612050281751  1.02287946428571 18.7685305591678  C 0.340959821428571 18.0758560901604  0 17.2431729518856  0 16.2704811443433  L 0 12.0260078023407  C 0 11.0533159947984  0.340959821428571 10.2206328565236  1.02287946428571 9.52795838751625  C 1.70479910714286 8.83528391850888  2.52455357142857 8.4889466840052  3.48214285714286 9  L 13.9285714285714 9  C 20.2399553571429 8.4889466840052  26.7399553571429 5.6592977893368  33.4285714285714 0  C 34.1830357142857 0  34.8359375 0.28001733853489  35.3872767857143 0.840052015604682  C 35.9386160714286 1.40008669267447  36.2142857142857 2.06328565236237  36.2142857142857 2.8296488946684  Z M 16.7142857142857 17.1326397919376  C 22.1841517857143 17.7516254876463  27.7555803571429 20.2644126571305  33 24.6710013003901  L 33 3.58127438231469  C 27.7120535714286 8.03207628955353  22.140625 10.5596012136974  16.7142857142857 11.1638491547464  L 16.7142857142857 17.1326397919376  Z " fill-rule="nonzero" fill="#ffffff" stroke="none" transform="matrix(1 0 0 1 252 25 )" />
  </g>
</svg>