<?xml version="1.0" encoding="utf-8"?>
<svg version="1.1" xmlns:xlink="http://www.w3.org/1999/xlink" width="25px" height="26px" xmlns="http://www.w3.org/2000/svg">
  <g transform="matrix(1 0 0 1 -23 -832 )">
    <path d="M 11.2727014755959 8.65699944227551  C 11.8733446840711 9.22736568135341  12.1736662883087 9.91857222532069  12.1736662883087 10.7306190741774  C 12.1736662883087 11.5329986986429  11.8733446840711 12.2217884365124  11.2727014755959 12.7969882877858  C 10.6720582671207 13.3721881390593  9.95081346954219 13.659788064696  9.10896708286039 13.659788064696  C 8.26712069617859 13.659788064696  7.54587589860008 13.3721881390593  6.94523269012486 12.7969882877858  C 6.34458948164964 12.2217884365124  6.04426787741203 11.5329986986429  6.04426787741203 10.7306190741774  C 6.04426787741203 9.91857222532069  6.34458948164964 9.22736568135341  6.94523269012486 8.65699944227551  C 7.54587589860008 8.08663320319762  8.26712069617859 7.80145008365867  9.10896708286039 7.80145008365867  C 9.95081346954219 7.80145008365867  10.6720582671207 8.08663320319762  11.2727014755959 8.65699944227551  Z M 18.4023836549376 8.65699944227551  C 18.9982973893303 9.22736568135341  19.2962542565267 9.91857222532069  19.2962542565267 10.7306190741774  C 19.2962542565267 11.5329986986429  18.9982973893303 12.2217884365124  18.4023836549376 12.7969882877858  C 17.8064699205448 13.3721881390593  17.0828603859251 13.659788064696  16.2315550510783 13.659788064696  C 15.3897086643965 13.659788064696  14.668463866818 13.3721881390593  14.0678206583428 12.7969882877858  C 13.4671774498676 12.2217884365124  13.16685584563 11.5329986986429  13.16685584563 10.7306190741774  C 13.16685584563 9.91857222532069  13.4671774498676 9.22736568135341  14.0678206583428 8.65699944227551  C 14.668463866818 8.08663320319762  15.3897086643965 7.80145008365867  16.2315550510783 7.80145008365867  C 17.0828603859251 7.80145008365867  17.8064699205448 8.08663320319762  18.4023836549376 8.65699944227551  Z M 21.4670828603859 13.8410485220301  C 21.8170639424896 13.6912065439673  22.1575860764283 13.5244469232199  22.488649262202 13.3407696597881  L 22.488649262202 3.66871165644172  C 22.488649262202 2.8276631344116  22.3373060915626 2.23071202825804  22.0346197502838 1.87785833798104  C 21.7319334090049 1.52500464770403  21.2069617858494 1.34857780256553  20.4597048808173 1.34857780256553  L 4.68217934165721 1.34857780256553  C 3.89708664396519 1.34857780256553  3.36502080968596 1.51292061721509  3.08598183881952 1.84160624651422  C 2.80694286795308 2.17029187581335  2.66742338251986 2.77932701245584  2.66742338251986 3.66871165644172  L 2.66742338251986 13.4277746793084  C 3.07415815361332 13.6501208403049  3.49271660991298 13.8434653281279  3.92309875141884 14.0078081427775  C 4.35348089292471 14.172150957427  4.73656829360575 14.3074920989031  5.07236095346197 14.4138315672058  C 5.4081536133182 14.5201710355085  5.79124101399924 14.6095928611266  6.22162315550511 14.6820970440602  C 6.65200529701097 14.7546012269939  6.9877979568672 14.8077709611452  7.22900113507378 14.8416062465142  C 7.47020431328036 14.8754415318832  7.80126749905411 14.8947759806656  8.222190692395 14.8996095928611  C 8.64311388573591 14.9044432050567  8.91978811956111 14.9068600111545  9.0522133938706 14.9068600111545  C 9.1846386681801 14.9068600111545  9.45185395384033 14.8971927867633  9.85385925085131 14.877858337981  C 10.2558645478623 14.8585238891987  10.4663261445327 14.8488566648076  10.4852440408627 14.8488566648076  C 11.1284525160802 14.8391894404164  11.577752553916 14.969696969697  11.83314415437 15.2403792526492  C 11.8898978433598 15.2983825989961  11.9371925841846 15.3418851087563  11.9750283768445 15.3708867819297  C 12.2209610291336 15.6125673917085  12.509458948165 15.8590816136828  12.8405221339387 16.1104294478528  C 12.9067347710935 15.230712028258  13.4648127128263 14.810187767243  14.5147559591373 14.8488566648076  C 14.5620506999622 14.8488566648076  14.7346765039728 14.8561070831009  15.0326333711691 14.8706079196877  C 15.3305902383655 14.8851087562744  15.5339576239122 14.8947759806656  15.6427355278093 14.8996095928611  C 15.7515134317064 14.9044432050567  15.9667045024593 14.9092768172523  16.2883087400681 14.9141104294479  C 16.6099129776769 14.9189440416434  16.8605751040484 14.9141104294479  17.0402951191827 14.8996095928611  C 17.2200151343171 14.8851087562744  17.4777714718123 14.8633575013943  17.8135641316686 14.8343558282209  C 18.1493567915248 14.8053541550474  18.4378547105562 14.764268451385  18.6790578887628 14.7110987172337  C 18.9202610669694 14.6579289830824  19.2134884600832 14.5926752184421  19.5587400681044 14.5153374233129  C 19.9039916761256 14.4379996281837  20.2208664396519 14.34374419037  20.5093643586833 14.2325711098717  C 20.7978622777147 14.1213980293735  21.1171017782823 13.990890500093  21.4670828603859 13.8410485220301  Z M 24.8581157775255 12.3547127718907  C 25.0567536889898 12.6060606060606  25.0378357926599 12.9105781743819  24.8013620885358 13.2682654768544  C 23.6568293605751 14.7086819111359  21.8974650018918 15.9267521844209  19.5232690124858 16.9224762967094  C 20.3178206583428 19.6776352481874  20.2090427544457 21.92526491913  19.1969353007946 23.6653653095371  C 18.5726447219069 24.7577616657371  17.7071509648127 25.4731362706823  16.6004540295119 25.8114891243726  C 15.6167234203557 26.1208403048894  14.7559591373439 26.0483361219558  14.0181611804767 25.5939765755717  C 13.2046916382898 25.100948131623  12.8168747635263 24.3082357315486  12.8547105561862 23.2158393753486  L 12.8405221339387 18.4885666480758  L 12.8405221339387 18.4740658114891  C 12.764850548619 18.4547313627068  12.6489784335982 18.4257296895334  12.4929057888763 18.3870607919688  C 12.3368331441544 18.3483918944042  12.225690503216 18.3242238334263  12.1594778660613 18.3145566090351  L 12.1452894438138 23.2158393753486  C 12.1831252364737 24.3179029559398  11.7905788876277 25.1106153560141  10.9676503972758 25.5939765755717  C 10.2203934922437 26.0483361219558  9.35489973514945 26.1208403048894  8.37116912599319 25.8114891243726  C 7.26447219069239 25.4634690462911  6.40370790768067 24.7384272169548  5.788876276958 23.6363636363636  C 4.79568671963678 21.8962632459565  4.69163828982217 19.6583007994051  5.47673098751419 16.9224762967094  C 3.10253499810821 15.9267521844209  1.3431706394249 14.7086819111359  0.198637911464245 13.2682654768544  C -0.0378357926598562 12.9105781743819  -0.0567536889897843 12.6060606060606  0.141884222474461 12.3547127718907  C 0.340522133938706 12.1033649377208  0.624290578887628 12.1081985499163  0.993189557321226 12.3692136084774  C 1.02156640181612 12.3885480572597  1.07359061672342 12.4223833426287  1.14926220204313 12.4707194645845  C 1.22493378736285 12.5190555865402  1.27695800227015 12.5577244841049  1.30533484676504 12.5867261572783  L 1.30533484676504 2.52314556609035  C 1.30533484676504 1.8271054099275  1.5276201286417 1.23257110987172  1.97219069239501 0.739542665923033  C 2.41676125614832 0.246514221974343  2.95592130155127 0  3.58967082860386 0  L 21.4245175936436 0  C 22.0582671206962 0  22.5974271660991 0.246514221974343  23.0419977298524 0.739542665923033  C 23.4865682936058 1.23257110987172  23.7088535754824 1.8271054099275  23.7088535754824 2.52314556609035  L 23.7088535754824 12.5867261572783  L 24.0068104426788 12.3692136084774  C 24.3757094211124 12.1081985499163  24.6594778660613 12.1033649377208  24.8581157775255 12.3547127718907  Z " fill-rule="nonzero" fill="#999999" stroke="none" transform="matrix(1 0 0 1 23 832 )" />
  </g>
</svg>