<?xml version="1.0" encoding="utf-8"?>
<svg version="1.1" xmlns:xlink="http://www.w3.org/1999/xlink" width="21px" height="24px" xmlns="http://www.w3.org/2000/svg">
  <g transform="matrix(1 0 0 1 -24 -1010 )">
    <path d="M 4.443359375 9.70982142857143  C 6.32096354166667 10.09375  8.33984375 10.2857142857143  10.5 10.2857142857143  C 12.66015625 10.2857142857143  14.6790364583333 10.09375  16.556640625 9.70982142857143  C 18.4342447916667 9.32589285714285  19.9153645833333 8.75892857142857  21 8.00892857142857  L 21 10.2857142857143  C 21 10.9017857142857  20.5305989583333 11.4732142857143  19.591796875 12  C 18.6529947916667 12.5267857142857  17.376953125 12.9441964285714  15.763671875 13.2522321428571  C 14.150390625 13.5602678571429  12.3958333333333 13.7142857142857  10.5 13.7142857142857  C 8.60416666666667 13.7142857142857  6.849609375 13.5602678571429  5.236328125 13.2522321428571  C 3.623046875 12.9441964285714  2.34700520833333 12.5267857142857  1.408203125 12  C 0.469401041666667 11.4732142857143  0 10.9017857142857  0 10.2857142857143  L 0 8.00892857142857  C 1.08463541666667 8.75892857142857  2.56575520833333 9.32589285714285  4.443359375 9.70982142857143  Z M 4.443359375 19.9955357142857  C 6.32096354166667 20.3794642857143  8.33984375 20.5714285714286  10.5 20.5714285714286  C 12.66015625 20.5714285714286  14.6790364583333 20.3794642857143  16.556640625 19.9955357142857  C 18.4342447916667 19.6116071428571  19.9153645833333 19.0446428571429  21 18.2946428571429  L 21 20.5714285714286  C 21 21.1875  20.5305989583333 21.7589285714286  19.591796875 22.2857142857143  C 18.6529947916667 22.8125  17.376953125 23.2299107142857  15.763671875 23.5379464285714  C 14.150390625 23.8459821428571  12.3958333333333 24  10.5 24  C 8.60416666666667 24  6.849609375 23.8459821428571  5.236328125 23.5379464285714  C 3.623046875 23.2299107142857  2.34700520833333 22.8125  1.408203125 22.2857142857143  C 0.469401041666667 21.7589285714286  0 21.1875  0 20.5714285714286  L 0 18.2946428571429  C 1.08463541666667 19.0446428571429  2.56575520833333 19.6116071428571  4.443359375 19.9955357142857  Z M 4.443359375 14.8526785714286  C 6.32096354166667 15.2366071428571  8.33984375 15.4285714285714  10.5 15.4285714285714  C 12.66015625 15.4285714285714  14.6790364583333 15.2366071428571  16.556640625 14.8526785714286  C 18.4342447916667 14.46875  19.9153645833333 13.9017857142857  21 13.1517857142857  L 21 15.4285714285714  C 21 16.0446428571429  20.5305989583333 16.6160714285714  19.591796875 17.1428571428571  C 18.6529947916667 17.6696428571429  17.376953125 18.0870535714286  15.763671875 18.3950892857143  C 14.150390625 18.703125  12.3958333333333 18.8571428571429  10.5 18.8571428571429  C 8.60416666666667 18.8571428571429  6.849609375 18.703125  5.236328125 18.3950892857143  C 3.623046875 18.0870535714286  2.34700520833333 17.6696428571429  1.408203125 17.1428571428571  C 0.469401041666667 16.6160714285714  0 16.0446428571429  0 15.4285714285714  L 0 13.1517857142857  C 1.08463541666667 13.9017857142857  2.56575520833333 14.46875  4.443359375 14.8526785714286  Z M 5.236328125 0.46205357142857  C 6.849609375 0.154017857142857  8.60416666666667 0  10.5 0  C 12.3958333333333 0  14.150390625 0.154017857142857  15.763671875 0.46205357142857  C 17.376953125 0.770089285714286  18.6529947916667 1.1875  19.591796875 1.71428571428571  C 20.5305989583333 2.24107142857143  21 2.8125  21 3.42857142857143  L 21 5.14285714285714  C 21 5.75892857142857  20.5305989583333 6.33035714285714  19.591796875 6.85714285714286  C 18.6529947916667 7.38392857142857  17.376953125 7.80133928571429  15.763671875 8.109375  C 14.150390625 8.41741071428571  12.3958333333333 8.57142857142857  10.5 8.57142857142857  C 8.60416666666667 8.57142857142857  6.849609375 8.41741071428571  5.236328125 8.109375  C 3.623046875 7.80133928571429  2.34700520833333 7.38392857142857  1.408203125 6.85714285714286  C 0.469401041666667 6.33035714285714  0 5.75892857142857  0 5.14285714285714  L 0 3.42857142857143  C 0 2.8125  0.469401041666667 2.24107142857143  1.408203125 1.71428571428571  C 2.34700520833333 1.1875  3.623046875 0.770089285714286  5.236328125 0.46205357142857  Z " fill-rule="nonzero" fill="#999999" stroke="none" transform="matrix(1 0 0 1 24 1010 )" />
  </g>
</svg>