<?xml version="1.0" encoding="utf-8"?>
<svg version="1.1" xmlns:xlink="http://www.w3.org/1999/xlink" width="23px" height="23px" xmlns="http://www.w3.org/2000/svg">
  <g transform="matrix(1 0 0 1 -25 -1626 )">
    <path d="M 0.461538461538462 18  L 22.5384615384615 18  L 22.9871794871795 22.0887276785714  C 23.0128205128205 22.3283110119048  22.9444444444444 22.542224702381  22.7820512820513 22.73046875  C 22.6196581196581 22.91015625  22.4145299145299 23  22.1666666666667 23  L 0.833333333333333 23  C 0.585470085470085 23  0.38034188034188 22.91015625  0.217948717948718 22.73046875  C 0.0555555555555556 22.542224702381  -0.0128205128205128 22.3283110119048  0.0128205128205128 22.0887276785714  L 0.461538461538462 18  Z M 21.0769230769231 6.783203125  C 21.2307692307692 6.92438616071429  21.3205128205128 7.09765625  21.3461538461538 7.30301339285714  L 22.4487179487179 17  L 0.551282051282051 17  L 1.65384615384615 7.30301339285714  C 1.67948717948718 7.09765625  1.76923076923077 6.92438616071429  1.92307692307692 6.783203125  C 2.07692307692308 6.64202008928571  2.26068376068376 6.57142857142857  2.47435897435897 6.57142857142857  L 5.75641025641026 6.57142857142857  L 5.75641025641026 8.21428571428571  C 5.75641025641026 8.66778273809524  5.91666666666667 9.05496651785714  6.23717948717949 9.37583705357143  C 6.55769230769231 9.69670758928571  6.94444444444445 9.85714285714286  7.3974358974359 9.85714285714286  C 7.85042735042735 9.85714285714286  8.23717948717949 9.69670758928571  8.55769230769231 9.37583705357143  C 8.87820512820513 9.05496651785714  9.03846153846154 8.66778273809524  9.03846153846154 8.21428571428571  L 9.03846153846154 6.57142857142857  L 13.9615384615385 6.57142857142857  L 13.9615384615385 8.21428571428571  C 13.9615384615385 8.66778273809524  14.1217948717949 9.05496651785714  14.4423076923077 9.37583705357143  C 14.7628205128205 9.69670758928571  15.1495726495727 9.85714285714286  15.6025641025641 9.85714285714286  C 16.0555555555556 9.85714285714286  16.4423076923077 9.69670758928571  16.7628205128205 9.37583705357143  C 17.0833333333333 9.05496651785714  17.2435897435897 8.66778273809524  17.2435897435897 8.21428571428571  L 17.2435897435897 6.57142857142857  L 20.525641025641 6.57142857142857  C 20.7393162393162 6.57142857142857  20.9230769230769 6.64202008928571  21.0769230769231 6.783203125  Z M 14.9807692307692 1.44391741071429  C 15.9423076923077 2.40652901785714  16.4230769230769 3.56808035714286  16.4230769230769 4.92857142857143  L 16.4230769230769 8.21428571428571  C 16.4230769230769 8.43675595238095  16.3418803418803 8.62927827380952  16.1794871794872 8.79185267857143  C 16.017094017094 8.95442708333333  15.8247863247863 9.03571428571429  15.6025641025641 9.03571428571429  C 15.3803418803419 9.03571428571429  15.1880341880342 8.95442708333333  15.025641025641 8.79185267857143  C 14.8632478632479 8.62927827380952  14.7820512820513 8.43675595238095  14.7820512820513 8.21428571428571  L 14.7820512820513 4.92857142857143  C 14.7820512820513 4.02157738095238  14.4615384615385 3.24720982142857  13.8205128205128 2.60546875  C 13.1794871794872 1.96372767857143  12.4059829059829 1.64285714285714  11.5 1.64285714285714  C 10.5940170940171 1.64285714285714  9.82051282051282 1.96372767857143  9.17948717948718 2.60546875  C 8.53846153846154 3.24720982142857  8.21794871794872 4.02157738095238  8.21794871794872 4.92857142857143  L 8.21794871794872 8.21428571428571  C 8.21794871794872 8.43675595238095  8.13675213675214 8.62927827380952  7.97435897435897 8.79185267857143  C 7.81196581196581 8.95442708333333  7.61965811965812 9.03571428571429  7.3974358974359 9.03571428571429  C 7.17521367521368 9.03571428571429  6.98290598290598 8.95442708333333  6.82051282051282 8.79185267857143  C 6.65811965811966 8.62927827380952  6.57692307692308 8.43675595238095  6.57692307692308 8.21428571428571  L 6.57692307692308 4.92857142857143  C 6.57692307692308 3.56808035714286  7.05769230769231 2.40652901785714  8.01923076923077 1.44391741071429  C 8.98076923076923 0.481305803571429  10.1410256410256 0  11.5 0  C 12.8589743589744 0  14.0192307692308 0.481305803571429  14.9807692307692 1.44391741071429  Z " fill-rule="nonzero" fill="#999999" stroke="none" transform="matrix(1 0 0 1 25 1626 )" />
  </g>
</svg>