<?xml version="1.0" encoding="utf-8"?>
<svg version="1.1" xmlns:xlink="http://www.w3.org/1999/xlink" width="21px" height="21px" xmlns="http://www.w3.org/2000/svg">
  <g transform="matrix(1 0 0 1 -417 -486 )">
    <path d="M 3.54851485148515 19.2257425742574  L 5.03168316831683 19.2257425742574  L 6.29306930693069 17.9643564356436  L 3.03564356435644 14.7069306930693  L 1.77425742574257 15.9683168316832  L 1.77425742574257 17.4514851485149  L 3.54851485148515 17.4514851485149  L 3.54851485148515 19.2257425742574  Z M 12.1841584158416 6.5980198019802  C 12.2488448844885 6.53333333333333  12.2811881188119 6.45478547854785  12.2811881188119 6.36237623762376  C 12.2811881188119 6.15907590759076  12.1795379537954 6.05742574257426  11.9762376237624 6.05742574257426  C 11.8838283828383 6.05742574257426  11.8052805280528 6.08976897689769  11.7405940594059 6.15445544554456  L 4.22772277227723 13.6673267326733  C 4.16303630363036 13.7320132013201  4.13069306930693 13.8105610561056  4.13069306930693 13.9029702970297  C 4.13069306930693 14.1062706270627  4.23234323432343 14.2079207920792  4.43564356435644 14.2079207920792  C 4.52805280528053 14.2079207920792  4.60660066006601 14.1755775577558  4.67128712871287 14.1108910891089  L 12.1841584158416 6.5980198019802  Z M 0 15.2336633663366  L 11.5326732673267 3.7009900990099  L 17.2990099009901 9.46732673267327  L 5.76633663366337 21  L 0 21  L 0 15.2336633663366  Z M 20.4871287128713 3.77029702970297  C 20.8290429042904 4.13069306930693  21 4.55115511551155  21 5.03168316831683  C 21 5.52145214521452  20.8290429042904 5.93729372937294  20.4871287128713 6.27920792079208  L 18.1861386138614 8.58019801980198  L 12.419801980198 2.81386138613861  L 14.7207920792079 0.526732673267326  C 15.0534653465347 0.175577557755774  15.4693069306931 0  15.9683168316832 0  C 16.4580858085809 0  16.8785478547855 0.175577557755774  17.229702970297 0.526732673267326  L 20.4871287128713 3.77029702970297  Z " fill-rule="nonzero" fill="#999999" stroke="none" transform="matrix(1 0 0 1 417 486 )" />
  </g>
</svg>