<?xml version="1.0" encoding="utf-8"?>
<svg version="1.1" xmlns:xlink="http://www.w3.org/1999/xlink" width="27px" height="21px" xmlns="http://www.w3.org/2000/svg">
  <g transform="matrix(1 0 0 1 -523 -487 )">
    <path d="M 26.8568638392857 13.6484375  C 26.9522879464286 13.7473958333333  27 13.8645833333333  27 14  L 27 17  C 27 17.1354166666667  26.9522879464286 17.2526041666667  26.8568638392857 17.3515625  C 26.7614397321429 17.4505208333333  26.6484375 17.5  26.5178571428571 17.5  L 5.78571428571429 17.5  L 5.78571428571429 20.5  C 5.78571428571429 20.6354166666667  5.73800223214286 20.7526041666667  5.642578125 20.8515625  C 5.54715401785714 20.9505208333333  5.43415178571429 21  5.30357142857143 21  C 5.18303571428571 21  5.0625 20.9479166666667  4.94196428571429 20.84375  L 0.135602678571429 15.84375  C 0.0452008928571429 15.75  0 15.6354166666667  0 15.5  C 0 15.3541666666667  0.0452008928571429 15.234375  0.135602678571429 15.140625  L 4.95703125 10.140625  C 5.04743303571429 10.046875  5.16294642857143 10  5.30357142857143 10  C 5.43415178571429 10  5.54715401785714 10.0494791666667  5.642578125 10.1484375  C 5.73800223214286 10.2473958333333  5.78571428571429 10.3645833333333  5.78571428571429 10.5  L 5.78571428571429 13.5  L 26.5178571428571 13.5  C 26.6484375 13.5  26.7614397321429 13.5494791666667  26.8568638392857 13.6484375  Z M 26.8643973214286 5.140625  C 26.9547991071429 5.234375  27 5.35416666666667  27 5.5  C 27 5.64583333333333  26.9547991071429 5.765625  26.8643973214286 5.859375  L 22.04296875 10.859375  C 21.9525669642857 10.953125  21.8370535714286 11  21.6964285714286 11  C 21.5658482142857 11  21.4528459821429 10.9505208333333  21.357421875 10.8515625  C 21.2619977678571 10.7526041666667  21.2142857142857 10.6354166666667  21.2142857142857 10.5  L 21.2142857142857 7.5  L 0.482142857142857 7.5  C 0.3515625 7.5  0.238560267857143 7.45052083333333  0.143136160714286 7.3515625  C 0.0477120535714286 7.25260416666667  0 7.13541666666667  0 7  L 0 4  C 0 3.86458333333333  0.0477120535714286 3.74739583333333  0.143136160714286 3.6484375  C 0.238560267857143 3.54947916666666  0.3515625 3.5  0.482142857142857 3.5  L 21.2142857142857 3.5  L 21.2142857142857 0.500000000000001  C 21.2142857142857 0.354166666666665  21.2594866071429 0.234375  21.3498883928571 0.140625000000001  C 21.4402901785714 0.046875000000001  21.5558035714286 0  21.6964285714286 0  C 21.8169642857143 0  21.9375 0.0520833333333331  22.0580357142857 0.156249999999999  L 26.8643973214286 5.140625  Z " fill-rule="nonzero" fill="#999999" stroke="none" transform="matrix(1 0 0 1 523 487 )" />
  </g>
</svg>