<?xml version="1.0" encoding="utf-8"?>
<svg version="1.1" xmlns:xlink="http://www.w3.org/1999/xlink" width="21px" height="24px" xmlns="http://www.w3.org/2000/svg">
  <g transform="matrix(1 0 0 1 -639 -485 )">
    <path d="M 7.50213068181818 9.140625  C 7.59161931818182 9.234375  7.63636363636364 9.35416666666667  7.63636363636364 9.5  L 7.63636363636364 18.5  C 7.63636363636364 18.6458333333333  7.59161931818182 18.765625  7.50213068181818 18.859375  C 7.41264204545454 18.953125  7.29829545454546 19  7.15909090909091 19  L 6.20454545454546 19  C 6.06534090909091 19  5.95099431818182 18.953125  5.86150568181818 18.859375  C 5.77201704545454 18.765625  5.72727272727273 18.6458333333333  5.72727272727273 18.5  L 5.72727272727273 9.5  C 5.72727272727273 9.35416666666667  5.77201704545454 9.234375  5.86150568181818 9.140625  C 5.95099431818182 9.046875  6.06534090909091 9  6.20454545454546 9  L 7.15909090909091 9  C 7.29829545454546 9  7.41264204545454 9.046875  7.50213068181818 9.140625  Z M 11.3203125 9.140625  C 11.4098011363636 9.234375  11.4545454545455 9.35416666666667  11.4545454545455 9.5  L 11.4545454545455 18.5  C 11.4545454545455 18.6458333333333  11.4098011363636 18.765625  11.3203125 18.859375  C 11.2308238636364 18.953125  11.1164772727273 19  10.9772727272727 19  L 10.0227272727273 19  C 9.88352272727273 19  9.76917613636364 18.953125  9.6796875 18.859375  C 9.59019886363636 18.765625  9.54545454545454 18.6458333333333  9.54545454545454 18.5  L 9.54545454545454 9.5  C 9.54545454545454 9.35416666666667  9.59019886363636 9.234375  9.6796875 9.140625  C 9.76917613636364 9.046875  9.88352272727273 9  10.0227272727273 9  L 10.9772727272727 9  C 11.1164772727273 9  11.2308238636364 9.046875  11.3203125 9.140625  Z M 15.1384943181818 9.140625  C 15.2279829545455 9.234375  15.2727272727273 9.35416666666667  15.2727272727273 9.5  L 15.2727272727273 18.5  C 15.2727272727273 18.6458333333333  15.2279829545455 18.765625  15.1384943181818 18.859375  C 15.0490056818182 18.953125  14.9346590909091 19  14.7954545454545 19  L 13.8409090909091 19  C 13.7017045454545 19  13.5873579545455 18.953125  13.4978693181818 18.859375  C 13.4083806818182 18.765625  13.3636363636364 18.6458333333333  13.3636363636364 18.5  L 13.3636363636364 9.5  C 13.3636363636364 9.35416666666667  13.4083806818182 9.234375  13.4978693181818 9.140625  C 13.5873579545455 9.046875  13.7017045454545 9  13.8409090909091 9  L 14.7954545454545 9  C 14.9346590909091 9  15.0490056818182 9.046875  15.1384943181818 9.140625  Z M 17.0774147727273 21.4453125  C 17.1470170454545 21.2526041666667  17.1818181818182 21.0416666666667  17 20.8125  L 17 6  L 4 6  L 4 20.8125  C 3.81818181818182 21.0416666666667  3.85298295454546 21.2526041666667  3.92258522727273 21.4453125  C 3.9921875 21.6380208333333  4.06427556818182 21.7786458333333  4.13884943181818 21.8671875  C 4.21342329545455 21.9557291666667  4.265625 22  4.29545454545455 22  L 16.7045454545455 22  C 16.734375 22  16.7865767045455 21.9557291666667  16.8611505681818 21.8671875  C 16.9357244318182 21.7786458333333  17.0078125 21.6380208333333  17.0774147727273 21.4453125  Z M 7.88991477272727 2.171875  L 7.15909090909091 4  L 13.8409090909091 4  L 13.125 2.171875  C 13.0553977272727 2.078125  12.9708806818182 2.02083333333333  12.8714488636364 2  L 8.14346590909091 2  C 8.04403409090909 2.02083333333333  7.95951704545455 2.078125  7.88991477272727 2.171875  Z M 20.8657670454545 4.140625  C 20.9552556818182 4.234375  21 4.35416666666667  21 4.5  L 21 5.5  C 21 5.64583333333333  20.9552556818182 5.765625  20.8657670454545 5.859375  C 20.7762784090909 5.953125  20.6619318181818 6  20.5227272727273 6  L 19 6  L 19 20.8125  C 19.0909090909091 21.6770833333333  18.8572443181818 22.4244791666667  18.3899147727273 23.0546875  C 17.9225852272727 23.6848958333333  17.3607954545455 24  16.7045454545455 24  L 4.29545454545455 24  C 3.63920454545455 24  3.07741477272727 23.6953125  2.61008522727273 23.0859375  C 2.14275568181818 22.4765625  1.90909090909091 21.7395833333333  2 20.875  L 2 6  L 0.477272727272727 6  C 0.338068181818182 6  0.223721590909091 5.953125  0.134232954545455 5.859375  C 0.0447443181818182 5.765625  0 5.64583333333333  0 5.5  L 0 4.5  C 0 4.35416666666667  0.0447443181818182 4.234375  0.134232954545455 4.140625  C 0.223721590909091 4.046875  0.338068181818182 4  0.477272727272727 4  L 5.0859375 4  L 6.12997159090909 1.390625  C 6.27911931818182 1.00520833333333  6.54758522727273 0.677083333333331  6.93536931818182 0.406250000000001  C 7.32315340909091 0.135416666666665  7.71590909090909 0  8.11363636363636 0  L 12.8863636363636 0  C 13.2840909090909 0  13.6768465909091 0.135416666666665  14.0646306818182 0.406250000000001  C 14.4524147727273 0.677083333333331  14.7208806818182 1.00520833333333  14.8700284090909 1.390625  L 15.9140625 4  L 20.5227272727273 4  C 20.6619318181818 4  20.7762784090909 4.046875  20.8657670454545 4.140625  Z " fill-rule="nonzero" fill="#999999" stroke="none" transform="matrix(1 0 0 1 639 485 )" />
  </g>
</svg>