<?xml version="1.0" encoding="utf-8"?>
<svg version="1.1" xmlns:xlink="http://www.w3.org/1999/xlink" width="16px" height="21px" xmlns="http://www.w3.org/2000/svg">
  <g transform="matrix(1 0 0 1 -356 -398 )">
    <path d="M 15.4722222222222 9.5771484375  C 15.8240740740741 9.8369140625  16 10.14453125  16 10.5  C 16 10.85546875  15.8240740740741 11.1630859375  15.4722222222222 11.4228515625  L 3.02777777777778 20.6103515625  C 2.67592592592593 20.8701171875  2.25925925925926 21  1.77777777777778 21  C 1.2962962962963 21  0.87962962962963 20.8701171875  0.527777777777778 20.6103515625  C 0.175925925925926 20.3505859375  0 20.04296875  0 19.6875  L 0 1.3125  C 0 0.957031249999997  0.175925925925926 0.649414062499997  0.527777777777778 0.3896484375  C 0.87962962962963 0.129882812499998  1.2962962962963 0  1.77777777777778 0  C 2.25925925925926 0  2.67592592592593 0.129882812499998  3.02777777777778 0.3896484375  L 15.4722222222222 9.5771484375  Z " fill-rule="nonzero" fill="#ffffff" stroke="none" transform="matrix(1 0 0 1 356 398 )" />
  </g>
</svg>