<?xml version="1.0" encoding="utf-8"?>
<svg version="1.1" xmlns:xlink="http://www.w3.org/1999/xlink" width="83px" height="80px" xmlns="http://www.w3.org/2000/svg">
  <g transform="matrix(1 0 0 1 -320 -372 )">
    <path d="M 320 372  L 403 372  L 403 452  L 320 452  L 320 372  " fill-rule="nonzero" fill="#cccccc" stroke="none" />
    <path d="M 326 378  L 397 378  L 397 446  L 326 446  L 326 378  " fill-rule="nonzero" fill="#ffffff" stroke="none" />
    <path d="M 369.16 396  C 365.8 396  363.16 393.36  363.16 390  C 363.16 386.64  365.8 384  369.16 384  C 372.52 384  375.16 386.64  375.16 390  C 375.16 393.36  372.52 396  369.16 396  " fill-rule="nonzero" fill="#cccccc" stroke="none" />
    <path d="M 328 444  L 328 408.8  L 344.75 392.8  L 368.2 406.987951807229  L 381.6 402.4  L 395 406.987951807229  L 395 444  L 328 444  " fill-rule="nonzero" fill="#169bd5" stroke="none" />
  </g>
</svg>