<?xml version="1.0" encoding="utf-8"?>
<svg version="1.1" xmlns:xlink="http://www.w3.org/1999/xlink" width="19px" height="19px" xmlns="http://www.w3.org/2000/svg">
  <g transform="matrix(1 0 0 1 -917 -487 )">
    <path d="M 18.3218070273285 0  C 18.4630972299684 0  18.5902584123443 0.0388764880952398  18.7032905744562 0.116629464285715  C 18.936419408812 0.286272321428572  19.031790295594 0.512462797619047  18.989403234802 0.795200892857143  L 16.276631344116 17.0809151785714  C 16.241308793456 17.285900297619  16.1282766313441 17.4449404761905  15.9375348577803 17.5580357142857  C 15.8386317159323 17.6145833333333  15.7291318088864 17.6428571428571  15.6090351366425 17.6428571428571  C 15.5313255251906 17.6428571428571  15.4465514036066 17.6251860119048  15.3547127718907 17.58984375  L 10.5543781372002 15.6283482142857  L 7.98996095928611 18.7561383928571  C 7.86279977691021 18.918712797619  7.68971927867634 19  7.4707194645845 19  C 7.37888083286856 19  7.30117122141662 18.9858630952381  7.23759063022867 18.9575892857143  C 7.10336493772077 18.9081101190476  6.99563115820785 18.8250558035714  6.91438929168991 18.7084263392857  C 6.83314742517197 18.591796875  6.79252649191299 18.4627976190476  6.79252649191299 18.3214285714286  L 6.79252649191299 14.62109375  L 15.9481316229782 3.39285714285714  L 4.6201896263246 13.2003348214286  L 0.43446737311768 11.4827008928571  C 0.173080498233872 11.3837425595238  0.0317902955939766 11.1893601190476  0.0105967651979922 10.8995535714286  C -0.0035322550659974 10.6168154761905  0.109499907045919 10.4082961309524  0.349693251533742 10.2739955357143  L 17.9827105409927 0.0954241071428565  C 18.0886781929727 0.0318080357142848  18.2017103550846 0  18.3218070273285 0  Z " fill-rule="nonzero" fill="#999999" stroke="none" transform="matrix(1 0 0 1 917 487 )" />
  </g>
</svg>