<?xml version="1.0" encoding="utf-8"?>
<svg version="1.1" xmlns:xlink="http://www.w3.org/1999/xlink" width="321px" height="120px" xmlns="http://www.w3.org/2000/svg">
  <g transform="matrix(1 0 0 1 -663 -309 )">
    <path d="M 664 313  A 3 3 0 0 1 667 310 L 980 310  A 3 3 0 0 1 983 313 L 983 425  A 3 3 0 0 1 980 428 L 667 428  A 3 3 0 0 1 664 425 L 664 313  Z " fill-rule="nonzero" fill="#ff3399" stroke="none" fill-opacity="0.0980392156862745" />
    <path d="M 663.5 313  A 3.5 3.5 0 0 1 667 309.5 L 980 309.5  A 3.5 3.5 0 0 1 983.5 313 L 983.5 425  A 3.5 3.5 0 0 1 980 428.5 L 667 428.5  A 3.5 3.5 0 0 1 663.5 425 L 663.5 313  Z " stroke-width="1" stroke-dasharray="9,4" stroke="#ff3399" fill="none" stroke-dashoffset="0.5" />
  </g>
</svg>