<?xml version="1.0" encoding="utf-8"?>
<svg version="1.1" xmlns:xlink="http://www.w3.org/1999/xlink" width="22px" height="26px" xmlns="http://www.w3.org/2000/svg">
  <g transform="matrix(1 0 0 1 -1473 -458 )">
    <path d="M 7.859375 9.90234375  C 7.953125 10.00390625  8 10.1336805555556  8 10.2916666666667  L 8 20.0416666666667  C 8 20.1996527777778  7.953125 20.3294270833333  7.859375 20.4309895833333  C 7.765625 20.5325520833333  7.64583333333333 20.5833333333333  7.5 20.5833333333333  L 6.5 20.5833333333333  C 6.35416666666667 20.5833333333333  6.234375 20.5325520833333  6.140625 20.4309895833333  C 6.046875 20.3294270833333  6 20.1996527777778  6 20.0416666666667  L 6 10.2916666666667  C 6 10.1336805555556  6.046875 10.00390625  6.140625 9.90234375  C 6.234375 9.80078125  6.35416666666667 9.75  6.5 9.75  L 7.5 9.75  C 7.64583333333333 9.75  7.765625 9.80078125  7.859375 9.90234375  Z M 11.859375 9.90234375  C 11.953125 10.00390625  12 10.1336805555556  12 10.2916666666667  L 12 20.0416666666667  C 12 20.1996527777778  11.953125 20.3294270833333  11.859375 20.4309895833333  C 11.765625 20.5325520833333  11.6458333333333 20.5833333333333  11.5 20.5833333333333  L 10.5 20.5833333333333  C 10.3541666666667 20.5833333333333  10.234375 20.5325520833333  10.140625 20.4309895833333  C 10.046875 20.3294270833333  10 20.1996527777778  10 20.0416666666667  L 10 10.2916666666667  C 10 10.1336805555556  10.046875 10.00390625  10.140625 9.90234375  C 10.234375 9.80078125  10.3541666666667 9.75  10.5 9.75  L 11.5 9.75  C 11.6458333333333 9.75  11.765625 9.80078125  11.859375 9.90234375  Z M 15.859375 9.90234375  C 15.953125 10.00390625  16 10.1336805555556  16 10.2916666666667  L 16 20.0416666666667  C 16 20.1996527777778  15.953125 20.3294270833333  15.859375 20.4309895833333  C 15.765625 20.5325520833333  15.6458333333333 20.5833333333333  15.5 20.5833333333333  L 14.5 20.5833333333333  C 14.3541666666667 20.5833333333333  14.234375 20.5325520833333  14.140625 20.4309895833333  C 14.046875 20.3294270833333  14 20.1996527777778  14 20.0416666666667  L 14 10.2916666666667  C 14 10.1336805555556  14.046875 10.00390625  14.140625 9.90234375  C 14.234375 9.80078125  14.3541666666667 9.75  14.5 9.75  L 15.5 9.75  C 15.6458333333333 9.75  15.765625 9.80078125  15.859375 9.90234375  Z M 17.890625 23.232421875  C 17.9635416666667 23.0236545138889  18 22.7951388888889  18 22.546875  L 18 7  L 4 7  L 4 22.546875  C 4 22.7951388888889  4.03645833333333 23.0236545138889  4.109375 23.232421875  C 4.18229166666667 23.4411892361111  4.2578125 23.5935329861111  4.3359375 23.689453125  C 4.4140625 23.7853732638889  4.46875 23.8333333333333  4.5 23.8333333333333  L 17.5 23.8333333333333  C 17.53125 23.8333333333333  17.5859375 23.7853732638889  17.6640625 23.689453125  C 17.7421875 23.5935329861111  17.8177083333333 23.4411892361111  17.890625 23.232421875  Z M 8.265625 2.35286458333333  L 7.5 4.33333333333333  L 14.5 4.33333333333333  L 13.75 2.35286458333333  C 13.6770833333333 2.25130208333333  13.5885416666667 2.18923611111111  13.484375 2.16666666666667  L 8.53125 2.16666666666667  C 8.42708333333333 2.18923611111111  8.33854166666667 2.25130208333333  8.265625 2.35286458333333  Z M 21.859375 4.48567708333333  C 21.953125 4.58723958333333  22 4.71701388888889  22 4.875  L 22 5.95833333333333  C 22 6.11631944444444  21.953125 6.24609375  21.859375 6.34765625  C 21.765625 6.44921875  21.6458333333333 6.5  21.5 6.5  L 20 6.5  L 20 22.546875  C 20 23.4835069444444  19.7552083333333 24.2931857638889  19.265625 24.9759114583333  C 18.7760416666667 25.6586371527778  18.1875 26  17.5 26  L 4.5 26  C 3.8125 26  3.22395833333333 25.669921875  2.734375 25.009765625  C 2.24479166666667 24.349609375  2 23.5512152777778  2 22.6145833333333  L 2 6.5  L 0.5 6.5  C 0.354166666666667 6.5  0.234375 6.44921875  0.140625 6.34765625  C 0.046875 6.24609375  0 6.11631944444444  0 5.95833333333333  L 0 4.875  C 0 4.71701388888889  0.046875 4.58723958333333  0.140625 4.48567708333333  C 0.234375 4.38411458333333  0.354166666666667 4.33333333333333  0.5 4.33333333333333  L 5.328125 4.33333333333333  L 6.421875 1.50651041666667  C 6.578125 1.08897569444444  6.859375 0.733506944444442  7.265625 0.440104166666668  C 7.671875 0.146701388888887  8.08333333333333 0  8.5 0  L 13.5 0  C 13.9166666666667 0  14.328125 0.146701388888887  14.734375 0.440104166666668  C 15.140625 0.733506944444442  15.421875 1.08897569444444  15.578125 1.50651041666667  L 16.671875 4.33333333333333  L 21.5 4.33333333333333  C 21.6458333333333 4.33333333333333  21.765625 4.38411458333333  21.859375 4.48567708333333  Z " fill-rule="nonzero" fill="#999999" stroke="none" transform="matrix(1 0 0 1 1473 458 )" />
  </g>
</svg>