<?xml version="1.0" encoding="utf-8"?>
<svg version="1.1" xmlns:xlink="http://www.w3.org/1999/xlink" width="22px" height="23px" xmlns="http://www.w3.org/2000/svg">
  <g transform="matrix(1 0 0 1 -1317 -458 )">
    <path d="M 3.71749174917492 21.0567656765677  L 5.27128712871287 21.0567656765677  L 6.59273927392739 19.6752475247525  L 3.18019801980198 16.1075907590759  L 1.85874587458746 17.4891089108911  L 1.85874587458746 19.1135313531353  L 3.71749174917492 19.1135313531353  L 3.71749174917492 21.0567656765677  Z M 12.7643564356436 7.22640264026403  C 12.8321232123212 7.15555555555556  12.8660066006601 7.06952695269527  12.8660066006601 6.96831683168317  C 12.8660066006601 6.74565456545655  12.7595159515952 6.63432343234323  12.5465346534653 6.63432343234323  C 12.4497249724973 6.63432343234323  12.3674367436744 6.66974697469747  12.2996699669967 6.74059405940594  L 4.42904290429043 14.9689768976898  C 4.36127612761276 15.0398239823982  4.32739273927393 15.1258525852585  4.32739273927393 15.2270627062706  C 4.32739273927393 15.4497249724973  4.43388338833883 15.5610561056106  4.64686468646865 15.5610561056106  C 4.74367436743674 15.5610561056106  4.82596259625963 15.5256325632563  4.89372937293729 15.4547854785479  L 12.7643564356436 7.22640264026403  Z M 0 16.6844884488449  L 12.0818481848185 4.05346534653465  L 18.1227722772277 10.3689768976898  L 6.04092409240924 23  L 0 23  L 0 16.6844884488449  Z M 21.4627062706271 4.12937293729373  C 21.820902090209 4.52409240924093  22 4.98459845984598  22 5.51089108910891  C 22 6.04730473047305  21.820902090209 6.5027502750275  21.4627062706271 6.87722772277228  L 19.0521452145215 9.3973597359736  L 13.0112211221122 3.08184818481848  L 15.4217821782178 0.576897689768976  C 15.770297029703 0.19229922992299  16.2059405940594 0  16.7287128712871 0  C 17.241804180418 0  17.6822882288229 0.19229922992299  18.0501650165017 0.576897689768976  L 21.4627062706271 4.12937293729373  Z " fill-rule="nonzero" fill="#999999" stroke="none" transform="matrix(1 0 0 1 1317 458 )" />
  </g>
</svg>