<?xml version="1.0" encoding="utf-8"?>
<svg version="1.1" xmlns:xlink="http://www.w3.org/1999/xlink" width="25px" height="25px" xmlns="http://www.w3.org/2000/svg">
  <g transform="matrix(1 0 0 1 -1422 -458 )">
    <path d="M 24.1076408254322 0  C 24.2935489868005 0  24.460866332032 0.0511532738095261  24.6095928611266 0.153459821428573  C 24.9163413273843 0.376674107142858  25.0418293363079 0.674293154761904  24.9860568878974 1.04631696428572  L 21.4166201896263 22.4748883928571  C 21.3701431492843 22.7446056547619  21.2214166201896 22.953869047619  20.9704406023424 23.1026785714286  C 20.8403048893846 23.1770833333333  20.6962260643242 23.2142857142857  20.5382041271612 23.2142857142857  C 20.4359546384086 23.2142857142857  20.3244097415877 23.1910342261905  20.2035694366983 23.14453125  L 13.8873396542108 20.5636160714286  L 10.5131065253765 24.6791294642857  C 10.345789180145 24.8930431547619  10.1180516824689 25  9.82989403234802 25  C 9.70905372745864 25  9.60680423870608 24.9813988095238  9.52314556609035 24.9441964285714  C 9.34653281279048 24.8790922619048  9.20477783974717 24.7698102678571  9.0978806469604 24.6163504464286  C 8.99098345417364 24.462890625  8.93753485778026 24.2931547619048  8.93753485778026 24.1071428571429  L 8.93753485778026 19.23828125  L 20.9843837144451 4.46428571428572  L 6.07919687674289 17.3688616071429  L 0.571667596207474 15.1088169642857  C 0.227737497676148 14.9786086309524  0.0418293363078639 14.7228422619048  0.0139431121026213 14.3415178571429  C -0.0046477040342071 13.969494047619  0.14407882506042 13.6951264880952  0.460122699386503 13.5184151785714  L 23.6614612381484 0.125558035714285  C 23.8008923591746 0.0418526785714274  23.9496188882692 0  24.1076408254322 0  Z " fill-rule="nonzero" fill="#999999" stroke="none" transform="matrix(1 0 0 1 1422 458 )" />
  </g>
</svg>