<?xml version="1.0" encoding="utf-8"?>
<svg version="1.1" xmlns:xlink="http://www.w3.org/1999/xlink" width="414px" height="44px" xmlns="http://www.w3.org/2000/svg">
  <defs>
    <mask fill="white" id="clip48">
      <path d="M 0 1.75298804780869  L 0 42.2470119521913  C 0 43.2286852589641  4.92324324324346 44  11.1891891891894 44  L 117.785915492962 44  L 402.810810810811 44  C 409.076756756757 44  414 43.2286852589641  414 42.2470119521913  L 414 1.75298804780869  C 414 0.771314741035879  409.076756756757 0  402.810810810811 0  L 11.1891891891894 0  C 4.92324324324346 0  0 0.771314741035879  0 1.75298804780869  Z " fill-rule="evenodd" />
    </mask>
  </defs>
  <g transform="matrix(1 0 0 1 -1460 -242 )">
    <path d="M 0 1.75298804780869  L 0 42.2470119521913  C 0 43.2286852589641  4.92324324324346 44  11.1891891891894 44  L 117.785915492962 44  L 402.810810810811 44  C 409.076756756757 44  414 43.2286852589641  414 42.2470119521913  L 414 1.75298804780869  C 414 0.771314741035879  409.076756756757 0  402.810810810811 0  L 11.1891891891894 0  C 4.92324324324346 0  0 0.771314741035879  0 1.75298804780869  Z " fill-rule="nonzero" fill="#d9001b" stroke="none" fill-opacity="0.0352941176470588" transform="matrix(1 0 0 1 1460 242 )" />
    <path d="M 0 1.75298804780869  L 0 42.2470119521913  C 0 43.2286852589641  4.92324324324346 44  11.1891891891894 44  L 117.785915492962 44  L 402.810810810811 44  C 409.076756756757 44  414 43.2286852589641  414 42.2470119521913  L 414 1.75298804780869  C 414 0.771314741035879  409.076756756757 0  402.810810810811 0  L 11.1891891891894 0  C 4.92324324324346 0  0 0.771314741035879  0 1.75298804780869  Z " stroke-width="2" stroke-dasharray="9,4" stroke="#d9001b" fill="none" transform="matrix(1 0 0 1 1460 242 )" mask="url(#clip48)" />
  </g>
</svg>