<?xml version="1.0" encoding="utf-8"?>
<svg version="1.1" xmlns:xlink="http://www.w3.org/1999/xlink" width="414px" height="100px" xmlns="http://www.w3.org/2000/svg">
  <defs>
    <mask fill="white" id="clip47">
      <path d="M 0 3.98406374501974  L 0 96.0159362549803  C 0 98.2470119521912  4.92324324324346 100  11.1891891891894 100  L 117.785915492962 100  L 402.810810810811 100  C 409.076756756757 100  414 98.2470119521912  414 96.0159362549803  L 414 3.98406374501974  C 414 1.75298804780882  409.076756756757 0  402.810810810811 0  L 11.1891891891894 0  C 4.92324324324346 0  0 1.75298804780882  0 3.98406374501974  Z " fill-rule="evenodd" />
    </mask>
  </defs>
  <g transform="matrix(1 0 0 1 -1460 -379 )">
    <path d="M 0 3.98406374501974  L 0 96.0159362549803  C 0 98.2470119521912  4.92324324324346 100  11.1891891891894 100  L 117.785915492962 100  L 402.810810810811 100  C 409.076756756757 100  414 98.2470119521912  414 96.0159362549803  L 414 3.98406374501974  C 414 1.75298804780882  409.076756756757 0  402.810810810811 0  L 11.1891891891894 0  C 4.92324324324346 0  0 1.75298804780882  0 3.98406374501974  Z " fill-rule="nonzero" fill="#d9001b" stroke="none" fill-opacity="0.0352941176470588" transform="matrix(1 0 0 1 1460 379 )" />
    <path d="M 0 3.98406374501974  L 0 96.0159362549803  C 0 98.2470119521912  4.92324324324346 100  11.1891891891894 100  L 117.785915492962 100  L 402.810810810811 100  C 409.076756756757 100  414 98.2470119521912  414 96.0159362549803  L 414 3.98406374501974  C 414 1.75298804780882  409.076756756757 0  402.810810810811 0  L 11.1891891891894 0  C 4.92324324324346 0  0 1.75298804780882  0 3.98406374501974  Z " stroke-width="2" stroke-dasharray="9,4" stroke="#d9001b" fill="none" transform="matrix(1 0 0 1 1460 379 )" mask="url(#clip47)" />
  </g>
</svg>