<?xml version="1.0" encoding="utf-8"?>
<svg version="1.1" xmlns:xlink="http://www.w3.org/1999/xlink" width="414px" height="116px" xmlns="http://www.w3.org/2000/svg">
  <defs>
    <mask fill="white" id="clip49">
      <path d="M 0 4.6215139442229  L 0 111.378486055777  C 0 113.966533864542  4.92324324324346 116  11.1891891891894 116  L 117.785915492962 116  L 402.810810810811 116  C 409.076756756757 116  414 113.966533864542  414 111.378486055777  L 414 4.6215139442229  C 414 2.03346613545823  409.076756756757 0  402.810810810811 0  L 11.1891891891894 0  C 4.92324324324346 0  0 2.03346613545823  0 4.6215139442229  Z " fill-rule="evenodd" />
    </mask>
  </defs>
  <g transform="matrix(1 0 0 1 -1460 -481 )">
    <path d="M 0 4.6215139442229  L 0 111.378486055777  C 0 113.966533864542  4.92324324324346 116  11.1891891891894 116  L 117.785915492962 116  L 402.810810810811 116  C 409.076756756757 116  414 113.966533864542  414 111.378486055777  L 414 4.6215139442229  C 414 2.03346613545823  409.076756756757 0  402.810810810811 0  L 11.1891891891894 0  C 4.92324324324346 0  0 2.03346613545823  0 4.6215139442229  Z " fill-rule="nonzero" fill="#d9001b" stroke="none" fill-opacity="0.0352941176470588" transform="matrix(1 0 0 1 1460 481 )" />
    <path d="M 0 4.6215139442229  L 0 111.378486055777  C 0 113.966533864542  4.92324324324346 116  11.1891891891894 116  L 117.785915492962 116  L 402.810810810811 116  C 409.076756756757 116  414 113.966533864542  414 111.378486055777  L 414 4.6215139442229  C 414 2.03346613545823  409.076756756757 0  402.810810810811 0  L 11.1891891891894 0  C 4.92324324324346 0  0 2.03346613545823  0 4.6215139442229  Z " stroke-width="2" stroke-dasharray="9,4" stroke="#d9001b" fill="none" transform="matrix(1 0 0 1 1460 481 )" mask="url(#clip49)" />
  </g>
</svg>