<?xml version="1.0" encoding="utf-8"?>
<svg version="1.1" xmlns:xlink="http://www.w3.org/1999/xlink" width="414px" height="230px" xmlns="http://www.w3.org/2000/svg">
  <defs>
    <mask fill="white" id="clip51">
      <path d="M 0 9.1633466135454  L 0 220.836653386455  C 0 225.96812749004  4.92324324324346 230  11.1891891891894 230  L 117.785915492962 230  L 402.810810810811 230  C 409.076756756757 230  414 225.96812749004  414 220.836653386455  L 414 9.1633466135454  C 414 4.03187250996028  409.076756756757 0  402.810810810811 0  L 11.1891891891894 0  C 4.92324324324346 0  0 4.03187250996028  0 9.1633466135454  Z " fill-rule="evenodd" />
    </mask>
  </defs>
  <g transform="matrix(1 0 0 1 -1460 0 )">
    <path d="M 0 9.1633466135454  L 0 220.836653386455  C 0 225.96812749004  4.92324324324346 230  11.1891891891894 230  L 117.785915492962 230  L 402.810810810811 230  C 409.076756756757 230  414 225.96812749004  414 220.836653386455  L 414 9.1633466135454  C 414 4.03187250996028  409.076756756757 0  402.810810810811 0  L 11.1891891891894 0  C 4.92324324324346 0  0 4.03187250996028  0 9.1633466135454  Z " fill-rule="nonzero" fill="#d9001b" stroke="none" fill-opacity="0.0352941176470588" transform="matrix(1 0 0 1 1460 0 )" />
    <path d="M 0 9.1633466135454  L 0 220.836653386455  C 0 225.96812749004  4.92324324324346 230  11.1891891891894 230  L 117.785915492962 230  L 402.810810810811 230  C 409.076756756757 230  414 225.96812749004  414 220.836653386455  L 414 9.1633466135454  C 414 4.03187250996028  409.076756756757 0  402.810810810811 0  L 11.1891891891894 0  C 4.92324324324346 0  0 4.03187250996028  0 9.1633466135454  Z " stroke-width="2" stroke-dasharray="9,4" stroke="#d9001b" fill="none" transform="matrix(1 0 0 1 1460 0 )" mask="url(#clip51)" />
  </g>
</svg>