<?xml version="1.0" encoding="utf-8"?>
<svg version="1.1" xmlns:xlink="http://www.w3.org/1999/xlink" width="148px" height="42px" xmlns="http://www.w3.org/2000/svg">
  <defs>
    <mask fill="white" id="clip50">
      <path d="M 0 1.67330677290837  L 0 40.3266932270916  C 0 41.2637450199203  1.76 42  4 42  L 144 42  C 146.24 42  148 41.2637450199203  148 40.3266932270916  L 148 1.67330677290837  C 148 0.736254980079682  146.24 0  144 0  L 4 0  C 1.76 0  0 0.736254980079682  0 1.67330677290837  Z " fill-rule="evenodd" />
    </mask>
  </defs>
  <g transform="matrix(1 0 0 1 -170 -841 )">
    <path d="M 0 1.67330677290837  L 0 40.3266932270916  C 0 41.2637450199203  1.76 42  4 42  L 144 42  C 146.24 42  148 41.2637450199203  148 40.3266932270916  L 148 1.67330677290837  C 148 0.736254980079682  146.24 0  144 0  L 4 0  C 1.76 0  0 0.736254980079682  0 1.67330677290837  Z " fill-rule="nonzero" fill="#d9001b" stroke="none" fill-opacity="0.0352941176470588" transform="matrix(1 0 0 1 170 841 )" />
    <path d="M 0 1.67330677290837  L 0 40.3266932270916  C 0 41.2637450199203  1.76 42  4 42  L 144 42  C 146.24 42  148 41.2637450199203  148 40.3266932270916  L 148 1.67330677290837  C 148 0.736254980079682  146.24 0  144 0  L 4 0  C 1.76 0  0 0.736254980079682  0 1.67330677290837  Z " stroke-width="2" stroke-dasharray="9,4" stroke="#d9001b" fill="none" transform="matrix(1 0 0 1 170 841 )" mask="url(#clip50)" />
  </g>
</svg>