<?xml version="1.0" encoding="utf-8"?>
<svg version="1.1" xmlns:xlink="http://www.w3.org/1999/xlink" width="120px" height="120px" xmlns="http://www.w3.org/2000/svg">
  <g transform="matrix(1 0 0 1 -1324 -226 )">
    <path d="M 1384 226  C 1417.6 226  1444 252.4  1444 286  C 1444 319.6  1417.6 346  1384 346  C 1350.4 346  1324 319.6  1324 286  C 1324 252.4  1350.4 226  1384 226  Z " fill-rule="nonzero" fill="#ffffff" stroke="none" />
    <path d="M 1384 226.5  C 1417.32 226.5  1443.5 252.68  1443.5 286  C 1443.5 319.32  1417.32 345.5  1384 345.5  C 1350.68 345.5  1324.5 319.32  1324.5 286  C 1324.5 252.68  1350.68 226.5  1384 226.5  Z " stroke-width="1" stroke="#797979" fill="none" />
  </g>
</svg>