<?xml version="1.0" encoding="utf-8"?>
<svg version="1.1" xmlns:xlink="http://www.w3.org/1999/xlink" width="459px" height="156px" xmlns="http://www.w3.org/2000/svg">
  <g transform="matrix(1 0 0 1 -1322 -212 )">
    <path d="M 1323 216  A 3 3 0 0 1 1326 213 L 1777 213  A 3 3 0 0 1 1780 216 L 1780 364  A 3 3 0 0 1 1777 367 L 1326 367  A 3 3 0 0 1 1323 364 L 1323 216  Z " fill-rule="nonzero" fill="#ff3399" stroke="none" fill-opacity="0.0980392156862745" />
    <path d="M 1322.5 216  A 3.5 3.5 0 0 1 1326 212.5 L 1777 212.5  A 3.5 3.5 0 0 1 1780.5 216 L 1780.5 364  A 3.5 3.5 0 0 1 1777 367.5 L 1326 367.5  A 3.5 3.5 0 0 1 1322.5 364 L 1322.5 216  Z " stroke-width="1" stroke-dasharray="9,4" stroke="#ff3399" fill="none" stroke-dashoffset="0.5" />
  </g>
</svg>