<?xml version="1.0" encoding="utf-8"?>
<svg version="1.1" xmlns:xlink="http://www.w3.org/1999/xlink" width="12px" height="12px" viewBox="474 914  12 12" xmlns="http://www.w3.org/2000/svg">
  <path d="M 480 914  C 483.36 914  486 916.64  486 920  C 486 923.36  483.36 926  480 926  C 476.64 926  474 923.36  474 920  C 474 916.64  476.64 914  480 914  Z " fill-rule="nonzero" fill="#f0f0f0" stroke="none" />
  <path d="M 480 914.5  C 483.08 914.5  485.5 916.92  485.5 920  C 485.5 923.08  483.08 925.5  480 925.5  C 476.92 925.5  474.5 923.08  474.5 920  C 474.5 916.92  476.92 914.5  480 914.5  Z " stroke-width="1" stroke="#797979" fill="none" />
  <path d="M 480 923  C 478.32 923  477 921.68  477 920  C 477 918.32  478.32 917  480 917  C 481.68 917  483 918.32  483 920  C 483 921.68  481.68 923  480 923  " fill-rule="nonzero" fill="#797979" stroke="none" />
</svg>