<?xml version="1.0" encoding="utf-8"?>
<svg version="1.1" xmlns:xlink="http://www.w3.org/1999/xlink" width="12px" height="12px" viewBox="778 914  12 12" xmlns="http://www.w3.org/2000/svg">
  <path d="M 784 914  C 787.36 914  790 916.64  790 920  C 790 923.36  787.36 926  784 926  C 780.64 926  778 923.36  778 920  C 778 916.64  780.64 914  784 914  Z " fill-rule="nonzero" fill="#f0f0f0" stroke="none" />
  <path d="M 784 914.5  C 787.08 914.5  789.5 916.92  789.5 920  C 789.5 923.08  787.08 925.5  784 925.5  C 780.92 925.5  778.5 923.08  778.5 920  C 778.5 916.92  780.92 914.5  784 914.5  Z " stroke-width="1" stroke="#797979" fill="none" />
  <path d="M 784 923  C 782.32 923  781 921.68  781 920  C 781 918.32  782.32 917  784 917  C 785.68 917  787 918.32  787 920  C 787 921.68  785.68 923  784 923  " fill-rule="nonzero" fill="#797979" stroke="none" />
</svg>