<?xml version="1.0" encoding="utf-8"?>
<svg version="1.1" xmlns:xlink="http://www.w3.org/1999/xlink" width="12px" height="12px" viewBox="474 1297  12 12" xmlns="http://www.w3.org/2000/svg">
  <path d="M 480 1297  C 483.36 1297  486 1299.64  486 1303  C 486 1306.36  483.36 1309  480 1309  C 476.64 1309  474 1306.36  474 1303  C 474 1299.64  476.64 1297  480 1297  Z " fill-rule="nonzero" fill="#f0f0f0" stroke="none" />
  <path d="M 480 1297.5  C 483.08 1297.5  485.5 1299.92  485.5 1303  C 485.5 1306.08  483.08 1308.5  480 1308.5  C 476.92 1308.5  474.5 1306.08  474.5 1303  C 474.5 1299.92  476.92 1297.5  480 1297.5  Z " stroke-width="1" stroke="#797979" fill="none" />
  <path d="M 480 1306  C 478.32 1306  477 1304.68  477 1303  C 477 1301.32  478.32 1300  480 1300  C 481.68 1300  483 1301.32  483 1303  C 483 1304.68  481.68 1306  480 1306  " fill-rule="nonzero" fill="#797979" stroke="none" />
</svg>