<?xml version="1.0" encoding="utf-8"?>
<svg version="1.1" xmlns:xlink="http://www.w3.org/1999/xlink" width="170px" height="170px" xmlns="http://www.w3.org/2000/svg">
  <g transform="matrix(1 0 0 1 -179 -605 )">
    <path d="M 179 605  L 349 605  L 349 775  L 179 775  L 179 605  " fill-rule="nonzero" fill="#cccccc" stroke="none" />
    <path d="M 191 617  L 337 617  L 337 763  L 191 763  L 191 617  " fill-rule="nonzero" fill="#ffffff" stroke="none" />
    <path d="M 280.15 656  C 273.01 656  267.4 650.39  267.4 643.25  C 267.4 636.11  273.01 630.5  280.15 630.5  C 287.29 630.5  292.9 636.11  292.9 643.25  C 292.9 650.39  287.29 656  280.15 656  " fill-rule="nonzero" fill="#cccccc" stroke="none" />
    <path d="M 196 759  L 196 683.65  L 230.25 649.4  L 278.2 676.8  L 305.6 669.95  L 333 676.8  L 333 759  L 196 759  " fill-rule="nonzero" fill="#169bd5" stroke="none" />
  </g>
</svg>