<?xml version="1.0" encoding="utf-8"?>
<svg version="1.1" xmlns:xlink="http://www.w3.org/1999/xlink" width="310px" height="68px" xmlns="http://www.w3.org/2000/svg">
  <g transform="matrix(1 0 0 1 -1030 -906 )">
    <path d="M 1031 910  A 3 3 0 0 1 1034 907 L 1336 907  A 3 3 0 0 1 1339 910 L 1339 970  A 3 3 0 0 1 1336 973 L 1034 973  A 3 3 0 0 1 1031 970 L 1031 910  Z " fill-rule="nonzero" fill="#ff3399" stroke="none" fill-opacity="0.0980392156862745" />
    <path d="M 1030.5 910  A 3.5 3.5 0 0 1 1034 906.5 L 1336 906.5  A 3.5 3.5 0 0 1 1339.5 910 L 1339.5 970  A 3.5 3.5 0 0 1 1336 973.5 L 1034 973.5  A 3.5 3.5 0 0 1 1030.5 970 L 1030.5 910  Z " stroke-width="1" stroke-dasharray="9,4" stroke="#ff3399" fill="none" stroke-dashoffset="0.5" />
  </g>
</svg>