<?xml version="1.0" encoding="utf-8"?>
<svg version="1.1" xmlns:xlink="http://www.w3.org/1999/xlink" width="101px" height="10px" preserveAspectRatio="xMinYMid meet" viewBox="351 1334  101 8" xmlns="http://www.w3.org/2000/svg">
  <path d="M 451 982.5  L 361 982.5  A 5 5 0 0 0 356.5 987.5 L 356.5 1333  A 5 5 0 0 0 361.5 1338.5 L 447 1338.5  " stroke-width="1" stroke-dasharray="3,1" stroke="#ff3399" fill="none" />
  <path d="M 449 979.5  A 3 3 0 0 0 446 982.5 A 3 3 0 0 0 449 985.5 A 3 3 0 0 0 452 982.5 A 3 3 0 0 0 449 979.5 Z M 446 1344.8  L 452 1338.5  L 446 1332.2  L 446 1344.8  Z " fill-rule="nonzero" fill="#ff3399" stroke="none" />
</svg>