<?xml version="1.0" encoding="utf-8"?>
<svg version="1.1" xmlns:xlink="http://www.w3.org/1999/xlink" width="12px" height="12px" viewBox="778 1297  12 12" xmlns="http://www.w3.org/2000/svg">
  <path d="M 784 1297  C 787.36 1297  790 1299.64  790 1303  C 790 1306.36  787.36 1309  784 1309  C 780.64 1309  778 1306.36  778 1303  C 778 1299.64  780.64 1297  784 1297  Z " fill-rule="nonzero" fill="#f0f0f0" stroke="none" />
  <path d="M 784 1297.5  C 787.08 1297.5  789.5 1299.92  789.5 1303  C 789.5 1306.08  787.08 1308.5  784 1308.5  C 780.92 1308.5  778.5 1306.08  778.5 1303  C 778.5 1299.92  780.92 1297.5  784 1297.5  Z " stroke-width="1" stroke="#797979" fill="none" />
  <path d="M 784 1306  C 782.32 1306  781 1304.68  781 1303  C 781 1301.32  782.32 1300  784 1300  C 785.68 1300  787 1301.32  787 1303  C 787 1304.68  785.68 1306  784 1306  " fill-rule="nonzero" fill="#797979" stroke="none" />
</svg>