<?xml version="1.0" encoding="utf-8"?>
<svg version="1.1" xmlns:xlink="http://www.w3.org/1999/xlink" width="310px" height="88px" xmlns="http://www.w3.org/2000/svg">
  <g transform="matrix(1 0 0 1 -1030 -1280 )">
    <path d="M 1031 1284  A 3 3 0 0 1 1034 1281 L 1336 1281  A 3 3 0 0 1 1339 1284 L 1339 1364  A 3 3 0 0 1 1336 1367 L 1034 1367  A 3 3 0 0 1 1031 1364 L 1031 1284  Z " fill-rule="nonzero" fill="#ff3399" stroke="none" fill-opacity="0.0980392156862745" />
    <path d="M 1030.5 1284  A 3.5 3.5 0 0 1 1034 1280.5 L 1336 1280.5  A 3.5 3.5 0 0 1 1339.5 1284 L 1339.5 1364  A 3.5 3.5 0 0 1 1336 1367.5 L 1034 1367.5  A 3.5 3.5 0 0 1 1030.5 1364 L 1030.5 1284  Z " stroke-width="1" stroke-dasharray="9,4" stroke="#ff3399" fill="none" stroke-dashoffset="0.5" />
  </g>
</svg>