<?xml version="1.0" encoding="utf-8"?>
<svg version="1.1" xmlns:xlink="http://www.w3.org/1999/xlink" width="10px" height="654px" preserveAspectRatio="xMidYMin meet" viewBox="1266 188  8 654" xmlns="http://www.w3.org/2000/svg">
  <path d="M 1257 193.5  L 1265 193.5  A 5 5 0 0 1 1270.5 198.5 L 1270.5 832  A 5 5 0 0 1 1265.5 837.5 L 992 837.5  " stroke-width="1" stroke-dasharray="9,4" stroke="#ff3399" fill="none" />
  <path d="M 1259 190.5  A 3 3 0 0 0 1256 193.5 A 3 3 0 0 0 1259 196.5 A 3 3 0 0 0 1262 193.5 A 3 3 0 0 0 1259 190.5 Z M 993 831.2  L 987 837.5  L 993 843.8  L 993 831.2  Z " fill-rule="nonzero" fill="#ff3399" stroke="none" />
</svg>