<?xml version="1.0" encoding="utf-8"?>
<svg version="1.1" xmlns:xlink="http://www.w3.org/1999/xlink" width="238px" height="95px" xmlns="http://www.w3.org/2000/svg">
  <defs>
    <mask fill="white" id="clip46">
      <path d="M 0 3.78486055776907  L 0 91.2151394422312  C 0 93.3346613545817  2.83027027027023 95  6.43243243243247 95  L 231.567567567568 95  C 235.16972972973 95  238 93.3346613545817  238 91.2151394422312  L 238 3.78486055776907  C 238 1.66533864541826  235.16972972973 0  231.567567567568 0  L 52.3262411347518 0  L 6.43243243243247 0  C 2.83027027027023 0  0 1.66533864541826  0 3.78486055776907  Z " fill-rule="evenodd" />
    </mask>
  </defs>
  <g transform="matrix(1 0 0 1 -566 -40 )">
    <path d="M 0 3.78486055776907  L 0 91.2151394422312  C 0 93.3346613545817  2.83027027027023 95  6.43243243243247 95  L 231.567567567568 95  C 235.16972972973 95  238 93.3346613545817  238 91.2151394422312  L 238 3.78486055776907  C 238 1.66533864541826  235.16972972973 0  231.567567567568 0  L 52.3262411347518 0  L 6.43243243243247 0  C 2.83027027027023 0  0 1.66533864541826  0 3.78486055776907  Z " fill-rule="nonzero" fill="#d9001b" stroke="none" fill-opacity="0.0352941176470588" transform="matrix(1 0 0 1 566 40 )" />
    <path d="M 0 3.78486055776907  L 0 91.2151394422312  C 0 93.3346613545817  2.83027027027023 95  6.43243243243247 95  L 231.567567567568 95  C 235.16972972973 95  238 93.3346613545817  238 91.2151394422312  L 238 3.78486055776907  C 238 1.66533864541826  235.16972972973 0  231.567567567568 0  L 52.3262411347518 0  L 6.43243243243247 0  C 2.83027027027023 0  0 1.66533864541826  0 3.78486055776907  Z " stroke-width="2" stroke-dasharray="9,4" stroke="#d9001b" fill="none" transform="matrix(1 0 0 1 566 40 )" mask="url(#clip46)" />
  </g>
</svg>