<?xml version="1.0" encoding="utf-8"?>
<svg version="1.1" xmlns:xlink="http://www.w3.org/1999/xlink" width="38px" height="38px" xmlns="http://www.w3.org/2000/svg">
  <g transform="matrix(1 0 0 1 -398 -733 )">
    <path d="M 417 733  C 427.64 733  436 741.36  436 752  C 436 762.64  427.64 771  417 771  C 406.36 771  398 762.64  398 752  C 398 741.36  406.36 733  417 733  Z " fill-rule="nonzero" fill="#ffffff" stroke="none" fill-opacity="0" />
    <path d="M 417 733.5  C 427.36 733.5  435.5 741.64  435.5 752  C 435.5 762.36  427.36 770.5  417 770.5  C 406.64 770.5  398.5 762.36  398.5 752  C 398.5 741.64  406.64 733.5  417 733.5  Z " stroke-width="1" stroke="#a4a5a5" fill="none" />
  </g>
</svg>