<?xml version="1.0" encoding="utf-8"?>
<svg version="1.1" xmlns:xlink="http://www.w3.org/1999/xlink" width="20px" height="18px" xmlns="http://www.w3.org/2000/svg">
  <g transform="matrix(1 0 0 1 -1788 -2678 )">
    <path d="M 14.6899038461538 16.1270913461535  C 14.8374630177515 15.9800240384616  14.9112426035502 15.8058653846156  14.9112426035502 15.6046153846155  C 14.9112426035502 15.4033653846159  14.8374630177515 15.229206730769  14.6899038461538 15.082139423077  C 14.5423446745561 14.9350721153851  14.3676035502958 14.8615384615387  14.1656804733728 14.8615384615387  C 13.9637573964498 14.8615384615387  13.7890162721894 14.9350721153851  13.6414571005917 15.082139423077  C 13.493897928994 15.229206730769  13.4201183431953 15.4033653846159  13.4201183431953 15.6046153846155  C 13.4201183431953 15.8058653846156  13.493897928994 15.9800240384616  13.6414571005917 16.1270913461535  C 13.7890162721894 16.2741586538464  13.9637573964498 16.3476923076923  14.1656804733728 16.3476923076923  C 14.3676035502958 16.3476923076923  14.5423446745561 16.2741586538464  14.6899038461538 16.1270913461535  Z M 17.6721523668639 16.1270913461535  C 17.8197115384614 15.9800240384616  17.8934911242603 15.8058653846156  17.8934911242603 15.6046153846155  C 17.8934911242603 15.4033653846159  17.8197115384614 15.229206730769  17.6721523668639 15.082139423077  C 17.5245931952662 14.9350721153851  17.3498520710059 14.8615384615387  17.1479289940828 14.8615384615387  C 16.9460059171598 14.8615384615387  16.7712647928993 14.9350721153851  16.6237056213018 15.082139423077  C 16.4761464497041 15.229206730769  16.4023668639053 15.4033653846159  16.4023668639053 15.6046153846155  C 16.4023668639053 15.8058653846156  16.4761464497041 15.9800240384616  16.6237056213018 16.1270913461535  C 16.7712647928993 16.2741586538464  16.9460059171598 16.3476923076923  17.1479289940828 16.3476923076923  C 17.3498520710059 16.3476923076923  17.5245931952662 16.2741586538464  17.6721523668639 16.1270913461535  Z M 19.0584319526628 12.2143269230769  C 19.2758875739645 12.4310576923076  19.3846153846154 12.6942307692311  19.3846153846154 13.0038461538466  L 19.3846153846154 16.7192307692312  C 19.3846153846154 17.0288461538466  19.2758875739645 17.2920192307693  19.0584319526628 17.50875  C 18.8409763313609 17.7254807692307  18.576923076923 17.8338461538465  18.2662721893491 17.8338461538465  L 1.11834319526622 17.8338461538465  C 0.807692307692378 17.8338461538465  0.543639053254424 17.7254807692307  0.326183431952586 17.50875  C 0.108727810650862 17.2920192307693  0 17.0288461538466  0 16.7192307692312  L 0 13.0038461538466  C 0 12.6942307692311  0.108727810650862 12.4310576923076  0.326183431952586 12.2143269230769  C 0.543639053254424 11.9975961538462  0.807692307692378 11.8892307692308  1.11834319526622 11.8892307692308  L 6.53531804733723 11.8892307692308  L 8.10798816568058 13.4682692307692  C 8.55843195266266 13.9017307692311  9.08653846153845 14.1184615384618  9.69230769230762 14.1184615384618  C 10.2980769230769 14.1184615384618  10.8261834319527 13.9017307692311  11.2766272189348 13.4682692307692  L 12.8609467455622 11.8892307692308  L 18.2662721893491 11.8892307692308  C 18.576923076923 11.8892307692308  18.8409763313609 11.9975961538462  19.0584319526628 12.2143269230769  Z M 14.9112426035502 5.94461538461564  C 15.2374260355029 5.94461538461564  15.4665310650888 6.09555288461524  15.5985576923076 6.39742788461535  C 15.7305843195265 6.7147836538461  15.6762204142011 6.98569711538494  15.4354659763313 7.21016826923051  L 10.2165310650887 12.4117067307698  C 10.0767381656806 12.5587740384617  9.90199704142003 12.6323076923077  9.69230769230762 12.6323076923077  C 9.48261834319533 12.6323076923077  9.30787721893478 12.5587740384617  9.16808431952666 12.4117067307698  L 3.94914940828403 7.21016826923051  C 3.70839497041425 6.98569711538494  3.65403106508882 6.7147836538461  3.78605769230774 6.39742788461535  C 3.91808431952654 6.09555288461524  4.14718934911241 5.94461538461564  4.47337278106511 5.94461538461564  L 7.45562130177507 5.94461538461564  L 7.45562130177507 0.743076923077297  C 7.45562130177507 0.541826923076769  7.52940088757396 0.367668269231217  7.67696005917162 0.220600961538366  C 7.82451923076917 0.0735336538459705  7.99926035502949 0  8.20118343195259 0  L 11.1834319526628 0  C 11.3853550295859 0  11.5600961538462 0.0735336538459705  11.7076553254437 0.220600961538366  C 11.8552144970414 0.367668269231217  11.9289940828403 0.541826923076769  11.9289940828403 0.743076923077297  L 11.9289940828403 5.94461538461564  L 14.9112426035502 5.94461538461564  Z " fill-rule="nonzero" fill="#e5e5e5" stroke="none" transform="matrix(1 0 0 1 1788 2678 )" />
  </g>
</svg>