<?xml version="1.0" encoding="utf-8"?>
<svg version="1.1" xmlns:xlink="http://www.w3.org/1999/xlink" width="18px" height="15px" xmlns="http://www.w3.org/2000/svg">
  <g transform="matrix(1 0 0 1 -1474 -2679 )">
    <path d="M 16.7946428571429 3.10832791151594  C 17.5982142857143 4.0679895901106  18 5.11385816525699  18 6.24593363695511  C 18 7.37800910865322  17.5982142857143 8.42387768379961  16.7946428571429 9.38353936239428  C 15.9910714285714 10.3432010409889  14.8995535714286 11.1011711125569  13.5200892857143 11.6574495770982  C 12.140625 12.2137280416396  10.6339285714286 12.4918672739102  9 12.4918672739102  C 8.53125 12.4918672739102  8.04575892857143 12.4658425504229  7.54352678571429 12.4137931034483  C 6.21763392857143 13.5523747560182  4.67745535714286 14.3396226415094  2.92299107142857 14.7755367599219  C 2.59486607142857 14.8666232921275  2.21316964285714 14.9381912817176  1.77790178571429 14.9902407286923  C 1.6640625 15.0032530904359  1.56194196428571 14.9739752765127  1.47154017857143 14.9024072869226  C 1.38113839285714 14.8308392973325  1.32254464285714 14.736499674691  1.29575892857143 14.619388418998  L 1.29575892857143 14.6096291476903  C 1.27566964285714 14.583604424203  1.27399553571429 14.544567338972  1.29073660714286 14.4925178919974  C 1.30747767857143 14.4404684450228  1.31417410714286 14.4079375406636  1.31082589285714 14.39492517892  C 1.30747767857143 14.3819128171763  1.32254464285714 14.3510084580351  1.35602678571429 14.3022121014964  L 1.41629464285714 14.2143786597267  C 1.41629464285714 14.2143786597267  1.43973214285714 14.1867273910215  1.48660714285714 14.1314248536109  C 1.53348214285714 14.0761223162004  1.56026785714286 14.0468445022772  1.56696428571429 14.0435914118412  C 1.61383928571429 13.9915419648666  1.71763392857143 13.8793103448276  1.87834821428571 13.7068965517241  C 2.0390625 13.5344827586207  2.15457589285714 13.410865322056  2.22488839285714 13.3360442420299  C 2.29520089285714 13.2612231620039  2.39899553571429 13.1327260897853  2.53627232142857 12.9505530253741  C 2.67354910714286 12.7683799609629  2.78236607142857 12.6024723487313  2.86272321428571 12.4528301886792  C 2.94308035714286 12.3031880286272  3.03348214285714 12.1112556929083  3.13392857142857 11.8770331815224  C 3.234375 11.6428106701366  3.32142857142857 11.3955757970072  3.39508928571429 11.135328562134  C 2.34375 10.5562784645413  1.51506696428571 9.84059856864021  0.909040178571429 8.98828887443071  C 0.303013392857143 8.13597918022121  0 7.22186076772934  0 6.24593363695511  C 0 5.40013012361744  0.237723214285714 4.59173715029278  0.713169642857143 3.82075471698113  C 1.18861607142857 3.04977228366949  1.828125 2.38451528952505  2.63169642857143 1.82498373454782  C 3.43526785714286 1.26545217957059  4.39285714285714 0.821405335068313  5.50446428571429 0.492843201040989  C 6.61607142857143 0.164281067013662  7.78125 0  9 0  C 10.6339285714286 0  12.140625 0.278139232270657  13.5200892857143 0.834417696811972  C 14.8995535714286 1.39069616135329  15.9910714285714 2.14866623292127  16.7946428571429 3.10832791151594  Z " fill-rule="nonzero" fill="#e8e8e8" stroke="none" transform="matrix(1 0 0 1 1474 2679 )" />
  </g>
</svg>