<?xml version="1.0" encoding="utf-8"?>
<svg version="1.1" xmlns:xlink="http://www.w3.org/1999/xlink" width="329px" height="160px" xmlns="http://www.w3.org/2000/svg">
  <g transform="matrix(1 0 0 1 -682 -142 )">
    <path d="M 683 146  A 3 3 0 0 1 686 143 L 1007 143  A 3 3 0 0 1 1010 146 L 1010 298  A 3 3 0 0 1 1007 301 L 686 301  A 3 3 0 0 1 683 298 L 683 146  Z " fill-rule="nonzero" fill="#ff3399" stroke="none" fill-opacity="0.0980392156862745" />
    <path d="M 682.5 146  A 3.5 3.5 0 0 1 686 142.5 L 1007 142.5  A 3.5 3.5 0 0 1 1010.5 146 L 1010.5 298  A 3.5 3.5 0 0 1 1007 301.5 L 686 301.5  A 3.5 3.5 0 0 1 682.5 298 L 682.5 146  Z " stroke-width="1" stroke-dasharray="9,4" stroke="#ff3399" fill="none" stroke-dashoffset="0.5" />
  </g>
</svg>