<?xml version="1.0" encoding="utf-8"?>
<svg version="1.1" xmlns:xlink="http://www.w3.org/1999/xlink" width="10px" height="10px" xmlns="http://www.w3.org/2000/svg">
  <defs>
    <mask fill="white" id="clip72">
      <path d="M 9.7643097643097 7.47474747474746  C 9.92143658810323 7.63187429854099  10 7.8226711560045  10 8.04713804713799  C 10 8.27160493827159  9.92143658810323 8.4624017957351  9.7643097643097 8.61952861952864  L 8.61952861952864 9.76430976430981  C 8.4624017957351 9.92143658810323  8.27160493827159 10  8.04713804713811 10  C 7.82267115600439 10  7.63187429854088 9.92143658810323  7.47474747474757 9.76430976430981  L 5 7.28956228956224  L 2.52525252525243 9.76430976430981  C 2.36812570145912 9.92143658810323  2.17732884399561 10  1.95286195286189 10  C 1.72839506172841 10  1.5375982042649 9.92143658810323  1.38047138047136 9.76430976430981  L 0.235690235690299 8.61952861952864  C 0.0785634118967664 8.4624017957351  0 8.27160493827159  0 8.04713804713799  C 0 7.8226711560045  0.0785634118967664 7.63187429854099  0.235690235690299 7.47474747474746  L 2.71043771043765 5  L 0.235690235690299 2.52525252525254  C 0.0785634118967664 2.36812570145901  0 2.1773288439955  0 1.95286195286201  C 0 1.72839506172841  0.0785634118967664 1.5375982042649  0.235690235690299 1.38047138047136  L 1.38047138047136 0.235690235690186  C 1.5375982042649 0.0785634118967664  1.72839506172841 0  1.95286195286189 0  C 2.17732884399561 0  2.36812570145912 0.0785634118967664  2.52525252525243 0.235690235690186  L 5 2.71043771043776  L 7.47474747474757 0.235690235690186  C 7.63187429854088 0.0785634118967664  7.82267115600439 0  8.04713804713811 0  C 8.27160493827159 0  8.4624017957351 0.0785634118967664  8.61952861952864 0.235690235690186  L 9.7643097643097 1.38047138047136  C 9.92143658810323 1.5375982042649  10 1.72839506172841  10 1.95286195286201  C 10 2.1773288439955  9.92143658810323 2.36812570145901  9.7643097643097 2.52525252525254  L 7.28956228956235 5  L 9.7643097643097 7.47474747474746  Z " fill-rule="evenodd" />
    </mask>
  </defs>
  <g transform="matrix(1 0 0 1 -958 -921 )">
    <path d="M 9.7643097643097 7.47474747474746  C 9.92143658810323 7.63187429854099  10 7.8226711560045  10 8.04713804713799  C 10 8.27160493827159  9.92143658810323 8.4624017957351  9.7643097643097 8.61952861952864  L 8.61952861952864 9.76430976430981  C 8.4624017957351 9.92143658810323  8.27160493827159 10  8.04713804713811 10  C 7.82267115600439 10  7.63187429854088 9.92143658810323  7.47474747474757 9.76430976430981  L 5 7.28956228956224  L 2.52525252525243 9.76430976430981  C 2.36812570145912 9.92143658810323  2.17732884399561 10  1.95286195286189 10  C 1.72839506172841 10  1.5375982042649 9.92143658810323  1.38047138047136 9.76430976430981  L 0.235690235690299 8.61952861952864  C 0.0785634118967664 8.4624017957351  0 8.27160493827159  0 8.04713804713799  C 0 7.8226711560045  0.0785634118967664 7.63187429854099  0.235690235690299 7.47474747474746  L 2.71043771043765 5  L 0.235690235690299 2.52525252525254  C 0.0785634118967664 2.36812570145901  0 2.1773288439955  0 1.95286195286201  C 0 1.72839506172841  0.0785634118967664 1.5375982042649  0.235690235690299 1.38047138047136  L 1.38047138047136 0.235690235690186  C 1.5375982042649 0.0785634118967664  1.72839506172841 0  1.95286195286189 0  C 2.17732884399561 0  2.36812570145912 0.0785634118967664  2.52525252525243 0.235690235690186  L 5 2.71043771043776  L 7.47474747474757 0.235690235690186  C 7.63187429854088 0.0785634118967664  7.82267115600439 0  8.04713804713811 0  C 8.27160493827159 0  8.4624017957351 0.0785634118967664  8.61952861952864 0.235690235690186  L 9.7643097643097 1.38047138047136  C 9.92143658810323 1.5375982042649  10 1.72839506172841  10 1.95286195286201  C 10 2.1773288439955  9.92143658810323 2.36812570145901  9.7643097643097 2.52525252525254  L 7.28956228956235 5  L 9.7643097643097 7.47474747474746  Z " fill-rule="nonzero" fill="#ffffff" stroke="none" transform="matrix(1 0 0 1 958 921 )" />
    <path d="M 9.7643097643097 7.47474747474746  C 9.92143658810323 7.63187429854099  10 7.8226711560045  10 8.04713804713799  C 10 8.27160493827159  9.92143658810323 8.4624017957351  9.7643097643097 8.61952861952864  L 8.61952861952864 9.76430976430981  C 8.4624017957351 9.92143658810323  8.27160493827159 10  8.04713804713811 10  C 7.82267115600439 10  7.63187429854088 9.92143658810323  7.47474747474757 9.76430976430981  L 5 7.28956228956224  L 2.52525252525243 9.76430976430981  C 2.36812570145912 9.92143658810323  2.17732884399561 10  1.95286195286189 10  C 1.72839506172841 10  1.5375982042649 9.92143658810323  1.38047138047136 9.76430976430981  L 0.235690235690299 8.61952861952864  C 0.0785634118967664 8.4624017957351  0 8.27160493827159  0 8.04713804713799  C 0 7.8226711560045  0.0785634118967664 7.63187429854099  0.235690235690299 7.47474747474746  L 2.71043771043765 5  L 0.235690235690299 2.52525252525254  C 0.0785634118967664 2.36812570145901  0 2.1773288439955  0 1.95286195286201  C 0 1.72839506172841  0.0785634118967664 1.5375982042649  0.235690235690299 1.38047138047136  L 1.38047138047136 0.235690235690186  C 1.5375982042649 0.0785634118967664  1.72839506172841 0  1.95286195286189 0  C 2.17732884399561 0  2.36812570145912 0.0785634118967664  2.52525252525243 0.235690235690186  L 5 2.71043771043776  L 7.47474747474757 0.235690235690186  C 7.63187429854088 0.0785634118967664  7.82267115600439 0  8.04713804713811 0  C 8.27160493827159 0  8.4624017957351 0.0785634118967664  8.61952861952864 0.235690235690186  L 9.7643097643097 1.38047138047136  C 9.92143658810323 1.5375982042649  10 1.72839506172841  10 1.95286195286201  C 10 2.1773288439955  9.92143658810323 2.36812570145901  9.7643097643097 2.52525252525254  L 7.28956228956235 5  L 9.7643097643097 7.47474747474746  Z " stroke-width="2" stroke="#cccccc" fill="none" transform="matrix(1 0 0 1 958 921 )" mask="url(#clip72)" />
  </g>
</svg>