<?xml version="1.0" encoding="utf-8"?>
<svg version="1.1" xmlns:xlink="http://www.w3.org/1999/xlink" width="18px" height="18px" xmlns="http://www.w3.org/2000/svg">
  <g transform="matrix(1 0 0 1 -1422 -252 )">
    <path d="M 1431 252  C 1436.04 252  1440 255.96  1440 261  C 1440 266.04  1436.04 270  1431 270  C 1425.96 270  1422 266.04  1422 261  C 1422 255.96  1425.96 252  1431 252  Z " fill-rule="nonzero" fill="#ffffff" stroke="none" />
    <path d="M 1431 252.5  C 1435.76 252.5  1439.5 256.24  1439.5 261  C 1439.5 265.76  1435.76 269.5  1431 269.5  C 1426.24 269.5  1422.5 265.76  1422.5 261  C 1422.5 256.24  1426.24 252.5  1431 252.5  Z " stroke-width="1" stroke="#797979" fill="none" />
  </g>
</svg>