<?xml version="1.0" encoding="utf-8"?>
<svg version="1.1" xmlns:xlink="http://www.w3.org/1999/xlink" width="15px" height="9px" xmlns="http://www.w3.org/2000/svg">
  <g transform="matrix(1 0 0 1 -1863 -2380 )">
    <path d="M 14.8496993987974 7.11546391752609  C 14.9498997995991 7.21512027491417  15 7.32972508591047  15 7.45927835051498  C 15 7.5888316151204  14.9498997995991 7.70343642611715  14.8496993987974 7.80309278350524  L 14.0981963927854 8.55051546391769  C 13.9979959919838 8.65017182130578  13.882765531062 8.69999999999982  13.7525050100198 8.69999999999982  C 13.6222444889779 8.69999999999982  13.5070140280559 8.65017182130578  13.4068136272545 8.55051546391769  L 7.5 2.67577319587599  L 1.59318637274555 8.55051546391769  C 1.49298597194411 8.65017182130578  1.37775551102209 8.69999999999982  1.24749498998017 8.69999999999982  C 1.11723446893802 8.69999999999982  1.00200400801623 8.65017182130578  0.901803607214561 8.55051546391769  L 0.150300601202616 7.80309278350524  C 0.0501002004009479 7.70343642611715  0 7.5888316151204  0 7.45927835051498  C 0 7.32972508591047  0.0501002004009479 7.21512027491417  0.150300601202616 7.11546391752609  L 7.15430861723439 0.149484536082582  C 7.25450901803606 0.0498281786940424  7.36973947895785 0  7.5 0  C 7.63026052104215 0  7.74549098196394 0.0498281786940424  7.84569138276561 0.149484536082582  L 14.8496993987974 7.11546391752609  Z " fill-rule="nonzero" fill="#cccccc" stroke="none" transform="matrix(1 0 0 1 1863 2380 )" />
  </g>
</svg>