<?xml version="1.0" encoding="utf-8"?>
<svg version="1.1" xmlns:xlink="http://www.w3.org/1999/xlink" width="18px" height="18px" xmlns="http://www.w3.org/2000/svg">
  <g transform="matrix(1 0 0 1 -514 -614 )">
    <path d="M 4.87722772277228 4.87722772277228  C 5.17425742574257 4.58019801980198  5.32277227722772 4.22178217821782  5.32277227722772 3.8019801980198  C 5.32277227722772 3.38217821782178  5.17425742574257 3.02376237623762  4.87722772277228 2.72673267326733  C 4.58019801980198 2.42970297029703  4.22178217821782 2.28118811881188  3.8019801980198 2.28118811881188  C 3.38217821782178 2.28118811881188  3.02376237623762 2.42970297029703  2.72673267326733 2.72673267326733  C 2.42970297029703 3.02376237623762  2.28118811881188 3.38217821782178  2.28118811881188 3.8019801980198  C 2.28118811881188 4.22178217821782  2.42970297029703 4.58019801980198  2.72673267326733 4.87722772277228  C 3.02376237623762 5.17425742574257  3.38217821782178 5.32277227722772  3.8019801980198 5.32277227722772  C 4.22178217821782 5.32277227722772  4.58019801980198 5.17425742574257  4.87722772277228 4.87722772277228  Z M 17.560396039604 9.56435643564356  C 17.8534653465347 9.87326732673267  18 10.2336633663366  18 10.6455445544554  C 18 11.0653465346535  17.8534653465347 11.4217821782178  17.560396039604 11.7148514851485  L 11.7267326732673 17.560396039604  C 11.4178217821782 17.8534653465347  11.0574257425743 18  10.6455445544554 18  C 10.2257425742574 18  9.86930693069307 17.8534653465347  9.57623762376238 17.560396039604  L 1.08118811881188 9.05346534653465  C 0.78019801980198 8.76039603960396  0.524752475247525 8.36039603960396  0.314851485148515 7.85346534653465  C 0.104950495049505 7.34653465346535  0 6.88316831683168  0 6.46336633663366  L 0 1.52079207920792  C 0 1.10891089108911  0.15049504950495 0.752475247524752  0.451485148514851 0.451485148514851  C 0.752475247524752 0.150495049504949  1.10891089108911 0  1.52079207920792 0  L 6.46336633663366 0  C 6.88316831683168 0  7.34653465346535 0.104950495049503  7.85346534653465 0.314851485148514  C 8.36039603960396 0.524752475247523  8.76435643564357 0.780198019801978  9.06534653465346 1.08118811881188  L 17.560396039604 9.56435643564356  Z " fill-rule="nonzero" fill="#000000" stroke="none" transform="matrix(1 0 0 1 514 614 )" />
  </g>
</svg>