<?xml version="1.0" encoding="utf-8"?>
<svg version="1.1" xmlns:xlink="http://www.w3.org/1999/xlink" width="40px" height="40px" xmlns="http://www.w3.org/2000/svg">
  <g transform="matrix(1 0 0 1 -522 -1039 )">
    <path d="M 542 1039  C 553.2 1039  562 1047.8  562 1059  C 562 1070.2  553.2 1079  542 1079  C 530.8 1079  522 1070.2  522 1059  C 522 1047.8  530.8 1039  542 1039  Z " fill-rule="nonzero" fill="#ffffff" stroke="none" />
    <path d="M 542 1039.5  C 552.92 1039.5  561.5 1048.08  561.5 1059  C 561.5 1069.92  552.92 1078.5  542 1078.5  C 531.08 1078.5  522.5 1069.92  522.5 1059  C 522.5 1048.08  531.08 1039.5  542 1039.5  Z " stroke-width="1" stroke="#bcbcbc" fill="none" />
  </g>
</svg>