<?xml version="1.0" encoding="utf-8"?>
<svg version="1.1" xmlns:xlink="http://www.w3.org/1999/xlink" width="40px" height="40px" xmlns="http://www.w3.org/2000/svg">
  <g transform="matrix(1 0 0 1 -607 -1039 )">
    <path d="M 627 1039  C 638.2 1039  647 1047.8  647 1059  C 647 1070.2  638.2 1079  627 1079  C 615.8 1079  607 1070.2  607 1059  C 607 1047.8  615.8 1039  627 1039  Z " fill-rule="nonzero" fill="#ffffff" stroke="none" />
    <path d="M 627 1039.5  C 637.92 1039.5  646.5 1048.08  646.5 1059  C 646.5 1069.92  637.92 1078.5  627 1078.5  C 616.08 1078.5  607.5 1069.92  607.5 1059  C 607.5 1048.08  616.08 1039.5  627 1039.5  Z " stroke-width="1" stroke="#797979" fill="none" />
  </g>
</svg>