<?xml version="1.0" encoding="utf-8"?>
<svg version="1.1" xmlns:xlink="http://www.w3.org/1999/xlink" width="129px" height="34px" xmlns="http://www.w3.org/2000/svg">
  <defs>
    <mask fill="white" id="clip57">
      <path d="M 0 1.35458167330677  L 0 32.6454183266932  C 0 33.403984063745  1.53405405405405 34  3.48648648648649 34  L 125.513513513514 34  C 127.465945945946 34  129 33.403984063745  129 32.6454183266932  L 129 1.35458167330677  C 129 0.596015936254981  127.465945945946 0  125.513513513514 0  L 3.48648648648649 0  C 1.53405405405405 0  0 0.596015936254981  0 1.35458167330677  Z " fill-rule="evenodd" />
    </mask>
  </defs>
  <g transform="matrix(1 0 0 1 -260 -554 )">
    <path d="M 0 1.35458167330677  L 0 32.6454183266932  C 0 33.403984063745  1.53405405405405 34  3.48648648648649 34  L 125.513513513514 34  C 127.465945945946 34  129 33.403984063745  129 32.6454183266932  L 129 1.35458167330677  C 129 0.596015936254981  127.465945945946 0  125.513513513514 0  L 3.48648648648649 0  C 1.53405405405405 0  0 0.596015936254981  0 1.35458167330677  Z " fill-rule="nonzero" fill="#d9001b" stroke="none" fill-opacity="0.0352941176470588" transform="matrix(1 0 0 1 260 554 )" />
    <path d="M 0 1.35458167330677  L 0 32.6454183266932  C 0 33.403984063745  1.53405405405405 34  3.48648648648649 34  L 125.513513513514 34  C 127.465945945946 34  129 33.403984063745  129 32.6454183266932  L 129 1.35458167330677  C 129 0.596015936254981  127.465945945946 0  125.513513513514 0  L 3.48648648648649 0  C 1.53405405405405 0  0 0.596015936254981  0 1.35458167330677  Z " stroke-width="2" stroke-dasharray="9,4" stroke="#d9001b" fill="none" transform="matrix(1 0 0 1 260 554 )" mask="url(#clip57)" />
  </g>
</svg>