<?xml version="1.0" encoding="utf-8"?>
<svg version="1.1" xmlns:xlink="http://www.w3.org/1999/xlink" width="34px" height="26px" xmlns="http://www.w3.org/2000/svg">
  <g transform="matrix(1 0 0 1 -1170 -15 )">
    <path d="M 31.3911830357143 23.4609375  C 31.5113467261905 23.3439867424242  31.5714285714286 23.2054924242424  31 23.0454545454545  L 31 8.86363636363637  C 31.1666666666667 9.30681818181818  30.7302827380952 9.71306818181818  30.2622767857143 10.0823863636364  C 26.8723958333333 12.6183712121212  24.1781994047619 14.6988636363636  22.1796875 16.3238636363636  C 21.5345982142857 16.8532196969697  21.0096726190476 17.265625  20.6049107142857 17.5610795454545  C 20.2001488095238 17.8565340909091  19.6530877976191 18.1550662878788  18.9637276785714 18.4566761363636  C 18.2743675595238 18.7582859848485  17.6261160714286 18.9090909090909  17.0189732142857 18.9090909090909  L 17 18.9090909090909  L 16.9810267857143 18.9090909090909  C 16.3738839285714 18.9090909090909  15.7256324404762 18.7582859848485  15.0362723214286 18.4566761363636  C 14.346912202381 18.1550662878788  13.7998511904762 17.8565340909091  13.3950892857143 17.5610795454545  C 12.9903273809524 17.265625  12.4654017857143 16.8532196969697  11.8203125 16.3238636363636  C 9.8218005952381 14.6988636363636  7.12760416666667 12.6183712121212  3.73772321428571 10.0823863636364  C 3.26971726190476 9.71306818181818  2.83333333333333 9.30681818181818  3 8.86363636363637  L 3 23.0454545454545  C 2.42857142857143 23.2054924242424  2.48865327380952 23.3439867424242  2.60881696428571 23.4609375  C 2.7289806547619 23.5778882575758  2.87127976190476 23.6363636363636  3.03571428571429 23.6363636363636  L 30.9642857142857 23.6363636363636  C 31.1287202380952 23.6363636363636  31.2710193452381 23.5778882575758  31.3911830357143 23.4609375  Z M 30.6891741071429 6.06605113636364  C 31.27734375 5.17353219696969  31.5714285714286 4.36410984848485  31.5714285714286 3.63778409090909  L 31.5714285714286 3.43465909090909  L 31.5714285714286 3.18536931818182  C 31.5714285714286 3.18536931818182  31.5682663690476 3.10535037878787  31.5619419642857 2.9453125  C 31.5556175595238 2.78527462121212  31.5366443452381 2.70833333333333  31.5050223214286 2.71448863636364  C 31.4734002976191 2.72064393939394  31.4386160714286 2.66524621212121  31.4006696428571 2.54829545454546  C 31.3627232142857 2.43134469696969  31.3058035714286 2.38517992424242  31.2299107142857 2.40980113636364  C 31.1540178571429 2.43442234848485  31.0654761904762 2.41903409090909  30.9642857142857 2.36363636363636  L 3.03571428571429 2.36363636363636  C 2.87127976190476 2.36363636363636  2.7289806547619 2.42211174242424  2.60881696428571 2.5390625  C 2.48865327380952 2.65601325757576  2.42857142857143 2.79450757575757  2.42857142857143 2.95454545454546  C 2.42857142857143 5.02272727272727  3.35825892857143 6.77083333333333  5.21763392857143 8.19886363636363  C 7.65885416666667 10.0700757575758  10.1949404761905 12.0213068181818  12.8258928571429 14.0525568181818  C 12.9017857142857 14.1141098484848  13.1231398809524 14.2956912878788  13.4899553571429 14.5973011363636  C 13.8567708333333 14.8989109848485  14.147693452381 15.1297348484848  14.3627232142857 15.2897727272727  C 14.5777529761905 15.4498106060606  14.8591889880952 15.6437026515151  15.20703125 15.8714488636364  C 15.5548735119048 16.0991950757576  15.874255952381 16.2684659090909  16.1651785714286 16.3792613636364  C 16.4561011904762 16.4900568181818  16.7280505952381 16.5454545454545  16.9810267857143 16.5454545454545  L 17 16.5454545454545  L 17.0189732142857 16.5454545454545  C 17.2719494047619 16.5454545454545  17.5438988095238 16.4900568181818  17.8348214285714 16.3792613636364  C 18.1257440476191 16.2684659090909  18.4451264880952 16.0991950757576  18.79296875 15.8714488636364  C 19.1408110119048 15.6437026515151  19.4222470238095 15.4498106060606  19.6372767857143 15.2897727272727  C 19.8523065476191 15.1297348484848  20.1432291666667 14.8989109848485  20.5100446428571 14.5973011363636  C 20.8768601190476 14.2956912878788  21.0982142857143 14.1141098484848  21.1741071428571 14.0525568181818  C 23.8050595238095 12.0213068181818  26.3411458333333 10.0700757575758  28.7823660714286 8.19886363636363  C 29.4654017857143 7.66950757575757  30.1010044642857 6.95857007575757  30.6891741071429 6.06605113636364  Z M 33.1082589285714 0.867897727272726  C 33.7027529761905 1.44649621212121  34 2.14204545454546  34 2.95454545454546  L 34 23.0454545454545  C 34 23.8579545454545  33.7027529761905 24.5535037878788  33.1082589285714 25.1321022727273  C 32.5137648809524 25.7107007575758  31.7991071428571 26  30.9642857142857 26  L 3.03571428571429 26  C 2.20089285714286 26  1.48623511904762 25.7107007575758  0.891741071428571 25.1321022727273  C 0.297247023809524 24.5535037878788  0 23.8579545454545  0 23.0454545454545  L 0 2.95454545454546  C 0 2.14204545454546  0.297247023809524 1.44649621212121  0.891741071428571 0.867897727272726  C 1.48623511904762 0.289299242424239  2.20089285714286 0  3.03571428571429 0  L 30.9642857142857 0  C 31.7991071428571 0  32.5137648809524 0.289299242424239  33.1082589285714 0.867897727272726  Z " fill-rule="nonzero" fill="#666666" stroke="none" transform="matrix(1 0 0 1 1170 15 )" />
  </g>
</svg>