<?xml version="1.0" encoding="utf-8"?>
<svg version="1.1" xmlns:xlink="http://www.w3.org/1999/xlink" width="17px" height="17px" xmlns="http://www.w3.org/2000/svg">
  <g transform="matrix(1 0 0 1 -653 -223 )">
    <path d="M 13.1705729166667 7.08333333333333  C 13.1705729166667 7.27517361111111  13.1004774305556 7.44118923611111  12.9602864583333 7.58138020833333  L 8.28971354166667 12.251953125  C 8.14952256944444 12.3921440972222  7.98350694444444 12.4622395833333  7.79166666666667 12.4622395833333  C 7.59982638888889 12.4622395833333  7.43381076388889 12.3921440972222  7.29361979166667 12.251953125  L 4.03971354166667 8.998046875  C 3.89952256944444 8.85785590277778  3.82942708333333 8.69184027777778  3.82942708333333 8.5  C 3.82942708333333 8.30815972222222  3.89952256944444 8.14214409722222  4.03971354166667 8.001953125  L 5.16861979166667 6.873046875  C 5.30881076388889 6.73285590277778  5.47482638888889 6.66276041666667  5.66666666666667 6.66276041666667  C 5.85850694444444 6.66276041666667  6.02452256944444 6.73285590277778  6.16471354166667 6.873046875  L 7.79166666666667 8.5  L 10.8352864583333 5.45638020833333  C 10.9754774305556 5.31618923611111  11.1414930555556 5.24609375  11.3333333333333 5.24609375  C 11.5251736111111 5.24609375  11.6911892361111 5.31618923611111  11.8313802083333 5.45638020833333  L 12.9602864583333 6.58528645833333  C 13.1004774305556 6.72547743055556  13.1705729166667 6.89149305555556  13.1705729166667 7.08333333333333  Z M 13.712890625 11.521484375  C 14.2515190972222 10.5991753472222  14.5208333333333 9.59201388888889  14.5208333333333 8.5  C 14.5208333333333 7.40798611111111  14.2515190972222 6.40082465277778  13.712890625 5.478515625  C 13.1742621527778 4.55620659722222  12.4437934027778 3.82573784722222  11.521484375 3.287109375  C 10.5991753472222 2.74848090277778  9.59201388888889 2.47916666666667  8.5 2.47916666666667  C 7.40798611111111 2.47916666666667  6.40082465277778 2.74848090277778  5.478515625 3.287109375  C 4.55620659722222 3.82573784722222  3.82573784722222 4.55620659722222  3.287109375 5.478515625  C 2.74848090277778 6.40082465277778  2.47916666666667 7.40798611111111  2.47916666666667 8.5  C 2.47916666666667 9.59201388888889  2.74848090277778 10.5991753472222  3.287109375 11.521484375  C 3.82573784722222 12.4437934027778  4.55620659722222 13.1742621527778  5.478515625 13.712890625  C 6.40082465277778 14.2515190972222  7.40798611111111 14.5208333333333  8.5 14.5208333333333  C 9.59201388888889 14.5208333333333  10.5991753472222 14.2515190972222  11.521484375 13.712890625  C 12.4437934027778 13.1742621527778  13.1742621527778 12.4437934027778  13.712890625 11.521484375  Z M 15.8600260416667 4.2333984375  C 16.6200086805556 5.53569878472222  17 6.95789930555555  17 8.5  C 17 10.0421006944444  16.6200086805556 11.4643012152778  15.8600260416667 12.7666015625  C 15.1000434027778 14.0689019097222  14.0689019097222 15.1000434027778  12.7666015625 15.8600260416667  C 11.4643012152778 16.6200086805556  10.0421006944444 17  8.5 17  C 6.95789930555556 17  5.53569878472222 16.6200086805556  4.2333984375 15.8600260416667  C 2.93109809027778 15.1000434027778  1.89995659722222 14.0689019097222  1.13997395833333 12.7666015625  C 0.379991319444444 11.4643012152778  0 10.0421006944444  0 8.5  C 0 6.95789930555555  0.379991319444444 5.53569878472222  1.13997395833333 4.2333984375  C 1.89995659722222 2.93109809027778  2.93109809027778 1.89995659722222  4.2333984375 1.13997395833333  C 5.53569878472222 0.379991319444443  6.95789930555556 0  8.5 0  C 10.0421006944444 0  11.4643012152778 0.379991319444443  12.7666015625 1.13997395833333  C 14.0689019097222 1.89995659722222  15.1000434027778 2.93109809027778  15.8600260416667 4.2333984375  Z " fill-rule="nonzero" fill="#169bd5" stroke="none" transform="matrix(1 0 0 1 653 223 )" />
  </g>
</svg>