<?xml version="1.0" encoding="utf-8"?>
<svg version="1.1" xmlns:xlink="http://www.w3.org/1999/xlink" width="84px" height="86px" xmlns="http://www.w3.org/2000/svg">
  <g transform="matrix(1 0 0 1 -272 -766 )">
    <path d="M 314 766  C 337.52 766  356 784.92  356 809  C 356 833.08  337.52 852  314 852  C 290.48 852  272 833.08  272 809  C 272 784.92  290.48 766  314 766  Z " fill-rule="nonzero" fill="#f2f2f2" stroke="none" />
    <path d="M 314 766.5  C 337.24 766.5  355.5 785.2  355.5 809  C 355.5 832.8  337.24 851.5  314 851.5  C 290.76 851.5  272.5 832.8  272.5 809  C 272.5 785.2  290.76 766.5  314 766.5  Z " stroke-width="1" stroke="#797979" fill="none" />
  </g>
</svg>