<?xml version="1.0" encoding="utf-8"?>
<svg version="1.1" xmlns:xlink="http://www.w3.org/1999/xlink" width="93px" height="86px" xmlns="http://www.w3.org/2000/svg">
  <g transform="matrix(1 0 0 1 -1018 -765 )">
    <path d="M 1064.5 765  C 1090.54 765  1111 783.92  1111 808  C 1111 832.08  1090.54 851  1064.5 851  C 1038.46 851  1018 832.08  1018 808  C 1018 783.92  1038.46 765  1064.5 765  Z " fill-rule="nonzero" fill="#f2f2f2" stroke="none" />
    <path d="M 1064.5 765.5  C 1090.26 765.5  1110.5 784.2  1110.5 808  C 1110.5 831.8  1090.26 850.5  1064.5 850.5  C 1038.74 850.5  1018.5 831.8  1018.5 808  C 1018.5 784.2  1038.74 765.5  1064.5 765.5  Z " stroke-width="1" stroke="#797979" fill="none" />
  </g>
</svg>