<?xml version="1.0" encoding="utf-8"?>
<svg version="1.1" xmlns:xlink="http://www.w3.org/1999/xlink" width="421px" height="180px" xmlns="http://www.w3.org/2000/svg">
  <g transform="matrix(1 0 0 1 -1208 -410 )">
    <path d="M 1209 414  A 3 3 0 0 1 1212 411 L 1625 411  A 3 3 0 0 1 1628 414 L 1628 586  A 3 3 0 0 1 1625 589 L 1212 589  A 3 3 0 0 1 1209 586 L 1209 414  Z " fill-rule="nonzero" fill="#ff3399" stroke="none" fill-opacity="0.0980392156862745" />
    <path d="M 1208.5 414  A 3.5 3.5 0 0 1 1212 410.5 L 1625 410.5  A 3.5 3.5 0 0 1 1628.5 414 L 1628.5 586  A 3.5 3.5 0 0 1 1625 589.5 L 1212 589.5  A 3.5 3.5 0 0 1 1208.5 586 L 1208.5 414  Z " stroke-width="1" stroke-dasharray="9,4" stroke="#ff3399" fill="none" stroke-dashoffset="0.5" />
  </g>
</svg>