<?xml version="1.0" encoding="utf-8"?>
<svg version="1.1" xmlns:xlink="http://www.w3.org/1999/xlink" width="15px" height="4px" xmlns="http://www.w3.org/2000/svg">
  <g transform="matrix(1 0 0 1 -965 -138 )">
    <path d="M 14.7017045454545 0.291666666666667  C 14.9005681818182 0.486111111111109  15 0.722222222222221  15 1  L 15 3  C 15 3.27777777777778  14.9005681818182 3.51388888888889  14.7017045454545 3.70833333333333  C 14.5028409090909 3.90277777777778  14.2613636363636 4  13.9772727272727 4  L 1.02272727272727 4  C 0.738636363636364 4  0.497159090909091 3.90277777777778  0.298295454545455 3.70833333333333  C 0.0994318181818182 3.51388888888889  0 3.27777777777778  0 3  L 0 1  C 0 0.722222222222221  0.0994318181818182 0.486111111111109  0.298295454545455 0.291666666666667  C 0.497159090909091 0.0972222222222214  0.738636363636364 0  1.02272727272727 0  L 13.9772727272727 0  C 14.2613636363636 0  14.5028409090909 0.0972222222222214  14.7017045454545 0.291666666666667  Z " fill-rule="nonzero" fill="#d7d7d7" stroke="none" transform="matrix(1 0 0 1 965 138 )" />
  </g>
</svg>