<?xml version="1.0" encoding="utf-8"?>
<svg version="1.1" xmlns:xlink="http://www.w3.org/1999/xlink" width="17px" height="16px" xmlns="http://www.w3.org/2000/svg">
  <g transform="matrix(1 0 0 1 -518 -192 )">
    <path d="M 9.62165924276169 13.4471153846154  C 9.68160727542688 13.3862179487179  9.71158129175947 13.3108974358974  9.71158129175947 13.2211538461538  L 9.71158129175947 11.3942307692308  C 9.71158129175947 11.3044871794872  9.68160727542688 11.2291666666667  9.62165924276169 11.1682692307692  C 9.56171121009651 11.1073717948718  9.49072011878248 11.0769230769231  9.4086859688196 11.0769230769231  L 7.5913140311804 11.0769230769231  C 7.50927988121752 11.0769230769231  7.43828878990349 11.1073717948718  7.37834075723831 11.1682692307692  C 7.31839272457313 11.2291666666667  7.28841870824053 11.3044871794872  7.28841870824053 11.3942307692308  L 7.28841870824053 13.2211538461538  C 7.28841870824053 13.3108974358974  7.31839272457313 13.3862179487179  7.37834075723831 13.4471153846154  C 7.43828878990349 13.5080128205128  7.50927988121752 13.5384615384615  7.5913140311804 13.5384615384615  L 9.4086859688196 13.5384615384615  C 9.49072011878248 13.5384615384615  9.56171121009651 13.5080128205128  9.62165924276169 13.4471153846154  Z M 9.59326280623608 9.78365384615385  C 9.65321083890126 9.74198717948718  9.68634001484781 9.68910256410256  9.69265033407572 9.625  L 9.8630289532294 5.21153846153846  C 9.8630289532294 5.13461538461539  9.83147735708983 5.07371794871795  9.76837416481069 5.02884615384615  C 9.68634001484781 4.95833333333333  9.61061618411284 4.92307692307692  9.54120267260579 4.92307692307692  L 7.45879732739421 4.92307692307692  C 7.38938381588716 4.92307692307692  7.31365998515219 4.95833333333333  7.23162583518931 5.02884615384615  C 7.16852264291017 5.07371794871795  7.1369710467706 5.14102564102564  7.1369710467706 5.23076923076923  L 7.29788418708241 9.625  C 7.29788418708241 9.68910256410256  7.32943578322198 9.74198717948718  7.39253897550111 9.78365384615385  C 7.45564216778025 9.82532051282051  7.53136599851522 9.84615384615385  7.61971046770601 9.84615384615385  L 9.37082405345211 9.84615384615385  C 9.45916852264291 9.84615384615385  9.5333147735709 9.82532051282051  9.59326280623608 9.78365384615385  Z M 9.1152561247216 0.173076923076923  C 9.30456570155902 0.288461538461538  9.452858203415 0.445512820512819  9.56013363028953 0.64423076923077  L 16.8296213808463 14.1826923076923  C 17.0504825538233 14.5865384615385  17.0441722345954 14.9903846153846  16.8106904231626 15.3942307692308  C 16.703414996288 15.5801282051282  16.556700074239 15.7275641025641  16.3705456570156 15.8365384615385  C 16.1843912397921 15.9455128205128  15.9840386043059 16  15.7694877505568 16  L 1.23051224944321 16  C 1.01596139569414 16  0.815608760207869 15.9455128205128  0.62945434298441 15.8365384615385  C 0.44329992576095 15.7275641025641  0.296585003711953 15.5801282051282  0.189309576837416 15.3942307692308  C -0.0441722345953972 14.9903846153846  -0.0504825538233111 14.5865384615385  0.170378619153675 14.1826923076923  L 7.43986636971047 0.64423076923077  C 7.547141796585 0.445512820512819  7.69543429844098 0.288461538461538  7.8847438752784 0.173076923076923  C 8.07405345211581 0.0576923076923084  8.27913882702302 0  8.5 0  C 8.72086117297699 0  8.92594654788419 0.0576923076923084  9.1152561247216 0.173076923076923  Z " fill-rule="nonzero" fill="#7f7f7f" stroke="none" transform="matrix(1 0 0 1 518 192 )" />
  </g>
</svg>