<?xml version="1.0" encoding="utf-8"?>
<svg version="1.1" xmlns:xlink="http://www.w3.org/1999/xlink" width="15px" height="4px" xmlns="http://www.w3.org/2000/svg">
  <g transform="matrix(1 0 0 1 -995 -193 )">
    <path d="M 3.79261363636364 0.291666666666667  C 3.99147727272727 0.486111111111109  4.09090909090909 0.722222222222221  4.09090909090909 1  L 4.09090909090909 3  C 4.09090909090909 3.27777777777778  3.99147727272727 3.51388888888889  3.79261363636364 3.70833333333333  C 3.59375 3.90277777777778  3.35227272727273 4  3.06818181818182 4  L 1.02272727272727 4  C 0.738636363636364 4  0.497159090909091 3.90277777777778  0.298295454545455 3.70833333333333  C 0.0994318181818182 3.51388888888889  0 3.27777777777778  0 3  L 0 1  C 0 0.722222222222221  0.0994318181818182 0.486111111111109  0.298295454545455 0.291666666666667  C 0.497159090909091 0.0972222222222214  0.738636363636364 0  1.02272727272727 0  L 3.06818181818182 0  C 3.35227272727273 0  3.59375 0.0972222222222214  3.79261363636364 0.291666666666667  Z M 9.24715909090909 0.291666666666667  C 9.44602272727273 0.486111111111109  9.54545454545454 0.722222222222221  9.54545454545454 1  L 9.54545454545454 3  C 9.54545454545454 3.27777777777778  9.44602272727273 3.51388888888889  9.24715909090909 3.70833333333333  C 9.04829545454546 3.90277777777778  8.80681818181818 4  8.52272727272727 4  L 6.47727272727273 4  C 6.19318181818182 4  5.95170454545455 3.90277777777778  5.75284090909091 3.70833333333333  C 5.55397727272727 3.51388888888889  5.45454545454546 3.27777777777778  5.45454545454546 3  L 5.45454545454546 1  C 5.45454545454546 0.722222222222221  5.55397727272727 0.486111111111109  5.75284090909091 0.291666666666667  C 5.95170454545455 0.0972222222222214  6.19318181818182 0  6.47727272727273 0  L 8.52272727272727 0  C 8.80681818181818 0  9.04829545454546 0.0972222222222214  9.24715909090909 0.291666666666667  Z M 14.7017045454545 0.291666666666667  C 14.9005681818182 0.486111111111109  15 0.722222222222221  15 1  L 15 3  C 15 3.27777777777778  14.9005681818182 3.51388888888889  14.7017045454545 3.70833333333333  C 14.5028409090909 3.90277777777778  14.2613636363636 4  13.9772727272727 4  L 11.9318181818182 4  C 11.6477272727273 4  11.40625 3.90277777777778  11.2073863636364 3.70833333333333  C 11.0085227272727 3.51388888888889  10.9090909090909 3.27777777777778  10.9090909090909 3  L 10.9090909090909 1  C 10.9090909090909 0.722222222222221  11.0085227272727 0.486111111111109  11.2073863636364 0.291666666666667  C 11.40625 0.0972222222222214  11.6477272727273 0  11.9318181818182 0  L 13.9772727272727 0  C 14.2613636363636 0  14.5028409090909 0.0972222222222214  14.7017045454545 0.291666666666667  Z " fill-rule="nonzero" fill="#333333" stroke="none" transform="matrix(1 0 0 1 995 193 )" />
  </g>
</svg>