<?xml version="1.0" encoding="utf-8"?>
<svg version="1.1" xmlns:xlink="http://www.w3.org/1999/xlink" width="25px" height="25px" xmlns="http://www.w3.org/2000/svg">
  <defs>
    <mask fill="white" id="clip35">
      <path d="M 0 12.5  C 0 9.96518633804112  0.72120493172838 7.62706493018993  1.97368023788476 5.67557033374715  C 4.17997086575747 2.23792632007871  8.03481366195888 0  12.5 0  C 19.5 0  25 5.5  25 12.5  C 25 19.5  19.5 25  12.5 25  C 5.5 25  0 19.5  0 12.5  Z " fill-rule="evenodd" />
    </mask>
  </defs>
  <g transform="matrix(1 0 0 1 -985 -527 )">
    <path d="M 0 12.5  C 0 9.96518633804112  0.72120493172838 7.62706493018993  1.97368023788476 5.67557033374715  C 4.17997086575747 2.23792632007871  8.03481366195888 0  12.5 0  C 19.5 0  25 5.5  25 12.5  C 25 19.5  19.5 25  12.5 25  C 5.5 25  0 19.5  0 12.5  Z " fill-rule="nonzero" fill="#ffffff" stroke="none" transform="matrix(1 0 0 1 985 527 )" />
    <path d="M 0 12.5  C 0 9.96518633804112  0.72120493172838 7.62706493018993  1.97368023788476 5.67557033374715  C 4.17997086575747 2.23792632007871  8.03481366195888 0  12.5 0  C 19.5 0  25 5.5  25 12.5  C 25 19.5  19.5 25  12.5 25  C 5.5 25  0 19.5  0 12.5  Z " stroke-width="4" stroke="#aaaaaa" fill="none" transform="matrix(1 0 0 1 985 527 )" mask="url(#clip35)" />
  </g>
</svg>