<?xml version="1.0" encoding="utf-8"?>
<svg version="1.1" xmlns:xlink="http://www.w3.org/1999/xlink" width="236px" height="101px" xmlns="http://www.w3.org/2000/svg">
  <defs>
    <mask fill="white" id="clip36">
      <path d="M 0 4.02390438247027  L 0 96.9760956175301  C 0 99.2294820717132  2.80648648648644 101  6.37837837837842 101  L 229.621621621622 101  C 233.193513513514 101  236 99.2294820717132  236 96.9760956175301  L 236 4.02390438247027  C 236 1.77051792828679  233.193513513514 0  229.621621621622 0  L 51.886524822695 0  L 6.37837837837842 0  C 2.80648648648644 0  0 1.77051792828679  0 4.02390438247027  Z " fill-rule="evenodd" />
    </mask>
  </defs>
  <g transform="matrix(1 0 0 1 -1047 -717 )">
    <path d="M 0 4.02390438247027  L 0 96.9760956175301  C 0 99.2294820717132  2.80648648648644 101  6.37837837837842 101  L 229.621621621622 101  C 233.193513513514 101  236 99.2294820717132  236 96.9760956175301  L 236 4.02390438247027  C 236 1.77051792828679  233.193513513514 0  229.621621621622 0  L 51.886524822695 0  L 6.37837837837842 0  C 2.80648648648644 0  0 1.77051792828679  0 4.02390438247027  Z " fill-rule="nonzero" fill="#d9001b" stroke="none" fill-opacity="0.0352941176470588" transform="matrix(1 0 0 1 1047 717 )" />
    <path d="M 0 4.02390438247027  L 0 96.9760956175301  C 0 99.2294820717132  2.80648648648644 101  6.37837837837842 101  L 229.621621621622 101  C 233.193513513514 101  236 99.2294820717132  236 96.9760956175301  L 236 4.02390438247027  C 236 1.77051792828679  233.193513513514 0  229.621621621622 0  L 51.886524822695 0  L 6.37837837837842 0  C 2.80648648648644 0  0 1.77051792828679  0 4.02390438247027  Z " stroke-width="2" stroke-dasharray="9,4" stroke="#d9001b" fill="none" transform="matrix(1 0 0 1 1047 717 )" mask="url(#clip36)" />
  </g>
</svg>