<?xml version="1.0" encoding="utf-8"?>
<svg version="1.1" xmlns:xlink="http://www.w3.org/1999/xlink" width="170px" height="96px" xmlns="http://www.w3.org/2000/svg">
  <g transform="matrix(1 0 0 1 -790 -323 )">
    <path d="M 790 323  L 960 323  L 960 419  L 790 419  L 790 323  " fill-rule="nonzero" fill="#cccccc" stroke="none" />
    <path d="M 797 330  L 953 330  L 953 412  L 797 412  L 797 330  " fill-rule="nonzero" fill="#ffffff" stroke="none" />
    <path d="M 885.6 351.8  C 881.568 351.8  878.4 348.632  878.4 344.6  C 878.4 340.568  881.568 337.4  885.6 337.4  C 889.632 337.4  892.8 340.568  892.8 344.6  C 892.8 348.632  889.632 351.8  885.6 351.8  " fill-rule="nonzero" fill="#cccccc" stroke="none" />
    <path d="M 800 410  L 800 367.65  L 837.75 348.4  L 890.6 383.910588235294  L 920.8 359.95  L 951 383.910588235294  L 951 410  L 800 410  " fill-rule="nonzero" fill="#169bd5" stroke="none" />
  </g>
</svg>