<?xml version="1.0" encoding="utf-8"?>
<svg version="1.1" xmlns:xlink="http://www.w3.org/1999/xlink" width="53px" height="25px" xmlns="http://www.w3.org/2000/svg">
  <defs>
    <mask fill="white" id="clip37">
      <path d="M 0 20  L 0 5  C 0 2.19999999999999  2.2751219512195 0  5.17073170731707 0  L 22.4926829268264 0  L 47.8292682926829 0  C 50.7248780487805 0  53 2.19999999999999  53 5  L 53 20  C 53 22.8  50.7248780487805 25  47.8292682926829 25  L 5.17073170731707 25  C 2.2751219512195 25  0 22.8  0 20  Z " fill-rule="evenodd" />
    </mask>
  </defs>
  <g transform="matrix(1 0 0 1 -488 -1808 )">
    <path d="M 0 20  L 0 5  C 0 2.19999999999999  2.2751219512195 0  5.17073170731707 0  L 22.4926829268264 0  L 47.8292682926829 0  C 50.7248780487805 0  53 2.19999999999999  53 5  L 53 20  C 53 22.8  50.7248780487805 25  47.8292682926829 25  L 5.17073170731707 25  C 2.2751219512195 25  0 22.8  0 20  Z " fill-rule="nonzero" fill="#ffffff" stroke="none" transform="matrix(1 0 0 1 488 1808 )" />
    <path d="M 0 20  L 0 5  C 0 2.19999999999999  2.2751219512195 0  5.17073170731707 0  L 22.4926829268264 0  L 47.8292682926829 0  C 50.7248780487805 0  53 2.19999999999999  53 5  L 53 20  C 53 22.8  50.7248780487805 25  47.8292682926829 25  L 5.17073170731707 25  C 2.2751219512195 25  0 22.8  0 20  Z " stroke-width="2" stroke="#7f7f7f" fill="none" transform="matrix(1 0 0 1 488 1808 )" mask="url(#clip37)" />
  </g>
</svg>