<?xml version="1.0" encoding="utf-8"?>
<svg version="1.1" xmlns:xlink="http://www.w3.org/1999/xlink" width="142px" height="31px" xmlns="http://www.w3.org/2000/svg">
  <defs>
    <mask fill="white" id="clip38">
      <path d="M 0 1.23505976095617  L 0 29.7649402390438  C 0 30.4565737051793  1.68864864864865 31  3.83783783783784 31  L 138.162162162162 31  C 140.311351351351 31  142 30.4565737051793  142 29.7649402390438  L 142 1.23505976095617  C 142 0.543426294820718  140.311351351351 0  138.162162162162 0  L 3.83783783783784 0  C 1.68864864864865 0  0 0.543426294820718  0 1.23505976095617  Z " fill-rule="evenodd" />
    </mask>
  </defs>
  <g transform="matrix(1 0 0 1 -337 -1906 )">
    <path d="M 0 1.23505976095617  L 0 29.7649402390438  C 0 30.4565737051793  1.68864864864865 31  3.83783783783784 31  L 138.162162162162 31  C 140.311351351351 31  142 30.4565737051793  142 29.7649402390438  L 142 1.23505976095617  C 142 0.543426294820718  140.311351351351 0  138.162162162162 0  L 3.83783783783784 0  C 1.68864864864865 0  0 0.543426294820718  0 1.23505976095617  Z " fill-rule="nonzero" fill="#d9001b" stroke="none" fill-opacity="0.0352941176470588" transform="matrix(1 0 0 1 337 1906 )" />
    <path d="M 0 1.23505976095617  L 0 29.7649402390438  C 0 30.4565737051793  1.68864864864865 31  3.83783783783784 31  L 138.162162162162 31  C 140.311351351351 31  142 30.4565737051793  142 29.7649402390438  L 142 1.23505976095617  C 142 0.543426294820718  140.311351351351 0  138.162162162162 0  L 3.83783783783784 0  C 1.68864864864865 0  0 0.543426294820718  0 1.23505976095617  Z " stroke-width="2" stroke-dasharray="9,4" stroke="#d9001b" fill="none" transform="matrix(1 0 0 1 337 1906 )" mask="url(#clip38)" />
  </g>
</svg>