<?xml version="1.0" encoding="utf-8"?>
<svg version="1.1" xmlns:xlink="http://www.w3.org/1999/xlink" width="270px" height="187px" xmlns="http://www.w3.org/2000/svg">
  <defs>
    <mask fill="white" id="clip41">
      <path d="M 0 7.45019920318724  L 0 179.549800796813  C 0 183.721912350598  3.21081081081081 187  7.2972972972973 187  L 262.702702702703 187  C 266.789189189189 187  270 183.721912350598  270 179.549800796813  L 270 7.45019920318724  C 270 3.2780876494024  266.789189189189 0  262.702702702703 0  L 7.2972972972973 0  C 3.21081081081081 0  0 3.2780876494024  0 7.45019920318724  Z " fill-rule="evenodd" />
    </mask>
  </defs>
  <g transform="matrix(1 0 0 1 -2166 -282 )">
    <path d="M 0 7.45019920318724  L 0 179.549800796813  C 0 183.721912350598  3.21081081081081 187  7.2972972972973 187  L 262.702702702703 187  C 266.789189189189 187  270 183.721912350598  270 179.549800796813  L 270 7.45019920318724  C 270 3.2780876494024  266.789189189189 0  262.702702702703 0  L 7.2972972972973 0  C 3.21081081081081 0  0 3.2780876494024  0 7.45019920318724  Z " fill-rule="nonzero" fill="#d9001b" stroke="none" fill-opacity="0.0352941176470588" transform="matrix(1 0 0 1 2166 282 )" />
    <path d="M 0 7.45019920318724  L 0 179.549800796813  C 0 183.721912350598  3.21081081081081 187  7.2972972972973 187  L 262.702702702703 187  C 266.789189189189 187  270 183.721912350598  270 179.549800796813  L 270 7.45019920318724  C 270 3.2780876494024  266.789189189189 0  262.702702702703 0  L 7.2972972972973 0  C 3.21081081081081 0  0 3.2780876494024  0 7.45019920318724  Z " stroke-width="2" stroke-dasharray="9,4" stroke="#d9001b" fill="none" transform="matrix(1 0 0 1 2166 282 )" mask="url(#clip41)" />
  </g>
</svg>