<?xml version="1.0" encoding="utf-8"?>
<svg version="1.1" xmlns:xlink="http://www.w3.org/1999/xlink" width="270px" height="56px" xmlns="http://www.w3.org/2000/svg">
  <defs>
    <mask fill="white" id="clip39">
      <path d="M 0 2.23107569721115  L 0 53.7689243027888  C 0 55.0183266932271  3.21081081081081 56  7.2972972972973 56  L 262.702702702703 56  C 266.789189189189 56  270 55.0183266932271  270 53.7689243027888  L 270 2.23107569721115  C 270 0.98167330677291  266.789189189189 0  262.702702702703 0  L 7.2972972972973 0  C 3.21081081081081 0  0 0.98167330677291  0 2.23107569721115  Z " fill-rule="evenodd" />
    </mask>
  </defs>
  <g transform="matrix(1 0 0 1 -1686 -130 )">
    <path d="M 0 2.23107569721115  L 0 53.7689243027888  C 0 55.0183266932271  3.21081081081081 56  7.2972972972973 56  L 262.702702702703 56  C 266.789189189189 56  270 55.0183266932271  270 53.7689243027888  L 270 2.23107569721115  C 270 0.98167330677291  266.789189189189 0  262.702702702703 0  L 7.2972972972973 0  C 3.21081081081081 0  0 0.98167330677291  0 2.23107569721115  Z " fill-rule="nonzero" fill="#d9001b" stroke="none" fill-opacity="0.0352941176470588" transform="matrix(1 0 0 1 1686 130 )" />
    <path d="M 0 2.23107569721115  L 0 53.7689243027888  C 0 55.0183266932271  3.21081081081081 56  7.2972972972973 56  L 262.702702702703 56  C 266.789189189189 56  270 55.0183266932271  270 53.7689243027888  L 270 2.23107569721115  C 270 0.98167330677291  266.789189189189 0  262.702702702703 0  L 7.2972972972973 0  C 3.21081081081081 0  0 0.98167330677291  0 2.23107569721115  Z " stroke-width="2" stroke-dasharray="9,4" stroke="#d9001b" fill="none" transform="matrix(1 0 0 1 1686 130 )" mask="url(#clip39)" />
  </g>
</svg>