<?xml version="1.0" encoding="utf-8"?>
<svg version="1.1" xmlns:xlink="http://www.w3.org/1999/xlink" width="153px" height="31px" xmlns="http://www.w3.org/2000/svg">
  <defs>
    <mask fill="white" id="clip40">
      <path d="M 0 1.23505976095617  L 0 29.7649402390438  C 0 30.4565737051793  1.81945945945946 31  4.13513513513514 31  L 148.864864864865 31  C 151.180540540541 31  153 30.4565737051793  153 29.7649402390438  L 153 1.23505976095617  C 153 0.543426294820718  151.180540540541 0  148.864864864865 0  L 4.13513513513514 0  C 1.81945945945946 0  0 0.543426294820718  0 1.23505976095617  Z " fill-rule="evenodd" />
    </mask>
  </defs>
  <g transform="matrix(1 0 0 1 -1391 -237 )">
    <path d="M 0 1.23505976095617  L 0 29.7649402390438  C 0 30.4565737051793  1.81945945945946 31  4.13513513513514 31  L 148.864864864865 31  C 151.180540540541 31  153 30.4565737051793  153 29.7649402390438  L 153 1.23505976095617  C 153 0.543426294820718  151.180540540541 0  148.864864864865 0  L 4.13513513513514 0  C 1.81945945945946 0  0 0.543426294820718  0 1.23505976095617  Z " fill-rule="nonzero" fill="#d9001b" stroke="none" fill-opacity="0.0352941176470588" transform="matrix(1 0 0 1 1391 237 )" />
    <path d="M 0 1.23505976095617  L 0 29.7649402390438  C 0 30.4565737051793  1.81945945945946 31  4.13513513513514 31  L 148.864864864865 31  C 151.180540540541 31  153 30.4565737051793  153 29.7649402390438  L 153 1.23505976095617  C 153 0.543426294820718  151.180540540541 0  148.864864864865 0  L 4.13513513513514 0  C 1.81945945945946 0  0 0.543426294820718  0 1.23505976095617  Z " stroke-width="2" stroke-dasharray="9,4" stroke="#d9001b" fill="none" transform="matrix(1 0 0 1 1391 237 )" mask="url(#clip40)" />
  </g>
</svg>