<?xml version="1.0" encoding="utf-8"?>
<svg version="1.1" xmlns:xlink="http://www.w3.org/1999/xlink" width="370px" height="95px" xmlns="http://www.w3.org/2000/svg">
  <defs>
    <mask fill="white" id="clip42">
      <path d="M 0 3.78486055776894  L 0 91.2151394422311  C 0 93.3346613545817  4.4 95  10 95  L 193.164319248828 95  L 200.112676056339 95  L 360 95  C 365.6 95  370 93.3346613545817  370 91.2151394422311  L 370 3.78486055776894  C 370 1.66533864541835  365.6 0  360 0  L 10 0  C 4.4 0  0 1.66533864541835  0 3.78486055776894  Z " fill-rule="evenodd" />
    </mask>
  </defs>
  <g transform="matrix(1 0 0 1 -1613 -575 )">
    <path d="M 0 3.78486055776894  L 0 91.2151394422311  C 0 93.3346613545817  4.4 95  10 95  L 193.164319248828 95  L 200.112676056339 95  L 360 95  C 365.6 95  370 93.3346613545817  370 91.2151394422311  L 370 3.78486055776894  C 370 1.66533864541835  365.6 0  360 0  L 10 0  C 4.4 0  0 1.66533864541835  0 3.78486055776894  Z " fill-rule="nonzero" fill="#d9001b" stroke="none" fill-opacity="0.0352941176470588" transform="matrix(1 0 0 1 1613 575 )" />
    <path d="M 0 3.78486055776894  L 0 91.2151394422311  C 0 93.3346613545817  4.4 95  10 95  L 193.164319248828 95  L 200.112676056339 95  L 360 95  C 365.6 95  370 93.3346613545817  370 91.2151394422311  L 370 3.78486055776894  C 370 1.66533864541835  365.6 0  360 0  L 10 0  C 4.4 0  0 1.66533864541835  0 3.78486055776894  Z " stroke-width="2" stroke-dasharray="9,4" stroke="#d9001b" fill="none" transform="matrix(1 0 0 1 1613 575 )" mask="url(#clip42)" />
  </g>
</svg>