<?xml version="1.0" encoding="utf-8"?>
<svg version="1.1" xmlns:xlink="http://www.w3.org/1999/xlink" width="270px" height="50px" xmlns="http://www.w3.org/2000/svg">
  <defs>
    <mask fill="white" id="clip43">
      <path d="M 0 1.99203187250996  L 0 48.00796812749  C 0 49.1235059760956  3.21081081081081 50  7.2972972972973 50  L 262.702702702703 50  C 266.789189189189 50  270 49.1235059760956  270 48.00796812749  L 270 1.99203187250996  C 270 0.876494023904384  266.789189189189 0  262.702702702703 0  L 7.2972972972973 0  C 3.21081081081081 0  0 0.876494023904384  0 1.99203187250996  Z " fill-rule="evenodd" />
    </mask>
  </defs>
  <g transform="matrix(1 0 0 1 -2166 -217 )">
    <path d="M 0 1.99203187250996  L 0 48.00796812749  C 0 49.1235059760956  3.21081081081081 50  7.2972972972973 50  L 262.702702702703 50  C 266.789189189189 50  270 49.1235059760956  270 48.00796812749  L 270 1.99203187250996  C 270 0.876494023904384  266.789189189189 0  262.702702702703 0  L 7.2972972972973 0  C 3.21081081081081 0  0 0.876494023904384  0 1.99203187250996  Z " fill-rule="nonzero" fill="#d9001b" stroke="none" fill-opacity="0.0352941176470588" transform="matrix(1 0 0 1 2166 217 )" />
    <path d="M 0 1.99203187250996  L 0 48.00796812749  C 0 49.1235059760956  3.21081081081081 50  7.2972972972973 50  L 262.702702702703 50  C 266.789189189189 50  270 49.1235059760956  270 48.00796812749  L 270 1.99203187250996  C 270 0.876494023904384  266.789189189189 0  262.702702702703 0  L 7.2972972972973 0  C 3.21081081081081 0  0 0.876494023904384  0 1.99203187250996  Z " stroke-width="2" stroke-dasharray="9,4" stroke="#d9001b" fill="none" transform="matrix(1 0 0 1 2166 217 )" mask="url(#clip43)" />
  </g>
</svg>