<?xml version="1.0" encoding="utf-8"?>
<svg version="1.1" xmlns:xlink="http://www.w3.org/1999/xlink" width="30px" height="30px" xmlns="http://www.w3.org/2000/svg">
  <g transform="matrix(1 0 0 1 -554 -227 )">
    <path d="M 569 228  C 576.84 228  583 234.16  583 242  C 583 249.84  576.84 256  569 256  C 561.16 256  555 249.84  555 242  C 555 234.16  561.16 228  569 228  Z " fill-rule="nonzero" fill="#ffffff" stroke="none" />
    <path d="M 569 228  C 576.84 228  583 234.16  583 242  C 583 249.84  576.84 256  569 256  C 561.16 256  555 249.84  555 242  C 555 234.16  561.16 228  569 228  Z " stroke-width="2" stroke="#1abc9c" fill="none" />
  </g>
</svg>