<?xml version="1.0" encoding="utf-8"?>
<svg version="1.1" xmlns:xlink="http://www.w3.org/1999/xlink" width="30px" height="30px" xmlns="http://www.w3.org/2000/svg">
  <g transform="matrix(1 0 0 1 -756 -227 )">
    <path d="M 771 228  C 778.84 228  785 234.16  785 242  C 785 249.84  778.84 256  771 256  C 763.16 256  757 249.84  757 242  C 757 234.16  763.16 228  771 228  Z " fill-rule="nonzero" fill="#1abc9c" stroke="none" />
    <path d="M 771 228  C 778.84 228  785 234.16  785 242  C 785 249.84  778.84 256  771 256  C 763.16 256  757 249.84  757 242  C 757 234.16  763.16 228  771 228  Z " stroke-width="2" stroke="#1abc9c" fill="none" />
  </g>
</svg>