<?xml version="1.0" encoding="utf-8"?>
<svg version="1.1" xmlns:xlink="http://www.w3.org/1999/xlink" width="30px" height="30px" xmlns="http://www.w3.org/2000/svg">
  <g transform="matrix(1 0 0 1 -959 -226 )">
    <path d="M 974 227  C 981.84 227  988 233.16  988 241  C 988 248.84  981.84 255  974 255  C 966.16 255  960 248.84  960 241  C 960 233.16  966.16 227  974 227  Z " fill-rule="nonzero" fill="#ffffff" stroke="none" />
    <path d="M 974 227  C 981.84 227  988 233.16  988 241  C 988 248.84  981.84 255  974 255  C 966.16 255  960 248.84  960 241  C 960 233.16  966.16 227  974 227  Z " stroke-width="2" stroke="#e4e4e4" fill="none" />
  </g>
</svg>