<?xml version="1.0" encoding="utf-8"?>
<svg version="1.1" xmlns:xlink="http://www.w3.org/1999/xlink" width="212px" height="120px" xmlns="http://www.w3.org/2000/svg">
  <g transform="matrix(1 0 0 1 -180 -1055 )">
    <path d="M 180 1055  L 392 1055  L 392 1175  L 180 1175  L 180 1055  " fill-rule="nonzero" fill="#cccccc" stroke="none" />
    <path d="M 188 1063  L 384 1063  L 384 1167  L 188 1167  L 188 1063  " fill-rule="nonzero" fill="#ffffff" stroke="none" />
    <path d="M 299.24 1091  C 294.2 1091  290.24 1087.04  290.24 1082  C 290.24 1076.96  294.2 1073  299.24 1073  C 304.28 1073  308.24 1076.96  308.24 1082  C 308.24 1087.04  304.28 1091  299.24 1091  " fill-rule="nonzero" fill="#cccccc" stroke="none" />
    <path d="M 191 1164  L 191 1110.1  L 238.5 1085.6  L 305 1130.71698113208  L 343 1100.3  L 381 1130.71698113208  L 381 1164  L 191 1164  " fill-rule="nonzero" fill="#169bd5" stroke="none" />
  </g>
</svg>