<?xml version="1.0" encoding="utf-8"?>
<svg version="1.1" xmlns:xlink="http://www.w3.org/1999/xlink" width="55px" height="55px" xmlns="http://www.w3.org/2000/svg">
  <g transform="matrix(1 0 0 1 -1400 -715 )">
    <path d="M 1421.68913658603 734.502032654689  L 1427.5 716.61803398875  L 1433.31086341397 734.502032654689  L 1452.11521242953 734.502032654689  L 1436.90217450778 745.554951684997  L 1442.71303792175 763.438950350936  L 1427.5 752.386031320628  L 1412.28696207825 763.438950350936  L 1418.09782549222 745.554951684997  L 1402.88478757047 734.502032654689  L 1421.68913658603 734.502032654689  Z " fill-rule="nonzero" fill="#d9001b" stroke="none" />
    <path d="M 1421.32586532203 734.002032654689  L 1427.5 715  L 1433.67413467797 734.002032654689  L 1453.65405419812 734.002032654689  L 1437.48995976007 745.745934690622  L 1443.66409443804 764.747967345311  L 1427.5 753.004065309378  L 1411.33590556196 764.747967345311  L 1417.51004023993 745.745934690622  L 1401.34594580188 734.002032654689  L 1421.32586532203 734.002032654689  Z M 1427.5 718.2360679775  L 1422.05240785004 735.002032654689  L 1404.42362933906 735.002032654689  L 1418.68561074451 745.363968679372  L 1413.23801859455 762.129933356561  L 1427.5 751.767997331878  L 1441.76198140545 762.129933356561  L 1436.31438925549 745.363968679372  L 1450.57637066094 735.002032654689  L 1432.94759214996 735.002032654689  L 1427.5 718.2360679775  Z " fill-rule="nonzero" fill="#d9001b" stroke="none" />
  </g>
</svg>