<?xml version="1.0" encoding="utf-8"?>
<svg version="1.1" xmlns:xlink="http://www.w3.org/1999/xlink" width="10px" height="10px" xmlns="http://www.w3.org/2000/svg">
  <g transform="matrix(1 0 0 1 -315 -1581 )">
    <path d="M 320 1581  C 322.8 1581  325 1583.2  325 1586  C 325 1588.8  322.8 1591  320 1591  C 317.2 1591  315 1588.8  315 1586  C 315 1583.2  317.2 1581  320 1581  Z " fill-rule="nonzero" fill="#555555" stroke="none" />
    <path d="M 320 1581.5  C 322.52 1581.5  324.5 1583.48  324.5 1586  C 324.5 1588.52  322.52 1590.5  320 1590.5  C 317.48 1590.5  315.5 1588.52  315.5 1586  C 315.5 1583.48  317.48 1581.5  320 1581.5  Z " stroke-width="1" stroke="#d7d7d7" fill="none" />
  </g>
</svg>