<?xml version="1.0" encoding="utf-8"?>
<svg version="1.1" xmlns:xlink="http://www.w3.org/1999/xlink" width="10px" height="10px" xmlns="http://www.w3.org/2000/svg">
  <g transform="matrix(1 0 0 1 -372 -1591 )">
    <path d="M 377 1591  C 379.8 1591  382 1593.2  382 1596  C 382 1598.8  379.8 1601  377 1601  C 374.2 1601  372 1598.8  372 1596  C 372 1593.2  374.2 1591  377 1591  Z " fill-rule="nonzero" fill="#d7d7d7" stroke="none" />
    <path d="M 377 1591.5  C 379.52 1591.5  381.5 1593.48  381.5 1596  C 381.5 1598.52  379.52 1600.5  377 1600.5  C 374.48 1600.5  372.5 1598.52  372.5 1596  C 372.5 1593.48  374.48 1591.5  377 1591.5  Z " stroke-width="1" stroke="#d7d7d7" fill="none" />
  </g>
</svg>