<?xml version="1.0" encoding="utf-8"?>
<svg version="1.1" xmlns:xlink="http://www.w3.org/1999/xlink" width="10px" height="10px" xmlns="http://www.w3.org/2000/svg">
  <g transform="matrix(1 0 0 1 -665 -1526 )">
    <path d="M 670 1526  C 672.8 1526  675 1528.2  675 1531  C 675 1533.8  672.8 1536  670 1536  C 667.2 1536  665 1533.8  665 1531  C 665 1528.2  667.2 1526  670 1526  Z " fill-rule="nonzero" fill="#d9001b" stroke="none" />
    <path d="M 670 1526.5  C 672.52 1526.5  674.5 1528.48  674.5 1531  C 674.5 1533.52  672.52 1535.5  670 1535.5  C 667.48 1535.5  665.5 1533.52  665.5 1531  C 665.5 1528.48  667.48 1526.5  670 1526.5  Z " stroke-width="1" stroke="#d7d7d7" fill="none" />
  </g>
</svg>