<?xml version="1.0" encoding="utf-8"?>
<svg version="1.1" xmlns:xlink="http://www.w3.org/1999/xlink" width="14px" height="14px" viewBox="635 510  14 14" xmlns="http://www.w3.org/2000/svg">
  <path d="M 642 510  C 645.92 510  649 513.08  649 517  C 649 520.92  645.92 524  642 524  C 638.08 524  635 520.92  635 517  C 635 513.08  638.08 510  642 510  Z " fill-rule="nonzero" fill="#ffffff" stroke="none" />
  <path d="M 642 510.5  C 645.64 510.5  648.5 513.36  648.5 517  C 648.5 520.64  645.64 523.5  642 523.5  C 638.36 523.5  635.5 520.64  635.5 517  C 635.5 513.36  638.36 510.5  642 510.5  Z " stroke-width="1" stroke="#797979" fill="none" />
  <path d="M 642 520.5  C 640.04 520.5  638.5 518.96  638.5 517  C 638.5 515.04  640.04 513.5  642 513.5  C 643.96 513.5  645.5 515.04  645.5 517  C 645.5 518.96  643.96 520.5  642 520.5  " fill-rule="nonzero" fill="#797979" stroke="none" />
</svg>