<?xml version="1.0" encoding="utf-8"?>
<svg version="1.1" xmlns:xlink="http://www.w3.org/1999/xlink" width="14px" height="14px" viewBox="885 450  14 14" xmlns="http://www.w3.org/2000/svg">
  <path d="M 892 450  C 895.92 450  899 453.08  899 457  C 899 460.92  895.92 464  892 464  C 888.08 464  885 460.92  885 457  C 885 453.08  888.08 450  892 450  Z " fill-rule="nonzero" fill="#f0f0f0" stroke="none" />
  <path d="M 892 450.5  C 895.64 450.5  898.5 453.36  898.5 457  C 898.5 460.64  895.64 463.5  892 463.5  C 888.36 463.5  885.5 460.64  885.5 457  C 885.5 453.36  888.36 450.5  892 450.5  Z " stroke-width="1" stroke="#797979" fill="none" />
  <path d="M 892 460.5  C 890.04 460.5  888.5 458.96  888.5 457  C 888.5 455.04  890.04 453.5  892 453.5  C 893.96 453.5  895.5 455.04  895.5 457  C 895.5 458.96  893.96 460.5  892 460.5  " fill-rule="nonzero" fill="#797979" stroke="none" />
</svg>