<?xml version="1.0" encoding="utf-8"?>
<svg version="1.1" xmlns:xlink="http://www.w3.org/1999/xlink" width="14px" height="14px" viewBox="885 510  14 14" xmlns="http://www.w3.org/2000/svg">
  <path d="M 892 510  C 895.92 510  899 513.08  899 517  C 899 520.92  895.92 524  892 524  C 888.08 524  885 520.92  885 517  C 885 513.08  888.08 510  892 510  Z " fill-rule="nonzero" fill="#f0f0f0" stroke="none" />
  <path d="M 892 510.5  C 895.64 510.5  898.5 513.36  898.5 517  C 898.5 520.64  895.64 523.5  892 523.5  C 888.36 523.5  885.5 520.64  885.5 517  C 885.5 513.36  888.36 510.5  892 510.5  Z " stroke-width="1" stroke="#797979" fill="none" />
  <path d="M 892 520.5  C 890.04 520.5  888.5 518.96  888.5 517  C 888.5 515.04  890.04 513.5  892 513.5  C 893.96 513.5  895.5 515.04  895.5 517  C 895.5 518.96  893.96 520.5  892 520.5  " fill-rule="nonzero" fill="#797979" stroke="none" />
</svg>