<?xml version="1.0" encoding="utf-8"?>
<svg version="1.1" xmlns:xlink="http://www.w3.org/1999/xlink" width="14px" height="14px" viewBox="885 840  14 14" xmlns="http://www.w3.org/2000/svg">
  <path d="M 892 840  C 895.92 840  899 843.08  899 847  C 899 850.92  895.92 854  892 854  C 888.08 854  885 850.92  885 847  C 885 843.08  888.08 840  892 840  Z " fill-rule="nonzero" fill="#f0f0f0" stroke="none" />
  <path d="M 892 840.5  C 895.64 840.5  898.5 843.36  898.5 847  C 898.5 850.64  895.64 853.5  892 853.5  C 888.36 853.5  885.5 850.64  885.5 847  C 885.5 843.36  888.36 840.5  892 840.5  Z " stroke-width="1" stroke="#797979" fill="none" />
  <path d="M 892 850.5  C 890.04 850.5  888.5 848.96  888.5 847  C 888.5 845.04  890.04 843.5  892 843.5  C 893.96 843.5  895.5 845.04  895.5 847  C 895.5 848.96  893.96 850.5  892 850.5  " fill-rule="nonzero" fill="#797979" stroke="none" />
</svg>