<?xml version="1.0" encoding="utf-8"?>
<svg version="1.1" xmlns:xlink="http://www.w3.org/1999/xlink" width="14px" height="14px" viewBox="885 885  14 14" xmlns="http://www.w3.org/2000/svg">
  <path d="M 892 885  C 895.92 885  899 888.08  899 892  C 899 895.92  895.92 899  892 899  C 888.08 899  885 895.92  885 892  C 885 888.08  888.08 885  892 885  Z " fill-rule="nonzero" fill="#ffffff" stroke="none" />
  <path d="M 892 885.5  C 895.64 885.5  898.5 888.36  898.5 892  C 898.5 895.64  895.64 898.5  892 898.5  C 888.36 898.5  885.5 895.64  885.5 892  C 885.5 888.36  888.36 885.5  892 885.5  Z " stroke-width="1" stroke="#797979" fill="none" />
  <path d="M 892 895.5  C 890.04 895.5  888.5 893.96  888.5 892  C 888.5 890.04  890.04 888.5  892 888.5  C 893.96 888.5  895.5 890.04  895.5 892  C 895.5 893.96  893.96 895.5  892 895.5  " fill-rule="nonzero" fill="#797979" stroke="none" />
</svg>