<?xml version="1.0" encoding="utf-8"?>
<svg version="1.1" xmlns:xlink="http://www.w3.org/1999/xlink" width="14px" height="14px" viewBox="635 715  14 14" xmlns="http://www.w3.org/2000/svg">
  <path d="M 642 715  C 645.92 715  649 718.08  649 722  C 649 725.92  645.92 729  642 729  C 638.08 729  635 725.92  635 722  C 635 718.08  638.08 715  642 715  Z " fill-rule="nonzero" fill="#ffffff" stroke="none" />
  <path d="M 642 715.5  C 645.64 715.5  648.5 718.36  648.5 722  C 648.5 725.64  645.64 728.5  642 728.5  C 638.36 728.5  635.5 725.64  635.5 722  C 635.5 718.36  638.36 715.5  642 715.5  Z " stroke-width="1" stroke="#797979" fill="none" />
  <path d="M 642 725.5  C 640.04 725.5  638.5 723.96  638.5 722  C 638.5 720.04  640.04 718.5  642 718.5  C 643.96 718.5  645.5 720.04  645.5 722  C 645.5 723.96  643.96 725.5  642 725.5  " fill-rule="nonzero" fill="#797979" stroke="none" />
</svg>