<?xml version="1.0" encoding="utf-8"?>
<svg version="1.1" xmlns:xlink="http://www.w3.org/1999/xlink" width="14px" height="14px" viewBox="885 715  14 14" xmlns="http://www.w3.org/2000/svg">
  <path d="M 892 715  C 895.92 715  899 718.08  899 722  C 899 725.92  895.92 729  892 729  C 888.08 729  885 725.92  885 722  C 885 718.08  888.08 715  892 715  Z " fill-rule="nonzero" fill="#f0f0f0" stroke="none" />
  <path d="M 892 715.5  C 895.64 715.5  898.5 718.36  898.5 722  C 898.5 725.64  895.64 728.5  892 728.5  C 888.36 728.5  885.5 725.64  885.5 722  C 885.5 718.36  888.36 715.5  892 715.5  Z " stroke-width="1" stroke="#797979" fill="none" />
  <path d="M 892 725.5  C 890.04 725.5  888.5 723.96  888.5 722  C 888.5 720.04  890.04 718.5  892 718.5  C 893.96 718.5  895.5 720.04  895.5 722  C 895.5 723.96  893.96 725.5  892 725.5  " fill-rule="nonzero" fill="#797979" stroke="none" />
</svg>