<?xml version="1.0" encoding="utf-8"?>
<svg version="1.1" xmlns:xlink="http://www.w3.org/1999/xlink" width="14px" height="14px" viewBox="885 610  14 14" xmlns="http://www.w3.org/2000/svg">
  <path d="M 892 610  C 895.92 610  899 613.08  899 617  C 899 620.92  895.92 624  892 624  C 888.08 624  885 620.92  885 617  C 885 613.08  888.08 610  892 610  Z " fill-rule="nonzero" fill="#f0f0f0" stroke="none" />
  <path d="M 892 610.5  C 895.64 610.5  898.5 613.36  898.5 617  C 898.5 620.64  895.64 623.5  892 623.5  C 888.36 623.5  885.5 620.64  885.5 617  C 885.5 613.36  888.36 610.5  892 610.5  Z " stroke-width="1" stroke="#797979" fill="none" />
  <path d="M 892 620.5  C 890.04 620.5  888.5 618.96  888.5 617  C 888.5 615.04  890.04 613.5  892 613.5  C 893.96 613.5  895.5 615.04  895.5 617  C 895.5 618.96  893.96 620.5  892 620.5  " fill-rule="nonzero" fill="#797979" stroke="none" />
</svg>