<?xml version="1.0" encoding="utf-8"?>
<svg version="1.1" xmlns:xlink="http://www.w3.org/1999/xlink" width="14px" height="14px" viewBox="635 840  14 14" xmlns="http://www.w3.org/2000/svg">
  <path d="M 642 840  C 645.92 840  649 843.08  649 847  C 649 850.92  645.92 854  642 854  C 638.08 854  635 850.92  635 847  C 635 843.08  638.08 840  642 840  Z " fill-rule="nonzero" fill="#ffffff" stroke="none" />
  <path d="M 642 840.5  C 645.64 840.5  648.5 843.36  648.5 847  C 648.5 850.64  645.64 853.5  642 853.5  C 638.36 853.5  635.5 850.64  635.5 847  C 635.5 843.36  638.36 840.5  642 840.5  Z " stroke-width="1" stroke="#797979" fill="none" />
  <path d="M 642 850.5  C 640.04 850.5  638.5 848.96  638.5 847  C 638.5 845.04  640.04 843.5  642 843.5  C 643.96 843.5  645.5 845.04  645.5 847  C 645.5 848.96  643.96 850.5  642 850.5  " fill-rule="nonzero" fill="#797979" stroke="none" />
</svg>