<?xml version="1.0" encoding="utf-8"?>
<svg version="1.1" xmlns:xlink="http://www.w3.org/1999/xlink" width="14px" height="14px" viewBox="885 1045  14 14" xmlns="http://www.w3.org/2000/svg">
  <path d="M 892 1045  C 895.92 1045  899 1048.08  899 1052  C 899 1055.92  895.92 1059  892 1059  C 888.08 1059  885 1055.92  885 1052  C 885 1048.08  888.08 1045  892 1045  Z " fill-rule="nonzero" fill="#ffffff" stroke="none" />
  <path d="M 892 1045.5  C 895.64 1045.5  898.5 1048.36  898.5 1052  C 898.5 1055.64  895.64 1058.5  892 1058.5  C 888.36 1058.5  885.5 1055.64  885.5 1052  C 885.5 1048.36  888.36 1045.5  892 1045.5  Z " stroke-width="1" stroke="#797979" fill="none" />
  <path d="M 892 1055.5  C 890.04 1055.5  888.5 1053.96  888.5 1052  C 888.5 1050.04  890.04 1048.5  892 1048.5  C 893.96 1048.5  895.5 1050.04  895.5 1052  C 895.5 1053.96  893.96 1055.5  892 1055.5  " fill-rule="nonzero" fill="#797979" stroke="none" />
</svg>