<?xml version="1.0" encoding="utf-8"?>
<svg version="1.1" xmlns:xlink="http://www.w3.org/1999/xlink" width="14px" height="14px" viewBox="635 885  14 14" xmlns="http://www.w3.org/2000/svg">
  <path d="M 642 885  C 645.92 885  649 888.08  649 892  C 649 895.92  645.92 899  642 899  C 638.08 899  635 895.92  635 892  C 635 888.08  638.08 885  642 885  Z " fill-rule="nonzero" fill="#ffffff" stroke="none" />
  <path d="M 642 885.5  C 645.64 885.5  648.5 888.36  648.5 892  C 648.5 895.64  645.64 898.5  642 898.5  C 638.36 898.5  635.5 895.64  635.5 892  C 635.5 888.36  638.36 885.5  642 885.5  Z " stroke-width="1" stroke="#797979" fill="none" />
  <path d="M 642 895.5  C 640.04 895.5  638.5 893.96  638.5 892  C 638.5 890.04  640.04 888.5  642 888.5  C 643.96 888.5  645.5 890.04  645.5 892  C 645.5 893.96  643.96 895.5  642 895.5  " fill-rule="nonzero" fill="#797979" stroke="none" />
</svg>