<?xml version="1.0" encoding="utf-8"?>
<svg version="1.1" xmlns:xlink="http://www.w3.org/1999/xlink" width="14px" height="14px" viewBox="885 945  14 14" xmlns="http://www.w3.org/2000/svg">
  <path d="M 892 945  C 895.92 945  899 948.08  899 952  C 899 955.92  895.92 959  892 959  C 888.08 959  885 955.92  885 952  C 885 948.08  888.08 945  892 945  Z " fill-rule="nonzero" fill="#ffffff" stroke="none" />
  <path d="M 892 945.5  C 895.64 945.5  898.5 948.36  898.5 952  C 898.5 955.64  895.64 958.5  892 958.5  C 888.36 958.5  885.5 955.64  885.5 952  C 885.5 948.36  888.36 945.5  892 945.5  Z " stroke-width="1" stroke="#797979" fill="none" />
  <path d="M 892 955.5  C 890.04 955.5  888.5 953.96  888.5 952  C 888.5 950.04  890.04 948.5  892 948.5  C 893.96 948.5  895.5 950.04  895.5 952  C 895.5 953.96  893.96 955.5  892 955.5  " fill-rule="nonzero" fill="#797979" stroke="none" />
</svg>