<?xml version="1.0" encoding="utf-8"?>
<svg version="1.1" xmlns:xlink="http://www.w3.org/1999/xlink" width="14px" height="14px" viewBox="635 610  14 14" xmlns="http://www.w3.org/2000/svg">
  <path d="M 642 610  C 645.92 610  649 613.08  649 617  C 649 620.92  645.92 624  642 624  C 638.08 624  635 620.92  635 617  C 635 613.08  638.08 610  642 610  Z " fill-rule="nonzero" fill="#f0f0f0" stroke="none" />
  <path d="M 642 610.5  C 645.64 610.5  648.5 613.36  648.5 617  C 648.5 620.64  645.64 623.5  642 623.5  C 638.36 623.5  635.5 620.64  635.5 617  C 635.5 613.36  638.36 610.5  642 610.5  Z " stroke-width="1" stroke="#797979" fill="none" />
  <path d="M 642 620.5  C 640.04 620.5  638.5 618.96  638.5 617  C 638.5 615.04  640.04 613.5  642 613.5  C 643.96 613.5  645.5 615.04  645.5 617  C 645.5 618.96  643.96 620.5  642 620.5  " fill-rule="nonzero" fill="#797979" stroke="none" />
</svg>