<?xml version="1.0" encoding="utf-8"?>
<svg version="1.1" xmlns:xlink="http://www.w3.org/1999/xlink" width="14px" height="14px" viewBox="885 1090  14 14" xmlns="http://www.w3.org/2000/svg">
  <path d="M 892 1090  C 895.92 1090  899 1093.08  899 1097  C 899 1100.92  895.92 1104  892 1104  C 888.08 1104  885 1100.92  885 1097  C 885 1093.08  888.08 1090  892 1090  Z " fill-rule="nonzero" fill="#ffffff" stroke="none" />
  <path d="M 892 1090.5  C 895.64 1090.5  898.5 1093.36  898.5 1097  C 898.5 1100.64  895.64 1103.5  892 1103.5  C 888.36 1103.5  885.5 1100.64  885.5 1097  C 885.5 1093.36  888.36 1090.5  892 1090.5  Z " stroke-width="1" stroke="#797979" fill="none" />
  <path d="M 892 1100.5  C 890.04 1100.5  888.5 1098.96  888.5 1097  C 888.5 1095.04  890.04 1093.5  892 1093.5  C 893.96 1093.5  895.5 1095.04  895.5 1097  C 895.5 1098.96  893.96 1100.5  892 1100.5  " fill-rule="nonzero" fill="#797979" stroke="none" />
</svg>