<?xml version="1.0" encoding="utf-8"?>
<svg version="1.1" xmlns:xlink="http://www.w3.org/1999/xlink" width="14px" height="14px" viewBox="635 1090  14 14" xmlns="http://www.w3.org/2000/svg">
  <path d="M 642 1090  C 645.92 1090  649 1093.08  649 1097  C 649 1100.92  645.92 1104  642 1104  C 638.08 1104  635 1100.92  635 1097  C 635 1093.08  638.08 1090  642 1090  Z " fill-rule="nonzero" fill="#ffffff" stroke="none" />
  <path d="M 642 1090.5  C 645.64 1090.5  648.5 1093.36  648.5 1097  C 648.5 1100.64  645.64 1103.5  642 1103.5  C 638.36 1103.5  635.5 1100.64  635.5 1097  C 635.5 1093.36  638.36 1090.5  642 1090.5  Z " stroke-width="1" stroke="#797979" fill="none" />
  <path d="M 642 1100.5  C 640.04 1100.5  638.5 1098.96  638.5 1097  C 638.5 1095.04  640.04 1093.5  642 1093.5  C 643.96 1093.5  645.5 1095.04  645.5 1097  C 645.5 1098.96  643.96 1100.5  642 1100.5  " fill-rule="nonzero" fill="#797979" stroke="none" />
</svg>