<?xml version="1.0" encoding="utf-8"?>
<svg version="1.1" xmlns:xlink="http://www.w3.org/1999/xlink" width="65px" height="51px" xmlns="http://www.w3.org/2000/svg">
  <g transform="matrix(1 0 0 1 -1337 -793 )">
    <path d="M 35.9095982142857 6.5152590489709  C 32.6934523809524 5.26046841731724  29.2354910714286 4.63307310149042  25.5357142857143 4.63307310149042  C 21.8359375 4.63307310149042  18.3779761904762 5.26046841731724  15.1618303571429 6.5152590489709  C 11.9456845238095 7.77004968062455  9.38848586309524 9.47125621007806  7.490234375 11.6188786373314  C 5.59198288690476 13.7665010645848  4.64285714285714 16.0709723207949  4.64285714285714 18.5322924059617  C 4.64285714285714 20.5110007097232  5.28366815476191 22.4173172462739  6.56529017857143 24.2512420156139  C 7.84691220238095 26.0851667849539  9.6484375 27.6777856635912  11.9698660714286 29.0290986515259  L 15.48828125 31.056068133428  L 14.21875 34.096522356281  C 15.0409226190476 33.6139105748758  15.7905505952381 33.1433640880057  16.4676339285714 32.6848828956707  L 18.0636160714286 31.5628105039035  L 19.9860491071429 31.9247693399574  C 21.8722098214286 32.2625975869411  23.7220982142857 32.4315117104329  25.5357142857143 32.4315117104329  C 29.2354910714286 32.4315117104329  32.6934523809524 31.8041163946061  35.9095982142857 30.5493257629524  C 39.1257440476191 29.2945351312988  41.6829427083333 27.5933286018453  43.5811941964286 25.4457061745919  C 45.4794456845238 23.2980837473385  46.4285714285714 20.9936124911285  46.4285714285714 18.5322924059617  C 46.4285714285714 16.0709723207949  45.4794456845238 13.7665010645848  43.5811941964286 11.6188786373314  C 41.6829427083333 9.47125621007806  39.1257440476191 7.77004968062455  35.9095982142857 6.5152590489709  Z M 12.7134486607143 2.47941802696948  C 16.6429501488095 0.826472675656493  20.9170386904762 0  25.5357142857143 0  C 30.1543898809524 0  34.4284784226191 0.826472675656493  38.3579799107143 2.47941802696948  C 42.2874813988095 4.13236337828246  45.3887648809524 6.38254080908445  47.6618303571429 9.22995031937544  C 49.9348958333333 12.0773598296664  51.0714285714286 15.1781405251952  51.0714285714286 18.5322924059617  C 51.0714285714286 21.8864442867282  49.9348958333333 24.9872249822569  47.6618303571429 27.8346344925479  C 45.3887648809524 30.6820440028389  42.2874813988095 32.9322214336409  38.3579799107143 34.5851667849539  C 34.4284784226191 36.2381121362668  30.1543898809524 37.0645848119234  25.5357142857143 37.0645848119234  C 23.4561011904762 37.0645848119234  21.328125 36.8715400993612  19.1517857142857 36.4854506742371  C 16.1532738095238 38.6089425124202  12.7920386904762 40.153300212917  9.06808035714286 41.1185237757275  C 8.19754464285714 41.3356990773598  7.1577380952381 41.5287437899219  5.94866071428571 41.6976579134138  L 5.83984375 41.6976579134138  C 5.57384672619048 41.6976579134138  5.32598586309524 41.6011355571327  5.09626116071429 41.4080908445706  C 4.86653645833333 41.2150461320085  4.72749255952381 40.9616749467708  4.67912946428571 40.6479772888573  C 4.65494791666667 40.5755855216466  4.64285714285714 40.4971611071682  4.64285714285714 40.4127040454223  C 4.64285714285714 40.3282469836764  4.64890252976191 40.249822569198  4.66099330357143 40.1774308019872  C 4.67308407738095 40.1050390347764  4.697265625 40.0326472675657  4.73353794642857 39.9602555003549  L 4.82421875 39.7792760823279  C 4.82421875 39.7792760823279  4.86653645833333 39.7129169623847  4.951171875 39.5801987224982  C 5.03580729166667 39.4474804826118  5.08417038690476 39.3871540099361  5.09626116071429 39.3992193044713  C 5.10835193452381 39.4112845990064  5.16276041666667 39.3509581263307  5.25948660714286 39.2182398864443  C 5.35621279761905 39.0855216465578  5.40457589285714 39.0312278211497  5.40457589285714 39.05535841022  C 5.52548363095238 38.9105748757984  5.80357142857143 38.6089425124201  6.23883928571429 38.1504613200852  C 6.67410714285714 37.6919801277502  6.98846726190476 37.3360539389638  7.18191964285714 37.082682753726  C 7.37537202380952 36.8293115684883  7.64741443452381 36.4794180269695  7.998046875 36.0330021291696  C 8.34867931547619 35.5865862313698  8.65094866071428 35.1220723917672  8.90485491071428 34.639460610362  C 9.15876116071428 34.1568488289567  9.40662202380953 33.6259758694109  9.6484375 33.0468417317246  C 6.64992559523809 31.3094393186657  4.29222470238095 29.1738821859475  2.57533482142857 26.6401703335699  C 0.85844494047619 24.1064584811923  0 21.4038325053229  0 18.5322924059617  C 0 15.1781405251952  1.13653273809524 12.0773598296664  3.40959821428571 9.22995031937544  C 5.68266369047619 6.38254080908445  8.78394717261905 4.13236337828246  12.7134486607143 2.47941802696948  Z M 62.4246651785714 35.9244144783534  C 60.7077752976191 38.4460610361959  58.3500744047619 40.5755855216466  55.3515625 42.3129879347055  C 55.5933779761905 42.8921220723918  55.8412388392857 43.4229950319375  56.0951450892857 43.9056068133428  C 56.3490513392857 44.388218594748  56.6513206845238 44.8527324343506  57.001953125 45.2991483321505  C 57.3525855654762 45.7455642299503  57.6246279761905 46.0954577714691  57.8180803571429 46.3488289567069  C 58.0115327380952 46.6022001419446  58.3258928571429 46.958126330731  58.7611607142857 47.416607523066  C 59.1964285714286 47.875088715401  59.4745163690476 48.1767210787793  59.5954241071429 48.3215046132009  C 59.6196056547619 48.3456352022711  59.66796875 48.3999290276792  59.7405133928571 48.4843860894251  C 59.8130580357143 48.568843151171  59.8674665178571 48.6291696238467  59.9037388392857 48.6653655074521  C 59.9400111607143 48.7015613910575  59.9883742559524 48.7618878637331  60.048828125 48.8463449254791  C 60.1092819940476 48.930801987225  60.151599702381 48.9971611071682  60.17578125 49.0454222853087  L 60.2664620535714 49.2264017033357  C 60.2664620535714 49.2264017033357  60.2906436011905 49.2987934705465  60.3390066964286 49.4435770049681  C 60.3873697916667 49.5883605393896  60.3934151785714 49.666784953868  60.3571428571429 49.6788502484031  C 60.3208705357143 49.6909155429382  60.3087797619048 49.7693399574166  60.3208705357143 49.9141234918382  C 60.2483258928571 50.2519517388219  60.0911458333333 50.5173882185948  59.8493303571429 50.7104329311568  C 59.6075148809524 50.903477643719  59.3415178571429 50.9879347054649  59.0513392857143 50.9638041163946  C 57.8422619047619 50.7948899929028  56.8024553571429 50.6018452803407  55.9319196428571 50.3846699787083  C 52.2079613095238 49.4194464158978  48.8467261904762 47.875088715401  45.8482142857143 45.7515968772179  C 43.671875 46.1376863023421  41.5438988095238 46.3307310149042  39.4642857142857 46.3307310149042  C 32.9110863095238 46.3307310149042  27.2042410714286 44.7381121362669  22.34375 41.5528743789922  C 23.7462797619048 41.6493967352732  24.8102678571429 41.6976579134138  25.5357142857143 41.6976579134138  C 29.428943452381 41.6976579134138  33.1649925595238 41.1547196593329  36.7438616071429 40.068843151171  C 40.3227306547619 38.9829666430092  43.5146949404762 37.4265436479773  46.3197544642857 35.3995741660752  C 49.3424479166667 33.1795599716111  51.6638764880952 30.6217175301632  53.2840401785714 27.7260468417317  C 54.9042038690476 24.8303761533002  55.7142857142857 21.7657913413769  55.7142857142857 18.5322924059617  C 55.7142857142857 16.6742370475515  55.4361979166667 14.8403122782115  54.8800223214286 13.0305180979418  C 57.9994419642857 14.7437899219304  60.4659598214286 16.8914123491838  62.2795758928571 19.4733853797019  C 64.0931919642857 22.05535841022  65 24.8303761533002  65 27.7984386089425  C 65 30.694109297374  64.1415550595238 33.402767920511  62.4246651785714 35.9244144783534  Z " fill-rule="nonzero" fill="#333333" stroke="none" transform="matrix(1 0 0 1 1337 793 )" />
  </g>
</svg>