<?xml version="1.0" encoding="utf-8"?>
<svg version="1.1" xmlns:xlink="http://www.w3.org/1999/xlink" width="258px" height="72px" xmlns="http://www.w3.org/2000/svg">
  <defs>
    <mask fill="white" id="clip32">
      <path d="M 0 2.86852589641421  L 0 69.1314741035858  C 0 70.7378486055777  3.06810810810824 72  6.97297297297313 72  L 73.4028169014111 72  L 251.027027027027 72  C 254.931891891892 72  258 70.7378486055777  258 69.1314741035858  L 258 2.86852589641421  C 258 1.26215139442235  254.931891891892 0  251.027027027027 0  L 6.97297297297313 0  C 3.06810810810824 0  0 1.26215139442235  0 2.86852589641421  Z " fill-rule="evenodd" />
    </mask>
  </defs>
  <g transform="matrix(1 0 0 1 -1437 -794 )">
    <path d="M 0 2.86852589641421  L 0 69.1314741035858  C 0 70.7378486055777  3.06810810810824 72  6.97297297297313 72  L 73.4028169014111 72  L 251.027027027027 72  C 254.931891891892 72  258 70.7378486055777  258 69.1314741035858  L 258 2.86852589641421  C 258 1.26215139442235  254.931891891892 0  251.027027027027 0  L 6.97297297297313 0  C 3.06810810810824 0  0 1.26215139442235  0 2.86852589641421  Z " fill-rule="nonzero" fill="#d9001b" stroke="none" fill-opacity="0.0352941176470588" transform="matrix(1 0 0 1 1437 794 )" />
    <path d="M 0 2.86852589641421  L 0 69.1314741035858  C 0 70.7378486055777  3.06810810810824 72  6.97297297297313 72  L 73.4028169014111 72  L 251.027027027027 72  C 254.931891891892 72  258 70.7378486055777  258 69.1314741035858  L 258 2.86852589641421  C 258 1.26215139442235  254.931891891892 0  251.027027027027 0  L 6.97297297297313 0  C 3.06810810810824 0  0 1.26215139442235  0 2.86852589641421  Z " stroke-width="2" stroke-dasharray="9,4" stroke="#d9001b" fill="none" transform="matrix(1 0 0 1 1437 794 )" mask="url(#clip32)" />
  </g>
</svg>