<?xml version="1.0" encoding="utf-8"?>
<svg version="1.1" xmlns:xlink="http://www.w3.org/1999/xlink" width="102px" height="102px" xmlns="http://www.w3.org/2000/svg">
  <g transform="matrix(1 0 0 1 -193 -435 )">
    <path d="M 193 435  L 295 435  L 295 537  L 193 537  L 193 435  " fill-rule="nonzero" fill="#cccccc" stroke="none" />
    <path d="M 200 442  L 288 442  L 288 530  L 200 530  L 200 442  " fill-rule="nonzero" fill="#ffffff" stroke="none" />
    <path d="M 253.69 465.6  C 249.406 465.6  246.04 462.234  246.04 457.95  C 246.04 453.666  249.406 450.3  253.69 450.3  C 257.974 450.3  261.34 453.666  261.34 457.95  C 261.34 462.234  257.974 465.6  253.69 465.6  " fill-rule="nonzero" fill="#cccccc" stroke="none" />
    <path d="M 203 528  L 203 482.35  L 223.75 461.6  L 252.8 478.2  L 269.4 474.05  L 286 478.2  L 286 528  L 203 528  " fill-rule="nonzero" fill="#169bd5" stroke="none" />
  </g>
</svg>