<?xml version="1.0" encoding="utf-8"?>
<svg version="1.1" xmlns:xlink="http://www.w3.org/1999/xlink" width="455px" height="63px" xmlns="http://www.w3.org/2000/svg">
  <g transform="matrix(1 0 0 1 -1405 -1023 )">
    <path d="M 1406 1027  A 3 3 0 0 1 1409 1024 L 1856 1024  A 3 3 0 0 1 1859 1027 L 1859 1082  A 3 3 0 0 1 1856 1085 L 1409 1085  A 3 3 0 0 1 1406 1082 L 1406 1027  Z " fill-rule="nonzero" fill="#ff3399" stroke="none" fill-opacity="0.0980392156862745" />
    <path d="M 1405.5 1027  A 3.5 3.5 0 0 1 1409 1023.5 L 1856 1023.5  A 3.5 3.5 0 0 1 1859.5 1027 L 1859.5 1082  A 3.5 3.5 0 0 1 1856 1085.5 L 1409 1085.5  A 3.5 3.5 0 0 1 1405.5 1082 L 1405.5 1027  Z " stroke-width="1" stroke-dasharray="9,4" stroke="#ff3399" fill="none" stroke-dashoffset="0.5" />
  </g>
</svg>