<?xml version="1.0" encoding="utf-8"?>
<svg version="1.1" xmlns:xlink="http://www.w3.org/1999/xlink" width="281px" height="172px" xmlns="http://www.w3.org/2000/svg">
  <g transform="matrix(1 0 0 1 -284 -348 )">
    <path d="M 284 348  L 565 348  L 565 520  L 284 520  L 284 348  " fill-rule="nonzero" fill="#cccccc" stroke="none" />
    <path d="M 296 360  L 553 360  L 553 508  L 296 508  L 296 360  " fill-rule="nonzero" fill="#ffffff" stroke="none" />
    <path d="M 443.02 399.6  C 435.796 399.6  430.12 393.924  430.12 386.7  C 430.12 379.476  435.796 373.8  443.02 373.8  C 450.244 373.8  455.92 379.476  455.92 386.7  C 455.92 393.924  450.244 399.6  443.02 399.6  " fill-rule="nonzero" fill="#cccccc" stroke="none" />
    <path d="M 301 504  L 301 427.55  L 363 392.8  L 449.8 452.950889679715  L 499.4 413.65  L 549 452.950889679715  L 549 504  L 301 504  " fill-rule="nonzero" fill="#169bd5" stroke="none" />
  </g>
</svg>