<?xml version="1.0" encoding="utf-8"?>
<svg version="1.1" xmlns:xlink="http://www.w3.org/1999/xlink" width="38px" height="50px" xmlns="http://www.w3.org/2000/svg">
  <g transform="matrix(1 0 0 1 -726 -409 )">
    <path d="M 36.7465277777778 22.802734375  C 37.5821759259259 23.4212239583333  38 24.1536458333333  38 25  C 38 25.8463541666667  37.5821759259259 26.5787760416667  36.7465277777778 27.197265625  L 7.19097222222222 49.072265625  C 6.35532407407407 49.6907552083333  5.36574074074074 50  4.22222222222222 50  C 3.0787037037037 50  2.08912037037037 49.6907552083333  1.25347222222222 49.072265625  C 0.417824074074074 48.4537760416667  0 47.7213541666667  0 46.875  L 0 3.125  C 0 2.27864583333333  0.417824074074074 1.54622395833333  1.25347222222222 0.927734375  C 2.08912037037037 0.309244791666663  3.0787037037037 0  4.22222222222222 0  C 5.36574074074074 0  6.35532407407407 0.309244791666663  7.19097222222222 0.927734375  L 36.7465277777778 22.802734375  Z " fill-rule="nonzero" fill="#ffffff" stroke="none" fill-opacity="0.8" transform="matrix(1 0 0 1 726 409 )" />
  </g>
</svg>