<?xml version="1.0" encoding="utf-8"?>
<svg version="1.1" xmlns:xlink="http://www.w3.org/1999/xlink" width="340px" height="94px" xmlns="http://www.w3.org/2000/svg">
  <g transform="matrix(1 0 0 1 -764 -432 )">
    <path d="M 765 436  A 3 3 0 0 1 768 433 L 1100 433  A 3 3 0 0 1 1103 436 L 1103 522  A 3 3 0 0 1 1100 525 L 768 525  A 3 3 0 0 1 765 522 L 765 436  Z " fill-rule="nonzero" fill="#ff3399" stroke="none" fill-opacity="0" />
    <path d="M 764.5 436  A 3.5 3.5 0 0 1 768 432.5 L 1100 432.5  A 3.5 3.5 0 0 1 1103.5 436 L 1103.5 522  A 3.5 3.5 0 0 1 1100 525.5 L 768 525.5  A 3.5 3.5 0 0 1 764.5 522 L 764.5 436  Z " stroke-width="1" stroke-dasharray="9,4" stroke="#ff3399" fill="none" stroke-dashoffset="0.5" />
  </g>
</svg>