<?xml version="1.0" encoding="utf-8"?>
<svg version="1.1" xmlns:xlink="http://www.w3.org/1999/xlink" width="60px" height="60px" xmlns="http://www.w3.org/2000/svg">
  <g transform="matrix(1 0 0 1 42 228 )">
    <path d="M -12 -228  C 4.8 -228  18 -214.8  18 -198  C 18 -181.2  4.8 -168  -12 -168  C -28.8 -168  -42 -181.2  -42 -198  C -42 -214.8  -28.8 -228  -12 -228  Z " fill-rule="nonzero" fill="#ffffff" stroke="none" />
    <path d="M -12 -227.5  C 4.52 -227.5  17.5 -214.52  17.5 -198  C 17.5 -181.48  4.52 -168.5  -12 -168.5  C -28.52 -168.5  -41.5 -181.48  -41.5 -198  C -41.5 -214.52  -28.52 -227.5  -12 -227.5  Z " stroke-width="1" stroke="#797979" fill="none" />
  </g>
</svg>