<?xml version="1.0" encoding="utf-8"?>
<svg version="1.1" xmlns:xlink="http://www.w3.org/1999/xlink" width="90px" height="32px" viewBox="26 256  90 32" xmlns="http://www.w3.org/2000/svg">
  <path d="M 26.5 260  A 3.5 3.5 0 0 1 30 256.5 L 112 256.5  A 3.5 3.5 0 0 1 115.5 260 L 115.5 284  A 3.5 3.5 0 0 1 112 287.5 L 30 287.5  A 3.5 3.5 0 0 1 26.5 284 L 26.5 260  Z " fill-rule="nonzero" fill="#ffffff" stroke="none" />
  <path d="M 26.5 260  A 3.5 3.5 0 0 1 30 256.5 L 112 256.5  A 3.5 3.5 0 0 1 115.5 260 L 115.5 284  A 3.5 3.5 0 0 1 112 287.5 L 30 287.5  A 3.5 3.5 0 0 1 26.5 284 L 26.5 260  Z " stroke-width="1" stroke="#ff6800" fill="none" />
</svg>