<?xml version="1.0" encoding="utf-8"?>
<svg version="1.1" xmlns:xlink="http://www.w3.org/1999/xlink" width="90px" height="32px" viewBox="26 256  90 32" xmlns="http://www.w3.org/2000/svg">
  <path d="M 27 260  A 3 3 0 0 1 30 257 L 112 257  A 3 3 0 0 1 115 260 L 115 284  A 3 3 0 0 1 112 287 L 30 287  A 3 3 0 0 1 27 284 L 27 260  Z " fill-rule="nonzero" fill="#f0f0f0" stroke="none" />
  <path d="M 26.5 260  A 3.5 3.5 0 0 1 30 256.5 L 112 256.5  A 3.5 3.5 0 0 1 115.5 260 L 115.5 284  A 3.5 3.5 0 0 1 112 287.5 L 30 287.5  A 3.5 3.5 0 0 1 26.5 284 L 26.5 260  Z " stroke-width="1" stroke="#000000" fill="none" stroke-opacity="0.850980392156863" />
</svg>