<?xml version="1.0" encoding="utf-8"?>
<svg version="1.1" xmlns:xlink="http://www.w3.org/1999/xlink" width="3px" height="11px" xmlns="http://www.w3.org/2000/svg">
  <g transform="matrix(1 0 0 1 -106 -269 )">
    <path d="M 2.78125 8.21875  C 2.92708333333333 8.36458333333333  3 8.54166666666667  3 8.75  L 3 10.25  C 3 10.4583333333333  2.92708333333333 10.6354166666667  2.78125 10.78125  C 2.63541666666667 10.9270833333333  2.45833333333333 11  2.25 11  L 0.75 11  C 0.541666666666667 11  0.364583333333333 10.9270833333333  0.21875 10.78125  C 0.0729166666666667 10.6354166666667  0 10.4583333333333  0 10.25  L 0 8.75  C 0 8.54166666666667  0.0729166666666667 8.36458333333333  0.21875 8.21875  C 0.364583333333333 8.07291666666667  0.541666666666667 8  0.75 8  L 2.25 8  C 2.45833333333333 8  2.63541666666667 8.07291666666667  2.78125 8.21875  Z M 2.78125 4.21875  C 2.92708333333333 4.36458333333333  3 4.54166666666667  3 4.75  L 3 6.25  C 3 6.45833333333333  2.92708333333333 6.63541666666667  2.78125 6.78125  C 2.63541666666667 6.92708333333333  2.45833333333333 7  2.25 7  L 0.75 7  C 0.541666666666667 7  0.364583333333333 6.92708333333333  0.21875 6.78125  C 0.0729166666666667 6.63541666666667  0 6.45833333333333  0 6.25  L 0 4.75  C 0 4.54166666666667  0.0729166666666667 4.36458333333333  0.21875 4.21875  C 0.364583333333333 4.07291666666667  0.541666666666667 4  0.75 4  L 2.25 4  C 2.45833333333333 4  2.63541666666667 4.07291666666667  2.78125 4.21875  Z M 2.78125 0.21875  C 2.92708333333333 0.364583333333333  3 0.541666666666666  3 0.750000000000001  L 3 2.25  C 3 2.45833333333333  2.92708333333333 2.63541666666667  2.78125 2.78125  C 2.63541666666667 2.92708333333333  2.45833333333333 3  2.25 3  L 0.75 3  C 0.541666666666667 3  0.364583333333333 2.92708333333333  0.21875 2.78125  C 0.0729166666666667 2.63541666666667  0 2.45833333333333  0 2.25  L 0 0.750000000000001  C 0 0.541666666666666  0.0729166666666667 0.364583333333333  0.21875 0.21875  C 0.364583333333333 0.0729166666666663  0.541666666666667 0  0.75 0  L 2.25 0  C 2.45833333333333 0  2.63541666666667 0.0729166666666663  2.78125 0.21875  Z " fill-rule="nonzero" fill="#aaaaaa" stroke="none" transform="matrix(1 0 0 1 106 269 )" />
  </g>
</svg>