<?xml version="1.0" encoding="utf-8"?>
<svg version="1.1" xmlns:xlink="http://www.w3.org/1999/xlink" width="10px" height="6px" xmlns="http://www.w3.org/2000/svg">
  <g transform="matrix(1 0 0 1 -489 -259 )">
    <path d="M 9.89979959919839 4.90721649484541  C 9.96659986639946 4.97594501718218  10 5.05498281786946  10 5.14432989690717  C 10 5.23367697594506  9.96659986639946 5.31271477663233  9.89979959919839 5.38144329896905  L 9.39879759519039 5.89690721649492  C 9.33199732798931 5.96563573883164  9.25517702070809 6  9.16833667334669 6  C 9.08149632598531 6  9.00467601870409 5.96563573883164  8.93787575150301 5.89690721649492  L 5 1.84536082474228  L 1.06212424849699 5.89690721649492  C 0.995323981295911 5.96563573883164  0.918503674014687 6  0.831663326653313 6  C 0.744822979291911 6  0.668002672010687 5.96563573883164  0.601202404809612 5.89690721649492  L 0.100200400801612 5.38144329896905  C 0.0334001336005372 5.31271477663233  0 5.23367697594506  0 5.14432989690717  C 0 5.05498281786946  0.0334001336005372 4.97594501718218  0.100200400801612 4.90721649484541  L 4.76953907815633 0.10309278350508  C 4.83633934535737 0.0343642611683599  4.91315965263863 0  5 0  C 5.0868403473614 0  5.16366065464263 0.0343642611683599  5.23046092184367 0.10309278350508  L 9.89979959919839 4.90721649484541  Z " fill-rule="nonzero" fill="#333333" stroke="none" transform="matrix(1 0 0 1 489 259 )" />
  </g>
</svg>