<?xml version="1.0" encoding="utf-8"?>
<svg version="1.1" xmlns:xlink="http://www.w3.org/1999/xlink" width="28px" height="28px" xmlns="http://www.w3.org/2000/svg">
  <g transform="matrix(1 0 0 1 -582 -141 )">
    <path d="M 7.72916666666663 12.7786458333333  L 14.0911458333334 21.4010416666667  L 20.4713541666666 12.7786458333333  C 20.6657986111111 12.5112847222222  20.8146701388889 12.1527777777778  20.91796875 11.703125  C 21.0212673611111 11.2534722222222  20.9848090277778 10.7369791666667  20.80859375 10.1536458333333  C 20.6323784722222 9.5703125  20.2586805555555 9.09027777777777  19.6875 8.71354166666666  C 19.2013888888889 8.39756944444443  18.6970486111111 8.24262152777777  18.1744791666666 8.24869791666666  C 17.6519097222222 8.25477430555554  17.2052951388889 8.36111111111111  16.8346354166666 8.56770833333334  C 16.4639756944445 8.77430555555554  16.1328125 9.04774305555554  15.8411458333334 9.38802083333334  C 15.4036458333334 9.87413194444446  14.8203125 10.1171875  14.0911458333334 10.1171875  C 13.3741319444445 10.1171875  12.796875 9.87413194444446  12.359375 9.38802083333334  C 12.0677083333334 9.04774305555554  11.7365451388889 8.77430555555554  11.3658854166666 8.56770833333334  C 10.9952256944445 8.36111111111111  10.5486111111111 8.25477430555554  10.0260416666666 8.24869791666666  C 9.50347222222217 8.24262152777777  8.99305555555554 8.39756944444443  8.49479166666663 8.71354166666666  C 7.93576388888891 9.09027777777777  7.56814236111109 9.5703125  7.39192708333337 10.1536458333333  C 7.21571180555554 10.7369791666667  7.17925347222217 11.2534722222222  7.28255208333337 11.703125  C 7.38585069444446 12.1527777777778  7.53472222222217 12.5112847222222  7.72916666666663 12.7786458333333  Z M 26.1223958333334 6.97265625  C 27.3741319444445 9.11762152777777  28 11.4600694444444  28 14  C 28 16.5399305555555  27.3741319444445 18.8823784722222  26.1223958333334 21.02734375  C 24.8706597222222 23.1723090277778  23.1723090277778 24.8706597222222  21.02734375 26.1223958333333  C 18.8823784722222 27.3741319444445  16.5399305555555 28  14 28  C 11.4600694444445 28  9.11762152777783 27.3741319444445  6.97265625 26.1223958333333  C 4.82769097222217 24.8706597222222  3.12934027777783 23.1723090277778  1.87760416666663 21.02734375  C 0.625868055555543 18.8823784722222  0 16.5399305555555  0 14  C 0 11.4600694444444  0.625868055555543 9.11762152777777  1.87760416666663 6.97265625  C 3.12934027777783 4.82769097222223  4.82769097222217 3.12934027777777  6.97265625 1.87760416666666  C 9.11762152777783 0.625868055555543  11.4600694444445 0  14 0  C 16.5399305555555 0  18.8823784722222 0.625868055555543  21.02734375 1.87760416666666  C 23.1723090277778 3.12934027777777  24.8706597222222 4.82769097222223  26.1223958333334 6.97265625  Z " fill-rule="nonzero" fill="#cccccc" stroke="none" transform="matrix(1 0 0 1 582 141 )" />
  </g>
</svg>