<?xml version="1.0" encoding="utf-8"?>
<svg version="1.1" xmlns:xlink="http://www.w3.org/1999/xlink" width="13px" height="12px" xmlns="http://www.w3.org/2000/svg">
  <g transform="matrix(1 0 0 1 -585 -630 )">
    <path d="M 6.81919642857145 11.8593750000001  C 6.73214285714289 11.953125  6.62574404761904 12  6.5 12  C 6.37425595238096 12  6.26785714285711 11.953125  6.18080357142856 11.8593750000001  L 1.65401785714289 7.15625000000002  C 1.6056547619047 7.11458333333326  1.53915550595241 7.04687500000007  1.45452008928578 6.95312499999997  C 1.36988467261904 6.85937500000011  1.23567708333337 6.6888020833334  1.05189732142856 6.44140625000007  C 0.868117559523853 6.19401041666674  0.703683035714221 5.94010416666674  0.55859375 5.67968750000007  C 0.413504464285779 5.4192708333334  0.284133184523853 5.10416666666665  0.170479910714221 4.73437500000003  C 0.0568266369047024 4.36458333333341  0 4.00520833333336  0 3.65624999999989  C 0 2.51041666666656  0.307105654761926 1.61458333333333  0.921316964285779 0.96874999999995  C 1.53552827380952 0.322916666666572  2.38430059523807 0  3.46763392857144 0  C 3.76748511904759 0  4.07338169642856 0.055989583333473  4.38532366071422 0.167968749999953  C 4.697265625 0.279947916666666  4.98744419642856 0.430989583333378  5.255859375 0.621093750000091  C 5.52427455357144 0.81119791666657  5.75520833333337 0.989583333333329  5.94866071428578 1.1562499999999  C 6.14211309523807 1.32291666666671  6.85788690476193 1.32291666666671  7.05133928571434 1.1562499999999  C 7.24479166666674 0.989583333333329  7.47572544642855 0.81119791666657  7.744140625 0.621093750000091  C 8.01255580357144 0.430989583333378  8.302734375 0.279947916666666  8.61467633928567 0.167968749999953  C 8.92661830357144 0.055989583333473  9.23251488095241 0  9.53236607142856 0  C 10.6156994047619 0  11.4644717261905 0.322916666666572  12.0786830357143 0.96874999999995  C 12.6928943452381 1.61458333333333  13 2.51041666666656  13 3.65624999999989  C 13 4.80729166666674  12.4462425595239 5.97916666666674  11.3387276785714 7.17187500000011  L 6.81919642857145 11.8593750000001  Z " fill-rule="nonzero" fill="#ff0000" stroke="none" transform="matrix(1 0 0 1 585 630 )" />
  </g>
</svg>