<?xml version="1.0" encoding="utf-8"?>
<svg version="1.1" xmlns:xlink="http://www.w3.org/1999/xlink" width="154px" height="154px" xmlns="http://www.w3.org/2000/svg">
  <g transform="matrix(1 0 0 1 -244 -123 )">
    <path d="M 321 142  C 353.48 142  379 167.52  379 200  C 379 232.48  353.48 258  321 258  C 288.52 258  263 232.48  263 200  C 263 167.52  288.52 142  321 142  Z " fill-rule="nonzero" fill="#ffffff" stroke="none" fill-opacity="0" />
    <path d="M 321 133  C 358.52 133  388 162.48  388 200  C 388 237.52  358.52 267  321 267  C 283.48 267  254 237.52  254 200  C 254 162.48  283.48 133  321 133  Z " stroke-width="20" stroke="#f2f2f2" fill="none" />
  </g>
</svg>