<?xml version="1.0" encoding="utf-8"?>
<svg version="1.1" xmlns:xlink="http://www.w3.org/1999/xlink" width="154px" height="154px" xmlns="http://www.w3.org/2000/svg">
  <g transform="matrix(1 0 0 1 -244 -123 )">
    <path d="M 321 142.5  C 353.2 142.5  378.5 167.8  378.5 200  C 378.5 232.2  353.2 257.5  321 257.5  C 288.8 257.5  263.5 232.2  263.5 200  C 263.5 167.8  288.8 142.5  321 142.5  Z " fill-rule="nonzero" fill="#ffffff" stroke="none" fill-opacity="0" />
    <path d="M 321 133  C 358.52 133  388 162.48  388 200  C 388 237.52  358.52 267  321 267  C 283.48 267  254 237.52  254 200  C 254 162.48  283.48 133  321 133  Z " stroke-width="20" stroke-dasharray="180,80" stroke="#02a7f0" fill="none" />
  </g>
</svg>