<?xml version="1.0" encoding="utf-8"?>
<svg version="1.1" xmlns:xlink="http://www.w3.org/1999/xlink" width="314px" height="6px" preserveAspectRatio="xMinYMid meet" viewBox="604 1113  314 4" xmlns="http://www.w3.org/2000/svg">
  <g transform="matrix(0 -1 1 0 -354 1876 )">
    <path d="M 610.5 1112  A 3 3 0 0 0 607.5 1115 A 3 3 0 0 0 610.5 1118 A 3 3 0 0 0 613.5 1115 A 3 3 0 0 0 610.5 1112 Z M 909.5 1121.3  L 915.5 1115  L 909.5 1108.7  L 909.5 1121.3  Z " fill-rule="nonzero" fill="#f59a23" stroke="none" transform="matrix(6.12303176911189E-17 1 -1 6.12303176911189E-17 1876.5 352.5 )" />
    <path d="M 608.5 1115  L 910.5 1115  " stroke-width="1" stroke="#f59a23" fill="none" transform="matrix(6.12303176911189E-17 1 -1 6.12303176911189E-17 1876.5 352.5 )" />
  </g>
</svg>