<?xml version="1.0" encoding="utf-8"?>
<svg version="1.1" xmlns:xlink="http://www.w3.org/1999/xlink" width="40px" height="40px" xmlns="http://www.w3.org/2000/svg">
  <defs>
    <filter x="1456px" y="520px" width="40px" height="40px" filterUnits="userSpaceOnUse" id="filter8">
      <feOffset dx="1" dy="1" in="SourceAlpha" result="shadowOffsetInner" />
      <feGaussianBlur stdDeviation="2.5" in="shadowOffsetInner" result="shadowGaussian" />
      <feComposite in2="shadowGaussian" operator="atop" in="SourceAlpha" result="shadowComposite" />
      <feColorMatrix type="matrix" values="0 0 0 0 0  0 0 0 0 0  0 0 0 0 0  0 0 0 0.698039215686274 0  " in="shadowComposite" />
    </filter>
    <g id="widget9">
      <path d="M 1475 524  C 1483.4 524  1490 530.6  1490 539  C 1490 547.4  1483.4 554  1475 554  C 1466.6 554  1460 547.4  1460 539  C 1460 530.6  1466.6 524  1475 524  Z " fill-rule="nonzero" fill="#009dd9" stroke="none" />
      <path d="M 1475 524.5  C 1483.12 524.5  1489.5 530.88  1489.5 539  C 1489.5 547.12  1483.12 553.5  1475 553.5  C 1466.88 553.5  1460.5 547.12  1460.5 539  C 1460.5 530.88  1466.88 524.5  1475 524.5  Z " stroke-width="1" stroke="#ffffff" fill="none" />
    </g>
  </defs>
  <g transform="matrix(1 0 0 1 -1456 -520 )">
    <use xlink:href="#widget9" filter="url(#filter8)" />
    <use xlink:href="#widget9" />
  </g>
</svg>