<?xml version="1.0" encoding="utf-8"?>
<svg version="1.1" xmlns:xlink="http://www.w3.org/1999/xlink" width="40px" height="50px" xmlns="http://www.w3.org/2000/svg">
  <defs>
    <mask fill="white" id="clip10">
      <path d="M 30 14  C 30 24  21 30  15 40  C 9 30  0 24  0 14  C 0 9.55950110036207  2.18765131039413 2.49382062825119  10.2992090221811 0.524552438397976  C 11.6866065076877 0.187729619407193  13.2473051530106 0  15 0  C 27 0  30 8.8  30 14  Z " fill-rule="evenodd" />
    </mask>
    <filter x="146px" y="53px" width="40px" height="50px" filterUnits="userSpaceOnUse" id="filter11">
      <feOffset dx="1" dy="1" in="SourceAlpha" result="shadowOffsetInner" />
      <feGaussianBlur stdDeviation="2.5" in="shadowOffsetInner" result="shadowGaussian" />
      <feComposite in2="shadowGaussian" operator="atop" in="SourceAlpha" result="shadowComposite" />
      <feColorMatrix type="matrix" values="0 0 0 0 0  0 0 0 0 0  0 0 0 0 0  0 0 0 0.698039215686274 0  " in="shadowComposite" />
    </filter>
    <g id="widget12">
      <path d="M 30 14  C 30 24  21 30  15 40  C 9 30  0 24  0 14  C 0 9.55950110036207  2.18765131039413 2.49382062825119  10.2992090221811 0.524552438397976  C 11.6866065076877 0.187729619407193  13.2473051530106 0  15 0  C 27 0  30 8.8  30 14  Z " fill-rule="nonzero" fill="#009dd9" stroke="none" transform="matrix(1 0 0 1 150 57 )" />
      <path d="M 30 14  C 30 24  21 30  15 40  C 9 30  0 24  0 14  C 0 9.55950110036207  2.18765131039413 2.49382062825119  10.2992090221811 0.524552438397976  C 11.6866065076877 0.187729619407193  13.2473051530106 0  15 0  C 27 0  30 8.8  30 14  Z " stroke-width="2" stroke="#ffffff" fill="none" transform="matrix(1 0 0 1 150 57 )" mask="url(#clip10)" />
    </g>
  </defs>
  <g transform="matrix(1 0 0 1 -146 -53 )">
    <use xlink:href="#widget12" filter="url(#filter11)" />
    <use xlink:href="#widget12" />
  </g>
</svg>