<?xml version="1.0" encoding="utf-8"?>
<svg version="1.1" xmlns:xlink="http://www.w3.org/1999/xlink" width="35px" height="35px" xmlns="http://www.w3.org/2000/svg">
  <g transform="matrix(1 0 0 1 -1270 -13 )">
    <path d="M 1287.5 13  C 1297.3 13  1305 20.7  1305 30.5  C 1305 40.3  1297.3 48  1287.5 48  C 1277.7 48  1270 40.3  1270 30.5  C 1270 20.7  1277.7 13  1287.5 13  Z " fill-rule="nonzero" fill="#ffffff" stroke="none" />
    <path d="M 1287.5 13.5  C 1297.02 13.5  1304.5 20.98  1304.5 30.5  C 1304.5 40.02  1297.02 47.5  1287.5 47.5  C 1277.98 47.5  1270.5 40.02  1270.5 30.5  C 1270.5 20.98  1277.98 13.5  1287.5 13.5  Z " stroke-width="1" stroke="#797979" fill="none" />
  </g>
</svg>