<?xml version="1.0" encoding="utf-8"?>
<svg version="1.1" xmlns:xlink="http://www.w3.org/1999/xlink" width="130px" height="130px" xmlns="http://www.w3.org/2000/svg">
  <g transform="matrix(1 0 0 1 -175 -430 )">
    <path d="M 175 430  L 305 430  L 305 560  L 175 560  L 175 430  " fill-rule="nonzero" fill="#cccccc" stroke="none" />
    <path d="M 184 439  L 296 439  L 296 551  L 184 551  L 184 439  " fill-rule="nonzero" fill="#ffffff" stroke="none" />
    <path d="M 252.35 469  C 246.89 469  242.6 464.71  242.6 459.25  C 242.6 453.79  246.89 449.5  252.35 449.5  C 257.81 449.5  262.1 453.79  262.1 459.25  C 262.1 464.71  257.81 469  252.35 469  " fill-rule="nonzero" fill="#cccccc" stroke="none" />
    <path d="M 188 548  L 188 490.25  L 214.25 464  L 251 485  L 272 479.75  L 293 485  L 293 548  L 188 548  " fill-rule="nonzero" fill="#169bd5" stroke="none" />
  </g>
</svg>