<?xml version="1.0" encoding="utf-8"?>
<svg version="1.1" xmlns:xlink="http://www.w3.org/1999/xlink" width="16px" height="7px" xmlns="http://www.w3.org/2000/svg">
  <g transform="matrix(1 0 0 1 -1213 -135 )">
    <path d="M 9.89922077922078 2.61130434782609  L 6.05506493506494 2.61130434782609  C 5.71078353257301 2.61130434782609  5.43168831168831 2.33878202163613  5.43168831168831 2.00260869565217  C 5.43168831168831 1.66643536966821  5.71078353257301 1.39391304347826  6.05506493506494 1.39391304347826  L 9.89922077922078 1.39391304347826  C 10.2435021817127 1.39391304347826  10.5225974025974 1.66643536966821  10.5225974025974 2.00260869565217  C 10.5225974025974 2.33878202163613  10.2435021817127 2.61130434782609  9.89922077922078 2.61130434782609  Z M 15.3215584415584 6.91884057971014  C 15.3215584415584 6.91884057971014  15.3215584415584 6.91884057971014  15.3215584415584 7  L 0.712727272727273 7  C 0.712727272727273 6.91884057971014  0.712727272727273 6.91884057971014  0.712727272727273 6.91884057971014  C 0.368445870235349 6.91884057971014  0.0893506493506493 6.64631825352019  0.0893506493506493 6.31014492753623  C 0.0893506493506493 5.97397160155227  0.368445870235349 5.70144927536232  0.712727272727273 5.70144927536232  L 15.3215584415584 5.70144927536232  C 15.6658398440504 5.70144927536232  15.9449350649351 5.97397160155227  15.9449350649351 6.31014492753623  C 15.9449350649351 6.64631825352019  15.6658398440504 6.91884057971014  15.3215584415584 6.91884057971014  Z M 5.17818181818182 3.62376811594203  C 5.17818181818182 3.95994144192599  4.89908659729712 4.23246376811594  4.55480519480519 4.23246376811594  C 4.21052379231327 4.23246376811594  3.93142857142857 3.95994144192599  3.93142857142857 3.62376811594203  L 3.93142857142857 0.659420289855072  C 3.93142857142857 0.323246963871111  4.21052379231327 0.0507246376811591  4.5548051948052 0.0507246376811591  C 4.89908659729712 0.0507246376811591  5.17818181818182 0.323246963871111  5.17818181818182 0.659420289855072  L 5.17818181818182 3.62376811594203  Z M 12.1028571428571 3.62376811594203  C 12.1028571428571 3.95994144192599  11.8237619219724 4.23246376811594  11.4794805194805 4.23246376811594  C 11.1351991169886 4.23246376811594  10.8561038961039 3.95994144192599  10.8561038961039 3.62376811594203  L 10.8561038961039 0.659420289855072  C 10.8561038961039 0.323246963871112  11.1351991169886 0.050724637681158  11.4794805194805 0.050724637681158  C 11.8237619219724 0.050724637681158  12.1028571428571 0.323246963871111  12.1028571428571 0.659420289855072  L 12.1028571428571 3.62376811594203  Z " fill-rule="nonzero" fill="#000000" stroke="none" fill-opacity="0.650980392156863" transform="matrix(1 0 0 1 1213 135 )" />
  </g>
</svg>