<?xml version="1.0" encoding="utf-8"?>
<svg version="1.1" xmlns:xlink="http://www.w3.org/1999/xlink" width="16px" height="14px" xmlns="http://www.w3.org/2000/svg">
  <g transform="matrix(1 0 0 1 -1213 -136 )">
    <path d="M 15.9286624203822 11.6766174521009  C 15.9275386502469 12.9593155910372  14.8983945390936 13.998864634487  13.6285350318471 14  L 2.3031847133758 14  C 1.03252890258893 14.0005690708184  0.0016873330867099 12.9611483517825  0 11.6776468638485  L 0 2.39852937171782  C 0.00168733308671099 1.11502788378382  1.03252890258892 0.075607164747934  2.3031847133758 0.0761764693163594  L 3.13579617834395 0.0761764693163594  C 3.47349895531055 0.0761764693163594  3.74726114649682 0.352706472156746  3.74726114649682 0.693823517827385  C 3.74726114649682 1.03494056349802  3.47349895531055 1.31147056633841  3.13579617834395 1.31147056633841  L 2.3031847133758 1.31147056633841  C 2.30250466767122 1.31146926658336  2.30182462090171 1.3114686167054  2.30114457397978 1.3114686167054  C 1.7064570749585 1.3114686167054  1.22405304471972 1.79783048846004  1.22292993630573 2.39852937171782  L 1.22292993630573 11.6766174521009  C 1.22349133508882 12.2777190309499  1.70606064874124 12.7647076161038  2.30114601701502 12.7647076161038  C 2.30182558292424 12.7647076161038  2.30250514868135 12.7647069671449  2.3031847133758 12.7647056692279  L 13.6285350318471 12.7647056692279  C 14.2224267122088 12.7635727179651  14.7035917643362 12.2775429537565  14.7047133757962 11.6776468638485  L 14.7047133757962 2.39852937171782  C 14.7035917643362 1.79863328180978  14.2224267122088 1.31260351760121  13.6285350318471 1.31147056633841  L 12.8580891719745 1.31147056633841  C 12.5203863950079 1.31147056633841  12.2466242038217 1.03494056349802  12.2466242038217 0.693823517827385  C 12.2466242038217 0.352706472156746  12.5203863950079 0.0761764693163594  12.8580891719745 0.0761764693163594  L 13.6285350318471 0.0761764693163601  C 14.897997156693 0.0773106178808799  15.926977043585 1.11623326136031  15.9286624203822 2.39852937171782  L 15.9286624203822 11.6766174521009  Z " fill-rule="nonzero" fill="#000000" stroke="none" fill-opacity="0.650980392156863" transform="matrix(1 0 0 1 1213 136 )" />
  </g>
</svg>