<?xml version="1.0" encoding="utf-8"?>
<svg version="1.1" xmlns:xlink="http://www.w3.org/1999/xlink" width="20px" height="20px" xmlns="http://www.w3.org/2000/svg">
  <g transform="matrix(1 0 0 1 -336 -466 )">
    <path d="M 11.6861979166667 15.9921156373193  C 12.5325520833333 17.0784056066579  13.5546875 18.0026281208936  14.7526041666667 18.7647831800263  C 13.2682291666667 19.5882610600088  11.6710069444444 20  9.9609375 20  C 8.25954861111111 20  6.66666666666667 19.5882610600088  5.18229166666667 18.7647831800263  C 6.38020833333333 18.0026281208936  7.40234375 17.0784056066579  8.24869791666667 15.9921156373193  C 9.09505208333333 14.9058256679807  9.66579861111111 13.7319316688568  9.9609375 12.4704336399474  C 10.2647569444444 13.7319316688568  10.83984375 14.9058256679807  11.6861979166667 15.9921156373193  Z M 4.07552083333333 1.80026281208936  C 5.34288194444445 0.862899693385895  6.75347222222222 0.26281208935611  8.30729166666667 0  L 8.30729166666667 6.37319316688568  C 8.30729166666667 8.580814717477  7.75824652777778 10.5935173017959  6.66015625 12.4113009198423  C 5.56206597222222 14.2290845378887  4.12760416666667 15.5716162943495  2.35677083333333 16.4388961892247  C 0.785590277777778 14.5554095488392  0 12.3872098116513  0 9.93429697766097  C 0 8.29610162067455  0.362413194444444 6.76522120017521  1.08723958333333 5.34165571616294  C 1.81206597222222 3.91809023215068  2.80815972222222 2.73762593079282  4.07552083333333 1.80026281208936  Z M 18.9127604166667 5.34165571616294  C 19.6375868055556 6.76522120017521  20 8.29610162067455  20 9.93429697766097  C 20 12.3872098116513  19.2144097222222 14.5554095488392  17.6432291666667 16.4388961892247  C 15.8723958333333 15.5716162943495  14.4379340277778 14.2290845378887  13.33984375 12.4113009198423  C 12.2417534722222 10.5935173017959  11.6927083333333 8.580814717477  11.6927083333333 6.37319316688568  L 11.6927083333333 0  C 13.2465277777778 0.26281208935611  14.6571180555556 0.862899693385895  15.9244791666667 1.80026281208936  C 17.1918402777778 2.73762593079282  18.1879340277778 3.91809023215068  18.9127604166667 5.34165571616294  Z " fill-rule="nonzero" fill="#d7d7d7" stroke="none" transform="matrix(1 0 0 1 336 466 )" />
  </g>
</svg>