<?xml version="1.0" encoding="utf-8"?>
<svg version="1.1" xmlns:xlink="http://www.w3.org/1999/xlink" width="20px" height="20px" xmlns="http://www.w3.org/2000/svg">
  <g transform="matrix(1 0 0 1 -336 -351 )">
    <path d="M 0 14.1964285714286  C 0 12.1502976190476  0.956719817767654 10.4166666666667  2.87015945330296 8.99553571428571  C 2.80941533788914 8.85416666666666  2.77904328018223 8.66071428571429  2.77904328018223 8.41517857142857  C 2.77904328018223 8.26636904761905  2.82080485952923 8.08407738095238  2.90432801822323 7.86830357142857  C 2.98785117691724 7.65252976190476  3.07896735003797 7.48511904761905  3.17767653758542 7.36607142857143  C 3.17008352315869 7.20238095238095  3.19855732725892 7.00520833333333  3.2630979498861 6.77455357142857  C 3.32763857251329 6.54389880952381  3.41305998481397 6.38392857142857  3.51936218678815 6.29464285714286  C 3.51936218678815 5.26041666666667  3.8705391040243 4.18712797619047  4.57289293849658 3.07477678571429  C 5.27524677296887 1.9624255952381  6.10098709187548 1.18303571428571  7.0501138952164 0.736607142857142  C 8.10554290053151 0.245535714285714  9.33561123766135 0  10.7403189066059 0  C 11.7501898253607 0  12.7600607441154 0.204613095238098  13.7699316628702 0.613839285714286  C 14.1419893697798 0.770089285714286  14.4836750189825 0.948660714285714  14.7949886104784 1.14955357142857  C 15.1063022019742 1.35044642857143  15.375854214123 1.55877976190476  15.6036446469248 1.77455357142857  C 15.8314350797267 1.99032738095238  16.0402429764617 2.24330357142857  16.2300683371298 2.53348214285714  C 16.419893697798 2.82366071428571  16.5793470007593 3.09895833333333  16.7084282460137 3.359375  C 16.837509491268 3.61979166666667  16.9608959757024 3.93415178571429  17.0785876993166 4.30245535714286  C 17.1962794229309 4.67075892857143  17.2930903568717 5.00372023809524  17.369020501139 5.30133928571429  C 17.4449506454062 5.59895833333333  17.5284738041002 5.96354166666667  17.619589977221 6.39508928571429  L 17.630979498861 6.45089285714286  C 18.0485952923311 7.06845238095238  18.2574031890661 7.62648809523809  18.2574031890661 8.125  C 18.2574031890661 8.22916666666666  18.2232346241458 8.37797619047619  18.1548974943052 8.57142857142857  C 18.0865603644647 8.76488095238095  18.0523917995444 8.90625  18.0523917995444 8.99553571428571  C 18.0523917995444 9.00297619047619  18.0580865603645 9.01599702380952  18.0694760820046 9.03459821428571  C 18.0808656036446 9.05319940476191  18.0941533788914 9.07180059523809  18.1093394077449 9.09040178571429  C 18.1245254365983 9.10900297619048  18.1321184510251 9.12202380952381  18.1321184510251 9.12946428571429  C 18.7167805618831 9.97767857142857  19.1742596810934 10.7756696428571  19.504555808656 11.5234375  C 19.8348519362187 12.2712053571429  20 13.046875  20 13.8504464285714  C 20 14.1703869047619  19.9259681093394 14.5424107142857  19.7779043280182 14.9665178571429  C 19.629840546697 15.390625  19.4191343963554 15.6026785714286  19.1457858769932 15.6026785714286  C 19.0774487471526 15.6026785714286  19.003416856492 15.5747767857143  18.9236902050114 15.5189732142857  C 18.8439635535308 15.4631696428571  18.7718299164768 15.3980654761905  18.7072892938497 15.3236607142857  C 18.6427486712225 15.249255952381  18.5706150341686 15.1525297619048  18.4908883826879 15.0334821428571  C 18.4111617312073 14.9144345238095  18.3504176157935 14.8158482142857  18.3086560364465 14.7377232142857  C 18.2668944570995 14.6595982142857  18.2156416097191 14.5628720238095  18.1548974943052 14.4475446428571  C 18.0941533788914 14.3322172619048  18.0599848139711 14.2671130952381  18.0523917995444 14.2522321428571  C 18.0447987851177 14.2447916666667  18.0334092634776 14.2410714285714  18.0182232346241 14.2410714285714  L 17.9612756264237 14.2857142857143  C 17.5132877752468 15.4315476190476  17.0121488230828 16.2611607142857  16.4578587699317 16.7745535714286  C 16.6097190584662 16.9233630952381  16.8432042520881 17.0665922619048  17.1583143507973 17.2042410714286  C 17.4734244495065 17.3418898809524  17.7353834472286 17.4962797619048  17.9441913439636 17.6674107142857  C 18.1529992406986 17.8385416666667  18.287775246773 18.0803571428571  18.3485193621868 18.3928571428571  C 18.3333333333333 18.422619047619  18.3181473044799 18.4821428571429  18.3029612756264 18.5714285714286  C 18.287775246773 18.6607142857143  18.2611996962794 18.7276785714286  18.2232346241458 18.7723214285714  C 17.7372817008352 19.4940476190476  16.5907365223994 19.8549107142857  14.7835990888383 19.8549107142857  C 14.3811693242217 19.8549107142857  13.961655277145 19.8214285714286  13.5250569476082 19.7544642857143  C 13.0884586180714 19.6875  12.7164009111617 19.6130952380952  12.4088838268793 19.53125  C 12.1013667425968 19.4494047619048  11.7046317388003 19.3377976190476  11.2186788154897 19.1964285714286  C 11.1047835990888 19.1592261904762  11.0174639331815 19.1331845238095  10.9567198177677 19.1183035714286  C 10.8504176157935 19.0885416666667  10.6757782839787 19.0718005952381  10.4328018223235 19.0680803571429  C 10.1898253606682 19.0643601190476  10.0379650721336 19.0587797619048  9.97722095671982 19.0513392857143  C 9.66590736522399 19.3861607142857  9.18185269552012 19.6279761904762  8.5250569476082 19.7767857142857  C 7.86826119969628 19.9255952380952  7.2285497342445 20  6.60592255125285 20  C 6.34016704631739 20  6.07820804859529 19.9944196428571  5.82004555808656 19.9832589285714  C 5.56188306757783 19.9720982142857  5.208807896735 19.9386160714286  4.76082004555809 19.8828125  C 4.31283219438117 19.8270089285714  3.92938496583144 19.750744047619  3.61047835990888 19.6540178571429  C 3.29157175398633 19.5572916666667  3.00873196659074 19.4084821428571  2.7619589977221 19.2075892857143  C 2.51518602885346 19.0066964285714  2.39179954441913 18.7686011904762  2.39179954441913 18.4933035714286  C 2.39179954441913 18.1956845238095  2.42976461655277 17.9743303571429  2.50569476082005 17.8292410714286  C 2.58162490508732 17.6841517857143  2.73728170083523 17.5037202380952  2.97266514806378 17.2879464285714  C 3.05618830675778 17.2730654761905  3.20994684889901 17.2247023809524  3.43394077448747 17.1428571428571  C 3.65793470007593 17.0610119047619  3.84586180713743 17.016369047619  3.99772209567198 17.0089285714286  C 4.02809415337889 17.0089285714286  4.08124525436598 17.0014880952381  4.15717539863326 16.9866071428571  C 4.17236142748671 16.9717261904762  4.17995444191344 16.9568452380952  4.17995444191344 16.9419642857143  L 4.15717539863326 16.9084821428571  C 3.79271070615034 16.8266369047619  3.38268792710706 16.4341517857143  2.92710706150342 15.7310267857143  C 2.47152619589977 15.0279017857143  2.19438116932422 14.4456845238095  2.09567198177677 13.984375  L 2.03872437357631 13.9508928571429  C 2.0083523158694 13.9508928571429  1.96279422930904 14.0252976190476  1.90205011389522 14.1741071428571  C 1.76537585421412 14.4791666666667  1.5584662110858 14.7563244047619  1.28132118451025 15.0055803571429  C 1.0041761579347 15.2548363095238  0.709946848899013 15.3943452380952  0.398633257403189 15.4241071428571  L 0.387243735763098 15.4241071428571  C 0.356871678056188 15.4241071428571  0.334092634776006 15.4073660714286  0.318906605922551 15.3738839285714  C 0.303720577069096 15.3404017857143  0.284738041002278 15.3199404761905  0.261958997722096 15.3125  C 0.0873196659073652 14.9107142857143  0 14.5386904761905  0 14.1964285714286  Z " fill-rule="nonzero" fill="#d7d7d7" stroke="none" transform="matrix(1 0 0 1 336 351 )" />
  </g>
</svg>