<?xml version="1.0" encoding="utf-8"?>
<svg version="1.1" xmlns:xlink="http://www.w3.org/1999/xlink" width="20px" height="16px" xmlns="http://www.w3.org/2000/svg">
  <g transform="matrix(1 0 0 1 -336 -393 )">
    <path d="M 5.419921875 4.45563549160672  C 5.58268229166667 4.29896083133493  5.6640625 4.08952837729816  5.6640625 3.8273381294964  C 5.6640625 3.56514788169464  5.58268229166667 3.35411670663469  5.419921875 3.19424460431655  C 5.25716145833333 3.0343725019984  5.04231770833333 2.95443645083933  4.775390625 2.95443645083933  C 4.49544270833333 2.95443645083933  4.248046875 3.03597122302158  4.033203125 3.19904076738609  C 3.818359375 3.3621103117506  3.7109375 3.57154276578737  3.7109375 3.8273381294964  C 3.7109375 4.07673860911271  3.818359375 4.28297362110312  4.033203125 4.44604316546763  C 4.248046875 4.60911270983213  4.49544270833333 4.69064748201439  4.775390625 4.69064748201439  C 5.04231770833333 4.69064748201439  5.25716145833333 4.6123101518785  5.419921875 4.45563549160672  Z M 12.6708984375 9.17985611510791  C 12.8369140625 9.03916866506794  12.919921875 8.87609912070344  12.919921875 8.69064748201439  C 12.919921875 8.51159072741806  12.8369140625 8.35171862509992  12.6708984375 8.21103117505995  C 12.5048828125 8.07034372501998  12.2916666666667 8  12.03125 8  C 11.85546875 8  11.6943359375 8.07194244604317  11.5478515625 8.2158273381295  C 11.4013671875 8.35971223021583  11.328125 8.51798561151079  11.328125 8.69064748201439  C 11.328125 8.86970423661071  11.4013671875 9.03117505995204  11.5478515625 9.17505995203837  C 11.6943359375 9.3189448441247  11.85546875 9.39088729016787  12.03125 9.39088729016787  C 12.2916666666667 9.39088729016787  12.5048828125 9.32054356514788  12.6708984375 9.17985611510791  Z M 10.3759765625 4.45563549160672  C 10.5354817708333 4.29896083133493  10.615234375 4.08952837729816  10.615234375 3.8273381294964  C 10.615234375 3.56514788169464  10.5354817708333 3.35411670663469  10.3759765625 3.19424460431655  C 10.2164713541667 3.0343725019984  10.0032552083333 2.95443645083933  9.736328125 2.95443645083933  C 9.45638020833334 2.95443645083933  9.208984375 3.03597122302158  8.994140625 3.19904076738609  C 8.779296875 3.3621103117506  8.671875 3.57154276578737  8.671875 3.8273381294964  C 8.671875 4.07673860911271  8.779296875 4.28297362110312  8.994140625 4.44604316546763  C 9.208984375 4.60911270983213  9.45638020833334 4.69064748201439  9.736328125 4.69064748201439  C 10.0032552083333 4.69064748201439  10.2164713541667 4.6123101518785  10.3759765625 4.45563549160672  Z M 16.5625 9.17985611510791  C 16.7317708333333 9.03916866506794  16.81640625 8.87609912070344  16.81640625 8.69064748201439  C 16.81640625 8.51159072741806  16.7317708333333 8.35171862509992  16.5625 8.21103117505995  C 16.3932291666667 8.07034372501998  16.181640625 8  15.927734375 8  C 15.751953125 8  15.5908203125 8.07194244604317  15.4443359375 8.2158273381295  C 15.2978515625 8.35971223021583  15.224609375 8.51798561151079  15.224609375 8.69064748201439  C 15.224609375 8.86970423661071  15.2978515625 9.03117505995204  15.4443359375 9.17505995203837  C 15.5908203125 9.3189448441247  15.751953125 9.39088729016787  15.927734375 9.39088729016787  C 16.181640625 9.39088729016787  16.3932291666667 9.32054356514788  16.5625 9.17985611510791  Z M 12.8857421875 2.38369304556355  C 13.5725911458333 3.12869704236611  14.0169270833333 3.96163069544365  14.21875 4.88249400479616  C 14.0169270833333 4.85691446842526  13.7890625 4.84412470023981  13.53515625 4.84412470023981  C 12.4348958333333 4.84412470023981  11.4225260416667 5.09032773780975  10.498046875 5.58273381294964  C 9.57356770833334 6.07513988808953  8.84602864583334 6.7418065547562  8.3154296875 7.58273381294964  C 7.78483072916667 8.42366107114309  7.51953125 9.34292565947242  7.51953125 10.3405275779376  C 7.51953125 10.8393285371703  7.59440104166667 11.3253397282174  7.744140625 11.7985611510791  C 7.51627604166667 11.8177458033573  7.294921875 11.8273381294964  7.080078125 11.8273381294964  C 6.91080729166667 11.8273381294964  6.748046875 11.8225419664269  6.591796875 11.8129496402878  C 6.435546875 11.8033573141487  6.25651041666667 11.7825739408473  6.0546875 11.7505995203837  C 5.85286458333333 11.7186250999201  5.7080078125 11.6962430055955  5.6201171875 11.6834532374101  C 5.5322265625 11.6706634692246  5.35481770833333 11.6370903277378  5.087890625 11.5827338129496  C 4.82096354166667 11.5283772981615  4.658203125 11.4948041566747  4.599609375 11.4820143884892  L 2.12890625 12.7002398081535  L 2.83203125 10.6091127098321  C 0.944010416666667 9.31095123900879  0 7.74420463629097  0 5.90887290167866  C 0 4.82813749000799  0.3173828125 3.83373301358913  0.9521484375 2.92565947242206  C 1.5869140625 2.017585931255  2.4462890625 1.30295763389288  3.5302734375 0.781774580335732  C 4.6142578125 0.260591526778576  5.79752604166667 0  7.080078125 0  C 8.22591145833333 0  9.30826822916667 0.211031175059953  10.3271484375 0.633093525179856  C 11.3460286458333 1.05515587529976  12.1988932291667 1.63868904876099  12.8857421875 2.38369304556355  Z M 19.1650390625 7.73621103117506  C 19.7216796875 8.51318944844125  20 9.35571542765787  20 10.2637889688249  C 20 11.0119904076739  19.7770182291667 11.726618705036  19.3310546875 12.4076738609113  C 18.8850911458333 13.0887290167866  18.28125 13.7074340527578  17.51953125 14.2637889688249  L 18.056640625 16  L 16.11328125 14.9544364508393  C 15.13671875 15.1910471622702  14.4270833333333 15.3093525179856  13.984375 15.3093525179856  C 12.8841145833333 15.3093525179856  11.8717447916667 15.083932853717  10.947265625 14.6330935251799  C 10.0227864583333 14.1822541966427  9.29524739583333 13.5699440447642  8.7646484375 12.7961630695444  C 8.23404947916667 12.0223820943245  7.96875 11.1782573940847  7.96875 10.2637889688249  C 7.96875 9.34932054356515  8.23404947916667 8.50519584332534  8.7646484375 7.73141486810552  C 9.29524739583333 6.95763389288569  10.0227864583333 6.34532374100719  10.947265625 5.89448441247002  C 11.8717447916667 5.44364508393285  12.8841145833333 5.21822541966427  13.984375 5.21822541966427  C 15.0325520833333 5.21822541966427  16.0188802083333 5.44364508393285  16.943359375 5.89448441247002  C 17.8678385416667 6.34532374100719  18.6083984375 6.95923261390887  19.1650390625 7.73621103117506  Z " fill-rule="nonzero" fill="#d7d7d7" stroke="none" transform="matrix(1 0 0 1 336 393 )" />
  </g>
</svg>