<?xml version="1.0" encoding="utf-8"?>
<svg version="1.1" xmlns:xlink="http://www.w3.org/1999/xlink" width="20px" height="16px" xmlns="http://www.w3.org/2000/svg">
  <g transform="matrix(1 0 0 1 -336 -430 )">
    <path d="M 6.83212493028444 12.7988980716253  C 7.13329615170106 12.6997245179063  7.36568135341142 12.5252525252525  7.5292805354155 12.2754820936639  C 7.68544339096486 12.0257116620753  7.72634318646589 11.7722681359045  7.65197992191857 11.5151515151515  C 7.57761665737126 11.2580348943985  7.4102993121398 11.0743801652893  7.1500278862242 10.9641873278237  C 6.89719278676334 10.8613406795225  6.62576687116564 10.8576675849403  6.33575013943112 10.9531680440771  C 6.0457334076966 11.048668503214  5.82264361405466 11.2176308539945  5.6664807585053 11.4600550964187  C 5.50288157650121 11.7098255280073  5.45454545454546 11.9614325068871  5.52147239263804 12.2148760330579  C 5.58839933073062 12.4683195592287  5.74828034950734 12.653810835629  6.00111544896821 12.771349862259  C 6.25395054842908 12.8888888888889  6.53095370886782 12.8980716253444  6.83212493028444 12.7988980716253  Z M 8.33240379252649 11.1460055096419  C 8.44394868934746 11.1056014692378  8.52574828034951 11.0376492194674  8.57780256553263 10.9421487603306  C 8.63729317717048 10.8466483011938  8.65030674846626 10.7493112947658  8.61684327941997 10.6501377410468  C 8.58337981037368 10.5509641873278  8.51831195389478 10.4830119375574  8.42163970998327 10.4462809917355  C 8.31753113961703 10.4095500459137  8.21156348763711 10.4113865932048  8.1037367540435 10.4517906336088  C 7.9959100204499 10.4921946740129  7.91596951106154 10.5601469237833  7.86391522587842 10.6556473829201  C 7.73749767614798 10.8833792470156  7.78583379810374 11.048668503214  8.00892359174568 11.1515151515152  C 8.11303216211192 11.188246097337  8.22085889570552 11.1864095500459  8.33240379252649 11.1460055096419  Z M 10.4907975460123 10.0220385674931  C 10.844023052612 10.6868686868687  10.8533184606804 11.386593204775  10.5186837702175 12.1212121212121  C 10.1840490797546 12.870523415978  9.59657928983082 13.4214876033058  8.75627440044618 13.7741046831956  C 7.91596951106154 14.1267217630854  7.08310094813162 14.1707988980716  6.25766871165644 13.9063360881543  C 5.46198178100019 13.6565656565657  4.91355270496375 13.1919191919192  4.61238148354713 12.5123966942149  C 4.31121026213051 11.8328741965106  4.33537832310838 11.1441689623508  4.68488566648076 10.4462809917355  C 5.03439300985313 9.76308539944904  5.59769473879903 9.25252525252525  6.37479085331846 8.91460055096419  C 7.15188696783789 8.57667584940312  7.93456032719836 8.5068870523416  8.72281093139989 8.70523415977961  C 9.54824316787507 8.91827364554637  10.1375720394125 9.35720844811754  10.4907975460123 10.0220385674931  Z M 12.5209146681539 13.2727272727273  C 13.6103364937721 12.4022038567493  14.102993121398 11.4306703397612  13.9988845510318 10.3581267217631  C 13.9319576129392 9.65289256198347  13.6010410857037 9.02846648301194  13.0061349693252 8.48484848484848  C 12.4112288529466 7.94123048668503  11.6359918200409 7.54086317722681  10.6804238706079 7.28374655647383  C 9.72485592117494 7.02662993572084  8.70422011526306 6.94949494949495  7.61851645287228 7.05234159779614  C 5.96021565346719 7.22130394857668  4.58635434095557 7.74104683195592  3.49693251533742 8.61157024793388  C 2.40751068971928 9.48209366391185  1.91485406209333 10.4536271808999  2.01896263245956 11.5261707988981  C 2.08588957055215 12.2314049586777  2.41680609778769 12.8558310376492  3.0117122141662 13.3994490358127  C 3.60661833054471 13.9430670339761  4.38185536345046 14.3434343434343  5.33742331288344 14.6005509641873  C 6.29299126231642 14.8576675849403  7.3136270682283 14.9348025711662  8.39933073061907 14.831955922865  C 10.0576315300242 14.6629935720845  11.4314928425358 14.1432506887052  12.5209146681539 13.2727272727273  Z M 17.0552147239264 9.11845730027548  C 17.3080498233873 9.50413223140496  17.4344673731177 9.93204775022957  17.4344673731177 10.4022038567493  C 17.4344673731177 10.9017447199265  17.2968953337052 11.4141414141414  17.0217512548801 11.9393939393939  C 16.746607176055 12.4646464646465  16.3413273842722 12.9678604224059  15.8059118795315 13.4490358126722  C 15.2704963747909 13.9302112029385  14.6439858709797 14.3617998163453  13.9263803680982 14.7438016528926  C 13.2087748652166 15.1258034894399  12.3684699758319 15.4306703397612  11.4054656999442 15.6584022038567  C 10.4424614240565 15.8861340679523  9.4366982710541 16  8.38817624093698 16  C 7.33965421081986 16  6.31715932329429 15.8769513314968  5.32069157836029 15.6308539944904  C 4.32422383342629 15.3847566574839  3.43000557724484 15.0431588613407  2.63803680981595 14.6060606060606  C 1.84606804238706 14.1689623507805  1.20840304889385 13.6143250688705  0.725041829336308 12.9421487603306  C 0.241680609778769 12.2699724517906  0 11.5371900826446  0 10.7438016528926  C 0 9.8989898989899  0.258412344301915 8.99908172635445  0.775237032905745 8.04407713498622  C 1.29206172150957 7.089072543618  2.0263989589143 6.14141414141414  2.97824874511991 5.20110192837465  C 4.23498791596951 3.95959595959596  5.50474065811489 3.09274563820018  6.78750697155605 2.60055096418733  C 8.07027328499721 2.10835629017447  8.98680052054285 2.13406795224977  9.53708867819297 2.67768595041322  C 10.0204498977505 3.14784205693296  10.0948131622978 3.91551882460973  9.76017847183491 4.98071625344353  C 9.73043316601599 5.08356290174472  9.72671500278862 5.15702479338843  9.74902398215282 5.20110192837465  C 9.77133296151701 5.24517906336088  9.80851459379067 5.27089072543618  9.86056887897379 5.27823691460055  C 9.91262316415691 5.28558310376492  9.96653653095371 5.28374655647383  10.0223089793642 5.27272727272727  C 10.0780814277747 5.26170798898072  10.1282766313441 5.24885215794307  10.1728945900725 5.23415977961433  L 10.2398215281651 5.21212121212121  C 11.2734709053727 4.77869605142332  12.1881390593047 4.56198347107438  12.983825989961 4.56198347107438  C 13.7795129206172 4.56198347107438  14.3483918944042 4.78604224058769  14.6904629113218 5.23415977961433  C 15.0250976017847 5.6969696969697  15.0250976017847 6.35078053259871  14.6904629113218 7.19559228650138  C 14.6755902584123 7.2910927456382  14.6588585238892 7.36455463728191  14.6402677077524 7.41597796143251  C 14.6216768916155 7.4674012855831  14.6384086261387 7.51331496786042  14.6904629113218 7.55371900826446  C 14.7425171965049 7.5941230486685  14.7871351552333 7.62167125803489  14.824316787507 7.63636363636364  C 14.8614984197806 7.65105601469238  14.9247071946458 7.67309458218549  15.0139431121026 7.70247933884298  C 15.4378137200223 7.83471074380165  15.820784532441 8.00734618916437  16.1628555493586 8.22038567493113  C 16.5049265662763 8.43342516069789  16.8023796244655 8.732782369146  17.0552147239264 9.11845730027548  Z M 15.4824316787507 2.80440771349862  C 15.9211749395798 2.94031221303949  16.2967094255438 3.18089990817263  16.6090351366425 3.52617079889807  C 16.9213608477412 3.87144168962351  17.1240007436326 4.26997245179063  17.2169548243168 4.72176308539945  C 17.3099089050009 5.17355371900826  17.2857408440231 5.60514233241506  17.1444506413832 6.01652892561983  C 17.0849600297453 6.18549127640037  16.975274214538 6.31037649219467  16.8153931957613 6.39118457300276  C 16.6555121769846 6.47199265381083  16.4900539133668 6.48668503213958  16.319018404908 6.43526170798898  C 16.1479828964492 6.37649219467401  16.0215653467187 6.26813590449954  15.9397657557167 6.11019283746556  C 15.8579661647146 5.95224977043159  15.8430935118052 5.78879706152433  15.8951477969883 5.6198347107438  C 16.0438743260829 5.15702479338843  15.9546384086261 4.74931129476584  15.627440044618 4.39669421487603  C 15.3002416806098 4.04407713498623  14.9023982152817 3.91551882460973  14.4339096486336 4.01101928374656  C 14.25543781372 4.04775022956841  14.0881204684886 4.01836547291093  13.9319576129392 3.92286501377411  C 13.7757947573898 3.82736455463728  13.6828406767057 3.69146005509642  13.6530953708868 3.51515151515152  C 13.6159137386131 3.33884297520661  13.6456590444321 3.17539026629936  13.7423312883436 3.02479338842975  C 13.8390035322551 2.87419651056015  13.9765755716676 2.78053259871442  14.1550474065811 2.74380165289256  C 14.601226993865 2.64830119375574  15.0436884179215 2.66850321395776  15.4824316787507 2.80440771349862  Z M 16.3078639152259 0.24793388429752  C 17.2076594162484 0.523415977961433  17.9810373675404 1.01744719926538  18.6279977691021 1.73002754820937  C 19.2749581706637 2.43526170798898  19.6932515337423 3.25252525252525  19.882877858338 4.18181818181818  C 20.0725041829336 5.11111111111111  20.0223089793642 5.99816345270891  19.7322922476297 6.84297520661157  C 19.6653653095371 7.04132231404959  19.5389477598067 7.18824609733701  19.3530395984384 7.28374655647383  C 19.1671314370701 7.37924701561065  18.9737869492471 7.39393939393939  18.7730061349693 7.32782369146006  C 18.5722253206916 7.26170798898072  18.423498791597 7.13682277318641  18.3268265476854 6.95316804407713  C 18.2301543037739 6.76951331496786  18.2115634876371 6.57851239669422  18.271054099275 6.3801652892562  C 18.4792712400074 5.77777777777778  18.5164528722811 5.14600550964187  18.3825989960959 4.48484848484848  C 18.2487451199108 3.8236914600551  17.9512920617215 3.24334251606979  17.4902398215282 2.74380165289256  C 17.0291875813348 2.23691460055096  16.4788994236847 1.88613406795225  15.8393753485778 1.69146005509642  C 15.1998512734709 1.49678604224059  14.5566090351366 1.46556473829201  13.909648633575 1.59779614325069  C 13.7014314928425 1.64187327823691  13.5080870050195 1.60697887970615  13.329615170106 1.4931129476584  C 13.1511433351924 1.37924701561065  13.0395984383714 1.21946740128558  12.9949804796431 1.0137741046832  C 12.9503625209147 0.808080808080808  12.9856850715746 0.618916437098253  13.100948131623 0.446280991735538  C 13.2162111916713 0.273645546372819  13.3779512920617 0.165289256198347  13.5861684327942 0.121212121212121  C 14.5008365867262 -0.069788797061527  15.4080684142034 -0.0275482093663904  16.3078639152259 0.24793388429752  Z " fill-rule="nonzero" fill="#d7d7d7" stroke="none" transform="matrix(1 0 0 1 336 430 )" />
  </g>
</svg>