<?xml version="1.0" encoding="utf-8"?>
<svg version="1.1" xmlns:xlink="http://www.w3.org/1999/xlink" width="40px" height="40px" xmlns="http://www.w3.org/2000/svg">
  <g transform="matrix(1 0 0 1 -1469 -996 )">
    <path d="M 1489 996  C 1500.2 996  1509 1004.8  1509 1016  C 1509 1027.2  1500.2 1036  1489 1036  C 1477.8 1036  1469 1027.2  1469 1016  C 1469 1004.8  1477.8 996  1489 996  Z " fill-rule="nonzero" fill="#ffffff" stroke="none" />
    <path d="M 1489 996.5  C 1499.92 996.5  1508.5 1005.08  1508.5 1016  C 1508.5 1026.92  1499.92 1035.5  1489 1035.5  C 1478.08 1035.5  1469.5 1026.92  1469.5 1016  C 1469.5 1005.08  1478.08 996.5  1489 996.5  Z " stroke-width="1" stroke="#797979" fill="none" />
  </g>
</svg>