<?xml version="1.0" encoding="utf-8"?>
<svg version="1.1" xmlns:xlink="http://www.w3.org/1999/xlink" width="40px" height="40px" xmlns="http://www.w3.org/2000/svg">
  <g transform="matrix(1 0 0 1 -183 -3091 )">
    <path d="M 183 3091  L 223 3091  L 223 3131  L 183 3131  L 183 3091  " fill-rule="nonzero" fill="#cccccc" stroke="none" />
    <path d="M 186 3094  L 220 3094  L 220 3128  L 186 3128  L 186 3094  " fill-rule="nonzero" fill="#ffffff" stroke="none" />
    <path d="M 206.8 3103  C 205.12 3103  203.8 3101.68  203.8 3100  C 203.8 3098.32  205.12 3097  206.8 3097  C 208.48 3097  209.8 3098.32  209.8 3100  C 209.8 3101.68  208.48 3103  206.8 3103  " fill-rule="nonzero" fill="#cccccc" stroke="none" />
    <path d="M 187 3127  L 187 3109.4  L 195 3101.4  L 206.2 3107.8  L 212.6 3106.2  L 219 3107.8  L 219 3127  L 187 3127  " fill-rule="nonzero" fill="#169bd5" stroke="none" />
  </g>
</svg>