<?xml version="1.0" encoding="utf-8"?>
<svg version="1.1" xmlns:xlink="http://www.w3.org/1999/xlink" width="90px" height="90px" xmlns="http://www.w3.org/2000/svg">
  <g transform="matrix(1 0 0 1 -183 -2921 )">
    <path d="M 183 2921  L 273 2921  L 273 3011  L 183 3011  L 183 2921  " fill-rule="nonzero" fill="#cccccc" stroke="none" />
    <path d="M 189 2927  L 267 2927  L 267 3005  L 189 3005  L 189 2927  " fill-rule="nonzero" fill="#ffffff" stroke="none" />
    <path d="M 236.55 2948  C 232.77 2948  229.8 2945.03  229.8 2941.25  C 229.8 2937.47  232.77 2934.5  236.55 2934.5  C 240.33 2934.5  243.3 2937.47  243.3 2941.25  C 243.3 2945.03  240.33 2948  236.55 2948  " fill-rule="nonzero" fill="#cccccc" stroke="none" />
    <path d="M 192 3003  L 192 2962.85  L 210.25 2944.6  L 235.8 2959.2  L 250.4 2955.55  L 265 2959.2  L 265 3003  L 192 3003  " fill-rule="nonzero" fill="#169bd5" stroke="none" />
  </g>
</svg>