<?xml version="1.0" encoding="utf-8"?>
<svg version="1.1" xmlns:xlink="http://www.w3.org/1999/xlink" width="12px" height="12px" viewBox="420 366  12 12" xmlns="http://www.w3.org/2000/svg">
  <path d="M 426 366  C 429.36 366  432 368.64  432 372  C 432 375.36  429.36 378  426 378  C 422.64 378  420 375.36  420 372  C 420 368.64  422.64 366  426 366  Z " fill-rule="nonzero" fill="#ffffff" stroke="none" />
  <path d="M 426 366.5  C 429.08 366.5  431.5 368.92  431.5 372  C 431.5 375.08  429.08 377.5  426 377.5  C 422.92 377.5  420.5 375.08  420.5 372  C 420.5 368.92  422.92 366.5  426 366.5  Z " stroke-width="1" stroke="#797979" fill="none" />
  <path d="M 426 375  C 424.32 375  423 373.68  423 372  C 423 370.32  424.32 369  426 369  C 427.68 369  429 370.32  429 372  C 429 373.68  427.68 375  426 375  " fill-rule="nonzero" fill="#797979" stroke="none" />
</svg>