<?xml version="1.0" encoding="utf-8"?>
<svg version="1.1" xmlns:xlink="http://www.w3.org/1999/xlink" width="12px" height="12px" viewBox="420 544  12 12" xmlns="http://www.w3.org/2000/svg">
  <path d="M 426 544  C 429.36 544  432 546.64  432 550  C 432 553.36  429.36 556  426 556  C 422.64 556  420 553.36  420 550  C 420 546.64  422.64 544  426 544  Z " fill-rule="nonzero" fill="#ffffff" stroke="none" />
  <path d="M 426 544.5  C 429.08 544.5  431.5 546.92  431.5 550  C 431.5 553.08  429.08 555.5  426 555.5  C 422.92 555.5  420.5 553.08  420.5 550  C 420.5 546.92  422.92 544.5  426 544.5  Z " stroke-width="1" stroke="#797979" fill="none" />
  <path d="M 426 553  C 424.32 553  423 551.68  423 550  C 423 548.32  424.32 547  426 547  C 427.68 547  429 548.32  429 550  C 429 551.68  427.68 553  426 553  " fill-rule="nonzero" fill="#797979" stroke="none" />
</svg>