<?xml version="1.0" encoding="utf-8"?>
<svg version="1.1" xmlns:xlink="http://www.w3.org/1999/xlink" width="12px" height="12px" viewBox="299 514  12 12" xmlns="http://www.w3.org/2000/svg">
  <path d="M 305 514  C 308.36 514  311 516.64  311 520  C 311 523.36  308.36 526  305 526  C 301.64 526  299 523.36  299 520  C 299 516.64  301.64 514  305 514  Z " fill-rule="nonzero" fill="#ffffff" stroke="none" />
  <path d="M 305 514.5  C 308.08 514.5  310.5 516.92  310.5 520  C 310.5 523.08  308.08 525.5  305 525.5  C 301.92 525.5  299.5 523.08  299.5 520  C 299.5 516.92  301.92 514.5  305 514.5  Z " stroke-width="1" stroke="#797979" fill="none" />
  <path d="M 305 523  C 303.32 523  302 521.68  302 520  C 302 518.32  303.32 517  305 517  C 306.68 517  308 518.32  308 520  C 308 521.68  306.68 523  305 523  " fill-rule="nonzero" fill="#797979" stroke="none" />
</svg>