<?xml version="1.0" encoding="utf-8"?>
<svg version="1.1" xmlns:xlink="http://www.w3.org/1999/xlink" width="12px" height="12px" viewBox="299 483  12 12" xmlns="http://www.w3.org/2000/svg">
  <path d="M 305 483  C 308.36 483  311 485.64  311 489  C 311 492.36  308.36 495  305 495  C 301.64 495  299 492.36  299 489  C 299 485.64  301.64 483  305 483  Z " fill-rule="nonzero" fill="#ffffff" stroke="none" />
  <path d="M 305 483.5  C 308.08 483.5  310.5 485.92  310.5 489  C 310.5 492.08  308.08 494.5  305 494.5  C 301.92 494.5  299.5 492.08  299.5 489  C 299.5 485.92  301.92 483.5  305 483.5  Z " stroke-width="1" stroke="#797979" fill="none" />
  <path d="M 305 492  C 303.32 492  302 490.68  302 489  C 302 487.32  303.32 486  305 486  C 306.68 486  308 487.32  308 489  C 308 490.68  306.68 492  305 492  " fill-rule="nonzero" fill="#797979" stroke="none" />
</svg>