<?xml version="1.0" encoding="utf-8"?>
<svg version="1.1" xmlns:xlink="http://www.w3.org/1999/xlink" width="12px" height="12px" viewBox="420 483  12 12" xmlns="http://www.w3.org/2000/svg">
  <path d="M 426 483  C 429.36 483  432 485.64  432 489  C 432 492.36  429.36 495  426 495  C 422.64 495  420 492.36  420 489  C 420 485.64  422.64 483  426 483  Z " fill-rule="nonzero" fill="#f0f0f0" stroke="none" />
  <path d="M 426 483.5  C 429.08 483.5  431.5 485.92  431.5 489  C 431.5 492.08  429.08 494.5  426 494.5  C 422.92 494.5  420.5 492.08  420.5 489  C 420.5 485.92  422.92 483.5  426 483.5  Z " stroke-width="1" stroke="#797979" fill="none" />
  <path d="M 426 492  C 424.32 492  423 490.68  423 489  C 423 487.32  424.32 486  426 486  C 427.68 486  429 487.32  429 489  C 429 490.68  427.68 492  426 492  " fill-rule="nonzero" fill="#797979" stroke="none" />
</svg>