<?xml version="1.0" encoding="utf-8"?>
<svg version="1.1" xmlns:xlink="http://www.w3.org/1999/xlink" width="12px" height="12px" viewBox="299 649  12 12" xmlns="http://www.w3.org/2000/svg">
  <path d="M 305 649  C 308.36 649  311 651.64  311 655  C 311 658.36  308.36 661  305 661  C 301.64 661  299 658.36  299 655  C 299 651.64  301.64 649  305 649  Z " fill-rule="nonzero" fill="#f0f0f0" stroke="none" />
  <path d="M 305 649.5  C 308.08 649.5  310.5 651.92  310.5 655  C 310.5 658.08  308.08 660.5  305 660.5  C 301.92 660.5  299.5 658.08  299.5 655  C 299.5 651.92  301.92 649.5  305 649.5  Z " stroke-width="1" stroke="#797979" fill="none" />
  <path d="M 305 658  C 303.32 658  302 656.68  302 655  C 302 653.32  303.32 652  305 652  C 306.68 652  308 653.32  308 655  C 308 656.68  306.68 658  305 658  " fill-rule="nonzero" fill="#797979" stroke="none" />
</svg>