<?xml version="1.0" encoding="utf-8"?>
<svg version="1.1" xmlns:xlink="http://www.w3.org/1999/xlink" width="12px" height="12px" viewBox="420 649  12 12" xmlns="http://www.w3.org/2000/svg">
  <path d="M 426 649  C 429.36 649  432 651.64  432 655  C 432 658.36  429.36 661  426 661  C 422.64 661  420 658.36  420 655  C 420 651.64  422.64 649  426 649  Z " fill-rule="nonzero" fill="#ffffff" stroke="none" />
  <path d="M 426 649.5  C 429.08 649.5  431.5 651.92  431.5 655  C 431.5 658.08  429.08 660.5  426 660.5  C 422.92 660.5  420.5 658.08  420.5 655  C 420.5 651.92  422.92 649.5  426 649.5  Z " stroke-width="1" stroke="#797979" fill="none" />
  <path d="M 426 658  C 424.32 658  423 656.68  423 655  C 423 653.32  424.32 652  426 652  C 427.68 652  429 653.32  429 655  C 429 656.68  427.68 658  426 658  " fill-rule="nonzero" fill="#797979" stroke="none" />
</svg>