<?xml version="1.0" encoding="utf-8"?>
<svg version="1.1" xmlns:xlink="http://www.w3.org/1999/xlink" width="12px" height="12px" viewBox="299 680  12 12" xmlns="http://www.w3.org/2000/svg">
  <path d="M 305 680  C 308.36 680  311 682.64  311 686  C 311 689.36  308.36 692  305 692  C 301.64 692  299 689.36  299 686  C 299 682.64  301.64 680  305 680  Z " fill-rule="nonzero" fill="#f0f0f0" stroke="none" />
  <path d="M 305 680.5  C 308.08 680.5  310.5 682.92  310.5 686  C 310.5 689.08  308.08 691.5  305 691.5  C 301.92 691.5  299.5 689.08  299.5 686  C 299.5 682.92  301.92 680.5  305 680.5  Z " stroke-width="1" stroke="#797979" fill="none" />
  <path d="M 305 689  C 303.32 689  302 687.68  302 686  C 302 684.32  303.32 683  305 683  C 306.68 683  308 684.32  308 686  C 308 687.68  306.68 689  305 689  " fill-rule="nonzero" fill="#797979" stroke="none" />
</svg>