<?xml version="1.0" encoding="utf-8"?>
<svg version="1.1" xmlns:xlink="http://www.w3.org/1999/xlink" width="12px" height="12px" viewBox="420 710  12 12" xmlns="http://www.w3.org/2000/svg">
  <path d="M 426 710  C 429.36 710  432 712.64  432 716  C 432 719.36  429.36 722  426 722  C 422.64 722  420 719.36  420 716  C 420 712.64  422.64 710  426 710  Z " fill-rule="nonzero" fill="#f0f0f0" stroke="none" />
  <path d="M 426 710.5  C 429.08 710.5  431.5 712.92  431.5 716  C 431.5 719.08  429.08 721.5  426 721.5  C 422.92 721.5  420.5 719.08  420.5 716  C 420.5 712.92  422.92 710.5  426 710.5  Z " stroke-width="1" stroke="#797979" fill="none" />
  <path d="M 426 719  C 424.32 719  423 717.68  423 716  C 423 714.32  424.32 713  426 713  C 427.68 713  429 714.32  429 716  C 429 717.68  427.68 719  426 719  " fill-rule="nonzero" fill="#797979" stroke="none" />
</svg>