<?xml version="1.0" encoding="utf-8"?>
<svg version="1.1" xmlns:xlink="http://www.w3.org/1999/xlink" width="36px" height="36px" preserveAspectRatio="xMinYMid meet" viewBox="1584 339  36 34" xmlns="http://www.w3.org/2000/svg">
  <g transform="matrix(-1 0 0 -1 3204 712 )">
    <path d="M 1543.5 296  A 3 3 0 0 0 1540.5 299 A 3 3 0 0 0 1543.5 302 A 3 3 0 0 0 1546.5 299 A 3 3 0 0 0 1543.5 296 Z M 1537.5 408.3  L 1543.5 415  L 1549.5 408.3  L 1543.5 410.6  L 1537.5 408.3  Z " fill-rule="nonzero" fill="#d9001b" stroke="none" transform="matrix(0.00200757896940195 -0.99999798481131 0.99999798481131 0.00200757896940195 1184.90201826031 1898.28319523264 )" />
    <path d="M 1543.5 297  L 1543.5 414  " stroke-width="1" stroke-dasharray="9,4" stroke="#d9001b" fill="none" transform="matrix(0.00200757896940195 -0.99999798481131 0.99999798481131 0.00200757896940195 1184.90201826031 1898.28319523264 )" />
  </g>
</svg>