<?xml version="1.0" encoding="utf-8"?>
<svg version="1.1" xmlns:xlink="http://www.w3.org/1999/xlink" width="20px" height="20px" viewBox="409 2064  20 20" xmlns="http://www.w3.org/2000/svg">
  <path d="M 419 2064  C 424.6 2064  429 2068.4  429 2074  C 429 2079.6  424.6 2084  419 2084  C 413.4 2084  409 2079.6  409 2074  C 409 2068.4  413.4 2064  419 2064  Z " fill-rule="nonzero" fill="#f0f0f0" stroke="none" />
  <path d="M 419 2064.5  C 424.32 2064.5  428.5 2068.68  428.5 2074  C 428.5 2079.32  424.32 2083.5  419 2083.5  C 413.68 2083.5  409.5 2079.32  409.5 2074  C 409.5 2068.68  413.68 2064.5  419 2064.5  Z " stroke-width="1" stroke="#797979" fill="none" />
  <path d="M 419 2079  C 416.2 2079  414 2076.8  414 2074  C 414 2071.2  416.2 2069  419 2069  C 421.8 2069  424 2071.2  424 2074  C 424 2076.8  421.8 2079  419 2079  " fill-rule="nonzero" fill="#797979" stroke="none" />
</svg>