<?xml version="1.0" encoding="utf-8"?>
<svg version="1.1" xmlns:xlink="http://www.w3.org/1999/xlink" width="20px" height="20px" viewBox="486 2026  20 20" xmlns="http://www.w3.org/2000/svg">
  <path d="M 496 2026  C 501.6 2026  506 2030.4  506 2036  C 506 2041.6  501.6 2046  496 2046  C 490.4 2046  486 2041.6  486 2036  C 486 2030.4  490.4 2026  496 2026  Z " fill-rule="nonzero" fill="#ffffff" stroke="none" />
  <path d="M 496 2026.5  C 501.32 2026.5  505.5 2030.68  505.5 2036  C 505.5 2041.32  501.32 2045.5  496 2045.5  C 490.68 2045.5  486.5 2041.32  486.5 2036  C 486.5 2030.68  490.68 2026.5  496 2026.5  Z " stroke-width="1" stroke="#797979" fill="none" />
  <path d="M 496 2041  C 493.2 2041  491 2038.8  491 2036  C 491 2033.2  493.2 2031  496 2031  C 498.8 2031  501 2033.2  501 2036  C 501 2038.8  498.8 2041  496 2041  " fill-rule="nonzero" fill="#797979" stroke="none" />
</svg>