<?xml version="1.0" encoding="utf-8"?>
<svg version="1.1" xmlns:xlink="http://www.w3.org/1999/xlink" width="20px" height="20px" viewBox="486 2139  20 20" xmlns="http://www.w3.org/2000/svg">
  <path d="M 496 2139  C 501.6 2139  506 2143.4  506 2149  C 506 2154.6  501.6 2159  496 2159  C 490.4 2159  486 2154.6  486 2149  C 486 2143.4  490.4 2139  496 2139  Z " fill-rule="nonzero" fill="#ffffff" stroke="none" />
  <path d="M 496 2139.5  C 501.32 2139.5  505.5 2143.68  505.5 2149  C 505.5 2154.32  501.32 2158.5  496 2158.5  C 490.68 2158.5  486.5 2154.32  486.5 2149  C 486.5 2143.68  490.68 2139.5  496 2139.5  Z " stroke-width="1" stroke="#797979" fill="none" />
  <path d="M 496 2154  C 493.2 2154  491 2151.8  491 2149  C 491 2146.2  493.2 2144  496 2144  C 498.8 2144  501 2146.2  501 2149  C 501 2151.8  498.8 2154  496 2154  " fill-rule="nonzero" fill="#797979" stroke="none" />
</svg>