<?xml version="1.0" encoding="utf-8"?>
<svg version="1.1" xmlns:xlink="http://www.w3.org/1999/xlink" width="20px" height="20px" viewBox="486 2064  20 20" xmlns="http://www.w3.org/2000/svg">
  <path d="M 496 2064  C 501.6 2064  506 2068.4  506 2074  C 506 2079.6  501.6 2084  496 2084  C 490.4 2084  486 2079.6  486 2074  C 486 2068.4  490.4 2064  496 2064  Z " fill-rule="nonzero" fill="#ffffff" stroke="none" />
  <path d="M 496 2064.5  C 501.32 2064.5  505.5 2068.68  505.5 2074  C 505.5 2079.32  501.32 2083.5  496 2083.5  C 490.68 2083.5  486.5 2079.32  486.5 2074  C 486.5 2068.68  490.68 2064.5  496 2064.5  Z " stroke-width="1" stroke="#797979" fill="none" />
  <path d="M 496 2079  C 493.2 2079  491 2076.8  491 2074  C 491 2071.2  493.2 2069  496 2069  C 498.8 2069  501 2071.2  501 2074  C 501 2076.8  498.8 2079  496 2079  " fill-rule="nonzero" fill="#797979" stroke="none" />
</svg>