<?xml version="1.0" encoding="utf-8"?>
<svg version="1.1" xmlns:xlink="http://www.w3.org/1999/xlink" width="20px" height="20px" viewBox="486 2101  20 20" xmlns="http://www.w3.org/2000/svg">
  <path d="M 496 2101  C 501.6 2101  506 2105.4  506 2111  C 506 2116.6  501.6 2121  496 2121  C 490.4 2121  486 2116.6  486 2111  C 486 2105.4  490.4 2101  496 2101  Z " fill-rule="nonzero" fill="#ffffff" stroke="none" />
  <path d="M 496 2101.5  C 501.32 2101.5  505.5 2105.68  505.5 2111  C 505.5 2116.32  501.32 2120.5  496 2120.5  C 490.68 2120.5  486.5 2116.32  486.5 2111  C 486.5 2105.68  490.68 2101.5  496 2101.5  Z " stroke-width="1" stroke="#797979" fill="none" />
  <path d="M 496 2116  C 493.2 2116  491 2113.8  491 2111  C 491 2108.2  493.2 2106  496 2106  C 498.8 2106  501 2108.2  501 2111  C 501 2113.8  498.8 2116  496 2116  " fill-rule="nonzero" fill="#797979" stroke="none" />
</svg>