<?xml version="1.0" encoding="utf-8"?>
<svg version="1.1" xmlns:xlink="http://www.w3.org/1999/xlink" width="20px" height="20px" viewBox="409 2139  20 20" xmlns="http://www.w3.org/2000/svg">
  <path d="M 419 2139  C 424.6 2139  429 2143.4  429 2149  C 429 2154.6  424.6 2159  419 2159  C 413.4 2159  409 2154.6  409 2149  C 409 2143.4  413.4 2139  419 2139  Z " fill-rule="nonzero" fill="#f0f0f0" stroke="none" />
  <path d="M 419 2139.5  C 424.32 2139.5  428.5 2143.68  428.5 2149  C 428.5 2154.32  424.32 2158.5  419 2158.5  C 413.68 2158.5  409.5 2154.32  409.5 2149  C 409.5 2143.68  413.68 2139.5  419 2139.5  Z " stroke-width="1" stroke="#797979" fill="none" />
  <path d="M 419 2154  C 416.2 2154  414 2151.8  414 2149  C 414 2146.2  416.2 2144  419 2144  C 421.8 2144  424 2146.2  424 2149  C 424 2151.8  421.8 2154  419 2154  " fill-rule="nonzero" fill="#797979" stroke="none" />
</svg>