<?xml version="1.0" encoding="utf-8"?>
<svg version="1.1" xmlns:xlink="http://www.w3.org/1999/xlink" width="20px" height="20px" viewBox="409 2101  20 20" xmlns="http://www.w3.org/2000/svg">
  <path d="M 419 2101  C 424.6 2101  429 2105.4  429 2111  C 429 2116.6  424.6 2121  419 2121  C 413.4 2121  409 2116.6  409 2111  C 409 2105.4  413.4 2101  419 2101  Z " fill-rule="nonzero" fill="#ffffff" stroke="none" />
  <path d="M 419 2101.5  C 424.32 2101.5  428.5 2105.68  428.5 2111  C 428.5 2116.32  424.32 2120.5  419 2120.5  C 413.68 2120.5  409.5 2116.32  409.5 2111  C 409.5 2105.68  413.68 2101.5  419 2101.5  Z " stroke-width="1" stroke="#797979" fill="none" />
  <path d="M 419 2116  C 416.2 2116  414 2113.8  414 2111  C 414 2108.2  416.2 2106  419 2106  C 421.8 2106  424 2108.2  424 2111  C 424 2113.8  421.8 2116  419 2116  " fill-rule="nonzero" fill="#797979" stroke="none" />
</svg>