<?xml version="1.0" encoding="utf-8"?>
<svg version="1.1" xmlns:xlink="http://www.w3.org/1999/xlink" width="20px" height="20px" viewBox="613 2064  20 20" xmlns="http://www.w3.org/2000/svg">
  <path d="M 623 2064  C 628.6 2064  633 2068.4  633 2074  C 633 2079.6  628.6 2084  623 2084  C 617.4 2084  613 2079.6  613 2074  C 613 2068.4  617.4 2064  623 2064  Z " fill-rule="nonzero" fill="#ffffff" stroke="none" />
  <path d="M 623 2064.5  C 628.32 2064.5  632.5 2068.68  632.5 2074  C 632.5 2079.32  628.32 2083.5  623 2083.5  C 617.68 2083.5  613.5 2079.32  613.5 2074  C 613.5 2068.68  617.68 2064.5  623 2064.5  Z " stroke-width="1" stroke="#797979" fill="none" />
  <path d="M 623 2079  C 620.2 2079  618 2076.8  618 2074  C 618 2071.2  620.2 2069  623 2069  C 625.8 2069  628 2071.2  628 2074  C 628 2076.8  625.8 2079  623 2079  " fill-rule="nonzero" fill="#797979" stroke="none" />
</svg>