<?xml version="1.0" encoding="utf-8"?>
<svg version="1.1" xmlns:xlink="http://www.w3.org/1999/xlink" width="20px" height="20px" viewBox="613 2139  20 20" xmlns="http://www.w3.org/2000/svg">
  <path d="M 623 2139  C 628.6 2139  633 2143.4  633 2149  C 633 2154.6  628.6 2159  623 2159  C 617.4 2159  613 2154.6  613 2149  C 613 2143.4  617.4 2139  623 2139  Z " fill-rule="nonzero" fill="#ffffff" stroke="none" />
  <path d="M 623 2139.5  C 628.32 2139.5  632.5 2143.68  632.5 2149  C 632.5 2154.32  628.32 2158.5  623 2158.5  C 617.68 2158.5  613.5 2154.32  613.5 2149  C 613.5 2143.68  617.68 2139.5  623 2139.5  Z " stroke-width="1" stroke="#797979" fill="none" />
  <path d="M 623 2154  C 620.2 2154  618 2151.8  618 2149  C 618 2146.2  620.2 2144  623 2144  C 625.8 2144  628 2146.2  628 2149  C 628 2151.8  625.8 2154  623 2154  " fill-rule="nonzero" fill="#797979" stroke="none" />
</svg>