<?xml version="1.0" encoding="utf-8"?>
<svg version="1.1" xmlns:xlink="http://www.w3.org/1999/xlink" width="20px" height="20px" viewBox="613 2026  20 20" xmlns="http://www.w3.org/2000/svg">
  <path d="M 623 2026  C 628.6 2026  633 2030.4  633 2036  C 633 2041.6  628.6 2046  623 2046  C 617.4 2046  613 2041.6  613 2036  C 613 2030.4  617.4 2026  623 2026  Z " fill-rule="nonzero" fill="#ffffff" stroke="none" />
  <path d="M 623 2026.5  C 628.32 2026.5  632.5 2030.68  632.5 2036  C 632.5 2041.32  628.32 2045.5  623 2045.5  C 617.68 2045.5  613.5 2041.32  613.5 2036  C 613.5 2030.68  617.68 2026.5  623 2026.5  Z " stroke-width="1" stroke="#797979" fill="none" />
  <path d="M 623 2041  C 620.2 2041  618 2038.8  618 2036  C 618 2033.2  620.2 2031  623 2031  C 625.8 2031  628 2033.2  628 2036  C 628 2038.8  625.8 2041  623 2041  " fill-rule="nonzero" fill="#797979" stroke="none" />
</svg>