<?xml version="1.0" encoding="utf-8"?>
<svg version="1.1" xmlns:xlink="http://www.w3.org/1999/xlink" width="20px" height="20px" viewBox="613 2101  20 20" xmlns="http://www.w3.org/2000/svg">
  <path d="M 623 2101  C 628.6 2101  633 2105.4  633 2111  C 633 2116.6  628.6 2121  623 2121  C 617.4 2121  613 2116.6  613 2111  C 613 2105.4  617.4 2101  623 2101  Z " fill-rule="nonzero" fill="#f0f0f0" stroke="none" />
  <path d="M 623 2101.5  C 628.32 2101.5  632.5 2105.68  632.5 2111  C 632.5 2116.32  628.32 2120.5  623 2120.5  C 617.68 2120.5  613.5 2116.32  613.5 2111  C 613.5 2105.68  617.68 2101.5  623 2101.5  Z " stroke-width="1" stroke="#797979" fill="none" />
  <path d="M 623 2116  C 620.2 2116  618 2113.8  618 2111  C 618 2108.2  620.2 2106  623 2106  C 625.8 2106  628 2108.2  628 2111  C 628 2113.8  625.8 2116  623 2116  " fill-rule="nonzero" fill="#797979" stroke="none" />
</svg>