<?xml version="1.0" encoding="utf-8"?>
<svg version="1.1" xmlns:xlink="http://www.w3.org/1999/xlink" width="20px" height="20px" viewBox="690 2101  20 20" xmlns="http://www.w3.org/2000/svg">
  <path d="M 700 2101  C 705.6 2101  710 2105.4  710 2111  C 710 2116.6  705.6 2121  700 2121  C 694.4 2121  690 2116.6  690 2111  C 690 2105.4  694.4 2101  700 2101  Z " fill-rule="nonzero" fill="#f0f0f0" stroke="none" />
  <path d="M 700 2101.5  C 705.32 2101.5  709.5 2105.68  709.5 2111  C 709.5 2116.32  705.32 2120.5  700 2120.5  C 694.68 2120.5  690.5 2116.32  690.5 2111  C 690.5 2105.68  694.68 2101.5  700 2101.5  Z " stroke-width="1" stroke="#797979" fill="none" />
  <path d="M 700 2116  C 697.2 2116  695 2113.8  695 2111  C 695 2108.2  697.2 2106  700 2106  C 702.8 2106  705 2108.2  705 2111  C 705 2113.8  702.8 2116  700 2116  " fill-rule="nonzero" fill="#797979" stroke="none" />
</svg>