<?xml version="1.0" encoding="utf-8"?>
<svg version="1.1" xmlns:xlink="http://www.w3.org/1999/xlink" width="20px" height="20px" viewBox="690 2064  20 20" xmlns="http://www.w3.org/2000/svg">
  <path d="M 700 2064  C 705.6 2064  710 2068.4  710 2074  C 710 2079.6  705.6 2084  700 2084  C 694.4 2084  690 2079.6  690 2074  C 690 2068.4  694.4 2064  700 2064  Z " fill-rule="nonzero" fill="#ffffff" stroke="none" />
  <path d="M 700 2064.5  C 705.32 2064.5  709.5 2068.68  709.5 2074  C 709.5 2079.32  705.32 2083.5  700 2083.5  C 694.68 2083.5  690.5 2079.32  690.5 2074  C 690.5 2068.68  694.68 2064.5  700 2064.5  Z " stroke-width="1" stroke="#797979" fill="none" />
  <path d="M 700 2079  C 697.2 2079  695 2076.8  695 2074  C 695 2071.2  697.2 2069  700 2069  C 702.8 2069  705 2071.2  705 2074  C 705 2076.8  702.8 2079  700 2079  " fill-rule="nonzero" fill="#797979" stroke="none" />
</svg>