<?xml version="1.0" encoding="utf-8"?>
<svg version="1.1" xmlns:xlink="http://www.w3.org/1999/xlink" width="20px" height="20px" viewBox="690 2139  20 20" xmlns="http://www.w3.org/2000/svg">
  <path d="M 700 2139  C 705.6 2139  710 2143.4  710 2149  C 710 2154.6  705.6 2159  700 2159  C 694.4 2159  690 2154.6  690 2149  C 690 2143.4  694.4 2139  700 2139  Z " fill-rule="nonzero" fill="#f0f0f0" stroke="none" />
  <path d="M 700 2139.5  C 705.32 2139.5  709.5 2143.68  709.5 2149  C 709.5 2154.32  705.32 2158.5  700 2158.5  C 694.68 2158.5  690.5 2154.32  690.5 2149  C 690.5 2143.68  694.68 2139.5  700 2139.5  Z " stroke-width="1" stroke="#797979" fill="none" />
  <path d="M 700 2154  C 697.2 2154  695 2151.8  695 2149  C 695 2146.2  697.2 2144  700 2144  C 702.8 2144  705 2146.2  705 2149  C 705 2151.8  702.8 2154  700 2154  " fill-rule="nonzero" fill="#797979" stroke="none" />
</svg>