<?xml version="1.0" encoding="utf-8"?>
<svg version="1.1" xmlns:xlink="http://www.w3.org/1999/xlink" width="20px" height="20px" viewBox="894 2064  20 20" xmlns="http://www.w3.org/2000/svg">
  <path d="M 904 2064  C 909.6 2064  914 2068.4  914 2074  C 914 2079.6  909.6 2084  904 2084  C 898.4 2084  894 2079.6  894 2074  C 894 2068.4  898.4 2064  904 2064  Z " fill-rule="nonzero" fill="#ffffff" stroke="none" />
  <path d="M 904 2064.5  C 909.32 2064.5  913.5 2068.68  913.5 2074  C 913.5 2079.32  909.32 2083.5  904 2083.5  C 898.68 2083.5  894.5 2079.32  894.5 2074  C 894.5 2068.68  898.68 2064.5  904 2064.5  Z " stroke-width="1" stroke="#797979" fill="none" />
  <path d="M 904 2079  C 901.2 2079  899 2076.8  899 2074  C 899 2071.2  901.2 2069  904 2069  C 906.8 2069  909 2071.2  909 2074  C 909 2076.8  906.8 2079  904 2079  " fill-rule="nonzero" fill="#797979" stroke="none" />
</svg>