<?xml version="1.0" encoding="utf-8"?>
<svg version="1.1" xmlns:xlink="http://www.w3.org/1999/xlink" width="20px" height="20px" viewBox="690 2177  20 20" xmlns="http://www.w3.org/2000/svg">
  <path d="M 700 2177  C 705.6 2177  710 2181.4  710 2187  C 710 2192.6  705.6 2197  700 2197  C 694.4 2197  690 2192.6  690 2187  C 690 2181.4  694.4 2177  700 2177  Z " fill-rule="nonzero" fill="#f0f0f0" stroke="none" />
  <path d="M 700 2177.5  C 705.32 2177.5  709.5 2181.68  709.5 2187  C 709.5 2192.32  705.32 2196.5  700 2196.5  C 694.68 2196.5  690.5 2192.32  690.5 2187  C 690.5 2181.68  694.68 2177.5  700 2177.5  Z " stroke-width="1" stroke="#797979" fill="none" />
  <path d="M 700 2192  C 697.2 2192  695 2189.8  695 2187  C 695 2184.2  697.2 2182  700 2182  C 702.8 2182  705 2184.2  705 2187  C 705 2189.8  702.8 2192  700 2192  " fill-rule="nonzero" fill="#797979" stroke="none" />
</svg>