<?xml version="1.0" encoding="utf-8"?>
<svg version="1.1" xmlns:xlink="http://www.w3.org/1999/xlink" width="20px" height="20px" viewBox="1134 2166  20 20" xmlns="http://www.w3.org/2000/svg">
  <path d="M 1144 2166  C 1149.6 2166  1154 2170.4  1154 2176  C 1154 2181.6  1149.6 2186  1144 2186  C 1138.4 2186  1134 2181.6  1134 2176  C 1134 2170.4  1138.4 2166  1144 2166  Z " fill-rule="nonzero" fill="#ffffff" stroke="none" />
  <path d="M 1144 2166.5  C 1149.32 2166.5  1153.5 2170.68  1153.5 2176  C 1153.5 2181.32  1149.32 2185.5  1144 2185.5  C 1138.68 2185.5  1134.5 2181.32  1134.5 2176  C 1134.5 2170.68  1138.68 2166.5  1144 2166.5  Z " stroke-width="1" stroke="#797979" fill="none" />
  <path d="M 1144 2181  C 1141.2 2181  1139 2178.8  1139 2176  C 1139 2173.2  1141.2 2171  1144 2171  C 1146.8 2171  1149 2173.2  1149 2176  C 1149 2178.8  1146.8 2181  1144 2181  " fill-rule="nonzero" fill="#797979" stroke="none" />
</svg>