<?xml version="1.0" encoding="utf-8"?>
<svg version="1.1" xmlns:xlink="http://www.w3.org/1999/xlink" width="20px" height="20px" viewBox="1211 2166  20 20" xmlns="http://www.w3.org/2000/svg">
  <path d="M 1221 2166  C 1226.6 2166  1231 2170.4  1231 2176  C 1231 2181.6  1226.6 2186  1221 2186  C 1215.4 2186  1211 2181.6  1211 2176  C 1211 2170.4  1215.4 2166  1221 2166  Z " fill-rule="nonzero" fill="#f0f0f0" stroke="none" />
  <path d="M 1221 2166.5  C 1226.32 2166.5  1230.5 2170.68  1230.5 2176  C 1230.5 2181.32  1226.32 2185.5  1221 2185.5  C 1215.68 2185.5  1211.5 2181.32  1211.5 2176  C 1211.5 2170.68  1215.68 2166.5  1221 2166.5  Z " stroke-width="1" stroke="#797979" fill="none" />
  <path d="M 1221 2181  C 1218.2 2181  1216 2178.8  1216 2176  C 1216 2173.2  1218.2 2171  1221 2171  C 1223.8 2171  1226 2173.2  1226 2176  C 1226 2178.8  1223.8 2181  1221 2181  " fill-rule="nonzero" fill="#797979" stroke="none" />
</svg>