<?xml version="1.0" encoding="utf-8"?>
<svg version="1.1" xmlns:xlink="http://www.w3.org/1999/xlink" width="20px" height="20px" viewBox="409 2384  20 20" xmlns="http://www.w3.org/2000/svg">
  <path d="M 419 2384  C 424.6 2384  429 2388.4  429 2394  C 429 2399.6  424.6 2404  419 2404  C 413.4 2404  409 2399.6  409 2394  C 409 2388.4  413.4 2384  419 2384  Z " fill-rule="nonzero" fill="#f0f0f0" stroke="none" />
  <path d="M 419 2384.5  C 424.32 2384.5  428.5 2388.68  428.5 2394  C 428.5 2399.32  424.32 2403.5  419 2403.5  C 413.68 2403.5  409.5 2399.32  409.5 2394  C 409.5 2388.68  413.68 2384.5  419 2384.5  Z " stroke-width="1" stroke="#797979" fill="none" />
  <path d="M 419 2399  C 416.2 2399  414 2396.8  414 2394  C 414 2391.2  416.2 2389  419 2389  C 421.8 2389  424 2391.2  424 2394  C 424 2396.8  421.8 2399  419 2399  " fill-rule="nonzero" fill="#797979" stroke="none" />
</svg>