<?xml version="1.0" encoding="utf-8"?>
<svg version="1.1" xmlns:xlink="http://www.w3.org/1999/xlink" width="20px" height="20px" viewBox="409 2421  20 20" xmlns="http://www.w3.org/2000/svg">
  <path d="M 419 2421  C 424.6 2421  429 2425.4  429 2431  C 429 2436.6  424.6 2441  419 2441  C 413.4 2441  409 2436.6  409 2431  C 409 2425.4  413.4 2421  419 2421  Z " fill-rule="nonzero" fill="#ffffff" stroke="none" />
  <path d="M 419 2421.5  C 424.32 2421.5  428.5 2425.68  428.5 2431  C 428.5 2436.32  424.32 2440.5  419 2440.5  C 413.68 2440.5  409.5 2436.32  409.5 2431  C 409.5 2425.68  413.68 2421.5  419 2421.5  Z " stroke-width="1" stroke="#797979" fill="none" />
  <path d="M 419 2436  C 416.2 2436  414 2433.8  414 2431  C 414 2428.2  416.2 2426  419 2426  C 421.8 2426  424 2428.2  424 2431  C 424 2433.8  421.8 2436  419 2436  " fill-rule="nonzero" fill="#797979" stroke="none" />
</svg>