<?xml version="1.0" encoding="utf-8"?>
<svg version="1.1" xmlns:xlink="http://www.w3.org/1999/xlink" width="20px" height="20px" viewBox="486 2384  20 20" xmlns="http://www.w3.org/2000/svg">
  <path d="M 496 2384  C 501.6 2384  506 2388.4  506 2394  C 506 2399.6  501.6 2404  496 2404  C 490.4 2404  486 2399.6  486 2394  C 486 2388.4  490.4 2384  496 2384  Z " fill-rule="nonzero" fill="#ffffff" stroke="none" />
  <path d="M 496 2384.5  C 501.32 2384.5  505.5 2388.68  505.5 2394  C 505.5 2399.32  501.32 2403.5  496 2403.5  C 490.68 2403.5  486.5 2399.32  486.5 2394  C 486.5 2388.68  490.68 2384.5  496 2384.5  Z " stroke-width="1" stroke="#797979" fill="none" />
  <path d="M 496 2399  C 493.2 2399  491 2396.8  491 2394  C 491 2391.2  493.2 2389  496 2389  C 498.8 2389  501 2391.2  501 2394  C 501 2396.8  498.8 2399  496 2399  " fill-rule="nonzero" fill="#797979" stroke="none" />
</svg>