<?xml version="1.0" encoding="utf-8"?>
<svg version="1.1" xmlns:xlink="http://www.w3.org/1999/xlink" width="20px" height="20px" viewBox="486 2346  20 20" xmlns="http://www.w3.org/2000/svg">
  <path d="M 496 2346  C 501.6 2346  506 2350.4  506 2356  C 506 2361.6  501.6 2366  496 2366  C 490.4 2366  486 2361.6  486 2356  C 486 2350.4  490.4 2346  496 2346  Z " fill-rule="nonzero" fill="#ffffff" stroke="none" />
  <path d="M 496 2346.5  C 501.32 2346.5  505.5 2350.68  505.5 2356  C 505.5 2361.32  501.32 2365.5  496 2365.5  C 490.68 2365.5  486.5 2361.32  486.5 2356  C 486.5 2350.68  490.68 2346.5  496 2346.5  Z " stroke-width="1" stroke="#797979" fill="none" />
  <path d="M 496 2361  C 493.2 2361  491 2358.8  491 2356  C 491 2353.2  493.2 2351  496 2351  C 498.8 2351  501 2353.2  501 2356  C 501 2358.8  498.8 2361  496 2361  " fill-rule="nonzero" fill="#797979" stroke="none" />
</svg>