<?xml version="1.0" encoding="utf-8"?>
<svg version="1.1" xmlns:xlink="http://www.w3.org/1999/xlink" width="20px" height="20px" viewBox="409 2346  20 20" xmlns="http://www.w3.org/2000/svg">
  <path d="M 419 2346  C 424.6 2346  429 2350.4  429 2356  C 429 2361.6  424.6 2366  419 2366  C 413.4 2366  409 2361.6  409 2356  C 409 2350.4  413.4 2346  419 2346  Z " fill-rule="nonzero" fill="#f0f0f0" stroke="none" />
  <path d="M 419 2346.5  C 424.32 2346.5  428.5 2350.68  428.5 2356  C 428.5 2361.32  424.32 2365.5  419 2365.5  C 413.68 2365.5  409.5 2361.32  409.5 2356  C 409.5 2350.68  413.68 2346.5  419 2346.5  Z " stroke-width="1" stroke="#797979" fill="none" />
  <path d="M 419 2361  C 416.2 2361  414 2358.8  414 2356  C 414 2353.2  416.2 2351  419 2351  C 421.8 2351  424 2353.2  424 2356  C 424 2358.8  421.8 2361  419 2361  " fill-rule="nonzero" fill="#797979" stroke="none" />
</svg>