<?xml version="1.0" encoding="utf-8"?>
<svg version="1.1" xmlns:xlink="http://www.w3.org/1999/xlink" width="20px" height="20px" viewBox="409 2459  20 20" xmlns="http://www.w3.org/2000/svg">
  <path d="M 419 2459  C 424.6 2459  429 2463.4  429 2469  C 429 2474.6  424.6 2479  419 2479  C 413.4 2479  409 2474.6  409 2469  C 409 2463.4  413.4 2459  419 2459  Z " fill-rule="nonzero" fill="#f0f0f0" stroke="none" />
  <path d="M 419 2459.5  C 424.32 2459.5  428.5 2463.68  428.5 2469  C 428.5 2474.32  424.32 2478.5  419 2478.5  C 413.68 2478.5  409.5 2474.32  409.5 2469  C 409.5 2463.68  413.68 2459.5  419 2459.5  Z " stroke-width="1" stroke="#797979" fill="none" />
  <path d="M 419 2474  C 416.2 2474  414 2471.8  414 2469  C 414 2466.2  416.2 2464  419 2464  C 421.8 2464  424 2466.2  424 2469  C 424 2471.8  421.8 2474  419 2474  " fill-rule="nonzero" fill="#797979" stroke="none" />
</svg>