<?xml version="1.0" encoding="utf-8"?>
<svg version="1.1" xmlns:xlink="http://www.w3.org/1999/xlink" width="20px" height="20px" viewBox="486 2497  20 20" xmlns="http://www.w3.org/2000/svg">
  <path d="M 496 2497  C 501.6 2497  506 2501.4  506 2507  C 506 2512.6  501.6 2517  496 2517  C 490.4 2517  486 2512.6  486 2507  C 486 2501.4  490.4 2497  496 2497  Z " fill-rule="nonzero" fill="#f0f0f0" stroke="none" />
  <path d="M 496 2497.5  C 501.32 2497.5  505.5 2501.68  505.5 2507  C 505.5 2512.32  501.32 2516.5  496 2516.5  C 490.68 2516.5  486.5 2512.32  486.5 2507  C 486.5 2501.68  490.68 2497.5  496 2497.5  Z " stroke-width="1" stroke="#797979" fill="none" />
  <path d="M 496 2512  C 493.2 2512  491 2509.8  491 2507  C 491 2504.2  493.2 2502  496 2502  C 498.8 2502  501 2504.2  501 2507  C 501 2509.8  498.8 2512  496 2512  " fill-rule="nonzero" fill="#797979" stroke="none" />
</svg>