<?xml version="1.0" encoding="utf-8"?>
<svg version="1.1" xmlns:xlink="http://www.w3.org/1999/xlink" width="20px" height="20px" viewBox="409 2497  20 20" xmlns="http://www.w3.org/2000/svg">
  <path d="M 419 2497  C 424.6 2497  429 2501.4  429 2507  C 429 2512.6  424.6 2517  419 2517  C 413.4 2517  409 2512.6  409 2507  C 409 2501.4  413.4 2497  419 2497  Z " fill-rule="nonzero" fill="#f0f0f0" stroke="none" />
  <path d="M 419 2497.5  C 424.32 2497.5  428.5 2501.68  428.5 2507  C 428.5 2512.32  424.32 2516.5  419 2516.5  C 413.68 2516.5  409.5 2512.32  409.5 2507  C 409.5 2501.68  413.68 2497.5  419 2497.5  Z " stroke-width="1" stroke="#797979" fill="none" />
  <path d="M 419 2512  C 416.2 2512  414 2509.8  414 2507  C 414 2504.2  416.2 2502  419 2502  C 421.8 2502  424 2504.2  424 2507  C 424 2509.8  421.8 2512  419 2512  " fill-rule="nonzero" fill="#797979" stroke="none" />
</svg>