<?xml version="1.0" encoding="utf-8"?>
<svg version="1.1" xmlns:xlink="http://www.w3.org/1999/xlink" width="20px" height="20px" viewBox="486 2459  20 20" xmlns="http://www.w3.org/2000/svg">
  <path d="M 496 2459  C 501.6 2459  506 2463.4  506 2469  C 506 2474.6  501.6 2479  496 2479  C 490.4 2479  486 2474.6  486 2469  C 486 2463.4  490.4 2459  496 2459  Z " fill-rule="nonzero" fill="#ffffff" stroke="none" />
  <path d="M 496 2459.5  C 501.32 2459.5  505.5 2463.68  505.5 2469  C 505.5 2474.32  501.32 2478.5  496 2478.5  C 490.68 2478.5  486.5 2474.32  486.5 2469  C 486.5 2463.68  490.68 2459.5  496 2459.5  Z " stroke-width="1" stroke="#797979" fill="none" />
  <path d="M 496 2474  C 493.2 2474  491 2471.8  491 2469  C 491 2466.2  493.2 2464  496 2464  C 498.8 2464  501 2466.2  501 2469  C 501 2471.8  498.8 2474  496 2474  " fill-rule="nonzero" fill="#797979" stroke="none" />
</svg>