<?xml version="1.0" encoding="utf-8"?>
<svg version="1.1" xmlns:xlink="http://www.w3.org/1999/xlink" width="20px" height="20px" viewBox="613 2384  20 20" xmlns="http://www.w3.org/2000/svg">
  <path d="M 623 2384  C 628.6 2384  633 2388.4  633 2394  C 633 2399.6  628.6 2404  623 2404  C 617.4 2404  613 2399.6  613 2394  C 613 2388.4  617.4 2384  623 2384  Z " fill-rule="nonzero" fill="#ffffff" stroke="none" />
  <path d="M 623 2384.5  C 628.32 2384.5  632.5 2388.68  632.5 2394  C 632.5 2399.32  628.32 2403.5  623 2403.5  C 617.68 2403.5  613.5 2399.32  613.5 2394  C 613.5 2388.68  617.68 2384.5  623 2384.5  Z " stroke-width="1" stroke="#797979" fill="none" />
  <path d="M 623 2399  C 620.2 2399  618 2396.8  618 2394  C 618 2391.2  620.2 2389  623 2389  C 625.8 2389  628 2391.2  628 2394  C 628 2396.8  625.8 2399  623 2399  " fill-rule="nonzero" fill="#797979" stroke="none" />
</svg>