<?xml version="1.0" encoding="utf-8"?>
<svg version="1.1" xmlns:xlink="http://www.w3.org/1999/xlink" width="20px" height="20px" viewBox="690 2384  20 20" xmlns="http://www.w3.org/2000/svg">
  <path d="M 700 2384  C 705.6 2384  710 2388.4  710 2394  C 710 2399.6  705.6 2404  700 2404  C 694.4 2404  690 2399.6  690 2394  C 690 2388.4  694.4 2384  700 2384  Z " fill-rule="nonzero" fill="#ffffff" stroke="none" />
  <path d="M 700 2384.5  C 705.32 2384.5  709.5 2388.68  709.5 2394  C 709.5 2399.32  705.32 2403.5  700 2403.5  C 694.68 2403.5  690.5 2399.32  690.5 2394  C 690.5 2388.68  694.68 2384.5  700 2384.5  Z " stroke-width="1" stroke="#797979" fill="none" />
  <path d="M 700 2399  C 697.2 2399  695 2396.8  695 2394  C 695 2391.2  697.2 2389  700 2389  C 702.8 2389  705 2391.2  705 2394  C 705 2396.8  702.8 2399  700 2399  " fill-rule="nonzero" fill="#797979" stroke="none" />
</svg>