<?xml version="1.0" encoding="utf-8"?>
<svg version="1.1" xmlns:xlink="http://www.w3.org/1999/xlink" width="20px" height="20px" viewBox="486 1228  20 20" xmlns="http://www.w3.org/2000/svg">
  <path d="M 496 1228  C 501.6 1228  506 1232.4  506 1238  C 506 1243.6  501.6 1248  496 1248  C 490.4 1248  486 1243.6  486 1238  C 486 1232.4  490.4 1228  496 1228  Z " fill-rule="nonzero" fill="#f0f0f0" stroke="none" />
  <path d="M 496 1228.5  C 501.32 1228.5  505.5 1232.68  505.5 1238  C 505.5 1243.32  501.32 1247.5  496 1247.5  C 490.68 1247.5  486.5 1243.32  486.5 1238  C 486.5 1232.68  490.68 1228.5  496 1228.5  Z " stroke-width="1" stroke="#797979" fill="none" />
  <path d="M 496 1243  C 493.2 1243  491 1240.8  491 1238  C 491 1235.2  493.2 1233  496 1233  C 498.8 1233  501 1235.2  501 1238  C 501 1240.8  498.8 1243  496 1243  " fill-rule="nonzero" fill="#797979" stroke="none" />
</svg>