<?xml version="1.0" encoding="utf-8"?>
<svg version="1.1" xmlns:xlink="http://www.w3.org/1999/xlink" width="20px" height="20px" viewBox="486 1265  20 20" xmlns="http://www.w3.org/2000/svg">
  <path d="M 496 1265  C 501.6 1265  506 1269.4  506 1275  C 506 1280.6  501.6 1285  496 1285  C 490.4 1285  486 1280.6  486 1275  C 486 1269.4  490.4 1265  496 1265  Z " fill-rule="nonzero" fill="#ffffff" stroke="none" />
  <path d="M 496 1265.5  C 501.32 1265.5  505.5 1269.68  505.5 1275  C 505.5 1280.32  501.32 1284.5  496 1284.5  C 490.68 1284.5  486.5 1280.32  486.5 1275  C 486.5 1269.68  490.68 1265.5  496 1265.5  Z " stroke-width="1" stroke="#797979" fill="none" />
  <path d="M 496 1280  C 493.2 1280  491 1277.8  491 1275  C 491 1272.2  493.2 1270  496 1270  C 498.8 1270  501 1272.2  501 1275  C 501 1277.8  498.8 1280  496 1280  " fill-rule="nonzero" fill="#797979" stroke="none" />
</svg>