<?xml version="1.0" encoding="utf-8"?>
<svg version="1.1" xmlns:xlink="http://www.w3.org/1999/xlink" width="20px" height="20px" viewBox="409 1341  20 20" xmlns="http://www.w3.org/2000/svg">
  <path d="M 419 1341  C 424.6 1341  429 1345.4  429 1351  C 429 1356.6  424.6 1361  419 1361  C 413.4 1361  409 1356.6  409 1351  C 409 1345.4  413.4 1341  419 1341  Z " fill-rule="nonzero" fill="#ffffff" stroke="none" />
  <path d="M 419 1341.5  C 424.32 1341.5  428.5 1345.68  428.5 1351  C 428.5 1356.32  424.32 1360.5  419 1360.5  C 413.68 1360.5  409.5 1356.32  409.5 1351  C 409.5 1345.68  413.68 1341.5  419 1341.5  Z " stroke-width="1" stroke="#797979" fill="none" />
  <path d="M 419 1356  C 416.2 1356  414 1353.8  414 1351  C 414 1348.2  416.2 1346  419 1346  C 421.8 1346  424 1348.2  424 1351  C 424 1353.8  421.8 1356  419 1356  " fill-rule="nonzero" fill="#797979" stroke="none" />
</svg>