<?xml version="1.0" encoding="utf-8"?>
<svg version="1.1" xmlns:xlink="http://www.w3.org/1999/xlink" width="20px" height="20px" viewBox="486 1303  20 20" xmlns="http://www.w3.org/2000/svg">
  <path d="M 496 1303  C 501.6 1303  506 1307.4  506 1313  C 506 1318.6  501.6 1323  496 1323  C 490.4 1323  486 1318.6  486 1313  C 486 1307.4  490.4 1303  496 1303  Z " fill-rule="nonzero" fill="#f0f0f0" stroke="none" />
  <path d="M 496 1303.5  C 501.32 1303.5  505.5 1307.68  505.5 1313  C 505.5 1318.32  501.32 1322.5  496 1322.5  C 490.68 1322.5  486.5 1318.32  486.5 1313  C 486.5 1307.68  490.68 1303.5  496 1303.5  Z " stroke-width="1" stroke="#797979" fill="none" />
  <path d="M 496 1318  C 493.2 1318  491 1315.8  491 1313  C 491 1310.2  493.2 1308  496 1308  C 498.8 1308  501 1310.2  501 1313  C 501 1315.8  498.8 1318  496 1318  " fill-rule="nonzero" fill="#797979" stroke="none" />
</svg>