<?xml version="1.0" encoding="utf-8"?>
<svg version="1.1" xmlns:xlink="http://www.w3.org/1999/xlink" width="20px" height="20px" viewBox="486 1341  20 20" xmlns="http://www.w3.org/2000/svg">
  <path d="M 496 1341  C 501.6 1341  506 1345.4  506 1351  C 506 1356.6  501.6 1361  496 1361  C 490.4 1361  486 1356.6  486 1351  C 486 1345.4  490.4 1341  496 1341  Z " fill-rule="nonzero" fill="#ffffff" stroke="none" />
  <path d="M 496 1341.5  C 501.32 1341.5  505.5 1345.68  505.5 1351  C 505.5 1356.32  501.32 1360.5  496 1360.5  C 490.68 1360.5  486.5 1356.32  486.5 1351  C 486.5 1345.68  490.68 1341.5  496 1341.5  Z " stroke-width="1" stroke="#797979" fill="none" />
  <path d="M 496 1356  C 493.2 1356  491 1353.8  491 1351  C 491 1348.2  493.2 1346  496 1346  C 498.8 1346  501 1348.2  501 1351  C 501 1353.8  498.8 1356  496 1356  " fill-rule="nonzero" fill="#797979" stroke="none" />
</svg>