<?xml version="1.0" encoding="utf-8"?>
<svg version="1.1" xmlns:xlink="http://www.w3.org/1999/xlink" width="20px" height="20px" viewBox="409 1714  20 20" xmlns="http://www.w3.org/2000/svg">
  <path d="M 419 1714  C 424.6 1714  429 1718.4  429 1724  C 429 1729.6  424.6 1734  419 1734  C 413.4 1734  409 1729.6  409 1724  C 409 1718.4  413.4 1714  419 1714  Z " fill-rule="nonzero" fill="#ffffff" stroke="none" />
  <path d="M 419 1714.5  C 424.32 1714.5  428.5 1718.68  428.5 1724  C 428.5 1729.32  424.32 1733.5  419 1733.5  C 413.68 1733.5  409.5 1729.32  409.5 1724  C 409.5 1718.68  413.68 1714.5  419 1714.5  Z " stroke-width="1" stroke="#797979" fill="none" />
  <path d="M 419 1729  C 416.2 1729  414 1726.8  414 1724  C 414 1721.2  416.2 1719  419 1719  C 421.8 1719  424 1721.2  424 1724  C 424 1726.8  421.8 1729  419 1729  " fill-rule="nonzero" fill="#797979" stroke="none" />
</svg>