<?xml version="1.0" encoding="utf-8"?>
<svg version="1.1" xmlns:xlink="http://www.w3.org/1999/xlink" width="20px" height="20px" viewBox="486 1677  20 20" xmlns="http://www.w3.org/2000/svg">
  <path d="M 496 1677  C 501.6 1677  506 1681.4  506 1687  C 506 1692.6  501.6 1697  496 1697  C 490.4 1697  486 1692.6  486 1687  C 486 1681.4  490.4 1677  496 1677  Z " fill-rule="nonzero" fill="#f0f0f0" stroke="none" />
  <path d="M 496 1677.5  C 501.32 1677.5  505.5 1681.68  505.5 1687  C 505.5 1692.32  501.32 1696.5  496 1696.5  C 490.68 1696.5  486.5 1692.32  486.5 1687  C 486.5 1681.68  490.68 1677.5  496 1677.5  Z " stroke-width="1" stroke="#797979" fill="none" />
  <path d="M 496 1692  C 493.2 1692  491 1689.8  491 1687  C 491 1684.2  493.2 1682  496 1682  C 498.8 1682  501 1684.2  501 1687  C 501 1689.8  498.8 1692  496 1692  " fill-rule="nonzero" fill="#797979" stroke="none" />
</svg>