<?xml version="1.0" encoding="utf-8"?>
<svg version="1.1" xmlns:xlink="http://www.w3.org/1999/xlink" width="20px" height="20px" viewBox="409 1677  20 20" xmlns="http://www.w3.org/2000/svg">
  <path d="M 419 1677  C 424.6 1677  429 1681.4  429 1687  C 429 1692.6  424.6 1697  419 1697  C 413.4 1697  409 1692.6  409 1687  C 409 1681.4  413.4 1677  419 1677  Z " fill-rule="nonzero" fill="#ffffff" stroke="none" />
  <path d="M 419 1677.5  C 424.32 1677.5  428.5 1681.68  428.5 1687  C 428.5 1692.32  424.32 1696.5  419 1696.5  C 413.68 1696.5  409.5 1692.32  409.5 1687  C 409.5 1681.68  413.68 1677.5  419 1677.5  Z " stroke-width="1" stroke="#797979" fill="none" />
  <path d="M 419 1692  C 416.2 1692  414 1689.8  414 1687  C 414 1684.2  416.2 1682  419 1682  C 421.8 1682  424 1684.2  424 1687  C 424 1689.8  421.8 1692  419 1692  " fill-rule="nonzero" fill="#797979" stroke="none" />
</svg>