<?xml version="1.0" encoding="utf-8"?>
<svg version="1.1" xmlns:xlink="http://www.w3.org/1999/xlink" width="20px" height="20px" viewBox="409 1422  20 20" xmlns="http://www.w3.org/2000/svg">
  <path d="M 419 1422  C 424.6 1422  429 1426.4  429 1432  C 429 1437.6  424.6 1442  419 1442  C 413.4 1442  409 1437.6  409 1432  C 409 1426.4  413.4 1422  419 1422  Z " fill-rule="nonzero" fill="#ffffff" stroke="none" />
  <path d="M 419 1422.5  C 424.32 1422.5  428.5 1426.68  428.5 1432  C 428.5 1437.32  424.32 1441.5  419 1441.5  C 413.68 1441.5  409.5 1437.32  409.5 1432  C 409.5 1426.68  413.68 1422.5  419 1422.5  Z " stroke-width="1" stroke="#797979" fill="none" />
  <path d="M 419 1437  C 416.2 1437  414 1434.8  414 1432  C 414 1429.2  416.2 1427  419 1427  C 421.8 1427  424 1429.2  424 1432  C 424 1434.8  421.8 1437  419 1437  " fill-rule="nonzero" fill="#797979" stroke="none" />
</svg>