<?xml version="1.0" encoding="utf-8"?>
<svg version="1.1" xmlns:xlink="http://www.w3.org/1999/xlink" width="20px" height="20px" viewBox="486 1465  20 20" xmlns="http://www.w3.org/2000/svg">
  <path d="M 496 1465  C 501.6 1465  506 1469.4  506 1475  C 506 1480.6  501.6 1485  496 1485  C 490.4 1485  486 1480.6  486 1475  C 486 1469.4  490.4 1465  496 1465  Z " fill-rule="nonzero" fill="#ffffff" stroke="none" />
  <path d="M 496 1465.5  C 501.32 1465.5  505.5 1469.68  505.5 1475  C 505.5 1480.32  501.32 1484.5  496 1484.5  C 490.68 1484.5  486.5 1480.32  486.5 1475  C 486.5 1469.68  490.68 1465.5  496 1465.5  Z " stroke-width="1" stroke="#797979" fill="none" />
  <path d="M 496 1480  C 493.2 1480  491 1477.8  491 1475  C 491 1472.2  493.2 1470  496 1470  C 498.8 1470  501 1472.2  501 1475  C 501 1477.8  498.8 1480  496 1480  " fill-rule="nonzero" fill="#797979" stroke="none" />
</svg>