<?xml version="1.0" encoding="utf-8"?>
<svg version="1.1" xmlns:xlink="http://www.w3.org/1999/xlink" width="20px" height="20px" viewBox="486 1422  20 20" xmlns="http://www.w3.org/2000/svg">
  <path d="M 496 1422  C 501.6 1422  506 1426.4  506 1432  C 506 1437.6  501.6 1442  496 1442  C 490.4 1442  486 1437.6  486 1432  C 486 1426.4  490.4 1422  496 1422  Z " fill-rule="nonzero" fill="#f0f0f0" stroke="none" />
  <path d="M 496 1422.5  C 501.32 1422.5  505.5 1426.68  505.5 1432  C 505.5 1437.32  501.32 1441.5  496 1441.5  C 490.68 1441.5  486.5 1437.32  486.5 1432  C 486.5 1426.68  490.68 1422.5  496 1422.5  Z " stroke-width="1" stroke="#797979" fill="none" />
  <path d="M 496 1437  C 493.2 1437  491 1434.8  491 1432  C 491 1429.2  493.2 1427  496 1427  C 498.8 1427  501 1429.2  501 1432  C 501 1434.8  498.8 1437  496 1437  " fill-rule="nonzero" fill="#797979" stroke="none" />
</svg>