<?xml version="1.0" encoding="utf-8"?>
<svg version="1.1" xmlns:xlink="http://www.w3.org/1999/xlink" width="20px" height="20px" viewBox="486 1714  20 20" xmlns="http://www.w3.org/2000/svg">
  <path d="M 496 1714  C 501.6 1714  506 1718.4  506 1724  C 506 1729.6  501.6 1734  496 1734  C 490.4 1734  486 1729.6  486 1724  C 486 1718.4  490.4 1714  496 1714  Z " fill-rule="nonzero" fill="#f0f0f0" stroke="none" />
  <path d="M 496 1714.5  C 501.32 1714.5  505.5 1718.68  505.5 1724  C 505.5 1729.32  501.32 1733.5  496 1733.5  C 490.68 1733.5  486.5 1729.32  486.5 1724  C 486.5 1718.68  490.68 1714.5  496 1714.5  Z " stroke-width="1" stroke="#797979" fill="none" />
  <path d="M 496 1729  C 493.2 1729  491 1726.8  491 1724  C 491 1721.2  493.2 1719  496 1719  C 498.8 1719  501 1721.2  501 1724  C 501 1726.8  498.8 1729  496 1729  " fill-rule="nonzero" fill="#797979" stroke="none" />
</svg>