<?xml version="1.0" encoding="utf-8"?>
<svg version="1.1" xmlns:xlink="http://www.w3.org/1999/xlink" width="20px" height="20px" viewBox="409 1795  20 20" xmlns="http://www.w3.org/2000/svg">
  <path d="M 419 1795  C 424.6 1795  429 1799.4  429 1805  C 429 1810.6  424.6 1815  419 1815  C 413.4 1815  409 1810.6  409 1805  C 409 1799.4  413.4 1795  419 1795  Z " fill-rule="nonzero" fill="#ffffff" stroke="none" />
  <path d="M 419 1795.5  C 424.32 1795.5  428.5 1799.68  428.5 1805  C 428.5 1810.32  424.32 1814.5  419 1814.5  C 413.68 1814.5  409.5 1810.32  409.5 1805  C 409.5 1799.68  413.68 1795.5  419 1795.5  Z " stroke-width="1" stroke="#797979" fill="none" />
  <path d="M 419 1810  C 416.2 1810  414 1807.8  414 1805  C 414 1802.2  416.2 1800  419 1800  C 421.8 1800  424 1802.2  424 1805  C 424 1807.8  421.8 1810  419 1810  " fill-rule="nonzero" fill="#797979" stroke="none" />
</svg>