<?xml version="1.0" encoding="utf-8"?>
<svg version="1.1" xmlns:xlink="http://www.w3.org/1999/xlink" width="20px" height="20px" viewBox="498 1099  20 20" xmlns="http://www.w3.org/2000/svg">
  <path d="M 508 1099  C 513.6 1099  518 1103.4  518 1109  C 518 1114.6  513.6 1119  508 1119  C 502.4 1119  498 1114.6  498 1109  C 498 1103.4  502.4 1099  508 1099  Z " fill-rule="nonzero" fill="#f0f0f0" stroke="none" />
  <path d="M 508 1099.5  C 513.32 1099.5  517.5 1103.68  517.5 1109  C 517.5 1114.32  513.32 1118.5  508 1118.5  C 502.68 1118.5  498.5 1114.32  498.5 1109  C 498.5 1103.68  502.68 1099.5  508 1099.5  Z " stroke-width="1" stroke="#797979" fill="none" />
  <path d="M 508 1114  C 505.2 1114  503 1111.8  503 1109  C 503 1106.2  505.2 1104  508 1104  C 510.8 1104  513 1106.2  513 1109  C 513 1111.8  510.8 1114  508 1114  " fill-rule="nonzero" fill="#797979" stroke="none" />
</svg>