<?xml version="1.0" encoding="utf-8"?>
<svg version="1.1" xmlns:xlink="http://www.w3.org/1999/xlink" width="20px" height="20px" viewBox="421 1062  20 20" xmlns="http://www.w3.org/2000/svg">
  <path d="M 431 1062  C 436.6 1062  441 1066.4  441 1072  C 441 1077.6  436.6 1082  431 1082  C 425.4 1082  421 1077.6  421 1072  C 421 1066.4  425.4 1062  431 1062  Z " fill-rule="nonzero" fill="#ffffff" stroke="none" />
  <path d="M 431 1062.5  C 436.32 1062.5  440.5 1066.68  440.5 1072  C 440.5 1077.32  436.32 1081.5  431 1081.5  C 425.68 1081.5  421.5 1077.32  421.5 1072  C 421.5 1066.68  425.68 1062.5  431 1062.5  Z " stroke-width="1" stroke="#797979" fill="none" />
  <path d="M 431 1077  C 428.2 1077  426 1074.8  426 1072  C 426 1069.2  428.2 1067  431 1067  C 433.8 1067  436 1069.2  436 1072  C 436 1074.8  433.8 1077  431 1077  " fill-rule="nonzero" fill="#797979" stroke="none" />
</svg>