<?xml version="1.0" encoding="utf-8"?>
<svg version="1.1" xmlns:xlink="http://www.w3.org/1999/xlink" width="318px" height="156px" xmlns="http://www.w3.org/2000/svg">
  <g transform="matrix(1 0 0 1 -1473 -304 )">
    <path d="M 1474 308  A 3 3 0 0 1 1477 305 L 1787 305  A 3 3 0 0 1 1790 308 L 1790 456  A 3 3 0 0 1 1787 459 L 1477 459  A 3 3 0 0 1 1474 456 L 1474 308  Z " fill-rule="nonzero" fill="#ff3399" stroke="none" fill-opacity="0.0980392156862745" />
    <path d="M 1473.5 308  A 3.5 3.5 0 0 1 1477 304.5 L 1787 304.5  A 3.5 3.5 0 0 1 1790.5 308 L 1790.5 456  A 3.5 3.5 0 0 1 1787 459.5 L 1477 459.5  A 3.5 3.5 0 0 1 1473.5 456 L 1473.5 308  Z " stroke-width="1" stroke-dasharray="9,4" stroke="#ff3399" fill="none" stroke-dashoffset="0.5" />
  </g>
</svg>