<?xml version="1.0" encoding="utf-8"?>
<svg version="1.1" xmlns:xlink="http://www.w3.org/1999/xlink" width="495px" height="72px" xmlns="http://www.w3.org/2000/svg">
  <g transform="matrix(1 0 0 1 -172 -473 )">
    <path d="M 173 477  A 3 3 0 0 1 176 474 L 663 474  A 3 3 0 0 1 666 477 L 666 541  A 3 3 0 0 1 663 544 L 176 544  A 3 3 0 0 1 173 541 L 173 477  Z " fill-rule="nonzero" fill="#ff3399" stroke="none" fill-opacity="0.0980392156862745" />
    <path d="M 172.5 477  A 3.5 3.5 0 0 1 176 473.5 L 663 473.5  A 3.5 3.5 0 0 1 666.5 477 L 666.5 541  A 3.5 3.5 0 0 1 663 544.5 L 176 544.5  A 3.5 3.5 0 0 1 172.5 541 L 172.5 477  Z " stroke-width="1" stroke-dasharray="9,4" stroke="#ff3399" fill="none" stroke-dashoffset="0.5" />
  </g>
</svg>