<?xml version="1.0" encoding="utf-8"?>
<svg version="1.1" xmlns:xlink="http://www.w3.org/1999/xlink" width="15px" height="15px" xmlns="http://www.w3.org/2000/svg">
  <g transform="matrix(1 0 0 1 -655 -388 )">
    <path d="M 662.5 388  C 666.7 388  670 391.3  670 395.5  C 670 399.7  666.7 403  662.5 403  C 658.3 403  655 399.7  655 395.5  C 655 391.3  658.3 388  662.5 388  Z " fill-rule="nonzero" fill="#ffffff" stroke="none" />
    <path d="M 662.5 388.5  C 666.42 388.5  669.5 391.58  669.5 395.5  C 669.5 399.42  666.42 402.5  662.5 402.5  C 658.58 402.5  655.5 399.42  655.5 395.5  C 655.5 391.58  658.58 388.5  662.5 388.5  Z " stroke-width="1" stroke="#797979" fill="none" />
  </g>
</svg>