<?xml version="1.0" encoding="utf-8"?>
<svg version="1.1" xmlns:xlink="http://www.w3.org/1999/xlink" width="29px" height="29px" xmlns="http://www.w3.org/2000/svg">
  <g transform="matrix(1 0 0 1 -900 -618 )">
    <path d="M 914.5 618  C 922.62 618  929 624.38  929 632.5  C 929 640.62  922.62 647  914.5 647  C 906.38 647  900 640.62  900 632.5  C 900 624.38  906.38 618  914.5 618  Z " fill-rule="nonzero" fill="#ffffff" stroke="none" />
    <path d="M 914.5 618.5  C 922.34 618.5  928.5 624.66  928.5 632.5  C 928.5 640.34  922.34 646.5  914.5 646.5  C 906.66 646.5  900.5 640.34  900.5 632.5  C 900.5 624.66  906.66 618.5  914.5 618.5  Z " stroke-width="1" stroke="#cccccc" fill="none" />
  </g>
</svg>