<?xml version="1.0" encoding="utf-8"?>
<svg version="1.1" xmlns:xlink="http://www.w3.org/1999/xlink" width="25px" height="25px" xmlns="http://www.w3.org/2000/svg">
  <g transform="matrix(1 0 0 1 -398 -773 )">
    <path d="M 410.5 773  C 417.5 773  423 778.5  423 785.5  C 423 792.5  417.5 798  410.5 798  C 403.5 798  398 792.5  398 785.5  C 398 778.5  403.5 773  410.5 773  Z " fill-rule="nonzero" fill="#ffffff" stroke="none" />
    <path d="M 410.5 773.5  C 417.22 773.5  422.5 778.78  422.5 785.5  C 422.5 792.22  417.22 797.5  410.5 797.5  C 403.78 797.5  398.5 792.22  398.5 785.5  C 398.5 778.78  403.78 773.5  410.5 773.5  Z " stroke-width="1" stroke="#797979" fill="none" />
  </g>
</svg>