<?xml version="1.0" encoding="utf-8"?>
<svg version="1.1" xmlns:xlink="http://www.w3.org/1999/xlink" width="60px" height="60px" xmlns="http://www.w3.org/2000/svg">
  <g transform="matrix(1 0 0 1 -761 -543 )">
    <path d="M 791 543  C 807.8 543  821 556.2  821 573  C 821 589.8  807.8 603  791 603  C 774.2 603  761 589.8  761 573  C 761 556.2  774.2 543  791 543  Z " fill-rule="nonzero" fill="#ffffff" stroke="none" />
    <path d="M 791 543.5  C 807.52 543.5  820.5 556.48  820.5 573  C 820.5 589.52  807.52 602.5  791 602.5  C 774.48 602.5  761.5 589.52  761.5 573  C 761.5 556.48  774.48 543.5  791 543.5  Z " stroke-width="1" stroke="#797979" fill="none" />
  </g>
</svg>