<?xml version="1.0" encoding="utf-8"?>
<svg version="1.1" xmlns:xlink="http://www.w3.org/1999/xlink" width="29px" height="29px" xmlns="http://www.w3.org/2000/svg">
  <g transform="matrix(1 0 0 1 -404 -396 )">
    <path d="M 418.5 396  C 426.62 396  433 402.38  433 410.5  C 433 418.62  426.62 425  418.5 425  C 410.38 425  404 418.62  404 410.5  C 404 402.38  410.38 396  418.5 396  Z " fill-rule="nonzero" fill="#ffffff" stroke="none" />
    <path d="M 418.5 396.5  C 426.34 396.5  432.5 402.66  432.5 410.5  C 432.5 418.34  426.34 424.5  418.5 424.5  C 410.66 424.5  404.5 418.34  404.5 410.5  C 404.5 402.66  410.66 396.5  418.5 396.5  Z " stroke-width="1" stroke="#797979" fill="none" />
  </g>
</svg>