<?xml version="1.0" encoding="utf-8"?>
<svg version="1.1" xmlns:xlink="http://www.w3.org/1999/xlink" width="18px" height="9px" xmlns="http://www.w3.org/2000/svg">
  <g transform="matrix(1 0 0 1 -1530 -206 )">
    <path d="M 17.666015625 0.296875  C 17.888671875 0.494791666666665  18 0.729166666666664  18 1  C 18 1.27083333333333  17.888671875 1.50520833333333  17.666015625 1.703125  L 9.791015625 8.703125  C 9.568359375 8.90104166666667  9.3046875 9  9 9  C 8.6953125 9  8.431640625 8.90104166666667  8.208984375 8.703125  L 0.333984375 1.703125  C 0.111328125 1.50520833333333  0 1.27083333333333  0 1  C 0 0.729166666666664  0.111328125 0.494791666666665  0.333984375 0.296875  C 0.556640625 0.0989583333333321  0.8203125 0  1.125 0  L 16.875 0  C 17.1796875 0  17.443359375 0.0989583333333321  17.666015625 0.296875  Z " fill-rule="nonzero" fill="#999999" stroke="none" transform="matrix(1 0 0 1 1530 206 )" />
  </g>
</svg>