<?xml version="1.0" encoding="utf-8"?>
<svg version="1.1" xmlns:xlink="http://www.w3.org/1999/xlink" width="26px" height="26px" xmlns="http://www.w3.org/2000/svg">
  <g transform="matrix(1 0 0 1 -1412 -335 )">
    <path d="M 25.0719464584495 0  C 25.2652909462725 0  25.4393009853133 0.0531994047619071  25.5939765755717 0.159598214285716  C 25.9129949804796 0.391741071428572  26.0435025097602 0.70126488095238  25.9854991634133 1.08816964285714  L 22.2732849972114 23.3738839285714  C 22.2249488752556 23.6543898809524  22.0702732849972 23.8720238095238  21.8092582264361 24.0267857142857  C 21.67391708496 24.1041666666667  21.5240751068972 24.1428571428571  21.3597322922476 24.1428571428571  C 21.253392823945 24.1428571428571  21.1373861312512 24.1186755952381  21.0117122141662 24.0703125  L 14.4428332403793 21.3861607142857  L 10.9336307863915 25.6662946428571  C 10.7596207473508 25.8887648809524  10.5227737497676 26  10.2230897936419 26  C 10.097415876557 26  9.99107640825432 25.9806547619048  9.90407138873397 25.9419642857143  C 9.7203941253021 25.874255952381  9.57296895333705 25.7606026785714  9.46179587283882 25.6010044642857  C 9.35062279234058 25.44140625  9.29503625209147 25.264880952381  9.29503625209147 25.0714285714286  L 9.29503625209147 20.0078125  L 21.8237590630229 4.64285714285714  L 6.3223647518126 18.0636160714286  L 0.594534300055772 15.7131696428571  C 0.236846997583194 15.5777529761905  0.0435025097601785 15.311755952381  0.0145008365867262 14.9151785714286  C -0.00483361219557539 14.5282738095238  0.149841978062837 14.242931547619  0.478527607361963 14.0591517857143  L 24.6079196876743 0.130580357142856  C 24.7529280535416 0.0435267857142845  24.9076036438 0  25.0719464584495 0  Z " fill-rule="nonzero" fill="#999999" stroke="none" transform="matrix(1 0 0 1 1412 335 )" />
  </g>
</svg>