<?xml version="1.0" encoding="utf-8"?>
<svg version="1.1" xmlns:xlink="http://www.w3.org/1999/xlink" width="12px" height="12px" viewBox="12 22  12 12" xmlns="http://www.w3.org/2000/svg">
  <path d="M 12.5 25  A 2.5 2.5 0 0 1 15 22.5 L 21 22.5  A 2.5 2.5 0 0 1 23.5 25 L 23.5 31  A 2.5 2.5 0 0 1 21 33.5 L 15 33.5  A 2.5 2.5 0 0 1 12.5 31 L 12.5 25  Z " fill-rule="nonzero" fill="#f0f0f0" stroke="none" />
  <path d="M 12.5 25  A 2.5 2.5 0 0 1 15 22.5 L 21 22.5  A 2.5 2.5 0 0 1 23.5 25 L 23.5 31  A 2.5 2.5 0 0 1 21 33.5 L 15 33.5  A 2.5 2.5 0 0 1 12.5 31 L 12.5 25  Z " stroke-width="1" stroke="#797979" fill="none" />
  <path d="M 14.5714285714286 28  L 17.1428571428571 30.5714285714286  L 21.4285714285714 24.5714285714286  " stroke-width="2.57142857142857" stroke="#797979" fill="none" />
</svg>