<?xml version="1.0" encoding="utf-8"?>
<svg version="1.1" xmlns:xlink="http://www.w3.org/1999/xlink" width="12px" height="12px" viewBox="12 139  12 12" xmlns="http://www.w3.org/2000/svg">
  <path d="M 12.5 142  A 2.5 2.5 0 0 1 15 139.5 L 21 139.5  A 2.5 2.5 0 0 1 23.5 142 L 23.5 148  A 2.5 2.5 0 0 1 21 150.5 L 15 150.5  A 2.5 2.5 0 0 1 12.5 148 L 12.5 142  Z " fill-rule="nonzero" fill="#f0f0f0" stroke="none" />
  <path d="M 12.5 142  A 2.5 2.5 0 0 1 15 139.5 L 21 139.5  A 2.5 2.5 0 0 1 23.5 142 L 23.5 148  A 2.5 2.5 0 0 1 21 150.5 L 15 150.5  A 2.5 2.5 0 0 1 12.5 148 L 12.5 142  Z " stroke-width="1" stroke="#797979" fill="none" />
</svg>