<?xml version="1.0" encoding="utf-8"?>
<svg version="1.1" xmlns:xlink="http://www.w3.org/1999/xlink" width="26px" height="26px" xmlns="http://www.w3.org/2000/svg">
  <g transform="matrix(1 0 0 1 -231 -13 )">
    <path d="M 232 17  A 3 3 0 0 1 235 14 L 253 14  A 3 3 0 0 1 256 17 L 256 35  A 3 3 0 0 1 253 38 L 235 38  A 3 3 0 0 1 232 35 L 232 17  Z " fill-rule="nonzero" fill="#ffffff" stroke="none" />
    <path d="M 231.5 17  A 3.5 3.5 0 0 1 235 13.5 L 253 13.5  A 3.5 3.5 0 0 1 256.5 17 L 256.5 35  A 3.5 3.5 0 0 1 253 38.5 L 235 38.5  A 3.5 3.5 0 0 1 231.5 35 L 231.5 17  Z " stroke-width="1" stroke-dasharray="3,1" stroke="#000000" fill="none" stroke-opacity="0.250980392156863" stroke-dashoffset="0.5" />
  </g>
</svg>