<?xml version="1.0" encoding="utf-8"?>
<svg version="1.1" xmlns:xlink="http://www.w3.org/1999/xlink" width="66px" height="70px" xmlns="http://www.w3.org/2000/svg">
  <g transform="matrix(1 0 0 1 -1095 -294 )">
    <path d="M 1095 294  L 1161 294  L 1161 364  L 1095 364  L 1095 294  " fill-rule="nonzero" fill="#cccccc" stroke="none" />
    <path d="M 1100 299  L 1156 299  L 1156 359  L 1100 359  L 1100 299  " fill-rule="nonzero" fill="#ffffff" stroke="none" />
    <path d="M 1134.27 314.4  C 1131.498 314.4  1129.32 312.222  1129.32 309.45  C 1129.32 306.678  1131.498 304.5  1134.27 304.5  C 1137.042 304.5  1139.22 306.678  1139.22 309.45  C 1139.22 312.222  1137.042 314.4  1134.27 314.4  " fill-rule="nonzero" fill="#cccccc" stroke="none" />
    <path d="M 1102 358  L 1102 326.65  L 1115.25 312.4  L 1133.8 323.8  L 1144.4 320.95  L 1155 323.8  L 1155 358  L 1102 358  " fill-rule="nonzero" fill="#169bd5" stroke="none" />
  </g>
</svg>