<?xml version="1.0" encoding="utf-8"?>
<svg version="1.1" xmlns:xlink="http://www.w3.org/1999/xlink" width="18px" height="12px" xmlns="http://www.w3.org/2000/svg">
  <g transform="matrix(1 0 0 1 -1503 -340 )">
    <path d="M 18 2.66086956521739  C 18 2.86570048309179  17.9292803970223 3.04154589371981  17.787841191067 3.18840579710145  L 9.50248138957816 11.7797101449275  C 9.36104218362283 11.9265700483092  9.19354838709677 12  9 12  C 8.80645161290323 12  8.63895781637717 11.9265700483092  8.49751861042184 11.7797101449275  L 0.212158808933002 3.18840579710145  C 0.0707196029776676 3.04154589371981  0 2.86570048309179  0 2.66086956521739  C 0 2.45603864734299  0.0707196029776676 2.28019323671498  0.212158808933002 2.13333333333333  L 2.06575682382134 0.220289855072464  C 2.20719602977668 0.0734299516908208  2.37468982630273 0  2.5682382133995 0  C 2.76178660049628 0  2.92928039702233 0.0734299516908208  3.07071960297767 0.220289855072464  L 9 6.3768115942029  L 14.9292803970223 0.220289855072464  C 15.0707196029777 0.0734299516908208  15.2382133995037 0  15.4317617866005 0  C 15.6253101736973 0  15.7928039702233 0.0734299516908208  15.9342431761787 0.220289855072464  L 17.787841191067 2.13333333333333  C 17.9292803970223 2.28019323671498  18 2.45603864734299  18 2.66086956521739  Z " fill-rule="nonzero" fill="#999999" stroke="none" transform="matrix(1 0 0 1 1503 340 )" />
  </g>
</svg>