<?xml version="1.0" encoding="utf-8"?>
<svg version="1.1" xmlns:xlink="http://www.w3.org/1999/xlink" width="18px" height="11px" xmlns="http://www.w3.org/2000/svg">
  <g transform="matrix(1 0 0 1 -1503 -844 )">
    <path d="M 18 8.56086956521739  C 18 8.74863123993559  17.9292803970223 8.90982286634461  17.787841191067 9.04444444444444  L 15.9342431761787 10.7980676328502  C 15.7928039702233 10.9326892109501  15.6253101736973 11  15.4317617866005 11  C 15.2382133995037 11  15.0707196029777 10.9326892109501  14.9292803970223 10.7980676328502  L 9 5.15458937198068  L 3.07071960297767 10.7980676328502  C 2.92928039702233 10.9326892109501  2.76178660049628 11  2.5682382133995 11  C 2.37468982630273 11  2.20719602977668 10.9326892109501  2.06575682382134 10.7980676328502  L 0.212158808933002 9.04444444444444  C 0.0707196029776676 8.90982286634461  0 8.74863123993559  0 8.56086956521739  C 0 8.3731078904992  0.0707196029776676 8.21191626409018  0.212158808933002 8.07729468599034  L 8.49751861042184 0.201932367149758  C 8.63895781637717 0.0673107890499191  8.80645161290323 0  9 0  C 9.19354838709677 0  9.36104218362283 0.0673107890499191  9.50248138957816 0.201932367149758  L 17.787841191067 8.07729468599034  C 17.9292803970223 8.21191626409018  18 8.3731078904992  18 8.56086956521739  Z " fill-rule="nonzero" fill="#999999" stroke="none" transform="matrix(1 0 0 1 1503 844 )" />
  </g>
</svg>