<?xml version="1.0" encoding="utf-8"?>
<svg version="1.1" xmlns:xlink="http://www.w3.org/1999/xlink" width="57px" height="57px" xmlns="http://www.w3.org/2000/svg">
  <g transform="matrix(1 0 0 1 -2218 -1502 )">
    <path d="M 2246.5 1502  C 2262.46 1502  2275 1514.54  2275 1530.5  C 2275 1546.46  2262.46 1559  2246.5 1559  C 2230.54 1559  2218 1546.46  2218 1530.5  C 2218 1514.54  2230.54 1502  2246.5 1502  Z " fill-rule="nonzero" fill="#999999" stroke="none" />
    <path d="M 2246.5 1502.5  C 2262.18 1502.5  2274.5 1514.82  2274.5 1530.5  C 2274.5 1546.18  2262.18 1558.5  2246.5 1558.5  C 2230.82 1558.5  2218.5 1546.18  2218.5 1530.5  C 2218.5 1514.82  2230.82 1502.5  2246.5 1502.5  Z " stroke-width="1" stroke="#797979" fill="none" />
  </g>
</svg>