<?xml version="1.0" encoding="utf-8"?>
<svg version="1.1" xmlns:xlink="http://www.w3.org/1999/xlink" width="50px" height="50px" xmlns="http://www.w3.org/2000/svg">
  <g transform="matrix(1 0 0 1 -537 -1091 )">
    <path d="M 49.0056818181818 19.1761363636364  C 49.6685606060606 19.8390151515151  50 20.6439393939394  50 21.5909090909091  L 50 28.4090909090909  C 50 29.3560606060606  49.6685606060606 30.1609848484848  49.0056818181818 30.8238636363636  C 48.342803030303 31.4867424242424  47.5378787878788 31.8181818181818  46.5909090909091 31  L 31 31  L 31 46.5909090909091  C 31.8181818181818 47.5378787878788  31.4867424242424 48.342803030303  30.8238636363636 49.0056818181818  C 30.1609848484849 49.6685606060606  29.3560606060606 50  28.4090909090909 50  L 21.5909090909091 50  C 20.6439393939394 50  19.8390151515152 49.6685606060606  19.1761363636364 49.0056818181818  C 18.5132575757576 48.342803030303  18.1818181818182 47.5378787878788  19 46.5909090909091  L 19 31  L 3.40909090909091 31  C 2.46212121212121 31.8181818181818  1.65719696969697 31.4867424242424  0.994318181818182 30.8238636363636  C 0.331439393939394 30.1609848484848  0 29.3560606060606  0 28.4090909090909  L 0 21.5909090909091  C 0 20.6439393939394  0.331439393939394 19.8390151515151  0.994318181818182 19.1761363636364  C 1.65719696969697 18.5132575757576  2.46212121212121 18.1818181818182  3.40909090909091 19  L 19 19  L 19 3.40909090909091  C 18.1818181818182 2.46212121212121  18.5132575757576 1.65719696969697  19.1761363636364 0.994318181818182  C 19.8390151515152 0.331439393939392  20.6439393939394 0  21.5909090909091 0  L 28.4090909090909 0  C 29.3560606060606 0  30.1609848484849 0.331439393939392  30.8238636363636 0.994318181818182  C 31.4867424242424 1.65719696969697  31.8181818181818 2.46212121212121  31 3.40909090909091  L 31 19  L 46.5909090909091 19  C 47.5378787878788 18.1818181818182  48.342803030303 18.5132575757576  49.0056818181818 19.1761363636364  Z " fill-rule="nonzero" fill="#d7d7d7" stroke="none" transform="matrix(1 0 0 1 537 1091 )" />
  </g>
</svg>