<?xml version="1.0" encoding="utf-8"?>
<svg version="1.1" xmlns:xlink="http://www.w3.org/1999/xlink" width="26px" height="19px" xmlns="http://www.w3.org/2000/svg">
  <g transform="matrix(1 0 0 1 -1462 -41 )">
    <path d="M 24.5491071428571 7.30042613636364  C 25.1004464285714 6.94957386363636  25.5840773809524 6.55823863636364  26 6.12642045454545  L 26 16.8409090909091  C 26 17.4346590909091  25.772693452381 17.9429450757576  25.3180803571429 18.3657670454545  C 24.8634672619048 18.7885890151515  24.3169642857143 19  23.6785714285714 19  L 2.32142857142857 19  C 1.68303571428571 19  1.13653273809524 18.7885890151515  0.681919642857143 18.3657670454545  C 0.227306547619048 17.9429450757576  0 17.4346590909091  0 16.8409090909091  L 0 6.12642045454545  C 0.425595238095238 6.56723484848485  0.9140625 6.95857007575757  1.46540178571429 7.30042613636364  C 4.96688988095238 9.51349431818182  7.37053571428571 11.0653409090909  8.67633928571429 11.9559659090909  C 9.22767857142857 12.3338068181818  9.67503720238095 12.6284327651515  10.0184151785714 12.83984375  C 10.3617931547619 13.0512547348485  10.8188244047619 13.2671638257576  11.3895089285714 13.4875710227273  C 11.960193452381 13.707978219697  12.4921875 13.8181818181818  12.9854910714286 13.8181818181818  L 13 13.8181818181818  L 13.0145089285714 13.8181818181818  C 13.5078125 13.8181818181818  14.039806547619 13.707978219697  14.6104910714286 13.4875710227273  C 15.1811755952381 13.2671638257576  15.6382068452381 13.0512547348485  15.9815848214286 12.83984375  C 16.324962797619 12.6284327651515  16.7723214285714 12.3338068181818  17.3236607142857 11.9559659090909  C 18.968005952381 10.8494318181818  21.3764880952381 9.29758522727273  24.5491071428571 7.30042613636364  Z M 25.3108258928571 0.634232954545454  C 25.770275297619 1.05705492424242  26 1.56534090909091  26 2.15909090909091  C 26 2.86979166666666  25.7630208333333 3.54900568181818  25.2890625 4.19673295454545  C 24.8151041666667 4.84446022727273  24.2250744047619 5.39772727272727  23.5189732142857 5.85653409090909  C 19.882068452381 8.20454545454545  17.6186755952381 9.66642992424243  16.7287946428571 10.2421875  C 16.632068452381 10.3051609848485  16.426525297619 10.442353219697  16.1121651785714 10.6537642045455  C 15.7978050595238 10.8651751893939  15.5366443452381 11.036103219697  15.3286830357143 11.1665482954545  C 15.1207217261905 11.2969933712121  14.8692336309524 11.4431818181818  14.57421875 11.6051136363636  C 14.2792038690476 11.7670454545455  14.0011160714286 11.8884943181818  13.7399553571429 11.9694602272727  C 13.4787946428571 12.0504261363636  13.2369791666667 12.0909090909091  13.0145089285714 12.0909090909091  L 13 12.0909090909091  L 12.9854910714286 12.0909090909091  C 12.7630208333333 12.0909090909091  12.5212053571429 12.0504261363636  12.2600446428571 11.9694602272727  C 11.9988839285714 11.8884943181818  11.7207961309524 11.7670454545455  11.42578125 11.6051136363636  C 11.1307663690476 11.4431818181818  10.8792782738095 11.2969933712121  10.6713169642857 11.1665482954545  C 10.4633556547619 11.036103219697  10.2021949404762 10.8651751893939  9.88783482142857 10.6537642045455  C 9.57347470238095 10.442353219697  9.36793154761905 10.3051609848485  9.27120535714286 10.2421875  C 8.39099702380952 9.66642992424243  7.12388392857143 8.84552556818182  5.46986607142857 7.77947443181818  C 3.81584821428571 6.71342329545454  2.82440476190476 6.07244318181818  2.49553571428571 5.85653409090909  C 1.89583333333333 5.47869318181818  1.32998511904762 4.95916193181818  0.797991071428571 4.29794034090909  C 0.265997023809524 3.63671875  0 3.02272727272727  0 2.45596590909091  C 0 1.75426136363636  0.200706845238095 1.16950757575757  0.602120535714286 0.701704545454546  C 1.00353422619048 0.233901515151513  1.5766369047619 0  2.32142857142857 0  L 23.6785714285714 0  C 24.3072916666667 0  24.8513764880952 0.211410984848482  25.3108258928571 0.634232954545454  Z " fill-rule="nonzero" fill="#ffffff" stroke="none" transform="matrix(1 0 0 1 1462 41 )" />
  </g>
</svg>