<?xml version="1.0" encoding="utf-8"?>
<svg version="1.1" xmlns:xlink="http://www.w3.org/1999/xlink" width="225px" height="210px" xmlns="http://www.w3.org/2000/svg">
  <g transform="matrix(1 0 0 1 -258 -185 )">
    <path d="M 258 185  L 483 185  L 483 395  L 258 395  L 258 185  " fill-rule="nonzero" fill="#cccccc" stroke="none" />
    <path d="M 273 200  L 468 200  L 468 380  L 273 380  L 273 200  " fill-rule="nonzero" fill="#ffffff" stroke="none" />
    <path d="M 390.75 248  C 381.93 248  375 241.07  375 232.25  C 375 223.43  381.93 216.5  390.75 216.5  C 399.57 216.5  406.5 223.43  406.5 232.25  C 406.5 241.07  399.57 248  390.75 248  " fill-rule="nonzero" fill="#cccccc" stroke="none" />
    <path d="M 279 375  L 279 282.05  L 325 239.8  L 389.4 280.36  L 426.2 265.15  L 463 280.36  L 463 375  L 279 375  " fill-rule="nonzero" fill="#169bd5" stroke="none" />
  </g>
</svg>