<?xml version="1.0" encoding="utf-8"?>
<svg version="1.1" xmlns:xlink="http://www.w3.org/1999/xlink" width="12px" height="12px" xmlns="http://www.w3.org/2000/svg">
  <g transform="matrix(1 0 0 1 -303 -443 )">
    <path d="M 3.2 4.28571428571428  C 3.2 4.90625  3.36875 5.47767857142857  3.70625 6  C 3.03125 6.02232142857143  2.47916666666667 6.30803571428571  2.05 6.85714285714286  L 1.2125 6.85714285714286  C 0.870833333333333 6.85714285714286  0.583333333333333 6.76674107142857  0.35 6.5859375  C 0.116666666666667 6.40513392857143  0 6.140625  0 5.79241071428572  C 0 4.21651785714286  0.258333333333333 3.42857142857143  0.775 3.42857142857143  C 0.8 3.42857142857143  0.890625 3.47544642857143  1.046875 3.56919642857143  C 1.203125 3.66294642857143  1.40625 3.7578125  1.65625 3.85379464285714  C 1.90625 3.94977678571429  2.15416666666667 3.99776785714286  2.4 3.99776785714286  C 2.67916666666667 3.99776785714286  2.95625 3.94642857142857  3.23125 3.84375  C 3.21041666666667 4.00892857142857  3.2 4.15625  3.2 4.28571428571428  Z M 10.378125 9.57254464285714  C 10.3927083333333 9.79799107142857  10.4 10.0290178571429  10.4 10.265625  C 10.4 10.8013392857143  10.2479166666667 11.2243303571429  9.94375 11.5345982142857  C 9.63958333333333 11.8448660714286  9.23541666666667 12  8.73125 12  L 3.26875 12  C 2.76458333333333 12  2.36041666666667 11.8448660714286  2.05625 11.5345982142857  C 1.75208333333333 11.2243303571429  1.6 10.8013392857143  1.6 10.265625  C 1.6 10.0290178571429  1.60729166666667 9.79799107142857  1.621875 9.57254464285714  C 1.63645833333333 9.34709821428571  1.665625 9.10379464285714  1.709375 8.84263392857143  C 1.753125 8.58147321428571  1.80833333333333 8.33928571428571  1.875 8.11607142857143  C 1.94166666666667 7.89285714285714  2.03125 7.67522321428571  2.14375 7.46316964285714  C 2.25625 7.25111607142857  2.38541666666667 7.0703125  2.53125 6.92075892857143  C 2.67708333333333 6.77120535714286  2.85520833333333 6.65178571428571  3.065625 6.5625  C 3.27604166666667 6.47321428571428  3.50833333333333 6.42857142857143  3.7625 6.42857142857143  C 3.80416666666667 6.42857142857143  3.89375 6.4765625  4.03125 6.57254464285714  C 4.16875 6.66852678571429  4.32083333333333 6.77566964285714  4.4875 6.89397321428571  C 4.65416666666667 7.01227678571428  4.87708333333333 7.11941964285714  5.15625 7.21540178571429  C 5.43541666666667 7.31138392857143  5.71666666666667 7.359375  6 7.359375  C 6.28333333333333 7.359375  6.56458333333333 7.31138392857143  6.84375 7.21540178571429  C 7.12291666666667 7.11941964285714  7.34583333333333 7.01227678571428  7.5125 6.89397321428571  C 7.67916666666667 6.77566964285714  7.83125 6.66852678571429  7.96875 6.57254464285714  C 8.10625 6.4765625  8.19583333333333 6.42857142857143  8.2375 6.42857142857143  C 8.49166666666667 6.42857142857143  8.72395833333334 6.47321428571428  8.934375 6.5625  C 9.14479166666667 6.65178571428571  9.32291666666667 6.77120535714286  9.46875 6.92075892857143  C 9.61458333333334 7.0703125  9.74375 7.25111607142857  9.85625 7.46316964285714  C 9.96875 7.67522321428571  10.0583333333333 7.89285714285714  10.125 8.11607142857143  C 10.1916666666667 8.33928571428571  10.246875 8.58147321428571  10.290625 8.84263392857143  C 10.334375 9.10379464285714  10.3635416666667 9.34709821428571  10.378125 9.57254464285714  Z M 3.53125 0.502232142857143  C 3.84375 0.837053571428572  4 1.24107142857143  4 1.71428571428571  C 4 2.1875  3.84375 2.59151785714286  3.53125 2.92633928571429  C 3.21875 3.26116071428571  2.84166666666667 3.42857142857143  2.4 3.42857142857143  C 1.95833333333333 3.42857142857143  1.58125 3.26116071428571  1.26875 2.92633928571429  C 0.95625 2.59151785714286  0.8 2.1875  0.8 1.71428571428571  C 0.8 1.24107142857143  0.95625 0.837053571428572  1.26875 0.502232142857143  C 1.58125 0.167410714285715  1.95833333333333 0  2.4 0  C 2.84166666666667 0  3.21875 0.167410714285715  3.53125 0.502232142857143  Z M 7.696875 2.46763392857143  C 8.165625 2.96986607142857  8.4 3.57589285714286  8.4 4.28571428571428  C 8.4 4.99553571428572  8.165625 5.6015625  7.696875 6.10379464285714  C 7.228125 6.60602678571429  6.6625 6.85714285714286  6 6.85714285714286  C 5.3375 6.85714285714286  4.771875 6.60602678571429  4.303125 6.10379464285714  C 3.834375 5.6015625  3.6 4.99553571428572  3.6 4.28571428571428  C 3.6 3.57589285714286  3.834375 2.96986607142857  4.303125 2.46763392857143  C 4.771875 1.96540178571429  5.3375 1.71428571428571  6 1.71428571428571  C 6.6625 1.71428571428571  7.228125 1.96540178571429  7.696875 2.46763392857143  Z M 11.225 3.42857142857143  C 11.7416666666667 3.42857142857143  12 4.21651785714286  12 5.79241071428572  C 12 6.140625  11.8833333333333 6.40513392857143  11.65 6.5859375  C 11.4166666666667 6.76674107142857  11.1291666666667 6.85714285714286  10.7875 6.85714285714286  L 9.95 6.85714285714286  C 9.52083333333334 6.30803571428571  8.96875 6.02232142857143  8.29375 6  C 8.63125 5.47767857142857  8.8 4.90625  8.8 4.28571428571428  C 8.8 4.15625  8.78958333333333 4.00892857142857  8.76875 3.84375  C 9.04375 3.94642857142857  9.32083333333333 3.99776785714286  9.6 3.99776785714286  C 9.84583333333333 3.99776785714286  10.09375 3.94977678571429  10.34375 3.85379464285714  C 10.59375 3.7578125  10.796875 3.66294642857143  10.953125 3.56919642857143  C 11.109375 3.47544642857143  11.2 3.42857142857143  11.225 3.42857142857143  Z M 10.73125 0.502232142857143  C 11.04375 0.837053571428572  11.2 1.24107142857143  11.2 1.71428571428571  C 11.2 2.1875  11.04375 2.59151785714286  10.73125 2.92633928571429  C 10.41875 3.26116071428571  10.0416666666667 3.42857142857143  9.6 3.42857142857143  C 9.15833333333333 3.42857142857143  8.78125 3.26116071428571  8.46875 2.92633928571429  C 8.15625 2.59151785714286  8 2.1875  8 1.71428571428571  C 8 1.24107142857143  8.15625 0.837053571428572  8.46875 0.502232142857143  C 8.78125 0.167410714285715  9.15833333333333 0  9.6 0  C 10.0416666666667 0  10.41875 0.167410714285715  10.73125 0.502232142857143  Z " fill-rule="nonzero" fill="#cccccc" stroke="none" transform="matrix(1 0 0 1 303 443 )" />
  </g>
</svg>