<?xml version="1.0" encoding="utf-8"?>
<svg version="1.1" xmlns:xlink="http://www.w3.org/1999/xlink" width="14px" height="14px" xmlns="http://www.w3.org/2000/svg">
  <g transform="matrix(1 0 0 1 -337 -442 )">
    <path d="M 13.5002788622421 0  C 13.6043874326083 0  13.6980851459379 0.0286458333333346  13.7813720022309 0.0859375000000007  C 13.9531511433352 0.2109375  14.0234244283324 0.377604166666666  13.9921918572225 0.5859375  L 11.9933073061907 12.5859375  C 11.9672801635992 12.7369791666667  11.8839933073062 12.8541666666667  11.7434467373118 12.9375  C 11.6705707380554 12.9791666666667  11.5898865960216 13  11.5013943112103 13  C 11.4441345975088 13  11.3816694552891 12.9869791666667  11.313998884551 12.9609375  L 7.77691020635806 11.515625  L 5.88733965421082 13.8203125  C 5.7936419408812 13.9401041666667  5.66610894218256 14  5.50474065811489 14  C 5.43707008737684 14  5.3798103736754 13.9895833333333  5.3329615170106 13.96875  C 5.23405837516267 13.9322916666667  5.15467559025841 13.87109375  5.09481316229783 13.78515625  C 5.03495073433724 13.69921875  5.00501952035694 13.6041666666667  5.00501952035694 13.5  L 5.00501952035694 10.7734375  L 11.7512548800892 2.5  L 3.40435025097602 9.7265625  L 0.320133853876185 8.4609375  C 0.127532998698643 8.38802083333333  0.0234244283324038 8.24479166666667  0.00780814277746793 8.03125  C -0.00260271425915598 7.82291666666667  0.0806841420338353 7.66927083333333  0.257668711656442 7.5703125  L 13.2504182933631 0.0703124999999996  C 13.3284997211378 0.0234374999999993  13.4117865774307 0  13.5002788622421 0  Z " fill-rule="nonzero" fill="#cccccc" stroke="none" transform="matrix(1 0 0 1 337 442 )" />
  </g>
</svg>