<?xml version="1.0" encoding="utf-8"?>
<svg version="1.1" xmlns:xlink="http://www.w3.org/1999/xlink" width="100px" height="100px" xmlns="http://www.w3.org/2000/svg">
  <g transform="matrix(1 0 0 1 -250 -404 )">
    <path d="M 250 404  L 350 404  L 350 504  L 250 504  L 250 404  " fill-rule="nonzero" fill="#cccccc" stroke="none" />
    <path d="M 257 411  L 343 411  L 343 497  L 257 497  L 257 411  " fill-rule="nonzero" fill="#ffffff" stroke="none" />
    <path d="M 309.5 434  C 305.3 434  302 430.7  302 426.5  C 302 422.3  305.3 419  309.5 419  C 313.7 419  317 422.3  317 426.5  C 317 430.7  313.7 434  309.5 434  " fill-rule="nonzero" fill="#cccccc" stroke="none" />
    <path d="M 260 495  L 260 450.45  L 280.25 430.2  L 308.6 446.4  L 324.8 442.35  L 341 446.4  L 341 495  L 260 495  " fill-rule="nonzero" fill="#169bd5" stroke="none" />
  </g>
</svg>