<?xml version="1.0" encoding="utf-8"?>
<svg version="1.1" xmlns:xlink="http://www.w3.org/1999/xlink" width="40px" height="50px" xmlns="http://www.w3.org/2000/svg">
  <defs>
    <filter x="405px" y="312px" width="40px" height="50px" filterUnits="userSpaceOnUse" id="filter29">
      <feOffset dx="1" dy="1" in="SourceAlpha" result="shadowOffsetInner" />
      <feGaussianBlur stdDeviation="2.5" in="shadowOffsetInner" result="shadowGaussian" />
      <feComposite in2="shadowGaussian" operator="atop" in="SourceAlpha" result="shadowComposite" />
      <feColorMatrix type="matrix" values="0 0 0 0 0  0 0 0 0 0  0 0 0 0 0  0 0 0 0.698039215686274 0  " in="shadowComposite" />
    </filter>
    <g id="widget30">
      <path d="M 424 355.036928468354  C 418.2 345.40734059591  409.5 339.629587872444  409.5 330  C 409.5 324.985714285714  412.4 316.5  424 316.5  C 435.6 316.5  438.5 324.985714285714  438.5 330  C 438.5 339.629587872444  429.8 345.40734059591  424 355.036928468354  Z " fill-rule="nonzero" fill="#f59a23" stroke="none" />
      <path d="M 424 356  C 418 346  409 340  409 330  C 409 324.8  412 316  424 316  C 436 316  439 324.8  439 330  C 439 340  430 346  424 356  Z M 424 354.073856936707  C 429.6 344.81468119182  438 339.259175744887  438 330  C 438 325.171428571429  435.2 317  424 317  C 412.8 317  410 325.171428571429  410 330  C 410 339.259175744887  418.4 344.81468119182  424 354.073856936707  Z " fill-rule="nonzero" fill="#ffffff" stroke="none" />
    </g>
  </defs>
  <g transform="matrix(1 0 0 1 -405 -312 )">
    <use xlink:href="#widget30" filter="url(#filter29)" />
    <use xlink:href="#widget30" />
  </g>
</svg>