<?xml version="1.0" encoding="utf-8"?>
<svg version="1.1" xmlns:xlink="http://www.w3.org/1999/xlink" width="361px" height="176px" xmlns="http://www.w3.org/2000/svg">
  <g transform="matrix(1 0 0 1 -1468 -223 )">
    <path d="M 1469 227  A 3 3 0 0 1 1472 224 L 1825 224  A 3 3 0 0 1 1828 227 L 1828 395  A 3 3 0 0 1 1825 398 L 1472 398  A 3 3 0 0 1 1469 395 L 1469 227  Z " fill-rule="nonzero" fill="#ff3399" stroke="none" fill-opacity="0.0980392156862745" />
    <path d="M 1468.5 227  A 3.5 3.5 0 0 1 1472 223.5 L 1825 223.5  A 3.5 3.5 0 0 1 1828.5 227 L 1828.5 395  A 3.5 3.5 0 0 1 1825 398.5 L 1472 398.5  A 3.5 3.5 0 0 1 1468.5 395 L 1468.5 227  Z " stroke-width="1" stroke-dasharray="9,4" stroke="#ff3399" fill="none" stroke-dashoffset="0.5" />
  </g>
</svg>