<?xml version="1.0" encoding="utf-8"?>
<svg version="1.1" xmlns:xlink="http://www.w3.org/1999/xlink" width="12px" height="12px" viewBox="458 774  12 12" xmlns="http://www.w3.org/2000/svg">
  <path d="M 464 774  C 467.36 774  470 776.64  470 780  C 470 783.36  467.36 786  464 786  C 460.64 786  458 783.36  458 780  C 458 776.64  460.64 774  464 774  Z " fill-rule="nonzero" fill="#f0f0f0" stroke="none" />
  <path d="M 464 774.5  C 467.08 774.5  469.5 776.92  469.5 780  C 469.5 783.08  467.08 785.5  464 785.5  C 460.92 785.5  458.5 783.08  458.5 780  C 458.5 776.92  460.92 774.5  464 774.5  Z " stroke-width="1" stroke="#797979" fill="none" />
  <path d="M 464 783  C 462.32 783  461 781.68  461 780  C 461 778.32  462.32 777  464 777  C 465.68 777  467 778.32  467 780  C 467 781.68  465.68 783  464 783  " fill-rule="nonzero" fill="#797979" stroke="none" />
</svg>