<?xml version="1.0" encoding="utf-8"?>
<svg version="1.1" xmlns:xlink="http://www.w3.org/1999/xlink" width="12px" height="12px" viewBox="458 741  12 12" xmlns="http://www.w3.org/2000/svg">
  <path d="M 464 741  C 467.36 741  470 743.64  470 747  C 470 750.36  467.36 753  464 753  C 460.64 753  458 750.36  458 747  C 458 743.64  460.64 741  464 741  Z " fill-rule="nonzero" fill="#ffffff" stroke="none" />
  <path d="M 464 741.5  C 467.08 741.5  469.5 743.92  469.5 747  C 469.5 750.08  467.08 752.5  464 752.5  C 460.92 752.5  458.5 750.08  458.5 747  C 458.5 743.92  460.92 741.5  464 741.5  Z " stroke-width="1" stroke="#797979" fill="none" />
  <path d="M 464 750  C 462.32 750  461 748.68  461 747  C 461 745.32  462.32 744  464 744  C 465.68 744  467 745.32  467 747  C 467 748.68  465.68 750  464 750  " fill-rule="nonzero" fill="#797979" stroke="none" />
</svg>