<?xml version="1.0" encoding="utf-8"?>
<svg version="1.1" xmlns:xlink="http://www.w3.org/1999/xlink" width="12px" height="12px" viewBox="458 804  12 12" xmlns="http://www.w3.org/2000/svg">
  <path d="M 464 804  C 467.36 804  470 806.64  470 810  C 470 813.36  467.36 816  464 816  C 460.64 816  458 813.36  458 810  C 458 806.64  460.64 804  464 804  Z " fill-rule="nonzero" fill="#ffffff" stroke="none" />
  <path d="M 464 804.5  C 467.08 804.5  469.5 806.92  469.5 810  C 469.5 813.08  467.08 815.5  464 815.5  C 460.92 815.5  458.5 813.08  458.5 810  C 458.5 806.92  460.92 804.5  464 804.5  Z " stroke-width="1" stroke="#797979" fill="none" />
  <path d="M 464 813  C 462.32 813  461 811.68  461 810  C 461 808.32  462.32 807  464 807  C 465.68 807  467 808.32  467 810  C 467 811.68  465.68 813  464 813  " fill-rule="nonzero" fill="#797979" stroke="none" />
</svg>