<?xml version="1.0" encoding="utf-8"?>
<svg version="1.1" xmlns:xlink="http://www.w3.org/1999/xlink" width="15px" height="13px" xmlns="http://www.w3.org/2000/svg">
  <g transform="matrix(1 0 0 1 -831 -86 )">
    <path d="M 0.0740740740740741 7  L 0.0740740740740741 6  L 14.9537037037037 6  L 14.9537037037037 7  L 0.0740740740740741 7  Z M 4.40740740740741 4.51726618705036  C 4.40740740740741 4.74172661870504  4.23148148148148 4.92877697841727  3.97222222222222 4.92877697841727  C 3.74074074074074 4.92877697841727  3.53703703703704 4.73237410071942  3.53703703703704 4.48920863309352  L 3.53703703703704 0.49568345323741  C 3.53703703703704 0.261870503597122  3.73148148148148 0.056115107913669  3.97222222222222 0.056115107913669  C 4.2037037037037 0.056115107913669  4.40740740740741 0.252517985611511  4.40740740740741 0.49568345323741  L 4.40740740740741 4.51726618705036  Z M 11.4722222222222 4.51726618705036  C 11.4722222222222 4.74172661870504  11.2777777777778 4.92877697841727  11.037037037037 4.92877697841727  C 10.8055555555556 4.92877697841727  10.6018518518519 4.73237410071942  10.6018518518519 4.48920863309352  L 10.6018518518519 0.49568345323741  C 10.6018518518519 0.261870503597122  10.7962962962963 0.056115107913669  11.037037037037 0.056115107913669  C 11.2685185185185 0.056115107913669  11.4722222222222 0.252517985611511  11.4722222222222 0.49568345323741  L 11.4722222222222 4.51726618705036  Z M 4.51851851851852 9.47410071942446  C 4.52777777777778 9.70791366906475  4.32407407407407 9.9136690647482  4.09259259259259 9.9136690647482  L 2.92592592592593 9.9136690647482  C 2.69444444444444 9.9136690647482  2.49074074074074 9.71726618705036  2.49074074074074 9.47410071942446  C 2.49074074074074 9.24028776978418  2.68518518518519 9.03453237410072  2.92592592592593 9.03453237410072  L 4.08333333333333 9.03453237410072  C 4.31481481481482 9.03453237410072  4.51851851851852 9.23093525179856  4.51851851851852 9.47410071942446  Z M 8.46296296296296 9.47410071942446  C 8.46296296296296 9.70791366906475  8.25925925925926 9.9136690647482  8.02777777777778 9.9136690647482  L 6.87037037037037 9.9136690647482  C 6.63888888888889 9.9136690647482  6.43518518518519 9.71726618705036  6.43518518518519 9.47410071942446  C 6.43518518518519 9.24028776978418  6.62962962962963 9.03453237410072  6.87037037037037 9.03453237410072  L 8.02777777777778 9.03453237410072  C 8.25925925925926 9.03453237410072  8.46296296296296 9.23093525179856  8.46296296296296 9.47410071942446  Z M 12.4814814814815 9.47410071942446  C 12.4814814814815 9.70791366906475  12.2777777777778 9.9136690647482  12.0462962962963 9.9136690647482  L 10.8611111111111 9.9136690647482  C 10.6296296296296 9.9136690647482  10.4259259259259 9.71726618705036  10.4259259259259 9.47410071942446  C 10.4259259259259 9.24028776978418  10.6203703703704 9.03453237410072  10.8611111111111 9.03453237410072  L 12.0462962962963 9.03453237410072  C 12.2777777777778 9.03453237410072  12.4814814814815 9.23093525179856  12.4814814814815 9.47410071942446  Z M 4.51851851851852 12.4762589928058  C 4.51851851851852 12.7194244604317  4.32407407407407 12.9158273381295  4.09259259259259 12.9158273381295  L 2.92592592592593 12.9158273381295  C 2.69444444444444 12.9158273381295  2.49074074074074 12.7194244604317  2.49074074074074 12.4762589928058  C 2.49074074074074 12.2330935251799  2.68518518518519 12.036690647482  2.92592592592593 12.036690647482  L 4.08333333333333 12.036690647482  C 4.31481481481482 12.036690647482  4.51851851851852 12.2330935251799  4.51851851851852 12.4762589928058  Z M 8.46296296296296 12.4762589928058  C 8.46296296296296 12.7194244604317  8.25925925925926 12.9158273381295  8.02777777777778 12.9158273381295  L 6.87037037037037 12.9158273381295  C 6.63888888888889 12.9158273381295  6.43518518518519 12.7194244604317  6.43518518518519 12.4762589928058  C 6.43518518518519 12.2330935251799  6.62962962962963 12.036690647482  6.87037037037037 12.036690647482  L 8.02777777777778 12.036690647482  C 8.25925925925926 12.036690647482  8.46296296296296 12.2330935251799  8.46296296296296 12.4762589928058  Z M 12.4814814814815 12.4762589928058  C 12.4814814814815 12.7194244604317  12.2777777777778 12.9158273381295  12.0462962962963 12.9158273381295  L 10.8611111111111 12.9158273381295  C 10.6296296296296 12.9158273381295  10.4259259259259 12.7194244604317  10.4259259259259 12.4762589928058  C 10.4259259259259 12.2330935251799  10.6203703703704 12.036690647482  10.8611111111111 12.036690647482  L 12.0462962962963 12.036690647482  C 12.2777777777778 12.036690647482  12.4814814814815 12.2330935251799  12.4814814814815 12.4762589928058  Z " fill-rule="nonzero" fill="#7f7f7f" stroke="none" transform="matrix(1 0 0 1 831 86 )" />
  </g>
</svg>