<?xml version="1.0" encoding="utf-8"?>
<svg version="1.1" xmlns:xlink="http://www.w3.org/1999/xlink" width="16px" height="14px" xmlns="http://www.w3.org/2000/svg">
  <g transform="matrix(1 0 0 1 -831 -88 )">
    <path d="M 16 12.2105960264901  C 15.9251461988304 13.1841059602649  15.1298245614035 13.9721854304636  14.1380116959064 14  L 1.80584795321637 14  C 0.823391812865497 13.9721854304636  0.0187134502923979 13.1841059602649  0 12.2198675496689  L 0 1.80794701986755  C 0.0187134502923979 0.834437086092715  0.814035087719299 0.0556291390728475  1.80584795321637 0  L 14.1380116959064 0  C 15.1204678362573 0.0556291390728475  15.9251461988304 0.843708609271523  16 1.80794701986755  L 16 12.2105960264901  Z M 14.1380116959064 1  L 1.80584795321637 1  C 1.30994152046784 0.899337748344371  0.888888888888889 1.31655629139073  1 1.80794701986755  L 1 12.2105960264901  C 0.888888888888889 12.7019867549669  1.30994152046784 13.1192052980132  1.80584795321637 13  L 14.1380116959064 13  C 14.633918128655 13.1192052980132  15.0549707602339 12.7019867549669  15 12.2105960264901  L 15 1.80794701986755  C 15.0549707602339 1.31655629139073  14.633918128655 0.899337748344371  14.1380116959064 1  Z " fill-rule="nonzero" fill="#7f7f7f" stroke="none" transform="matrix(1 0 0 1 831 88 )" />
  </g>
</svg>