<?xml version="1.0" encoding="utf-8"?>
<svg version="1.1" xmlns:xlink="http://www.w3.org/1999/xlink" width="148px" height="32px" viewBox="2 65  148 32" xmlns="http://www.w3.org/2000/svg">
  <path d="M 3 69  A 3 3 0 0 1 6 66 L 146 66  A 3 3 0 0 1 149 69 L 149 93  A 3 3 0 0 1 146 96 L 6 96  A 3 3 0 0 1 3 93 L 3 69  Z " fill-rule="nonzero" fill="#ffffff" stroke="none" />
  <path d="M 2.5 69  A 3.5 3.5 0 0 1 6 65.5 L 146 65.5  A 3.5 3.5 0 0 1 149.5 69 L 149.5 93  A 3.5 3.5 0 0 1 146 96.5 L 6 96.5  A 3.5 3.5 0 0 1 2.5 93 L 2.5 69  Z " stroke-width="1" stroke="#000000" fill="none" stroke-opacity="0.850980392156863" />
</svg>