<?xml version="1.0" encoding="utf-8"?>
<svg version="1.1" xmlns:xlink="http://www.w3.org/1999/xlink" width="22px" height="27px" xmlns="http://www.w3.org/2000/svg">
  <g transform="matrix(1 0 0 1 -1460 -464 )">
    <path d="M 7.859375 10.283203125  C 7.953125 10.388671875  8 10.5234375  8 10.6875  L 8 20.8125  C 8 20.9765625  7.953125 21.111328125  7.859375 21.216796875  C 7.765625 21.322265625  7.64583333333333 21.375  7.5 21.375  L 6.5 21.375  C 6.35416666666667 21.375  6.234375 21.322265625  6.140625 21.216796875  C 6.046875 21.111328125  6 20.9765625  6 20.8125  L 6 10.6875  C 6 10.5234375  6.046875 10.388671875  6.140625 10.283203125  C 6.234375 10.177734375  6.35416666666667 10.125  6.5 10.125  L 7.5 10.125  C 7.64583333333333 10.125  7.765625 10.177734375  7.859375 10.283203125  Z M 11.859375 10.283203125  C 11.953125 10.388671875  12 10.5234375  12 10.6875  L 12 20.8125  C 12 20.9765625  11.953125 21.111328125  11.859375 21.216796875  C 11.765625 21.322265625  11.6458333333333 21.375  11.5 21.375  L 10.5 21.375  C 10.3541666666667 21.375  10.234375 21.322265625  10.140625 21.216796875  C 10.046875 21.111328125  10 20.9765625  10 20.8125  L 10 10.6875  C 10 10.5234375  10.046875 10.388671875  10.140625 10.283203125  C 10.234375 10.177734375  10.3541666666667 10.125  10.5 10.125  L 11.5 10.125  C 11.6458333333333 10.125  11.765625 10.177734375  11.859375 10.283203125  Z M 15.859375 10.283203125  C 15.953125 10.388671875  16 10.5234375  16 10.6875  L 16 20.8125  C 16 20.9765625  15.953125 21.111328125  15.859375 21.216796875  C 15.765625 21.322265625  15.6458333333333 21.375  15.5 21.375  L 14.5 21.375  C 14.3541666666667 21.375  14.234375 21.322265625  14.140625 21.216796875  C 14.046875 21.111328125  14 20.9765625  14 20.8125  L 14 10.6875  C 14 10.5234375  14.046875 10.388671875  14.140625 10.283203125  C 14.234375 10.177734375  14.3541666666667 10.125  14.5 10.125  L 15.5 10.125  C 15.6458333333333 10.125  15.765625 10.177734375  15.859375 10.283203125  Z M 17.890625 24.1259765625  C 17.9635416666667 23.9091796875  18 23.671875  18 23.4140625  L 18 7  L 4 7  L 4 23.4140625  C 4 23.671875  4.03645833333333 23.9091796875  4.109375 24.1259765625  C 4.18229166666667 24.3427734375  4.2578125 24.5009765625  4.3359375 24.6005859375  C 4.4140625 24.7001953125  4.46875 24.75  4.5 24.75  L 17.5 24.75  C 17.53125 24.75  17.5859375 24.7001953125  17.6640625 24.6005859375  C 17.7421875 24.5009765625  17.8177083333333 24.3427734375  17.890625 24.1259765625  Z M 8.265625 2.443359375  L 7.5 4.5  L 14.5 4.5  L 13.75 2.443359375  C 13.6770833333333 2.337890625  13.5885416666667 2.2734375  13.484375 2.25  L 8.53125 2.25  C 8.42708333333333 2.2734375  8.33854166666667 2.337890625  8.265625 2.443359375  Z M 21.859375 4.658203125  C 21.953125 4.763671875  22 4.8984375  22 5.0625  L 22 6.1875  C 22 6.3515625  21.953125 6.486328125  21.859375 6.591796875  C 21.765625 6.697265625  21.6458333333333 6.75  21.5 6.75  L 20 6.75  L 20 23.4140625  C 20 24.38671875  19.7552083333333 25.2275390625  19.265625 25.9365234375  C 18.7760416666667 26.6455078125  18.1875 27  17.5 27  L 4.5 27  C 3.8125 27  3.22395833333333 26.6572265625  2.734375 25.9716796875  C 2.24479166666667 25.2861328125  2 24.45703125  2 23.484375  L 2 6.75  L 0.5 6.75  C 0.354166666666667 6.75  0.234375 6.697265625  0.140625 6.591796875  C 0.046875 6.486328125  0 6.3515625  0 6.1875  L 0 5.0625  C 0 4.8984375  0.046875 4.763671875  0.140625 4.658203125  C 0.234375 4.552734375  0.354166666666667 4.5  0.5 4.5  L 5.328125 4.5  L 6.421875 1.564453125  C 6.578125 1.130859375  6.859375 0.761718749999998  7.265625 0.457031250000001  C 7.671875 0.152343749999998  8.08333333333333 0  8.5 0  L 13.5 0  C 13.9166666666667 0  14.328125 0.152343749999998  14.734375 0.457031250000001  C 15.140625 0.761718749999998  15.421875 1.130859375  15.578125 1.564453125  L 16.671875 4.5  L 21.5 4.5  C 21.6458333333333 4.5  21.765625 4.552734375  21.859375 4.658203125  Z " fill-rule="nonzero" fill="#999999" stroke="none" transform="matrix(1 0 0 1 1460 464 )" />
  </g>
</svg>