<?xml version="1.0" encoding="utf-8"?>
<svg version="1.1" xmlns:xlink="http://www.w3.org/1999/xlink" width="562px" height="485px" xmlns="http://www.w3.org/2000/svg">
  <g transform="matrix(1 0 0 1 -483 -209 )">
    <path d="M 483 209  L 1045 209  L 1045 694  L 483 694  L 483 209  " fill-rule="nonzero" fill="#cccccc" stroke="none" />
    <path d="M 517 243  L 1011 243  L 1011 660  L 517 660  L 517 243  " fill-rule="nonzero" fill="#ffffff" stroke="none" />
    <path d="M 811.615 354.5  C 791.245 354.5  775.24 338.495  775.24 318.125  C 775.24 297.755  791.245 281.75  811.615 281.75  C 831.985 281.75  847.99 297.755  847.99 318.125  C 847.99 338.495  831.985 354.5  811.615 354.5  " fill-rule="nonzero" fill="#cccccc" stroke="none" />
    <path d="M 529 648  L 529 431.85  L 646.5 333.6  L 811 444.507117437722  L 905 392.55  L 999 444.507117437722  L 999 648  L 529 648  " fill-rule="nonzero" fill="#169bd5" stroke="none" />
  </g>
</svg>