<?xml version="1.0" encoding="utf-8"?>
<svg version="1.1" xmlns:xlink="http://www.w3.org/1999/xlink" width="40px" height="40px" xmlns="http://www.w3.org/2000/svg">
  <defs>
    <filter x="284px" y="729px" width="40px" height="40px" filterUnits="userSpaceOnUse" id="filter62">
      <feOffset dx="1" dy="1" in="SourceAlpha" result="shadowOffsetInner" />
      <feGaussianBlur stdDeviation="2.5" in="shadowOffsetInner" result="shadowGaussian" />
      <feComposite in2="shadowGaussian" operator="atop" in="SourceAlpha" result="shadowComposite" />
      <feColorMatrix type="matrix" values="0 0 0 0 0  0 0 0 0 0  0 0 0 0 0  0 0 0 0.698039215686274 0  " in="shadowComposite" />
    </filter>
    <g id="widget63">
      <path d="M 303 733  C 311.4 733  318 739.6  318 748  C 318 756.4  311.4 763  303 763  C 294.6 763  288 756.4  288 748  C 288 739.6  294.6 733  303 733  Z " fill-rule="nonzero" fill="#ef5aa1" stroke="none" />
      <path d="M 303 733.5  C 311.12 733.5  317.5 739.88  317.5 748  C 317.5 756.12  311.12 762.5  303 762.5  C 294.88 762.5  288.5 756.12  288.5 748  C 288.5 739.88  294.88 733.5  303 733.5  Z " stroke-width="1" stroke="#ffffff" fill="none" />
    </g>
  </defs>
  <g transform="matrix(1 0 0 1 -284 -729 )">
    <use xlink:href="#widget63" filter="url(#filter62)" />
    <use xlink:href="#widget63" />
  </g>
</svg>