<?xml version="1.0" encoding="utf-8"?>
<svg version="1.1" xmlns:xlink="http://www.w3.org/1999/xlink" width="49px" height="50px" xmlns="http://www.w3.org/2000/svg">
  <g transform="matrix(1 0 0 1 -307 -282 )">
    <path d="M 307 282  L 356 282  L 356 332  L 307 332  L 307 282  " fill-rule="nonzero" fill="#cccccc" stroke="none" />
    <path d="M 310 285  L 353 285  L 353 329  L 310 329  L 310 285  " fill-rule="nonzero" fill="#ffffff" stroke="none" />
    <path d="M 336.155 296.85  C 334.097 296.85  332.48 295.233  332.48 293.175  C 332.48 291.117  334.097 289.5  336.155 289.5  C 338.213 289.5  339.83 291.117  339.83 293.175  C 339.83 295.233  338.213 296.85  336.155 296.85  " fill-rule="nonzero" fill="#cccccc" stroke="none" />
    <path d="M 311 328  L 311 304.9  L 321.25 294.4  L 335.6 302.8  L 343.8 300.7  L 352 302.8  L 352 328  L 311 328  " fill-rule="nonzero" fill="#169bd5" stroke="none" />
  </g>
</svg>