<?xml version="1.0" encoding="utf-8"?>
<svg version="1.1" xmlns:xlink="http://www.w3.org/1999/xlink" width="203px" height="34px" xmlns="http://www.w3.org/2000/svg">
  <defs>
    <mask fill="white" id="clip119">
      <path d="M 0 1.35458167330677  L 0 32.6454183266932  C 0 33.403984063745  2.41405405405405 34  5.48648648648649 34  L 197.513513513514 34  C 200.585945945946 34  203 33.403984063745  203 32.6454183266932  L 203 1.35458167330677  C 203 0.596015936254981  200.585945945946 0  197.513513513514 0  L 5.48648648648649 0  C 2.41405405405405 0  0 0.596015936254981  0 1.35458167330677  Z " fill-rule="evenodd" />
    </mask>
  </defs>
  <g transform="matrix(1 0 0 1 -1846 -166 )">
    <path d="M 0 1.35458167330677  L 0 32.6454183266932  C 0 33.403984063745  2.41405405405405 34  5.48648648648649 34  L 197.513513513514 34  C 200.585945945946 34  203 33.403984063745  203 32.6454183266932  L 203 1.35458167330677  C 203 0.596015936254981  200.585945945946 0  197.513513513514 0  L 5.48648648648649 0  C 2.41405405405405 0  0 0.596015936254981  0 1.35458167330677  Z " fill-rule="nonzero" fill="#d9001b" stroke="none" fill-opacity="0.0352941176470588" transform="matrix(1 0 0 1 1846 166 )" />
    <path d="M 0 1.35458167330677  L 0 32.6454183266932  C 0 33.403984063745  2.41405405405405 34  5.48648648648649 34  L 197.513513513514 34  C 200.585945945946 34  203 33.403984063745  203 32.6454183266932  L 203 1.35458167330677  C 203 0.596015936254981  200.585945945946 0  197.513513513514 0  L 5.48648648648649 0  C 2.41405405405405 0  0 0.596015936254981  0 1.35458167330677  Z " stroke-width="2" stroke-dasharray="9,4" stroke="#d9001b" fill="none" transform="matrix(1 0 0 1 1846 166 )" mask="url(#clip119)" />
  </g>
</svg>