<?xml version="1.0" encoding="utf-8"?>
<svg version="1.1" xmlns:xlink="http://www.w3.org/1999/xlink" width="191px" height="34px" xmlns="http://www.w3.org/2000/svg">
  <defs>
    <mask fill="white" id="clip118">
      <path d="M 0 1.35458167330677  L 0 32.6454183266932  C 0 33.403984063745  2.27135135135135 34  5.16216216216216 34  L 185.837837837838 34  C 188.728648648649 34  191 33.403984063745  191 32.6454183266932  L 191 1.35458167330677  C 191 0.596015936254981  188.728648648649 0  185.837837837838 0  L 5.16216216216216 0  C 2.27135135135135 0  0 0.596015936254981  0 1.35458167330677  Z " fill-rule="evenodd" />
    </mask>
  </defs>
  <g transform="matrix(1 0 0 1 -1846 -106 )">
    <path d="M 0 1.35458167330677  L 0 32.6454183266932  C 0 33.403984063745  2.27135135135135 34  5.16216216216216 34  L 185.837837837838 34  C 188.728648648649 34  191 33.403984063745  191 32.6454183266932  L 191 1.35458167330677  C 191 0.596015936254981  188.728648648649 0  185.837837837838 0  L 5.16216216216216 0  C 2.27135135135135 0  0 0.596015936254981  0 1.35458167330677  Z " fill-rule="nonzero" fill="#d9001b" stroke="none" fill-opacity="0.0352941176470588" transform="matrix(1 0 0 1 1846 106 )" />
    <path d="M 0 1.35458167330677  L 0 32.6454183266932  C 0 33.403984063745  2.27135135135135 34  5.16216216216216 34  L 185.837837837838 34  C 188.728648648649 34  191 33.403984063745  191 32.6454183266932  L 191 1.35458167330677  C 191 0.596015936254981  188.728648648649 0  185.837837837838 0  L 5.16216216216216 0  C 2.27135135135135 0  0 0.596015936254981  0 1.35458167330677  Z " stroke-width="2" stroke-dasharray="9,4" stroke="#d9001b" fill="none" transform="matrix(1 0 0 1 1846 106 )" mask="url(#clip118)" />
  </g>
</svg>