<?xml version="1.0" encoding="utf-8"?>
<svg version="1.1" xmlns:xlink="http://www.w3.org/1999/xlink" width="11px" height="11px" xmlns="http://www.w3.org/2000/svg">
  <g transform="matrix(1 0 0 1 -1010 -86 )">
    <path d="M 10.7407407407407 8.22222222222222  C 10.9135802469136 8.39506172839506  11 8.60493827160494  11 8.85185185185185  C 11 9.09876543209877  10.9135802469136 9.30864197530864  10.7407407407407 9.48148148148148  L 9.48148148148148 10.7407407407407  C 9.30864197530864 10.9135802469136  9.09876543209877 11  8.85185185185185 11  C 8.60493827160494 11  8.39506172839506 10.9135802469136  8.22222222222222 10.7407407407407  L 5.5 8.01851851851852  L 2.77777777777778 10.7407407407407  C 2.60493827160494 10.9135802469136  2.39506172839506 11  2.14814814814815 11  C 1.90123456790123 11  1.69135802469136 10.9135802469136  1.51851851851852 10.7407407407407  L 0.259259259259259 9.48148148148148  C 0.0864197530864198 9.30864197530864  0 9.09876543209877  0 8.85185185185185  C 0 8.60493827160494  0.0864197530864198 8.39506172839506  0.259259259259259 8.22222222222222  L 2.98148148148148 5.5  L 0.259259259259259 2.77777777777778  C 0.0864197530864198 2.60493827160494  0 2.39506172839506  0 2.14814814814815  C 0 1.90123456790123  0.0864197530864198 1.69135802469136  0.259259259259259 1.51851851851852  L 1.51851851851852 0.259259259259259  C 1.69135802469136 0.0864197530864194  1.90123456790123 0  2.14814814814815 0  C 2.39506172839506 0  2.60493827160494 0.0864197530864194  2.77777777777778 0.259259259259259  L 5.5 2.98148148148148  L 8.22222222222222 0.259259259259259  C 8.39506172839506 0.0864197530864194  8.60493827160494 0  8.85185185185185 0  C 9.09876543209877 0  9.30864197530864 0.0864197530864194  9.48148148148148 0.259259259259259  L 10.7407407407407 1.51851851851852  C 10.9135802469136 1.69135802469136  11 1.90123456790123  11 2.14814814814815  C 11 2.39506172839506  10.9135802469136 2.60493827160494  10.7407407407407 2.77777777777778  L 8.01851851851852 5.5  L 10.7407407407407 8.22222222222222  Z " fill-rule="nonzero" fill="#7f7f7f" stroke="none" transform="matrix(1 0 0 1 1010 86 )" />
  </g>
</svg>