<?xml version="1.0" encoding="utf-8"?>
<svg version="1.1" xmlns:xlink="http://www.w3.org/1999/xlink" width="120px" height="120px" xmlns="http://www.w3.org/2000/svg">
  <g transform="matrix(1 0 0 1 -924 -287 )">
    <path d="M 924 287  L 1044 287  L 1044 407  L 924 407  L 924 287  " fill-rule="nonzero" fill="#cccccc" stroke="none" />
    <path d="M 932 295  L 1036 295  L 1036 399  L 932 399  L 932 295  " fill-rule="nonzero" fill="#ffffff" stroke="none" />
    <path d="M 995.4 323  C 990.36 323  986.4 319.04  986.4 314  C 986.4 308.96  990.36 305  995.4 305  C 1000.44 305  1004.4 308.96  1004.4 314  C 1004.4 319.04  1000.44 323  995.4 323  " fill-rule="nonzero" fill="#cccccc" stroke="none" />
    <path d="M 935 396  L 935 342.1  L 959.5 317.6  L 993.8 337.2  L 1013.4 332.3  L 1033 337.2  L 1033 396  L 935 396  " fill-rule="nonzero" fill="#169bd5" stroke="none" />
  </g>
</svg>