<?xml version="1.0" encoding="utf-8"?>
<svg version="1.1" xmlns:xlink="http://www.w3.org/1999/xlink" width="70px" height="70px" xmlns="http://www.w3.org/2000/svg">
  <g transform="matrix(1 0 0 1 -848 -146 )">
    <path d="M 883 146  C 902.6 146  918 161.4  918 181  C 918 200.6  902.6 216  883 216  C 863.4 216  848 200.6  848 181  C 848 161.4  863.4 146  883 146  Z " fill-rule="nonzero" fill="#ffffff" stroke="none" />
    <path d="M 883 146.5  C 902.32 146.5  917.5 161.68  917.5 181  C 917.5 200.32  902.32 215.5  883 215.5  C 863.68 215.5  848.5 200.32  848.5 181  C 848.5 161.68  863.68 146.5  883 146.5  Z " stroke-width="1" stroke="#797979" fill="none" />
  </g>
</svg>