<?xml version="1.0" encoding="utf-8"?>
<svg version="1.1" xmlns:xlink="http://www.w3.org/1999/xlink" width="72px" height="72px" xmlns="http://www.w3.org/2000/svg">
  <g transform="matrix(1 0 0 1 -138 -217 )">
    <path d="M 174 217  C 194.16 217  210 232.84  210 253  C 210 273.16  194.16 289  174 289  C 153.84 289  138 273.16  138 253  C 138 232.84  153.84 217  174 217  Z " fill-rule="nonzero" fill="#ffffff" stroke="none" />
    <path d="M 174 217.5  C 193.88 217.5  209.5 233.12  209.5 253  C 209.5 272.88  193.88 288.5  174 288.5  C 154.12 288.5  138.5 272.88  138.5 253  C 138.5 233.12  154.12 217.5  174 217.5  Z " stroke-width="1" stroke="#797979" fill="none" />
  </g>
</svg>