<?xml version="1.0" encoding="utf-8"?>
<svg version="1.1" xmlns:xlink="http://www.w3.org/1999/xlink" width="12px" height="12px" viewBox="287 729  12 12" xmlns="http://www.w3.org/2000/svg">
  <path d="M 293 729  C 296.36 729  299 731.64  299 735  C 299 738.36  296.36 741  293 741  C 289.64 741  287 738.36  287 735  C 287 731.64  289.64 729  293 729  Z " fill-rule="nonzero" fill="#ffffff" stroke="none" />
  <path d="M 293 729.5  C 296.08 729.5  298.5 731.92  298.5 735  C 298.5 738.08  296.08 740.5  293 740.5  C 289.92 740.5  287.5 738.08  287.5 735  C 287.5 731.92  289.92 729.5  293 729.5  Z " stroke-width="1" stroke="#797979" fill="none" />
  <path d="M 293 738  C 291.32 738  290 736.68  290 735  C 290 733.32  291.32 732  293 732  C 294.68 732  296 733.32  296 735  C 296 736.68  294.68 738  293 738  " fill-rule="nonzero" fill="#797979" stroke="none" />
</svg>