<?xml version="1.0" encoding="utf-8"?>
<svg version="1.1" xmlns:xlink="http://www.w3.org/1999/xlink" width="22px" height="22px" xmlns="http://www.w3.org/2000/svg">
  <defs>
    <filter x="1626px" y="789px" width="22px" height="22px" filterUnits="userSpaceOnUse" id="filter58">
      <feOffset dx="0" dy="0" in="SourceAlpha" result="shadowOffsetInner" />
      <feGaussianBlur stdDeviation="2" in="shadowOffsetInner" result="shadowGaussian" />
      <feComposite in2="shadowGaussian" operator="atop" in="SourceAlpha" result="shadowComposite" />
      <feColorMatrix type="matrix" values="0 0 0 0 0  0 0 0 0 0  0 0 0 0 0  0 0 0 0.149019607843137 0  " in="shadowComposite" />
    </filter>
    <g id="widget59">
      <path d="M 1637 794  C 1640.36 794  1643 796.64  1643 800  C 1643 803.36  1640.36 806  1637 806  C 1633.64 806  1631 803.36  1631 800  C 1631 796.64  1633.64 794  1637 794  Z " fill-rule="nonzero" fill="#1890ff" stroke="none" />
      <path d="M 1637 794  C 1640.36 794  1643 796.64  1643 800  C 1643 803.36  1640.36 806  1637 806  C 1633.64 806  1631 803.36  1631 800  C 1631 796.64  1633.64 794  1637 794  Z " stroke-width="2" stroke="#ffffff" fill="none" />
    </g>
  </defs>
  <g transform="matrix(1 0 0 1 -1626 -789 )">
    <use xlink:href="#widget59" filter="url(#filter58)" />
    <use xlink:href="#widget59" />
  </g>
</svg>