<?xml version="1.0" encoding="utf-8"?>
<svg version="1.1" xmlns:xlink="http://www.w3.org/1999/xlink" width="10px" height="10px" xmlns="http://www.w3.org/2000/svg">
  <g transform="matrix(1 0 0 1 -1305 -796 )">
    <path d="M 1310 797  C 1312.24 797  1314 798.76  1314 801  C 1314 803.24  1312.24 805  1310 805  C 1307.76 805  1306 803.24  1306 801  C 1306 798.76  1307.76 797  1310 797  Z " fill-rule="nonzero" fill="#1890ff" stroke="none" />
    <path d="M 1310 797  C 1312.24 797  1314 798.76  1314 801  C 1314 803.24  1312.24 805  1310 805  C 1307.76 805  1306 803.24  1306 801  C 1306 798.76  1307.76 797  1310 797  Z " stroke-width="2" stroke="#ffffff" fill="none" />
  </g>
</svg>