<?xml version="1.0" encoding="utf-8"?>
<svg version="1.1" xmlns:xlink="http://www.w3.org/1999/xlink" width="16px" height="13px" xmlns="http://www.w3.org/2000/svg">
  <g transform="matrix(1 0 0 1 -600 -23 )">
    <path d="M 14.677799110495 2.90519270864125  L 12.7156344884356 1.19247014653168  C 12.5102923172342 1.01864194327194  12.2465922432877 0.92354827984162  11.9740806224225 1  L 1.80101171941811 1  C 1.37445419689581 0.925056214124544  1.031895690076 1.22303173880678  1.03058319512175 1.58722404177751  L 1.03058319512175 11.4115025635186  C 1.03058319512175 11.7769682761159  1.37445418151513 12.0749438007981  1.80101171941811 12  L 14.2092420724311 12  C 14.6357995949534 12.076217195502  14.9783581017732 11.7769682761159  14.9796705967275 11.4115025635186  L 14.9796705967275 3.53934574834959  C 14.9774391544887 3.29574072610765  14.8675025530539 3.06479267982091  14.677799110495 2.90519270864125  Z M 11.9727681428489 0  L 11.9740806224225 0.0693316304217165  C 12.5069494056819 0.0693316304217165  13.0175059592874 0.253974578776234  13.3955015530196 0.583785090437482  L 15.3550412159319 2.2965076674697  C 15.7317243300905 2.62631817913095  15.9443468515649 3.0732814661543  15.9443468515649 3.5406191430535  L 15.9443468515649 11.4115025635186  C 15.9417218770371 12.2519463510839  15.1647309394922 12.9281215801705  14.2079295928576 13  L 1.80101171941811 13  C 0.844210372783458 12.9281215652478  0.0685319148121562 12.2506729414573  0.064594460710779 11.4115025635186  L 0.064594460710779 1.58849743648143  C 0.064594460710779 1.18355633883634  0.24834232390194 0.796442841659277  0.57646349388981 0.511201308784117  C 0.914730863333525 0.223630058708993  1.34995771988831 0.066412977557928  1.79969922446386 0  L 11.9727681428489 0  Z " fill-rule="nonzero" fill="#85a3ff" stroke="none" transform="matrix(1 0 0 1 600 23 )" />
  </g>
</svg>