<?xml version="1.0" encoding="utf-8"?>
<svg version="1.1" xmlns:xlink="http://www.w3.org/1999/xlink" width="11px" height="6px" xmlns="http://www.w3.org/2000/svg">
  <g transform="matrix(1 0 0 1 -603 -27 )">
    <path d="M 0.073572993170983 5.92056244159152  L 0.852381227354723 5.92056244159152  L 0.852381227354723 0.0571808762304675  L 0.073572993170983 0.0571808762304675  L 0.073572993170983 5.92056244159152  Z M 1.87712888732122 5.92056244159152  L 2.66362272902977 5.92056244159152  L 2.66362272902977 1.51070823907207  L 2.69308422954516 1.51070823907207  L 5.35486629229481 5.92056244159152  L 6.11958424101276 5.92056244159152  L 6.11958424101276 0.0571808762304675  L 5.33309041431516 0.0571808762304675  L 5.33309041431516 4.41776296475528  L 5.30490984338358 4.41776296475528  L 2.67130833655457 0.0571808762304675  L 1.87712888732122 0.0571808762304675  L 1.87712888732122 5.92056244159152  Z M 9.24250277026156 5.92056244159152  L 9.24378369984538 5.92056244159152  L 9.24378369984538 0.820898643147243  L 10.961516981639 0.820898643147243  L 10.961516981639 0.0571808762304675  L 6.74083752093802 0.0571808762304675  L 6.74083752093802 0.820898643147243  L 8.46369453607782 0.820898643147243  L 8.46369453607782 5.92056244159152  L 9.24250277026156 5.92056244159152  Z " fill-rule="nonzero" fill="#85a3ff" stroke="none" transform="matrix(1 0 0 1 603 27 )" />
  </g>
</svg>