<?xml version="1.0" encoding="utf-8"?>
<svg version="1.1" xmlns:xlink="http://www.w3.org/1999/xlink" width="16px" height="13px" xmlns="http://www.w3.org/2000/svg">
  <g transform="matrix(1 0 0 1 -16 -23 )">
    <path d="M 14.25 1  L 1.75 1  C 1.2897591128705 0.824626865671642  0.91666015625 1.18658854000496  0.91666015625 1.6330908931903  L 0.91666015625 11.3345834305037  C 0.916670942882757 11.7810783839279  1.28976674019018 12.1430285099174  1.75 12  L 14.25 12  C 14.7102332598098 12.1430285099174  15.0833290571172 11.7810783839279  15.08333984375 11.3345834305037  L 15.08333984375 1.6330908931903  C 15.08333984375 1.18658854000496  14.7102408871295 0.824626865671642  14.25 1  Z M 1.74999999988556 0.0161628381529856  C 1.74999999988556 0.0161628381529856  1.75 0.0161628381529849  1.75 0  L 14.25 0  C 14.25 0.0161628381529849  14.2500000001144 0.0161628381529856  14.2500000001144 0.0161628381529856  C 15.1704709875619 0.0161628381529856  15.9166601563644 0.740077703409159  15.9166601563644 1.63307194496269  L 15.91666015625 11.3345834305037  C 15.91666015625 12.2275776720573  15.1704709874475 12.9514925373134  14.25 13  L 1.75 13  C 0.829529012552518 12.9514925373134  0.0833398437499998 12.2275776720573  0.0833398437500001 11.3345834305037  L 0.0833398437499998 1.6330908931903  C 0.0833398436355587 0.740077703409159  0.829529012438076 0.0161628381529856  1.74999999988556 0.0161628381529856  Z M 3.17833984375 4.75697149020523  C 3.47 4.55888671875  3.8375 4.46268656716418  4.28666015625 4.46268656716418  C 4.77666015625 4.46268656716418  5.16166015625 4.55888671875  5.43583984375 4.75695254197761  C 5.7275 4.96634940531716  5.89666015625 5.29458955223881  5.9375 5.73600746268657  L 5.26083984375 5.73600746268657  C 5.2025 5.48700880363806  5.09166015625 5.30590164412313  4.94 5.19838940065299  C 4.78833984375 5.08519268889925  4.555 5.03425985307836  4.25166015625 5.03425985307836  C 3.98916015625 5.03425985307836  3.79083984375 5.06821507695895  3.65083984375 5.14179104477612  C 3.47583984375 5.22667910447761  3.39416015625 5.36816552005597  3.39416015625 5.56056582322761  C 3.39416015625 5.7303419426306  3.4875 5.87182835820896  3.68583984375 5.97369402985075  C 3.77333984375 6.01898029384328  4.0125 6.10386835354478  4.3975 6.22269268889926  C 4.9633203125 6.39246880830224  5.325 6.52828970382463  5.4883203125 6.61884328358209  C 5.85 6.82822119869403  6.03083984375 7.11685954990672  6.03083984375 7.49036701259328  C 6.03083984375 7.85254343516791  5.885 8.14116283815298  5.59333984375 8.35055970149254  C 5.30166015625 8.55429104477612  4.8875 8.66182223647388  4.35666015625 8.66182223647388  C 3.84333984375 8.66182223647388  3.44083984375 8.56560313666045  3.155 8.37320283348881  C 2.805 8.13551626632463  2.6125 7.76200880363806  2.5833203125 7.24701492537314  L 3.26 7.24701492537314  C 3.3066796875 7.55261194029851  3.4175 7.77332089552239  3.59833984375 7.90347627098881  C 3.76166015625 8.01667298274254  4.0125 8.07891791044776  4.35666015625 8.07891791044776  C 4.66 8.07891791044776  4.905 8.02798507462687  5.08 7.93178492304105  C 5.255 7.82991925139926  5.34833984375 7.69974492770523  5.34833984375 7.52996880830224  C 5.34833984375 7.31492537313433  5.21416015625 7.14514925373135  4.9575 7.02064045009329  C 4.87583984375 6.98103865438433  4.6075 6.89048507462687  4.14666015625 6.75466417910448  C 3.63333984375 6.59620015158582  3.3125 6.4830223880597  3.19 6.41511194029851  C 2.86916015625 6.22835820895523  2.7116796875 5.95671641791045  2.7116796875 5.60018656716418  C 2.7116796875 5.24365671641791  2.86333984375 4.9606838852612  3.17833984375 4.75697149020523  Z M 6.29333984375 4.5419091068097  L 9.70583984375 4.5419091068097  L 9.70583984375 5.10783582089552  L 8.3408203125 5.10783582089552  L 8.3408203125 8.58258074860074  L 7.6583203125 8.58258074860074  L 7.6583203125 5.10783582089552  L 6.2933203125 5.10783582089552  L 6.2933203125 4.5419091068097  Z M 10.20166015625 4.5419091068097  L 12.05666015625 4.5419091068097  C 12.4825 4.5419091068097  12.82083984375 4.63246268656716  13.06583984375 4.81921641791045  C 13.3225 5.02294776119403  13.45666015625 5.31723268423507  13.45666015625 5.70205223880597  C 13.45666015625 5.91143015391791  13.39833984375 6.0982028334888  13.28166015625 6.26231343283582  C 13.1558620834053 6.44037251824196  12.9669109508244 6.5672831083438  12.75083984375 6.61884328358209  L 12.75083984375 6.63015537546641  C 13.1125 6.70939686333955  13.31666015625 6.94141791044776  13.36333984375 7.3375685051306  L 13.43333984375 7.9883643306903  C 13.45666015625 8.23738193796642  13.54416015625 8.43544776119403  13.68416015625 8.58258074860074  L 12.943359375 8.58258074860074  C 12.8441796875 8.4580908931903  12.785859375 8.28264925373134  12.76251953125 8.05627477845149  L 12.71001953125 7.55827746035448  C 12.6866796875 7.3375685051306  12.6166796875 7.17910447761194  12.50001953125 7.08290432602612  C 12.37751953125 6.98103865438433  12.19669921875 6.93575239039179  11.963359375 6.93575239039179  L 10.8841796875 6.93575239039179  L 10.8841796875 8.58258074860075  L 10.2016796875 8.58258074860075  L 10.2016796875 4.5419091068097  Z M 11.96333984375 5.10783582089552  L 10.88416015625 5.10783582089552  L 10.88416015625 6.36984462453358  L 11.96333984375 6.36984462453358  C 12.23166015625 6.36984462453358  12.43583984375 6.31324626865672  12.57583984375 6.20571507695896  C 12.70416015625 6.09253731343284  12.76833984375 5.93407328591418  12.76833984375 5.7303419426306  C 12.76833984375 5.50963298740672  12.70416015625 5.35118790811567  12.57583984375 5.25496880830224  C 12.4475 5.15310313666045  12.24333984375 5.10783582089552  11.96333984375 5.10783582089552  Z " fill-rule="nonzero" fill="#85a3ff" stroke="none" transform="matrix(1 0 0 1 16 23 )" />
  </g>
</svg>