<?xml version="1.0" encoding="utf-8"?>
<svg version="1.1" xmlns:xlink="http://www.w3.org/1999/xlink" width="12px" height="12px" viewBox="325 192  12 12" xmlns="http://www.w3.org/2000/svg">
  <path d="M 331 192  C 334.36 192  337 194.64  337 198  C 337 201.36  334.36 204  331 204  C 327.64 204  325 201.36  325 198  C 325 194.64  327.64 192  331 192  Z " fill-rule="nonzero" fill="#ffffff" stroke="none" />
  <path d="M 331 192.5  C 334.08 192.5  336.5 194.92  336.5 198  C 336.5 201.08  334.08 203.5  331 203.5  C 327.92 203.5  325.5 201.08  325.5 198  C 325.5 194.92  327.92 192.5  331 192.5  Z " stroke-width="1" stroke="#797979" fill="none" />
  <path d="M 331 201  C 329.32 201  328 199.68  328 198  C 328 196.32  329.32 195  331 195  C 332.68 195  334 196.32  334 198  C 334 199.68  332.68 201  331 201  " fill-rule="nonzero" fill="#797979" stroke="none" />
</svg>