<?xml version="1.0" encoding="utf-8"?>
<svg version="1.1" xmlns:xlink="http://www.w3.org/1999/xlink" width="12px" height="12px" viewBox="139 192  12 12" xmlns="http://www.w3.org/2000/svg">
  <path d="M 145 192  C 148.36 192  151 194.64  151 198  C 151 201.36  148.36 204  145 204  C 141.64 204  139 201.36  139 198  C 139 194.64  141.64 192  145 192  Z " fill-rule="nonzero" fill="#f0f0f0" stroke="none" />
  <path d="M 145 192.5  C 148.08 192.5  150.5 194.92  150.5 198  C 150.5 201.08  148.08 203.5  145 203.5  C 141.92 203.5  139.5 201.08  139.5 198  C 139.5 194.92  141.92 192.5  145 192.5  Z " stroke-width="1" stroke="#797979" fill="none" />
  <path d="M 145 201  C 143.32 201  142 199.68  142 198  C 142 196.32  143.32 195  145 195  C 146.68 195  148 196.32  148 198  C 148 199.68  146.68 201  145 201  " fill-rule="nonzero" fill="#797979" stroke="none" />
</svg>