<?xml version="1.0" encoding="utf-8"?>
<svg version="1.1" xmlns:xlink="http://www.w3.org/1999/xlink" width="50px" height="50px" xmlns="http://www.w3.org/2000/svg">
  <g transform="matrix(1 0 0 1 -760 -334 )">
    <path d="M 760 334  L 810 334  L 810 384  L 760 384  L 760 334  " fill-rule="nonzero" fill="#cccccc" stroke="none" />
    <path d="M 764 338  L 806 338  L 806 380  L 764 380  L 764 338  " fill-rule="nonzero" fill="#ffffff" stroke="none" />
    <path d="M 789.75 349  C 787.65 349  786 347.35  786 345.25  C 786 343.15  787.65 341.5  789.75 341.5  C 791.85 341.5  793.5 343.15  793.5 345.25  C 793.5 347.35  791.85 349  789.75 349  " fill-rule="nonzero" fill="#cccccc" stroke="none" />
    <path d="M 766 379  L 766 357.55  L 775.75 347.8  L 789.4 355.6  L 797.2 353.65  L 805 355.6  L 805 379  L 766 379  " fill-rule="nonzero" fill="#169bd5" stroke="none" />
  </g>
</svg>