<?xml version="1.0" encoding="utf-8"?>
<svg version="1.1" xmlns:xlink="http://www.w3.org/1999/xlink" width="170px" height="170px" xmlns="http://www.w3.org/2000/svg">
  <g transform="matrix(1 0 0 1 -280 -184 )">
    <path d="M 365 184  C 412.6 184  450 221.4  450 269  C 450 316.6  412.6 354  365 354  C 317.4 354  280 316.6  280 269  C 280 221.4  317.4 184  365 184  Z " fill-rule="nonzero" fill="#ffffff" stroke="none" />
    <path d="M 365 184.5  C 412.32 184.5  449.5 221.68  449.5 269  C 449.5 316.32  412.32 353.5  365 353.5  C 317.68 353.5  280.5 316.32  280.5 269  C 280.5 221.68  317.68 184.5  365 184.5  Z " stroke-width="1" stroke="#797979" fill="none" />
  </g>
</svg>