<?xml version="1.0" encoding="utf-8"?>
<svg version="1.1" xmlns:xlink="http://www.w3.org/1999/xlink" width="8px" height="8px" xmlns="http://www.w3.org/2000/svg">
  <g transform="matrix(1 0 0 1 -927 -87 )">
    <path d="M 8 4  C 8 3.75416666666667  7.80138888888889 3.55555555555556  7.55555555555556 3.55555555555556  L 4.44444444444444 3.55555555555556  L 4.44444444444444 0.444444444444444  C 4.44444444444444 0.198611111111111  4.24583333333333 0  4 0  C 3.75416666666667 0  3.55555555555556 0.198611111111111  3.55555555555556 0.444444444444444  L 3.55555555555556 3.55555555555556  L 0.444444444444444 3.55555555555556  C 0.198611111111111 3.55555555555556  0 3.75416666666667  0 4  C 0 4.24583333333333  0.198611111111111 4.44444444444444  0.444444444444444 4.44444444444444  L 3.55555555555556 4.44444444444444  L 3.55555555555556 7.55555555555556  C 3.55555555555556 7.80138888888889  3.75416666666667 8  4 8  C 4.24583333333333 8  4.44444444444444 7.80138888888889  4.44444444444444 7.55555555555556  L 4.44444444444444 4.44444444444444  L 7.55555555555556 4.44444444444444  C 7.80138888888889 4.44444444444444  8 4.24583333333333  8 4  Z " fill-rule="nonzero" fill="#ff6800" stroke="none" transform="matrix(1 0 0 1 927 87 )" />
  </g>
</svg>