<?xml version="1.0" encoding="utf-8"?>
<svg version="1.1" xmlns:xlink="http://www.w3.org/1999/xlink" width="16px" height="16px" xmlns="http://www.w3.org/2000/svg">
  <g transform="matrix(1 0 0 1 -923 -83 )">
    <path d="M 16 8  C 16 3.58125  12.41875 0  8 0  C 3.58125 0  0 3.58125  0 8  C 0 12.41875  3.58125 16  8 16  C 12.41875 16  16 12.41875  16 8  Z M 15 8  C 15 11.865625  11.865625 15  8 15  C 4.134375 15  1 11.865625  1 8  C 1 4.134375  4.134375 1  8 1  C 11.865625 1  15 4.134375  15 8  Z " fill-rule="nonzero" fill="#ff6800" stroke="none" transform="matrix(1 0 0 1 923 83 )" />
  </g>
</svg>