<?xml version="1.0" encoding="utf-8"?>
<svg version="1.1" xmlns:xlink="http://www.w3.org/1999/xlink" width="12px" height="12px" viewBox="23 291  12 12" xmlns="http://www.w3.org/2000/svg">
  <path d="M 29 291  C 32.36 291  35 293.64  35 297  C 35 300.36  32.36 303  29 303  C 25.64 303  23 300.36  23 297  C 23 293.64  25.64 291  29 291  Z " fill-rule="nonzero" fill="#ffffff" stroke="none" />
  <path d="M 29 291.5  C 32.08 291.5  34.5 293.92  34.5 297  C 34.5 300.08  32.08 302.5  29 302.5  C 25.92 302.5  23.5 300.08  23.5 297  C 23.5 293.92  25.92 291.5  29 291.5  Z " stroke-width="1" stroke="#797979" fill="none" />
  <path d="M 29 300  C 27.32 300  26 298.68  26 297  C 26 295.32  27.32 294  29 294  C 30.68 294  32 295.32  32 297  C 32 298.68  30.68 300  29 300  " fill-rule="nonzero" fill="#797979" stroke="none" />
</svg>