<?xml version="1.0" encoding="utf-8"?>
<svg version="1.1" xmlns:xlink="http://www.w3.org/1999/xlink" width="12px" height="12px" viewBox="22 273  12 12" xmlns="http://www.w3.org/2000/svg">
  <path d="M 28 273  C 31.36 273  34 275.64  34 279  C 34 282.36  31.36 285  28 285  C 24.64 285  22 282.36  22 279  C 22 275.64  24.64 273  28 273  Z " fill-rule="nonzero" fill="#ffffff" stroke="none" />
  <path d="M 28 273.5  C 31.08 273.5  33.5 275.92  33.5 279  C 33.5 282.08  31.08 284.5  28 284.5  C 24.92 284.5  22.5 282.08  22.5 279  C 22.5 275.92  24.92 273.5  28 273.5  Z " stroke-width="1" stroke="#797979" fill="none" />
  <path d="M 28 282  C 26.32 282  25 280.68  25 279  C 25 277.32  26.32 276  28 276  C 29.68 276  31 277.32  31 279  C 31 280.68  29.68 282  28 282  " fill-rule="nonzero" fill="#797979" stroke="none" />
</svg>