<?xml version="1.0" encoding="utf-8"?>
<svg version="1.1" xmlns:xlink="http://www.w3.org/1999/xlink" width="12px" height="12px" viewBox="473 273  12 12" xmlns="http://www.w3.org/2000/svg">
  <path d="M 479 273  C 482.36 273  485 275.64  485 279  C 485 282.36  482.36 285  479 285  C 475.64 285  473 282.36  473 279  C 473 275.64  475.64 273  479 273  Z " fill-rule="nonzero" fill="#f0f0f0" stroke="none" />
  <path d="M 479 273.5  C 482.08 273.5  484.5 275.92  484.5 279  C 484.5 282.08  482.08 284.5  479 284.5  C 475.92 284.5  473.5 282.08  473.5 279  C 473.5 275.92  475.92 273.5  479 273.5  Z " stroke-width="1" stroke="#797979" fill="none" />
  <path d="M 479 282  C 477.32 282  476 280.68  476 279  C 476 277.32  477.32 276  479 276  C 480.68 276  482 277.32  482 279  C 482 280.68  480.68 282  479 282  " fill-rule="nonzero" fill="#797979" stroke="none" />
</svg>