<?xml version="1.0" encoding="utf-8"?>
<svg version="1.1" xmlns:xlink="http://www.w3.org/1999/xlink" width="270px" height="44px" xmlns="http://www.w3.org/2000/svg">
  <g transform="matrix(1 0 0 1 -1127 -160 )">
    <path d="M 1128 164  A 3 3 0 0 1 1131 161 L 1393 161  A 3 3 0 0 1 1396 164 L 1396 200  A 3 3 0 0 1 1393 203 L 1131 203  A 3 3 0 0 1 1128 200 L 1128 164  Z " fill-rule="nonzero" fill="#ff3399" stroke="none" fill-opacity="0.0980392156862745" />
    <path d="M 1127.5 164  A 3.5 3.5 0 0 1 1131 160.5 L 1393 160.5  A 3.5 3.5 0 0 1 1396.5 164 L 1396.5 200  A 3.5 3.5 0 0 1 1393 203.5 L 1131 203.5  A 3.5 3.5 0 0 1 1127.5 200 L 1127.5 164  Z " stroke-width="1" stroke-dasharray="9,4" stroke="#ff3399" fill="none" stroke-dashoffset="0.5" />
  </g>
</svg>