<?xml version="1.0" encoding="utf-8"?>
<svg version="1.1" xmlns:xlink="http://www.w3.org/1999/xlink" width="384px" height="103px" xmlns="http://www.w3.org/2000/svg">
  <g transform="matrix(1 0 0 1 -1120 -973 )">
    <path d="M 1121 977  A 3 3 0 0 1 1124 974 L 1500 974  A 3 3 0 0 1 1503 977 L 1503 1072  A 3 3 0 0 1 1500 1075 L 1124 1075  A 3 3 0 0 1 1121 1072 L 1121 977  Z " fill-rule="nonzero" fill="#ff3399" stroke="none" fill-opacity="0.0980392156862745" />
    <path d="M 1120.5 977  A 3.5 3.5 0 0 1 1124 973.5 L 1500 973.5  A 3.5 3.5 0 0 1 1503.5 977 L 1503.5 1072  A 3.5 3.5 0 0 1 1500 1075.5 L 1124 1075.5  A 3.5 3.5 0 0 1 1120.5 1072 L 1120.5 977  Z " stroke-width="1" stroke-dasharray="9,4" stroke="#ff3399" fill="none" stroke-dashoffset="0.5" />
  </g>
</svg>