<?xml version="1.0" encoding="utf-8"?>
<svg version="1.1" xmlns:xlink="http://www.w3.org/1999/xlink" width="59px" height="25px" viewBox="262 444  59 25" xmlns="http://www.w3.org/2000/svg">
  <path d="M 262.5 448  A 3.5 3.5 0 0 1 266 444.5 L 317 444.5  A 3.5 3.5 0 0 1 320.5 448 L 320.5 465  A 3.5 3.5 0 0 1 317 468.5 L 266 468.5  A 3.5 3.5 0 0 1 262.5 465 L 262.5 448  Z " fill-rule="nonzero" fill="#ffffff" stroke="none" />
  <path d="M 262.5 448  A 3.5 3.5 0 0 1 266 444.5 L 317 444.5  A 3.5 3.5 0 0 1 320.5 448 L 320.5 465  A 3.5 3.5 0 0 1 317 468.5 L 266 468.5  A 3.5 3.5 0 0 1 262.5 465 L 262.5 448  Z " stroke-width="1" stroke="#ff6800" fill="none" />
</svg>