<?xml version="1.0" encoding="utf-8"?>
<svg version="1.1" xmlns:xlink="http://www.w3.org/1999/xlink" width="48px" height="48px" xmlns="http://www.w3.org/2000/svg">
  <g transform="matrix(1 0 0 1 -272 -613 )">
    <path d="M 296 613  C 309.44 613  320 623.56  320 637  C 320 650.44  309.44 661  296 661  C 282.56 661  272 650.44  272 637  C 272 623.56  282.56 613  296 613  Z " fill-rule="nonzero" fill="#ffffff" stroke="none" />
    <path d="M 296 613.5  C 309.16 613.5  319.5 623.84  319.5 637  C 319.5 650.16  309.16 660.5  296 660.5  C 282.84 660.5  272.5 650.16  272.5 637  C 272.5 623.84  282.84 613.5  296 613.5  Z " stroke-width="1" stroke="#ff0000" fill="none" />
  </g>
</svg>