<?xml version="1.0" encoding="utf-8"?>
<svg version="1.1" xmlns:xlink="http://www.w3.org/1999/xlink" width="15px" height="15px" xmlns="http://www.w3.org/2000/svg">
  <g transform="matrix(1 0 0 1 -1502 -1119 )">
    <path d="M 1509.5 1119  C 1513.7 1119  1517 1122.3  1517 1126.5  C 1517 1130.7  1513.7 1134  1509.5 1134  C 1505.3 1134  1502 1130.7  1502 1126.5  C 1502 1122.3  1505.3 1119  1509.5 1119  Z " fill-rule="nonzero" fill="#cccccc" stroke="none" />
    <path d="M 1509.5 1119.5  C 1513.42 1119.5  1516.5 1122.58  1516.5 1126.5  C 1516.5 1130.42  1513.42 1133.5  1509.5 1133.5  C 1505.58 1133.5  1502.5 1130.42  1502.5 1126.5  C 1502.5 1122.58  1505.58 1119.5  1509.5 1119.5  Z " stroke-width="1" stroke="#797979" fill="none" />
  </g>
</svg>