<?xml version="1.0" encoding="utf-8"?>
<svg version="1.1" xmlns:xlink="http://www.w3.org/1999/xlink" width="20px" height="20px" xmlns="http://www.w3.org/2000/svg">
  <g transform="matrix(1 0 0 1 -317 -302 )">
    <path d="M 14.7135416666667 13.5416666666667  C 14.8784722222222 13.3767361111111  14.9609375 13.1770833333333  14.9609375 12.9427083333333  C 14.9609375 12.7170138888889  14.8784722222222 12.5217013888889  14.7135416666667 12.3567708333333  L 12.3567708333333 10  L 14.7135416666667 7.64322916666667  C 14.8784722222222 7.47829861111111  14.9609375 7.28298611111111  14.9609375 7.05729166666667  C 14.9609375 6.82291666666667  14.8784722222222 6.62326388888889  14.7135416666667 6.45833333333333  L 13.5416666666667 5.28645833333333  C 13.3767361111111 5.12152777777778  13.1770833333333 5.0390625  12.9427083333333 5.0390625  C 12.7170138888889 5.0390625  12.5217013888889 5.12152777777778  12.3567708333333 5.28645833333333  L 10 7.64322916666667  L 7.64322916666667 5.28645833333333  C 7.47829861111111 5.12152777777778  7.28298611111111 5.0390625  7.05729166666667 5.0390625  C 6.82291666666667 5.0390625  6.62326388888889 5.12152777777778  6.45833333333333 5.28645833333333  L 5.28645833333333 6.45833333333333  C 5.12152777777778 6.62326388888889  5.0390625 6.82291666666667  5.0390625 7.05729166666667  C 5.0390625 7.28298611111111  5.12152777777778 7.47829861111111  5.28645833333333 7.64322916666667  L 7.64322916666667 10  L 5.28645833333333 12.3567708333333  C 5.12152777777778 12.5217013888889  5.0390625 12.7170138888889  5.0390625 12.9427083333333  C 5.0390625 13.1770833333333  5.12152777777778 13.3767361111111  5.28645833333333 13.5416666666667  L 6.45833333333333 14.7135416666667  C 6.62326388888889 14.8784722222222  6.82291666666667 14.9609375  7.05729166666667 14.9609375  C 7.28298611111111 14.9609375  7.47829861111111 14.8784722222222  7.64322916666667 14.7135416666667  L 10 12.3567708333333  L 12.3567708333333 14.7135416666667  C 12.5217013888889 14.8784722222222  12.7170138888889 14.9609375  12.9427083333333 14.9609375  C 13.1770833333333 14.9609375  13.3767361111111 14.8784722222222  13.5416666666667 14.7135416666667  L 14.7135416666667 13.5416666666667  Z M 18.6588541666667 4.98046875  C 19.5529513888889 6.51258680555555  20 8.18576388888889  20 10  C 20 11.8142361111111  19.5529513888889 13.4874131944444  18.6588541666667 15.01953125  C 17.7647569444444 16.5516493055556  16.5516493055556 17.7647569444444  15.01953125 18.6588541666667  C 13.4874131944444 19.5529513888889  11.8142361111111 20  10 20  C 8.18576388888889 20  6.51258680555556 19.5529513888889  4.98046875 18.6588541666667  C 3.44835069444444 17.7647569444444  2.23524305555556 16.5516493055556  1.34114583333333 15.01953125  C 0.447048611111111 13.4874131944444  0 11.8142361111111  0 10  C 0 8.18576388888889  0.447048611111111 6.51258680555555  1.34114583333333 4.98046875  C 2.23524305555556 3.44835069444444  3.44835069444444 2.23524305555555  4.98046875 1.34114583333333  C 6.51258680555556 0.447048611111109  8.18576388888889 0  10 0  C 11.8142361111111 0  13.4874131944444 0.447048611111109  15.01953125 1.34114583333333  C 16.5516493055556 2.23524305555555  17.7647569444444 3.44835069444444  18.6588541666667 4.98046875  Z " fill-rule="nonzero" fill="#d7d7d7" stroke="none" transform="matrix(1 0 0 1 317 302 )" />
  </g>
</svg>