<?xml version="1.0" encoding="utf-8"?>
<svg version="1.1" xmlns:xlink="http://www.w3.org/1999/xlink" width="60px" height="60px" xmlns="http://www.w3.org/2000/svg">
  <g transform="matrix(1 0 0 1 -241 -9 )">
    <path d="M 271 9  C 287.8 9  301 22.2  301 39  C 301 55.8  287.8 69  271 69  C 254.2 69  241 55.8  241 39  C 241 22.2  254.2 9  271 9  Z " fill-rule="nonzero" fill="#ffffff" stroke="none" />
    <path d="M 271 9.5  C 287.52 9.5  300.5 22.48  300.5 39  C 300.5 55.52  287.52 68.5  271 68.5  C 254.48 68.5  241.5 55.52  241.5 39  C 241.5 22.48  254.48 9.5  271 9.5  Z " stroke-width="1" stroke="#bcbcbc" fill="none" />
  </g>
</svg>