<?xml version="1.0" encoding="utf-8"?>
<svg version="1.1" xmlns:xlink="http://www.w3.org/1999/xlink" width="10px" height="10px" xmlns="http://www.w3.org/2000/svg">
  <g transform="matrix(1 0 0 1 -1203 -382 )">
    <path d="M 1208 382  C 1210.8 382  1213 384.2  1213 387  C 1213 389.8  1210.8 392  1208 392  C 1205.2 392  1203 389.8  1203 387  C 1203 384.2  1205.2 382  1208 382  Z " fill-rule="nonzero" fill="#666666" stroke="none" />
    <path d="M 1208 382.5  C 1210.52 382.5  1212.5 384.48  1212.5 387  C 1212.5 389.52  1210.52 391.5  1208 391.5  C 1205.48 391.5  1203.5 389.52  1203.5 387  C 1203.5 384.48  1205.48 382.5  1208 382.5  Z " stroke-width="1" stroke="#bcbcbc" fill="none" />
  </g>
</svg>