<?xml version="1.0" encoding="utf-8"?>
<svg version="1.1" xmlns:xlink="http://www.w3.org/1999/xlink" width="10px" height="10px" xmlns="http://www.w3.org/2000/svg">
  <g transform="matrix(1 0 0 1 -1219 -382 )">
    <path d="M 1224 382  C 1226.8 382  1229 384.2  1229 387  C 1229 389.8  1226.8 392  1224 392  C 1221.2 392  1219 389.8  1219 387  C 1219 384.2  1221.2 382  1224 382  Z " fill-rule="nonzero" fill="#ffffff" stroke="none" />
    <path d="M 1224 382.5  C 1226.52 382.5  1228.5 384.48  1228.5 387  C 1228.5 389.52  1226.52 391.5  1224 391.5  C 1221.48 391.5  1219.5 389.52  1219.5 387  C 1219.5 384.48  1221.48 382.5  1224 382.5  Z " stroke-width="1" stroke="#bcbcbc" fill="none" />
  </g>
</svg>