<?xml version="1.0" encoding="utf-8"?>
<svg version="1.1" xmlns:xlink="http://www.w3.org/1999/xlink" width="24px" height="24px" xmlns="http://www.w3.org/2000/svg">
  <g transform="matrix(1 0 0 1 0 -494 )">
    <path d="M 18.703125 13.703125  C 18.9010416666667 13.5052083333333  19 13.2708333333333  19 13  L 19 11  C 19 10.7291666666667  18.9010416666667 10.4947916666667  18.703125 10.296875  C 18.5052083333333 10.0989583333333  18.2708333333333 10  18 10  L 14 10  L 14 6  C 14 5.72916666666666  13.9010416666667 5.49479166666666  13.703125 5.296875  C 13.5052083333333 5.09895833333333  13.2708333333333 5  13 5  L 11 5  C 10.7291666666667 5  10.4947916666667 5.09895833333333  10.296875 5.296875  C 10.0989583333333 5.49479166666666  10 5.72916666666666  10 6  L 10 10  L 6 10  C 5.72916666666667 10  5.49479166666667 10.0989583333333  5.296875 10.296875  C 5.09895833333333 10.4947916666667  5 10.7291666666667  5 11  L 5 13  C 5 13.2708333333333  5.09895833333333 13.5052083333333  5.296875 13.703125  C 5.49479166666667 13.9010416666667  5.72916666666667 14  6 14  L 10 14  L 10 18  C 10 18.2708333333333  10.0989583333333 18.5052083333333  10.296875 18.703125  C 10.4947916666667 18.9010416666667  10.7291666666667 19  11 19  L 13 19  C 13.2708333333333 19  13.5052083333333 18.9010416666667  13.703125 18.703125  C 13.9010416666667 18.5052083333333  14 18.2708333333333  14 18  L 14 14  L 18 14  C 18.2708333333333 14  18.5052083333333 13.9010416666667  18.703125 13.703125  Z M 22.390625 5.9765625  C 23.4635416666667 7.81510416666666  24 9.82291666666666  24 12  C 24 14.1770833333333  23.4635416666667 16.1848958333333  22.390625 18.0234375  C 21.3177083333333 19.8619791666667  19.8619791666667 21.3177083333333  18.0234375 22.390625  C 16.1848958333333 23.4635416666667  14.1770833333333 24  12 24  C 9.82291666666667 24  7.81510416666667 23.4635416666667  5.9765625 22.390625  C 4.13802083333333 21.3177083333333  2.68229166666667 19.8619791666667  1.609375 18.0234375  C 0.536458333333333 16.1848958333333  0 14.1770833333333  0 12  C 0 9.82291666666666  0.536458333333333 7.81510416666666  1.609375 5.9765625  C 2.68229166666667 4.13802083333333  4.13802083333333 2.68229166666666  5.9765625 1.609375  C 7.81510416666667 0.536458333333331  9.82291666666667 0  12 0  C 14.1770833333333 0  16.1848958333333 0.536458333333331  18.0234375 1.609375  C 19.8619791666667 2.68229166666666  21.3177083333333 4.13802083333333  22.390625 5.9765625  Z " fill-rule="nonzero" fill="#333333" stroke="none" transform="matrix(1 0 0 1 0 494 )" />
  </g>
</svg>