<?xml version="1.0" encoding="utf-8"?>
<svg version="1.1" xmlns:xlink="http://www.w3.org/1999/xlink" width="28px" height="22px" xmlns="http://www.w3.org/2000/svg">
  <g transform="matrix(1 0 0 1 -20 -25 )">
    <path d="M 28 11  C 28 10.0665865384615  27.216 9.30769230769231  26.2517073170732 9.30769230769231  L 5.99609756097561 9.30769230769231  L 12.6259512195122 2.89014423076923  C 13.3088780487805 2.22908653846154  13.3088780487805 1.15817307692308  12.6259512195122 0.497115384615385  C 11.9430243902439 -0.163942307692307  10.8366829268293 -0.163942307692307  10.153756097561 0.497115384615385  L 0.538146341463414 9.80480769230769  C -0.144780487804878 10.4658653846154  -0.144780487804878 11.5367788461538  0.538146341463414 12.1978365384615  L 10.153756097561 21.5055288461538  C 10.4952195121951 21.8360576923077  10.9432195121951 22  11.3912195121951 22  C 11.8392195121951 22  12.2872195121951 21.8360576923077  12.6286829268293 21.5055288461538  C 13.3116097560976 20.8444711538462  13.3116097560976 19.7735576923077  12.6286829268293 19.1125  L 5.99609756097561 12.6923076923077  L 26.2517073170732 12.6923076923077  C 27.216 12.6923076923077  28 11.9334134615385  28 11  Z " fill-rule="nonzero" fill="#000000" stroke="none" transform="matrix(1 0 0 1 20 25 )" />
  </g>
</svg>