<?xml version="1.0" encoding="utf-8"?>
<svg version="1.1" xmlns:xlink="http://www.w3.org/1999/xlink" width="12px" height="12px" xmlns="http://www.w3.org/2000/svg">
  <g transform="matrix(1 0 0 1 -59 -10 )">
    <path d="M 11.13984375 10.61015625  L 6.530859375 6  L 11.141015625 1.38984375  C 11.2875 1.243359375  11.2875 1.00546875  11.141015625 0.858984375  C 10.99453125 0.7125  10.756640625 0.7125  10.61015625 0.858984375  L 6 5.469140625  L 1.38984375 0.86015625  C 1.243359375 0.713671875  1.00546875 0.713671875  0.858984375 0.86015625  C 0.7125 1.006640625  0.7125 1.24453125  0.858984375 1.391015625  L 5.469140625 6  L 0.86015625 10.61015625  C 0.713671875 10.756640625  0.713671875 10.99453125  0.86015625 11.141015625  C 0.9328125 11.213671875  1.02890625 11.251171875  1.125 11.251171875  C 1.22109375 11.251171875  1.3171875 11.21484375  1.38984375 11.141015625  L 6 6.530859375  L 10.61015625 11.141015625  C 10.6828125 11.213671875  10.77890625 11.251171875  10.875 11.251171875  C 10.97109375 11.251171875  11.0671875 11.21484375  11.13984375 11.141015625  C 11.286328125 10.99453125  11.286328125 10.756640625  11.13984375 10.61015625  Z " fill-rule="nonzero" fill="#000000" stroke="none" transform="matrix(1 0 0 1 59 10 )" />
  </g>
</svg>