<?xml version="1.0" encoding="utf-8"?>
<svg version="1.1" xmlns:xlink="http://www.w3.org/1999/xlink" width="14px" height="14px" xmlns="http://www.w3.org/2000/svg">
  <g transform="matrix(1 0 0 1 -226 -9 )">
    <path d="M 14 7  C 14 3.13359375  10.86640625 0  7 0  C 3.13359375 0  0 3.13359375  0 7  C 0 10.86640625  3.13359375 14  7 14  C 10.86640625 14  14 10.86640625  14 7  Z M 8.2373046875 7  L 10.0939453125 8.856640625  C 10.434375 9.1970703125  10.434375 9.753515625  10.0939453125 10.0939453125  C 9.753515625 10.434375  9.1970703125 10.434375  8.856640625 10.0939453125  L 7 8.2373046875  L 5.143359375 10.0939453125  C 4.8029296875 10.434375  4.246484375 10.434375  3.9060546875 10.0939453125  C 3.565625 9.753515625  3.565625 9.1970703125  3.9060546875 8.856640625  L 5.7626953125 7  L 3.9060546875 5.143359375  C 3.565625 4.8029296875  3.565625 4.246484375  3.9060546875 3.9060546875  C 4.246484375 3.565625  4.8029296875 3.565625  5.143359375 3.9060546875  L 7 5.7626953125  L 8.856640625 3.9060546875  C 9.1970703125 3.565625  9.753515625 3.565625  10.0939453125 3.9060546875  C 10.434375 4.246484375  10.434375 4.8029296875  10.0939453125 5.143359375  L 8.2373046875 7  Z " fill-rule="nonzero" fill="#231815" stroke="none" transform="matrix(1 0 0 1 226 9 )" />
  </g>
</svg>