<?xml version="1.0" encoding="utf-8"?>
<svg version="1.1" xmlns:xlink="http://www.w3.org/1999/xlink" width="80px" height="80px" xmlns="http://www.w3.org/2000/svg">
  <g transform="matrix(1 0 0 1 -1070 -201 )">
    <path d="M 1071 204  A 2 2 0 0 1 1073 202 L 1147 202  A 2 2 0 0 1 1149 204 L 1149 278  A 2 2 0 0 1 1147 280 L 1073 280  A 2 2 0 0 1 1071 278 L 1071 204  Z " fill-rule="nonzero" fill="#ffffff" stroke="none" />
    <path d="M 1070.5 204  A 2.5 2.5 0 0 1 1073 201.5 L 1147 201.5  A 2.5 2.5 0 0 1 1149.5 204 L 1149.5 278  A 2.5 2.5 0 0 1 1147 280.5 L 1073 280.5  A 2.5 2.5 0 0 1 1070.5 278 L 1070.5 204  Z " stroke-width="1" stroke-dasharray="9,4" stroke="#d7d7d7" fill="none" stroke-dashoffset="0.5" />
  </g>
</svg>