<?xml version="1.0" encoding="utf-8"?>
<svg version="1.1" xmlns:xlink="http://www.w3.org/1999/xlink" width="180px" height="102px" xmlns="http://www.w3.org/2000/svg">
  <g transform="matrix(1 0 0 1 -182 -668 )">
    <path d="M 182 668  L 362 668  L 362 770  L 182 770  L 182 668  " fill-rule="nonzero" fill="#cccccc" stroke="none" />
    <path d="M 189 675  L 355 675  L 355 763  L 189 763  L 189 675  " fill-rule="nonzero" fill="#ffffff" stroke="none" />
    <path d="M 283.25 698.6  C 278.966 698.6  275.6 695.234  275.6 690.95  C 275.6 686.666  278.966 683.3  283.25 683.3  C 287.534 683.3  290.9 686.666  290.9 690.95  C 290.9 695.234  287.534 698.6  283.25 698.6  " fill-rule="nonzero" fill="#cccccc" stroke="none" />
    <path d="M 192 761  L 192 715.35  L 232.25 694.6  L 288.6 732.78  L 320.8 707.05  L 353 732.78  L 353 761  L 192 761  " fill-rule="nonzero" fill="#169bd5" stroke="none" />
  </g>
</svg>