<?xml version="1.0" encoding="utf-8"?>
<svg version="1.1" xmlns:xlink="http://www.w3.org/1999/xlink" width="552px" height="615px" xmlns="http://www.w3.org/2000/svg">
  <g transform="matrix(1 0 0 1 -1730 -673 )">
    <path d="M 1731 677  A 3 3 0 0 1 1734 674 L 2278 674  A 3 3 0 0 1 2281 677 L 2281 1284  A 3 3 0 0 1 2278 1287 L 1734 1287  A 3 3 0 0 1 1731 1284 L 1731 677  Z " fill-rule="nonzero" fill="#ff3399" stroke="none" fill-opacity="0.0980392156862745" />
    <path d="M 1730.5 677  A 3.5 3.5 0 0 1 1734 673.5 L 2278 673.5  A 3.5 3.5 0 0 1 2281.5 677 L 2281.5 1284  A 3.5 3.5 0 0 1 2278 1287.5 L 1734 1287.5  A 3.5 3.5 0 0 1 1730.5 1284 L 1730.5 677  Z " stroke-width="1" stroke-dasharray="9,4" stroke="#ff3399" fill="none" stroke-dashoffset="0.5" />
  </g>
</svg>