<?xml version="1.0" encoding="utf-8"?>
<svg version="1.1" xmlns:xlink="http://www.w3.org/1999/xlink" width="18px" height="18px" preserveAspectRatio="xMinYMid meet" viewBox="618 575  18 16" xmlns="http://www.w3.org/2000/svg">
  <path d="M 625 583.5  L 760 583.5  A 5 5 0 0 1 765.5 588.5 L 765.5 791  A 5 5 0 0 0 770.5 796.5 L 1136 796.5  " stroke-width="1" stroke="#555555" fill="none" />
  <path d="M 627 580.5  A 3 3 0 0 0 624 583.5 A 3 3 0 0 0 627 586.5 A 3 3 0 0 0 630 583.5 A 3 3 0 0 0 627 580.5 Z M 1135 802.8  L 1141 796.5  L 1135 790.2  L 1135 802.8  Z " fill-rule="nonzero" fill="#555555" stroke="none" />
</svg>