<?xml version="1.0" encoding="utf-8"?>
<svg version="1.1" xmlns:xlink="http://www.w3.org/1999/xlink" width="118.599999999999px" height="10px" preserveAspectRatio="xMinYMid meet" viewBox="624 609  118.599999999999 8" xmlns="http://www.w3.org/2000/svg">
  <path d="M 625 613.5  L 732.599999999999 613.5  A 5 5 0 0 1 738.099999999999 618.5 L 738.099999999999 1085  A 5 5 0 0 0 743.099999999999 1090.5 L 1136 1090.5  " stroke-width="1" stroke="#555555" fill="none" />
  <path d="M 627 610.5  A 3 3 0 0 0 624 613.5 A 3 3 0 0 0 627 616.5 A 3 3 0 0 0 630 613.5 A 3 3 0 0 0 627 610.5 Z M 1135 1096.8  L 1141 1090.5  L 1135 1084.2  L 1135 1096.8  Z " fill-rule="nonzero" fill="#555555" stroke="none" />
</svg>