<?xml version="1.0" encoding="utf-8"?>
<svg version="1.1" xmlns:xlink="http://www.w3.org/1999/xlink" width="25px" height="22px" xmlns="http://www.w3.org/2000/svg">
  <g transform="matrix(1 0 0 1 -1398 -144 )">
    <path d="M 3.44587053571429 18.4622395833333  C 3.52957589285714 18.5481770833333  3.57142857142857 18.6579861111111  3.57142857142857 18.7916666666667  L 3.57142857142857 21.5416666666667  C 3.57142857142857 21.6753472222222  3.52957589285714 21.78515625  3.44587053571429 21.87109375  C 3.36216517857143 21.95703125  3.25520833333333 22  3.125 22  L 0.446428571428571 22  C 0.316220238095238 22  0.209263392857143 21.95703125  0.125558035714286 21.87109375  C 0.0418526785714286 21.78515625  0 21.6753472222222  0 21.5416666666667  L 0 18.7916666666667  C 0 18.6579861111111  0.0418526785714286 18.5481770833333  0.125558035714286 18.4622395833333  C 0.209263392857143 18.3763020833333  0.316220238095238 18.3333333333333  0.446428571428571 18.3333333333333  L 3.125 18.3333333333333  C 3.25520833333333 18.3333333333333  3.36216517857143 18.3763020833333  3.44587053571429 18.4622395833333  Z M 8.80301339285714 16.62890625  C 8.88671875 16.71484375  8.92857142857143 16.8246527777778  8.92857142857143 16.9583333333333  L 8.92857142857143 21.5416666666667  C 8.92857142857143 21.6753472222222  8.88671875 21.78515625  8.80301339285714 21.87109375  C 8.71930803571429 21.95703125  8.61235119047619 22  8.48214285714286 22  L 5.80357142857143 22  C 5.6733630952381 22  5.56640625 21.95703125  5.48270089285714 21.87109375  C 5.39899553571429 21.78515625  5.35714285714286 21.6753472222222  5.35714285714286 21.5416666666667  L 5.35714285714286 16.9583333333333  C 5.35714285714286 16.8246527777778  5.39899553571429 16.71484375  5.48270089285714 16.62890625  C 5.56640625 16.54296875  5.6733630952381 16.5  5.80357142857143 16.5  L 8.48214285714286 16.5  C 8.61235119047619 16.5  8.71930803571429 16.54296875  8.80301339285714 16.62890625  Z M 14.16015625 12.9622395833333  C 14.2438616071429 13.0481770833333  14.2857142857143 13.1579861111111  14.2857142857143 13.2916666666667  L 14.2857142857143 21.5416666666667  C 14.2857142857143 21.6753472222222  14.2438616071429 21.78515625  14.16015625 21.87109375  C 14.0764508928571 21.95703125  13.969494047619 22  13.8392857142857 22  L 11.1607142857143 22  C 11.030505952381 22  10.9235491071429 21.95703125  10.83984375 21.87109375  C 10.7561383928571 21.78515625  10.7142857142857 21.6753472222222  10.7142857142857 21.5416666666667  L 10.7142857142857 13.2916666666667  C 10.7142857142857 13.1579861111111  10.7561383928571 13.0481770833333  10.83984375 12.9622395833333  C 10.9235491071429 12.8763020833333  11.030505952381 12.8333333333333  11.1607142857143 12.8333333333333  L 13.8392857142857 12.8333333333333  C 13.969494047619 12.8333333333333  14.0764508928571 12.8763020833333  14.16015625 12.9622395833333  Z M 19.5172991071429 7.46223958333333  C 19.6010044642857 7.54817708333333  19.6428571428571 7.65798611111111  19.6428571428571 7.79166666666667  L 19.6428571428571 21.5416666666667  C 19.6428571428571 21.6753472222222  19.6010044642857 21.78515625  19.5172991071429 21.87109375  C 19.43359375 21.95703125  19.3266369047619 22  19.1964285714286 22  L 16.5178571428571 22  C 16.3876488095238 22  16.2806919642857 21.95703125  16.1969866071429 21.87109375  C 16.11328125 21.78515625  16.0714285714286 21.6753472222222  16 21.5416666666667  L 16 7.79166666666667  C 16.0714285714286 7.65798611111111  16.11328125 7.54817708333333  16.1969866071429 7.46223958333333  C 16.2806919642857 7.37630208333333  16.3876488095238 7.33333333333333  16.5178571428571 7.33333333333333  L 19.1964285714286 7.33333333333333  C 19.3266369047619 7.33333333333333  19.43359375 7.37630208333333  19.5172991071429 7.46223958333333  Z M 24.8744419642857 0.12890625  C 24.9581473214286 0.21484375  25 0.324652777777775  25 0.458333333333334  L 25 21.5416666666667  C 25 21.6753472222222  24.9581473214286 21.78515625  24.8744419642857 21.87109375  C 24.7907366071429 21.95703125  24.6837797619048 22  24.5535714285714 22  L 21.875 22  C 21.7447916666667 22  21.6378348214286 21.95703125  21.5541294642857 21.87109375  C 21.4704241071429 21.78515625  21.4285714285714 21.6753472222222  21 21.5416666666667  L 21 0.458333333333334  C 21.4285714285714 0.324652777777775  21.4704241071429 0.21484375  21.5541294642857 0.12890625  C 21.6378348214286 0.04296875  21.7447916666667 0  21.875 0  L 24.5535714285714 0  C 24.6837797619048 0  24.7907366071429 0.04296875  24.8744419642857 0.12890625  Z " fill-rule="nonzero" fill="#aaaaaa" stroke="none" transform="matrix(1 0 0 1 1398 144 )" />
  </g>
</svg>