<?xml version="1.0" encoding="utf-8"?>
<svg version="1.1" xmlns:xlink="http://www.w3.org/1999/xlink" width="19px" height="12px" xmlns="http://www.w3.org/2000/svg">
  <g transform="matrix(1 0 0 1 -884 -337 )">
    <path d="M 14.1068638392857 9.40104166666667  C 15.5240885416667 8.55729166666667  16.7027529761905 7.42361111111111  17.6428571428571 6  C 16.5684523809524 4.36111111111111  15.221912202381 3.13541666666667  13.6032366071429 2.32291666666667  C 14.034412202381 3.04513888888889  14.25 3.82638888888889  14.25 4.66666666666667  C 14.25 5.95138888888889  13.7852492559524 7.05034722222222  12.8557477678571 7.96354166666667  C 11.9262462797619 8.87673611111111  10.8076636904762 9.33333333333333  9.5 9.33333333333333  C 8.19233630952381 9.33333333333333  7.0737537202381 8.87673611111111  6.14425223214286 7.96354166666667  C 5.21475074404762 7.05034722222222  4.75 5.95138888888889  4.75 4.66666666666667  C 4.75 3.82638888888889  4.96558779761905 3.04513888888889  5.39676339285714 2.32291666666667  C 3.77808779761905 3.13541666666667  2.43154761904762 4.36111111111111  1.35714285714286 6  C 2.29724702380952 7.42361111111111  3.47591145833333 8.55729166666667  4.89313616071429 9.40104166666667  C 6.31036086309524 10.2447916666667  7.84598214285714 10.6666666666667  9.5 10.6666666666667  C 11.1540178571429 10.6666666666667  12.6896391369048 10.2447916666667  14.1068638392857 9.40104166666667  Z M 9.86049107142857 2.35416666666667  C 9.95944940476191 2.25694444444444  10.0089285714286 2.13888888888889  10.0089285714286 2  C 10.0089285714286 1.86111111111111  9.95944940476191 1.74305555555555  9.86049107142857 1.64583333333333  C 9.76153273809524 1.54861111111111  9.64136904761905 1.5  9.5 1.5  C 8.61644345238095 1.5  7.85835193452381 1.81076388888889  7.22572544642857 2.43229166666667  C 6.59309895833333 3.05381944444444  6.27678571428571 3.79861111111111  6.27678571428571 4.66666666666667  C 6.27678571428571 4.80555555555556  6.32626488095238 4.92361111111111  6.42522321428571 5.02083333333333  C 6.52418154761905 5.11805555555555  6.64434523809524 5.16666666666667  6.78571428571429 5.16666666666667  C 6.92708333333333 5.16666666666667  7.04724702380952 5.11805555555555  7.14620535714286 5.02083333333333  C 7.24516369047619 4.92361111111111  7.29464285714286 4.80555555555556  7.29464285714286 4.66666666666667  C 7.29464285714286 4.06944444444444  7.51023065476191 3.55902777777778  7.94140625 3.13541666666667  C 8.3725818452381 2.71180555555556  8.8921130952381 2.5  9.5 2.5  C 9.64136904761905 2.5  9.76153273809524 2.45138888888889  9.86049107142857 2.35416666666667  Z M 18.7879464285714 5.28125  C 18.9293154761905 5.52430555555556  19 5.76388888888889  19 6  C 19 6.23611111111111  18.9293154761905 6.47569444444444  18.7879464285714 6.71875  C 17.7983630952381 8.31597222222222  16.4677269345238 9.59548611111111  14.7960379464286 10.5572916666667  C 13.1243489583333 11.5190972222222  11.3590029761905 12  9.5 12  C 7.64099702380952 12  5.87565104166667 11.5173611111111  4.20396205357143 10.5520833333333  C 2.53227306547619 9.58680555555556  1.2016369047619 8.30902777777778  0.212053571428571 6.71875  C 0.0706845238095238 6.47569444444444  0 6.23611111111111  0 6  C 0 5.76388888888889  0.0706845238095238 5.52430555555556  0.212053571428571 5.28125  C 1.2016369047619 3.69097222222222  2.53227306547619 2.41319444444444  4.20396205357143 1.44791666666667  C 5.87565104166667 0.482638888888888  7.64099702380952 0  9.5 0  C 11.3590029761905 0  13.1243489583333 0.482638888888888  14.7960379464286 1.44791666666667  C 16.4677269345238 2.41319444444444  17.7983630952381 3.69097222222222  18.7879464285714 5.28125  Z " fill-rule="nonzero" fill="#aaaaaa" stroke="none" transform="matrix(1 0 0 1 884 337 )" />
  </g>
</svg>