<?xml version="1.0" encoding="utf-8"?>
<svg version="1.1" xmlns:xlink="http://www.w3.org/1999/xlink" width="15px" height="16px" xmlns="http://www.w3.org/2000/svg">
  <g transform="matrix(1 0 0 1 -1533 -346 )">
    <path d="M 9.19921875 9.8125  C 9.98948317307692 8.96955128205128  10.3846153846154 7.9551282051282  10.3846153846154 6.76923076923077  C 10.3846153846154 5.58333333333333  9.98948317307692 4.56891025641026  9.19921875 3.72596153846154  C 8.40895432692308 2.88301282051282  7.45793269230769 2.46153846153846  6.34615384615385 2.46153846153846  C 5.234375 2.46153846153846  4.28335336538462 2.88301282051282  3.49308894230769 3.72596153846154  C 2.70282451923077 4.56891025641026  2.30769230769231 5.58333333333333  2.30769230769231 6.76923076923077  C 2.30769230769231 7.9551282051282  2.70282451923077 8.96955128205128  3.49308894230769 9.8125  C 4.28335336538462 10.6554487179487  5.234375 11.0769230769231  6.34615384615385 11.0769230769231  C 7.45793269230769 11.0769230769231  8.40895432692308 10.6554487179487  9.19921875 9.8125  Z M 14.6664663461538 13.9038461538462  C 14.8888221153846 14.1410256410256  15 14.4294871794872  15 14.7692307692308  C 15 15.1025641025641  14.8858173076923 15.3910256410256  14.6574519230769 15.6346153846154  C 14.4290865384615 15.8782051282051  14.1586538461538 16  13.8461538461538 16  C 13.5216346153846 16  13.2512019230769 15.8782051282051  13.0348557692308 15.6346153846154  L 9.94290865384615 12.3461538461538  C 8.8671875 13.1410256410256  7.66826923076923 13.5384615384615  6.34615384615385 13.5384615384615  C 5.48677884615385 13.5384615384615  4.66496394230769 13.3605769230769  3.88070913461538 13.0048076923077  C 3.09645432692308 12.6490384615385  2.42037259615385 12.1682692307692  1.85246394230769 11.5625  C 1.28455528846154 10.9567307692308  0.833834134615385 10.2355769230769  0.500300480769231 9.39903846153846  C 0.166766826923077 8.5625  0 7.68589743589743  0 6.76923076923077  C 0 5.8525641025641  0.166766826923077 4.97596153846154  0.500300480769231 4.13942307692308  C 0.833834134615385 3.30288461538461  1.28455528846154 2.58173076923077  1.85246394230769 1.97596153846154  C 2.42037259615385 1.37019230769231  3.09645432692308 0.889423076923077  3.88070913461538 0.533653846153847  C 4.66496394230769 0.177884615384615  5.48677884615385 0  6.34615384615385 0  C 7.20552884615385 0  8.02734375 0.177884615384615  8.81159855769231 0.533653846153847  C 9.59585336538461 0.889423076923077  10.2719350961538 1.37019230769231  10.83984375 1.97596153846154  C 11.4077524038462 2.58173076923077  11.8584735576923 3.30288461538461  12.1920072115385 4.13942307692308  C 12.5255408653846 4.97596153846154  12.6923076923077 5.8525641025641  12.6923076923077 6.76923076923077  C 12.6923076923077 8.17948717948718  12.3197115384615 9.45833333333333  11.5745192307692 10.6057692307692  L 14.6664663461538 13.9038461538462  Z " fill-rule="nonzero" fill="#d7d7d7" stroke="none" transform="matrix(1 0 0 1 1533 346 )" />
  </g>
</svg>