<?xml version="1.0" encoding="utf-8"?>
<svg version="1.1" xmlns:xlink="http://www.w3.org/1999/xlink" width="29px" height="22px" xmlns="http://www.w3.org/2000/svg">
  <g transform="matrix(1 0 0 1 -1178 -732 )">
    <path d="M 28.8462611607143 14.2983630952381  C 28.9487537202381 14.4020337301587  29 14.5248015873016  29 14.6666666666667  L 29 17.8095238095238  C 29 17.9513888888889  28.9487537202381 18.0741567460317  28.8462611607143 18.1778273809524  C 28.7437686011905 18.281498015873  28.6223958333333 18.3333333333333  28.4821428571429 18  L 6.21428571428571 18  L 6.21428571428571 21.4761904761905  C 6.21428571428571 21.6180555555556  6.16303943452381 21.7408234126984  6.060546875 21.844494047619  C 5.95805431547619 21.9481646825397  5.83668154761905 22  5.69642857142857 22  C 5.56696428571429 22  5.4375 21.9454365079365  5.30803571428571 21.8363095238095  L 0.145647321428571 16.5982142857143  C 0.0485491071428571 16.5  0 16.3799603174603  0 16.2380952380952  C 0 16.0853174603175  0.0485491071428571 15.9598214285714  0.145647321428571 15.8616071428571  L 5.32421875 10.6235119047619  C 5.42131696428571 10.5252976190476  5.54538690476191 10.4761904761905  5.69642857142857 10.4761904761905  C 5.83668154761905 10.4761904761905  5.95805431547619 10.5280257936508  6.060546875 10.6316964285714  C 6.16303943452381 10.7353670634921  6.21428571428571 10.8581349206349  6.21428571428571 11  L 6.21428571428571 14  L 28.4821428571429 14  C 28.6223958333333 14.1428571428571  28.7437686011905 14.1946924603175  28.8462611607143 14.2983630952381  Z M 28.8543526785714 5.38541666666667  C 28.9514508928571 5.48363095238095  29 5.60912698412698  29 5.76190476190476  C 29 5.91468253968254  28.9514508928571 6.04017857142857  28.8543526785714 6.13839285714286  L 23.67578125 11.3764880952381  C 23.5786830357143 11.4747023809524  23.4546130952381 11.5238095238095  23.3035714285714 11.5238095238095  C 23.163318452381 11.5238095238095  23.0419456845238 11.4719742063492  22.939453125 11.3683035714286  C 22.8369605654762 11.2646329365079  22.7857142857143 11.1418650793651  22.7857142857143 11  L 22.7857142857143 8  L 0.517857142857143 8  C 0.377604166666667 7.85714285714286  0.256231398809524 7.80530753968254  0.153738839285714 7.70163690476191  C 0.0512462797619048 7.59796626984127  0 7.47519841269841  0 7.33333333333333  L 0 4.19047619047619  C 0 4.04861111111111  0.0512462797619048 3.92584325396825  0.153738839285714 3.82217261904762  C 0.256231398809524 3.71850198412698  0.377604166666667 3.66666666666667  0.517857142857143 4  L 22.7857142857143 4  L 22.7857142857143 0.523809523809524  C 22.7857142857143 0.371031746031745  22.8342633928571 0.245535714285715  22.9313616071429 0.147321428571429  C 23.0284598214286 0.0491071428571439  23.1525297619048 0  23.3035714285714 0  C 23.4330357142857 0  23.5625 0.0545634920634919  23.6919642857143 0.163690476190476  L 28.8543526785714 5.38541666666667  Z " fill-rule="nonzero" fill="#999999" stroke="none" transform="matrix(1 0 0 1 1178 732 )" />
  </g>
</svg>