<?xml version="1.0" encoding="utf-8"?>
<svg version="1.1" xmlns:xlink="http://www.w3.org/1999/xlink" width="27px" height="30px" xmlns="http://www.w3.org/2000/svg">
  <g transform="matrix(1 0 0 1 -1243 -728 )">
    <path d="M 9.64559659090909 11.42578125  C 9.76065340909091 11.54296875  9.81818181818182 11.6927083333333  10 11.875  L 10 23.125  C 9.81818181818182 23.3072916666667  9.76065340909091 23.45703125  9.64559659090909 23.57421875  C 9.53053977272727 23.69140625  9.38352272727273 23.75  9.20454545454545 23.75  L 7.97727272727273 23.75  C 7.79829545454546 23.75  7.65127840909091 23.69140625  7.53622159090909 23.57421875  C 7.42116477272727 23.45703125  7.36363636363636 23.3072916666667  7.36363636363636 23.125  L 7.36363636363636 11.875  C 7.36363636363636 11.6927083333333  7.42116477272727 11.54296875  7.53622159090909 11.42578125  C 7.65127840909091 11.30859375  7.79829545454546 11.25  7.97727272727273 11.25  L 9.20454545454545 11.25  C 9.38352272727273 11.25  9.53053977272727 11.30859375  9.64559659090909 11.42578125  Z M 14.5546875 11.42578125  C 14.6697443181818 11.54296875  14.7272727272727 11.6927083333333  14.7272727272727 11.875  L 14.7272727272727 23.125  C 14.7272727272727 23.3072916666667  14.6697443181818 23.45703125  14.5546875 23.57421875  C 14.4396306818182 23.69140625  14.2926136363636 23.75  14.1136363636364 23.75  L 12.8863636363636 23.75  C 12.7073863636364 23.75  12.5603693181818 23.69140625  12.4453125 23.57421875  C 12.3302556818182 23.45703125  12.2727272727273 23.3072916666667  12.2727272727273 23.125  L 12.2727272727273 11.875  C 12.2727272727273 11.6927083333333  12.3302556818182 11.54296875  12.4453125 11.42578125  C 12.5603693181818 11.30859375  12.7073863636364 11.25  12.8863636363636 11.25  L 14.1136363636364 11.25  C 14.2926136363636 11.25  14.4396306818182 11.30859375  14.5546875 11.42578125  Z M 19.4637784090909 11.42578125  C 19.5788352272727 11.54296875  19.6363636363636 11.6927083333333  19.6363636363636 11.875  L 19.6363636363636 23.125  C 19.6363636363636 23.3072916666667  19.5788352272727 23.45703125  19.4637784090909 23.57421875  C 19.3487215909091 23.69140625  19.2017045454545 23.75  19.0227272727273 23.75  L 17.7954545454545 23.75  C 17.6164772727273 23.75  17.4694602272727 23.69140625  17.3544034090909 23.57421875  C 17.2393465909091 23.45703125  17.1818181818182 23.3072916666667  17 23.125  L 17 11.875  C 17.1818181818182 11.6927083333333  17.2393465909091 11.54296875  17.3544034090909 11.42578125  C 17.4694602272727 11.30859375  17.6164772727273 11.25  17.7954545454545 11.25  L 19.0227272727273 11.25  C 19.2017045454545 11.25  19.3487215909091 11.30859375  19.4637784090909 11.42578125  Z M 21.9566761363636 26.806640625  C 22.0461647727273 26.5657552083333  22.0909090909091 26.3020833333333  22 26.015625  L 22 8  L 5 8  L 5 26.015625  C 4.90909090909091 26.3020833333333  4.95383522727273 26.5657552083333  5.04332386363636 26.806640625  C 5.1328125 27.0475260416667  5.22549715909091 27.2233072916667  5.32137784090909 27.333984375  C 5.41725852272727 27.4446614583333  5.484375 27.5  5.52272727272727 27  L 21.4772727272727 27  C 21.515625 27.5  21.5827414772727 27.4446614583333  21.6786221590909 27.333984375  C 21.7745028409091 27.2233072916667  21.8671875 27.0475260416667  21.9566761363636 26.806640625  Z M 10.1441761363636 2.71484375  L 9.20454545454545 5  L 17.7954545454545 5  L 16.875 2.71484375  C 16.7855113636364 2.59765625  16.6768465909091 2.52604166666667  16.5490056818182 2.5  L 10.4701704545455 2.5  C 10.3423295454545 2.52604166666667  10.2336647727273 2.59765625  10.1441761363636 2.71484375  Z M 26.8274147727273 5.17578125  C 26.9424715909091 5.29296875  27 5.44270833333333  27 5.625  L 27 6.875  C 27 7.05729166666666  26.9424715909091 7.20703125  26.8274147727273 7.32421875  C 26.7123579545455 7.44140625  26.5653409090909 7.5  26.3863636363636 7.5  L 24.5454545454545 7.5  L 24.5454545454545 26.015625  C 24.5454545454545 27.0963541666667  24.2450284090909 28.0305989583333  23.6441761363636 28.818359375  C 23.0433238636364 29.6061197916667  22.3210227272727 30  21.4772727272727 30  L 5.52272727272727 30  C 4.67897727272727 30  3.95667613636364 29.619140625  3.35582386363636 28.857421875  C 2.75497159090909 28.095703125  2.45454545454545 27.1744791666667  2.45454545454545 26.09375  L 2.45454545454545 7.5  L 0.613636363636364 7.5  C 0.434659090909091 7.5  0.287642045454545 7.44140625  0.172585227272727 7.32421875  C 0.0575284090909091 7.20703125  0 7.05729166666666  0 6.875  L 0 5.625  C 0 5.44270833333333  0.0575284090909091 5.29296875  0.172585227272727 5.17578125  C 0.287642045454545 5.05859375  0.434659090909091 5  0.613636363636364 5  L 6.5390625 5  L 7.88139204545455 1.73828125  C 8.07315340909091 1.25651041666666  8.41832386363637 0.846354166666664  8.91690340909091 0.507812500000001  C 9.41548295454546 0.169270833333331  9.92045454545454 0  10.4318181818182 0  L 16.5681818181818 0  C 17.0795454545455 0  17.5845170454545 0.169270833333331  18.0830965909091 0.507812500000001  C 18.5816761363636 0.846354166666664  18.9268465909091 1.25651041666666  19.1186079545455 1.73828125  L 20.4609375 5  L 26.3863636363636 5  C 26.5653409090909 5  26.7123579545455 5.05859375  26.8274147727273 5.17578125  Z " fill-rule="nonzero" fill="#999999" stroke="none" transform="matrix(1 0 0 1 1243 728 )" />
  </g>
</svg>