<?xml version="1.0" encoding="utf-8"?>
<svg version="1.1" xmlns:xlink="http://www.w3.org/1999/xlink" width="26px" height="26px" xmlns="http://www.w3.org/2000/svg">
  <g transform="matrix(1 0 0 1 -1117 -928 )">
    <path d="M 4.39339933993399 23.803300330033  L 6.22970297029703 23.803300330033  L 7.79141914191419 22.2415841584158  L 3.75841584158416 18.2085808580858  L 2.196699669967 19.770297029703  L 2.196699669967 21.606600660066  L 4.39339933993399 21.606600660066  L 4.39339933993399 23.803300330033  Z M 15.0851485148515 8.16897689768977  C 15.1652365236524 8.08888888888889  15.2052805280528 7.99163916391639  15.2052805280528 7.87722772277228  C 15.2052805280528 7.62552255225522  15.0794279427943 7.4996699669967  14.8277227722772 7.4996699669967  C 14.7133113311331 7.4996699669967  14.6160616061606 7.53971397139714  14.5359735973597 7.61980198019802  L 5.23432343234323 16.9214521452145  C 5.15423542354235 17.0015401540154  5.11419141914191 17.0987898789879  5.11419141914191 17.213201320132  C 5.11419141914191 17.4649064906491  5.24004400440044 17.5907590759076  5.49174917491749 17.5907590759076  C 5.60616061606161 17.5907590759076  5.7034103410341 17.5507150715071  5.78349834983498 17.4706270627063  L 15.0851485148515 8.16897689768977  Z M 0 18.8607260726073  L 14.2785478547855 4.58217821782178  L 21.4178217821782 11.7214521452145  L 7.13927392739274 26  L 0 26  L 0 18.8607260726073  Z M 25.3650165016502 4.66798679867987  C 25.7883388338834 5.11419141914191  26 5.63476347634763  26 6.22970297029703  C 26 6.83608360836084  25.7883388338834 7.35093509350935  25.3650165016502 7.77425742574258  L 22.5161716171617 10.623102310231  L 15.376897689769 3.48382838283828  L 18.2257425742574 0.652145214521451  C 18.6376237623762 0.217381738173815  19.1524752475248 0  19.770297029703 0  C 20.3766776677668 0  20.8972497249725 0.217381738173815  21.3320132013201 0.652145214521451  L 25.3650165016502 4.66798679867987  Z " fill-rule="nonzero" fill="#999999" stroke="none" transform="matrix(1 0 0 1 1117 928 )" />
  </g>
</svg>