<?xml version="1.0" encoding="utf-8"?>
<svg version="1.1" xmlns:xlink="http://www.w3.org/1999/xlink" width="28px" height="28px" xmlns="http://www.w3.org/2000/svg">
  <g transform="matrix(1 0 0 1 -1058 -1315 )">
    <path d="M 27.0005577244841 0  C 27.2087748652166 0  27.3961702918758 0.0572916666666692  27.5627440044618 0.171875000000001  C 27.9063022866704 0.421875  28.0468488566648 0.755208333333333  27.9843837144451 1.171875  L 23.9866146123815 25.171875  C 23.9345603271984 25.4739583333333  23.7679866146124 25.7083333333333  23.4868934746235 25.875  C 23.3411414761108 25.9583333333333  23.1797731920431 26  23.0027886224205 26  C 22.8882691950177 26  22.7633389105782 25.9739583333333  22.6279977691021 25.921875  L 15.5538204127161 23.03125  L 11.7746793084216 27.640625  C 11.5872838817624 27.8802083333333  11.3322178843651 28  11.0094813162298 28  C 10.8741401747537 28  10.7596207473508 27.9791666666667  10.6659230340212 27.9375  C 10.4681167503253 27.8645833333333  10.3093511805168 27.7421875  10.1896263245957 27.5703125  C 10.0699014686745 27.3984375  10.0100390407139 27.2083333333333  10.0100390407139 27  L 10.0100390407139 21.546875  L 23.5025097601785 5  L 6.80870050195204 19.453125  L 0.64026770775237 16.921875  C 0.255065997397286 16.7760416666667  0.0468488566648076 16.4895833333333  0.0156162855549359 16.0625  C -0.00520542851831196 15.6458333333333  0.161368284067671 15.3385416666667  0.515337423312883 15.140625  L 26.5008365867262 0.140624999999999  C 26.6569994422755 0.0468749999999987  26.8235731548615 0  27.0005577244841 0  Z " fill-rule="nonzero" fill="#999999" stroke="none" transform="matrix(1 0 0 1 1058 1315 )" />
  </g>
</svg>