<?xml version="1.0" encoding="utf-8"?>
<svg version="1.1" xmlns:xlink="http://www.w3.org/1999/xlink" width="40px" height="40px" xmlns="http://www.w3.org/2000/svg">
  <g transform="matrix(1 0 0 1 -240 -160 )">
    <path d="M 260 160  C 271.2 160  280 168.8  280 180  C 280 191.2  271.2 200  260 200  C 248.8 200  240 191.2  240 180  C 240 168.8  248.8 160  260 160  Z " fill-rule="nonzero" fill="#ffffff" stroke="none" />
    <path d="M 260 160.5  C 270.92 160.5  279.5 169.08  279.5 180  C 279.5 190.92  270.92 199.5  260 199.5  C 249.08 199.5  240.5 190.92  240.5 180  C 240.5 169.08  249.08 160.5  260 160.5  Z " stroke-width="1" stroke="#cccccc" fill="none" />
  </g>
</svg>