<?xml version="1.0" encoding="utf-8"?>
<svg version="1.1" xmlns:xlink="http://www.w3.org/1999/xlink" width="20px" height="18px" xmlns="http://www.w3.org/2000/svg">
  <g transform="matrix(1 0 0 1 -240 -105 )">
    <path d="M 19.4084821428571 8.13375  C 19.8028273809524 9.13875  20 10.3875  20 11.88  C 20 13.125  19.5275297619048 14.81625  18.5825892857143 16.95375  C 18.5602678571429 17.00625  18.5212053571429 17.09625  18.4654017857143 17.22375  C 18.4095982142857 17.35125  18.359375 17.46375  18.3147321428571 17.56125  C 18.2700892857143 17.65875  18.2217261904762 17.74125  18.1696428571429 17.80875  C 18.0803571428571 17.93625  17.9761904761905 18  17.8571428571429 18  C 17.7455357142857 18  17.6581101190476 17.9625  17.5948660714286 17.8875  C 17.5316220238095 17.8125  17.5 17.71875  17.5 17.60625  C 17.5 17.53875  17.5093005952381 17.439375  17.5279017857143 17.308125  C 17.5465029761905 17.176875  17.5558035714286 17.08875  17.5558035714286 17.04375  C 17.593005952381 16.53375  17.6116071428571 16.0725  17.6116071428571 15.66  C 17.6116071428571 14.9025  17.5465029761905 14.22375  17.4162946428571 13.62375  C 17.2860863095238 13.02375  17.1056547619048 12.504375  16.875 12.065625  C 16.6443452380952 11.626875  16.3467261904762 11.248125  15.9821428571429 10.929375  C 15.6175595238095 10.610625  15.2250744047619 10.35  14.8046875 10.1475  C 14.3843005952381 9.945  13.8895089285714 9.785625  13.3203125 9.669375  C 12.7511160714286 9.553125  12.1781994047619 9.4725  11.6015625 9.4275  C 11.0249255952381 9.3825  10.3720238095238 9.36  9.64285714285714 9.36  L 7.14285714285714 9.36  L 7.14285714285714 12.24  C 7.14285714285714 12.435  7.07217261904762 12.60375  6.93080357142857 12.74625  C 6.78943452380952 12.88875  6.62202380952381 12.96  6.42857142857143 12.96  C 6.23511904761905 12.96  6.06770833333333 12.88875  5.92633928571429 12.74625  L 0.212053571428571 6.98625  C 0.0706845238095238 6.84375  0 6.675  0 6.48  C 0 6.285  0.0706845238095238 6.11625  0.212053571428571 5.97375  L 5.92633928571429 0.213749999999999  C 6.06770833333333 0.0712499999999991  6.23511904761905 0  6.42857142857143 0  C 6.62202380952381 0  6.78943452380952 0.0712499999999991  6.93080357142857 0.213749999999999  C 7.07217261904762 0.356249999999998  7.14285714285714 0.524999999999998  7.14285714285714 0.720000000000001  L 7.14285714285714 3.6  L 9.64285714285714 3.6  C 14.9479166666667 3.6  18.203125 5.11125  19.4084821428571 8.13375  Z " fill-rule="nonzero" fill="#d7d7d7" stroke="none" transform="matrix(1 0 0 1 240 105 )" />
  </g>
</svg>