<?xml version="1.0" encoding="utf-8"?>
<svg version="1.1" xmlns:xlink="http://www.w3.org/1999/xlink" width="12px" height="12px" viewBox="914 711  12 12" xmlns="http://www.w3.org/2000/svg">
  <path d="M 920 711  C 923.36 711  926 713.64  926 717  C 926 720.36  923.36 723  920 723  C 916.64 723  914 720.36  914 717  C 914 713.64  916.64 711  920 711  Z " fill-rule="nonzero" fill="#f0f0f0" stroke="none" />
  <path d="M 920 711.5  C 923.08 711.5  925.5 713.92  925.5 717  C 925.5 720.08  923.08 722.5  920 722.5  C 916.92 722.5  914.5 720.08  914.5 717  C 914.5 713.92  916.92 711.5  920 711.5  Z " stroke-width="1" stroke="#797979" fill="none" />
  <path d="M 920 720  C 918.32 720  917 718.68  917 717  C 917 715.32  918.32 714  920 714  C 921.68 714  923 715.32  923 717  C 923 718.68  921.68 720  920 720  " fill-rule="nonzero" fill="#797979" stroke="none" />
</svg>