<?xml version="1.0" encoding="utf-8"?>
<svg version="1.1" xmlns:xlink="http://www.w3.org/1999/xlink" width="12px" height="12px" viewBox="914 667  12 12" xmlns="http://www.w3.org/2000/svg">
  <path d="M 920 667  C 923.36 667  926 669.64  926 673  C 926 676.36  923.36 679  920 679  C 916.64 679  914 676.36  914 673  C 914 669.64  916.64 667  920 667  Z " fill-rule="nonzero" fill="#ffffff" stroke="none" />
  <path d="M 920 667.5  C 923.08 667.5  925.5 669.92  925.5 673  C 925.5 676.08  923.08 678.5  920 678.5  C 916.92 678.5  914.5 676.08  914.5 673  C 914.5 669.92  916.92 667.5  920 667.5  Z " stroke-width="1" stroke="#797979" fill="none" />
  <path d="M 920 676  C 918.32 676  917 674.68  917 673  C 917 671.32  918.32 670  920 670  C 921.68 670  923 671.32  923 673  C 923 674.68  921.68 676  920 676  " fill-rule="nonzero" fill="#797979" stroke="none" />
</svg>