<?xml version="1.0" encoding="utf-8"?>
<svg version="1.1" xmlns:xlink="http://www.w3.org/1999/xlink" width="15px" height="15px" xmlns="http://www.w3.org/2000/svg">
  <g transform="matrix(1 0 0 1 -302 -857 )">
    <path d="M 309.5 857  C 313.7 857  317 860.3  317 864.5  C 317 868.7  313.7 872  309.5 872  C 305.3 872  302 868.7  302 864.5  C 302 860.3  305.3 857  309.5 857  Z " fill-rule="nonzero" fill="#ffffff" stroke="none" />
    <path d="M 309.5 857.5  C 313.42 857.5  316.5 860.58  316.5 864.5  C 316.5 868.42  313.42 871.5  309.5 871.5  C 305.58 871.5  302.5 868.42  302.5 864.5  C 302.5 860.58  305.58 857.5  309.5 857.5  Z " stroke-width="1" stroke="#797979" fill="none" />
  </g>
</svg>