<?xml version="1.0" encoding="utf-8"?>
<svg version="1.1" xmlns:xlink="http://www.w3.org/1999/xlink" width="351px" height="41px" xmlns="http://www.w3.org/2000/svg">
  <g transform="matrix(1 0 0 1 -1524 -414 )">
    <path d="M 1525 418  A 3 3 0 0 1 1528 415 L 1871 415  A 3 3 0 0 1 1874 418 L 1874 451  A 3 3 0 0 1 1871 454 L 1528 454  A 3 3 0 0 1 1525 451 L 1525 418  Z " fill-rule="nonzero" fill="#ff3399" stroke="none" fill-opacity="0.0980392156862745" />
    <path d="M 1524.5 418  A 3.5 3.5 0 0 1 1528 414.5 L 1871 414.5  A 3.5 3.5 0 0 1 1874.5 418 L 1874.5 451  A 3.5 3.5 0 0 1 1871 454.5 L 1528 454.5  A 3.5 3.5 0 0 1 1524.5 451 L 1524.5 418  Z " stroke-width="1" stroke-dasharray="9,4" stroke="#ff3399" fill="none" stroke-dashoffset="0.5" />
  </g>
</svg>