<?xml version="1.0" encoding="utf-8"?>
<svg version="1.1" xmlns:xlink="http://www.w3.org/1999/xlink" width="20px" height="20px" viewBox="423 806  20 20" xmlns="http://www.w3.org/2000/svg">
  <path d="M 433 806  C 438.6 806  443 810.4  443 816  C 443 821.6  438.6 826  433 826  C 427.4 826  423 821.6  423 816  C 423 810.4  427.4 806  433 806  Z " fill-rule="nonzero" fill="#ffffff" stroke="none" />
  <path d="M 433 806.5  C 438.32 806.5  442.5 810.68  442.5 816  C 442.5 821.32  438.32 825.5  433 825.5  C 427.68 825.5  423.5 821.32  423.5 816  C 423.5 810.68  427.68 806.5  433 806.5  Z " stroke-width="1" stroke="#797979" fill="none" />
  <path d="M 433 821  C 430.2 821  428 818.8  428 816  C 428 813.2  430.2 811  433 811  C 435.8 811  438 813.2  438 816  C 438 818.8  435.8 821  433 821  " fill-rule="nonzero" fill="#797979" stroke="none" />
</svg>