<?xml version="1.0" encoding="utf-8"?>
<svg version="1.1" xmlns:xlink="http://www.w3.org/1999/xlink" width="20px" height="20px" viewBox="500 806  20 20" xmlns="http://www.w3.org/2000/svg">
  <path d="M 510 806  C 515.6 806  520 810.4  520 816  C 520 821.6  515.6 826  510 826  C 504.4 826  500 821.6  500 816  C 500 810.4  504.4 806  510 806  Z " fill-rule="nonzero" fill="#f0f0f0" stroke="none" />
  <path d="M 510 806.5  C 515.32 806.5  519.5 810.68  519.5 816  C 519.5 821.32  515.32 825.5  510 825.5  C 504.68 825.5  500.5 821.32  500.5 816  C 500.5 810.68  504.68 806.5  510 806.5  Z " stroke-width="1" stroke="#797979" fill="none" />
  <path d="M 510 821  C 507.2 821  505 818.8  505 816  C 505 813.2  507.2 811  510 811  C 512.8 811  515 813.2  515 816  C 515 818.8  512.8 821  510 821  " fill-rule="nonzero" fill="#797979" stroke="none" />
</svg>