<?xml version="1.0" encoding="utf-8"?>
<svg version="1.1" xmlns:xlink="http://www.w3.org/1999/xlink" width="459px" height="41px" xmlns="http://www.w3.org/2000/svg">
  <g transform="matrix(1 0 0 1 -1453 -1551 )">
    <path d="M 1454 1555  A 3 3 0 0 1 1457 1552 L 1908 1552  A 3 3 0 0 1 1911 1555 L 1911 1588  A 3 3 0 0 1 1908 1591 L 1457 1591  A 3 3 0 0 1 1454 1588 L 1454 1555  Z " fill-rule="nonzero" fill="#ff3399" stroke="none" fill-opacity="0.0980392156862745" />
    <path d="M 1453.5 1555  A 3.5 3.5 0 0 1 1457 1551.5 L 1908 1551.5  A 3.5 3.5 0 0 1 1911.5 1555 L 1911.5 1588  A 3.5 3.5 0 0 1 1908 1591.5 L 1457 1591.5  A 3.5 3.5 0 0 1 1453.5 1588 L 1453.5 1555  Z " stroke-width="1" stroke-dasharray="9,4" stroke="#ff3399" fill="none" stroke-dashoffset="0.5" />
  </g>
</svg>