<?xml version="1.0" encoding="utf-8"?>
<svg version="1.1" xmlns:xlink="http://www.w3.org/1999/xlink" width="12px" height="12px" viewBox="421 415  12 12" xmlns="http://www.w3.org/2000/svg">
  <path d="M 427 415  C 430.36 415  433 417.64  433 421  C 433 424.36  430.36 427  427 427  C 423.64 427  421 424.36  421 421  C 421 417.64  423.64 415  427 415  Z " fill-rule="nonzero" fill="#ffffff" stroke="none" />
  <path d="M 427 415.5  C 430.08 415.5  432.5 417.92  432.5 421  C 432.5 424.08  430.08 426.5  427 426.5  C 423.92 426.5  421.5 424.08  421.5 421  C 421.5 417.92  423.92 415.5  427 415.5  Z " stroke-width="1" stroke="#797979" fill="none" />
  <path d="M 427 424  C 425.32 424  424 422.68  424 421  C 424 419.32  425.32 418  427 418  C 428.68 418  430 419.32  430 421  C 430 422.68  428.68 424  427 424  " fill-rule="nonzero" fill="#797979" stroke="none" />
</svg>