<?xml version="1.0" encoding="utf-8"?>
<svg version="1.1" xmlns:xlink="http://www.w3.org/1999/xlink" width="25px" height="25px" xmlns="http://www.w3.org/2000/svg">
  <g transform="matrix(1 0 0 1 -1369 -659 )">
    <path d="M 18.3919270833333 16.9270833333333  C 18.5980902777778 16.7209201388889  18.701171875 16.4713541666667  18.701171875 16.1783854166667  C 18.701171875 15.8962673611111  18.5980902777778 15.6521267361111  18.3919270833333 15.4459635416667  L 15.4459635416667 12.5  L 18.3919270833333 9.55403645833333  C 18.5980902777778 9.34787326388889  18.701171875 9.10373263888889  18.701171875 8.82161458333333  C 18.701171875 8.52864583333333  18.5980902777778 8.27907986111111  18.3919270833333 8.07291666666667  L 16.9270833333333 6.60807291666667  C 16.7209201388889 6.40190972222222  16.4713541666667 6.298828125  16.1783854166667 6.298828125  C 15.8962673611111 6.298828125  15.6521267361111 6.40190972222222  15.4459635416667 6.60807291666667  L 12.5 9.55403645833333  L 9.55403645833333 6.60807291666667  C 9.34787326388889 6.40190972222222  9.10373263888889 6.298828125  8.82161458333333 6.298828125  C 8.52864583333333 6.298828125  8.27907986111111 6.40190972222222  8.07291666666667 6.60807291666667  L 6.60807291666667 8.07291666666667  C 6.40190972222222 8.27907986111111  6.298828125 8.52864583333333  6.298828125 8.82161458333333  C 6.298828125 9.10373263888889  6.40190972222222 9.34787326388889  6.60807291666667 9.55403645833333  L 9.55403645833333 12.5  L 6.60807291666667 15.4459635416667  C 6.40190972222222 15.6521267361111  6.298828125 15.8962673611111  6.298828125 16.1783854166667  C 6.298828125 16.4713541666667  6.40190972222222 16.7209201388889  6.60807291666667 16.9270833333333  L 8.07291666666667 18.3919270833333  C 8.27907986111111 18.5980902777778  8.52864583333333 18.701171875  8.82161458333333 18.701171875  C 9.10373263888889 18.701171875  9.34787326388889 18.5980902777778  9.55403645833333 18.3919270833333  L 12.5 15.4459635416667  L 15.4459635416667 18.3919270833333  C 15.6521267361111 18.5980902777778  15.8962673611111 18.701171875  16.1783854166667 18.701171875  C 16.4713541666667 18.701171875  16.7209201388889 18.5980902777778  16.9270833333333 18.3919270833333  L 18.3919270833333 16.9270833333333  Z M 23.3235677083333 6.2255859375  C 24.4411892361111 8.14073350694444  25 10.2322048611111  25 12.5  C 25 14.7677951388889  24.4411892361111 16.8592664930556  23.3235677083333 18.7744140625  C 22.2059461805556 20.6895616319444  20.6895616319444 22.2059461805556  18.7744140625 23.3235677083333  C 16.8592664930556 24.4411892361111  14.7677951388889 25  12.5 25  C 10.2322048611111 25  8.14073350694444 24.4411892361111  6.2255859375 23.3235677083333  C 4.31043836805556 22.2059461805556  2.79405381944444 20.6895616319444  1.67643229166667 18.7744140625  C 0.558810763888889 16.8592664930556  0 14.7677951388889  0 12.5  C 0 10.2322048611111  0.558810763888889 8.14073350694444  1.67643229166667 6.2255859375  C 2.79405381944444 4.31043836805556  4.31043836805556 2.79405381944444  6.2255859375 1.67643229166667  C 8.14073350694444 0.558810763888887  10.2322048611111 0  12.5 0  C 14.7677951388889 0  16.8592664930556 0.558810763888887  18.7744140625 1.67643229166667  C 20.6895616319444 2.79405381944444  22.2059461805556 4.31043836805556  23.3235677083333 6.2255859375  Z " fill-rule="nonzero" fill="#d7d7d7" stroke="none" transform="matrix(1 0 0 1 1369 659 )" />
  </g>
</svg>