<?xml version="1.0" encoding="utf-8"?>
<svg version="1.1" xmlns:xlink="http://www.w3.org/1999/xlink" width="12px" height="12px" viewBox="743 415  12 12" xmlns="http://www.w3.org/2000/svg">
  <path d="M 749 415  C 752.36 415  755 417.64  755 421  C 755 424.36  752.36 427  749 427  C 745.64 427  743 424.36  743 421  C 743 417.64  745.64 415  749 415  Z " fill-rule="nonzero" fill="#f0f0f0" stroke="none" />
  <path d="M 749 415.5  C 752.08 415.5  754.5 417.92  754.5 421  C 754.5 424.08  752.08 426.5  749 426.5  C 745.92 426.5  743.5 424.08  743.5 421  C 743.5 417.92  745.92 415.5  749 415.5  Z " stroke-width="1" stroke="#797979" fill="none" />
  <path d="M 749 424  C 747.32 424  746 422.68  746 421  C 746 419.32  747.32 418  749 418  C 750.68 418  752 419.32  752 421  C 752 422.68  750.68 424  749 424  " fill-rule="nonzero" fill="#797979" stroke="none" />
</svg>