<?xml version="1.0" encoding="utf-8"?>
<svg version="1.1" xmlns:xlink="http://www.w3.org/1999/xlink" width="12px" height="12px" viewBox="315 667  12 12" xmlns="http://www.w3.org/2000/svg">
  <path d="M 321 667  C 324.36 667  327 669.64  327 673  C 327 676.36  324.36 679  321 679  C 317.64 679  315 676.36  315 673  C 315 669.64  317.64 667  321 667  Z " fill-rule="nonzero" fill="#ffffff" stroke="none" />
  <path d="M 321 667.5  C 324.08 667.5  326.5 669.92  326.5 673  C 326.5 676.08  324.08 678.5  321 678.5  C 317.92 678.5  315.5 676.08  315.5 673  C 315.5 669.92  317.92 667.5  321 667.5  Z " stroke-width="1" stroke="#797979" fill="none" />
  <path d="M 321 676  C 319.32 676  318 674.68  318 673  C 318 671.32  319.32 670  321 670  C 322.68 670  324 671.32  324 673  C 324 674.68  322.68 676  321 676  " fill-rule="nonzero" fill="#797979" stroke="none" />
</svg>