<?xml version="1.0" encoding="utf-8"?>
<svg version="1.1" xmlns:xlink="http://www.w3.org/1999/xlink" width="12px" height="12px" viewBox="315 622  12 12" xmlns="http://www.w3.org/2000/svg">
  <path d="M 321 622  C 324.36 622  327 624.64  327 628  C 327 631.36  324.36 634  321 634  C 317.64 634  315 631.36  315 628  C 315 624.64  317.64 622  321 622  Z " fill-rule="nonzero" fill="#f0f0f0" stroke="none" />
  <path d="M 321 622.5  C 324.08 622.5  326.5 624.92  326.5 628  C 326.5 631.08  324.08 633.5  321 633.5  C 317.92 633.5  315.5 631.08  315.5 628  C 315.5 624.92  317.92 622.5  321 622.5  Z " stroke-width="1" stroke="#797979" fill="none" />
  <path d="M 321 631  C 319.32 631  318 629.68  318 628  C 318 626.32  319.32 625  321 625  C 322.68 625  324 626.32  324 628  C 324 629.68  322.68 631  321 631  " fill-rule="nonzero" fill="#797979" stroke="none" />
</svg>