<?xml version="1.0" encoding="utf-8"?>
<svg version="1.1" xmlns:xlink="http://www.w3.org/1999/xlink" width="12px" height="12px" viewBox="315 857  12 12" xmlns="http://www.w3.org/2000/svg">
  <path d="M 321 857  C 324.36 857  327 859.64  327 863  C 327 866.36  324.36 869  321 869  C 317.64 869  315 866.36  315 863  C 315 859.64  317.64 857  321 857  Z " fill-rule="nonzero" fill="#f0f0f0" stroke="none" />
  <path d="M 321 857.5  C 324.08 857.5  326.5 859.92  326.5 863  C 326.5 866.08  324.08 868.5  321 868.5  C 317.92 868.5  315.5 866.08  315.5 863  C 315.5 859.92  317.92 857.5  321 857.5  Z " stroke-width="1" stroke="#797979" fill="none" />
  <path d="M 321 866  C 319.32 866  318 864.68  318 863  C 318 861.32  319.32 860  321 860  C 322.68 860  324 861.32  324 863  C 324 864.68  322.68 866  321 866  " fill-rule="nonzero" fill="#797979" stroke="none" />
</svg>