<?xml version="1.0" encoding="utf-8"?>
<svg version="1.1" xmlns:xlink="http://www.w3.org/1999/xlink" width="447px" height="167px" xmlns="http://www.w3.org/2000/svg">
  <g transform="matrix(1 0 0 1 -957 -289 )">
    <path d="M 958 293  A 3 3 0 0 1 961 290 L 1400 290  A 3 3 0 0 1 1403 293 L 1403 452  A 3 3 0 0 1 1400 455 L 961 455  A 3 3 0 0 1 958 452 L 958 293  Z " fill-rule="nonzero" fill="#ff3399" stroke="none" fill-opacity="0.0980392156862745" />
    <path d="M 957.5 293  A 3.5 3.5 0 0 1 961 289.5 L 1400 289.5  A 3.5 3.5 0 0 1 1403.5 293 L 1403.5 452  A 3.5 3.5 0 0 1 1400 455.5 L 961 455.5  A 3.5 3.5 0 0 1 957.5 452 L 957.5 293  Z " stroke-width="1" stroke-dasharray="9,4" stroke="#ff3399" fill="none" stroke-dashoffset="0.5" />
  </g>
</svg>