<?xml version="1.0" encoding="utf-8"?>
<svg version="1.1" xmlns:xlink="http://www.w3.org/1999/xlink" width="524px" height="126px" xmlns="http://www.w3.org/2000/svg">
  <g transform="matrix(1 0 0 1 -870 -751 )">
    <path d="M 871 755  A 3 3 0 0 1 874 752 L 1390 752  A 3 3 0 0 1 1393 755 L 1393 873  A 3 3 0 0 1 1390 876 L 874 876  A 3 3 0 0 1 871 873 L 871 755  Z " fill-rule="nonzero" fill="#ff3399" stroke="none" fill-opacity="0.0980392156862745" />
    <path d="M 870.5 755  A 3.5 3.5 0 0 1 874 751.5 L 1390 751.5  A 3.5 3.5 0 0 1 1393.5 755 L 1393.5 873  A 3.5 3.5 0 0 1 1390 876.5 L 874 876.5  A 3.5 3.5 0 0 1 870.5 873 L 870.5 755  Z " stroke-width="1" stroke-dasharray="9,4" stroke="#ff3399" fill="none" stroke-dashoffset="0.5" />
  </g>
</svg>