<?xml version="1.0" encoding="utf-8"?>
<svg version="1.1" xmlns:xlink="http://www.w3.org/1999/xlink" width="378px" height="42px" xmlns="http://www.w3.org/2000/svg">
  <g transform="matrix(1 0 0 1 -2746 -488 )">
    <path d="M 2747 492  A 3 3 0 0 1 2750 489 L 3120 489  A 3 3 0 0 1 3123 492 L 3123 526  A 3 3 0 0 1 3120 529 L 2750 529  A 3 3 0 0 1 2747 526 L 2747 492  Z " fill-rule="nonzero" fill="#ff3399" stroke="none" fill-opacity="0.0980392156862745" />
    <path d="M 2746.5 492  A 3.5 3.5 0 0 1 2750 488.5 L 3120 488.5  A 3.5 3.5 0 0 1 3123.5 492 L 3123.5 526  A 3.5 3.5 0 0 1 3120 529.5 L 2750 529.5  A 3.5 3.5 0 0 1 2746.5 526 L 2746.5 492  Z " stroke-width="1" stroke-dasharray="9,4" stroke="#ff3399" fill="none" stroke-dashoffset="0.5" />
  </g>
</svg>