<?xml version="1.0" encoding="utf-8"?>
<svg version="1.1" xmlns:xlink="http://www.w3.org/1999/xlink" width="361px" height="57px" xmlns="http://www.w3.org/2000/svg">
  <g transform="matrix(1 0 0 1 -454 -118 )">
    <path d="M 455 122  A 3 3 0 0 1 458 119 L 811 119  A 3 3 0 0 1 814 122 L 814 171  A 3 3 0 0 1 811 174 L 458 174  A 3 3 0 0 1 455 171 L 455 122  Z " fill-rule="nonzero" fill="#ff3399" stroke="none" fill-opacity="0.0980392156862745" />
    <path d="M 454.5 122  A 3.5 3.5 0 0 1 458 118.5 L 811 118.5  A 3.5 3.5 0 0 1 814.5 122 L 814.5 171  A 3.5 3.5 0 0 1 811 174.5 L 458 174.5  A 3.5 3.5 0 0 1 454.5 171 L 454.5 122  Z " stroke-width="1" stroke-dasharray="9,4" stroke="#ff3399" fill="none" stroke-dashoffset="0.5" />
  </g>
</svg>