<?xml version="1.0" encoding="utf-8"?>
<svg version="1.1" xmlns:xlink="http://www.w3.org/1999/xlink" width="18px" height="18px" xmlns="http://www.w3.org/2000/svg">
  <g transform="matrix(1 0 0 1 -1470 -405 )">
    <path d="M 17.3575013943112 0  C 17.4913552704964 0  17.611823759063 0.0368303571428588  17.7189068600112 0.110491071428572  C 17.9397657557167 0.271205357142857  18.0301171221417 0.485491071428571  17.9899609592861 0.753348214285715  L 15.419966536531 16.1819196428571  C 15.3865030674847 16.3761160714286  15.2794199665365 16.5267857142857  15.0987172336866 16.6339285714286  C 15.0050195203569 16.6875  14.9012827663134 16.7142857142857  14.7875069715561 16.7142857142857  C 14.7138873396542 16.7142857142857  14.6335750139431 16.6975446428571  14.5465699944228 16.6640625  L 9.99888455103179 14.8058035714286  L 7.56943669827105 17.7689732142857  C 7.44896820970441 17.9229910714286  7.28499721137758 18  7.07752370329057 18  C 6.99051868377022 18  6.91689905186838 17.9866071428571  6.85666480758505 17.9598214285714  C 6.72950362520915 17.9129464285714  6.62744004461796 17.8342633928571  6.55047406581149 17.7237723214286  C 6.47350808700502 17.61328125  6.43502509760178 17.4910714285714  6.43502509760178 17.3571428571429  L 6.43502509760178 13.8515625  L 15.1087562744004 3.21428571428571  L 4.37702175125488 12.5055803571429  L 0.411600669269381 10.8783482142857  C 0.163970998326827 10.7845982142857  0.030117122141662 10.6004464285714  0.0100390407138873 10.3258928571429  C -0.00334634690462911 10.0580357142857  0.103736754043502 9.86049107142857  0.331288343558282 9.73325892857143  L 17.0362520914668 0.0904017857142851  C 17.1366424986057 0.0301339285714277  17.2437255995538 0  17.3575013943112 0  Z " fill-rule="nonzero" fill="#999999" stroke="none" transform="matrix(1 0 0 1 1470 405 )" />
  </g>
</svg>