<?xml version="1.0" encoding="utf-8"?>
<svg version="1.1" xmlns:xlink="http://www.w3.org/1999/xlink" width="16px" height="17px" xmlns="http://www.w3.org/2000/svg">
  <g transform="matrix(1 0 0 1 -1394 -405 )">
    <path d="M 2.7036303630363 15.563696369637  L 3.83366336633663 15.563696369637  L 4.79471947194719 14.5425742574257  L 2.31287128712871 11.9056105610561  L 1.35181518151815 12.9267326732673  L 1.35181518151815 14.1273927392739  L 2.7036303630363 14.1273927392739  L 2.7036303630363 15.563696369637  Z M 9.28316831683168 5.34125412541254  C 9.33245324532453 5.28888888888889  9.35709570957096 5.22530253025302  9.35709570957096 5.15049504950495  C 9.35709570957096 4.98591859185919  9.27964796479648 4.9036303630363  9.12475247524752 4.9036303630363  C 9.05434543454346 4.9036303630363  8.994499449945 4.92981298129813  8.94521452145215 4.98217821782178  L 3.22112211221122 11.0640264026403  C 3.17183718371837 11.1163916391639  3.14719471947195 11.1799779977998  3.14719471947195 11.2547854785479  C 3.14719471947195 11.4193619361936  3.22464246424643 11.5016501650165  3.37953795379538 11.5016501650165  C 3.44994499449945 11.5016501650165  3.50979097909791 11.4754675467547  3.55907590759076 11.423102310231  L 9.28316831683168 5.34125412541254  Z M 0 12.3320132013201  L 8.78679867986799 2.9960396039604  L 13.180198019802 7.66402640264026  L 4.39339933993399 17  L 0 17  L 0 12.3320132013201  Z M 15.6092409240924 3.05214521452145  C 15.8697469746975 3.34389438943894  16 3.68426842684268  16 4.07326732673267  C 16 4.46974697469747  15.8697469746975 4.80638063806381  15.6092409240924 5.08316831683168  L 13.8561056105611 6.94587458745875  L 9.46270627062706 2.27788778877888  L 11.2158415841584 0.426402640264026  C 11.4693069306931 0.142134213421341  11.7861386138614 0  12.1663366336634 0  C 12.5394939493949 0  12.8598459845985 0.142134213421341  13.1273927392739 0.426402640264026  L 15.6092409240924 3.05214521452145  Z " fill-rule="nonzero" fill="#999999" stroke="none" transform="matrix(1 0 0 1 1394 405 )" />
  </g>
</svg>