<?xml version="1.0" encoding="utf-8"?>
<svg version="1.1" xmlns:xlink="http://www.w3.org/1999/xlink" width="12px" height="12px" viewBox="1520 352  12 12" xmlns="http://www.w3.org/2000/svg">
  <path d="M 1526 352  C 1529.36 352  1532 354.64  1532 358  C 1532 361.36  1529.36 364  1526 364  C 1522.64 364  1520 361.36  1520 358  C 1520 354.64  1522.64 352  1526 352  Z " fill-rule="nonzero" fill="#ffffff" stroke="none" />
  <path d="M 1526 352.5  C 1529.08 352.5  1531.5 354.92  1531.5 358  C 1531.5 361.08  1529.08 363.5  1526 363.5  C 1522.92 363.5  1520.5 361.08  1520.5 358  C 1520.5 354.92  1522.92 352.5  1526 352.5  Z " stroke-width="1" stroke="#797979" fill="none" />
  <path d="M 1526 361  C 1524.32 361  1523 359.68  1523 358  C 1523 356.32  1524.32 355  1526 355  C 1527.68 355  1529 356.32  1529 358  C 1529 359.68  1527.68 361  1526 361  " fill-rule="nonzero" fill="#797979" stroke="none" />
</svg>