<?xml version="1.0" encoding="utf-8"?>
<svg version="1.1" xmlns:xlink="http://www.w3.org/1999/xlink" width="12px" height="12px" viewBox="2400 352  12 12" xmlns="http://www.w3.org/2000/svg">
  <path d="M 2406 352  C 2409.36 352  2412 354.64  2412 358  C 2412 361.36  2409.36 364  2406 364  C 2402.64 364  2400 361.36  2400 358  C 2400 354.64  2402.64 352  2406 352  Z " fill-rule="nonzero" fill="#f0f0f0" stroke="none" />
  <path d="M 2406 352.5  C 2409.08 352.5  2411.5 354.92  2411.5 358  C 2411.5 361.08  2409.08 363.5  2406 363.5  C 2402.92 363.5  2400.5 361.08  2400.5 358  C 2400.5 354.92  2402.92 352.5  2406 352.5  Z " stroke-width="1" stroke="#797979" fill="none" />
  <path d="M 2406 361  C 2404.32 361  2403 359.68  2403 358  C 2403 356.32  2404.32 355  2406 355  C 2407.68 355  2409 356.32  2409 358  C 2409 359.68  2407.68 361  2406 361  " fill-rule="nonzero" fill="#797979" stroke="none" />
</svg>