<?xml version="1.0" encoding="utf-8"?>
<svg version="1.1" xmlns:xlink="http://www.w3.org/1999/xlink" width="12px" height="12px" viewBox="3344 352  12 12" xmlns="http://www.w3.org/2000/svg">
  <path d="M 3350 352  C 3353.36 352  3356 354.64  3356 358  C 3356 361.36  3353.36 364  3350 364  C 3346.64 364  3344 361.36  3344 358  C 3344 354.64  3346.64 352  3350 352  Z " fill-rule="nonzero" fill="#f0f0f0" stroke="none" />
  <path d="M 3350 352.5  C 3353.08 352.5  3355.5 354.92  3355.5 358  C 3355.5 361.08  3353.08 363.5  3350 363.5  C 3346.92 363.5  3344.5 361.08  3344.5 358  C 3344.5 354.92  3346.92 352.5  3350 352.5  Z " stroke-width="1" stroke="#797979" fill="none" />
  <path d="M 3350 361  C 3348.32 361  3347 359.68  3347 358  C 3347 356.32  3348.32 355  3350 355  C 3351.68 355  3353 356.32  3353 358  C 3353 359.68  3351.68 361  3350 361  " fill-rule="nonzero" fill="#797979" stroke="none" />
</svg>