<?xml version="1.0" encoding="utf-8"?>
<svg version="1.1" xmlns:xlink="http://www.w3.org/1999/xlink" width="12px" height="12px" viewBox="614 461  12 12" xmlns="http://www.w3.org/2000/svg">
  <path d="M 620 461  C 623.36 461  626 463.64  626 467  C 626 470.36  623.36 473  620 473  C 616.64 473  614 470.36  614 467  C 614 463.64  616.64 461  620 461  Z " fill-rule="nonzero" fill="#f0f0f0" stroke="none" />
  <path d="M 620 461.5  C 623.08 461.5  625.5 463.92  625.5 467  C 625.5 470.08  623.08 472.5  620 472.5  C 616.92 472.5  614.5 470.08  614.5 467  C 614.5 463.92  616.92 461.5  620 461.5  Z " stroke-width="1" stroke="#797979" fill="none" />
  <path d="M 620 470  C 618.32 470  617 468.68  617 467  C 617 465.32  618.32 464  620 464  C 621.68 464  623 465.32  623 467  C 623 468.68  621.68 470  620 470  " fill-rule="nonzero" fill="#797979" stroke="none" />
</svg>