<?xml version="1.0" encoding="utf-8"?>
<svg version="1.1" xmlns:xlink="http://www.w3.org/1999/xlink" width="12px" height="12px" viewBox="390 461  12 12" xmlns="http://www.w3.org/2000/svg">
  <path d="M 396 461  C 399.36 461  402 463.64  402 467  C 402 470.36  399.36 473  396 473  C 392.64 473  390 470.36  390 467  C 390 463.64  392.64 461  396 461  Z " fill-rule="nonzero" fill="#f0f0f0" stroke="none" />
  <path d="M 396 461.5  C 399.08 461.5  401.5 463.92  401.5 467  C 401.5 470.08  399.08 472.5  396 472.5  C 392.92 472.5  390.5 470.08  390.5 467  C 390.5 463.92  392.92 461.5  396 461.5  Z " stroke-width="1" stroke="#797979" fill="none" />
  <path d="M 396 470  C 394.32 470  393 468.68  393 467  C 393 465.32  394.32 464  396 464  C 397.68 464  399 465.32  399 467  C 399 468.68  397.68 470  396 470  " fill-rule="nonzero" fill="#797979" stroke="none" />
</svg>