<?xml version="1.0" encoding="utf-8"?>
<svg version="1.1" xmlns:xlink="http://www.w3.org/1999/xlink" width="416px" height="33px" xmlns="http://www.w3.org/2000/svg">
  <defs>
    <mask fill="white" id="clip68">
      <path d="M 0 29  L 0 4  C 0 1.75999999999999  5.15605633802814 0  11.7183098591549 0  L 404.281690140845 0  C 410.843943661971 0  416 1.75999999999999  416 4  L 416 29  C 416 31.24  410.843943661971 33  404.281690140845 33  L 112.495774647892 33  L 11.7183098591549 33  C 5.15605633802814 33  0 31.24  0 29  Z " fill-rule="evenodd" />
    </mask>
  </defs>
  <g transform="matrix(1 0 0 1 -2008 -253 )">
    <path d="M 0 29  L 0 4  C 0 1.75999999999999  5.15605633802814 0  11.7183098591549 0  L 404.281690140845 0  C 410.843943661971 0  416 1.75999999999999  416 4  L 416 29  C 416 31.24  410.843943661971 33  404.281690140845 33  L 112.495774647892 33  L 11.7183098591549 33  C 5.15605633802814 33  0 31.24  0 29  Z " fill-rule="nonzero" fill="#ff3399" stroke="none" fill-opacity="0.0980392156862745" transform="matrix(1 0 0 1 2008 253 )" />
    <path d="M 0 29  L 0 4  C 0 1.75999999999999  5.15605633802814 0  11.7183098591549 0  L 404.281690140845 0  C 410.843943661971 0  416 1.75999999999999  416 4  L 416 29  C 416 31.24  410.843943661971 33  404.281690140845 33  L 112.495774647892 33  L 11.7183098591549 33  C 5.15605633802814 33  0 31.24  0 29  Z " stroke-width="2" stroke-dasharray="9,4" stroke="#ff3399" fill="none" transform="matrix(1 0 0 1 2008 253 )" mask="url(#clip68)" />
  </g>
</svg>