<?xml version="1.0" encoding="utf-8"?>
<svg version="1.1" xmlns:xlink="http://www.w3.org/1999/xlink" width="142px" height="33px" xmlns="http://www.w3.org/2000/svg">
  <g transform="matrix(1 0 0 1 -2008 -216 )">
    <path d="M 2009 220  A 3 3 0 0 1 2012 217 L 2146 217  A 3 3 0 0 1 2149 220 L 2149 245  A 3 3 0 0 1 2146 248 L 2012 248  A 3 3 0 0 1 2009 245 L 2009 220  Z " fill-rule="nonzero" fill="#ff3399" stroke="none" fill-opacity="0.0980392156862745" />
    <path d="M 2008.5 220  A 3.5 3.5 0 0 1 2012 216.5 L 2146 216.5  A 3.5 3.5 0 0 1 2149.5 220 L 2149.5 245  A 3.5 3.5 0 0 1 2146 248.5 L 2012 248.5  A 3.5 3.5 0 0 1 2008.5 245 L 2008.5 220  Z " stroke-width="1" stroke-dasharray="9,4" stroke="#ff3399" fill="none" stroke-dashoffset="0.5" />
  </g>
</svg>