<?xml version="1.0" encoding="utf-8"?>
<svg version="1.1" xmlns:xlink="http://www.w3.org/1999/xlink" width="89px" height="30px" xmlns="http://www.w3.org/2000/svg">
  <defs>
    <mask fill="white" id="clip117">
      <path d="M 0 1.19521912350601  L 0 28.8047808764941  C 0 29.4741035856574  1.05837837837839 30  2.40540540540542 30  L 86.5945945945946 30  C 87.9416216216216 30  89 29.4741035856574  89 28.8047808764941  L 89 1.19521912350601  C 89 0.52589641434264  87.9416216216216 0  86.5945945945946 0  L 39.8000000000029 0  L 36 0  L 19.5673758865248 0  L 2.40540540540542 0  C 1.05837837837839 0  0 0.52589641434264  0 1.19521912350601  Z " fill-rule="evenodd" />
    </mask>
  </defs>
  <g transform="matrix(1 0 0 1 -476 -330 )">
    <path d="M 0 1.19521912350601  L 0 28.8047808764941  C 0 29.4741035856574  1.05837837837839 30  2.40540540540542 30  L 86.5945945945946 30  C 87.9416216216216 30  89 29.4741035856574  89 28.8047808764941  L 89 1.19521912350601  C 89 0.52589641434264  87.9416216216216 0  86.5945945945946 0  L 39.8000000000029 0  L 36 0  L 19.5673758865248 0  L 2.40540540540542 0  C 1.05837837837839 0  0 0.52589641434264  0 1.19521912350601  Z " fill-rule="nonzero" fill="#d9001b" stroke="none" fill-opacity="0.0352941176470588" transform="matrix(1 0 0 1 476 330 )" />
    <path d="M 0 1.19521912350601  L 0 28.8047808764941  C 0 29.4741035856574  1.05837837837839 30  2.40540540540542 30  L 86.5945945945946 30  C 87.9416216216216 30  89 29.4741035856574  89 28.8047808764941  L 89 1.19521912350601  C 89 0.52589641434264  87.9416216216216 0  86.5945945945946 0  L 39.8000000000029 0  L 36 0  L 19.5673758865248 0  L 2.40540540540542 0  C 1.05837837837839 0  0 0.52589641434264  0 1.19521912350601  Z " stroke-width="2" stroke-dasharray="9,4" stroke="#d9001b" fill="none" transform="matrix(1 0 0 1 476 330 )" mask="url(#clip117)" />
  </g>
</svg>