<?xml version="1.0" encoding="utf-8"?>
<svg version="1.1" xmlns:xlink="http://www.w3.org/1999/xlink" width="153px" height="30px" xmlns="http://www.w3.org/2000/svg">
  <defs>
    <mask fill="white" id="clip115">
      <path d="M 0 1.19521912350602  L 0 28.8047808764941  C 0 29.4741035856574  1.81945945945943 30  4.13513513513516 30  L 148.864864864865 30  C 151.180540540541 30  153 29.4741035856574  153 28.8047808764941  L 153 1.19521912350602  C 153 0.525896414342609  151.180540540541 0  148.864864864865 0  L 33.6382978723404 0  L 4.13513513513516 0  C 1.81945945945943 0  0 0.525896414342609  0 1.19521912350602  Z " fill-rule="evenodd" />
    </mask>
  </defs>
  <g transform="matrix(1 0 0 1 -469 -442 )">
    <path d="M 0 1.19521912350602  L 0 28.8047808764941  C 0 29.4741035856574  1.81945945945943 30  4.13513513513516 30  L 148.864864864865 30  C 151.180540540541 30  153 29.4741035856574  153 28.8047808764941  L 153 1.19521912350602  C 153 0.525896414342609  151.180540540541 0  148.864864864865 0  L 33.6382978723404 0  L 4.13513513513516 0  C 1.81945945945943 0  0 0.525896414342609  0 1.19521912350602  Z " fill-rule="nonzero" fill="#d9001b" stroke="none" fill-opacity="0.0352941176470588" transform="matrix(1 0 0 1 469 442 )" />
    <path d="M 0 1.19521912350602  L 0 28.8047808764941  C 0 29.4741035856574  1.81945945945943 30  4.13513513513516 30  L 148.864864864865 30  C 151.180540540541 30  153 29.4741035856574  153 28.8047808764941  L 153 1.19521912350602  C 153 0.525896414342609  151.180540540541 0  148.864864864865 0  L 33.6382978723404 0  L 4.13513513513516 0  C 1.81945945945943 0  0 0.525896414342609  0 1.19521912350602  Z " stroke-width="2" stroke-dasharray="9,4" stroke="#d9001b" fill="none" transform="matrix(1 0 0 1 469 442 )" mask="url(#clip115)" />
  </g>
</svg>