<?xml version="1.0" encoding="utf-8"?>
<svg version="1.1" xmlns:xlink="http://www.w3.org/1999/xlink" width="421px" height="80px" xmlns="http://www.w3.org/2000/svg">
  <defs>
    <mask fill="white" id="clip61">
      <path d="M 0 76  L 0 41.4782608695629  L 0 4  C 0 1.75999999999999  3.18008583690985 0  7.2274678111588 0  L 413.772532188841 0  C 417.81991416309 0  421 1.75999999999999  421 4  L 421 76  C 421 78.24  417.81991416309 80  413.772532188841 80  L 7.2274678111588 80  C 3.18008583690985 80  0 78.24  0 76  Z " fill-rule="evenodd" />
    </mask>
  </defs>
  <g transform="matrix(1 0 0 1 -1182 -496 )">
    <path d="M 0 76  L 0 41.4782608695629  L 0 4  C 0 1.75999999999999  3.18008583690985 0  7.2274678111588 0  L 413.772532188841 0  C 417.81991416309 0  421 1.75999999999999  421 4  L 421 76  C 421 78.24  417.81991416309 80  413.772532188841 80  L 7.2274678111588 80  C 3.18008583690985 80  0 78.24  0 76  Z " fill-rule="nonzero" fill="#cc0018" stroke="none" fill-opacity="0.00392156862745098" transform="matrix(1 0 0 1 1182 496 )" />
    <path d="M 0 76  L 0 41.4782608695629  L 0 4  C 0 1.75999999999999  3.18008583690985 0  7.2274678111588 0  L 413.772532188841 0  C 417.81991416309 0  421 1.75999999999999  421 4  L 421 76  C 421 78.24  417.81991416309 80  413.772532188841 80  L 7.2274678111588 80  C 3.18008583690985 80  0 78.24  0 76  Z " stroke-width="2" stroke-dasharray="9,4" stroke="#ff3399" fill="none" transform="matrix(1 0 0 1 1182 496 )" mask="url(#clip61)" />
  </g>
</svg>