<?xml version="1.0" encoding="utf-8"?>
<svg version="1.1" xmlns:xlink="http://www.w3.org/1999/xlink" width="50px" height="50px" xmlns="http://www.w3.org/2000/svg">
  <g transform="matrix(1 0 0 1 -365 -26 )">
    <path d="M 36.03515625 30.2083333333333  C 36.03515625 30.4904513888889  35.9266493055556 30.7400173611111  35.7096354166667 30.95703125  L 30.95703125 35.7096354166667  C 30.7400173611111 35.9266493055556  30.4904513888889 36.03515625  30.2083333333333 36.03515625  C 29.9262152777778 36.03515625  29.6766493055556 35.9266493055556  29.4596354166667 35.7096354166667  L 25 31.25  L 20.5403645833333 35.7096354166667  C 20.3233506944444 35.9266493055556  20.0737847222222 36.03515625  19.7916666666667 36.03515625  C 19.5095486111111 36.03515625  19.2599826388889 35.9266493055556  19.04296875 35.7096354166667  L 14.2903645833333 30.95703125  C 14.0733506944444 30.7400173611111  13.96484375 30.4904513888889  13.96484375 30.2083333333333  C 13.96484375 29.9262152777778  14.0733506944444 29.6766493055556  14.2903645833333 29.4596354166667  L 18.75 25  L 14.2903645833333 20.5403645833333  C 14.0733506944444 20.3233506944444  13.96484375 20.0737847222222  13.96484375 19.7916666666667  C 13.96484375 19.5095486111111  14.0733506944444 19.2599826388889  14.2903645833333 19.04296875  L 19.04296875 14.2903645833333  C 19.2599826388889 14.0733506944444  19.5095486111111 13.96484375  19.7916666666667 13.96484375  C 20.0737847222222 13.96484375  20.3233506944444 14.0733506944444  20.5403645833333 14.2903645833333  L 25 18.75  L 29.4596354166667 14.2903645833333  C 29.6766493055556 14.0733506944444  29.9262152777778 13.96484375  30.2083333333333 13.96484375  C 30.4904513888889 13.96484375  30.7400173611111 14.0733506944444  30.95703125 14.2903645833333  L 35.7096354166667 19.04296875  C 35.9266493055556 19.2599826388889  36.03515625 19.5095486111111  36.03515625 19.7916666666667  C 36.03515625 20.0737847222222  35.9266493055556 20.3233506944444  35.7096354166667 20.5403645833333  L 31.25 25  L 35.7096354166667 29.4596354166667  C 35.9266493055556 29.6766493055556  36.03515625 29.9262152777778  36.03515625 30.2083333333333  Z M 40.33203125 33.88671875  C 41.9162326388889 31.1740451388889  42.7083333333333 28.2118055555556  42.7083333333333 25  C 42.7083333333333 21.7881944444444  41.9162326388889 18.8259548611111  40.33203125 16.11328125  C 38.7478298611111 13.4006076388889  36.5993923611111 11.2521701388889  33.88671875 9.66796875  C 31.1740451388889 8.08376736111111  28.2118055555556 7.29166666666667  25 7.29166666666667  C 21.7881944444444 7.29166666666667  18.8259548611111 8.08376736111111  16.11328125 9.66796875  C 13.4006076388889 11.2521701388889  11.2521701388889 13.4006076388889  9.66796875 16.11328125  C 8.08376736111111 18.8259548611111  7.29166666666667 21.7881944444444  7.29166666666667 25  C 7.29166666666667 28.2118055555556  8.08376736111111 31.1740451388889  9.66796875 33.88671875  C 11.2521701388889 36.5993923611111  13.4006076388889 38.7478298611111  16.11328125 40.33203125  C 18.8259548611111 41.9162326388889  21.7881944444444 42.7083333333333  25 42.7083333333333  C 28.2118055555556 42.7083333333333  31.1740451388889 41.9162326388889  33.88671875 40.33203125  C 36.5993923611111 38.7478298611111  38.7478298611111 36.5993923611111  40.33203125 33.88671875  Z M 46.6471354166667 12.451171875  C 48.8823784722222 16.2814670138889  50 20.4644097222222  50 25  C 50 29.5355902777778  48.8823784722222 33.7185329861111  46.6471354166667 37.548828125  C 44.4118923611111 41.3791232638889  41.3791232638889 44.4118923611111  37.548828125 46.6471354166667  C 33.7185329861111 48.8823784722222  29.5355902777778 50  25 50  C 20.4644097222222 50  16.2814670138889 48.8823784722222  12.451171875 46.6471354166667  C 8.62087673611111 44.4118923611111  5.58810763888889 41.3791232638889  3.35286458333333 37.548828125  C 1.11762152777778 33.7185329861111  0 29.5355902777778  0 25  C 0 20.4644097222222  1.11762152777778 16.2814670138889  3.35286458333333 12.451171875  C 5.58810763888889 8.62087673611111  8.62087673611111 5.58810763888888  12.451171875 3.35286458333333  C 16.2814670138889 1.11762152777777  20.4644097222222 0  25 0  C 29.5355902777778 0  33.7185329861111 1.11762152777777  37.548828125 3.35286458333333  C 41.3791232638889 5.58810763888888  44.4118923611111 8.62087673611111  46.6471354166667 12.451171875  Z " fill-rule="nonzero" fill="#d7d7d7" stroke="none" transform="matrix(1 0 0 1 365 26 )" />
  </g>
</svg>