<?xml version="1.0" encoding="utf-8"?>
<svg version="1.1" xmlns:xlink="http://www.w3.org/1999/xlink" width="35px" height="35px" xmlns="http://www.w3.org/2000/svg">
  <g transform="matrix(1 0 0 1 -252 -181 )">
    <path d="M 269.5 181  C 279.3 181  287 188.7  287 198.5  C 287 208.3  279.3 216  269.5 216  C 259.7 216  252 208.3  252 198.5  C 252 188.7  259.7 181  269.5 181  Z " fill-rule="nonzero" fill="#ffffff" stroke="none" />
    <path d="M 269.5 181.5  C 279.02 181.5  286.5 188.98  286.5 198.5  C 286.5 208.02  279.02 215.5  269.5 215.5  C 259.98 215.5  252.5 208.02  252.5 198.5  C 252.5 188.98  259.98 181.5  269.5 181.5  Z " stroke-width="1" stroke="#cccccc" fill="none" />
  </g>
</svg>