<?xml version="1.0" encoding="utf-8"?>
<svg version="1.1" xmlns:xlink="http://www.w3.org/1999/xlink" width="261px" height="48px" xmlns="http://www.w3.org/2000/svg">
  <defs>
    <mask fill="white" id="clip66">
      <path d="M 0 1.91235059760956  L 0 46.0876494023904  C 0 47.1585657370518  3.10378378378378 48  7.05405405405405 48  L 253.945945945946 48  C 257.896216216216 48  261 47.1585657370518  261 46.0876494023904  L 261 1.91235059760956  C 261 0.841434262948209  257.896216216216 0  253.945945945946 0  L 7.05405405405405 0  C 3.10378378378378 0  0 0.841434262948209  0 1.91235059760956  Z " fill-rule="evenodd" />
    </mask>
  </defs>
  <g transform="matrix(1 0 0 1 -1528 -390 )">
    <path d="M 0 1.91235059760956  L 0 46.0876494023904  C 0 47.1585657370518  3.10378378378378 48  7.05405405405405 48  L 253.945945945946 48  C 257.896216216216 48  261 47.1585657370518  261 46.0876494023904  L 261 1.91235059760956  C 261 0.841434262948209  257.896216216216 0  253.945945945946 0  L 7.05405405405405 0  C 3.10378378378378 0  0 0.841434262948209  0 1.91235059760956  Z " fill-rule="nonzero" fill="#d9001b" stroke="none" fill-opacity="0.0352941176470588" transform="matrix(1 0 0 1 1528 390 )" />
    <path d="M 0 1.91235059760956  L 0 46.0876494023904  C 0 47.1585657370518  3.10378378378378 48  7.05405405405405 48  L 253.945945945946 48  C 257.896216216216 48  261 47.1585657370518  261 46.0876494023904  L 261 1.91235059760956  C 261 0.841434262948209  257.896216216216 0  253.945945945946 0  L 7.05405405405405 0  C 3.10378378378378 0  0 0.841434262948209  0 1.91235059760956  Z " stroke-width="2" stroke-dasharray="9,4" stroke="#ff3399" fill="none" transform="matrix(1 0 0 1 1528 390 )" mask="url(#clip66)" />
  </g>
</svg>