<?xml version="1.0" encoding="utf-8"?>
<svg version="1.1" xmlns:xlink="http://www.w3.org/1999/xlink" width="306px" height="210px" xmlns="http://www.w3.org/2000/svg">
  <defs>
    <mask fill="white" id="clip67">
      <path d="M 0 8.36653386454183  L 0 201.633466135458  C 0 206.318725099602  3.63891891891892 210  8.27027027027027 210  L 297.72972972973 210  C 302.361081081081 210  306 206.318725099602  306 201.633466135458  L 306 8.36653386454183  C 306 3.68127490039841  302.361081081081 0  297.72972972973 0  L 8.27027027027027 0  C 3.63891891891892 0  0 3.68127490039841  0 8.36653386454183  Z " fill-rule="evenodd" />
    </mask>
  </defs>
  <g transform="matrix(1 0 0 1 -1830 -390 )">
    <path d="M 0 8.36653386454183  L 0 201.633466135458  C 0 206.318725099602  3.63891891891892 210  8.27027027027027 210  L 297.72972972973 210  C 302.361081081081 210  306 206.318725099602  306 201.633466135458  L 306 8.36653386454183  C 306 3.68127490039841  302.361081081081 0  297.72972972973 0  L 8.27027027027027 0  C 3.63891891891892 0  0 3.68127490039841  0 8.36653386454183  Z " fill-rule="nonzero" fill="#d9001b" stroke="none" fill-opacity="0.0352941176470588" transform="matrix(1 0 0 1 1830 390 )" />
    <path d="M 0 8.36653386454183  L 0 201.633466135458  C 0 206.318725099602  3.63891891891892 210  8.27027027027027 210  L 297.72972972973 210  C 302.361081081081 210  306 206.318725099602  306 201.633466135458  L 306 8.36653386454183  C 306 3.68127490039841  302.361081081081 0  297.72972972973 0  L 8.27027027027027 0  C 3.63891891891892 0  0 3.68127490039841  0 8.36653386454183  Z " stroke-width="2" stroke-dasharray="9,4" stroke="#ff3399" fill="none" transform="matrix(1 0 0 1 1830 390 )" mask="url(#clip67)" />
  </g>
</svg>