<?xml version="1.0" encoding="utf-8"?>
<svg version="1.1" xmlns:xlink="http://www.w3.org/1999/xlink" width="120px" height="31px" xmlns="http://www.w3.org/2000/svg">
  <defs>
    <mask fill="white" id="clip65">
      <path d="M 0 1.23505976095617  L 0 29.7649402390438  C 0 30.4565737051793  1.42702702702703 31  3.24324324324324 31  L 116.756756756757 31  C 118.572972972973 31  120 30.4565737051793  120 29.7649402390438  L 120 1.23505976095617  C 120 0.543426294820718  118.572972972973 0  116.756756756757 0  L 3.24324324324324 0  C 1.42702702702703 0  0 0.543426294820718  0 1.23505976095617  Z " fill-rule="evenodd" />
    </mask>
  </defs>
  <g transform="matrix(1 0 0 1 -1126 -787 )">
    <path d="M 0 1.23505976095617  L 0 29.7649402390438  C 0 30.4565737051793  1.42702702702703 31  3.24324324324324 31  L 116.756756756757 31  C 118.572972972973 31  120 30.4565737051793  120 29.7649402390438  L 120 1.23505976095617  C 120 0.543426294820718  118.572972972973 0  116.756756756757 0  L 3.24324324324324 0  C 1.42702702702703 0  0 0.543426294820718  0 1.23505976095617  Z " fill-rule="nonzero" fill="#ff3399" stroke="none" fill-opacity="0.0901960784313725" transform="matrix(1 0 0 1 1126 787 )" />
    <path d="M 0 1.23505976095617  L 0 29.7649402390438  C 0 30.4565737051793  1.42702702702703 31  3.24324324324324 31  L 116.756756756757 31  C 118.572972972973 31  120 30.4565737051793  120 29.7649402390438  L 120 1.23505976095617  C 120 0.543426294820718  118.572972972973 0  116.756756756757 0  L 3.24324324324324 0  C 1.42702702702703 0  0 0.543426294820718  0 1.23505976095617  Z " stroke-width="2" stroke-dasharray="9,4" stroke="#ff3399" fill="none" transform="matrix(1 0 0 1 1126 787 )" mask="url(#clip65)" />
  </g>
</svg>