<?xml version="1.0" encoding="utf-8"?>
<svg version="1.1" xmlns:xlink="http://www.w3.org/1999/xlink" width="16px" height="16px" xmlns="http://www.w3.org/2000/svg">
  <g transform="matrix(1 0 0 1 -1127 -81 )">
    <path d="M 15.853125 3.8546875  C 15.946875 3.759375  16 3.6328125  16 3.5  C 16 3.465625  15.9953125 3.15625  15.85 2.7171875  C 15.6625 2.153125  15.3171875 1.6109375  14.8546875 1.146875  C 14.390625 0.6828125  13.846875 0.3390625  13.2828125 0.15  C 12.84375 0.0046875  12.534375 0  12.5 0  C 12.3671875 0  12.240625 0.053125  12.146875 0.146875  L 10.659375 1.634375  L 2.146875 10.146875  C 2.14375 10.15  2.140625 10.153125  2.1375 10.15625  C 2.134375 10.159375  2.13125 10.1625  2.128125 10.165625  C 2.0515625 10.2421875  2.00625 10.3359375  1.9890625 10.434375  L 0.04375 15.30625  C -0.0296875 15.4921875  0.0125 15.703125  0.1546875 15.8453125  C 0.25 15.940625  0.378125 15.9921875  0.5078125 15.9921875  C 0.5703125 15.9921875  0.6328125 15.98125  0.69375 15.95625  L 5.5671875 14.0109375  C 5.665625 13.99375  5.759375 13.9484375  5.8359375 13.871875  C 5.8390625 13.86875  5.8421875 13.865625  5.8453125 13.8625  C 5.8484375 13.859375  5.8515625 13.85625  5.8546875 13.853125  L 14.365625 5.3421875  L 15.853125 3.8546875  Z M 13.303125 4.9875  L 5.48125 12.8125  L 3.1875 10.51875  L 11.0109375 2.6953125  L 13.303125 4.9875  Z M 1.403125 14.596875  L 2.671875 11.41875  L 4.58125 13.328125  L 1.403125 14.596875  Z M 14.975 3.315625  L 14.0125 4.28125  L 11.71875 1.9875  L 12.6828125 1.0234375  C 12.971875 1.078125  13.55 1.2578125  14.1453125 1.853125  C 14.740625 2.4484375  14.9203125 3.0265625  14.975 3.315625  Z " fill-rule="nonzero" fill="#231815" stroke="none" transform="matrix(1 0 0 1 1127 81 )" />
  </g>
</svg>