<?xml version="1.0" encoding="utf-8"?>
<svg version="1.1" xmlns:xlink="http://www.w3.org/1999/xlink" width="14px" height="14px" xmlns="http://www.w3.org/2000/svg">
  <g transform="matrix(1 0 0 1 -1128 -495 )">
    <path d="M 14 1.5  C 14 0.6734375  13.3265625 0  12.5 0  L 11 0  L 3 0  L 1.5 0  C 0.6734375 0  0 0.6734375  0 1.5  L 0 12.5  C 0 13.3265625  0.6734375 14  1.5 14  L 12.5 14  C 13.3265625 14  14 13.3265625  14 12.5  L 14 1.5  Z M 4 1  L 10 1  L 10 5.5  C 10 5.775  9.775 6  9.5 6  L 4.5 6  C 4.225 6  4 5.775  4 5.5  L 4 1  Z M 13 1.5  L 13 12.5  C 13 12.775  12.775 13  12.5 13  L 1.5 13  C 1.225 13  1 12.775  1 12.5  L 1 1.5  C 1 1.225  1.225 1  1.5 1  L 3 1  L 3 5.5  C 3 6.3265625  3.6734375 7  4.5 7  L 9.5 7  C 10.3265625 7  11 6.3265625  11 5.5  L 11 1  L 12.5 1  C 12.775 1  13 1.225  13 1.5  Z " fill-rule="nonzero" fill="#231815" stroke="none" transform="matrix(1 0 0 1 1128 495 )" />
  </g>
</svg>