<?xml version="1.0" encoding="utf-8"?>
<svg version="1.1" xmlns:xlink="http://www.w3.org/1999/xlink" width="16px" height="16px" xmlns="http://www.w3.org/2000/svg">
  <g transform="matrix(1 0 0 1 -1188 -315 )">
    <path d="M 14.853125 14.146875  L 8.7078125 8  L 14.8546875 1.853125  C 15.05 1.6578125  15.05 1.340625  14.8546875 1.1453125  C 14.659375 0.95  14.3421875 0.95  14.146875 1.1453125  L 8 7.2921875  L 1.853125 1.146875  C 1.6578125 0.9515625  1.340625 0.9515625  1.1453125 1.146875  C 0.95 1.3421875  0.95 1.659375  1.1453125 1.8546875  L 7.2921875 8  L 1.146875 14.146875  C 0.9515625 14.3421875  0.9515625 14.659375  1.146875 14.8546875  C 1.24375 14.9515625  1.371875 15.0015625  1.5 15.0015625  C 1.628125 15.0015625  1.75625 14.953125  1.853125 14.8546875  L 8 8.7078125  L 14.146875 14.8546875  C 14.24375 14.9515625  14.371875 15.0015625  14.5 15.0015625  C 14.628125 15.0015625  14.75625 14.953125  14.853125 14.8546875  C 15.0484375 14.659375  15.0484375 14.3421875  14.853125 14.146875  Z " fill-rule="nonzero" fill="#000000" stroke="none" transform="matrix(1 0 0 1 1188 315 )" />
  </g>
</svg>