<?xml version="1.0" encoding="utf-8"?>
<svg version="1.1" xmlns:xlink="http://www.w3.org/1999/xlink" width="32px" height="32px" xmlns="http://www.w3.org/2000/svg">
  <g transform="matrix(1 0 0 1 -25 -3178 )">
    <path d="M 41 3178.5  C 49.68 3178.5  56.5 3185.32  56.5 3194  C 56.5 3202.68  49.68 3209.5  41 3209.5  C 32.32 3209.5  25.5 3202.68  25.5 3194  C 25.5 3185.32  32.32 3178.5  41 3178.5  Z " fill-rule="nonzero" fill="#f3f3f3" stroke="none" />
    <path d="M 41 3178.5  C 49.68 3178.5  56.5 3185.32  56.5 3194  C 56.5 3202.68  49.68 3209.5  41 3209.5  C 32.32 3209.5  25.5 3202.68  25.5 3194  C 25.5 3185.32  32.32 3178.5  41 3178.5  Z " stroke-width="1" stroke="#000000" fill="none" stroke-opacity="0.0470588235294118" />
  </g>
</svg>