<?xml version="1.0" encoding="utf-8"?>
<svg version="1.1" xmlns:xlink="http://www.w3.org/1999/xlink" width="265px" height="329px" xmlns="http://www.w3.org/2000/svg">
  <g transform="matrix(1 0 0 1 0 -2456 )">
    <path d="M 1 2458  A 1 1 0 0 1 2 2457 L 263 2457  A 1 1 0 0 1 264 2458 L 264 2783  A 1 1 0 0 1 263 2784 L 2 2784  A 1 1 0 0 1 1 2783 L 1 2458  Z " fill-rule="nonzero" fill="#ffffff" stroke="none" fill-opacity="0" />
    <path d="M 0.5 2458  A 1.5 1.5 0 0 1 2 2456.5 L 263 2456.5  A 1.5 1.5 0 0 1 264.5 2458 L 264.5 2783  A 1.5 1.5 0 0 1 263 2784.5 L 2 2784.5  A 1.5 1.5 0 0 1 0.5 2783 L 0.5 2458  Z " stroke-width="1" stroke-dasharray="9,4" stroke="#e9e9e9" fill="none" stroke-dashoffset="0.5" />
  </g>
</svg>