<?xml version="1.0" encoding="utf-8"?>
<svg version="1.1" xmlns:xlink="http://www.w3.org/1999/xlink" width="265px" height="329px" xmlns="http://www.w3.org/2000/svg">
  <g transform="matrix(1 0 0 1 0 -2456 )">
    <path d="M 1 2460  A 3 3 0 0 1 4 2457 L 261 2457  A 3 3 0 0 1 264 2460 L 264 2781  A 3 3 0 0 1 261 2784 L 4 2784  A 3 3 0 0 1 1 2781 L 1 2460  Z " fill-rule="nonzero" fill="#ffffff" stroke="none" fill-opacity="0" />
    <path d="M 0.5 2460  A 3.5 3.5 0 0 1 4 2456.5 L 261 2456.5  A 3.5 3.5 0 0 1 264.5 2460 L 264.5 2781  A 3.5 3.5 0 0 1 261 2784.5 L 4 2784.5  A 3.5 3.5 0 0 1 0.5 2781 L 0.5 2460  Z " stroke-width="1" stroke-dasharray="9,4" stroke="#d9d9d9" fill="none" stroke-dashoffset="0.5" />
  </g>
</svg>