<?xml version="1.0" encoding="utf-8"?>
<svg version="1.1" xmlns:xlink="http://www.w3.org/1999/xlink" width="391px" height="10px" preserveAspectRatio="xMinYMid meet" viewBox="1064 146  391 8" xmlns="http://www.w3.org/2000/svg">
  <path d="M 1069 164  L 1069 155  A 5 5 0 0 1 1074 150 L 1445 150  A 5 5 0 0 1 1450 155 L 1450 158  " stroke-width="2" stroke="#ff3399" fill="none" />
  <path d="M 1069 159  A 3.5 3.5 0 0 0 1065.5 162.5 A 3.5 3.5 0 0 0 1069 166 A 3.5 3.5 0 0 0 1072.5 162.5 A 3.5 3.5 0 0 0 1069 159 Z M 1442 150.6  L 1450 160  L 1458 150.6  L 1450 154.2  L 1442 150.6  Z " fill-rule="nonzero" fill="#ff3399" stroke="none" />
</svg>