<?xml version="1.0" encoding="utf-8"?>
<svg version="1.1" xmlns:xlink="http://www.w3.org/1999/xlink" width="521px" height="128px" xmlns="http://www.w3.org/2000/svg">
  <defs>
    <mask fill="white" id="clip27">
      <path d="M 0 124.858895705521  L 0 3.14110429447853  C 0 1.38208588957055  1.75999999999999 0  4 0  L 99.3333333333321 0  L 517 0  C 519.24 0  521 1.38208588957055  521 3.14110429447853  L 521 124.858895705521  C 521 126.617914110429  519.24 128  517 128  L 4 128  C 1.75999999999999 128  0 126.617914110429  0 124.858895705521  Z " fill-rule="evenodd" />
    </mask>
  </defs>
  <g transform="matrix(1 0 0 1 -1694 -204 )">
    <path d="M 0 124.858895705521  L 0 3.14110429447853  C 0 1.38208588957055  1.75999999999999 0  4 0  L 99.3333333333321 0  L 517 0  C 519.24 0  521 1.38208588957055  521 3.14110429447853  L 521 124.858895705521  C 521 126.617914110429  519.24 128  517 128  L 4 128  C 1.75999999999999 128  0 126.617914110429  0 124.858895705521  Z " fill-rule="nonzero" fill="#ff3399" stroke="none" fill-opacity="0.0980392156862745" transform="matrix(1 0 0 1 1694 204 )" />
    <path d="M 0 124.858895705521  L 0 3.14110429447853  C 0 1.38208588957055  1.75999999999999 0  4 0  L 99.3333333333321 0  L 517 0  C 519.24 0  521 1.38208588957055  521 3.14110429447853  L 521 124.858895705521  C 521 126.617914110429  519.24 128  517 128  L 4 128  C 1.75999999999999 128  0 126.617914110429  0 124.858895705521  Z " stroke-width="2" stroke-dasharray="9,4" stroke="#ff3399" fill="none" transform="matrix(1 0 0 1 1694 204 )" mask="url(#clip27)" />
  </g>
</svg>