<?xml version="1.0" encoding="utf-8"?>
<svg version="1.1" xmlns:xlink="http://www.w3.org/1999/xlink" width="12px" height="12px" viewBox="504 270  12 12" xmlns="http://www.w3.org/2000/svg">
  <path d="M 510 270  C 513.36 270  516 272.64  516 276  C 516 279.36  513.36 282  510 282  C 506.64 282  504 279.36  504 276  C 504 272.64  506.64 270  510 270  Z " fill-rule="nonzero" fill="#f0f0f0" stroke="none" />
  <path d="M 510 270.5  C 513.08 270.5  515.5 272.92  515.5 276  C 515.5 279.08  513.08 281.5  510 281.5  C 506.92 281.5  504.5 279.08  504.5 276  C 504.5 272.92  506.92 270.5  510 270.5  Z " stroke-width="1" stroke="#797979" fill="none" />
  <path d="M 510 279  C 508.32 279  507 277.68  507 276  C 507 274.32  508.32 273  510 273  C 511.68 273  513 274.32  513 276  C 513 277.68  511.68 279  510 279  " fill-rule="nonzero" fill="#797979" stroke="none" />
</svg>