<?xml version="1.0" encoding="utf-8"?>
<svg version="1.1" xmlns:xlink="http://www.w3.org/1999/xlink" width="12px" height="12px" viewBox="383 270  12 12" xmlns="http://www.w3.org/2000/svg">
  <path d="M 389 270  C 392.36 270  395 272.64  395 276  C 395 279.36  392.36 282  389 282  C 385.64 282  383 279.36  383 276  C 383 272.64  385.64 270  389 270  Z " fill-rule="nonzero" fill="#ffffff" stroke="none" />
  <path d="M 389 270.5  C 392.08 270.5  394.5 272.92  394.5 276  C 394.5 279.08  392.08 281.5  389 281.5  C 385.92 281.5  383.5 279.08  383.5 276  C 383.5 272.92  385.92 270.5  389 270.5  Z " stroke-width="1" stroke="#797979" fill="none" />
  <path d="M 389 279  C 387.32 279  386 277.68  386 276  C 386 274.32  387.32 273  389 273  C 390.68 273  392 274.32  392 276  C 392 277.68  390.68 279  389 279  " fill-rule="nonzero" fill="#797979" stroke="none" />
</svg>