<?xml version="1.0" encoding="utf-8"?>
<svg version="1.1" xmlns:xlink="http://www.w3.org/1999/xlink" width="12px" height="12px" viewBox="504 194  12 12" xmlns="http://www.w3.org/2000/svg">
  <path d="M 510 194  C 513.36 194  516 196.64  516 200  C 516 203.36  513.36 206  510 206  C 506.64 206  504 203.36  504 200  C 504 196.64  506.64 194  510 194  Z " fill-rule="nonzero" fill="#ffffff" stroke="none" />
  <path d="M 510 194.5  C 513.08 194.5  515.5 196.92  515.5 200  C 515.5 203.08  513.08 205.5  510 205.5  C 506.92 205.5  504.5 203.08  504.5 200  C 504.5 196.92  506.92 194.5  510 194.5  Z " stroke-width="1" stroke="#797979" fill="none" />
  <path d="M 510 203  C 508.32 203  507 201.68  507 200  C 507 198.32  508.32 197  510 197  C 511.68 197  513 198.32  513 200  C 513 201.68  511.68 203  510 203  " fill-rule="nonzero" fill="#797979" stroke="none" />
</svg>