<?xml version="1.0" encoding="utf-8"?>
<svg version="1.1" xmlns:xlink="http://www.w3.org/1999/xlink" width="12px" height="12px" viewBox="383 309  12 12" xmlns="http://www.w3.org/2000/svg">
  <path d="M 389 309  C 392.36 309  395 311.64  395 315  C 395 318.36  392.36 321  389 321  C 385.64 321  383 318.36  383 315  C 383 311.64  385.64 309  389 309  Z " fill-rule="nonzero" fill="#ffffff" stroke="none" />
  <path d="M 389 309.5  C 392.08 309.5  394.5 311.92  394.5 315  C 394.5 318.08  392.08 320.5  389 320.5  C 385.92 320.5  383.5 318.08  383.5 315  C 383.5 311.92  385.92 309.5  389 309.5  Z " stroke-width="1" stroke="#797979" fill="none" />
  <path d="M 389 318  C 387.32 318  386 316.68  386 315  C 386 313.32  387.32 312  389 312  C 390.68 312  392 313.32  392 315  C 392 316.68  390.68 318  389 318  " fill-rule="nonzero" fill="#797979" stroke="none" />
</svg>