<?xml version="1.0" encoding="utf-8"?>
<svg version="1.1" xmlns:xlink="http://www.w3.org/1999/xlink" width="12px" height="12px" viewBox="504 309  12 12" xmlns="http://www.w3.org/2000/svg">
  <path d="M 510 309  C 513.36 309  516 311.64  516 315  C 516 318.36  513.36 321  510 321  C 506.64 321  504 318.36  504 315  C 504 311.64  506.64 309  510 309  Z " fill-rule="nonzero" fill="#f0f0f0" stroke="none" />
  <path d="M 510 309.5  C 513.08 309.5  515.5 311.92  515.5 315  C 515.5 318.08  513.08 320.5  510 320.5  C 506.92 320.5  504.5 318.08  504.5 315  C 504.5 311.92  506.92 309.5  510 309.5  Z " stroke-width="1" stroke="#797979" fill="none" />
  <path d="M 510 318  C 508.32 318  507 316.68  507 315  C 507 313.32  508.32 312  510 312  C 511.68 312  513 313.32  513 315  C 513 316.68  511.68 318  510 318  " fill-rule="nonzero" fill="#797979" stroke="none" />
</svg>