<?xml version="1.0" encoding="utf-8"?>
<svg version="1.1" xmlns:xlink="http://www.w3.org/1999/xlink" width="12px" height="12px" viewBox="504 231  12 12" xmlns="http://www.w3.org/2000/svg">
  <path d="M 510 231  C 513.36 231  516 233.64  516 237  C 516 240.36  513.36 243  510 243  C 506.64 243  504 240.36  504 237  C 504 233.64  506.64 231  510 231  Z " fill-rule="nonzero" fill="#ffffff" stroke="none" />
  <path d="M 510 231.5  C 513.08 231.5  515.5 233.92  515.5 237  C 515.5 240.08  513.08 242.5  510 242.5  C 506.92 242.5  504.5 240.08  504.5 237  C 504.5 233.92  506.92 231.5  510 231.5  Z " stroke-width="1" stroke="#797979" fill="none" />
  <path d="M 510 240  C 508.32 240  507 238.68  507 237  C 507 235.32  508.32 234  510 234  C 511.68 234  513 235.32  513 237  C 513 238.68  511.68 240  510 240  " fill-rule="nonzero" fill="#797979" stroke="none" />
</svg>