<?xml version="1.0" encoding="utf-8"?>
<svg version="1.1" xmlns:xlink="http://www.w3.org/1999/xlink" width="461px" height="59px" xmlns="http://www.w3.org/2000/svg">
  <g transform="matrix(1 0 0 1 -1006 -150 )">
    <path d="M 1007 154  A 3 3 0 0 1 1010 151 L 1463 151  A 3 3 0 0 1 1466 154 L 1466 205  A 3 3 0 0 1 1463 208 L 1010 208  A 3 3 0 0 1 1007 205 L 1007 154  Z " fill-rule="nonzero" fill="#ff3399" stroke="none" fill-opacity="0.0980392156862745" />
    <path d="M 1006.5 154  A 3.5 3.5 0 0 1 1010 150.5 L 1463 150.5  A 3.5 3.5 0 0 1 1466.5 154 L 1466.5 205  A 3.5 3.5 0 0 1 1463 208.5 L 1010 208.5  A 3.5 3.5 0 0 1 1006.5 205 L 1006.5 154  Z " stroke-width="1" stroke-dasharray="9,4" stroke="#ff3399" fill="none" stroke-dashoffset="0.5" />
  </g>
</svg>