<?xml version="1.0" encoding="utf-8"?>
<svg version="1.1" xmlns:xlink="http://www.w3.org/1999/xlink" width="341px" height="198px" xmlns="http://www.w3.org/2000/svg">
  <g transform="matrix(1 0 0 1 -1260 -1113 )">
    <path d="M 1261 1117  A 3 3 0 0 1 1264 1114 L 1597 1114  A 3 3 0 0 1 1600 1117 L 1600 1307  A 3 3 0 0 1 1597 1310 L 1264 1310  A 3 3 0 0 1 1261 1307 L 1261 1117  Z " fill-rule="nonzero" fill="#ff3399" stroke="none" fill-opacity="0.0980392156862745" />
    <path d="M 1260.5 1117  A 3.5 3.5 0 0 1 1264 1113.5 L 1597 1113.5  A 3.5 3.5 0 0 1 1600.5 1117 L 1600.5 1307  A 3.5 3.5 0 0 1 1597 1310.5 L 1264 1310.5  A 3.5 3.5 0 0 1 1260.5 1307 L 1260.5 1117  Z " stroke-width="1" stroke-dasharray="9,4" stroke="#ff3399" fill="none" stroke-dashoffset="0.5" />
  </g>
</svg>