<?xml version="1.0" encoding="utf-8"?>
<svg version="1.1" xmlns:xlink="http://www.w3.org/1999/xlink" width="329px" height="65px" xmlns="http://www.w3.org/2000/svg">
  <g transform="matrix(1 0 0 1 -1241 -265 )">
    <path d="M 1242 269  A 3 3 0 0 1 1245 266 L 1566 266  A 3 3 0 0 1 1569 269 L 1569 326  A 3 3 0 0 1 1566 329 L 1245 329  A 3 3 0 0 1 1242 326 L 1242 269  Z " fill-rule="nonzero" fill="#ff3399" stroke="none" fill-opacity="0.0980392156862745" />
    <path d="M 1241.5 269  A 3.5 3.5 0 0 1 1245 265.5 L 1566 265.5  A 3.5 3.5 0 0 1 1569.5 269 L 1569.5 326  A 3.5 3.5 0 0 1 1566 329.5 L 1245 329.5  A 3.5 3.5 0 0 1 1241.5 326 L 1241.5 269  Z " stroke-width="1" stroke-dasharray="9,4" stroke="#ff3399" fill="none" stroke-dashoffset="0.5" />
  </g>
</svg>