<?xml version="1.0" encoding="utf-8"?>
<svg version="1.1" xmlns:xlink="http://www.w3.org/1999/xlink" width="329px" height="101px" xmlns="http://www.w3.org/2000/svg">
  <g transform="matrix(1 0 0 1 -1253 -921 )">
    <path d="M 1254 925  A 3 3 0 0 1 1257 922 L 1578 922  A 3 3 0 0 1 1581 925 L 1581 1018  A 3 3 0 0 1 1578 1021 L 1257 1021  A 3 3 0 0 1 1254 1018 L 1254 925  Z " fill-rule="nonzero" fill="#ff3399" stroke="none" fill-opacity="0.0980392156862745" />
    <path d="M 1253.5 925  A 3.5 3.5 0 0 1 1257 921.5 L 1578 921.5  A 3.5 3.5 0 0 1 1581.5 925 L 1581.5 1018  A 3.5 3.5 0 0 1 1578 1021.5 L 1257 1021.5  A 3.5 3.5 0 0 1 1253.5 1018 L 1253.5 925  Z " stroke-width="1" stroke-dasharray="9,4" stroke="#ff3399" fill="none" stroke-dashoffset="0.5" />
  </g>
</svg>