<?xml version="1.0" encoding="utf-8"?>
<svg version="1.1" xmlns:xlink="http://www.w3.org/1999/xlink" width="317px" height="65px" xmlns="http://www.w3.org/2000/svg">
  <g transform="matrix(1 0 0 1 -1253 -458 )">
    <path d="M 1254 462  A 3 3 0 0 1 1257 459 L 1566 459  A 3 3 0 0 1 1569 462 L 1569 519  A 3 3 0 0 1 1566 522 L 1257 522  A 3 3 0 0 1 1254 519 L 1254 462  Z " fill-rule="nonzero" fill="#ff3399" stroke="none" fill-opacity="0.0980392156862745" />
    <path d="M 1253.5 462  A 3.5 3.5 0 0 1 1257 458.5 L 1566 458.5  A 3.5 3.5 0 0 1 1569.5 462 L 1569.5 519  A 3.5 3.5 0 0 1 1566 522.5 L 1257 522.5  A 3.5 3.5 0 0 1 1253.5 519 L 1253.5 462  Z " stroke-width="1" stroke-dasharray="9,4" stroke="#ff3399" fill="none" stroke-dashoffset="0.5" />
  </g>
</svg>