<?xml version="1.0" encoding="utf-8"?>
<svg version="1.1" xmlns:xlink="http://www.w3.org/1999/xlink" width="252px" height="65px" xmlns="http://www.w3.org/2000/svg">
  <g transform="matrix(1 0 0 1 -1253 -845 )">
    <path d="M 1254 849  A 3 3 0 0 1 1257 846 L 1501 846  A 3 3 0 0 1 1504 849 L 1504 906  A 3 3 0 0 1 1501 909 L 1257 909  A 3 3 0 0 1 1254 906 L 1254 849  Z " fill-rule="nonzero" fill="#ff3399" stroke="none" fill-opacity="0.0980392156862745" />
    <path d="M 1253.5 849  A 3.5 3.5 0 0 1 1257 845.5 L 1501 845.5  A 3.5 3.5 0 0 1 1504.5 849 L 1504.5 906  A 3.5 3.5 0 0 1 1501 909.5 L 1257 909.5  A 3.5 3.5 0 0 1 1253.5 906 L 1253.5 849  Z " stroke-width="1" stroke-dasharray="9,4" stroke="#ff3399" fill="none" stroke-dashoffset="0.5" />
  </g>
</svg>