<?xml version="1.0" encoding="utf-8"?>
<svg version="1.1" xmlns:xlink="http://www.w3.org/1999/xlink" width="329px" height="80px" xmlns="http://www.w3.org/2000/svg">
  <g transform="matrix(1 0 0 1 -1241 -135 )">
    <path d="M 1242 139  A 3 3 0 0 1 1245 136 L 1566 136  A 3 3 0 0 1 1569 139 L 1569 211  A 3 3 0 0 1 1566 214 L 1245 214  A 3 3 0 0 1 1242 211 L 1242 139  Z " fill-rule="nonzero" fill="#ff3399" stroke="none" fill-opacity="0.0980392156862745" />
    <path d="M 1241.5 139  A 3.5 3.5 0 0 1 1245 135.5 L 1566 135.5  A 3.5 3.5 0 0 1 1569.5 139 L 1569.5 211  A 3.5 3.5 0 0 1 1566 214.5 L 1245 214.5  A 3.5 3.5 0 0 1 1241.5 211 L 1241.5 139  Z " stroke-width="1" stroke-dasharray="9,4" stroke="#ff3399" fill="none" stroke-dashoffset="0.5" />
  </g>
</svg>