<?xml version="1.0" encoding="utf-8"?>
<svg version="1.1" xmlns:xlink="http://www.w3.org/1999/xlink" width="12px" height="12px" viewBox="365 617.5  12 12" xmlns="http://www.w3.org/2000/svg">
  <path d="M 365.5 620.5  A 2.5 2.5 0 0 1 368 618 L 374 618  A 2.5 2.5 0 0 1 376.5 620.5 L 376.5 626.5  A 2.5 2.5 0 0 1 374 629 L 368 629  A 2.5 2.5 0 0 1 365.5 626.5 L 365.5 620.5  Z " fill-rule="nonzero" fill="#ffffff" stroke="none" />
  <path d="M 365.5 620.5  A 2.5 2.5 0 0 1 368 618 L 374 618  A 2.5 2.5 0 0 1 376.5 620.5 L 376.5 626.5  A 2.5 2.5 0 0 1 374 629 L 368 629  A 2.5 2.5 0 0 1 365.5 626.5 L 365.5 620.5  Z " stroke-width="1" stroke="#797979" fill="none" />
</svg>