<?xml version="1.0" encoding="utf-8"?>
<svg version="1.1" xmlns:xlink="http://www.w3.org/1999/xlink" width="12px" height="12px" viewBox="365 567.5  12 12" xmlns="http://www.w3.org/2000/svg">
  <path d="M 365.5 570.5  A 2.5 2.5 0 0 1 368 568 L 374 568  A 2.5 2.5 0 0 1 376.5 570.5 L 376.5 576.5  A 2.5 2.5 0 0 1 374 579 L 368 579  A 2.5 2.5 0 0 1 365.5 576.5 L 365.5 570.5  Z " fill-rule="nonzero" fill="#f0f0f0" stroke="none" />
  <path d="M 365.5 570.5  A 2.5 2.5 0 0 1 368 568 L 374 568  A 2.5 2.5 0 0 1 376.5 570.5 L 376.5 576.5  A 2.5 2.5 0 0 1 374 579 L 368 579  A 2.5 2.5 0 0 1 365.5 576.5 L 365.5 570.5  Z " stroke-width="1" stroke="#797979" fill="none" />
  <path d="M 367.571428571429 573.5  L 370.142857142857 576.071428571429  L 374.428571428571 570.071428571429  " stroke-width="2.57142857142857" stroke="#797979" fill="none" />
</svg>