<?xml version="1.0" encoding="utf-8"?>
<svg version="1.1" xmlns:xlink="http://www.w3.org/1999/xlink" width="12px" height="12px" viewBox="365 667.5  12 12" xmlns="http://www.w3.org/2000/svg">
  <path d="M 365.5 670.5  A 2.5 2.5 0 0 1 368 668 L 374 668  A 2.5 2.5 0 0 1 376.5 670.5 L 376.5 676.5  A 2.5 2.5 0 0 1 374 679 L 368 679  A 2.5 2.5 0 0 1 365.5 676.5 L 365.5 670.5  Z " fill-rule="nonzero" fill="#f0f0f0" stroke="none" />
  <path d="M 365.5 670.5  A 2.5 2.5 0 0 1 368 668 L 374 668  A 2.5 2.5 0 0 1 376.5 670.5 L 376.5 676.5  A 2.5 2.5 0 0 1 374 679 L 368 679  A 2.5 2.5 0 0 1 365.5 676.5 L 365.5 670.5  Z " stroke-width="1" stroke="#797979" fill="none" />
</svg>