<?xml version="1.0" encoding="utf-8"?>
<svg version="1.1" xmlns:xlink="http://www.w3.org/1999/xlink" width="30px" height="30px" xmlns="http://www.w3.org/2000/svg">
  <g transform="matrix(1 0 0 1 -444 -158 )">
    <path d="M 459 158  C 467.4 158  474 164.6  474 173  C 474 181.4  467.4 188  459 188  C 450.6 188  444 181.4  444 173  C 444 164.6  450.6 158  459 158  Z " fill-rule="nonzero" fill="#ffffff" stroke="none" />
    <path d="M 459 158.5  C 467.12 158.5  473.5 164.88  473.5 173  C 473.5 181.12  467.12 187.5  459 187.5  C 450.88 187.5  444.5 181.12  444.5 173  C 444.5 164.88  450.88 158.5  459 158.5  Z " stroke-width="1" stroke="#797979" fill="none" />
  </g>
</svg>