<?xml version="1.0" encoding="utf-8"?>
<svg version="1.1" xmlns:xlink="http://www.w3.org/1999/xlink" width="13px" height="15px" xmlns="http://www.w3.org/2000/svg">
  <g transform="matrix(1 0 0 1 -368 -13 )">
    <path d="M 12.6936026936027 11.2121212121212  C 12.8978675645342 11.4478114478114  13 11.7340067340067  13 12.0707070707071  C 13 12.4074074074074  12.8978675645342 12.6936026936027  12.6936026936027 12.9292929292929  L 11.2053872053872 14.6464646464646  C 11.0011223344557 14.8821548821549  10.7530864197531 15  10.4612794612795 15  C 10.1694725028058 15  9.92143658810325 14.8821548821549  9.71717171717172 14.6464646464646  L 6.5 10.9343434343434  L 3.28282828282828 14.6464646464646  C 3.07856341189675 14.8821548821549  2.83052749719416 15  2.53872053872054 15  C 2.24691358024691 15  1.99887766554433 14.8821548821549  1.79461279461279 14.6464646464646  L 0.306397306397306 12.9292929292929  C 0.102132435465769 12.6936026936027  0 12.4074074074074  0 12.0707070707071  C 0 11.7340067340067  0.102132435465769 11.4478114478114  0.306397306397306 11.2121212121212  L 3.52356902356902 7.5  L 0.306397306397306 3.78787878787879  C 0.102132435465769 3.55218855218855  0 3.26599326599327  0 2.92929292929293  C 0 2.59259259259259  0.102132435465769 2.3063973063973  0.306397306397306 2.07070707070707  L 1.79461279461279 0.353535353535354  C 1.99887766554433 0.117845117845117  2.24691358024691 0  2.53872053872054 0  C 2.83052749719416 0  3.07856341189675 0.117845117845117  3.28282828282828 0.353535353535354  L 6.5 4.06565656565657  L 9.71717171717172 0.353535353535354  C 9.92143658810325 0.117845117845117  10.1694725028058 0  10.4612794612795 0  C 10.7530864197531 0  11.0011223344557 0.117845117845117  11.2053872053872 0.353535353535354  L 12.6936026936027 2.07070707070707  C 12.8978675645342 2.3063973063973  13 2.59259259259259  13 2.92929292929293  C 13 3.26599326599327  12.8978675645342 3.55218855218855  12.6936026936027 3.78787878787879  L 9.47643097643098 7.5  L 12.6936026936027 11.2121212121212  Z " fill-rule="nonzero" fill="#d7d7d7" stroke="none" transform="matrix(1 0 0 1 368 13 )" />
  </g>
</svg>