<?xml version="1.0" encoding="utf-8"?>
<svg version="1.1" xmlns:xlink="http://www.w3.org/1999/xlink" width="288px" height="386px" xmlns="http://www.w3.org/2000/svg">
  <g transform="matrix(1 0 0 1 -274 -216 )">
    <path d="M 274 216  L 562 216  L 562 602  L 274 602  L 274 216  " fill-rule="nonzero" fill="#cccccc" stroke="none" />
    <path d="M 294 236  L 542 236  L 542 582  L 294 582  L 294 236  " fill-rule="nonzero" fill="#ffffff" stroke="none" />
    <path d="M 445.36 317.1  C 433.264 317.1  423.76 307.596  423.76 295.5  C 423.76 283.404  433.264 273.9  445.36 273.9  C 457.456 273.9  466.96 283.404  466.96 295.5  C 466.96 307.596  457.456 317.1  445.36 317.1  " fill-rule="nonzero" fill="#cccccc" stroke="none" />
    <path d="M 301 575  L 301 392.4  L 359.5 309.4  L 441.4 375.8  L 488.2 359.2  L 535 375.8  L 535 575  L 301 575  " fill-rule="nonzero" fill="#169bd5" stroke="none" />
  </g>
</svg>