<?xml version="1.0" encoding="utf-8"?>
<svg version="1.1" xmlns:xlink="http://www.w3.org/1999/xlink" width="562px" height="964px" xmlns="http://www.w3.org/2000/svg">
  <g transform="matrix(1 0 0 1 -483 -209 )">
    <path d="M 483 209  L 1045 209  L 1045 1173  L 483 1173  L 483 209  " fill-rule="nonzero" fill="#cccccc" stroke="none" />
    <path d="M 522 248  L 1006 248  L 1006 1134  L 522 1134  L 522 248  " fill-rule="nonzero" fill="#ffffff" stroke="none" />
    <path d="M 817.39 437.9  C 793.786 437.9  775.24 419.354  775.24 395.75  C 775.24 372.146  793.786 353.6  817.39 353.6  C 840.994 353.6  859.54 372.146  859.54 395.75  C 859.54 419.354  840.994 437.9  817.39 437.9  " fill-rule="nonzero" fill="#cccccc" stroke="none" />
    <path d="M 536 1120  L 536 648.1  L 650 433.6  L 809.6 605.2  L 900.8 562.3  L 992 605.2  L 992 1120  L 536 1120  " fill-rule="nonzero" fill="#169bd5" stroke="none" />
  </g>
</svg>