<?xml version="1.0" encoding="utf-8"?>
<svg version="1.1" xmlns:xlink="http://www.w3.org/1999/xlink" width="56px" height="56px" xmlns="http://www.w3.org/2000/svg">
  <g transform="matrix(1 0 0 1 -513 -303 )">
    <path d="M 541 303  C 556.68 303  569 315.32  569 331  C 569 346.68  556.68 359  541 359  C 525.32 359  513 346.68  513 331  C 513 315.32  525.32 303  541 303  Z " fill-rule="nonzero" fill="#999999" stroke="none" />
    <path d="M 541 303.5  C 556.4 303.5  568.5 315.6  568.5 331  C 568.5 346.4  556.4 358.5  541 358.5  C 525.6 358.5  513.5 346.4  513.5 331  C 513.5 315.6  525.6 303.5  541 303.5  Z " stroke-width="1" stroke="#797979" fill="none" />
  </g>
</svg>