<?xml version="1.0" encoding="utf-8"?>
<svg version="1.1" xmlns:xlink="http://www.w3.org/1999/xlink" width="30px" height="20px" xmlns="http://www.w3.org/2000/svg">
  <g transform="matrix(1 0 0 1 -397 -292 )">
    <path d="M 412 292  C 420.4 292  427 296.4  427 302  C 427 307.6  420.4 312  412 312  C 403.6 312  397 307.6  397 302  C 397 296.4  403.6 292  412 292  Z " fill-rule="nonzero" fill="#ffffff" stroke="none" />
    <path d="M 412 292.5  C 420.12 292.5  426.5 296.68  426.5 302  C 426.5 307.32  420.12 311.5  412 311.5  C 403.88 311.5  397.5 307.32  397.5 302  C 397.5 296.68  403.88 292.5  412 292.5  Z " stroke-width="1" stroke="#797979" fill="none" />
  </g>
</svg>