<?xml version="1.0" encoding="utf-8"?>
<svg version="1.1" xmlns:xlink="http://www.w3.org/1999/xlink" width="11px" height="12px" xmlns="http://www.w3.org/2000/svg">
  <g transform="matrix(1 0 0 1 -399 -247 )">
    <path d="M 0.996875000000001 0  L 10.003125 0  C 10.1348958333333 0  10.2609375 0.0237937871777945  10.38125 0.0713813615333834  C 10.5703125 0.140118968935894  10.720703125 0.248512888301377  10.832421875 0.396563119629889  C 10.944140625 0.544613350958372  11 0.708526107072032  11 0.888301387970927  L 11 11.1116986120291  C 11 11.291473892928  10.944140625 11.4553866490416  10.832421875 11.6034368803701  C 10.720703125 11.7514871116986  10.5703125 11.8598810310641  10.38125 11.9286186384666  C 10.2723958333334 11.9709187045605  10.1463541666667 11.9920687376074  10.003125 11.9920687376074  C 9.72812499999999 11.9920687376074  9.49036458333333 11.9074686054197  9.28984375000002 11.7382683410443  L 5.49999999999997 8.37541308658294  L 1.71015624999998 11.7382683410443  C 1.50390625000001 11.9127561136814  1.26614583333336 12  0.996875000000001 12  C 0.865104166666681 12  0.739062500000017 11.9762062128222  0.618750000000009 11.9286186384666  C 0.429687500000013 11.8598810310641  0.279296875000018 11.7514871116986  0.167578125000023 11.6034368803701  C 0.0558593750000284 11.4553866490416  0 11.291473892928  0 11.1116986120291  L 0 0.888301387970927  C 0 0.708526107072032  0.0558593750000284 0.544613350958372  0.167578125000023 0.396563119629889  C 0.279296875000018 0.248512888301377  0.429687500000013 0.140118968935894  0.618750000000009 0.0713813615333834  C 0.739062500000017 0.0237937871777945  0.865104166666681 0  0.996875000000001 0  Z " fill-rule="nonzero" fill="#ff0000" stroke="none" transform="matrix(1 0 0 1 399 247 )" />
  </g>
</svg>